<svg width="20" height="18" viewBox="0 0 20 18" fill="none" xmlns="http://www.w3.org/2000/svg">
<path d="M3.91016 17C5.50316 15.452 7.65816 14.5 10.0232 14.5C12.3652 14.5 14.4972 15.433 16.0892 16.952" stroke="#0C9CFF" stroke-width="1.5" stroke-linecap="round" stroke-linejoin="round"/>
<path d="M12.1213 6.37868C13.2929 7.55025 13.2929 9.44975 12.1213 10.6213C10.9497 11.7929 9.05025 11.7929 7.87868 10.6213C6.70711 9.44975 6.70711 7.55025 7.87868 6.37868C9.05025 5.20711 10.9497 5.20711 12.1213 6.37868Z" stroke="#0C9CFF" stroke-width="1.5" stroke-linecap="round" stroke-linejoin="round"/>
<path d="M1.975 14.025C1.365 12.811 1 11.452 1 10C1 5.026 5.026 1 10 1C14.974 1 19 5.026 19 10C19 11.45 18.637 12.81 18.023 14.023" stroke="#0C9CFF" stroke-width="1.5" stroke-linecap="round" stroke-linejoin="round"/>
</svg>
