<svg width="40" height="36" viewBox="0 0 40 36" fill="none" xmlns="http://www.w3.org/2000/svg">
<path d="M2.86357 12.6914C2.37235 12.6909 1.90085 12.8846 1.5518 13.2302C1.20275 13.5758 1.00445 14.0454 1.00011 14.5366C0.99812 14.7068 1.02278 14.8764 1.07319 15.039L5.79577 31.6914C6.01466 32.4692 6.48244 33.1539 7.1275 33.6406C7.77256 34.1272 8.55934 34.3891 9.3674 34.3861H30.6327C31.4423 34.3868 32.2302 34.1243 32.8777 33.6383C33.5252 33.1523 33.9972 32.469 34.2226 31.6914L38.9452 15.039L39 14.5366C38.9957 14.0454 38.7974 13.5758 38.4483 13.2302C38.0993 12.8846 37.6278 12.6909 37.1365 12.6914H2.86357ZM20.5226 27.3131C19.7633 27.3094 19.0222 27.0808 18.3928 26.6562C17.7634 26.2316 17.2738 25.6301 16.9859 24.9276C16.6979 24.2251 16.6246 23.453 16.775 22.7088C16.9254 21.9646 17.293 21.2817 17.8312 20.7462C18.3694 20.2106 19.0541 19.8465 19.799 19.6998C20.544 19.5531 21.3157 19.6303 22.0168 19.9217C22.7178 20.2131 23.3169 20.7057 23.7383 21.3372C24.1597 21.9688 24.3846 22.711 24.3847 23.4702C24.3798 24.4913 23.9708 25.4688 23.247 26.189C22.5232 26.9092 21.5436 27.3134 20.5226 27.3131V27.3131Z" stroke="#0C9CFF" stroke-width="2" stroke-linejoin="round"/>
<path d="M11.2305 12.6923L19.9997 1L28.7689 12.6923" stroke="#0C9CFF" stroke-width="2" stroke-linejoin="round"/>
</svg>
