<svg width="70" height="70" viewBox="0 0 70 70" fill="none" xmlns="http://www.w3.org/2000/svg">
<path d="M9.25977 55.0202L9.25977 55.0231C9.25977 48.8335 14.2757 43.815 20.4652 43.8119H31.6736V43.8119C37.8643 43.8119 42.8832 48.8296 42.8848 55.0202" stroke="#424242" stroke-width="1.5" stroke-linecap="round" stroke-linejoin="round"/>
<path d="M56.9902 14.98H56.9902C61.9894 19.9793 61.9894 28.0846 56.9902 33.0838" stroke="#424242" stroke-width="1.5" stroke-linecap="round" stroke-linejoin="round"/>
<path d="M48.4878 19.5073V19.5073C50.9874 22.0069 50.9874 26.0596 48.4878 28.5592" stroke="#424242" stroke-width="1.5" stroke-linecap="round" stroke-linejoin="round"/>
<path d="M26.0709 34.2851C31.2044 34.2851 35.3659 30.1236 35.3659 24.9901C35.3659 19.8566 31.2044 15.6951 26.0709 15.6951C20.9374 15.6951 16.7759 19.8566 16.7759 24.9901C16.7759 30.1236 20.9374 34.2851 26.0709 34.2851Z" stroke="#424242" stroke-width="1.5" stroke-linecap="round" stroke-linejoin="round"/>
</svg>
