<svg width="78" height="78" viewBox="0 0 78 78" fill="none" xmlns="http://www.w3.org/2000/svg">
<path d="M9.75 61.7501L9.75 61.7534C9.75 54.7198 15.4499 49.0169 22.4835 49.0134H35.2202V49.0134C42.2551 49.0134 47.9585 54.7153 47.9602 61.7501" stroke="#0C9CFF" stroke-width="2" stroke-linecap="round" stroke-linejoin="round"/>
<path d="M63.9893 16.25H63.9893C69.6702 21.9309 69.6702 31.1416 63.9893 36.8225" stroke="#0C9CFF" stroke-width="2" stroke-linecap="round" stroke-linejoin="round"/>
<path d="M54.3271 21.3948V21.3948C57.1676 24.2352 57.1676 28.8406 54.3271 31.681" stroke="#0C9CFF" stroke-width="2" stroke-linecap="round" stroke-linejoin="round"/>
<path d="M28.8535 38.1875C34.687 38.1875 39.416 33.4585 39.416 27.625C39.416 21.7915 34.687 17.0625 28.8535 17.0625C23.02 17.0625 18.291 21.7915 18.291 27.625C18.291 33.4585 23.02 38.1875 28.8535 38.1875Z" stroke="#0C9CFF" stroke-width="2" stroke-linecap="round" stroke-linejoin="round"/>
</svg>
