<svg width="295" height="273" viewBox="0 0 295 273" fill="none" xmlns="http://www.w3.org/2000/svg">
<path d="M258.328 201.752H276.136V194.227H258.328V201.752Z" fill="#EBEBEB"/>
<path d="M268.26 211.24H286.068V203.715H268.26V211.24Z" fill="#EBEBEB"/>
<path d="M248.388 211.24H266.196V203.715H248.388V211.24Z" fill="#EBEBEB"/>
<path d="M18.863 211.24H36.6709V203.715H18.863V211.24Z" fill="#EBEBEB"/>
<path d="M18.863 8.17188L36.6709 8.17188V0.646572L18.863 0.646572V8.17188Z" fill="#EBEBEB"/>
<path d="M8.93041 17.6602L26.7383 17.6602V10.1349L8.93041 10.1349V17.6602Z" fill="#EBEBEB"/>
<path d="M268.26 8.17578L286.068 8.17578V0.650478L268.26 0.650478V8.17578Z" fill="#EBEBEB"/>
<path d="M236.997 90.1973H219.189V97.7226H236.997V90.1973Z" fill="#EBEBEB"/>
<path d="M227.065 80.709H209.257V88.2343H227.065V80.709Z" fill="#EBEBEB"/>
<path d="M25.4609 20.2031H143.633V185.235H25.4609V20.2031ZM140.102 23.7069H28.9647V181.745H140.102V23.7069Z" fill="#EBEBEB"/>
<path d="M86.2957 24.627H82.792V183.479H86.2957V24.627Z" fill="#EBEBEB"/>
<path d="M22.2804 32.1738L146.814 32.1738V27.2915L22.2804 27.2915V32.1738Z" fill="#EBEBEB"/>
<path d="M22.2804 37.666L146.814 37.666V32.7836L22.2804 32.7836V37.666Z" fill="#EBEBEB"/>
<path d="M22.2804 43.1621L146.814 43.1621V38.2797L22.2804 38.2797V43.1621Z" fill="#EBEBEB"/>
<path d="M22.2804 48.6504L146.814 48.6504V43.768L22.2804 43.768V48.6504Z" fill="#EBEBEB"/>
<path d="M22.2804 54.1504L146.814 54.1504V49.268L22.2804 49.268V54.1504Z" fill="#EBEBEB"/>
<path d="M22.2804 59.6445L146.814 59.6445V54.7622L22.2804 54.7622V59.6445Z" fill="#EBEBEB"/>
<path d="M22.2804 65.1328L146.814 65.1328V60.2504L22.2804 60.2504V65.1328Z" fill="#EBEBEB"/>
<path d="M22.2804 70.627L146.814 70.627V65.7446L22.2804 65.7446V70.627Z" fill="#EBEBEB"/>
<path d="M22.2804 76.1211L146.814 76.1211V71.2387L22.2804 71.2387V76.1211Z" fill="#EBEBEB"/>
<path d="M33.5647 26.3027H32.6904V121.321H33.5647V26.3027Z" fill="#263238"/>
<path d="M31.5742 125.402H34.6879L33.9078 120.93H32.3543L31.5742 125.402Z" fill="#263238"/>
<path d="M30.4104 26.3027H29.5361V145.289H30.4104V26.3027Z" fill="#263238"/>
<path d="M28.4141 148.576H31.5278L30.7476 144.104H29.1942L28.4141 148.576Z" fill="#263238"/>
<path d="M16.833 29.7305L152.255 29.7305V19.5152L16.833 19.5152V29.7305Z" fill="#DBDBDB"/>
<path d="M266.003 66.3922C277.937 59.1391 281.731 43.585 274.478 31.6511C267.225 19.7172 251.671 15.9227 239.737 23.1758C227.803 30.4288 224.009 45.9829 231.262 57.9168C238.515 69.8507 254.069 73.6453 266.003 66.3922Z" fill="#EBEBEB"/>
<path d="M268.045 65.0238C278.898 57.2909 281.427 42.2239 273.694 31.3707C265.961 20.5175 250.894 17.988 240.041 25.7209C229.188 33.4539 226.658 48.5209 234.391 59.3741C242.124 70.2273 257.191 72.7568 268.045 65.0238Z" fill="#DBDBDB"/>
<path d="M267.166 63.7767C277.33 56.5294 279.694 42.4148 272.447 32.2508C265.2 22.0867 251.085 19.7222 240.921 26.9695C230.757 34.2167 228.393 48.3314 235.64 58.4954C242.887 68.6594 257.002 71.0239 267.166 63.7767Z" fill="white"/>
<path opacity="0.5" d="M276.13 40.5723C265.834 46.8064 248.921 57.0351 239.465 62.6438C236.792 60.3897 234.676 57.547 233.285 54.3384L264.557 25.3535C267.478 26.8933 270.028 29.0533 272.027 31.6822C274.027 34.3111 275.427 37.3453 276.13 40.5723Z" fill="#EBEBEB"/>
<path opacity="0.5" d="M276.621 46.1543C276.543 48.6691 276.038 51.1524 275.128 53.498L246.936 66.8405C245.708 66.435 244.517 65.9219 243.379 65.3072C251.893 60.3845 267.454 51.4267 276.621 46.1543Z" fill="#EBEBEB"/>
<path d="M254.253 24.4043H253.815V27.8273H254.253V24.4043Z" fill="#C7C7C7"/>
<path d="M243.736 27.09L243.357 27.3086L245.069 30.273L245.447 30.0545L243.736 27.09Z" fill="#C7C7C7"/>
<path d="M235.979 34.6898L235.761 35.0684L238.725 36.7799L238.944 36.4013L235.979 34.6898Z" fill="#C7C7C7"/>
<path d="M236.499 45.1445H233.076V45.5817H236.499V45.1445Z" fill="#C7C7C7"/>
<path d="M238.735 53.9242L235.771 55.6367L235.99 56.0152L238.954 54.3026L238.735 53.9242Z" fill="#C7C7C7"/>
<path d="M245.085 60.4549L243.374 63.4199L243.753 63.6384L245.463 60.6733L245.085 60.4549Z" fill="#C7C7C7"/>
<path d="M254.253 62.9062H253.815V66.3293H254.253V62.9062Z" fill="#C7C7C7"/>
<path d="M262.986 60.4377L262.607 60.6562L264.319 63.6207L264.697 63.4021L262.986 60.4377Z" fill="#C7C7C7"/>
<path d="M269.343 53.9555L269.124 54.334L272.088 56.046L272.307 55.6675L269.343 53.9555Z" fill="#C7C7C7"/>
<path d="M274.993 45.1445H271.57V45.5817H274.993V45.1445Z" fill="#C7C7C7"/>
<path d="M272.081 34.7015L269.117 36.4141L269.336 36.7925L272.3 35.08L272.081 34.7015Z" fill="#C7C7C7"/>
<path d="M264.33 27.1147L262.62 30.0801L262.999 30.2984L264.709 27.3331L264.33 27.1147Z" fill="#C7C7C7"/>
<path d="M254.361 25.952L255.107 46.8938L252.962 46.8669L253.782 25.9453L254.361 25.952Z" fill="#C7C7C7"/>
<path d="M267.407 38.0638L253.318 47.0552L252.296 45.1722L267.125 37.5527L267.407 38.0638Z" fill="#A6A6A6"/>
<path d="M254.765 45.3659C254.765 45.5111 254.722 45.6531 254.641 45.7738C254.56 45.8945 254.445 45.9884 254.311 46.0437C254.176 46.099 254.029 46.1131 253.886 46.0843C253.744 46.0554 253.613 45.985 253.511 45.8818C253.409 45.7786 253.34 45.6473 253.312 45.5047C253.285 45.3621 253.3 45.2145 253.357 45.0807C253.413 44.9468 253.508 44.8328 253.63 44.7531C253.751 44.6734 253.893 44.6315 254.039 44.6328C254.135 44.6328 254.23 44.6518 254.318 44.6888C254.407 44.7257 254.487 44.7798 254.555 44.8479C254.622 44.9161 254.675 44.997 254.712 45.0859C254.748 45.1748 254.766 45.2699 254.765 45.3659Z" fill="#C7C7C7"/>
<path d="M278.726 179.465C275.814 176.62 272.061 173.177 267.616 174.401C263.433 175.557 261.833 180.124 261.08 183.93C260.118 188.833 259.365 193.782 258.585 198.725C257.804 203.668 257.065 208.705 256.345 213.695C255.942 216.511 255.543 219.331 255.148 222.155C254.946 223.558 254.749 224.968 254.556 226.385C254.368 227.73 254.133 229.149 254.059 230.541C254.059 230.985 254.731 231.052 254.832 230.629C255.37 228.275 255.592 225.834 255.935 223.446C256.278 221.059 256.607 218.645 256.984 216.244C257.656 211.476 258.403 206.714 259.116 201.946C259.829 197.178 260.582 192.417 261.342 187.656C262.014 183.621 262.29 178.604 265.868 175.941C267.831 174.481 270.34 174.468 272.559 175.315C274.92 176.216 276.796 177.898 278.612 179.565C278.625 179.581 278.644 179.59 278.664 179.591C278.684 179.592 278.704 179.586 278.719 179.572C278.734 179.559 278.744 179.54 278.745 179.52C278.746 179.5 278.739 179.48 278.726 179.465Z" fill="#263238"/>
<path d="M274.744 176.551C274.744 176.551 268.799 174.412 265.867 178.75C262.935 183.088 266.439 194.123 293.5 200.344C292.707 191.886 290.507 183.619 286.99 175.885C281.187 163.235 270.85 168.024 274.744 176.551Z" fill="#0C9CFF"/>
<path d="M291.947 198.541C291.543 197.784 291.094 197.052 290.602 196.349L289.257 194.264L288.195 192.711C288.195 192.59 288.228 192.455 288.248 192.327C288.248 192.092 288.309 191.857 288.336 191.621C288.403 191.117 288.477 190.612 288.551 190.101C288.625 189.59 288.712 189.099 288.807 188.595C288.87 188.053 288.99 187.519 289.163 187.001C289.197 186.92 289.055 186.88 289.042 187.001C288.985 187.305 288.904 187.604 288.8 187.896L288.618 188.568C288.491 189.079 288.363 189.597 288.248 190.115C288.134 190.633 288.053 191.07 287.973 191.547C287.932 191.783 287.899 192.011 287.865 192.22C287.381 191.547 286.89 190.875 286.386 190.202C284.946 188.306 283.427 186.483 281.853 184.708C281.853 184.708 281.853 184.708 281.853 184.661C281.994 181.816 281.927 178.998 282.525 176.201C282.525 176.127 282.431 176.086 282.411 176.16C281.819 178.79 281.234 181.54 281.402 184.23C280.837 183.598 280.266 182.973 279.687 182.354C278.342 180.942 277.031 179.543 275.652 178.178C275.599 178.124 275.511 178.178 275.565 178.259C277.845 180.713 280.01 183.275 282.115 185.878C280.466 185.851 278.816 185.912 277.172 186.06C275.336 186.194 273.514 186.429 271.691 186.678C271.675 186.678 271.66 186.685 271.649 186.696C271.637 186.707 271.631 186.723 271.631 186.739C271.631 186.755 271.637 186.77 271.649 186.782C271.66 186.793 271.675 186.799 271.691 186.799C273.506 186.542 275.334 186.378 277.166 186.308C278.934 186.234 280.689 186.308 282.451 186.308C283.588 187.727 284.718 189.146 285.814 190.586H285.565C285.148 190.586 284.738 190.586 284.321 190.586C283.501 190.586 282.673 190.66 281.853 190.727C280.172 190.861 278.503 191.111 276.856 191.473C276.84 191.473 276.825 191.48 276.813 191.491C276.802 191.502 276.796 191.518 276.796 191.534C276.796 191.55 276.802 191.565 276.813 191.577C276.825 191.588 276.84 191.594 276.856 191.594C278.517 191.406 280.185 191.251 281.86 191.191C282.653 191.191 283.453 191.191 284.254 191.191H285.498C285.724 191.222 285.954 191.201 286.17 191.13C286.897 192.078 287.63 193.02 288.349 193.968C288.921 194.728 289.493 195.488 290.044 196.261C290.595 197.035 291.127 197.902 291.759 198.635C291.771 198.66 291.793 198.679 291.82 198.688C291.846 198.697 291.875 198.695 291.9 198.682C291.925 198.67 291.944 198.648 291.953 198.622C291.962 198.595 291.96 198.566 291.947 198.541Z" fill="#263238"/>
<path d="M277.333 182.699C276.374 182.577 275.407 182.532 274.441 182.565C273.473 182.565 272.505 182.565 271.543 182.625C271.527 182.625 271.512 182.632 271.5 182.643C271.489 182.655 271.482 182.67 271.482 182.686C271.482 182.702 271.489 182.717 271.5 182.729C271.512 182.74 271.527 182.747 271.543 182.747C272.518 182.673 273.5 182.659 274.482 182.673C275.464 182.686 276.378 182.773 277.32 182.753L277.333 182.699Z" fill="#263238"/>
<path d="M285.827 184.883C285.935 183.955 286.056 183.027 286.251 182.119C286.251 182.103 286.245 182.088 286.233 182.076C286.222 182.065 286.206 182.059 286.19 182.059C286.174 182.059 286.159 182.065 286.148 182.076C286.136 182.088 286.13 182.103 286.13 182.119C285.995 183.034 285.814 183.935 285.679 184.843C285.612 185.291 285.551 185.739 285.498 186.188C285.416 186.613 285.378 187.046 285.383 187.479C285.383 187.56 285.525 187.566 285.545 187.479C285.626 187.055 285.673 186.626 285.686 186.195C285.726 185.757 285.773 185.32 285.827 184.883Z" fill="#263238"/>
<path d="M284.018 174.642C283.783 175.543 283.547 176.451 283.346 177.366C283.265 177.83 283.191 178.3 283.13 178.764C283.048 179.208 283.016 179.659 283.036 180.109C283.036 180.109 283.097 180.109 283.11 180.109C283.216 179.683 283.288 179.249 283.325 178.811C283.384 178.363 283.451 177.915 283.527 177.466C283.695 176.525 283.863 175.59 284.099 174.662C284.179 174.608 284.065 174.568 284.018 174.642Z" fill="#263238"/>
<path d="M248.806 229.531C248.658 227.823 248.49 226.122 248.315 224.42C247.956 221.053 247.548 217.691 247.091 214.333C246.641 210.97 246.21 207.608 245.672 204.292C245.475 202.743 245.131 201.216 244.643 199.733C244.468 199.096 244.148 198.508 243.71 198.013C243.272 197.519 242.726 197.132 242.115 196.881C238.934 195.778 236.782 199.08 235.497 201.421C235.457 201.488 235.564 201.542 235.605 201.474C236.378 200.371 238.503 197.265 240.918 197.406C242.545 197.507 243.843 198.657 244.623 202.712C246.567 212.799 248.322 233.297 248.524 234.635C248.631 235.348 249.136 235.308 249.136 234.555C249.149 232.874 248.954 231.199 248.806 229.531Z" fill="#263238"/>
<path d="M236.359 200.155C236.359 200.155 239.143 190.33 232.996 195.239C222.754 203.417 222.391 221.211 222.391 221.211C222.391 221.211 240.595 210.639 242.862 203.666C246.224 193.269 236.359 200.155 236.359 200.155Z" fill="#0C9CFF"/>
<path d="M239.801 204.979C238.375 205.268 236.922 205.457 235.483 205.652L233.432 205.941C232.975 206.001 232.504 206.048 232.04 206.102C233.385 204.239 234.764 202.377 236.075 200.473C236.129 200.399 236.015 200.319 235.954 200.379C234.881 201.496 233.866 202.668 232.914 203.89L232.107 201.61C231.798 200.729 231.435 199.855 231.24 198.92C231.24 198.846 231.105 198.88 231.125 198.96C231.374 199.861 231.549 200.776 231.798 201.65C232.047 202.525 232.296 203.385 232.605 204.233C231.932 205.1 231.294 205.988 230.675 206.882C230.359 205.995 230.002 205.134 229.7 204.233C229.694 204.217 229.683 204.203 229.668 204.196C229.653 204.188 229.635 204.187 229.619 204.192C229.603 204.198 229.59 204.209 229.582 204.224C229.575 204.24 229.573 204.257 229.579 204.273C229.908 205.268 230.083 206.291 230.392 207.306C229.969 207.918 229.552 208.53 229.155 209.142C228.422 210.279 227.729 211.435 227.05 212.605C226.997 212.626 226.952 212.663 226.923 212.712C226.894 212.761 226.882 212.818 226.889 212.874C225.739 214.892 224.643 216.909 223.567 218.927C223.558 218.941 223.556 218.958 223.561 218.974C223.565 218.99 223.576 219.003 223.59 219.011C223.604 219.019 223.621 219.021 223.637 219.017C223.653 219.012 223.666 219.002 223.674 218.987C224.757 216.97 225.954 215.02 227.205 213.096C227.4 213.039 227.601 213.001 227.803 212.982L228.429 212.847C228.899 212.747 229.363 212.626 229.834 212.505C230.756 212.276 231.67 212.061 232.612 211.899C232.686 211.899 232.652 211.765 232.571 211.778C231.468 211.993 230.366 212.114 229.249 212.242C228.725 212.303 228.2 212.37 227.682 212.457H227.602C228.274 211.462 228.947 210.474 229.619 209.498C230.292 208.523 230.964 207.589 231.637 206.647C232.269 206.553 232.894 206.391 233.52 206.27L235.638 205.86C237.043 205.578 238.449 205.262 239.861 205.026C239.915 205.087 239.881 204.966 239.801 204.979Z" fill="#263238"/>
<path d="M228.873 205.947L228.631 205.167C228.459 204.626 228.319 204.076 228.214 203.519C228.214 203.438 228.079 203.479 228.093 203.553C228.214 204.111 228.342 204.662 228.469 205.214C228.584 205.77 228.744 206.317 228.947 206.848C229.001 206.976 229.196 206.922 229.155 206.787C229.061 206.505 228.954 206.229 228.873 205.947Z" fill="#263238"/>
<path d="M241.65 202.686C240.823 202.807 239.982 202.867 239.148 202.941C238.314 203.015 237.481 203.129 236.647 203.257C236.6 203.257 236.6 203.331 236.647 203.331C237.487 203.271 238.314 203.203 239.148 203.096C239.982 202.988 240.816 202.86 241.657 202.807C241.744 202.82 241.737 202.686 241.65 202.686Z" fill="#263238"/>
<path d="M262.203 217.089C261.88 209.853 261.423 202.63 260.696 195.421C260.333 191.83 259.93 188.246 259.425 184.661C258.972 181.15 258.278 177.674 257.347 174.258C256.607 171.655 255.626 169.039 253.884 166.927C253.074 165.865 252.007 165.028 250.783 164.493C249.559 163.959 248.219 163.746 246.89 163.874C243.722 164.264 241.174 166.262 238.968 168.427C236.493 170.861 234.26 173.511 231.94 176.114C231.362 176.786 230.783 177.459 230.212 178.098C230.165 178.158 230.252 178.246 230.299 178.185C232.545 175.609 234.872 173.108 237.307 170.72C239.56 168.508 241.873 166.093 244.993 165.179C246.442 164.719 247.991 164.684 249.459 165.078C250.626 165.446 251.678 166.111 252.512 167.008C254.267 168.837 255.249 171.305 255.955 173.699C257.899 180.35 258.598 187.324 259.318 194.191C260.051 201.171 260.548 208.165 260.898 215.173C261.248 222.18 261.523 229.295 262.203 236.289C262.29 237.157 262.398 238.024 262.512 238.885C262.586 239.47 263.487 239.47 263.44 238.885C262.862 231.602 262.532 224.359 262.203 217.089Z" fill="#263238"/>
<path d="M238.571 169.222C238.571 169.222 242.707 161.576 237.824 159.135C232.942 156.694 216.6 174.919 211.825 201.59C211.825 201.59 238.214 189.915 247.179 178.281C256.143 166.647 245.982 164.078 238.571 169.222Z" fill="#0C9CFF"/>
<path d="M242.451 175.443C239.485 175.443 236.526 175.221 233.56 175.242C234.118 174.603 234.67 173.964 235.235 173.332C236.065 172.487 236.837 171.589 237.548 170.642C237.595 170.581 237.501 170.494 237.441 170.541C236.639 171.235 235.891 171.988 235.201 172.794C234.452 173.578 233.713 174.372 232.982 175.174C231.845 176.398 230.736 177.642 229.619 178.893V176.977C229.619 175.968 229.619 174.959 229.653 173.957C229.653 171.94 229.653 169.868 229.808 167.837C229.808 167.757 229.693 167.763 229.687 167.837C229.545 169.855 229.33 171.919 229.229 173.971C229.182 174.973 229.155 175.988 229.149 176.99C229.149 177.508 229.149 178.026 229.149 178.544C229.149 178.826 229.149 179.129 229.149 179.418L228.624 180.003C226.257 182.693 224.004 185.504 221.818 188.349C221.818 188.194 221.818 188.033 221.778 187.878C221.778 187.562 221.711 187.252 221.67 186.936C221.596 186.264 221.502 185.591 221.401 184.919C221.3 184.246 221.206 183.648 221.099 183.016C220.991 182.384 220.803 181.583 220.749 180.857C220.749 180.841 220.743 180.826 220.731 180.814C220.72 180.803 220.705 180.796 220.688 180.796C220.672 180.796 220.657 180.803 220.646 180.814C220.634 180.826 220.628 180.841 220.628 180.857C220.754 181.575 220.837 182.301 220.877 183.029L221.058 184.986C221.119 185.659 221.179 186.298 221.247 186.95C221.247 187.259 221.307 187.575 221.341 187.891C221.341 188.046 221.374 188.201 221.395 188.362C221.409 188.493 221.453 188.62 221.522 188.732L220.393 190.205C218.9 192.189 217.427 194.193 215.961 196.19C215.914 196.251 216.001 196.338 216.048 196.271C217.44 194.462 218.873 192.68 220.325 190.891C221.408 190.938 222.518 190.857 223.6 190.844C224.683 190.83 225.887 190.844 227.037 190.81C227.111 190.81 227.111 190.689 227.037 190.689C225.894 190.689 224.75 190.729 223.607 190.729C222.464 190.729 221.495 190.682 220.453 190.729C221.731 189.174 223.018 187.629 224.313 186.096L225.732 184.421C226.178 184.48 226.629 184.493 227.077 184.462H228.637L231.563 184.421C233.58 184.388 235.598 184.32 237.615 184.32C237.629 184.316 237.641 184.307 237.649 184.296C237.657 184.284 237.662 184.271 237.662 184.256C237.662 184.242 237.657 184.229 237.649 184.217C237.641 184.206 237.629 184.197 237.615 184.193C235.598 184.193 233.58 184.085 231.563 184.031C230.588 184.031 229.613 183.977 228.637 183.964H227.077C226.781 183.964 226.472 183.964 226.176 183.964L229.498 180.023C229.525 180.008 229.546 179.984 229.559 179.956C230.642 178.678 231.724 177.4 232.814 176.136L233.271 175.618C236.344 175.712 239.411 175.511 242.491 175.571C242.531 175.571 242.531 175.443 242.451 175.443Z" fill="#263238"/>
<path d="M240.931 180.689H240.218C240.204 180.689 240.19 180.695 240.18 180.705C240.17 180.715 240.164 180.729 240.164 180.743C240.164 180.758 240.17 180.771 240.18 180.781C240.19 180.791 240.204 180.797 240.218 180.797H240.937C241.018 180.811 241.011 180.689 240.931 180.689Z" fill="#263238"/>
<path d="M239.338 180.694C238.389 180.694 237.434 180.66 236.486 180.633L235.06 180.593C234.614 180.534 234.162 180.534 233.715 180.593C233.668 180.593 233.675 180.667 233.715 180.68C234.158 180.77 234.61 180.802 235.06 180.775H236.486C237.434 180.775 238.383 180.775 239.331 180.775C239.338 180.784 239.348 180.792 239.36 180.795C239.372 180.799 239.384 180.8 239.396 180.796C239.408 180.793 239.418 180.786 239.426 180.776C239.434 180.767 239.438 180.755 239.439 180.743C239.44 180.731 239.438 180.719 239.432 180.708C239.426 180.697 239.416 180.689 239.405 180.683C239.394 180.678 239.382 180.676 239.37 180.678C239.358 180.68 239.346 180.686 239.338 180.694Z" fill="#263238"/>
<path d="M231.039 189.605C229.111 189.284 227.162 189.107 225.208 189.074C225.175 189.074 225.208 189.115 225.208 189.121C227.145 189.303 229.089 189.41 231.012 189.72C231.093 189.733 231.12 189.612 231.039 189.605Z" fill="#263238"/>
<path d="M223.11 181.111L223.05 180.6C222.996 180.223 222.935 179.84 222.875 179.457C222.767 178.737 222.639 178.011 222.498 177.291C222.498 177.224 222.37 177.244 222.377 177.291C222.471 178.04 222.552 178.786 222.619 179.531C222.653 179.901 222.68 180.264 222.713 180.634C222.705 180.987 222.755 181.339 222.861 181.676C222.876 181.699 222.896 181.718 222.921 181.729C222.946 181.741 222.973 181.745 223 181.742C223.027 181.738 223.052 181.727 223.073 181.709C223.094 181.692 223.109 181.668 223.117 181.642C223.149 181.466 223.147 181.286 223.11 181.111Z" fill="#263238"/>
<path d="M261.947 159.404C260.999 157.649 259.795 155.322 257.441 155.47C255.491 155.591 254.616 157.581 254.2 159.222C252.915 164.3 252.821 169.659 252.572 174.865C252.048 185.86 251.57 196.876 251.496 207.884C251.496 210.938 251.496 213.991 251.496 217.044C251.53 220.158 251.496 223.292 251.718 226.398C251.718 226.459 251.742 226.517 251.785 226.56C251.828 226.603 251.886 226.627 251.947 226.627C252.007 226.627 252.065 226.603 252.108 226.56C252.151 226.517 252.175 226.459 252.175 226.398C252.175 223.708 252.095 221.072 252.088 218.409C252.081 215.746 252.088 213.211 252.142 210.615C252.222 205.347 252.361 200.083 252.559 194.824C252.754 189.592 252.982 184.367 253.231 179.142C253.345 176.526 253.453 173.916 253.574 171.3C253.695 168.684 253.796 166.236 254.085 163.721C254.247 162.309 254.455 160.897 254.758 159.511C254.905 158.478 255.325 157.503 255.975 156.687C256.428 156.25 257.02 155.985 257.648 155.94C258.276 155.895 258.9 156.071 259.411 156.438C260.487 157.212 261.332 158.266 261.853 159.484C261.88 159.538 261.98 159.478 261.947 159.404Z" fill="#263238"/>
<path d="M261.308 158.563C261.308 158.563 259.364 151.723 263.655 155.139C270.784 160.842 271.053 173.237 271.053 173.237C271.053 173.237 258.369 165.839 256.796 161.01C254.428 153.774 261.308 158.563 261.308 158.563Z" fill="#0C9CFF"/>
<path d="M268.369 168.152C268.255 167.964 268.134 167.782 268.012 167.594C268.026 167.399 268.026 167.204 268.012 167.009C268.012 166.713 268.012 166.417 268.012 166.121C268.012 165.543 268.046 164.971 268.08 164.393C268.075 164.379 268.067 164.368 268.055 164.359C268.044 164.351 268.03 164.346 268.016 164.346C268.002 164.346 267.988 164.351 267.976 164.359C267.965 164.368 267.956 164.379 267.952 164.393C267.952 164.958 267.905 165.529 267.885 166.094C267.885 166.377 267.885 166.659 267.885 166.948C267.885 167.056 267.885 167.184 267.885 167.311C267.387 166.538 266.876 165.771 266.351 165.025C266.197 164.803 266.035 164.588 265.881 164.352C265.803 163.611 265.79 162.864 265.84 162.12C265.84 161.326 265.84 160.526 265.887 159.732C265.887 159.658 265.766 159.658 265.766 159.732C265.766 160.559 265.699 161.387 265.659 162.214C265.613 162.802 265.597 163.393 265.612 163.983C264.388 162.315 263.09 160.707 261.772 159.114C261.731 159.06 261.637 159.114 261.677 159.188C262.491 160.223 263.271 161.279 264.038 162.348C262.545 161.999 261.032 161.797 259.512 161.582C259.438 161.582 259.404 161.689 259.512 161.696C261.113 161.945 262.693 162.369 264.273 162.691H264.307C264.912 163.545 265.517 164.406 266.109 165.267L266.829 166.323H266.762L266.271 166.256C265.921 166.215 265.565 166.188 265.215 166.161C264.482 166.101 263.749 166.061 263.016 166.02C262.942 166.02 262.942 166.141 263.016 166.148C263.735 166.148 264.455 166.215 265.168 166.296L266.304 166.43L266.802 166.491H266.943L268.16 168.287C268.88 169.342 269.505 170.479 270.286 171.501C270.294 171.514 270.306 171.522 270.321 171.526C270.335 171.529 270.35 171.526 270.363 171.518C270.375 171.51 270.384 171.497 270.387 171.483C270.39 171.468 270.388 171.453 270.38 171.441C269.774 170.306 269.103 169.208 268.369 168.152Z" fill="#263238"/>
<path d="M265.187 160.419C265.187 160.156 265.187 159.887 265.187 159.625C265.166 159.064 265.188 158.502 265.254 157.944C265.254 157.856 265.133 157.843 265.133 157.944C265.133 158.502 265.073 159.053 265.046 159.605C265.046 159.881 265.046 160.163 265.046 160.439V160.822C265.022 160.953 265.022 161.088 265.046 161.219C265.046 161.233 265.052 161.247 265.062 161.257C265.072 161.267 265.086 161.273 265.1 161.273C265.114 161.273 265.128 161.267 265.138 161.257C265.148 161.247 265.154 161.233 265.154 161.219C265.174 161.096 265.174 160.971 265.154 160.849L265.187 160.419Z" fill="#263238"/>
<path d="M263.649 163.258C263.178 163.177 262.694 163.15 262.216 163.11C261.739 163.069 261.174 163.022 260.649 162.955C260.633 162.955 260.618 162.961 260.607 162.973C260.595 162.984 260.589 163 260.589 163.016C260.589 163.032 260.595 163.047 260.607 163.058C260.618 163.07 260.633 163.076 260.649 163.076C261.651 163.137 262.667 163.318 263.649 163.352C263.689 163.359 263.703 163.264 263.649 163.258Z" fill="#263238"/>
<path d="M262.235 195.961C259.545 193.943 257.178 191.085 253.587 190.944C250.628 190.829 248.55 193.055 247.366 195.537C246.769 196.857 246.283 198.225 245.914 199.626C245.385 201.504 244.883 203.387 244.407 205.275C243.47 208.991 242.677 212.742 242.027 216.526C241.67 218.631 241.354 220.742 241.065 222.861C240.725 225.011 240.518 227.181 240.446 229.357C240.437 229.446 240.463 229.536 240.519 229.606C240.575 229.676 240.656 229.72 240.746 229.73C240.835 229.74 240.924 229.714 240.994 229.658C241.064 229.602 241.109 229.52 241.119 229.431C241.482 227.656 241.63 225.826 241.892 224.051C242.155 222.276 242.43 220.446 242.733 218.671C243.345 215.08 244.078 211.502 244.858 207.951C245.625 204.589 246.378 201.186 247.461 197.918C248.234 195.577 249.478 192.847 252.007 191.999C255.853 190.722 259.35 193.977 262.168 196.095C262.215 196.068 262.303 195.961 262.235 195.961Z" fill="#263238"/>
<path d="M259.479 194.017C259.479 194.017 257.025 186.996 260.575 185.617C265.908 183.553 279.856 199.262 277.126 223.331C277.126 223.331 266.366 217.4 258.39 210.722C250.414 204.044 248.376 195.288 251.9 193.062C255.424 190.836 259.479 194.017 259.479 194.017Z" fill="#0C9CFF"/>
<path d="M275.512 218.154C275.14 217.314 274.707 216.502 274.214 215.727C273.763 214.906 273.299 214.086 272.822 213.272C271.9 211.685 270.979 210.098 270.031 208.564L269.56 207.804C269.56 207.71 269.6 207.616 269.62 207.522L269.782 206.85C269.896 206.332 269.99 205.8 270.085 205.276C270.28 204.247 270.461 203.198 270.757 202.189C270.757 202.115 270.656 202.088 270.636 202.189C270.414 203.218 270.091 204.207 269.789 205.236C269.641 205.733 269.479 206.231 269.345 206.728C269.304 206.903 269.257 207.071 269.21 207.246C268.067 205.37 266.904 203.5 265.646 201.691C265.729 201.442 265.77 201.181 265.767 200.918L265.888 199.869C265.982 199.075 266.076 198.282 266.191 197.495C266.395 195.944 266.678 194.404 267.038 192.882C267.038 192.808 266.937 192.787 266.917 192.882C266.534 194.395 266.117 195.915 265.828 197.448C265.686 198.201 265.552 198.961 265.451 199.721C265.404 200.098 265.364 200.481 265.323 200.864C265.323 200.972 265.29 201.093 265.276 201.207C264.893 200.662 264.503 200.118 264.099 199.586C262.869 197.966 261.591 196.385 260.306 194.812C260.259 194.751 260.158 194.812 260.205 194.879C262.408 197.698 264.429 200.654 266.258 203.729C266.614 204.294 266.93 204.866 267.307 205.431L266.964 205.39C266.514 205.33 266.056 205.303 265.619 205.262C264.722 205.177 263.815 205.097 262.895 205.02C261.08 204.879 259.257 204.765 257.448 204.576C257.367 204.576 257.347 204.684 257.448 204.691C259.284 204.906 261.107 205.195 262.936 205.457L265.626 205.821C266.307 205.961 267.001 206.034 267.697 206.036C268.414 207.192 269.13 208.351 269.842 209.513C269.681 209.499 269.519 209.499 269.358 209.513H266.762C265.592 209.513 264.429 209.513 263.259 209.513C263.178 209.513 263.191 209.634 263.259 209.634C264.442 209.634 265.619 209.708 266.803 209.768C267.368 209.768 267.926 209.829 268.491 209.869C268.766 209.869 269.049 209.916 269.331 209.93C269.575 209.98 269.827 209.98 270.071 209.93L271.887 212.882C272.443 213.779 273.01 214.675 273.588 215.572C274.126 216.533 274.737 217.45 275.417 218.316C275.444 218.289 275.539 218.255 275.512 218.154Z" fill="#263238"/>
<path d="M270.379 198.715C270.268 199.49 270.106 200.256 269.895 201.009C269.693 201.789 269.471 202.562 269.222 203.322C269.216 203.333 269.211 203.344 269.21 203.357C269.208 203.369 269.209 203.382 269.214 203.393C269.218 203.405 269.225 203.416 269.234 203.425C269.242 203.433 269.253 203.44 269.265 203.444C269.277 203.447 269.29 203.448 269.302 203.446C269.314 203.444 269.326 203.44 269.336 203.433C269.346 203.425 269.355 203.416 269.361 203.405C269.367 203.394 269.37 203.382 269.37 203.369C269.606 202.609 269.821 201.843 270.043 201.076C270.265 200.309 270.345 199.509 270.54 198.742C270.514 198.648 270.386 198.648 270.379 198.715Z" fill="#263238"/>
<path d="M262.457 203.424C262.296 203.281 262.088 203.202 261.872 203.202L260.857 203.061C260.225 202.974 259.593 202.907 258.96 202.833C257.649 202.678 256.331 202.55 255.02 202.389C255.003 202.389 254.988 202.395 254.977 202.406C254.965 202.418 254.959 202.433 254.959 202.449C254.959 202.465 254.965 202.481 254.977 202.492C254.988 202.503 255.003 202.51 255.02 202.51C256.257 202.658 257.488 202.846 258.725 203.007C259.33 203.088 259.936 203.175 260.547 203.243L261.422 203.344C261.763 203.345 262.101 203.402 262.424 203.512C262.433 203.51 262.442 203.506 262.45 203.501C262.457 203.495 262.463 203.487 262.466 203.478C262.469 203.469 262.47 203.459 262.469 203.45C262.467 203.441 262.463 203.432 262.457 203.424Z" fill="#263238"/>
<path d="M270.359 214.004C269.74 213.957 269.115 213.937 268.49 213.916H267.548H267.098C266.902 213.929 266.705 213.918 266.512 213.883C266.425 213.883 266.418 214.024 266.512 214.004C266.696 213.984 266.881 213.984 267.064 214.004H267.555L268.496 214.064C269.115 214.098 269.74 214.138 270.359 214.138C270.426 214.118 270.433 214.011 270.359 214.004Z" fill="#263238"/>
<path d="M274.158 211.313L274.36 210.257L274.743 208.173C274.743 208.099 274.636 208.078 274.622 208.173C274.468 208.845 274.313 209.518 274.165 210.19C274.084 210.526 274.01 210.863 273.943 211.199L273.842 211.67C273.791 211.83 273.773 212 273.789 212.167C273.789 212.228 273.883 212.268 273.923 212.208C274.055 211.926 274.134 211.623 274.158 211.313Z" fill="#263238"/>
<path d="M237.669 226.625L238.422 235.159L240.971 263.969H263.533L266.714 235.159L267.656 226.625H237.669Z" fill="#455A64"/>
<path d="M237.669 226.625L238.422 235.159H266.714L267.656 226.625H237.669Z" fill="#263238"/>
<path d="M235.436 231.225H269.896V224.305H235.436V231.225Z" fill="#455A64"/>
<path d="M0 263.881L36.8733 263.72L73.7534 263.659L147.5 263.545L221.247 263.659L258.127 263.713L295 263.881L258.127 264.043L221.247 264.103L147.5 264.217L73.7534 264.103L36.8733 264.043L0 263.881Z" fill="#263238"/>
<path d="M114.649 210.082V210.176C114.649 210.176 114.649 210.216 114.649 210.243C114.649 210.27 114.649 210.351 114.683 210.425V210.546C114.704 210.632 114.72 210.72 114.73 210.808C114.73 210.868 114.73 210.929 114.764 210.996C114.797 211.063 114.811 211.279 114.844 211.44C114.878 211.601 114.945 211.985 114.999 212.308L115.302 213.948C115.335 214.123 115.369 214.312 115.403 214.507C115.436 214.702 115.497 215.031 115.551 215.307C115.604 215.583 115.658 215.926 115.719 216.255C115.759 216.484 115.806 216.719 115.846 216.961C115.974 217.681 116.109 218.448 116.263 219.268C116.267 219.288 116.267 219.308 116.263 219.328C116.425 220.243 116.6 221.225 116.788 222.254C116.835 222.523 116.889 222.792 116.943 223.061C116.996 223.33 117.05 223.626 117.097 223.908C117.097 224.083 117.158 224.265 117.198 224.446C117.454 225.876 117.729 227.392 118.025 228.992C118.126 229.53 118.22 230.075 118.321 230.627C118.516 231.703 118.718 232.805 118.927 233.942C118.98 234.204 119.027 234.467 119.068 234.736C119.368 236.381 119.68 238.094 120.003 239.873C120.043 240.055 120.07 240.237 120.103 240.418C120.258 241.252 120.413 242.093 120.561 242.954C120.581 243.019 120.594 243.087 120.601 243.155L120.823 244.379C121.119 246.02 121.424 247.699 121.738 249.416C121.818 249.84 121.899 250.27 121.973 250.707C122.128 251.575 122.289 252.449 122.45 253.33C122.652 254.426 122.854 255.529 123.056 256.652C123.257 257.775 123.459 258.899 123.668 260.015C123.775 260.587 123.876 261.158 123.984 261.73C124.105 262.402 124.233 263.075 124.354 263.794H182.471C175.302 234.009 169.257 209.994 169.257 209.994L114.649 210.082Z" fill="#455A64"/>
<path d="M123.432 216.808C126.342 232.5 129.283 248.192 132.255 263.883H133.062C129.976 248.154 126.795 232.451 123.647 216.741C123.6 216.593 123.412 216.654 123.432 216.808Z" fill="#37474F"/>
<path d="M114.654 210.082C114.654 210.082 114.654 210.116 114.654 210.176C114.654 210.237 114.654 210.217 114.654 210.243C114.654 210.27 114.654 210.351 114.688 210.425V210.546C114.709 210.632 114.725 210.72 114.735 210.808C114.735 210.869 114.735 210.929 114.769 210.997C114.802 211.064 114.822 211.279 114.849 211.44C114.876 211.602 114.95 211.985 115.004 212.308C115.098 212.785 115.192 213.33 115.307 213.949C115.34 214.124 115.374 214.312 115.407 214.507C115.441 214.702 115.502 215.032 115.555 215.307C115.609 215.583 115.663 215.926 115.724 216.256C115.764 216.484 115.811 216.72 115.851 216.962C115.986 217.681 116.12 218.448 116.268 219.268C116.271 219.288 116.271 219.309 116.268 219.329C116.436 220.244 116.611 221.212 116.8 222.241C116.853 222.51 116.9 222.786 116.948 223.061C116.995 223.337 117.055 223.626 117.102 223.909C117.143 224.084 117.169 224.265 117.203 224.447C117.465 225.872 117.741 227.392 118.03 228.993C118.131 229.531 118.225 230.076 118.326 230.627C118.528 231.703 118.73 232.806 118.931 233.942C118.985 234.205 119.032 234.467 119.073 234.736C119.382 236.39 119.694 238.103 120.007 239.874C120.048 240.055 120.075 240.237 120.108 240.419C120.263 241.253 120.418 242.093 120.566 242.954C120.585 243.02 120.599 243.087 120.606 243.156L120.828 244.38C121.128 246.021 121.433 247.7 121.742 249.417C121.823 249.84 121.904 250.271 121.978 250.708C122.139 251.575 122.294 252.45 122.455 253.331C122.657 254.427 122.859 255.53 123.061 256.653C123.262 257.776 123.471 258.899 123.673 260.015C123.78 260.587 123.881 261.159 123.989 261.73C124.11 262.403 124.237 263.075 124.365 263.795H153.552L155.885 239.908L155.966 239.06L156.06 238.146L156.518 233.472L156.914 229.437L158.791 210.082H114.654Z" fill="#263238"/>
<path d="M81.6285 263.881H144.312C144.42 258.111 144.534 252.529 144.676 247.263C144.676 247.136 144.676 247.008 144.676 246.88C144.676 246.88 151.992 242.549 155.933 239.153C156.603 238.602 157.22 237.99 157.776 237.324C160.298 234.109 162.827 221.749 168.059 210.121H91.3933C78.9385 234.291 79.8128 253.713 81.6285 263.881Z" fill="#455A64"/>
<path d="M159.607 236.471C155.874 237.998 152.519 240.345 149.21 242.611C145.773 244.958 142.619 247.675 139.311 250.197C139.183 250.298 139.311 250.506 139.445 250.412C142.929 248.186 146.58 246.229 150.03 243.936C153.48 241.643 156.863 239.545 159.775 236.74C159.889 236.633 159.761 236.404 159.607 236.471Z" fill="#263238"/>
<path d="M160.076 214.904C159.632 217.291 159.047 219.658 158.536 222.032C158.052 224.258 157.695 226.524 157.11 228.757C156.63 230.887 155.547 232.834 153.99 234.366C153.115 235.179 152.154 235.899 151.219 236.639C150.721 237.042 150.177 237.426 149.652 237.836C149.719 237.52 149.78 237.163 149.834 236.874C149.995 235.966 150.143 235.065 150.298 234.184C150.634 232.167 150.97 230.149 151.266 228.132C151.871 224.171 152.43 220.169 153.284 216.249C153.293 216.216 153.288 216.18 153.271 216.151C153.254 216.121 153.226 216.099 153.193 216.09C153.16 216.082 153.125 216.086 153.095 216.103C153.065 216.12 153.044 216.148 153.035 216.181C152.046 220.068 150.957 223.915 150.103 227.836C149.679 229.752 148.173 239.268 148.085 239.941C147.998 240.613 147.957 241.333 147.937 242.026C147.846 242.733 147.846 243.45 147.937 244.157C147.952 244.189 147.975 244.215 148.004 244.234C148.033 244.253 148.067 244.263 148.102 244.263C148.137 244.263 148.171 244.253 148.2 244.234C148.229 244.215 148.252 244.189 148.267 244.157C148.553 243.499 148.757 242.808 148.872 242.1C149.047 241.423 149.195 240.737 149.316 240.042C149.363 239.8 149.397 239.544 149.43 239.288C150.365 238.717 151.239 237.943 152.12 237.338C153.001 236.733 154.017 235.993 154.911 235.24C156.555 233.846 157.743 231.991 158.321 229.914C158.894 227.678 159.268 225.396 159.437 223.095C159.74 220.405 159.955 217.715 160.331 215.025C160.345 214.789 160.103 214.742 160.076 214.904Z" fill="#263238"/>
<path d="M96.2892 231.529C97.2845 231.011 101.165 231.932 108.219 230.728C109.6 230.55 110.912 230.017 112.026 229.182C113.868 227.682 115.26 225.268 116.37 223.203C117.702 220.88 118.723 218.393 119.41 215.806C119.443 215.644 119.672 215.725 119.645 215.873C119.383 217.332 119.235 218.791 118.852 220.237C118.47 221.594 117.982 222.918 117.392 224.198C116.323 226.592 115.079 229.161 112.934 230.782C110.681 232.477 107.554 232.8 104.81 232.988C103.229 233.096 97.0356 232.927 96.2085 232.046C96.1768 232.008 96.1537 231.964 96.1405 231.916C96.1273 231.868 96.1245 231.818 96.1321 231.769C96.1397 231.72 96.1577 231.674 96.1848 231.632C96.2118 231.591 96.2474 231.555 96.2892 231.529Z" fill="#263238"/>
<path d="M144.985 119.013C160.278 127.5 216.849 149.209 229.546 141.488C239.008 135.732 237.656 123.378 229.606 115.409C222.606 108.475 170.15 106.525 155.47 106.121C141.515 105.711 130.015 110.674 144.985 119.013Z" fill="#AD6359"/>
<path d="M182.598 138.158L205.396 106.88C205.396 106.88 165.947 103.04 149.289 104.479C131.925 105.979 128.368 112.771 149.33 122.435C169.976 131.951 182.598 138.158 182.598 138.158Z" fill="#0C9CFF"/>
<path d="M178.752 132.126C179.209 131.319 179.781 130.572 180.305 129.812C180.83 129.052 181.388 128.252 181.926 127.465C183.022 125.878 184.145 124.311 185.289 122.758C187.548 119.637 189.794 116.51 192.108 113.43C192.74 112.583 193.379 111.735 194.038 110.908C194.697 110.081 195.484 109.207 196.17 108.339C196.21 108.279 196.284 108.339 196.25 108.407C195.712 109.193 195.242 110.027 194.71 110.821C194.179 111.614 193.608 112.442 193.043 113.235C191.926 114.809 190.805 116.378 189.68 117.943C187.434 120.996 185.201 124.062 182.888 127.069L180.944 129.584C180.272 130.458 179.633 131.393 178.88 132.206C178.799 132.22 178.718 132.18 178.752 132.126Z" fill="#263238"/>
<path d="M163.506 109.389C163.081 110.292 162.785 111.249 162.625 112.234C163.273 111.474 163.807 110.624 164.212 109.712C164.638 108.81 164.935 107.852 165.093 106.867C164.448 107.629 163.914 108.478 163.506 109.389ZM172.094 124.238C171.193 123.809 170.235 123.512 169.249 123.357C170.798 124.632 172.652 125.481 174.629 125.818C173.865 125.172 173.011 124.639 172.094 124.238ZM148.429 113.585C147.528 113.157 146.57 112.86 145.584 112.705C147.132 113.98 148.987 114.828 150.964 115.166C150.198 114.522 149.344 113.99 148.429 113.585ZM182.834 112.012C182.499 111.072 182.033 110.184 181.449 109.376C181.63 111.366 182.326 113.276 183.466 114.917C183.398 113.923 183.185 112.944 182.834 112.012ZM189.747 123.444C188.809 123.782 187.921 124.248 187.111 124.83C189.102 124.648 191.011 123.953 192.652 122.812C191.659 122.883 190.681 123.096 189.747 123.444Z" fill="white"/>
<path d="M149.33 122.428C169.976 131.944 182.598 138.157 182.598 138.157L189.868 128.151L135.221 109.455C133.654 112.629 137.756 117.095 149.33 122.428Z" fill="#263238"/>
<path d="M197.535 50.081C193.298 44.1831 182.504 35.9584 171.724 29.6033C166.492 26.503 150.533 19.2064 147.85 23.0329C145.167 26.8595 149.639 29.415 149.639 29.415C149.639 29.415 142.436 27.3369 140.083 31.4325C137.729 35.528 144.81 39.2671 144.81 39.2671C144.81 39.2671 137.251 37.6733 135.2 41.9571C133.149 46.241 140.91 48.7763 140.91 48.7763C140.91 48.7763 134.07 47.0009 133.855 51.2175C133.6 56.3016 146.579 58.151 152.188 61.87C153.465 62.7106 176.801 80.8076 176.801 80.8076L197.535 50.081Z" fill="#AD6359"/>
<path d="M141.004 48.8835C150.546 50.2756 154.454 52.5285 161.696 58.6953C161.838 58.8164 162.046 58.6348 161.912 58.4936C155.395 51.8156 150.869 48.2715 141.064 48.406C140.566 48.4262 140.553 48.823 141.004 48.8835Z" fill="#263238"/>
<path d="M144.468 39.0997C154.253 41.4064 158.537 43.8072 166.573 49.7185C166.681 49.8059 166.836 49.6176 166.728 49.5235C159.33 43.0742 154.737 39.6444 144.656 38.6289C144.206 38.5953 144.018 38.9988 144.468 39.0997Z" fill="#263238"/>
<path d="M150.439 29.6426C159.746 32.5613 164.562 35.0227 171.623 41.7477C171.657 41.7774 171.701 41.7933 171.746 41.7924C171.791 41.7914 171.834 41.7737 171.867 41.7426C171.9 41.7115 171.92 41.6692 171.923 41.6242C171.927 41.5791 171.913 41.5344 171.885 41.4989C165.355 33.9332 159.37 30.8464 150.553 29.3938C149.955 29.2728 149.847 29.4611 150.439 29.6426Z" fill="#263238"/>
<path d="M180.487 86.617C180.487 86.617 168.685 84.0144 163.755 81.7346C158.826 79.4548 143.58 64.1688 146.694 60.6853C150.729 56.1929 161.254 63.2811 165.961 67.4103C165.961 67.4103 175.248 57.0067 183.91 60.4566C192.572 63.9065 180.487 86.617 180.487 86.617Z" fill="#AD6359"/>
<path d="M148.206 59.8164C154.831 58.3638 160.654 64.2011 165.523 67.8864C165.592 67.9451 165.674 67.986 165.762 68.0057C165.85 68.0254 165.941 68.0232 166.028 67.9993C166.115 67.9754 166.195 67.9305 166.26 67.8687C166.326 67.8068 166.375 67.7297 166.404 67.6443C170.587 63.5488 177.689 58.9825 183.762 60.1325C183.795 60.1362 183.829 60.1279 183.857 60.1091C183.884 60.0902 183.905 60.062 183.914 60.0296C183.923 59.9971 183.92 59.9626 183.905 59.9322C183.891 59.9017 183.866 59.8774 183.836 59.8635C177.487 57.7384 170.15 61.6591 165.853 66.4406C160.924 62.5871 154.824 56.9852 148.186 59.7559C148.181 59.7601 148.176 59.766 148.174 59.7727C148.172 59.7795 148.172 59.7867 148.175 59.7934C148.177 59.8001 148.181 59.8059 148.187 59.8101C148.193 59.8142 148.199 59.8164 148.206 59.8164Z" fill="#263238"/>
<path d="M236.164 130.512C235.74 143.579 220.246 142.678 213.554 136.464C197.838 121.891 174.67 92.1529 168.389 73.8205C166.372 67.9226 190.097 42.0044 194.711 46.8195C202.909 55.3603 237.025 103.996 236.164 130.512Z" fill="#AD6359"/>
<path d="M196.364 117.951C197.521 119.128 198.631 120.332 199.727 121.549C200.823 122.766 201.926 123.984 203.015 125.207L206.25 128.913C206.781 129.532 207.326 130.144 207.877 130.756C208.429 131.368 208.974 131.973 209.525 132.585C208.234 131.561 207.014 130.451 205.873 129.263C204.71 128.099 203.6 126.882 202.511 125.651C201.421 124.421 200.359 123.17 199.337 121.879C198.315 120.587 197.312 119.296 196.364 117.951Z" fill="#263238"/>
<path d="M202.954 125.631C203.506 126.424 203.983 127.198 204.461 127.991C204.689 128.388 204.925 128.785 205.133 129.195C205.359 129.613 205.559 130.044 205.732 130.486C204.979 129.894 204.349 129.161 203.875 128.328C203.632 127.919 203.425 127.489 203.257 127.043C203.082 126.591 202.98 126.115 202.954 125.631Z" fill="#263238"/>
<path d="M175.033 222.968H84.2852C84.2852 222.968 98.1454 136.404 131.582 106.8C135.711 103.142 145.032 103.976 151.085 106.995C153.257 108.078 161.051 118.979 163.277 129.296C165.503 139.612 175.275 222.659 175.033 222.968Z" fill="#0C9CFF"/>
<path d="M121.131 131.769C120.191 132.102 119.303 132.568 118.495 133.154C120.489 132.962 122.398 132.255 124.036 131.103C123.041 131.185 122.063 131.409 121.131 131.769ZM165.274 141.856C165.234 141.881 165.196 141.908 165.16 141.937H165.281C165.281 141.937 165.274 141.849 165.274 141.829V141.856ZM141.696 155.508C140.757 155.845 139.87 156.312 139.06 156.893C141.054 156.701 142.963 155.995 144.601 154.842C143.607 154.915 142.629 155.131 141.696 155.481V155.508ZM129.342 193.074C128.402 193.41 127.514 193.878 126.706 194.466C127.702 194.382 128.68 194.155 129.611 193.793C130.551 193.456 131.439 192.988 132.248 192.401C131.252 192.486 130.274 192.712 129.342 193.074ZM108.582 166.846C107.643 167.184 106.756 167.65 105.946 168.232C107.94 168.04 109.849 167.333 111.487 166.181C110.5 166.272 109.531 166.502 108.609 166.866L108.582 166.846ZM89.9673 219.127C89.0274 219.461 88.1398 219.928 87.3311 220.512C89.3262 220.322 91.2368 219.612 92.8725 218.454C91.885 218.547 90.9159 218.781 89.9942 219.147L89.9673 219.127ZM130.042 215.852C129.102 216.186 128.214 216.653 127.405 217.237C129.401 217.047 131.311 216.337 132.947 215.179C131.959 215.269 130.989 215.502 130.069 215.872L130.042 215.852ZM174.689 219.537C174.046 219.665 173.414 219.845 172.799 220.075C171.86 220.411 170.973 220.877 170.163 221.46C171.159 221.375 172.137 221.149 173.068 220.788C173.646 220.571 174.207 220.315 174.75 220.021C174.756 219.893 174.743 219.725 174.716 219.557L174.689 219.537ZM155.933 192.032C154.993 192.366 154.106 192.833 153.297 193.417C155.291 193.225 157.2 192.518 158.838 191.366C157.851 191.454 156.881 191.685 155.96 192.052L155.933 192.032ZM130.479 117.76C130.144 116.82 129.678 115.933 129.093 115.124C129.285 117.118 129.992 119.027 131.145 120.666C131.066 119.67 130.841 118.691 130.479 117.76ZM110.512 219.295C110.179 218.354 109.712 217.466 109.127 216.659C109.323 218.648 110.032 220.553 111.185 222.187C111.102 221.195 110.876 220.221 110.512 219.295ZM106.531 194.015C106.193 193.076 105.722 192.191 105.132 191.386C105.217 192.379 105.444 193.355 105.805 194.284C106.139 195.226 106.608 196.114 107.197 196.921C107.115 195.925 106.891 194.947 106.531 194.015ZM141.051 178.992C140.715 178.052 140.248 177.165 139.665 176.356C139.857 178.349 140.564 180.259 141.716 181.897C141.634 180.902 141.41 179.923 141.051 178.992ZM128.838 146.584C128.501 145.644 128.032 144.756 127.446 143.948C127.636 145.943 128.346 147.853 129.504 149.489C129.422 148.494 129.198 147.515 128.838 146.584ZM145.556 220.559C145.619 221.391 145.789 222.212 146.061 223H146.868C146.544 222.12 146.103 221.288 145.556 220.525V220.559ZM171.266 201.729C170.932 200.788 170.463 199.9 169.874 199.093C169.962 200.086 170.189 201.061 170.547 201.991C170.881 202.933 171.35 203.821 171.939 204.628C171.857 203.625 171.631 202.64 171.266 201.702V201.729ZM155.57 128.077C155.234 127.138 154.765 126.252 154.178 125.447C154.266 126.44 154.492 127.415 154.85 128.346C155.179 129.288 155.646 130.176 156.236 130.982C156.154 129.987 155.929 129.008 155.57 128.077ZM148.441 113.584C147.54 113.155 146.582 112.858 145.597 112.703C147.145 113.978 148.999 114.827 150.977 115.164C150.207 114.519 149.348 113.987 148.428 113.584H148.441ZM118.737 181.547C117.837 181.115 116.878 180.816 115.892 180.66C116.655 181.307 117.506 181.842 118.421 182.247C119.323 182.673 120.281 182.969 121.266 183.128C120.503 182.482 119.651 181.95 118.737 181.547ZM95.2733 205.186C94.3724 204.757 93.4143 204.46 92.4286 204.305C93.9768 205.58 95.8314 206.429 97.8086 206.766C97.0444 206.12 96.1904 205.587 95.2733 205.186ZM156.619 211.077C155.718 210.648 154.76 210.351 153.774 210.196C155.322 211.471 157.177 212.32 159.154 212.657C158.388 212.013 157.535 211.481 156.619 211.077ZM154.669 173.585C153.767 173.157 152.809 172.86 151.824 172.704C152.583 173.352 153.432 173.884 154.346 174.284C155.248 174.712 156.205 175.011 157.191 175.172C156.431 174.524 155.581 173.99 154.669 173.585ZM148.428 141.762C147.527 141.333 146.569 141.036 145.583 140.881C147.131 142.156 148.986 143.005 150.963 143.342C150.199 142.696 149.345 142.163 148.428 141.762ZM111.037 150.578C110.607 151.479 110.31 152.437 110.156 153.423C111.429 151.874 112.277 150.02 112.617 148.043C111.971 148.808 111.439 149.662 111.037 150.578ZM141.172 202.818C140.741 203.719 140.443 204.677 140.284 205.663C140.931 204.903 141.466 204.054 141.871 203.141C142.297 202.239 142.594 201.282 142.752 200.297C142.108 201.058 141.576 201.907 141.172 202.818ZM159.605 156.705C159.176 157.608 158.879 158.569 158.724 159.556C159.368 158.793 159.9 157.941 160.304 157.028C160.733 156.127 161.03 155.169 161.185 154.183C160.541 154.944 160.009 155.793 159.605 156.705ZM118.381 205.508C117.952 206.409 117.655 207.368 117.5 208.353C118.772 206.804 119.621 204.95 119.961 202.973C119.317 203.739 118.785 204.593 118.381 205.508ZM94.7622 180.249C94.3333 181.153 94.0366 182.113 93.8812 183.101C94.5254 182.337 95.0575 181.486 95.4616 180.572C95.8905 179.671 96.1872 178.713 96.3426 177.727C95.7009 178.49 95.1689 179.339 94.7622 180.249ZM126.894 166.127C126.462 167.029 126.166 167.99 126.013 168.978C126.655 168.213 127.187 167.362 127.594 166.45C128.02 165.547 128.316 164.59 128.475 163.605C127.829 164.372 127.297 165.228 126.894 166.147V166.127ZM138.71 129.26C138.285 130.163 137.989 131.12 137.829 132.105C138.477 131.345 139.011 130.496 139.416 129.583C139.842 128.681 140.139 127.723 140.297 126.738C139.651 127.506 139.116 128.362 138.71 129.28V129.26Z" fill="white"/>
<path d="M116.054 226.082C116.054 221.004 117.527 190.325 116.653 180.264C116.357 176.902 128.004 139.289 131.011 126.659C133.835 114.809 127.803 109.577 118.946 120.734C111.582 130.015 92.3349 166.256 88.4478 175.933C84.5608 185.61 80.5123 218.213 80.5392 225.107C80.5661 230.561 116.034 231.099 116.054 226.082Z" fill="#AD6359"/>
<path d="M119.928 269.768C116.438 271.523 113.613 268.625 113.613 268.625C112.601 270.289 111.038 271.545 109.195 272.175C105.899 273.13 102.947 268.376 102.947 268.376C101.537 269.883 99.7037 270.929 97.6882 271.375C94.44 271.974 90.7884 267.602 90.7884 267.602C88.7275 268.27 86.495 268.172 84.5005 267.327C79.2617 264.859 78.2193 256.082 77.4997 250.514C76.7801 244.946 80.3578 226.849 80.6403 223.648L115.98 220.285C115.98 220.285 126.323 244.367 126.236 251.039C126.142 256.688 123.822 267.791 119.928 269.768Z" fill="#AD6359"/>
<path d="M113.74 268.488C115.247 262.523 114.917 256.444 114.924 250.331C114.918 250.308 114.905 250.287 114.886 250.273C114.867 250.258 114.844 250.25 114.82 250.25C114.796 250.25 114.773 250.258 114.754 250.273C114.735 250.287 114.721 250.308 114.715 250.331C114.776 256.383 113.633 262.375 113.451 268.421C113.442 268.46 113.449 268.5 113.47 268.533C113.491 268.567 113.524 268.591 113.562 268.599C113.6 268.608 113.641 268.602 113.674 268.581C113.708 268.56 113.731 268.527 113.74 268.488Z" fill="#263238"/>
<path d="M103.378 268.2C103.585 266.813 103.614 265.405 103.465 264.01C103.391 262.524 103.29 261.045 103.169 259.559C102.932 256.6 102.618 253.643 102.228 250.688C102.228 250.56 102.006 250.554 102.019 250.688C102.255 253.64 102.443 256.6 102.55 259.559C102.611 261.045 102.651 262.524 102.685 264.01C102.624 265.411 102.719 266.814 102.967 268.193C102.98 268.237 103.007 268.276 103.044 268.303C103.08 268.331 103.124 268.346 103.17 268.347C103.216 268.348 103.26 268.334 103.298 268.308C103.335 268.281 103.363 268.244 103.378 268.2Z" fill="#263238"/>
<path d="M90.7539 267.475C91.0632 266.311 90.7539 264.892 90.6261 263.702C90.4916 262.357 90.3571 261.012 90.2361 259.667C89.9872 256.977 89.7451 254.287 89.5972 251.597C89.5972 251.462 89.3753 251.462 89.382 251.597C89.5232 254.341 89.6241 257.098 89.7922 259.842C89.8729 261.187 89.9603 262.532 90.0545 263.877C90.1352 265.027 90.1083 266.466 90.6194 267.522C90.6463 267.555 90.7337 267.535 90.7539 267.475Z" fill="#263238"/>
<path d="M123.768 165.51L87.123 165.631C87.123 165.631 107.143 131.427 118.058 118.777C129.45 105.59 137.043 106.672 132.577 129.336C128.2 151.643 123.768 165.51 123.768 165.51Z" fill="#0C9CFF"/>
<path d="M111.038 150.58C110.608 151.48 110.311 152.439 110.157 153.424C111.43 151.875 112.278 150.021 112.618 148.044C111.972 148.809 111.44 149.663 111.038 150.58ZM116.499 120.68L116.122 121.144C116.597 121.304 117.085 121.419 117.581 121.487C117.245 121.187 116.883 120.917 116.499 120.68ZM104.784 139.51C104.606 139.037 104.402 138.575 104.172 138.125L103.741 138.798C103.836 139.134 103.943 139.47 104.057 139.786C104.393 140.727 104.862 141.615 105.45 142.422C105.372 141.411 105.148 140.417 104.784 139.47V139.51ZM128.839 146.612C128.502 145.672 128.033 144.784 127.447 143.976C127.531 144.971 127.758 145.95 128.12 146.881C128.254 147.224 128.395 147.554 128.543 147.896C128.644 147.48 128.745 147.063 128.853 146.632L128.839 146.612ZM130.48 117.789C130.145 116.849 129.679 115.961 129.095 115.152C129.287 117.146 129.993 119.056 131.146 120.694C131.07 119.689 130.845 118.701 130.48 117.762V117.789ZM93.748 157.56C92.8209 157.887 91.9429 158.34 91.1387 158.905C93.1275 158.71 95.032 158.004 96.6666 156.854C95.6662 156.939 94.6832 157.168 93.748 157.533V157.56ZM121.132 131.797C120.192 132.13 119.304 132.597 118.496 133.182C120.49 132.99 122.399 132.283 124.038 131.131C123.044 131.204 122.065 131.419 121.132 131.77V131.797Z" fill="white"/>
<path d="M93.1281 159.727C94.0494 159.626 94.9909 159.653 95.9123 159.639L98.7637 159.586C100.694 159.545 102.624 159.539 104.547 159.545C108.401 159.545 112.254 159.545 116.101 159.619C117.163 159.619 118.219 159.666 119.275 159.713C120.331 159.76 121.501 159.895 122.638 159.942C122.705 159.942 122.691 160.043 122.638 160.05C121.683 160.05 120.728 160.177 119.773 160.211C118.818 160.245 117.816 160.265 116.834 160.272C114.91 160.272 112.987 160.272 111.057 160.272C107.264 160.238 103.471 160.218 99.6783 160.097L96.5041 159.989C95.4012 159.955 94.2646 159.989 93.1415 159.841C93.081 159.821 93.0676 159.734 93.1281 159.727Z" fill="#263238"/>
<path d="M128.672 148.513C129.458 147.322 130.008 145.991 130.292 144.593C130.292 144.593 130.252 144.559 130.245 144.593C129.851 145.796 129.356 146.963 128.766 148.083L129.109 146.57C129.512 144.734 129.922 142.911 130.238 141.062C130.238 141.062 130.198 141.015 130.191 141.062C129.27 144.196 128.49 147.383 127.643 150.544C126.795 153.705 125.934 156.953 125.094 160.161C124.63 161.916 124.166 163.665 123.749 165.42C123.15 165.474 122.686 165.454 122.155 165.501C122.014 165.501 122 165.756 122.155 165.77C122.827 165.823 123.503 165.811 124.172 165.736C125.982 160.08 127.367 154.297 128.672 148.513Z" fill="#263238"/>
<path d="M129.282 111.662C131.852 116.416 135.61 120.422 140.19 123.29C142.379 124.736 144.894 125.615 147.507 125.845C148.866 125.984 150.235 125.695 151.421 125.018C152.522 124.22 153.395 123.149 153.957 121.911C154.638 120.509 155.107 119.013 155.349 117.473C155.65 115.73 155.828 113.968 155.88 112.2C155.88 112.133 155.981 112.147 155.974 112.2C155.927 113.875 156.014 115.563 155.84 117.217C155.716 118.688 155.404 120.137 154.912 121.528C154.439 122.845 153.691 124.046 152.719 125.052C151.697 126.04 150.353 126.628 148.933 126.706C146.149 126.841 143.387 126.153 140.991 124.729C138.566 123.38 136.365 121.663 134.467 119.638C132.275 117.303 130.476 114.628 129.141 111.716C129.133 111.706 129.127 111.695 129.123 111.682C129.12 111.669 129.12 111.656 129.123 111.643C129.127 111.631 129.133 111.619 129.141 111.609C129.15 111.599 129.161 111.592 129.173 111.587C129.185 111.583 129.198 111.581 129.211 111.583C129.224 111.584 129.237 111.589 129.247 111.596C129.258 111.604 129.267 111.613 129.273 111.625C129.279 111.636 129.282 111.649 129.282 111.662Z" fill="#263238"/>
<path d="M149.808 122.132C144.629 123.577 135.335 115.951 131.529 109.616C131.274 109.179 131.764 104.478 132.094 98.7284C132.276 95.2381 132.403 91.3309 132.262 87.7935C132.228 87.0672 154.784 92.3195 154.784 92.3195C154.784 92.3195 152.888 99.8582 153.177 106.059C153.202 106.548 153.272 107.034 153.385 107.511C153.385 107.579 153.419 107.659 153.433 107.753C153.991 110.511 154.811 120.733 149.808 122.132Z" fill="#AD6359"/>
<path d="M151.146 107.964C151.91 107.958 152.673 107.888 153.426 107.756C153.418 107.674 153.404 107.593 153.385 107.514C153.268 107.038 153.199 106.551 153.177 106.061C152.894 99.8674 154.777 92.3219 154.777 92.3219C154.777 92.3219 136.472 88.0583 132.867 87.7422C133.721 91.8243 137.978 108.206 151.146 107.964Z" fill="#263238"/>
<path d="M133.881 56.8464C129.846 64.0691 129.053 87.2973 133.464 93.4776C139.867 102.435 152.772 105.973 160.997 97.7211C168.966 89.7049 169.457 59.4422 164.312 53.5713C156.699 44.9296 139.86 46.1805 133.881 56.8464Z" fill="#AD6359"/>
<path d="M160.588 59.3492C159.635 60.5077 158.403 61.4037 157.007 61.9522C155.611 62.5006 154.098 62.6834 152.612 62.4831C149.666 62.0594 146.714 60.089 145.611 57.2577C145.602 57.2435 145.588 57.233 145.572 57.228C145.555 57.2229 145.538 57.2236 145.522 57.2299C145.506 57.2362 145.493 57.2478 145.485 57.2626C145.477 57.2775 145.474 57.2948 145.477 57.3115C146.66 60.3311 149.175 62.7924 152.504 63.1892C154.083 63.3481 155.676 63.0902 157.124 62.4412C158.572 61.7922 159.824 60.7747 160.756 59.4904C160.837 59.3761 160.675 59.2416 160.588 59.3492Z" fill="#263238"/>
<path d="M151.852 40.5326C148.193 39.5507 144.185 41.3127 142.02 44.3188C140.772 46.133 140.004 48.2338 139.787 50.4251C139.792 50.4401 139.801 50.4533 139.814 50.4626C139.827 50.472 139.842 50.477 139.858 50.477C139.873 50.477 139.889 50.472 139.902 50.4626C139.914 50.4533 139.924 50.4401 139.928 50.4251C140.554 46.9751 142.712 43.4849 145.92 41.9112C147.381 41.1333 149.048 40.8305 150.688 41.0451C152.329 41.2597 153.862 41.9809 155.073 43.1083C156.412 44.3686 157.28 46.0484 157.534 47.8696C157.545 47.9063 157.569 47.938 157.601 47.959C157.633 47.9799 157.672 47.9887 157.71 47.9839C157.748 47.979 157.783 47.9608 157.809 47.9325C157.834 47.9041 157.849 47.8675 157.851 47.8292C157.721 46.1443 157.075 44.5402 156.002 43.2348C154.929 41.9294 153.48 40.9859 151.852 40.5326Z" fill="#263238"/>
<path d="M179.351 48.9718C178.523 46.6051 176.881 44.61 174.717 43.3429C171.725 41.5675 168.389 41.9038 165.08 42.3005C165.065 42.3052 165.052 42.3146 165.043 42.3273C165.033 42.34 165.028 42.3554 165.028 42.3711C165.028 42.3869 165.033 42.4023 165.043 42.415C165.052 42.4277 165.065 42.4371 165.08 42.4418C167.898 42.1122 170.776 41.9374 173.399 43.2219C175.568 44.2672 177.31 46.03 178.329 48.2118C179.304 50.4572 179.439 52.9788 178.708 55.3153C177.977 57.6518 176.429 59.6469 174.347 60.9356C173.129 61.6463 171.778 62.1001 170.377 62.269C168.976 62.4378 167.556 62.3182 166.203 61.9174C166.102 61.9174 166.022 62.0452 166.136 62.0788C167.966 62.6971 169.932 62.7933 171.814 62.3567C173.696 61.92 175.418 60.9678 176.789 59.6068C178.16 58.2459 179.124 56.5299 179.574 54.6514C180.025 52.7729 179.942 50.8062 179.337 48.9718H179.351Z" fill="#263238"/>
<path d="M132.578 59.9665C132.578 59.9665 132.982 52.8716 134.818 50.6994C136.653 48.5272 140.715 48.0094 140.715 48.0094C140.715 48.0094 143.083 42.0039 148.785 41.6004C153.923 41.2373 157.407 45.7699 157.407 45.7699C157.407 45.7699 164.509 38.7019 172.639 42.7033C180.359 46.503 179.364 58.2516 171.933 62.0176C166.687 64.6538 159.458 60.0875 159.458 60.0875C158.786 60.1884 151.771 64.5462 146.351 58.3189C146.351 58.3189 141.543 62.0849 138.765 59.4554C138.758 59.4419 135.087 61.2308 132.578 59.9665Z" fill="#263238"/>
<path opacity="0.2" d="M138.388 51.7422C138.14 55.2527 137.333 65.246 136.055 67.4384C134.777 69.6308 131.731 75.3672 130.493 75.7707C130.628 68.2185 131.838 60.4914 133.856 56.8465C134.992 54.846 136.536 53.1069 138.388 51.7422Z" fill="#263238"/>
<path d="M133.728 75.6439C133.728 75.6439 130.083 67.3923 126.431 68.5558C122.779 69.7192 124.528 80.9836 128.112 83.1827C128.554 83.4924 129.052 83.7105 129.58 83.8241C130.107 83.9378 130.651 83.9447 131.181 83.8444C131.71 83.7441 132.215 83.5386 132.664 83.2401C133.113 82.9417 133.497 82.5563 133.795 82.1067L133.728 75.6439Z" fill="#AD6359"/>
<path d="M127.016 71.7695C126.955 71.7695 126.921 71.8368 126.975 71.8704C129.463 73.4979 130.398 76.2955 130.882 79.0998C130.277 77.9364 129.289 77.1697 127.755 77.8624C127.675 77.9028 127.755 78.0238 127.802 78.0238C128.305 77.963 128.815 78.0596 129.26 78.3006C129.706 78.5415 130.066 78.9147 130.291 79.3688C130.664 80.1372 130.95 80.9447 131.145 81.7764C131.225 82.0386 131.683 81.9983 131.649 81.7024C131.652 81.6801 131.652 81.6575 131.649 81.6351C132.389 78.2121 130.687 72.8455 127.016 71.7695Z" fill="#263238"/>
<path d="M149.922 75.2463C149.922 75.1858 149.794 75.3136 149.794 75.3808C149.794 76.9477 149.511 78.7433 148.072 79.2073C148.032 79.2073 148.032 79.2948 148.072 79.2948C149.821 79.1132 150.191 76.7325 149.922 75.2463Z" fill="#263238"/>
<path d="M148.584 73.5661C146.075 73.2837 145.685 78.3207 148.012 78.583C150.339 78.8453 150.689 73.8015 148.584 73.5661Z" fill="#263238"/>
<path d="M159.733 75.9132C159.733 75.8527 159.854 75.9939 159.848 76.0544C159.673 77.6146 159.74 79.4169 161.112 80.0894C161.159 80.0894 161.145 80.1836 161.112 80.1701C159.39 79.7666 159.323 77.3591 159.733 75.9132Z" fill="#263238"/>
<path d="M161.253 74.3848C163.782 74.3848 163.587 79.442 161.253 79.4353C158.92 79.4285 159.135 74.3848 161.253 74.3848Z" fill="#263238"/>
<path d="M146.075 70.43C146.667 70.0399 147.279 69.7575 147.905 69.4481C148.498 69.0032 149.221 68.7668 149.962 68.7756C150.193 68.8271 150.401 68.9531 150.553 69.1343C150.704 69.3154 150.793 69.5415 150.803 69.7777C150.803 70.7864 150.036 71.4589 149.203 71.9364C148.38 72.4456 147.397 72.6302 146.445 72.4542C146.238 72.3969 146.052 72.2824 145.907 72.1239C145.762 71.9654 145.665 71.7693 145.626 71.558C145.587 71.3468 145.609 71.1289 145.689 70.9294C145.768 70.7299 145.902 70.5568 146.075 70.43Z" fill="#263238"/>
<path d="M164.387 72.4367C163.867 71.9764 163.323 71.5432 162.759 71.1388C162.251 70.6054 161.583 70.2534 160.856 70.1367C160.619 70.1455 160.392 70.2319 160.21 70.3827C160.028 70.5334 159.9 70.7401 159.847 70.9706C159.686 71.9659 160.304 72.7595 161.037 73.3782C161.754 74.0276 162.686 74.3872 163.653 74.3869C163.874 74.3755 164.087 74.2998 164.266 74.1693C164.444 74.0387 164.581 73.8588 164.659 73.6518C164.736 73.4448 164.752 73.2195 164.704 73.0037C164.655 72.7878 164.545 72.5908 164.387 72.4367Z" fill="#263238"/>
<path d="M150.479 87.4452C152.496 86.7727 155.038 87.2367 156.639 87.5528C156.821 87.5528 157.009 87.1896 157.049 87.0282C157.049 86.9677 157.184 83.7195 157.184 83.7195C157.601 83.9684 159.746 85.1183 159.753 84.4929C159.807 79.3348 159.867 73.5984 158.831 68.4537C158.831 68.4163 158.817 68.3803 158.79 68.3539C158.764 68.3274 158.728 68.3125 158.69 68.3125C158.653 68.3125 158.617 68.3274 158.59 68.3539C158.564 68.3803 158.549 68.4163 158.549 68.4537C158.3 73.4101 158.926 78.3799 158.751 83.3564C157.992 82.9355 157.176 82.6252 156.33 82.4351C156.155 82.4687 156.37 85.9388 156.269 86.4701C156.269 86.4701 153.189 85.2999 150.499 86.7592C149.806 87.1426 149.517 87.7545 150.479 87.4452Z" fill="#263238"/>
<path d="M147.157 89.5293C147.506 89.9194 147.829 90.4372 148.401 90.5246C148.977 90.5523 149.553 90.4559 150.089 90.2422C150.1 90.2366 150.114 90.2353 150.126 90.2385C150.138 90.2418 150.149 90.2494 150.157 90.26C150.164 90.2705 150.167 90.2833 150.166 90.2961C150.164 90.3089 150.159 90.3208 150.149 90.3296C149.904 90.6124 149.588 90.8241 149.233 90.9424C148.878 91.0608 148.498 91.0814 148.132 91.0021C147.821 90.9003 147.548 90.7085 147.347 90.451C147.146 90.1935 147.026 89.8821 147.002 89.5562C146.989 89.5024 147.11 89.4755 147.157 89.5293Z" fill="#263238"/>
<path d="M140.164 71.6534C138.032 71.6534 139.175 67.6183 139.626 66.2262C139.938 64.7387 140.118 63.2264 140.164 61.707C140.209 63.2275 140.396 64.7405 140.722 66.2262C141.166 67.6251 142.309 71.6534 140.164 71.6534Z" fill="white"/>
<path d="M166.848 82.5496C167.016 80.7002 167.144 78.8575 167.224 77.0082C167.305 75.1588 167.365 73.3161 167.352 71.4667C167.339 69.6174 167.312 67.7814 167.224 65.932C167.224 65.0107 167.13 64.0894 167.056 63.1681C166.982 62.2467 166.895 61.3187 166.848 60.3906C167.263 62.2033 167.562 64.0407 167.742 65.8917C167.937 67.7458 168.031 69.6091 168.025 71.4735C168.024 73.3354 167.93 75.1961 167.742 77.0485C167.641 77.9698 167.527 78.8912 167.392 79.8125C167.258 80.7338 167.076 81.635 166.848 82.5496Z" fill="#263238"/>
<path d="M125.832 271.596C125.879 271.871 125.933 272.147 125.987 272.43C125.94 272.154 125.886 271.871 125.839 271.596H125.832Z" fill="#EBEBEB"/>
</svg>
