<svg width="391" height="256" viewBox="0 0 391 256" fill="none" xmlns="http://www.w3.org/2000/svg">
<path d="M70.7466 217.019C77.7754 212.115 80.1399 206.071 80.9432 197.539C81.3157 193.257 80.7653 188.945 79.3292 184.894C77.8932 180.843 75.6049 177.147 72.6188 174.055C67.6241 168.951 60.7508 165.595 57.0258 159.493C53.0612 153.014 53.1972 144.133 47.6908 138.873C43.9076 135.264 38.3752 134.299 33.7757 131.798C30.0249 129.758 26.9412 126.713 23.5078 124.174C20.0744 121.634 15.9996 119.529 11.7435 119.846C5.32363 120.332 0.322488 126.635 0.0180149 133.068C-0.286459 139.501 3.30244 145.655 8.21288 149.821C11.7759 152.846 16.1616 155.159 18.4937 159.208C22.873 166.806 18.2994 177.346 23.0284 184.77C26.4619 190.18 34.2551 192.764 35.3369 199.081C35.7321 201.406 35.0713 203.771 35.0908 206.129C35.1491 213.495 42.0354 219.435 49.2909 220.737C56.5464 222.039 63.938 219.772 70.7725 217.019" fill="#F5F5F5"/>
<path d="M25.6587 145.738C25.8837 146.053 26.1422 146.341 26.4296 146.6L28.7617 148.945C29.7918 149.943 31.0356 151.18 32.383 152.709C33.7305 154.238 35.3824 155.864 36.976 157.891C37.7988 158.876 38.6604 159.906 39.5673 160.981C40.4743 162.057 41.297 163.249 42.2104 164.441C44.0761 166.805 45.8317 169.507 47.7363 172.305C51.7 178.484 55.2221 184.935 58.2762 191.61C61.241 198.336 63.7262 205.263 65.7132 212.34C66.5424 215.625 67.3975 218.728 67.9287 221.695C68.2137 223.172 68.5765 224.584 68.7644 225.97C68.9522 227.357 69.1725 228.672 69.3604 229.941C69.8009 232.468 69.9499 234.781 70.1766 236.808C70.4034 238.836 70.52 240.579 70.5847 241.991C70.6495 243.403 70.7337 244.446 70.7856 245.288C70.7897 245.676 70.8353 246.063 70.9216 246.441C70.973 246.059 70.9882 245.673 70.967 245.288C70.967 244.44 70.9669 243.345 70.9281 241.978C70.8892 240.611 70.8633 238.778 70.669 236.743C70.4746 234.709 70.3839 232.384 69.9823 229.838C69.8052 228.542 69.6216 227.208 69.4316 225.834C69.2373 224.448 68.9134 223.016 68.6413 221.533C68.1425 218.54 67.3457 215.417 66.497 212.107C64.5387 204.979 62.0529 198.007 59.0601 191.247C55.9858 184.517 52.4219 178.022 48.397 171.813C46.4536 169.014 44.6786 166.313 42.774 163.955C41.8411 162.763 40.986 161.577 40.0791 160.508L37.4489 157.438C35.8165 155.449 34.1451 153.823 32.7393 152.34C31.3336 150.856 30.0703 149.638 29.0014 148.673L26.5527 146.444C26.276 146.183 25.9768 145.947 25.6587 145.738Z" fill="#E0E0E0"/>
<path d="M385.799 90.9793C385.799 90.9793 379.619 86.8916 372.084 101.675C364.55 116.458 361.719 124.996 361.719 124.996C361.719 124.996 359.724 128.093 357.599 126.065C355.474 124.037 352.559 118.291 348.944 119.334C345.194 120.403 343.956 124.588 344.669 130.742C345.381 136.896 346.457 150.423 346.554 151.647C346.651 152.872 345.952 154.621 344.287 153.474C342.622 152.327 333.008 141.626 328.201 146.491C323.395 151.356 328.201 168.16 328.694 170.006C329.186 171.853 328.823 172.643 327.942 173.103C327.061 173.563 324.178 169.657 321.322 166.722C318.465 163.787 314.636 160.892 312.097 163.93C309.557 166.968 308.747 179.581 320.751 200.065L326.932 209.193L337.99 208.577C361.57 205.824 371.145 197.564 372.046 193.729C372.946 189.894 368.321 188.547 364.272 188.048C360.223 187.549 355.358 187.569 355.202 186.597C355.047 185.625 355.449 184.854 357.217 184.135C358.986 183.416 375.304 177.132 376.289 170.369C377.273 163.606 362.95 162.375 361.033 161.734C359.115 161.092 360.106 159.473 361.123 158.825C362.14 158.177 373.6 150.863 378.945 147.734C384.289 144.605 386.881 141.094 385.481 137.454C384.127 133.942 377.785 135.076 374.889 134.597C371.994 134.117 373.263 130.664 373.263 130.664C373.263 130.664 378.316 123.228 385.578 108.328C392.84 93.428 385.669 90.908 385.669 90.908" fill="#EBEBEB"/>
<path d="M379.029 104.207C379.029 104.207 378.99 104.317 378.893 104.524C378.796 104.732 378.647 105.049 378.466 105.451C378.07 106.274 377.5 107.459 376.775 108.988C375.298 112.065 373.141 116.496 370.452 121.944C365.069 132.879 357.496 147.922 349.12 164.506C340.743 181.09 333.125 196.119 327.696 207.028L321.276 219.946C320.518 221.462 319.935 222.647 319.527 223.463C319.327 223.852 319.177 224.15 319.067 224.37L318.899 224.675C318.899 224.675 318.938 224.565 319.035 224.357L319.463 223.431C319.858 222.608 320.428 221.416 321.153 219.888C322.624 216.817 324.788 212.386 327.476 206.931C332.859 195.996 340.432 180.954 348.815 164.363C357.198 147.773 364.797 132.756 370.232 121.854L376.652 108.93L378.401 105.418C378.602 105.03 378.751 104.725 378.861 104.512C378.971 104.298 379.029 104.207 379.029 104.207Z" fill="#E0E0E0"/>
<path d="M352.676 127.518C352.797 127.757 352.89 128.009 352.955 128.269C353.117 128.755 353.324 129.468 353.603 130.349C354.101 132.111 354.73 134.559 355.371 137.28C356.013 140.001 356.563 142.385 356.991 144.244L357.496 146.35C357.58 146.603 357.632 146.867 357.651 147.133C357.531 146.894 357.438 146.642 357.373 146.382C357.211 145.896 357.004 145.184 356.758 144.302C356.278 142.534 355.682 140.072 355.041 137.358C354.399 134.644 353.81 132.26 353.369 130.407C353.162 129.571 352.987 128.872 352.851 128.301C352.762 128.048 352.704 127.785 352.676 127.518Z" fill="#E0E0E0"/>
<path d="M358.643 147.327C358.643 147.236 363.611 145.72 369.804 143.939C375.998 142.157 381.031 140.791 381.057 140.881C381.083 140.972 376.088 142.488 369.895 144.269C363.702 146.051 358.668 147.418 358.643 147.327Z" fill="#E0E0E0"/>
<path d="M344.591 172.214C344.862 172.177 345.135 172.164 345.408 172.176H347.617C349.489 172.176 352.067 172.176 354.911 172.059C357.755 171.942 360.327 171.774 362.192 171.625L364.395 171.45C364.666 171.423 364.94 171.423 365.211 171.45C364.952 171.532 364.685 171.586 364.414 171.612C363.896 171.69 363.119 171.787 362.212 171.89C360.353 172.104 357.781 172.325 354.924 172.428C352.067 172.532 349.482 172.506 347.617 172.428C346.677 172.389 345.926 172.35 345.401 172.312C345.128 172.311 344.857 172.278 344.591 172.214Z" fill="#E0E0E0"/>
<path d="M335.23 155.488C335.398 155.675 335.542 155.881 335.658 156.104L336.727 157.853C337.614 159.33 338.819 161.39 340.134 163.683C341.45 165.976 342.622 168.049 343.458 169.559L344.429 171.36C344.562 171.572 344.666 171.801 344.74 172.04C344.575 171.852 344.432 171.645 344.313 171.425L343.244 169.682C342.356 168.198 341.151 166.138 339.836 163.852C338.521 161.565 337.349 159.492 336.52 157.976C336.137 157.27 335.807 156.68 335.548 156.175C335.414 155.96 335.307 155.729 335.23 155.488Z" fill="#E0E0E0"/>
<path d="M320.065 175.889C320.271 176.137 320.453 176.403 320.609 176.685L321.982 178.914C323.129 180.806 324.697 183.449 326.407 186.344C328.117 189.24 329.646 191.903 330.747 193.82C331.266 194.747 331.693 195.517 332.043 196.107C332.214 196.381 332.358 196.672 332.471 196.975C332.267 196.726 332.085 196.459 331.926 196.178L330.553 193.943C329.406 192.052 327.839 189.409 326.128 186.519C324.418 183.63 322.889 180.961 321.788 179.037L320.492 176.75C320.322 176.478 320.179 176.189 320.065 175.889Z" fill="#E0E0E0"/>
<path d="M332.302 196.386C332.642 196.328 332.987 196.305 333.332 196.315L336.137 196.217C338.508 196.14 341.78 196.017 345.382 195.783C348.984 195.55 352.248 195.252 354.607 195.019L357.405 194.747C357.746 194.697 358.091 194.678 358.435 194.689C358.102 194.783 357.762 194.848 357.418 194.883C356.77 194.987 355.812 195.116 354.639 195.265C352.281 195.557 349.022 195.913 345.408 196.12C341.793 196.328 338.515 196.444 336.144 196.464C334.958 196.464 334 196.464 333.332 196.464C332.987 196.47 332.642 196.444 332.302 196.386Z" fill="#E0E0E0"/>
<path d="M252.614 16.6035H297.087C298.016 16.6035 298.908 16.9728 299.565 17.63C300.222 18.2873 300.591 19.1787 300.591 20.1082V49.5774C300.591 50.5069 300.222 51.3983 299.565 52.0555C298.908 52.7128 298.016 53.082 297.087 53.082H273.688L262.552 64.218V53.082H252.614C251.927 53.082 251.268 52.809 250.782 52.3231C250.296 51.8371 250.023 51.178 250.023 50.4908V19.2013C250.022 18.8604 250.089 18.5228 250.218 18.2076C250.348 17.8925 250.539 17.6061 250.78 17.3648C251.02 17.1235 251.306 16.932 251.621 16.8014C251.936 16.6708 252.273 16.6035 252.614 16.6035Z" fill="#E0E0E0"/>
<path d="M267.372 35.4604C267.372 35.9729 267.22 36.4739 266.935 36.9C266.651 37.3262 266.246 37.6583 265.772 37.8544C265.299 38.0505 264.778 38.1019 264.275 38.0019C263.773 37.9019 263.311 37.6551 262.948 37.2927C262.586 36.9303 262.339 36.4686 262.239 35.9659C262.139 35.4633 262.191 34.9423 262.387 34.4688C262.583 33.9953 262.915 33.5906 263.341 33.3059C263.767 33.0211 264.268 32.8691 264.781 32.8691C265.468 32.8691 266.127 33.1422 266.613 33.6281C267.099 34.1141 267.372 34.7732 267.372 35.4604Z" fill="#FAFAFA"/>
<path d="M277.724 35.4604C277.724 35.9729 277.572 36.4739 277.287 36.9C277.003 37.3262 276.598 37.6583 276.124 37.8544C275.651 38.0505 275.13 38.1019 274.627 38.0019C274.125 37.9019 273.663 37.6551 273.3 37.2927C272.938 36.9303 272.691 36.4686 272.591 35.9659C272.491 35.4633 272.543 34.9423 272.739 34.4688C272.935 33.9953 273.267 33.5906 273.693 33.3059C274.119 33.0211 274.62 32.8691 275.133 32.8691C275.82 32.8691 276.479 33.1422 276.965 33.6281C277.451 34.1141 277.724 34.7732 277.724 35.4604Z" fill="#FAFAFA"/>
<path d="M288.069 35.4604C288.069 35.9729 287.917 36.4739 287.633 36.9C287.348 37.3262 286.943 37.6583 286.47 37.8544C285.996 38.0505 285.475 38.1019 284.972 38.0019C284.47 37.9019 284.008 37.6551 283.646 37.2927C283.283 36.9303 283.036 36.4686 282.937 35.9659C282.837 35.4633 282.888 34.9423 283.084 34.4688C283.28 33.9953 283.612 33.5906 284.038 33.3059C284.464 33.0211 284.965 32.8691 285.478 32.8691C286.165 32.8691 286.824 33.1422 287.31 33.6281C287.796 34.1141 288.069 34.7732 288.069 35.4604Z" fill="#FAFAFA"/>
<path d="M324.865 239.109C313.736 228.284 313.541 211.538 316.444 197.001C316.923 194.572 317.091 191.955 318.588 189.998C320.084 188.042 323.051 187.018 325.066 188.404C326.744 189.558 327.191 191.799 327.923 193.71C328.901 196.259 330.578 198.479 332.762 200.117C334.187 201.173 336.001 201.983 337.705 201.413C339.998 200.59 340.724 197.72 341.106 195.291C341.81 190.756 342.518 186.221 343.231 181.687C343.613 179.257 344.015 176.77 345.142 174.561C346.269 172.352 348.297 170.512 350.713 170.24C353.129 169.968 355.773 171.769 355.896 174.224C355.941 175.247 355.572 176.245 355.475 177.262C355.377 178.279 355.662 179.478 356.576 179.912C357.489 180.346 358.584 179.827 359.426 179.231C362.335 177.184 364.55 174.302 366.656 171.419C368.761 168.536 370.828 165.588 373.536 163.263C376.244 160.937 379.742 159.376 383.253 159.719C386.764 160.063 390.126 162.842 390.45 166.405C390.774 169.968 388.209 173.122 385.579 175.539C381.684 179.129 377.289 182.136 372.532 184.466C371.676 184.887 370.75 185.34 370.31 186.189C369.519 187.724 370.795 189.583 372.305 190.374C374.021 191.274 376.017 191.404 377.876 191.942C379.735 192.479 381.646 193.639 382.074 195.55C382.663 198.193 380.163 200.46 377.837 201.834C373.188 204.582 368.099 206.508 362.795 207.528C360.903 207.891 358.908 208.176 357.282 209.18C355.656 210.184 354.406 212.244 355.002 214.097C355.598 215.95 357.735 216.863 359.666 216.824C361.596 216.785 363.436 216.034 365.328 215.652C368.878 214.939 373.153 215.872 374.818 219.104C375.92 221.229 375.609 223.892 374.527 226.043C373.445 228.193 371.689 229.897 369.869 231.445C363.494 236.855 355.818 240.793 347.629 242.212C339.441 243.631 332.147 243.197 324.911 239.128" fill="#0C9CFF"/>
<path d="M322.922 249.927C324.708 243.249 327.131 236.758 330.158 230.544C333.886 222.969 338.048 215.615 342.622 208.518L346.185 202.908C347.357 201.068 348.524 199.248 349.774 197.538C352.175 194.253 354.757 191.104 357.509 188.106C360.1 185.223 362.691 182.586 365.127 180.137C367.563 177.689 369.876 175.46 372.072 173.51C375.515 170.417 379.197 167.601 383.085 165.089C384.464 164.201 385.553 163.547 386.324 163.145L387.172 162.653C387.267 162.595 387.367 162.545 387.47 162.504C387.384 162.574 387.293 162.639 387.198 162.698L386.369 163.223C385.643 163.676 384.568 164.357 383.208 165.264C379.361 167.819 375.71 170.658 372.285 173.756C370.109 175.7 367.816 177.961 365.399 180.416C362.983 182.871 360.417 185.514 357.826 188.397C355.091 191.385 352.522 194.521 350.13 197.79C348.893 199.494 347.74 201.308 346.561 203.148C345.382 204.988 344.209 206.86 343.004 208.739C338.442 215.826 334.279 223.162 330.534 230.712C327.502 236.898 325.057 243.355 323.233 249.998" fill="#263238"/>
<path d="M349.91 197.533C349.848 197.178 349.824 196.817 349.839 196.457C349.839 195.764 349.839 194.766 349.839 193.523C349.884 191.048 350.072 187.634 350.292 183.87C350.512 180.106 350.655 176.692 350.668 174.224C350.668 172.987 350.668 171.989 350.668 171.296C350.639 170.937 350.652 170.576 350.707 170.221C350.792 170.571 350.837 170.929 350.843 171.29C350.907 171.976 350.959 172.98 350.992 174.218C351.063 176.692 350.992 180.119 350.752 183.89C350.512 187.66 350.318 190.97 350.162 193.536C350.098 194.695 350.046 195.673 350.007 196.464C350.012 196.822 349.979 197.181 349.91 197.533Z" fill="#263238"/>
<path d="M382.107 196.787C381.674 196.808 381.24 196.788 380.811 196.729C379.995 196.67 378.816 196.58 377.365 196.515C374.449 196.353 370.42 196.282 365.97 196.392C361.519 196.502 357.496 196.787 354.587 197.072C353.136 197.201 351.996 197.344 351.154 197.435C350.726 197.508 350.292 197.541 349.858 197.532C350.263 197.399 350.68 197.306 351.102 197.253C351.905 197.111 353.046 196.923 354.529 196.748C357.438 196.379 361.467 196.048 365.937 195.932C369.746 195.824 373.558 195.91 377.358 196.191C378.816 196.301 379.995 196.437 380.805 196.554C381.246 196.586 381.682 196.664 382.107 196.787Z" fill="#263238"/>
<path d="M330.644 230.034C330.644 230.034 330.573 229.898 330.489 229.619C330.404 229.341 330.281 228.887 330.139 228.401C329.841 227.346 329.446 225.81 328.986 223.867C328.059 220.045 326.951 214.72 325.805 208.831C324.658 202.942 323.602 197.611 322.76 193.769C322.345 191.904 322.002 190.368 321.743 189.235C321.639 188.736 321.549 188.328 321.477 187.997C321.437 187.854 321.415 187.706 321.413 187.557C321.413 187.557 321.484 187.693 321.568 187.971C321.652 188.25 321.775 188.703 321.918 189.189C322.216 190.245 322.611 191.78 323.071 193.724C323.991 197.546 325.105 202.871 326.252 208.766C327.398 214.661 328.454 219.98 329.297 223.821L330.307 228.356C330.417 228.848 330.508 229.263 330.579 229.593C330.62 229.737 330.642 229.885 330.644 230.034Z" fill="#263238"/>
<path d="M374.339 223.42C374.197 223.472 374.049 223.507 373.898 223.523L372.603 223.731L367.919 224.443C363.967 225.052 358.519 225.953 352.501 226.95C346.483 227.948 341.061 228.822 337.077 229.328C335.094 229.593 333.488 229.788 332.373 229.898L331.078 230.021C330.93 230.045 330.779 230.045 330.631 230.021C330.772 229.967 330.921 229.932 331.071 229.917L332.367 229.71L337.044 228.997C340.996 228.388 346.451 227.488 352.469 226.49C358.487 225.493 363.948 224.637 367.919 224.113C369.901 223.847 371.508 223.653 372.622 223.543L373.918 223.42C374.058 223.402 374.199 223.402 374.339 223.42Z" fill="#263238"/>
<path d="M25.9759 188.008C29.4806 187.069 33.3157 187.956 36.3993 189.861C39.439 191.881 41.9745 194.571 43.8103 197.725C47.5352 203.679 48.8114 211.653 48.9345 218.676C41.1607 218.313 34.5271 212.152 31.3658 208.816C26.3711 203.543 20.5343 190.982 25.9759 188.034" fill="#0C9CFF"/>
<path d="M61.444 223.407C58.2567 220.906 56.8509 216.501 57.5571 212.51C57.9605 210.519 58.7566 208.627 59.8989 206.947C61.0412 205.266 62.5068 203.83 64.2101 202.722C65.7584 201.666 67.6824 200.837 69.4769 201.381C70.3047 201.686 71.0354 202.207 71.5927 202.891C72.15 203.575 72.5133 204.396 72.6447 205.268C72.8919 207.022 72.6683 208.811 71.9969 210.45C69.9951 216.119 67.0217 221.236 61.444 223.459" fill="#0C9CFF"/>
<path d="M68.5181 245.619C68.2016 245.238 67.94 244.815 67.7407 244.362C67.2937 243.533 66.6589 242.315 65.9268 240.793C63.9347 236.826 62.4836 232.61 61.6124 228.257C60.6925 223.075 61.3662 218.242 62.6619 215.074C63.1414 213.81 63.7815 212.612 64.5664 211.511C64.8259 211.088 65.1518 210.71 65.5317 210.391C65.6677 210.475 64.2814 212.107 63.1801 215.269C61.8416 219.419 61.5698 223.839 62.3898 228.121C63.258 232.408 64.6143 236.581 66.4321 240.559C67.7731 243.656 68.6218 245.567 68.5181 245.619Z" fill="#263238"/>
<path d="M31.2622 197.182C31.8766 197.713 32.4424 198.299 32.953 198.931C34.0025 200.09 35.4924 201.794 37.3128 203.919C40.9471 208.162 45.8769 214.116 51.1631 220.82C56.4493 227.525 61.0682 233.712 64.3462 238.247C65.9852 240.514 67.2937 242.36 68.1748 243.656C68.6646 244.3 69.0981 244.985 69.4704 245.703C68.9048 245.122 68.387 244.496 67.9221 243.831L63.8927 238.577C60.5046 234.133 55.808 228.005 50.5347 221.306C45.2615 214.608 40.4029 208.609 36.8788 204.275L32.7004 199.125C32.1688 198.518 31.6878 197.868 31.2622 197.182Z" fill="#263238"/>
<path d="M56.1836 232.062C52.8132 229.414 48.8604 227.607 44.6526 226.792C40.4449 225.976 36.1033 226.175 31.9877 227.372C29.9082 228.019 27.5955 229.27 27.3882 231.433C27.1809 233.597 29.2086 235.32 31.165 236.273C35.2761 238.224 39.8729 238.914 44.3758 238.257C48.8788 237.6 53.0865 235.625 56.4687 232.58" fill="#0C9CFF"/>
<path d="M37.1636 231.335C37.5928 231.134 38.0489 230.996 38.5175 230.926C39.0542 230.79 39.5997 230.69 40.15 230.628C40.8729 230.512 41.6017 230.436 42.3331 230.402C44.2435 230.292 46.1601 230.377 48.0534 230.654C52.7124 231.334 57.1488 233.09 61.0097 235.785C62.578 236.88 64.0321 238.13 65.35 239.516C65.8649 240.039 66.3474 240.593 66.7947 241.175C67.1546 241.595 67.4837 242.041 67.7794 242.509C68.0719 242.879 68.3097 243.29 68.4855 243.727C68.3624 243.818 67.2481 242.14 64.9549 239.905C63.6104 238.604 62.1537 237.425 60.6016 236.381C58.6856 235.126 56.6528 234.058 54.5315 233.194C52.3963 232.371 50.1852 231.762 47.9303 231.373C46.0828 231.069 44.2118 230.93 42.3396 230.959C39.1783 231.024 37.196 231.484 37.1636 231.335Z" fill="#263238"/>
<path d="M143.73 20.9842L138.294 25.5189L135.651 24.3398L135.107 22.0984C135.107 22.0984 140.937 17.7904 140.724 17.5637C140.179 17.0405 139.474 16.7164 138.722 16.6438C137.321 16.4628 135.906 16.8423 134.783 17.6997L133.76 18.4706C132.821 19.1596 132.093 20.0954 131.655 21.1739C131.216 22.2525 131.086 23.4314 131.279 24.5795C131.288 24.6471 131.301 24.7141 131.317 24.7804L115.206 38.1707C114.12 37.8103 112.946 37.8193 111.865 38.1965C110.785 38.5737 109.86 39.2978 109.234 40.2559C108.609 41.2139 108.318 42.3521 108.407 43.4928C108.496 44.6336 108.96 45.7128 109.727 46.5621C110.493 47.4115 111.52 47.9832 112.645 48.1881C113.771 48.393 114.933 48.2197 115.95 47.695C116.967 47.1704 117.781 46.324 118.267 45.2878C118.752 44.2517 118.881 43.084 118.633 41.9669L134.563 28.596C135.196 29.147 136.011 29.4426 136.85 29.4252C137.651 29.4404 138.447 29.2933 139.189 28.9927C139.932 28.6921 140.606 28.2442 141.171 27.6761L142.518 26.3805C143.187 25.6732 143.652 24.7986 143.866 23.8488C144.079 22.8991 144.032 21.9094 143.73 20.9842ZM112.634 45.2578C112.204 45.0665 111.841 44.752 111.59 44.354C111.339 43.9559 111.212 43.4924 111.224 43.022C111.237 42.5516 111.389 42.0955 111.661 41.7115C111.933 41.3275 112.312 41.0329 112.752 40.8649C113.192 40.6969 113.671 40.6631 114.13 40.7678C114.589 40.8724 115.006 41.1109 115.329 41.453C115.652 41.7951 115.867 42.2253 115.945 42.6893C116.024 43.1533 115.963 43.6301 115.77 44.0594C115.642 44.3468 115.459 44.6061 115.231 44.8222C115.002 45.0383 114.733 45.207 114.439 45.3185C114.145 45.4299 113.832 45.482 113.518 45.4716C113.204 45.4611 112.894 45.3885 112.608 45.2578H112.634Z" fill="#0C9CFF"/>
<path d="M168.094 51.8843L150.746 53.3354L150.804 53.303C147.845 56.8449 144.159 59.7101 139.997 61.7051C135.835 63.7 131.294 64.7781 126.679 64.8665C122.856 64.9192 119.053 64.3167 115.433 63.085C111.519 61.744 107.902 59.6561 104.783 56.9373C101.37 53.9745 98.6152 50.3304 96.6951 46.2392C94.775 42.1479 93.7323 37.7002 93.6341 33.1819C93.5888 32.591 93.5888 31.9976 93.6341 31.4068C93.6341 30.8173 93.6989 30.2213 93.7248 29.6253C93.7616 29.0294 93.8374 28.4364 93.9515 27.8503L94.243 26.0559C94.3661 25.4664 94.5346 24.8833 94.6771 24.3003C94.8196 23.7173 94.9556 23.1148 95.1565 22.5447C95.3573 21.9746 95.5711 21.4046 95.8043 20.8345L96.1152 19.9729C96.2189 19.6878 96.3744 19.4158 96.4974 19.1372C98.4316 14.89 101.247 11.1028 104.757 8.02715C108.043 5.12463 111.89 2.92735 116.06 1.57127C120.23 0.215189 124.633 -0.270846 128.998 0.143236C134.594 0.663209 139.958 2.62734 144.566 5.84332C149.174 9.05929 152.869 13.4169 155.287 18.4894C155.66 19.1992 155.98 19.9353 156.246 20.692C156.511 21.4369 156.79 22.1625 157.036 22.8945C157.455 24.3232 157.781 25.7773 158.014 27.2479C158.111 27.9605 158.247 28.6536 158.306 29.3468C158.364 30.0399 158.37 30.7266 158.403 31.3939C158.403 31.7307 158.403 32.0417 158.455 32.3915C158.506 32.7413 158.422 33.0393 158.409 33.3697C158.409 34.0175 158.351 34.6654 158.319 35.2613V35.203C164.466 45.6458 167.777 51.2624 168.133 51.8778L158.157 35.3067C158.182 34.6934 158.208 34.065 158.234 33.4215C158.234 33.0976 158.267 32.7737 158.273 32.4498C158.28 32.1259 158.241 31.802 158.221 31.4587C158.189 30.8108 158.15 30.1177 158.118 29.4245C158.085 28.7314 157.91 28.0512 157.813 27.3386C157.581 25.8808 157.254 24.4397 156.835 23.0241C156.589 22.2985 156.31 21.5795 156.038 20.841C155.772 20.0919 155.454 19.3624 155.086 18.6578C152.963 14.1749 149.828 10.246 145.929 7.18037C142.029 4.11478 137.471 1.9962 132.614 0.991434C127.757 -0.0133304 122.732 0.12315 117.937 1.39013C113.141 2.65711 108.705 5.01999 104.977 8.29276C101.508 11.345 98.7261 15.0986 96.8149 19.3056C96.6853 19.5842 96.5363 19.8433 96.4327 20.1284L96.1217 20.9835L95.4739 22.6743C95.2731 23.2444 95.1629 23.8339 95.001 24.4104C94.839 24.987 94.69 25.5635 94.5669 26.1466C94.4439 26.7296 94.392 27.3256 94.3013 27.9086C94.1925 28.491 94.119 29.0794 94.0811 29.6707C94.0487 30.2602 94.0163 30.8432 93.9904 31.4328C93.9483 32.0172 93.9483 32.6039 93.9904 33.1883C94.1376 39.7415 96.2839 46.0931 100.142 51.3924C104 56.6917 109.385 60.6855 115.576 62.8389C119.162 64.0612 122.93 64.6636 126.718 64.6204C131.296 64.5403 135.803 63.4814 139.937 61.5148C144.071 59.5483 147.737 56.7195 150.687 53.2188H150.726L168.094 51.8843Z" fill="#263238"/>
<path d="M319.171 78.1992H73.7199C68.5071 78.1992 64.2812 82.4251 64.2812 87.6379V243.561C64.2812 248.774 68.5071 252.999 73.7199 252.999H319.171C324.384 252.999 328.61 248.774 328.61 243.561V87.6379C328.61 82.4251 324.384 78.1992 319.171 78.1992Z" fill="#455A64"/>
<path d="M53.5986 240.068H339.979V243.832C339.979 246.89 338.764 249.823 336.601 251.986C334.439 254.148 331.506 255.363 328.448 255.363H65.1298C63.6155 255.363 62.116 255.065 60.717 254.486C59.318 253.906 58.0468 253.057 56.976 251.986C55.9053 250.915 55.0559 249.644 54.4764 248.245C53.8969 246.846 53.5986 245.346 53.5986 243.832V240.068Z" fill="#455A64"/>
<path d="M321.147 85.1445H71.7505V232.756H321.147V85.1445Z" fill="#F5F5F5"/>
<path d="M170.756 240.07H171.871H175.11L187.191 240.018L227.596 239.934H227.894L227.745 240.193C227.239 241.061 226.689 241.994 226.145 242.939C225.6 243.885 224.992 244.883 224.447 245.842L224.396 245.926H224.298L174.293 245.835H174.248V245.796L171.657 241.54L171.009 240.458L170.795 240.102L171.048 240.478C171.21 240.737 171.443 241.093 171.748 241.56C172.356 242.512 173.257 243.905 174.417 245.719L174.352 245.68L224.357 245.589L224.208 245.673L225.905 242.765C226.456 241.825 227 240.886 227.512 240.018L227.654 240.277L187.418 240.186L175.22 240.109H171.909H171.048L170.756 240.07Z" fill="#263238"/>
<path fill-rule="evenodd" clip-rule="evenodd" d="M163.009 112.605C163.464 111.999 163.997 111.457 164.596 110.992L164.22 108.925L167.414 107.558L168.645 109.262C169.395 109.162 170.155 109.162 170.905 109.262L172.097 107.539L175.337 108.835L175.006 110.908C175.611 111.364 176.153 111.898 176.619 112.495L178.686 112.119L180.053 115.313L178.349 116.544C178.449 117.294 178.449 118.054 178.349 118.805L180.072 120.003L178.776 123.242L176.71 122.912C176.253 123.518 175.72 124.063 175.123 124.531L175.499 126.591L172.305 127.958L171.074 126.254C170.321 126.355 169.559 126.355 168.807 126.254L167.615 127.984L164.376 126.689L164.706 124.615C164.098 124.161 163.553 123.627 163.086 123.028L161.026 123.404L159.672 120.184L161.376 118.954C161.272 118.204 161.272 117.443 161.376 116.693L159.672 115.494L160.968 112.255L163.041 112.586L163.009 112.605ZM166.468 116.194C166.189 116.875 166.119 117.624 166.265 118.346C166.412 119.068 166.769 119.73 167.292 120.248C167.814 120.767 168.479 121.119 169.202 121.26C169.925 121.401 170.673 121.325 171.352 121.041C172.032 120.757 172.612 120.278 173.019 119.664C173.426 119.051 173.642 118.33 173.64 117.594C173.638 116.858 173.418 116.138 173.007 115.527C172.597 114.916 172.014 114.44 171.333 114.16C170.88 113.973 170.395 113.878 169.905 113.879C169.415 113.881 168.931 113.979 168.479 114.168C168.027 114.357 167.617 114.633 167.272 114.981C166.926 115.328 166.653 115.741 166.468 116.194Z" fill="#E0E0E0"/>
<path fill-rule="evenodd" clip-rule="evenodd" d="M150.058 179.589C151.377 177.83 152.921 176.253 154.651 174.898L153.557 168.913L162.814 164.967L166.383 169.897C168.558 169.58 170.765 169.553 172.946 169.819L176.399 164.818L185.74 168.576L184.775 174.574C186.535 175.891 188.112 177.436 189.465 179.167L195.451 178.079L199.396 187.362L194.466 190.925C194.785 193.1 194.809 195.307 194.537 197.488L199.545 200.947L195.788 210.282L189.789 209.317C188.472 211.077 186.928 212.654 185.196 214.007L186.284 219.993L177.027 223.945L173.464 219.015C171.289 219.33 169.082 219.354 166.902 219.086L163.449 224.087L154.107 220.336L155.072 214.331C153.311 213.016 151.734 211.471 150.382 209.738L144.396 210.833L140.445 201.575L145.375 198.006C145.059 195.834 145.035 193.629 145.303 191.45L140.302 188.01L144.053 178.669L150.058 179.634V179.589ZM160.074 189.992C159.277 191.974 159.086 194.148 159.524 196.238C159.963 198.329 161.011 200.242 162.538 201.737C164.064 203.231 165.999 204.24 168.098 204.634C170.197 205.029 172.366 204.792 174.331 203.954C176.296 203.116 177.968 201.714 179.135 199.925C180.303 198.137 180.914 196.042 180.892 193.906C180.869 191.77 180.213 189.689 179.007 187.926C177.802 186.162 176.1 184.796 174.118 184C172.802 183.472 171.394 183.208 169.976 183.224C168.557 183.24 167.156 183.536 165.852 184.093C164.548 184.651 163.366 185.46 162.375 186.475C161.383 187.489 160.601 188.689 160.074 190.005V189.992Z" fill="#F5F5F5"/>
<path d="M108.818 197.825C108.962 197.36 109.181 196.923 109.466 196.529C110.245 195.404 111.39 194.585 112.705 194.21C113.687 193.925 114.726 193.894 115.723 194.121C116.72 194.347 117.644 194.824 118.406 195.505C118.853 195.893 119.238 196.348 119.546 196.853C119.873 197.375 120.116 197.946 120.265 198.544C120.597 199.809 120.513 201.147 120.025 202.36C119.538 203.573 118.672 204.598 117.557 205.281C116.528 205.923 115.33 206.241 114.118 206.194C113.021 206.155 111.955 205.819 111.034 205.223C110.06 204.591 109.289 203.693 108.812 202.635C108.336 201.577 108.174 200.404 108.346 199.256C108.413 198.765 108.559 198.288 108.78 197.844C108.653 198.316 108.552 198.794 108.475 199.276C108.323 200.596 108.615 201.929 109.304 203.065C109.809 203.9 110.514 204.594 111.356 205.085C112.198 205.576 113.15 205.849 114.124 205.877C115.267 205.91 116.394 205.603 117.363 204.996C118.42 204.352 119.242 203.386 119.709 202.239C120.175 201.093 120.261 199.827 119.954 198.628C119.674 197.507 119.068 196.495 118.212 195.719C117.436 195.025 116.491 194.547 115.471 194.333C114.581 194.151 113.66 194.18 112.783 194.417C111.491 194.755 110.351 195.517 109.544 196.581C109.032 197.339 108.857 197.844 108.818 197.825Z" fill="#263238"/>
<path d="M103.312 192.072H103.105L102.457 191.988L99.9692 191.618L100.027 191.58L97.9804 196.762L97.948 196.659L100.727 198.557L100.772 198.595V198.654C100.632 199.851 100.649 201.062 100.824 202.256V202.32L100.766 202.366L98.0452 204.342L98.084 204.199L100.287 209.31L100.138 209.233L103.448 208.624H103.532L103.584 208.695C104.332 209.643 105.203 210.486 106.175 211.202L106.253 211.254V211.344C106.091 212.375 105.91 213.508 105.728 214.668L105.631 214.499L110.814 216.572L110.626 216.631L112.537 213.858L112.589 213.78H112.686C113.879 213.923 115.086 213.908 116.275 213.735H116.372L116.43 213.813L118.406 216.54L118.205 216.488L123.329 214.299L123.226 214.486C123.031 213.437 122.831 212.31 122.623 211.176V211.072L122.701 211.008C123.647 210.27 124.49 209.41 125.208 208.449L125.273 208.365H125.377L128.7 208.902L128.512 209.006C129.212 207.278 129.905 205.551 130.591 203.823L130.65 204.024L127.884 202.081L127.799 202.022V201.925C127.945 200.732 127.932 199.526 127.76 198.336V198.239L127.845 198.181L130.572 196.237L130.514 196.432L128.337 191.308L128.512 191.405L125.195 192.001H125.104L125.046 191.923C124.298 190.974 123.426 190.128 122.455 189.409L122.384 189.358V189.267C122.571 188.127 122.746 187.025 122.921 185.944L123.012 186.099L117.829 184.013L117.985 183.968L116.041 186.727L115.996 186.792H115.925C114.73 186.633 113.518 186.633 112.323 186.792H112.258L112.219 186.74C111.507 185.749 110.859 184.855 110.276 184.007L110.393 184.039L105.255 186.235L105.301 186.151C105.534 187.447 105.728 188.561 105.884 189.468V189.5C105.165 190.059 104.499 190.684 103.895 191.366L103.461 191.884L103.312 192.053C103.347 191.986 103.389 191.924 103.435 191.865C103.526 191.742 103.662 191.56 103.85 191.327C104.431 190.625 105.082 189.985 105.793 189.416V189.468C105.618 188.567 105.417 187.479 105.145 186.157V186.099H105.204L110.315 183.89H110.393L110.438 183.955L112.42 186.676L112.31 186.63C113.522 186.45 114.753 186.433 115.97 186.578L115.86 186.63C116.463 185.749 117.091 184.829 117.765 183.858L117.823 183.773L117.92 183.812L123.103 185.879L123.213 185.918V186.028C123.038 187.11 122.863 188.211 122.682 189.351L122.623 189.209C123.61 189.953 124.494 190.824 125.253 191.8L125.104 191.748L128.415 191.139H128.538L128.59 191.256C129.294 192.923 130.024 194.629 130.779 196.373L130.831 196.497L130.721 196.574L128 198.518L128.065 198.362C128.243 199.579 128.256 200.815 128.104 202.035L128.033 201.88L130.805 203.791L130.915 203.869L130.864 203.992L128.79 209.174L128.739 209.297H128.603L125.279 208.766L125.448 208.695C124.702 209.679 123.831 210.561 122.857 211.319L122.915 211.15C123.122 212.29 123.329 213.417 123.524 214.46V214.597L123.394 214.571L118.27 216.754L118.147 216.806L118.069 216.702L116.126 213.968L116.281 214.039C115.064 214.212 113.829 214.223 112.608 214.072L112.764 214.007L110.82 216.773L110.749 216.877L110.632 216.831L105.45 214.746L105.333 214.7V214.577C105.521 213.424 105.709 212.29 105.871 211.26L105.929 211.403C104.955 210.657 104.083 209.786 103.338 208.812L103.474 208.863L100.164 209.459H100.06L100.015 209.362C99.2501 207.561 98.5267 205.851 97.8443 204.231L97.8055 204.147L97.8832 204.089L100.617 202.146L100.572 202.256C100.399 201.042 100.389 199.812 100.539 198.595L100.585 198.693L97.8249 196.749L97.7666 196.71V196.646C98.6282 194.547 99.3343 192.81 99.872 191.463V191.424H99.9109L102.373 191.845L103.02 191.962L103.312 192.072Z" fill="#263238"/>
<path fill-rule="evenodd" clip-rule="evenodd" d="M90.6279 123.709C91.6823 120.863 93.1161 118.172 94.8905 115.709L91.0878 108.227L101.77 99.3644L108.423 104.482C111.171 103.207 114.078 102.308 117.065 101.807L119.657 93.832L133.474 95.1277L134.563 103.446C137.399 104.497 140.083 105.922 142.544 107.682L150.026 103.886L158.882 114.569L153.771 121.215C155.035 123.961 155.931 126.863 156.433 129.844L164.401 132.435L163.106 146.253L154.788 147.335C153.757 150.182 152.35 152.877 150.603 155.349L154.399 162.831L143.716 171.693L137.063 166.582C134.31 167.847 131.399 168.735 128.408 169.225L125.817 177.199L111.999 175.904L110.911 167.592C108.065 166.555 105.37 165.144 102.898 163.395L95.4217 167.191L86.5596 156.508L91.6514 149.862C90.3815 147.112 89.4818 144.206 88.9759 141.22L81.0078 138.629L82.3034 124.811L90.6149 123.722L90.6279 123.709ZM107.957 133.517C107.681 136.453 108.282 139.404 109.684 141.998C111.086 144.591 113.226 146.711 115.833 148.088C118.44 149.465 121.397 150.037 124.33 149.733C127.262 149.428 130.039 148.261 132.307 146.378C134.576 144.495 136.235 141.981 137.074 139.154C137.914 136.328 137.896 133.316 137.023 130.5C136.15 127.684 134.461 125.19 132.17 123.335C129.879 121.479 127.088 120.344 124.152 120.075C120.223 119.715 116.311 120.927 113.275 123.447C110.239 125.967 108.326 129.589 107.957 133.517Z" fill="#E0E0E0"/>
<path d="M328.61 240.07C328.61 240.16 269.432 240.231 196.455 240.231C123.479 240.231 64.3008 240.16 64.3008 240.07C64.3008 239.979 123.466 239.914 196.455 239.914C269.445 239.914 328.61 239.985 328.61 240.07Z" fill="#263238"/>
<path d="M186.441 41.4668C182.366 43.2548 179.995 47.6534 179.107 52.0132C178.22 56.373 178.505 60.8818 178.123 65.3194C177.74 69.7569 176.522 74.3888 173.283 77.44C170.265 80.2904 165.827 81.45 163.255 84.7085C162.296 85.9217 161.66 87.3587 161.408 88.8847C161.156 90.4107 161.295 91.9757 161.813 93.4332C162.331 94.8906 163.211 96.1926 164.369 97.2171C165.528 98.2417 166.928 98.9552 168.438 99.2909C166.404 102.53 167.421 107.006 170.025 109.785C172.629 112.565 176.445 113.893 180.209 114.463C186.829 115.473 193.89 114.359 199.481 110.673C205.072 106.987 208.985 100.586 208.972 93.8946" fill="#263238"/>
<path d="M168.788 107.272C168.474 106.831 168.231 106.343 168.068 105.827C167.611 104.417 167.522 102.914 167.809 101.461C167.998 100.456 168.312 99.4791 168.742 98.552C169.261 97.5043 169.888 96.5141 170.614 95.598C172.342 93.5749 174.215 91.6804 176.218 89.9296C178.163 88.1335 179.983 86.2072 181.666 84.164C183.044 82.4987 184.216 80.6739 185.158 78.7288C185.785 77.4162 186.258 76.036 186.57 74.6152C186.693 74.1164 186.726 73.7147 186.784 73.4491C186.798 73.3099 186.828 73.1729 186.875 73.041C186.889 73.1788 186.889 73.3178 186.875 73.4556C186.836 73.7277 186.823 74.1358 186.719 74.6411C186.452 76.0868 186.004 77.4929 185.385 78.826C184.467 80.8031 183.304 82.6574 181.925 84.3454C180.248 86.4162 178.425 88.3646 176.471 90.1757C174.474 91.9147 172.603 93.7938 170.873 95.7988C170.15 96.689 169.527 97.6557 169.014 98.6816C168.578 99.5809 168.258 100.532 168.062 101.513C167.758 102.935 167.812 104.411 168.217 105.808C168.379 106.306 168.569 106.795 168.788 107.272Z" fill="#455A64"/>
<path d="M235.169 56.0996C235.169 62.0854 237.929 67.5724 240.41 69.5936C243.928 72.444 249.084 73.8239 252.479 74.7761C257.428 76.156 261.548 80.4899 262.196 85.5947C262.844 90.6995 259.475 96.1476 254.5 97.4303C257.629 100.624 256.696 106.117 254.124 109.739C249.246 116.664 239.509 119.326 231.451 116.761C223.392 114.196 217.199 107.044 214.776 98.9267" fill="#263238"/>
<path d="M247.478 115.065C248.162 114.917 248.81 114.632 249.382 114.229C250.042 113.746 250.587 113.122 250.976 112.402C251.504 111.458 251.798 110.4 251.831 109.319C251.824 108.009 251.478 106.724 250.827 105.587C250.078 104.278 249.091 103.12 247.918 102.173C245.463 100.107 242.127 98.8176 238.9 96.9907C237.311 96.0967 235.869 94.9626 234.625 93.6286C234.034 92.9848 233.531 92.266 233.128 91.4908C232.746 90.7471 232.463 89.9565 232.286 89.1392C231.998 87.6281 231.928 86.0835 232.079 84.5527C232.189 83.121 232.37 81.8059 232.494 80.5945C232.773 78.7019 232.743 76.7764 232.403 74.8937C232.319 74.5698 232.241 74.2848 232.17 74.0256C232.098 73.7665 231.995 73.5786 231.936 73.4102C231.864 73.2434 231.801 73.0725 231.749 72.8984C231.847 73.0517 231.929 73.2144 231.995 73.3843C232.066 73.5527 232.176 73.7471 232.26 73.9932L232.526 74.8678C232.919 76.7601 232.985 78.7059 232.72 80.6204C232.61 81.8318 232.442 83.1534 232.345 84.5721C232.205 86.087 232.284 87.6141 232.578 89.1068C232.934 90.7322 233.722 92.2316 234.858 93.4472C236.082 94.7551 237.5 95.8672 239.062 96.7445C242.256 98.5779 245.612 99.8865 248.132 102.005C249.329 102.979 250.331 104.17 251.086 105.516C251.755 106.701 252.099 108.042 252.083 109.403C252.04 110.519 251.722 111.607 251.157 112.571C250.741 113.301 250.168 113.929 249.479 114.41C249.041 114.704 248.557 114.923 248.048 115.058C247.858 115.079 247.667 115.082 247.478 115.065Z" fill="#455A64"/>
<path d="M259.138 95.0919C259.496 94.6066 259.707 94.0288 259.747 93.427C259.769 92.7243 259.608 92.028 259.281 91.4058C258.866 90.5755 258.232 89.8743 257.447 89.3782C256.46 88.8236 255.376 88.4609 254.254 88.3093C253.049 88.0955 251.734 88.0178 250.367 87.804C247.367 87.3245 244.508 86.1946 241.991 84.4936C239.467 82.7956 237.352 80.5587 235.797 77.9442C234.546 75.8075 233.686 73.4645 233.258 71.0255C232.957 69.3875 232.868 67.7176 232.992 66.0568C233.021 65.6074 233.073 65.1599 233.148 64.7158C233.159 64.5594 233.19 64.405 233.239 64.2559C233.271 64.2559 233.161 64.9037 233.115 66.0697C232.942 70.1795 233.961 74.2518 236.05 77.7952C237.597 80.3586 239.683 82.5539 242.165 84.228C244.648 85.8991 247.46 87.0191 250.412 87.5124C251.773 87.7327 253.094 87.8234 254.299 88.0437C255.443 88.2133 256.543 88.6027 257.538 89.1903C258.353 89.712 259.004 90.453 259.417 91.3281C259.743 91.9796 259.891 92.7062 259.844 93.4335C259.806 93.8931 259.66 94.337 259.417 94.7291C259.333 94.8522 259.248 94.9429 259.197 95.0077L259.138 95.0919Z" fill="#455A64"/>
<path d="M189.349 126.278C190.204 117.332 190.936 107.9 190.936 107.9C190.936 107.9 179.606 104.855 178.699 89.586C177.831 75.0295 183.447 42.1594 183.447 42.1594C200.698 37.0287 219.9 43.455 230.414 57.8948L222.29 130.45C221.351 138.872 213.357 144.767 204.346 143.685C195.25 142.59 188.539 134.804 189.349 126.278Z" fill="#B78876"/>
<path d="M185.17 68.4351C185.119 68.9359 185.263 69.4374 185.574 69.8337C185.884 70.2301 186.337 70.4904 186.835 70.5599C187.079 70.6043 187.328 70.5994 187.57 70.5454C187.811 70.4914 188.039 70.3895 188.24 70.2457C188.442 70.1019 188.612 69.9191 188.741 69.7083C188.87 69.4974 188.956 69.2627 188.993 69.0181C189.044 68.5173 188.9 68.0158 188.589 67.6195C188.279 67.2231 187.826 66.9628 187.328 66.8933C187.084 66.8489 186.835 66.8538 186.593 66.9078C186.352 66.9618 186.124 67.0637 185.923 67.2075C185.721 67.3513 185.551 67.5341 185.422 67.7449C185.293 67.9558 185.207 68.1905 185.17 68.4351Z" fill="#263238"/>
<path d="M182.255 65.9657C182.469 66.2442 184.037 65.3179 186.11 65.5122C188.183 65.7066 189.602 66.9115 189.854 66.6783C189.977 66.5746 189.777 66.1017 189.161 65.5511C188.324 64.8401 187.288 64.4056 186.194 64.3073C185.12 64.1952 184.037 64.4217 183.098 64.9551C182.411 65.4086 182.152 65.8426 182.255 65.9657Z" fill="#263238"/>
<path d="M206.367 70.8902C206.315 71.3921 206.461 71.8943 206.773 72.2909C207.085 72.6874 207.539 72.9471 208.039 73.0151C208.282 73.0595 208.532 73.0545 208.773 73.0005C209.014 72.9466 209.242 72.8447 209.444 72.7008C209.645 72.557 209.815 72.3743 209.944 72.1634C210.073 71.9525 210.159 71.7178 210.196 71.4733C210.248 70.9724 210.103 70.471 209.792 70.0746C209.482 69.6783 209.03 69.4179 208.531 69.3484C208.287 69.304 208.037 69.3089 207.795 69.3628C207.554 69.4167 207.325 69.5185 207.123 69.6622C206.922 69.806 206.751 69.9887 206.621 70.1996C206.491 70.4106 206.405 70.6454 206.367 70.8902Z" fill="#263238"/>
<path d="M203.828 68.8504C204.041 69.129 205.609 68.2026 207.682 68.4034C209.755 68.6043 211.174 69.7963 211.427 69.563C211.543 69.4659 211.349 68.9865 210.733 68.4358C209.896 67.726 208.86 67.2916 207.766 67.192C206.692 67.08 205.609 67.3064 204.67 67.8399C203.983 68.2933 203.724 68.7274 203.828 68.8504Z" fill="#263238"/>
<path d="M194.784 83.4957C194.784 83.3791 193.54 83.0293 191.474 82.5564C190.949 82.4463 190.463 82.2908 190.405 81.9086C190.417 81.357 190.595 80.8219 190.916 80.3733L192.86 76.4864C195.6 70.9605 197.641 66.3934 197.395 66.2833C197.148 66.1731 194.771 70.5718 192.031 76.0977C191.383 77.4646 190.735 78.7602 190.126 79.9846C189.733 80.5904 189.563 81.3143 189.647 82.0317C189.702 82.2279 189.803 82.4081 189.942 82.5579C190.08 82.7076 190.252 82.8225 190.444 82.8933C190.729 83.0023 191.027 83.0741 191.331 83.1071C193.462 83.4763 194.764 83.6123 194.784 83.4957Z" fill="#263238"/>
<path d="M190.936 107.9C198.003 108.707 205.156 107.534 211.595 104.512C211.595 104.512 205.667 114.359 190.768 111.469L190.936 107.9Z" fill="#AA6550"/>
<path d="M195.173 88.5827C195.616 88.1245 196.168 87.7866 196.778 87.6008C197.388 87.4149 198.035 87.3872 198.658 87.5203C199.111 87.6086 199.543 87.7864 199.926 88.0433C200.31 88.3003 200.639 88.6312 200.893 89.0168C201.136 89.3909 201.259 89.8309 201.244 90.2771C201.229 90.7232 201.077 91.1539 200.809 91.5108C200.439 91.851 199.976 92.0723 199.48 92.1463C198.983 92.2202 198.476 92.1432 198.023 91.9254C197.078 91.4841 196.23 90.8587 195.529 90.0856C195.314 89.9039 195.134 89.6844 194.998 89.4378C194.933 89.3162 194.905 89.1779 194.919 89.0405C194.933 88.9032 194.987 88.7731 195.076 88.6669" fill="#AA6550"/>
<path d="M200.75 85.5321C200.413 85.4803 200.187 87.7282 198.101 89.1405C196.015 90.5527 193.644 90.0668 193.598 90.3778C193.553 90.5138 194.091 90.8701 195.101 91.0256C196.417 91.1748 197.744 90.8535 198.846 90.1187C199.907 89.4157 200.651 88.3251 200.919 87.0804C201.132 86.1152 200.906 85.5321 200.75 85.5321Z" fill="#263238"/>
<path d="M223.262 73.9341C224.906 73.7478 226.569 74.0191 228.069 74.7179C228.817 75.0691 229.488 75.5647 230.044 76.1761C230.6 76.7876 231.029 77.5029 231.308 78.2809C231.782 79.8792 231.629 81.5981 230.88 83.0877C230.128 84.5637 229.057 85.8538 227.745 86.8645C226.853 87.6509 225.787 88.2147 224.635 88.5099C224.058 88.6537 223.455 88.6514 222.879 88.5032C222.303 88.3551 221.774 88.0657 221.338 87.6613" fill="#B78876"/>
<path d="M223.191 83.7676C223.003 83.8065 223.606 84.8495 225.134 84.5968C225.941 84.3998 226.638 83.8953 227.078 83.1911C227.6 82.4054 227.963 81.5251 228.147 80.5998C228.356 79.6173 228.214 78.5925 227.745 77.7041C227.544 77.3275 227.261 77.0009 226.917 76.7485C226.573 76.4962 226.176 76.3246 225.756 76.2465C224.247 76.0651 223.67 77.0692 223.813 77.1146C223.955 77.1599 224.564 76.7648 225.53 77.1146C226.495 77.4644 227.266 78.7795 226.903 80.3537C226.54 81.9279 225.776 83.4373 224.856 83.7288C223.936 84.0203 223.308 83.6446 223.191 83.7676Z" fill="#AA6550"/>
<path d="M190.716 48.5857C189.583 51.1591 187.876 53.4388 185.726 55.2501C183.575 57.0614 181.038 58.3561 178.31 59.035C177.993 55.323 177.772 51.5656 178.381 47.8861C178.99 44.2065 180.48 40.5852 183.162 38.0004C185.844 35.4156 189.815 34.0228 193.417 34.9816" fill="#263238"/>
<path d="M191.752 41.7709C190.813 44.135 190.5 46.7013 190.843 49.2218C191.186 51.7424 192.174 54.1317 193.71 56.1589C195.247 58.186 197.281 59.7824 199.615 60.7935C201.949 61.8047 204.504 62.1965 207.034 61.9309C208.019 61.8273 209.055 61.6329 209.975 61.9892C210.895 62.3455 211.614 63.2849 212.204 64.1789C214.601 67.7613 217.134 71.4862 220.911 73.5592C224.687 75.6322 230.09 75.4249 232.617 71.9332C233.841 70.2359 234.204 68.0787 234.489 66.0057C235.448 59.0287 235.843 51.5335 232.513 45.3274C230.045 40.7085 225.704 37.2815 220.904 35.202C216.104 33.1226 210.843 32.2933 205.616 31.963C202.584 31.7751 199.442 31.7686 196.624 32.9217C193.806 34.0748 191.377 36.6272 191.215 39.6655" fill="#263238"/>
<path d="M233.822 67.9762C233.749 67.8101 233.688 67.6391 233.64 67.4644C233.537 67.1275 233.362 66.6287 233.135 66.0003C232.462 64.2165 231.604 62.5077 230.576 60.902C229.047 58.53 227.151 56.4155 224.959 54.6376C222.216 52.5302 219.186 50.8244 215.961 49.5717C212.567 48.1465 209.243 46.9805 206.335 45.6136C203.736 44.4478 201.296 42.9567 199.073 41.176C197.582 39.9652 196.284 38.5344 195.225 36.9328C194.939 36.4962 194.682 36.0418 194.454 35.5724C194.361 35.4167 194.285 35.2517 194.227 35.0801C194.331 35.2298 194.426 35.3855 194.512 35.5465C194.762 35.992 195.034 36.4244 195.328 36.8421C196.416 38.4033 197.726 39.7977 199.215 40.9817C201.436 42.7252 203.867 44.1834 206.451 45.3221C209.347 46.663 212.67 47.8291 216.078 49.2543C219.331 50.522 222.385 52.2498 225.147 54.385C227.355 56.1934 229.254 58.3485 230.77 60.766C231.786 62.3966 232.618 64.1347 233.251 65.9485C233.465 66.5963 233.621 67.0951 233.698 67.445C233.754 67.6183 233.796 67.796 233.822 67.9762Z" fill="#455A64"/>
<path d="M229.151 67.1527C229.052 67.0191 228.968 66.8758 228.898 66.7252C228.73 66.4466 228.484 66.032 228.121 65.5332C227.084 64.1389 225.826 62.9243 224.396 61.9378C222.249 60.5016 219.956 59.2964 217.555 58.3424C216.214 57.7659 214.795 57.1699 213.357 56.4832C211.919 55.7965 210.448 55.0321 208.997 54.164C206.248 52.5457 203.715 50.5868 201.457 48.3337C199.615 46.4917 198.029 44.4109 196.741 42.147C195.878 40.6196 195.183 39.0036 194.668 37.3273C194.499 36.7313 194.376 36.2648 194.318 35.9474C194.272 35.7866 194.241 35.6217 194.227 35.4551C194.292 35.6073 194.342 35.7658 194.376 35.928C194.46 36.2454 194.603 36.6989 194.791 37.2884C195.346 38.9375 196.067 40.5262 196.941 42.0304C198.243 44.26 199.83 46.3094 201.664 48.1264C203.918 50.3547 206.438 52.2976 209.166 53.9114C210.604 54.7729 212.061 55.5374 213.493 56.2305C214.925 56.9237 216.331 57.5262 217.672 58.0963C220.085 59.0662 222.383 60.3002 224.525 61.7758C225.963 62.7906 227.215 64.0464 228.224 65.4878C228.494 65.8811 228.736 66.2924 228.95 66.7187C229.028 66.8582 229.095 67.0033 229.151 67.1527Z" fill="#455A64"/>
<path d="M178.362 65.0006C178.305 64.8881 178.257 64.7711 178.22 64.6508C178.135 64.424 178.006 64.0807 177.863 63.6337C177.502 62.3665 177.284 61.0627 177.215 59.7468C177.018 55.3258 178.395 50.9781 181.102 47.4772C181.864 46.4857 182.733 45.5818 183.694 44.7823C184.633 44.0178 185.598 43.37 186.518 42.7611C188.187 41.7575 189.754 40.5923 191.195 39.2823C192.152 38.3872 192.93 37.3189 193.489 36.1339C193.864 35.2853 193.948 34.767 193.981 34.7735C193.979 34.9009 193.96 35.0274 193.923 35.1492C193.843 35.5 193.736 35.8443 193.605 36.1793C193.076 37.3961 192.312 38.4968 191.357 39.4183C189.926 40.7629 188.361 41.9568 186.686 42.9813C185.723 43.6079 184.791 44.2825 183.894 45.0025C182.951 45.7891 182.095 46.6752 181.342 47.6456C179.882 49.5258 178.8 51.6706 178.155 53.9618C177.617 55.8303 177.375 57.7712 177.436 59.7144C177.486 61.025 177.669 62.3272 177.98 63.6013C178.096 64.0332 178.194 64.3765 178.271 64.6313C178.317 64.7502 178.347 64.8742 178.362 65.0006Z" fill="#455A64"/>
<path d="M215.488 94.9759C211.956 95.0139 208.532 93.7581 205.862 91.4453L206.276 90.9853C208.561 93.0441 211.475 94.2705 214.544 94.4656C217.613 94.6607 220.658 93.813 223.185 92.0601C225.712 90.3071 227.573 87.7518 228.465 84.8086C229.358 81.8654 229.229 78.707 228.101 75.8459L228.678 75.6191C229.767 78.6194 229.854 81.8918 228.927 84.9459C228 88 226.108 90.6713 223.534 92.5595C221.159 94.1606 218.353 95.0032 215.488 94.9759Z" fill="#0C9CFF"/>
<path d="M207.494 95.3264C209.144 95.3264 210.481 93.9893 210.481 92.3399C210.481 90.6906 209.144 89.3535 207.494 89.3535C205.845 89.3535 204.508 90.6906 204.508 92.3399C204.508 93.9893 205.845 95.3264 207.494 95.3264Z" fill="#0C9CFF"/>
<path d="M240.28 78.7593C241.16 73.3093 237.455 68.178 232.005 67.2983C226.555 66.4185 221.423 70.1234 220.544 75.5733C219.664 81.0233 223.369 86.1546 228.819 87.0344C234.269 87.9142 239.4 84.2093 240.28 78.7593Z" fill="#0C9CFF"/>
<path d="M228.801 75.7751C228.73 74.9313 228.748 74.0824 228.853 73.2422L228.969 70.2817C228.969 69.1285 229.021 67.8135 228.969 66.3624C228.969 65.6368 228.917 64.8789 228.879 64.095C228.84 63.3112 228.755 62.4884 228.678 61.6398C228.6 60.7911 228.451 59.9296 228.341 59.0485C228.257 58.608 228.172 58.1545 228.088 57.7011C228.004 57.2476 227.913 56.7812 227.79 56.3212C226.928 52.2924 225.135 48.521 222.556 45.3084C219.879 42.1752 216.451 39.7724 212.592 38.3249C209.429 37.1294 206.138 36.3033 202.785 35.8632C199.908 35.4615 197.557 35.3385 195.937 35.2154C195.09 35.2325 194.244 35.163 193.411 35.0081C194.247 34.8699 195.096 34.8156 195.944 34.8461C198.256 34.8259 200.568 34.9362 202.869 35.1765C206.301 35.5294 209.676 36.3084 212.916 37.4957C216.937 38.9532 220.508 41.4313 223.281 44.6864C225.956 48.0171 227.793 51.9401 228.639 56.1269C228.755 56.5998 228.846 57.0727 228.924 57.5456C229.002 58.0185 229.079 58.472 229.157 58.9254C229.261 59.8453 229.403 60.7264 229.455 61.588C229.507 62.4496 229.591 63.2852 229.598 64.0821C229.604 64.8789 229.649 65.6498 229.598 66.3818C229.598 67.8523 229.513 69.1739 229.449 70.3335C229.384 71.4931 229.267 72.4842 229.17 73.3005C229.127 74.1353 229.003 74.964 228.801 75.7751Z" fill="#0C9CFF"/>
<g opacity="0.4">
<path opacity="0.4" d="M233.339 83.5313C236.845 82.0675 238.501 78.0384 237.037 74.5321C235.573 71.0257 231.544 69.37 228.038 70.8338C224.531 72.2977 222.876 76.3268 224.339 79.8331C225.803 83.3394 229.832 84.9952 233.339 83.5313Z" fill="black"/>
</g>
<path d="M228.425 70.7549C228.523 70.6913 228.627 70.6391 228.736 70.5994C229.043 70.4706 229.362 70.3751 229.689 70.3144C230.913 70.105 232.172 70.3198 233.258 70.9233C234.015 71.337 234.648 71.9453 235.091 72.6854C235.592 73.5389 235.845 74.5144 235.823 75.5034C235.807 76.3653 235.576 77.2095 235.152 77.9597C234.727 78.7098 234.122 79.3422 233.391 79.7996C232.661 80.2569 231.827 80.5247 230.967 80.5788C230.107 80.6329 229.246 80.4716 228.464 80.1094C227.474 79.6252 226.669 78.8315 226.171 77.8485C225.708 76.9711 225.504 75.9805 225.581 74.9916C225.67 74.1367 225.961 73.3151 226.43 72.5947C227.069 71.5254 228.086 70.7347 229.281 70.3792C229.603 70.2898 229.937 70.2505 230.272 70.2626C230.388 70.2662 230.503 70.2836 230.615 70.3144C230.177 70.3154 229.741 70.3765 229.319 70.4958C228.185 70.8883 227.23 71.6774 226.631 72.7178C226.15 73.4548 225.877 74.3087 225.843 75.1882C225.809 76.0678 226.014 76.9402 226.437 77.7124C226.912 78.6305 227.671 79.371 228.6 79.8243C229.616 80.2723 230.751 80.373 231.83 80.1106C232.908 79.8483 233.87 79.2376 234.567 78.3732C235.182 77.5391 235.522 76.5335 235.538 75.4969C235.573 74.5624 235.349 73.6365 234.891 72.8214C234.48 72.1123 233.888 71.5262 233.174 71.1242C232.137 70.5209 230.929 70.2794 229.74 70.4375C229.296 70.5154 228.857 70.6214 228.425 70.7549Z" fill="#263238"/>
<path d="M230.628 83.9447C230.393 83.4363 230.286 82.878 230.317 82.3187C230.243 81.7662 230.303 81.2041 230.492 80.6797C230.616 81.2122 230.664 81.7597 230.634 82.3057C230.711 82.8495 230.709 83.4015 230.628 83.9447Z" fill="#263238"/>
<path d="M234.424 82.6092C233.853 81.7293 233.47 80.7415 233.297 79.707C233.868 80.587 234.251 81.5748 234.424 82.6092Z" fill="#263238"/>
<path d="M236.983 79.6174C236.925 79.6822 236.452 79.3518 235.927 78.8789C235.402 78.406 235.033 77.9655 235.092 77.9007C235.15 77.8359 235.623 78.1663 236.147 78.6392C236.672 79.1121 237.041 79.5526 236.983 79.6174Z" fill="#263238"/>
<path d="M237.164 75.4388C237.132 75.523 236.795 75.4777 236.4 75.3351C236.005 75.1926 235.713 75.0112 235.752 74.927C235.791 74.8428 236.121 74.8881 236.516 75.0307C236.912 75.1732 237.197 75.3546 237.164 75.4388Z" fill="#263238"/>
<path d="M226.139 82.4158C226.317 81.3086 226.841 80.2861 227.635 79.4941C227.469 80.0184 227.236 80.5191 226.942 80.9841C226.735 81.4928 226.465 81.9738 226.139 82.4158Z" fill="#263238"/>
<path d="M224.085 78.8972C224.02 78.8324 224.415 78.3465 224.959 77.8153C225.503 77.2841 225.996 76.8954 226.06 76.9602C226.125 77.025 225.73 77.5108 225.186 78.042C224.642 78.5732 224.149 78.9619 224.085 78.8972Z" fill="#263238"/>
<path d="M225.691 74.1302C225.691 74.2144 225.432 74.3634 225.044 74.4606C224.655 74.5578 224.357 74.5707 224.337 74.4606C224.318 74.3505 224.59 74.2209 224.985 74.1237C225.38 74.0265 225.665 74.046 225.691 74.1302Z" fill="#263238"/>
<path d="M277.977 128.817C277.329 125.157 275.897 123.168 274.828 122.125C273.881 121.099 272.818 120.186 271.66 119.405C270.209 118.517 268.233 117.422 266.97 117.144C265.409 116.807 265.027 114.779 266.322 114.196C267.618 113.613 271.958 114.449 276.124 117.506C280.289 120.564 278.177 112.816 277.465 109.979C276.752 107.141 274.984 98.2663 275.632 97.3723C276.662 96.0766 278.288 96.9577 278.942 99.8081C279.596 102.658 282.142 111.08 283.626 110.665C285.109 110.251 281.248 95.8564 281.248 95.8564C281.248 95.8564 279.952 92.9023 281.63 92.3711C284.701 91.4059 287.655 106.992 287.901 108.482C288.07 109.512 289.702 109.13 289.462 108.022C289.223 106.915 285.29 93.738 288.406 92.7274C290.797 91.9565 290.959 105.528 293.291 107.847C295.623 110.167 292.112 97.5407 294.431 96.8929C295.293 96.6532 295.973 96.5949 296.938 104.11C297.463 108.145 297.126 113.71 298.7 121.413" fill="#B78876"/>
<path d="M270.209 157.789L284.371 178.111L277.575 125.702L297.819 117.715C297.819 117.715 323.369 215.665 289.106 217.038C289.106 217.038 265.39 216.39 247.691 175.345L270.209 157.789Z" fill="#B78876"/>
<path d="M292.922 117.332C292.961 117.384 292.481 117.701 291.853 118.401C291.032 119.321 290.461 120.436 290.195 121.64L290.117 122.022L289.838 121.737C289.512 121.406 289.162 121.101 288.789 120.824C287.525 119.901 286.042 119.325 284.487 119.152C283.289 119.023 282.544 119.152 282.544 119.081C283.177 118.85 283.856 118.77 284.526 118.848C286.67 118.947 288.692 119.876 290.162 121.439L289.799 121.536C290.085 120.255 290.738 119.084 291.678 118.168C292.02 117.794 292.447 117.508 292.922 117.332Z" fill="#AA6550"/>
<path d="M260.039 200.155L242.904 178.421L238.447 200.654C236.644 209.658 237.574 218.995 241.116 227.467L243.325 232.76H163.98L165.963 225.692C167.083 217.038 165.587 208.007 165.846 195.608L163.644 181.634L151.64 232.76H116.353C116.353 232.76 135.703 153.409 147.856 137.706C163.151 117.915 189.88 120.526 189.88 120.526L206.25 146.192L222.245 123.046C222.245 123.046 249.725 117.216 271.181 154.141L282.66 173.815L277.329 133.307L302.192 127.581C302.192 127.581 311.164 167.376 310.575 188.689C310.05 207.722 301.946 217.705 290.719 218.689C273.04 220.231 260.039 200.155 260.039 200.155Z" fill="#0C9CFF"/>
<path d="M189.88 120.524L190.159 117.324C190.159 117.324 202.286 120.019 206.354 141.196C206.354 141.196 210.435 121.652 223.495 119.689L225.698 125.318L217.678 146.197L203.594 150.317L189.887 146.197L183.642 133.818L189.88 120.524Z" fill="#0C9CFF"/>
<path d="M156.077 128.947C156.113 129.127 156.135 129.309 156.142 129.491C156.142 129.88 156.206 130.405 156.258 131.072C156.343 132.439 156.485 134.415 156.679 136.864C157.075 141.748 157.742 148.492 158.798 155.896C159.854 163.301 161.11 169.967 162.102 174.767C162.6 177.171 163.015 179.108 163.319 180.449C163.456 181.096 163.566 181.615 163.65 181.99C163.696 182.169 163.726 182.351 163.741 182.535C163.676 182.364 163.624 182.188 163.585 182.01C163.486 181.634 163.356 181.122 163.196 180.475C162.86 179.147 162.406 177.235 161.901 174.819C160.851 170.025 159.569 163.359 158.5 155.942C157.431 148.524 156.809 141.774 156.479 136.877C156.31 134.428 156.2 132.445 156.148 131.079C156.148 130.431 156.109 129.887 156.096 129.498C156.083 129.109 156.07 128.947 156.077 128.947Z" fill="#263238"/>
<path d="M225.4 122.293C225.352 122.4 225.293 122.502 225.225 122.597L224.68 123.44L222.659 126.523C220.962 129.114 218.675 132.775 216.291 136.888C216.201 137.05 216.103 137.206 216.019 137.361L215.864 137.627L215.734 137.348C215.32 136.319 214.731 135.37 213.992 134.543C213.653 134.173 213.232 133.888 212.762 133.713C212.293 133.537 211.788 133.475 211.29 133.533C210.392 133.728 209.597 134.249 209.062 134.997C208.568 135.636 208.191 136.358 207.947 137.128C207.494 138.553 207.228 139.752 206.885 140.529C206.765 140.83 206.624 141.122 206.464 141.404C206.347 141.594 206.282 141.684 206.27 141.676C206.27 141.676 206.49 141.268 206.775 140.484C207.06 139.7 207.3 138.54 207.74 137.063C207.972 136.258 208.35 135.503 208.854 134.835C209.42 134.02 210.275 133.452 211.245 133.248C211.788 133.177 212.341 133.238 212.856 133.425C213.371 133.612 213.834 133.92 214.205 134.323C214.98 135.169 215.597 136.148 216.026 137.212H215.741L216.013 136.739C218.397 132.619 220.722 128.965 222.491 126.413C223.365 125.117 224.091 124.087 224.596 123.381C224.842 123.057 225.037 122.785 225.192 122.572C225.251 122.472 225.321 122.378 225.4 122.293Z" fill="#263238"/>
<path d="M213.849 134.286C213.849 134.286 213.817 134.383 213.72 134.558L213.292 135.31L211.666 138.043L209.217 142.066L207.76 144.444C207.501 144.852 207.242 145.273 206.976 145.701C206.895 145.823 206.792 145.928 206.671 146.012C206.599 146.058 206.518 146.088 206.433 146.1C206.347 146.111 206.261 146.103 206.179 146.076C205.898 145.966 205.668 145.756 205.531 145.487C203.257 142.066 201.56 138.756 200.232 136.417C199.584 135.245 199.034 134.306 198.658 133.658C198.445 133.332 198.255 132.992 198.088 132.641C198.088 132.641 198.166 132.718 198.276 132.88C198.386 133.042 198.561 133.275 198.762 133.593C199.176 134.241 199.746 135.148 200.427 136.307C201.806 138.607 203.536 141.898 205.803 145.299C205.939 145.519 206.069 145.707 206.244 145.759C206.419 145.811 206.555 145.694 206.691 145.506L207.468 144.262L208.939 141.898L211.446 137.907L213.156 135.232C213.35 134.947 213.506 134.707 213.642 134.513C213.701 134.429 213.771 134.353 213.849 134.286Z" fill="#263238"/>
<path d="M257.784 136.184C257.731 136.328 257.669 136.469 257.597 136.605C257.454 136.903 257.26 137.298 257.014 137.79C256.495 138.814 255.77 140.304 254.902 142.156C254.034 144.009 253.049 146.244 252.012 148.745C250.976 151.245 249.92 154.031 248.896 156.985C247.873 159.939 247.018 162.815 246.305 165.407C245.593 167.998 245.01 170.382 244.537 172.377C244.064 174.372 243.733 175.998 243.513 177.119C243.403 177.657 243.312 178.084 243.247 178.415C243.223 178.567 243.184 178.717 243.131 178.862C243.132 178.707 243.149 178.553 243.183 178.402C243.235 178.071 243.306 177.637 243.39 177.106C243.571 175.972 243.889 174.34 244.316 172.332C244.744 170.323 245.314 167.952 246.02 165.329C246.726 162.705 247.607 159.861 248.611 156.907C249.616 153.953 250.717 151.168 251.753 148.661C252.79 146.153 253.82 143.931 254.72 142.085C255.621 140.239 256.372 138.762 256.923 137.758L257.571 136.605C257.627 136.457 257.698 136.316 257.784 136.184Z" fill="#263238"/>
<path d="M221.487 216.668C221.323 216.676 221.159 216.676 220.995 216.668L219.576 216.558C218.928 216.506 218.209 216.441 217.341 216.331C216.473 216.221 215.475 216.124 214.387 215.955C212.197 215.657 209.606 215.204 206.749 214.614C203.892 214.025 200.776 213.234 197.544 212.282C194.311 211.33 191.286 210.248 188.559 209.205C185.831 208.162 183.428 207.099 181.433 206.154C180.422 205.7 179.534 205.24 178.751 204.858C177.967 204.476 177.293 204.12 176.755 203.822L175.505 203.141C175.359 203.068 175.218 202.983 175.084 202.889C175.241 202.938 175.393 203.004 175.537 203.083L176.833 203.731C177.384 204.009 178.057 204.379 178.848 204.716C179.638 205.052 180.532 205.532 181.543 205.966C183.551 206.886 185.967 207.909 188.669 208.946C191.37 209.982 194.415 211.025 197.634 211.99C200.854 212.956 203.97 213.714 206.808 214.342C209.645 214.97 212.236 215.424 214.419 215.748C215.501 215.936 216.492 216.052 217.36 216.169C218.229 216.286 218.974 216.383 219.589 216.447L221.001 216.622C221.164 216.623 221.327 216.638 221.487 216.668Z" fill="#263238"/>
<path d="M217.976 218.054C217.869 218.095 217.758 218.124 217.645 218.138L216.7 218.32C215.877 218.469 214.678 218.656 213.195 218.864C205.467 219.905 197.655 220.176 189.873 219.674C188.377 219.57 187.172 219.466 186.343 219.369L185.384 219.259C185.273 219.248 185.162 219.228 185.054 219.201C185.165 219.185 185.279 219.185 185.391 219.201L186.349 219.252C187.185 219.311 188.39 219.382 189.886 219.453C192.866 219.596 197.012 219.693 201.547 219.538C206.082 219.382 210.215 218.993 213.208 218.644C214.691 218.469 215.89 218.313 216.719 218.203L217.678 218.08C217.775 218.058 217.876 218.049 217.976 218.054Z" fill="#263238"/>
<path d="M246.059 182.426C246.073 182.267 246.104 182.111 246.15 181.959L246.48 180.664L247.711 175.811C248.754 171.717 250.134 166.049 251.838 159.83C252.693 156.72 253.567 153.773 254.429 151.11C255.29 148.448 256.12 146.077 256.884 144.107C257.247 143.11 257.623 142.229 257.934 141.451C258.244 140.674 258.536 140.013 258.782 139.475L259.346 138.238C259.407 138.09 259.481 137.946 259.566 137.811C259.524 137.966 259.47 138.117 259.404 138.264C259.281 138.575 259.113 138.996 258.899 139.521C258.685 140.046 258.4 140.739 258.102 141.523C257.804 142.306 257.454 143.187 257.098 144.185C256.359 146.161 255.556 148.545 254.714 151.201C253.872 153.857 253.01 156.811 252.155 159.914C250.458 166.127 249.046 171.788 247.944 175.87C247.4 177.91 246.947 179.562 246.616 180.696L246.228 181.992C246.187 182.142 246.131 182.288 246.059 182.426Z" fill="#263238"/>
<path d="M163.229 181.362C163.108 181.24 162.996 181.11 162.892 180.973C162.685 180.701 162.355 180.325 161.992 179.8C160.924 178.329 159.978 176.773 159.161 175.149C157.947 172.738 156.951 170.223 156.187 167.634C155.261 164.466 154.573 161.233 154.127 157.963C153.182 151.005 153.026 144.643 152.741 140.07C152.611 137.777 152.488 135.924 152.398 134.641C152.352 134.026 152.313 133.533 152.288 133.171C152.275 132.998 152.275 132.825 152.288 132.652C152.33 132.82 152.358 132.991 152.372 133.164C152.411 133.495 152.475 133.993 152.54 134.635C152.676 135.93 152.832 137.764 152.987 140.05C153.331 144.63 153.518 150.986 154.464 157.917C154.905 161.173 155.583 164.393 156.492 167.55C157.229 170.129 158.189 172.639 159.362 175.052C160.158 176.676 161.07 178.241 162.089 179.736C162.439 180.273 162.737 180.656 162.944 180.941C163.052 181.072 163.148 181.213 163.229 181.362Z" fill="#263238"/>
<path d="M160.217 167.098C160.217 167.195 159.297 167.396 158.273 167.992C157.25 168.588 156.634 169.287 156.563 169.222C156.951 168.602 157.484 168.084 158.116 167.714C158.747 167.344 159.459 167.133 160.191 167.098H160.217Z" fill="#263238"/>
<path d="M159.614 158.78C158.786 159.008 157.976 159.298 157.191 159.648C156.46 160.097 155.763 160.6 155.105 161.151C155.586 160.392 156.258 159.773 157.054 159.356C157.851 158.94 158.743 158.741 159.64 158.78H159.614Z" fill="#263238"/>
<path d="M157.794 151.175C157.133 151.352 156.484 151.568 155.85 151.823C155.269 152.168 154.709 152.546 154.172 152.956C154.533 152.342 155.065 151.845 155.704 151.529C156.343 151.212 157.06 151.089 157.768 151.175H157.794Z" fill="#263238"/>
<path d="M156.906 143.309C156.906 143.399 156.097 143.561 155.164 143.957C154.231 144.352 153.544 144.838 153.486 144.766C153.879 144.25 154.419 143.864 155.034 143.659C155.61 143.36 156.261 143.238 156.906 143.309Z" fill="#263238"/>
<path d="M156.394 136.973C156.394 137.064 155.578 137.219 154.645 137.66C153.712 138.1 153.065 138.638 153.006 138.567C153.366 138.017 153.893 137.597 154.509 137.368C155.08 137.041 155.74 136.902 156.394 136.973Z" fill="#263238"/>
<path d="M247.723 172.72C247.646 172.779 247.225 172.209 246.428 171.904C245.943 171.761 245.446 171.659 244.944 171.6C245.191 171.471 245.466 171.404 245.744 171.404C246.023 171.404 246.297 171.471 246.544 171.6C247.451 171.962 247.808 172.694 247.723 172.72Z" fill="#263238"/>
<path d="M250.134 166.236C249.801 165.601 249.31 165.064 248.708 164.674C248.107 164.285 247.415 164.058 246.7 164.014C246.7 163.975 246.94 163.891 247.348 163.904C247.892 163.935 248.419 164.106 248.877 164.402C249.336 164.697 249.71 165.109 249.959 165.594C250.147 165.983 250.173 166.223 250.134 166.236Z" fill="#263238"/>
<path d="M251.941 159.103C251.49 158.601 250.929 158.211 250.302 157.962C249.675 157.714 248.998 157.614 248.326 157.671C248.326 157.639 248.533 157.522 248.922 157.47C249.432 157.407 249.949 157.474 250.425 157.665C250.901 157.854 251.322 158.159 251.649 158.552C251.896 158.857 251.973 159.09 251.941 159.103Z" fill="#263238"/>
<path d="M254.072 152.256C253.988 152.301 253.651 151.66 252.9 151.278C252.428 151.086 251.937 150.947 251.436 150.863C251.436 150.824 251.604 150.746 251.908 150.727C252.306 150.72 252.698 150.814 253.049 151C253.401 151.185 253.699 151.457 253.917 151.789C254.072 152.048 254.105 152.236 254.072 152.256Z" fill="#263238"/>
<path d="M256.56 145.965C256.205 145.513 255.765 145.134 255.264 144.851C254.719 144.649 254.141 144.552 253.561 144.566C253.561 144.533 253.729 144.41 254.072 144.352C254.524 144.297 254.982 144.369 255.395 144.56C255.809 144.751 256.16 145.054 256.411 145.434C256.566 145.732 256.592 145.952 256.56 145.965Z" fill="#263238"/>
<path d="M215.838 136.973C215.803 137.078 215.755 137.178 215.696 137.271L215.242 138.1C214.84 138.813 214.244 139.843 213.493 141.106C212.742 142.369 211.835 143.859 210.798 145.498C210.273 146.314 209.723 147.17 209.127 148.044C208.53 148.96 207.882 149.84 207.183 150.681C206.999 150.912 206.781 151.113 206.535 151.277C206.45 151.327 206.349 151.348 206.25 151.335C206.165 151.321 206.082 151.295 206.004 151.257C205.874 151.184 205.751 151.099 205.635 151.005C205.223 150.644 204.843 150.247 204.501 149.819C203.853 149.003 203.206 148.174 202.668 147.383C201.554 145.79 200.608 144.319 199.824 143.075C199.04 141.832 198.431 140.821 198.017 140.108L197.55 139.286C197.487 139.195 197.439 139.094 197.408 138.988C197.48 139.071 197.545 139.159 197.602 139.253L198.12 140.044C198.593 140.769 199.235 141.754 200.012 142.959C200.789 144.164 201.787 145.634 202.908 147.208C203.471 147.999 204.074 148.815 204.741 149.618C205.074 150.028 205.44 150.409 205.836 150.759C206.03 150.914 206.276 151.082 206.399 150.985C206.61 150.84 206.8 150.665 206.963 150.467C207.658 149.639 208.306 148.774 208.906 147.876C209.502 147.008 210.06 146.159 210.584 145.343C211.634 143.717 212.56 142.24 213.338 140.989C214.115 139.739 214.717 138.78 215.171 138.042L215.683 137.245C215.76 137.057 215.825 136.967 215.838 136.973Z" fill="#263238"/>
<path d="M202.033 146.193C201.994 146.193 201.923 145.973 201.949 145.597C201.998 145.109 202.187 144.646 202.493 144.263C202.793 143.873 203.201 143.581 203.666 143.42C204.022 143.31 204.255 143.33 204.262 143.369C203.688 143.628 203.172 144 202.746 144.463C202.391 144.984 202.148 145.573 202.033 146.193Z" fill="#263238"/>
<path d="M206.315 151.296C205.914 149.62 205.9 147.874 206.276 146.191C206.357 147.04 206.372 147.893 206.322 148.744C206.384 149.594 206.382 150.447 206.315 151.296Z" fill="#263238"/>
<path d="M211.122 144.793C211.031 144.793 210.83 144.099 210.156 143.549C209.724 143.25 209.256 143.006 208.764 142.823C208.764 142.784 208.958 142.739 209.269 142.791C209.672 142.864 210.049 143.04 210.364 143.303C210.68 143.564 210.921 143.903 211.063 144.287C211.167 144.605 211.161 144.78 211.122 144.793Z" fill="#263238"/>
<path d="M214.277 139.513C214.068 139.035 213.8 138.585 213.48 138.172C213.085 137.826 212.65 137.528 212.185 137.285C212.185 137.246 212.385 137.227 212.683 137.285C213.073 137.409 213.423 137.632 213.7 137.933C213.98 138.228 214.177 138.592 214.271 138.989C214.348 139.312 214.316 139.507 214.277 139.513Z" fill="#263238"/>
<path d="M198.814 141.367C198.775 141.367 198.671 141.127 198.658 140.719C198.648 140.15 198.784 139.588 199.053 139.087C199.322 138.584 199.711 138.156 200.187 137.843C200.556 137.616 200.835 137.564 200.835 137.597C200.204 138.007 199.687 138.57 199.333 139.234C198.978 139.898 198.797 140.64 198.807 141.393L198.814 141.367Z" fill="#263238"/>
<g opacity="0.4">
<path opacity="0.4" d="M189.712 120.475C191.098 125.8 193.417 134.474 195.924 141.257C196.017 141.576 196.181 141.871 196.404 142.118C197.052 142.721 198.133 142.351 198.736 141.71C199.246 141.05 199.703 140.35 200.103 139.618C200.307 139.254 200.593 138.942 200.938 138.707C201.283 138.472 201.678 138.32 202.092 138.264C202.432 138.272 202.766 138.356 203.071 138.508C203.375 138.66 203.643 138.878 203.854 139.145C204.272 139.683 204.634 140.263 204.935 140.874C205.004 141.043 205.108 141.196 205.239 141.322C205.371 141.448 205.528 141.545 205.7 141.606C205.786 141.633 205.878 141.633 205.965 141.607C206.051 141.582 206.128 141.531 206.186 141.462C206.244 141.393 206.28 141.309 206.291 141.219C206.301 141.13 206.285 141.039 206.244 140.959L204.028 135.206C204.028 135.206 203.011 130.989 199.494 131.643C195.555 132.375 197.343 138.853 197.343 138.853C197.343 138.853 189.653 120.248 189.712 120.475Z" fill="black"/>
</g>
<path d="M206.354 141.198C206.275 141.082 206.212 140.955 206.166 140.822C206.05 140.569 205.888 140.174 205.687 139.714C205.292 138.704 204.735 137.304 204.055 135.588C203.88 135.154 203.692 134.7 203.491 134.234C203.302 133.756 203.027 133.317 202.681 132.938C202.284 132.535 201.803 132.223 201.273 132.025C200.742 131.827 200.175 131.747 199.611 131.791C199.01 131.866 198.446 132.119 197.991 132.517C197.571 132.999 197.271 133.574 197.116 134.195C196.937 134.826 196.891 135.488 196.98 136.138C197.06 136.832 197.183 137.52 197.35 138.198C197.408 138.451 197.473 138.704 197.531 138.937L197.22 139.028C196.313 136.436 195.277 134 194.318 131.817C193.359 129.634 192.485 127.665 191.798 125.987C191.111 124.309 190.606 122.955 190.301 121.996C190.139 121.524 190.042 121.148 189.971 120.889C189.925 120.763 189.895 120.633 189.88 120.5C189.94 120.619 189.99 120.742 190.029 120.869C190.12 121.122 190.237 121.517 190.418 121.958C190.755 122.897 191.293 124.251 192.005 125.896C192.718 127.542 193.605 129.498 194.596 131.681C195.588 133.864 196.624 136.287 197.538 138.911L197.233 139.008C197.175 138.768 197.11 138.516 197.045 138.263C196.878 137.57 196.754 136.867 196.676 136.158C196.578 135.455 196.631 134.739 196.831 134.059C197.003 133.391 197.332 132.773 197.79 132.258C198.295 131.815 198.924 131.537 199.591 131.461C200.2 131.413 200.811 131.501 201.381 131.718C201.952 131.935 202.467 132.277 202.889 132.718C203.25 133.128 203.535 133.6 203.731 134.111C203.932 134.584 204.106 135.043 204.281 135.478C204.929 137.207 205.441 138.619 205.817 139.643C205.992 140.109 206.128 140.485 206.238 140.77C206.29 140.909 206.329 141.052 206.354 141.198Z" fill="#263238"/>
<g opacity="0.4">
<path opacity="0.4" d="M206.665 141.043C206.536 141.133 206.633 141.373 206.788 141.405C206.87 141.414 206.952 141.404 207.029 141.377C207.106 141.35 207.177 141.307 207.235 141.25C207.985 140.53 208.615 139.694 209.101 138.775C209.684 137.907 210.533 137.078 211.576 137.078C212.619 137.078 213.577 137.998 214.122 138.963C214.666 139.928 215.041 141.017 215.832 141.794C219.806 135.968 222.968 129.628 225.232 122.949C223.936 123.85 223.074 125.255 222.265 126.609C220.161 130.121 218.058 133.63 215.955 137.136C215.561 136.088 214.955 135.133 214.173 134.331C213.781 133.932 213.298 133.634 212.766 133.463C212.233 133.291 211.667 133.251 211.116 133.347C209.891 133.638 209.036 134.746 208.44 135.86C207.557 137.487 206.984 139.264 206.749 141.101" fill="black"/>
</g>
<path d="M289.397 192.939C289.232 192.719 289.091 192.482 288.976 192.233C288.724 191.766 288.374 191.08 287.966 190.231C286.904 188.002 285.955 185.721 285.122 183.396C284.29 181.074 283.576 178.711 282.984 176.316C282.757 175.396 282.595 174.651 282.492 174.126C282.427 173.86 282.385 173.589 282.369 173.316C282.478 173.568 282.56 173.831 282.615 174.1C282.77 174.67 282.971 175.396 283.204 176.257C283.71 178.078 284.455 180.578 285.426 183.293C286.398 186.007 287.409 188.411 288.173 190.134C288.542 190.95 288.821 191.637 289.087 192.174C289.216 192.418 289.32 192.674 289.397 192.939Z" fill="#263238"/>
<path d="M283.237 191.721C283.127 191.495 283.04 191.259 282.978 191.015C282.829 190.549 282.641 189.875 282.433 189.033C281.374 184.625 281.015 180.078 281.371 175.558C281.442 174.697 281.52 173.997 281.598 173.518C281.614 173.266 281.664 173.018 281.747 172.779C281.774 173.029 281.774 173.281 281.747 173.531C281.708 174.01 281.669 174.71 281.624 175.571C281.399 180.068 281.754 184.575 282.68 188.981C282.861 189.83 283.01 190.51 283.127 190.983C283.195 191.223 283.232 191.472 283.237 191.721Z" fill="#263238"/>
<path d="M303.034 135.012C303.205 135.055 303.37 135.118 303.527 135.2L303.624 135.245L303.527 135.284C299.493 136.636 295.366 137.692 291.179 138.445C287.564 139.093 284.254 139.495 281.857 139.689C280.659 139.786 279.687 139.844 279.013 139.864C278.664 139.895 278.313 139.895 277.964 139.864C278.306 139.796 278.652 139.753 279 139.734L281.838 139.456C284.222 139.203 287.519 138.808 291.121 138.121C297.133 137.026 302.076 135.569 303.52 135.193V135.271C303.348 135.204 303.185 135.117 303.034 135.012Z" fill="#263238"/>
<path d="M297.457 132.199C297.457 132.199 297.515 132.095 297.716 132.037C297.86 132.007 298.01 132.008 298.154 132.041C298.298 132.073 298.434 132.136 298.551 132.225C298.74 132.347 298.89 132.52 298.984 132.724C299.078 132.929 299.112 133.155 299.083 133.378C299.056 133.514 299 133.643 298.919 133.755C298.837 133.867 298.731 133.96 298.61 134.026C298.358 134.169 298.066 134.223 297.78 134.181C297.495 134.144 297.228 134.02 297.016 133.825C296.918 133.728 296.84 133.612 296.788 133.484C296.735 133.356 296.709 133.218 296.712 133.08C296.726 132.858 296.798 132.644 296.919 132.458C297.041 132.272 297.208 132.12 297.405 132.018C297.657 131.872 297.955 131.823 298.24 131.882C298.441 131.933 298.519 132.024 298.513 132.037C298.172 131.965 297.817 132.028 297.521 132.212C297.372 132.304 297.247 132.432 297.158 132.583C297.069 132.734 297.018 132.905 297.01 133.08C297.024 133.287 297.115 133.481 297.265 133.625C297.414 133.769 297.612 133.852 297.819 133.857C298.02 133.907 298.232 133.878 298.412 133.777C298.593 133.676 298.728 133.51 298.791 133.313C298.803 133.168 298.784 133.021 298.737 132.883C298.69 132.745 298.614 132.618 298.516 132.509C298.418 132.401 298.298 132.315 298.165 132.255C298.032 132.195 297.888 132.162 297.742 132.16C297.56 132.173 297.47 132.231 297.457 132.199Z" fill="#263238"/>
<path d="M201.191 145.9C201.079 146.012 200.96 146.116 200.834 146.211C200.588 146.393 200.251 146.704 199.766 147.028C198.417 147.991 196.973 148.813 195.458 149.483C193.205 150.48 190.824 151.156 188.383 151.491C186.943 151.685 185.489 151.763 184.037 151.724C182.476 151.669 180.924 151.476 179.398 151.148C176.263 150.442 173.438 149.288 170.776 148.556C169.527 148.198 168.251 147.947 166.96 147.805C165.828 147.693 164.688 147.706 163.559 147.844C161.926 148.011 160.356 148.564 158.979 149.457C158.492 149.811 158.022 150.189 157.573 150.591C157.956 150.116 158.406 149.699 158.908 149.353C160.284 148.404 161.872 147.808 163.533 147.617C164.672 147.468 165.823 147.444 166.967 147.546C168.281 147.675 169.582 147.92 170.853 148.278C173.542 148.978 176.366 150.124 179.463 150.824C180.973 151.146 182.507 151.339 184.049 151.4C185.485 151.439 186.92 151.368 188.345 151.187C190.764 150.865 193.127 150.211 195.367 149.243C196.882 148.603 198.331 147.817 199.694 146.898C200.193 146.594 200.536 146.302 200.796 146.134C200.918 146.041 201.051 145.963 201.191 145.9Z" fill="#FAFAFA"/>
<path d="M242.353 172.553C242.285 172.53 242.22 172.5 242.159 172.462L241.595 172.17C241.349 172.047 241.032 171.918 240.663 171.749C240.293 171.581 239.853 171.432 239.367 171.302C236.484 170.556 233.473 170.448 230.544 170.985C228.516 171.316 226.511 171.77 224.538 172.345C222.401 172.928 220.12 173.609 217.672 174.107C215.101 174.672 212.459 174.834 209.84 174.587C207.043 174.25 204.294 173.598 201.645 172.643C198.904 171.723 196.287 170.7 193.715 169.838C191.261 168.975 188.73 168.353 186.155 167.979C181.778 167.401 177.332 167.642 173.044 168.692C171.4 169.107 169.786 169.628 168.211 170.253C167.531 170.551 166.883 170.817 166.306 171.095C165.73 171.374 165.205 171.626 164.745 171.885L163.521 172.566L162.646 173.11L162.108 173.434C162.05 173.479 161.984 173.514 161.914 173.537L162.089 173.408L162.614 173.052C162.84 172.903 163.125 172.702 163.469 172.488L164.68 171.775C165.14 171.51 165.671 171.257 166.241 170.959C166.812 170.661 167.459 170.395 168.146 170.084C169.722 169.44 171.338 168.901 172.985 168.471C177.3 167.382 181.781 167.116 186.194 167.688C188.79 168.055 191.344 168.675 193.819 169.54C196.41 170.395 199.002 171.419 201.742 172.339C204.371 173.288 207.098 173.939 209.872 174.282C212.46 174.537 215.072 174.384 217.613 173.829C220.049 173.343 222.323 172.676 224.467 172.099C226.453 171.533 228.471 171.09 230.511 170.771C233.452 170.246 236.472 170.381 239.354 171.166C239.866 171.309 240.3 171.503 240.682 171.646C241.064 171.788 241.362 171.957 241.608 172.093L242.153 172.417C242.295 172.507 242.36 172.546 242.353 172.553Z" fill="#FAFAFA"/>
<path d="M209.709 145.414C210.255 145.568 210.808 145.689 211.368 145.777C212.899 145.949 214.45 145.826 215.935 145.414C218.126 144.743 220.275 143.938 222.368 143.004C223.636 142.49 224.95 142.099 226.294 141.838C227.74 141.58 229.213 141.495 230.679 141.586C233.509 141.77 236.288 142.427 238.9 143.529C241.024 144.426 243.073 145.489 245.028 146.71C246.706 147.733 248.021 148.653 248.915 149.243C249.349 149.541 249.693 149.781 249.952 149.968C250.076 150.046 250.193 150.135 250.302 150.234C250.167 150.177 250.039 150.105 249.919 150.02L248.851 149.372C247.918 148.789 246.59 147.928 244.899 146.93C242.936 145.749 240.89 144.712 238.777 143.827C236.191 142.74 233.445 142.084 230.647 141.884C229.204 141.799 227.757 141.88 226.332 142.123C225.004 142.38 223.702 142.762 222.446 143.264C220.036 144.196 217.911 145.207 215.967 145.615C214.455 146.018 212.877 146.108 211.329 145.881C210.769 145.806 210.223 145.649 209.709 145.414Z" fill="#FAFAFA"/>
<path d="M247.575 129.168C247.276 129.284 246.968 129.377 246.655 129.446C246.35 129.531 246.007 129.621 245.553 129.705C245.1 129.79 244.634 129.906 244.083 129.984C242.797 130.2 241.499 130.341 240.196 130.405C238.62 130.485 237.041 130.467 235.467 130.353C233.881 130.21 232.306 129.968 230.751 129.628C229.481 129.345 228.229 128.991 227 128.565C226.475 128.397 226.015 128.196 225.601 128.041C225.186 127.885 224.843 127.73 224.564 127.6C224.265 127.48 223.977 127.335 223.703 127.166C224.013 127.246 224.317 127.352 224.61 127.483C224.901 127.6 225.257 127.736 225.666 127.872C226.074 128.008 226.547 128.196 227.071 128.352C228.121 128.688 229.39 129.032 230.809 129.343C233.901 130 237.063 130.268 240.222 130.14C241.673 130.075 242.982 129.952 244.07 129.796C244.621 129.731 245.106 129.634 245.541 129.563C245.975 129.492 246.344 129.42 246.642 129.356C246.946 129.262 247.258 129.199 247.575 129.168Z" fill="#FAFAFA"/>
<path d="M156.343 133.327C156.428 133.237 156.521 133.154 156.621 133.081C156.816 132.925 157.101 132.692 157.476 132.433C158.221 131.863 159.31 131.06 160.716 130.127C164.324 127.637 168.276 125.686 172.447 124.335C176.645 123 181.101 122.689 185.443 123.428C186.749 123.668 188.029 124.035 189.265 124.523C189.705 124.685 190.029 124.86 190.256 124.957C190.372 125.004 190.483 125.062 190.586 125.132C190.586 125.132 190.1 124.957 189.226 124.64C187.984 124.196 186.705 123.867 185.404 123.655C181.097 122.99 176.694 123.326 172.538 124.64C168.411 125.992 164.488 127.901 160.877 130.315C159.472 131.222 158.357 131.999 157.593 132.537L156.706 133.184C156.592 133.249 156.47 133.297 156.343 133.327Z" fill="#FAFAFA"/>
<path d="M237.877 201.263C237.819 201.289 237.758 201.307 237.695 201.314L237.151 201.431C236.857 201.498 236.558 201.543 236.257 201.567L235.687 201.632H235.039C233.18 201.71 230.504 201.23 227.35 200.22C225.769 199.727 224.059 199.118 222.199 198.568C220.223 197.981 218.195 197.588 216.142 197.395C211.795 196.981 206.989 197.505 202.039 198.406C197.09 199.306 192.387 200.427 188.034 200.945C184.18 201.486 180.272 201.51 176.412 201.016C173.809 200.676 171.279 199.912 168.923 198.756L167.835 198.186L167.057 197.726L166.591 197.421L166.442 197.311C166.502 197.33 166.559 197.358 166.61 197.395L167.09 197.667L167.867 198.127L168.962 198.671C171.324 199.773 173.845 200.499 176.431 200.822C180.271 201.276 184.154 201.228 187.982 200.68C192.316 200.142 196.993 199.015 201.968 198.088C206.943 197.162 211.77 196.663 216.155 197.104C218.225 197.305 220.269 197.71 222.258 198.315C224.123 198.879 225.834 199.494 227.401 199.999C229.846 200.905 232.42 201.415 235.026 201.509H235.674L236.244 201.457C236.544 201.445 236.843 201.411 237.138 201.353L237.682 201.269L237.877 201.263Z" fill="#FAFAFA"/>
<g opacity="0.3">
<path opacity="0.3" d="M180.804 205.727C183.739 213.053 189.42 218.255 197.239 219.331C205.058 220.406 212.968 218.618 220.561 216.545C206.717 214.602 194.467 212.691 180.785 205.727" fill="black"/>
</g>
<path d="M239.859 225.875L239.671 225.804L239.12 225.57L237.028 224.638C235.201 223.841 232.59 222.61 229.332 221.198C227.559 220.423 225.723 219.801 223.845 219.338C221.69 218.823 219.457 218.72 217.263 219.034C216.078 219.209 214.909 219.475 213.765 219.831C212.575 220.203 211.406 220.635 210.26 221.126C207.922 222.15 205.596 223.42 203.199 224.702C200.88 225.989 198.473 227.111 195.995 228.058C193.678 228.949 191.228 229.446 188.746 229.529C186.493 229.555 184.258 229.114 182.184 228.233C180.401 227.466 178.669 226.583 177.001 225.59C175.453 224.702 174.06 223.899 172.797 223.284C171.719 222.741 170.599 222.286 169.448 221.923C169.023 221.784 168.59 221.669 168.152 221.58C167.841 221.498 167.525 221.437 167.206 221.398L166.617 221.301C166.549 221.297 166.481 221.284 166.416 221.262C166.483 221.252 166.55 221.252 166.617 221.262L167.213 221.327C167.536 221.356 167.856 221.408 168.172 221.483C168.609 221.56 169.042 221.664 169.467 221.794C170.63 222.133 171.763 222.566 172.855 223.089C174.151 223.692 175.544 224.489 177.092 225.357C178.761 226.332 180.493 227.198 182.275 227.948C184.326 228.8 186.531 229.221 188.753 229.185C191.193 229.089 193.601 228.59 195.879 227.708C198.329 226.761 200.71 225.644 203.005 224.365C205.395 223.07 207.727 221.813 210.085 220.789C211.242 220.283 212.425 219.837 213.629 219.455C214.791 219.104 215.978 218.84 217.179 218.665C219.406 218.354 221.673 218.468 223.858 219.002C225.751 219.485 227.598 220.135 229.377 220.945C232.616 222.39 235.208 223.646 237.034 224.482L239.101 225.467L239.639 225.732C239.801 225.836 239.865 225.868 239.859 225.875Z" fill="#FAFAFA"/>
</svg>
