<svg width="344" height="180" viewBox="0 0 344 180" fill="none" xmlns="http://www.w3.org/2000/svg">
<path d="M341.51 29.6058C341.51 29.6058 337.371 27.0808 332.796 36.9233C328.222 46.7657 326.553 52.4147 326.553 52.4147C326.553 52.4147 325.32 54.4842 323.885 53.2118C322.449 51.9394 320.419 48.2609 318.062 49.0134C315.636 49.8006 314.928 52.5682 315.542 56.5735C316.156 60.5788 317.171 69.4014 317.265 70.1985C317.359 70.9956 316.943 72.1789 315.824 71.4461C314.706 70.7134 308.17 63.9653 305.14 67.2576C302.11 70.55 305.635 81.4272 306.022 82.6055C306.408 83.7839 306.165 84.3235 305.601 84.6453C305.036 84.9672 303.056 82.4818 301.145 80.6301C299.234 78.7785 296.635 76.9763 295.05 79.0211C293.466 81.0658 293.228 89.3339 301.561 102.444L305.819 108.266L313.032 107.603C328.38 105.246 334.45 99.6318 334.945 97.092C335.44 94.5522 332.39 93.7996 329.727 93.562C327.063 93.3243 323.885 93.458 323.756 92.8243C323.627 92.1906 323.875 91.6806 325.018 91.1707C326.162 90.6607 336.673 86.1653 337.163 81.7144C337.653 77.2635 328.251 76.808 326.979 76.4317C325.706 76.0555 326.32 74.9762 326.979 74.5256C327.637 74.0751 334.955 69.0301 338.366 66.8566C341.777 64.6832 343.352 62.3414 342.361 59.9946C341.371 57.732 337.277 58.6232 335.371 58.3757C333.465 58.1281 334.217 55.8408 334.217 55.8408C334.217 55.8408 337.371 50.8898 341.767 40.9533C346.164 31.0168 341.416 29.5662 341.416 29.5662" fill="#F5F5F5"/>
<path d="M337.411 38.4131C337.411 38.4131 337.387 38.4873 337.327 38.626C337.268 38.7646 337.179 38.9824 337.07 39.2448L336.05 41.5965C335.159 43.6413 333.852 46.592 332.223 50.231C328.965 57.5088 324.38 67.5196 319.281 78.5602C314.182 89.6008 309.557 99.6116 306.26 106.875L302.364 115.474L301.304 117.811C301.18 118.069 301.086 118.272 301.022 118.415C300.991 118.485 300.956 118.552 300.918 118.618C300.94 118.546 300.966 118.475 300.997 118.405C301.062 118.257 301.146 118.054 301.255 117.791C301.492 117.242 301.839 116.45 302.275 115.435C303.166 113.39 304.473 110.444 306.102 106.805C309.359 99.5274 313.944 89.5167 319.043 78.4711C324.143 67.4256 328.752 57.4247 332.049 50.1666C333.693 46.5475 335.02 43.6116 335.946 41.5718L337.01 39.2349C337.129 38.9725 337.223 38.7745 337.293 38.626C337.362 38.4774 337.411 38.4131 337.411 38.4131Z" fill="#E0E0E0"/>
<path d="M320.711 54.2812C320.8 54.4367 320.868 54.6032 320.914 54.7763C321.033 55.0883 321.186 55.5487 321.374 56.118C321.741 57.2617 322.211 58.846 322.696 60.6085L323.919 65.1238C324.068 65.6635 324.191 66.114 324.295 66.4903C324.355 66.6494 324.394 66.816 324.409 66.9854C324.32 66.8299 324.252 66.6634 324.206 66.4903C324.087 66.1783 323.934 65.7179 323.751 65.1436C323.394 63.9999 322.944 62.4057 322.459 60.6432L321.206 56.1379L320.825 54.7763C320.768 54.6162 320.73 54.4501 320.711 54.2812Z" fill="#E0E0E0"/>
<path d="M325.079 67.0895C325.079 67.0251 328.287 65.9112 332.293 64.614C336.298 63.3169 339.566 62.292 339.585 62.3564C339.605 62.4208 336.377 63.5347 332.372 64.8319C328.367 66.129 325.099 67.1538 325.079 67.0895Z" fill="#E0E0E0"/>
<path d="M316.479 83.694C316.655 83.6609 316.834 83.646 317.013 83.6495L318.459 83.6C319.677 83.5554 321.365 83.491 323.222 83.3475C325.078 83.2039 326.757 83.0356 327.975 82.8969L329.41 82.7336C329.587 82.7007 329.766 82.6907 329.945 82.7038C329.785 82.762 329.619 82.8035 329.45 82.8276C329.113 82.892 328.623 82.9761 328.019 83.0653C326.811 83.2484 325.128 83.4564 323.266 83.595C321.405 83.7336 319.712 83.7732 318.484 83.7683C317.875 83.7683 317.38 83.7683 317.038 83.7435C316.85 83.7527 316.662 83.7361 316.479 83.694Z" fill="#E0E0E0"/>
<path d="M309.982 72.9805C310.097 73.0982 310.197 73.2296 310.279 73.3716C310.458 73.629 310.715 74.0103 311.022 74.4856C311.641 75.4312 312.478 76.7481 313.389 78.2087C314.3 79.6692 315.117 81.001 315.696 81.9714C315.988 82.4665 316.216 82.8526 316.369 83.1299C316.463 83.2661 316.538 83.4143 316.592 83.5705C316.473 83.4555 316.371 83.3238 316.29 83.1794C316.112 82.917 315.859 82.5407 315.547 82.0654C314.933 81.1198 314.097 79.8029 313.181 78.3374C312.265 76.8719 311.453 75.5451 310.874 74.5747C310.586 74.0796 310.378 73.6934 310.2 73.4211C310.11 73.2835 310.037 73.1356 309.982 72.9805Z" fill="#E0E0E0"/>
<path d="M300.526 86.6748C300.671 86.8258 300.798 86.9918 300.908 87.1699L301.863 88.5958C302.655 89.8038 303.744 91.4822 304.933 93.3437C306.121 95.2053 307.185 96.9034 307.943 98.1362L308.834 99.6215C308.949 99.7972 309.049 99.9828 309.131 100.176C308.987 100.025 308.859 99.8588 308.75 99.6809L307.799 98.255C307.002 97.0421 305.913 95.3637 304.725 93.5022C303.537 91.6406 302.477 89.9424 301.715 88.7096C301.358 88.1254 301.061 87.6303 300.828 87.2244C300.709 87.0523 300.607 86.8681 300.526 86.6748Z" fill="#E0E0E0"/>
<path d="M309.018 99.7902C309.237 99.7402 309.461 99.7136 309.686 99.711L311.518 99.5822C313.062 99.4733 315.201 99.3149 317.553 99.0871C319.905 98.8594 322.009 98.592 323.568 98.3792L325.385 98.1366C325.608 98.0965 325.833 98.0767 326.059 98.0772C325.845 98.1504 325.624 98.2018 325.4 98.2306C324.974 98.3148 324.356 98.4237 323.593 98.5475C322.058 98.8 319.934 99.097 317.578 99.3347C315.221 99.5723 313.077 99.706 311.528 99.7704C310.75 99.8001 310.127 99.8199 309.691 99.8199C309.466 99.8291 309.241 99.8192 309.018 99.7902Z" fill="#E0E0E0"/>
<path d="M46.6873 78.3721C58.2378 70.6635 61.045 56.0929 60.8123 42.9283C60.7678 40.7301 61.05 38.423 60.0202 36.4921C58.9904 34.5612 56.5545 33.1948 54.5395 34.0909C52.8809 34.8335 52.1284 36.7199 51.1827 38.2744C49.9074 40.3515 48.0733 42.0278 45.8902 43.1115C44.4643 43.8145 42.7067 44.2304 41.3205 43.4482C39.4193 42.3788 39.2312 39.7597 39.2807 37.5764L39.548 25.3773C39.5926 23.1939 39.6372 20.966 38.9787 18.8816C38.3202 16.7973 36.8349 14.8565 34.7407 14.2426C32.6464 13.6287 30.0274 14.7872 29.5471 16.9161C29.3491 17.8023 29.5174 18.7281 29.4432 19.6342C29.3689 20.5402 28.9481 21.5353 28.047 21.773C27.1459 22.0106 26.2894 21.3818 25.6359 20.7382C23.3882 18.4954 21.8831 15.6388 20.482 12.8167C19.0809 9.99469 17.7144 7.05879 15.6845 4.62788C13.6546 2.19697 10.8128 0.246294 7.64915 0.0185513C4.4855 -0.209192 1.0842 1.67712 0.22274 4.73185C-0.638723 7.78657 1.14361 10.9453 3.08438 13.4653C5.97428 17.1984 9.38762 20.495 13.2189 23.2533C13.9121 23.7484 14.6547 24.288 14.9122 25.1C15.3677 26.5853 13.9517 27.9864 12.4862 28.4468C10.8276 28.9419 9.02056 28.7686 7.31743 28.9419C5.61431 29.1152 3.7082 29.838 3.02992 31.4174C2.09419 33.6354 3.94584 36.002 5.78264 37.5615C9.46244 40.6853 13.6483 43.1583 18.16 44.874C19.7789 45.488 21.4821 46.0276 22.7743 47.1762C24.0665 48.3248 24.8338 50.2953 24.0169 51.8202C23.2 53.3451 21.1553 53.8006 19.4571 53.4738C17.759 53.1471 16.2489 52.2014 14.6349 51.5727C11.6099 50.3943 7.70361 50.5429 5.69848 53.1074C4.39143 54.7908 4.2429 57.1623 4.85682 59.2021C5.47073 61.2418 6.75798 63.0093 8.12444 64.6481C12.907 70.3615 19.0759 74.9956 26.0864 77.5205C33.097 80.0455 39.6173 80.7881 46.6625 78.3622" fill="#EBEBEB"/>
<path d="M45.8011 78.6245C43.9445 71.9654 38.8698 56.2957 35.8249 48.9188L33.5624 43.4728C32.8148 41.6855 32.0771 39.918 31.2404 38.2298C29.6326 34.9981 27.8476 31.8577 25.8934 28.823C24.0417 25.9019 22.1802 23.1987 20.4473 20.6787C18.7145 18.1587 16.9817 15.8565 15.3578 13.8117C12.7969 10.5717 9.98254 7.54044 6.94117 4.74657C5.86682 3.75638 5.01031 3.01374 4.42115 2.51865L3.71811 1.91463C3.56463 1.79086 3.48047 1.73145 3.48047 1.73145C3.48047 1.73145 3.54978 1.80571 3.69336 1.93939L4.34688 2.5236C4.91624 3.01869 5.76285 3.79104 6.82235 4.79608C9.81804 7.62289 12.5983 10.6696 15.1399 13.9108C16.7539 15.9604 18.4274 18.2775 20.1849 20.7926C21.9425 23.3076 23.7843 26.0208 25.631 28.9369C27.5729 31.9727 29.3464 35.113 30.9433 38.3436C31.7701 40.027 32.5078 41.8093 33.2554 43.5768C34.003 45.3443 34.7407 47.186 35.518 49.0228C38.543 56.3898 43.6326 72.0447 45.504 78.6839" fill="#E0E0E0"/>
<path d="M31.1357 38.195C31.2382 37.8925 31.3112 37.5807 31.3536 37.2642C31.4724 36.6602 31.6209 35.7789 31.7893 34.6996C32.1309 32.5311 32.5022 29.5209 32.9032 26.1988C33.3043 22.8768 33.7251 19.8814 34.1113 17.7228C34.2994 16.6435 34.4628 15.7722 34.6064 15.1731C34.6838 14.8644 34.7351 14.5497 34.7598 14.2324C34.6386 14.5266 34.5458 14.8316 34.4826 15.1434C34.3192 15.7375 34.1212 16.6287 33.9033 17.6832C33.4231 19.8319 32.9775 22.8372 32.5765 26.1741C32.1754 29.511 31.8289 32.4469 31.5615 34.6847C31.4278 35.7244 31.314 36.5909 31.2249 37.2592C31.1688 37.5681 31.139 37.8811 31.1357 38.195Z" fill="#E0E0E0"/>
<path d="M2.78711 32.5265C2.88166 32.5566 2.98 32.5733 3.07921 32.576L3.92087 32.6602C4.65361 32.7344 5.70816 32.8334 7.00531 32.9968C9.60455 33.3038 13.1841 33.8632 17.1052 34.6504C21.0264 35.4376 24.5316 36.3238 27.0566 37.0318C28.3191 37.3784 29.334 37.6854 30.0272 37.8933L30.8391 38.1309C30.9311 38.1666 31.0279 38.1883 31.1263 38.1953C31.0438 38.1409 30.9537 38.0992 30.8589 38.0715C30.6411 37.9874 30.3638 37.8883 30.0668 37.7745C29.3786 37.5269 28.3686 37.1804 27.0962 36.7843C24.5861 36.0169 21.0709 35.101 17.1448 34.3088C13.2187 33.5167 9.65901 33.0166 7.03006 32.7641C5.72797 32.6304 4.66352 32.5661 3.93078 32.5364H3.08417C2.98595 32.5207 2.88615 32.5174 2.78711 32.5265Z" fill="#E0E0E0"/>
<path d="M43.0391 69.5595C43.1146 69.4523 43.1793 69.3379 43.2321 69.2179L43.7272 68.2277C44.153 67.3464 44.7174 66.0592 45.4502 64.46C46.8661 61.2667 48.6831 56.791 50.6289 51.8302C52.5746 46.8694 54.352 42.364 55.7036 39.1459L57.3275 35.3436C57.5057 34.9178 57.6542 34.5762 57.7681 34.3088C57.8242 34.1895 57.869 34.0652 57.9018 33.9375C57.8218 34.0418 57.7568 34.1568 57.7087 34.2791L57.2136 35.2693C56.7878 36.1506 56.1987 37.4378 55.4956 39.032C54.0797 42.2303 52.2577 46.706 50.3169 51.6668C48.3762 56.6277 46.5889 61.1132 45.2274 64.3313L43.6035 68.1336L43.1678 69.1684C43.109 69.293 43.0658 69.4244 43.0391 69.5595Z" fill="#E0E0E0"/>
<path d="M5.44629 56.9785C5.56473 57.0404 5.68914 57.0902 5.81761 57.127L6.91177 57.4984L10.9418 58.85C14.3431 59.9887 19.0218 61.6175 24.1856 63.4296C29.3494 65.2416 34.0478 66.8358 37.4689 67.9201C39.177 68.4597 40.5682 68.8855 41.5287 69.1628L42.6427 69.4747C42.7712 69.5183 42.904 69.5481 43.0388 69.5638C42.9185 69.5007 42.7925 69.4493 42.6625 69.4103L41.5683 69.039L37.5383 67.6973C34.137 66.5586 29.4583 64.9297 24.2945 63.1177C19.1307 61.3056 14.4372 59.7065 11.0161 58.6272C9.30307 58.0875 7.91681 57.6617 6.95137 57.3845L5.84236 57.0676C5.71357 57.025 5.58091 56.9952 5.44629 56.9785Z" fill="#E0E0E0"/>
<path d="M236.789 2.09814H299.205L286.996 10.7771V18.0253C286.969 21.6065 285.52 25.0302 282.969 27.5435C280.417 30.0568 276.972 31.4539 273.391 31.4275H234.224C230.643 31.4539 227.198 30.0568 224.647 27.5435C222.095 25.0302 220.647 21.6065 220.619 18.0253C220.635 15.9177 221.065 13.8338 221.886 11.8926C222.707 9.95142 223.903 8.19103 225.405 6.71198C226.906 5.23293 228.684 4.0642 230.638 3.27255C232.591 2.48089 234.681 2.08182 236.789 2.09814Z" fill="#F5F5F5"/>
<path d="M276.465 11.7869C276.465 11.8562 266.068 11.9157 253.195 11.9157C240.323 11.9157 229.926 11.8562 229.926 11.7869C229.926 11.7176 240.323 11.6582 253.195 11.6582C266.068 11.6582 276.465 11.7127 276.465 11.7869Z" fill="#E0E0E0"/>
<path d="M276.465 16.6092C276.465 16.6785 266.068 16.7379 253.195 16.7379C240.323 16.7379 229.926 16.6785 229.926 16.6092C229.926 16.5399 240.323 16.4805 253.195 16.4805C266.068 16.4805 276.465 16.5349 276.465 16.6092Z" fill="#E0E0E0"/>
<path d="M142.092 150.651H68.2344L80.2652 159.355V176.436C80.2652 176.904 80.3575 177.368 80.537 177.801C80.7164 178.234 80.9794 178.627 81.311 178.958C81.6425 179.289 82.0361 179.552 82.4691 179.731C82.9022 179.909 83.3662 180.001 83.8348 180.001H142.092C142.561 180.001 143.025 179.909 143.458 179.731C143.891 179.552 144.285 179.289 144.616 178.958C144.948 178.627 145.211 178.234 145.39 177.801C145.57 177.368 145.662 176.904 145.662 176.436V154.216C145.661 153.27 145.284 152.363 144.615 151.695C143.946 151.027 143.038 150.651 142.092 150.651Z" fill="#F5F5F5"/>
<path d="M139.012 162.721C139.012 162.796 127.872 162.85 114.133 162.85C100.394 162.85 89.2549 162.796 89.2549 162.721C89.2549 162.647 100.39 162.593 114.133 162.593C127.877 162.593 139.012 162.652 139.012 162.721Z" fill="#E0E0E0"/>
<path d="M139.012 169.282C139.012 169.351 127.872 169.41 114.133 169.41C100.394 169.41 89.2549 169.351 89.2549 169.282C89.2549 169.212 100.39 169.153 114.133 169.153C127.877 169.153 139.012 169.212 139.012 169.282Z" fill="#E0E0E0"/>
<path d="M292.893 66.4751H206.455C195.848 66.4751 187.25 75.0733 187.25 85.6798V156.033C187.25 166.639 195.848 175.237 206.455 175.237H292.893C303.5 175.237 312.098 166.639 312.098 156.033V85.6798C312.098 75.0733 303.5 66.4751 292.893 66.4751Z" fill="#0C9CFF"/>
<g opacity="0.4">
<path opacity="0.4" d="M292.893 66.4751H206.455C195.848 66.4751 187.25 75.0733 187.25 85.6798V156.033C187.25 166.639 195.848 175.237 206.455 175.237H292.893C303.5 175.237 312.098 166.639 312.098 156.033V85.6798C312.098 75.0733 303.5 66.4751 292.893 66.4751Z" fill="black"/>
</g>
<path d="M312.063 104.39H330.763L311.643 123.515L312.063 104.39Z" fill="#0C9CFF"/>
<g opacity="0.4">
<path opacity="0.4" d="M312.063 104.39H330.763L311.643 123.515L312.063 104.39Z" fill="black"/>
</g>
<path d="M184.26 116.148L176.422 107.236C174.303 105.117 173.575 104.097 174.001 103.726C174.566 103.231 174.323 103.394 178.724 106.696C178.724 106.696 172.486 101.929 174.65 101.899C175.031 101.899 176.09 102.513 177.224 103.256C175.68 101.944 175.244 101.057 175.546 100.636C176.041 99.9037 179.863 102.552 181.621 103.825C180.185 102.755 177.447 100.681 176.967 100.028C176.303 99.1364 177.645 99.2106 178.734 99.5819C179.957 99.9978 186.715 103.449 188.715 104.34C188.876 104.435 189.055 104.495 189.241 104.515C189.426 104.535 189.614 104.514 189.791 104.454C189.968 104.395 190.13 104.297 190.266 104.169C190.401 104.041 190.507 103.884 190.577 103.711C191.315 100.612 193.547 98.5967 194.399 98.3343C195.251 98.0719 195.909 99.1611 195.3 99.9533C194.727 100.875 194.284 101.871 193.983 102.914C193.707 103.732 193.572 104.591 193.582 105.454C193.582 106.444 193.651 107.3 193.716 108.018L200.88 117.846L188.899 124.777L184.26 116.148Z" fill="#B78876"/>
<path d="M181.457 108.083C181.378 108.192 179.972 107.236 178.348 105.944C176.724 104.652 175.457 103.513 175.551 103.409C175.645 103.305 177.036 104.266 178.66 105.548C180.284 106.83 181.527 107.969 181.457 108.083Z" fill="#AA6550"/>
<path d="M182.972 106.518C182.893 106.632 181.353 105.691 179.531 104.424C177.709 103.156 176.293 102.033 176.372 101.924C176.452 101.815 177.991 102.746 179.813 104.013C181.635 105.28 183.051 106.404 182.972 106.518Z" fill="#AA6550"/>
<path d="M184.082 104.855C184.003 104.969 182.527 104.107 180.789 102.929C179.052 101.751 177.705 100.706 177.779 100.587C177.854 100.468 179.329 101.335 181.072 102.513C182.814 103.691 184.156 104.741 184.082 104.855Z" fill="#AA6550"/>
<path d="M194.384 109.35L222.941 145.561L216.401 160.785C216.401 160.785 208.569 159.052 206.192 155.755C203.816 152.457 184.26 116.147 184.26 116.147L194.384 109.35Z" fill="#B78876"/>
<path d="M266.876 58.6924C268.931 60.4747 268.926 63.6136 268.688 66.3218C268.451 69.0299 268.268 72.1144 270.144 74.0849C271.694 75.7088 274.501 76.4167 274.857 78.6298C274.942 79.1498 274.863 79.6832 274.632 80.1566C274.401 80.63 274.029 81.0203 273.567 81.2737C273.105 81.5272 272.576 81.6313 272.053 81.5719C271.529 81.5125 271.037 81.2924 270.644 80.9419C271.248 82.6896 270.832 84.8729 269.317 85.9324C267.802 86.9919 265.262 86.3384 264.792 84.5511C264.869 84.8495 264.884 85.1606 264.835 85.4649C264.786 85.7692 264.676 86.0602 264.51 86.3198C264.344 86.5794 264.126 86.802 263.87 86.9737C263.614 87.1454 263.326 87.2625 263.022 87.3178C262.719 87.373 262.408 87.3652 262.108 87.2948C261.808 87.2244 261.526 87.0929 261.279 86.9086C261.032 86.7242 260.825 86.491 260.673 86.2234C260.52 85.9558 260.424 85.6595 260.391 85.3532" fill="#263238"/>
<path d="M237.453 76.9711C237.176 77.6342 236.648 78.1604 235.984 78.4338C235.319 78.7073 234.574 78.7056 233.91 78.4292C233.247 78.1528 232.721 77.6243 232.448 76.96C232.174 76.2956 232.176 75.5499 232.452 74.8868C232.923 73.857 234.037 73.1144 234.146 71.9855C234.274 70.624 232.883 69.6487 231.67 69.0546C230.457 68.4605 228.992 67.6881 228.858 66.3217C228.724 64.9552 229.908 63.9799 230.893 63.0986C231.878 62.2174 232.873 60.8509 232.244 59.6775C231.933 59.0735 231.284 58.7319 230.863 58.1922C229.937 57.0139 230.423 55.1375 231.606 54.2315C232.789 53.3255 234.423 53.1819 235.898 53.4443C237.374 53.7067 238.76 54.3206 240.196 54.7513C242.576 55.4434 245.073 55.6344 247.531 55.3123C249.989 54.9902 252.353 54.162 254.474 52.8799" fill="#263238"/>
<path d="M246.22 108.899C248.778 109.416 251.436 108.905 253.621 107.479C255.806 106.053 257.343 103.824 257.899 101.275L264.925 69.0642C265.363 67.2042 265.424 65.2752 265.104 63.3912C264.784 61.5072 264.09 59.7065 263.062 58.0956C262.034 56.4847 260.693 55.0962 259.12 54.0124C257.546 52.9285 255.771 52.1713 253.899 51.7854L253.166 51.6765C249.587 51.1503 245.941 51.9918 242.955 54.0333C239.968 56.0748 237.86 59.1664 237.051 62.6923C235.486 69.4899 233.848 77.0203 233.353 80.7187C232.328 88.3778 239.789 90.6849 239.789 90.6849L238.447 97.1211C238.181 98.4035 238.171 99.7258 238.418 101.012C238.664 102.298 239.162 103.523 239.884 104.616C240.605 105.709 241.535 106.649 242.621 107.382C243.707 108.114 244.926 108.625 246.21 108.885L246.22 108.899Z" fill="#B78876"/>
<path d="M238.428 67.7623C238.384 68.0465 238.453 68.3365 238.619 68.5712C238.785 68.8058 239.036 68.9666 239.319 69.0198C239.456 69.051 239.598 69.0546 239.736 69.0302C239.874 69.0058 240.006 68.9541 240.125 68.878C240.243 68.8019 240.344 68.703 240.424 68.5871C240.503 68.4711 240.558 68.3405 240.586 68.2029C240.633 67.919 240.566 67.6283 240.4 67.3932C240.234 67.1581 239.983 66.9974 239.7 66.9454C239.563 66.9141 239.421 66.9105 239.282 66.9348C239.143 66.9591 239.011 67.0108 238.893 67.0869C238.774 67.1629 238.672 67.2618 238.592 67.3778C238.512 67.4938 238.457 67.6245 238.428 67.7623Z" fill="#263238"/>
<path d="M238.145 66.6731C238.259 66.8365 239.175 66.3414 240.353 66.5196C241.532 66.6979 242.299 67.4058 242.448 67.2821C242.522 67.2276 242.418 66.9504 242.086 66.6236C241.629 66.1969 241.052 65.9219 240.432 65.8364C239.822 65.7442 239.198 65.8482 238.65 66.1335C238.249 66.3612 238.091 66.5988 238.145 66.6731Z" fill="#263238"/>
<path d="M249.909 69.6431C249.864 69.9275 249.932 70.2182 250.099 70.4531C250.265 70.688 250.517 70.8486 250.8 70.9006C250.937 70.9318 251.08 70.9351 251.218 70.9105C251.357 70.8858 251.489 70.8336 251.607 70.757C251.725 70.6804 251.827 70.581 251.906 70.4645C251.985 70.348 252.04 70.2168 252.068 70.0788C252.112 69.7949 252.044 69.5049 251.877 69.2708C251.711 69.0367 251.459 68.8771 251.176 68.8262C251.039 68.7943 250.897 68.7902 250.759 68.8143C250.62 68.8383 250.488 68.89 250.37 68.9662C250.251 69.0424 250.15 69.1416 250.071 69.2579C249.991 69.3742 249.936 69.5052 249.909 69.6431Z" fill="#263238"/>
<path d="M249.662 68.5837C249.775 68.7422 250.691 68.252 251.865 68.4303C253.038 68.6085 253.815 69.3165 253.964 69.1927C254.033 69.1383 253.934 68.861 253.598 68.5342C253.141 68.1075 252.563 67.8326 251.944 67.747C251.333 67.6549 250.709 67.7589 250.162 68.0441C249.78 68.257 249.602 68.5095 249.662 68.5837Z" fill="#263238"/>
<path d="M244.121 76.6741C244.121 76.6048 243.423 76.3721 242.264 76.0503C241.967 75.976 241.695 75.872 241.675 75.6592C241.695 75.3473 241.809 75.0488 242.002 74.8026C242.395 74.1194 242.802 73.4015 243.225 72.649C244.933 69.5745 246.195 67.0346 246.091 66.9653C245.987 66.896 244.482 69.3319 242.774 72.4113L241.586 74.5799C241.346 74.9165 241.23 75.326 241.259 75.7384C241.29 75.8478 241.344 75.949 241.419 76.0346C241.493 76.1203 241.586 76.1882 241.69 76.2335C241.848 76.3014 242.015 76.3496 242.185 76.377C242.815 76.5561 243.466 76.6558 244.121 76.6741Z" fill="#263238"/>
<path d="M250.027 63.9353C250.096 64.272 251.294 64.2918 252.646 64.6581C253.998 65.0245 255.057 65.5642 255.285 65.3067C255.384 65.1829 255.235 64.8512 254.834 64.4799C254.29 64.0125 253.647 63.6754 252.952 63.4944C252.258 63.3133 251.532 63.2931 250.829 63.4353C250.274 63.564 250.002 63.8016 250.027 63.9353Z" fill="#263238"/>
<path d="M239.076 63.3359C239.244 63.6329 240.066 63.4745 241.056 63.6032C242.046 63.732 242.829 64.0488 243.037 63.7963C243.141 63.6725 243.037 63.3854 242.73 63.0784C242.29 62.7049 241.749 62.4706 241.176 62.4054C240.603 62.3401 240.024 62.4469 239.512 62.7121C239.155 62.9348 239.002 63.1923 239.076 63.3359Z" fill="#263238"/>
<path d="M257.855 59.4643L257.89 59.5039C258.969 60.6423 259.565 62.154 259.554 63.7221V63.8756C259.554 66.1035 259.153 68.3315 259.158 70.5346C259.163 72.7378 259.588 75.0845 260.98 76.8174C261.549 77.5352 262.658 78.1294 263.306 77.4857C263.535 77.2119 263.681 76.8788 263.727 76.5253C264.906 71.3218 267.025 66.866 267.822 61.3605C267.932 60.6235 267.865 59.8708 267.627 59.1648C267.388 58.4588 266.985 57.8198 266.45 57.3008C265.42 56.3106 264.138 55.2412 262.767 55.662C261.395 56.0828 259.39 58.2365 258.247 59.1277" fill="#263238"/>
<path d="M261.841 72.1438C261.979 72.1042 267.321 71.3566 266.385 76.56C265.45 81.7634 260.444 79.7534 260.444 79.5999C260.444 79.4464 261.841 72.1438 261.841 72.1438Z" fill="#B78876"/>
<path d="M262.385 77.9166C262.385 77.9166 262.464 77.9958 262.603 78.0899C262.802 78.2221 263.046 78.2718 263.281 78.2285C263.865 78.1246 264.484 77.3374 264.677 76.4016C264.777 75.96 264.777 75.5016 264.677 75.0599C264.657 74.8888 264.595 74.7251 264.498 74.5828C264.4 74.4406 264.27 74.324 264.118 74.243C264.019 74.1963 263.906 74.1861 263.8 74.2141C263.694 74.2422 263.602 74.3068 263.538 74.3965C263.444 74.5252 263.459 74.6391 263.43 74.6391C263.4 74.6391 263.336 74.5351 263.43 74.3272C263.481 74.2039 263.574 74.1023 263.692 74.04C263.854 73.9572 264.043 73.9412 264.217 73.9955C264.424 74.078 264.607 74.2124 264.747 74.3858C264.888 74.5592 264.981 74.7657 265.019 74.9857C265.156 75.4692 265.175 75.9787 265.073 76.471C264.851 77.5156 264.138 78.3969 263.35 78.481C263.203 78.4966 263.054 78.4789 262.914 78.4292C262.775 78.3795 262.648 78.2991 262.543 78.1939C262.37 78.0404 262.365 77.9216 262.385 77.9166Z" fill="#AA6550"/>
<path d="M262.826 56.4988C264.42 54.5927 261.34 51.0775 258.865 49.8843C256.389 48.6912 252.825 49.4536 250.131 49.9289C248.433 50.2309 246.71 50.7458 245.017 50.424C243.893 50.1428 242.819 49.6938 241.829 49.0922C240.836 48.5014 239.735 48.1158 238.591 47.9584C238.015 47.8876 237.431 47.9751 236.902 48.2116C236.372 48.448 235.917 48.8243 235.586 49.3001C234.996 50.2903 235.407 51.84 236.516 52.1618C236.182 51.9081 235.791 51.7392 235.378 51.6697C234.964 51.6002 234.539 51.6321 234.14 51.7627C233.742 51.8933 233.38 52.1187 233.088 52.4195C232.795 52.7204 232.58 53.0877 232.461 53.49C232.341 53.8922 232.321 54.3175 232.402 54.7292C232.483 55.1409 232.663 55.5269 232.926 55.8539C233.189 56.1809 233.527 56.4392 233.912 56.6067C234.297 56.7743 234.717 56.8459 235.135 56.8157C234.477 56.1423 233.199 56.9097 233.155 57.8504C233.11 58.7911 233.853 59.5882 234.64 60.0882C236.675 61.3656 239.259 61.4299 241.626 61.0041C243.992 60.5784 246.26 59.6971 248.617 59.2119C250.973 58.7267 254.929 57.8058 257.058 58.9297C258.622 59.7516 259.484 61.9003 260.479 61.6082C260.95 61.4346 261.374 61.1536 261.718 60.7875C262.062 60.4214 262.316 59.9803 262.459 59.4991C262.727 58.5329 262.84 57.53 262.791 56.5285" fill="#263238"/>
<path d="M273.01 80.6343C273.108 80.612 273.2 80.5717 273.283 80.5154C273.527 80.3581 273.723 80.1351 273.847 79.8718C274.039 79.4506 274.098 78.9807 274.015 78.5252C273.887 77.9261 273.559 77.3884 273.085 77.0003C272.522 76.5371 271.888 76.1677 271.208 75.9061C270.443 75.6271 269.709 75.2722 269.015 74.8466C268.288 74.3357 267.733 73.6156 267.426 72.7821C267.087 71.8845 266.931 70.9286 266.965 69.9699C267.015 67.9896 267.564 66.133 267.698 64.3853C267.832 62.6376 267.609 60.9988 266.866 59.8651C266.308 58.9533 265.422 58.2891 264.391 58.0085C264.114 57.9388 263.829 57.9105 263.544 57.9243C263.445 57.9259 263.347 57.9409 263.252 57.9689C263.628 57.9664 264.002 58.013 264.366 58.1075C265.347 58.4176 266.179 59.0787 266.703 59.9641C267.391 61.0632 267.629 62.6574 267.455 64.3655C267.282 66.0735 266.752 67.9301 266.693 69.965C266.661 70.9587 266.83 71.9487 267.188 72.8761C267.519 73.7568 268.112 74.5152 268.886 75.0496C269.597 75.4762 270.348 75.8312 271.129 76.1091C271.791 76.3547 272.411 76.7021 272.966 77.1389C273.418 77.4967 273.739 77.9949 273.877 78.5549C273.967 78.9812 273.926 79.425 273.758 79.8273C273.605 80.1715 273.342 80.4554 273.01 80.6343Z" fill="#455A64"/>
<path d="M236.349 52.0381C236.28 51.986 236.203 51.9443 236.121 51.9143C236.029 51.8687 235.933 51.8306 235.834 51.8005C235.697 51.7536 235.556 51.7188 235.413 51.6965C234.944 51.6224 234.464 51.6561 234.009 51.7951C233.554 51.934 233.137 52.1746 232.789 52.4985C232.437 52.9279 232.173 53.4229 232.013 53.9549C231.854 54.4869 231.801 55.0453 231.859 55.5978C231.925 56.2841 232.128 56.95 232.457 57.5563C232.785 58.1626 233.231 58.697 233.77 59.1278C235.007 60.1247 236.514 60.7298 238.097 60.8656C239.816 61.0135 241.547 60.9084 243.236 60.5537C245.913 60.0292 248.478 59.037 250.811 57.6228C251.811 57.0041 252.857 56.4629 253.94 56.0038C254.884 55.6205 255.891 55.4141 256.91 55.3948C258.393 55.3627 259.861 55.7032 261.178 56.385C261.654 56.6515 262.115 56.9441 262.559 57.2613C262.163 56.8719 261.715 56.5387 261.228 56.2711C259.907 55.5352 258.417 55.1547 256.905 55.1671C255.861 55.1751 254.828 55.3748 253.856 55.7563C252.761 56.2148 251.704 56.756 250.692 57.3752C248.375 58.7602 245.835 59.7334 243.186 60.2517C241.523 60.6041 239.816 60.7125 238.122 60.5735C236.587 60.4462 235.124 59.8674 233.918 58.91C233.399 58.4999 232.968 57.9905 232.648 57.4116C232.328 56.8327 232.127 56.1959 232.057 55.5384C231.996 55.0116 232.04 54.478 232.186 53.9683C232.332 53.4585 232.578 52.9826 232.908 52.5678C233.238 52.2528 233.634 52.0151 234.068 51.8721C234.501 51.7291 234.961 51.6843 235.413 51.741C235.734 51.8112 236.047 51.9106 236.349 52.0381Z" fill="#455A64"/>
<path d="M239.245 47.7061C239.227 48.1039 239.29 48.5012 239.428 48.8745C239.815 49.9062 240.537 50.778 241.478 51.3499C242.111 51.7621 242.814 52.0542 243.553 52.2114C244.399 52.3821 245.267 52.4271 246.127 52.3451C247.944 52.2114 249.845 51.5876 251.84 51.0727C253.836 50.5578 255.831 50.2855 257.554 50.7459C259.083 51.1511 260.443 52.034 261.435 53.266C262.118 54.0842 262.624 55.035 262.921 56.0583C263.119 56.7861 263.143 57.2118 263.178 57.2069C263.185 57.1047 263.185 57.0022 263.178 56.8999C263.151 56.6081 263.103 56.3185 263.034 56.0335C262.77 54.9779 262.279 53.9928 261.594 53.1471C260.592 51.8646 259.203 50.9392 257.633 50.5083C255.851 50.0132 253.801 50.2954 251.796 50.8152C249.791 51.3351 247.904 51.9589 246.127 52.1025C245.29 52.1891 244.444 52.1541 243.617 51.9985C242.901 51.8529 242.217 51.5813 241.597 51.1965C240.679 50.6552 239.96 49.8322 239.547 48.8497C239.415 48.4776 239.314 48.0951 239.245 47.7061Z" fill="#455A64"/>
<path d="M241.774 80.5605C241.84 81.0716 241.975 81.5713 242.176 82.0458C242.281 82.2802 242.434 82.4896 242.626 82.6603C242.818 82.831 243.044 82.959 243.289 83.0359C243.555 83.0908 243.83 83.0783 244.089 82.9996C244.349 82.9209 244.584 82.7785 244.775 82.5854C245.154 82.1854 245.399 81.6762 245.473 81.1298C245.552 80.6347 245.473 80.0159 244.978 79.8574C244.778 79.8079 244.569 79.8079 244.369 79.8574L241.626 80.3525" fill="#AA6550"/>
<path d="M242.254 82.6403C242.691 82.8081 243.154 82.8953 243.621 82.8977C244.105 82.8693 244.56 82.6609 244.898 82.3135C245.098 82.101 245.25 81.8486 245.345 81.5729C245.439 81.2973 245.475 81.0046 245.448 80.7144C245.433 80.5656 245.4 80.4192 245.349 80.2787C245.284 80.145 245.304 80.1549 245.19 80.1401C245.076 80.1252 244.898 80.1401 244.75 80.1648L244.289 80.1995C243.695 80.244 243.16 80.2787 242.71 80.3034C242.216 80.3721 241.715 80.3621 241.225 80.2737C241.688 80.1047 242.173 80.0046 242.665 79.9767C243.111 79.9123 243.656 79.848 244.235 79.7786L244.69 79.7291C244.854 79.7051 245.02 79.6902 245.185 79.6846C245.316 79.6881 245.443 79.7332 245.547 79.8133C245.639 79.895 245.709 79.999 245.75 80.1153C245.817 80.2936 245.86 80.4801 245.879 80.6698C245.911 81.0262 245.864 81.3855 245.742 81.7218C245.62 82.0582 245.424 82.3633 245.171 82.6155C244.748 83.0173 244.184 83.2362 243.601 83.2245C243.22 83.226 242.847 83.1215 242.522 82.9225C242.353 82.7839 242.24 82.6601 242.254 82.6403Z" fill="#263238"/>
<path d="M239.799 90.6855C239.799 90.6855 244.789 92.5768 249.646 91.1806C249.646 91.1806 245.983 94.2552 239.299 93.0769L239.799 90.6855Z" fill="#AA6550"/>
<path d="M247.413 161.666C247.172 161.509 246.944 161.333 246.73 161.141C246.517 160.968 246.234 160.755 245.932 160.527C245.63 160.3 245.264 160.032 244.843 159.76C244.422 159.488 243.987 159.191 243.477 158.908C242.967 158.626 242.427 158.329 241.848 158.032C239.308 156.782 236.577 155.966 233.768 155.616C233.119 155.547 232.505 155.468 231.926 155.453C231.347 155.438 230.807 155.413 230.317 155.418C229.827 155.423 229.377 155.448 228.985 155.463C228.594 155.477 228.258 155.507 227.995 155.537C227.712 155.58 227.425 155.6 227.139 155.596C227.417 155.525 227.7 155.472 227.985 155.438C228.313 155.382 228.644 155.342 228.975 155.319C229.367 155.289 229.812 155.235 230.312 155.235C230.812 155.235 231.352 155.205 231.936 155.235C232.52 155.265 233.144 155.314 233.798 155.374C235.214 155.55 236.615 155.838 237.986 156.235C239.347 156.653 240.672 157.181 241.947 157.814C242.526 158.121 243.086 158.403 243.576 158.72C244.066 159.037 244.531 159.319 244.937 159.607C245.343 159.894 245.7 160.171 246.012 160.409C246.324 160.646 246.581 160.874 246.784 161.062C247.01 161.246 247.22 161.448 247.413 161.666Z" fill="#FAFAFA"/>
<path d="M218.317 136.239L222.377 118.648C223.931 112.033 225.773 105.676 228.867 104.924V106.969L227.541 157.226C227.541 157.226 219.268 166.632 208.727 161.414C205.43 159.775 199.414 148.264 199.414 148.264C199.414 148.264 185.418 123.292 186.002 122.158C186.586 121.024 195.137 110.003 196.008 109.454L218.317 136.239Z" fill="#0C9CFF"/>
<path d="M260.092 99.943C268.162 101.488 277.247 106.196 281.431 118.261C282.956 122.668 294.066 155.151 294.066 155.151L275.118 154.755L272.059 148.066L273.544 158.933L274.826 174.43L226.98 175.237L227.317 151.888L227.778 105.448C227.778 105.448 228.312 104.745 236.565 100.196C241.685 97.3685 260.092 99.943 260.092 99.943Z" fill="#0C9CFF"/>
<g opacity="0.2">
<path opacity="0.2" d="M264.865 131.005C265.653 140.808 266.554 143.838 267.341 153.641C267.36 154.569 267.527 155.488 267.836 156.364C268.001 156.799 268.267 157.189 268.611 157.503C268.955 157.817 269.368 158.046 269.816 158.171C271.213 158.453 273.025 159.463 273.416 158.096L272.094 148.655C271.81 147.281 271.371 145.945 270.787 144.669C267.851 138.149 266.767 137.768 264.846 131.005" fill="black"/>
</g>
<path d="M236.561 105.221L236.719 104.201L238.249 94.4184C238.293 94.134 238.443 93.8769 238.669 93.6987C238.895 93.5205 239.18 93.4345 239.467 93.4579L258.305 95.0323C258.874 95.079 259.402 95.3488 259.773 95.7829C260.143 96.2169 260.328 96.78 260.285 97.3493L259.865 103.033L253.983 110.707L245.512 112.029" fill="#0C9CFF"/>
<path d="M227.1 123.613C227.175 123.613 227.229 131.277 227.229 140.729C227.229 150.18 227.175 157.844 227.1 157.844C227.026 157.844 226.972 150.18 226.972 140.729C226.972 131.277 227.031 123.613 227.1 123.613Z" fill="#263238"/>
<path d="M275.525 156.33C275.525 156.33 275.525 156.295 275.465 156.221C275.406 156.147 275.371 156.023 275.307 155.884L274.733 154.582L272.668 149.775L265.94 133.877C264.633 130.768 263.39 127.808 262.261 125.109C261.69 123.845 261.281 122.515 261.043 121.149C260.834 119.955 260.725 118.746 260.716 117.534C260.653 115.779 260.908 114.026 261.469 112.361L261.622 111.95L261.796 111.603C261.877 111.419 261.977 111.243 262.093 111.078L262.301 110.771C262.325 110.736 262.351 110.703 262.38 110.672C262.054 111.22 261.781 111.797 261.563 112.395C261.045 114.057 260.82 115.796 260.9 117.534C260.908 120.116 261.446 122.669 262.479 125.035L266.177 133.793L272.836 149.72L274.817 154.557L275.346 155.879L275.48 156.226C275.498 156.259 275.513 156.294 275.525 156.33Z" fill="#263238"/>
<path d="M265.965 101.671C265.792 101.847 265.609 102.012 265.416 102.166C264.859 102.59 264.252 102.945 263.609 103.221C262.589 103.646 261.522 103.945 260.43 104.112C258.987 104.336 257.532 104.48 256.073 104.542C254.449 104.612 252.677 104.582 250.776 104.617C248.756 104.613 246.744 104.859 244.785 105.349C242.615 105.862 240.65 107.021 239.151 108.672C238.404 109.571 237.869 110.627 237.586 111.761C237.284 112.924 237.305 114.148 237.646 115.301C237.835 115.87 238.114 116.405 238.473 116.885C238.833 117.352 239.289 117.736 239.809 118.014C240.314 118.29 240.89 118.411 241.463 118.361C242.024 118.303 242.543 118.038 242.919 117.618C243.253 117.176 243.491 116.669 243.618 116.129C243.744 115.589 243.755 115.028 243.651 114.484C243.569 113.946 243.402 113.425 243.156 112.939C242.912 112.466 242.618 112.019 242.28 111.607C240.957 110.082 239.174 109.028 237.2 108.602C235.49 108.199 233.707 108.219 232.007 108.662C230.608 109.023 229.272 109.596 228.046 110.36C227.112 110.942 226.231 111.605 225.412 112.34C224.734 112.934 224.254 113.449 223.927 113.786L223.56 114.182C223.52 114.229 223.476 114.272 223.427 114.311C224.01 113.574 224.656 112.89 225.358 112.266C226.168 111.516 227.047 110.843 227.982 110.256C229.22 109.468 230.573 108.877 231.992 108.503C233.72 108.04 235.536 108.009 237.279 108.414C239.304 108.841 241.135 109.917 242.493 111.479C242.839 111.892 243.141 112.34 243.394 112.815C243.644 113.325 243.811 113.872 243.889 114.434C243.976 115.008 243.966 115.592 243.859 116.162C243.753 116.756 243.491 117.311 243.102 117.771C242.686 118.238 242.11 118.533 241.488 118.598C240.863 118.657 240.236 118.528 239.686 118.227C239.133 117.932 238.649 117.524 238.265 117.029C237.887 116.525 237.593 115.963 237.393 115.365C237.038 114.168 237.017 112.895 237.334 111.687C237.623 110.513 238.177 109.42 238.953 108.493C240.489 106.809 242.497 105.627 244.716 105.102C246.697 104.618 248.731 104.381 250.771 104.399C252.677 104.369 254.449 104.399 256.063 104.354C257.517 104.304 258.966 104.173 260.405 103.963C261.491 103.807 262.554 103.525 263.574 103.122C264.214 102.862 264.822 102.529 265.386 102.131C265.584 101.998 265.718 101.874 265.817 101.805C265.862 101.755 265.911 101.711 265.965 101.671Z" fill="#FAFAFA"/>
<path d="M282.337 122.277C282.267 122.296 282.196 122.308 282.124 122.312C281.985 122.312 281.782 122.346 281.515 122.356C280.767 122.381 280.018 122.363 279.272 122.302C278.327 122.232 277.208 122.089 275.97 121.916C274.732 121.742 273.376 121.559 271.94 121.485C270.597 121.412 269.251 121.513 267.934 121.787C266.858 122.006 265.825 122.399 264.875 122.95C264.014 123.476 263.251 124.146 262.617 124.931C262.644 124.864 262.681 124.803 262.726 124.747C262.831 124.573 262.95 124.407 263.083 124.252C263.562 123.666 264.136 123.164 264.781 122.767C265.737 122.183 266.785 121.765 267.88 121.529C269.217 121.237 270.588 121.127 271.955 121.203C273.405 121.277 274.767 121.475 276.005 121.658C277.242 121.841 278.351 122.005 279.287 122.094C280.223 122.183 280.99 122.222 281.515 122.227C281.79 122.227 282.064 122.244 282.337 122.277Z" fill="#FAFAFA"/>
<path d="M270.441 144.472C269.51 144.256 268.553 144.174 267.599 144.23C266.48 144.305 265.373 144.503 264.297 144.819C263.034 145.16 261.623 145.66 260.039 146.151C258.318 146.734 256.518 147.046 254.702 147.076C252.61 147.076 250.541 146.646 248.622 145.814C246.489 144.913 244.592 143.534 243.077 141.784C242.257 140.869 241.588 139.83 241.096 138.704C240.573 137.54 240.376 136.254 240.527 134.986C240.699 133.708 241.323 132.533 242.285 131.674C242.762 131.257 243.335 130.965 243.953 130.823C244.557 130.695 245.184 130.712 245.78 130.873C246.376 131.034 246.926 131.334 247.384 131.748C247.831 132.159 248.143 132.696 248.275 133.288C248.403 133.868 248.357 134.473 248.142 135.026C247.933 135.558 247.618 136.041 247.216 136.447C246.448 137.216 245.52 137.806 244.498 138.175C244.016 138.357 243.519 138.495 243.012 138.586C242.765 138.63 242.517 138.685 242.275 138.719L241.537 138.808C239.728 138.988 237.902 138.859 236.136 138.427C234.679 138.08 233.276 137.541 231.962 136.823C230.969 136.286 230.037 135.642 229.184 134.902L228.689 134.471L228.283 134.06C228.064 133.853 227.859 133.631 227.669 133.397L227.313 132.971C227.272 132.925 227.236 132.875 227.204 132.823C227.252 132.864 227.297 132.908 227.338 132.956L227.709 133.362C227.905 133.59 228.115 133.804 228.338 134.006L228.749 134.407L229.244 134.828C230.1 135.548 231.031 136.173 232.021 136.694C233.328 137.393 234.722 137.915 236.165 138.249C237.914 138.665 239.72 138.783 241.507 138.596L242.23 138.506C242.473 138.467 242.725 138.412 242.963 138.368C243.458 138.278 243.944 138.142 244.414 137.962C245.402 137.602 246.3 137.029 247.042 136.283C247.421 135.9 247.718 135.444 247.914 134.942C248.108 134.432 248.151 133.876 248.038 133.343C247.891 132.797 247.598 132.303 247.19 131.912C246.783 131.521 246.276 131.249 245.726 131.125C245.161 130.962 244.565 130.945 243.993 131.076C243.42 131.206 242.89 131.48 242.453 131.872C241.536 132.689 240.944 133.808 240.785 135.026C240.643 136.246 240.831 137.482 241.329 138.605C241.808 139.704 242.456 140.722 243.25 141.621C244.74 143.338 246.603 144.693 248.696 145.581C250.585 146.406 252.621 146.837 254.682 146.849C256.48 146.827 258.263 146.526 259.969 145.958C261.549 145.462 262.94 144.997 264.242 144.665C265.329 144.36 266.447 144.176 267.574 144.116C267.985 144.09 268.396 144.09 268.807 144.116C269.158 144.17 269.46 144.195 269.698 144.249L270.238 144.383C270.309 144.403 270.377 144.433 270.441 144.472Z" fill="#FAFAFA"/>
<path d="M226.936 139.19C226.892 139.19 226.664 138.695 226.184 137.863C224.927 135.752 223.094 134.043 220.901 132.937C220.059 132.511 219.505 132.323 219.52 132.278C219.659 132.29 219.796 132.322 219.926 132.372C220.286 132.48 220.638 132.612 220.98 132.768C222.115 133.286 223.158 133.983 224.07 134.833C224.983 135.682 225.751 136.676 226.342 137.774C226.529 138.103 226.695 138.443 226.837 138.794C226.888 138.921 226.921 139.054 226.936 139.19Z" fill="#FAFAFA"/>
<path d="M207.727 160.379C207.727 160.379 207.692 160.34 207.648 160.256C207.603 160.171 207.529 160.038 207.445 159.884C207.266 159.558 207.009 159.067 206.692 158.434C205.772 156.645 205.014 154.777 204.425 152.854C204.031 151.518 203.793 150.141 203.717 148.75C203.677 147.973 203.709 147.194 203.811 146.423C203.934 145.607 204.129 144.803 204.395 144.022C204.973 142.332 205.973 140.819 207.301 139.625C208.01 138.974 208.844 138.474 209.752 138.155C210.66 137.836 211.623 137.705 212.584 137.768C213.582 137.843 214.513 138.297 215.188 139.036C215.509 139.402 215.742 139.835 215.87 140.305C215.998 140.774 216.017 141.266 215.926 141.744C215.819 142.213 215.574 142.639 215.223 142.967C214.879 143.281 214.465 143.507 214.015 143.625C213.143 143.852 212.218 143.741 211.425 143.314C210.69 142.917 210.047 142.368 209.539 141.705C209.052 141.09 208.651 140.412 208.346 139.689C207.81 138.393 207.588 136.989 207.697 135.59C207.797 134.436 208.134 133.315 208.687 132.298C209.097 131.53 209.621 130.829 210.242 130.218C210.63 129.831 211.056 129.484 211.514 129.184C211.668 129.08 211.797 129.015 211.881 128.966L212.009 128.901C212.009 128.901 211.851 129.015 211.544 129.228C211.102 129.543 210.689 129.898 210.311 130.288C209.718 130.903 209.218 131.602 208.826 132.362C208.3 133.367 207.985 134.469 207.9 135.6C207.804 136.971 208.035 138.346 208.573 139.61C208.874 140.311 209.267 140.969 209.742 141.566C210.234 142.201 210.855 142.726 211.564 143.106C212.304 143.504 213.167 143.607 213.98 143.393C214.397 143.295 214.779 143.085 215.083 142.784C215.388 142.484 215.604 142.105 215.708 141.69C215.786 141.252 215.766 140.803 215.648 140.374C215.529 139.946 215.316 139.549 215.025 139.214C214.393 138.525 213.521 138.103 212.589 138.036C211.664 137.975 210.736 138.102 209.861 138.409C208.986 138.716 208.183 139.197 207.499 139.823C206.203 140.989 205.224 142.464 204.652 144.111C204.385 144.875 204.188 145.662 204.063 146.462C203.96 147.22 203.926 147.986 203.959 148.75C204.029 150.126 204.255 151.489 204.633 152.814C205.203 154.733 205.932 156.601 206.811 158.399L207.519 159.884C207.593 160.043 207.653 160.171 207.702 160.271C207.752 160.37 207.727 160.379 207.727 160.379Z" fill="#FAFAFA"/>
<path d="M201.612 116.672C201.612 116.672 201.637 116.742 201.657 116.875C201.692 117.075 201.717 117.277 201.731 117.479C201.797 118.219 201.797 118.963 201.731 119.702C201.531 122.165 200.689 124.532 199.289 126.567C197.888 128.603 195.979 130.235 193.75 131.302C193.083 131.628 192.389 131.895 191.676 132.099C191.428 132.179 191.225 132.213 191.092 132.248C190.958 132.283 190.884 132.288 190.884 132.278C191.132 132.171 191.387 132.08 191.646 132.005C192.341 131.765 193.017 131.475 193.671 131.139C195.84 130.043 197.699 128.42 199.076 126.418C200.453 124.416 201.305 122.1 201.553 119.683C201.631 118.953 201.659 118.218 201.637 117.484C201.611 117.214 201.603 116.943 201.612 116.672Z" fill="#FAFAFA"/>
<path d="M286.67 138.14C285.933 138.601 285.286 139.192 284.759 139.883C284.263 140.521 283.768 141.368 283.209 142.259C282.595 143.257 281.887 144.194 281.095 145.056C279.645 146.622 277.927 147.915 276.02 148.873C275.446 149.164 274.854 149.417 274.248 149.631C274.026 149.718 273.798 149.784 273.564 149.829C273.769 149.712 273.985 149.614 274.208 149.537C274.624 149.354 275.228 149.096 275.936 148.71C277.786 147.716 279.459 146.423 280.887 144.883C281.671 144.034 282.376 143.114 282.991 142.135C283.483 141.317 284.02 140.527 284.6 139.769C285.003 139.26 285.482 138.818 286.021 138.457C286.167 138.36 286.321 138.275 286.481 138.204C286.61 138.155 286.67 138.13 286.67 138.14Z" fill="#FAFAFA"/>
<path d="M259.915 100.538C259.843 100.569 259.766 100.589 259.687 100.597L259.029 100.716C258.455 100.81 257.623 100.934 256.598 101.072C254.538 101.35 251.687 101.676 248.523 101.909C247.042 102.044 245.554 102.097 244.067 102.068C242.84 102.038 241.625 101.829 240.458 101.449C239.67 101.193 238.927 100.818 238.255 100.335C238.071 100.205 237.896 100.065 237.73 99.9139C237.621 99.8049 237.567 99.7505 237.572 99.7406C237.577 99.7307 237.829 99.9386 238.309 100.236C238.993 100.675 239.735 101.019 240.512 101.256C241.669 101.607 242.869 101.794 244.077 101.81C245.564 101.826 247.052 101.766 248.533 101.632C251.687 101.399 254.538 101.107 256.598 100.874L259.039 100.597C259.329 100.557 259.622 100.537 259.915 100.538Z" fill="#263238"/>
<path d="M293.844 158.656C294.217 160.572 294.164 162.546 293.688 164.438C293.213 166.331 292.327 168.095 291.093 169.607C289.86 171.119 288.309 172.341 286.55 173.186C284.792 174.032 282.869 174.48 280.917 174.499L243.414 174.084L244.404 161.939L276.516 157.117" fill="#B78876"/>
<path d="M246.701 162.469C246.528 162.523 244.364 161.553 242.423 160.657C240.365 159.703 238.105 159.264 235.839 159.379L226.897 159.835C226.897 159.835 227.447 161.32 228.382 161.815C229.318 162.31 234.928 162.469 234.928 162.469L234.64 162.761C233.468 163.969 231.868 164.669 230.185 164.711H229.328C228.694 164.661 228.068 164.538 227.462 164.345L225.258 163.454C224.59 163.157 223.887 163.201 223.595 163.875C223.303 164.548 223.526 165.32 225.348 166.236C226.363 166.731 230.135 168.053 230.135 168.053C230.161 168.59 230.236 169.124 230.358 169.647C230.521 170.197 232.002 170.747 232.002 170.747C232.386 171.561 232.826 172.349 233.319 173.103C233.492 173.301 234.834 173.722 236.264 174.123C238.571 174.769 241.013 174.75 243.31 174.069L246.716 173.049V162.652" fill="#B78876"/>
<path d="M234.472 169.256C232.897 169.216 231.353 168.81 229.962 168.068C229.962 168.009 230.952 168.385 232.205 168.707C233.457 169.029 234.477 169.182 234.472 169.256Z" fill="#AA6550"/>
<path d="M234.155 171.341C233.735 171.428 233.299 171.395 232.897 171.247C232.477 171.169 232.087 170.978 231.769 170.692C232.173 170.773 232.571 170.887 232.957 171.034C233.363 171.105 233.764 171.208 234.155 171.341Z" fill="#AA6550"/>
<path d="M235.789 161.661C235.594 161.937 235.362 162.185 235.101 162.399C234.508 162.965 233.854 163.463 233.151 163.884C232.442 164.298 231.671 164.595 230.868 164.765C230.545 164.852 230.212 164.888 229.878 164.874C230.984 164.62 232.053 164.222 233.056 163.691C233.744 163.276 234.398 162.808 235.012 162.29C235.252 162.058 235.512 161.847 235.789 161.661Z" fill="#AA6550"/>
<path d="M247.612 160.84L246.701 174.573H282.026C284.425 174.575 286.778 173.923 288.834 172.687C291.16 171.289 292.999 169.209 294.101 166.728C295.203 164.248 295.515 161.488 294.993 158.825C294.484 156.216 293.722 153.664 292.715 151.205L274.951 154.131L275.521 156.339L247.612 160.84Z" fill="#0C9CFF"/>
<path d="M283.704 155.186C283.587 155.22 283.468 155.246 283.348 155.265L282.313 155.453L278.496 156.087L265.94 158.067L253.37 159.993L249.557 160.548L248.518 160.686C248.396 160.703 248.274 160.713 248.151 160.716C248.269 160.675 248.39 160.647 248.513 160.632L249.543 160.449L253.345 159.81L265.9 157.83L278.496 155.889L282.308 155.334L283.348 155.196C283.466 155.18 283.585 155.176 283.704 155.186Z" fill="#263238"/>
<path d="M265.624 174.583C265.559 174.583 265.837 173.593 265.871 171.974C265.879 171.534 265.861 171.094 265.817 170.657C265.774 170.158 265.702 169.662 265.599 169.172C265.354 168.042 264.968 166.948 264.45 165.914C263.92 164.885 263.272 163.921 262.52 163.042L262.024 162.463C261.856 162.275 261.673 162.112 261.505 161.943C261.173 161.602 260.821 161.329 260.514 161.067C259.252 160.077 258.356 159.582 258.385 159.537C258.605 159.625 258.815 159.732 259.014 159.859C259.261 159.987 259.499 160.131 259.727 160.29C259.99 160.478 260.316 160.661 260.628 160.928C260.985 161.195 261.325 161.483 261.648 161.79C261.821 161.958 262.015 162.117 262.188 162.285L262.727 162.869C263.503 163.754 264.168 164.73 264.708 165.775C265.232 166.83 265.618 167.949 265.856 169.102C265.958 169.607 266.024 170.118 266.054 170.632C266.086 171.077 266.086 171.524 266.054 171.969C266.045 172.339 266.012 172.707 265.955 173.073C265.928 173.349 265.88 173.622 265.812 173.89C265.769 174.126 265.706 174.358 265.624 174.583Z" fill="#FAFAFA"/>
<path d="M287.13 173.548C286.578 173.545 286.029 173.48 285.491 173.355C284.858 173.21 284.243 172.992 283.659 172.707C282.885 172.322 282.186 171.802 281.595 171.172C280.877 170.399 280.356 169.465 280.075 168.449C279.918 167.884 279.83 167.302 279.812 166.716C279.777 166.097 279.827 165.475 279.961 164.869C280.093 164.224 280.342 163.609 280.694 163.052C281.061 162.462 281.572 161.975 282.179 161.636C282.807 161.27 283.528 161.098 284.253 161.141C284.626 161.167 284.99 161.268 285.323 161.438C285.655 161.609 285.95 161.844 286.189 162.131C286.437 162.415 286.623 162.746 286.735 163.105C286.848 163.464 286.884 163.842 286.843 164.216C286.782 164.579 286.641 164.923 286.43 165.225C286.22 165.526 285.945 165.777 285.625 165.959C284.426 166.586 283.047 166.775 281.724 166.493C279.846 166.201 278.129 165.26 276.871 163.835C275.614 162.41 274.894 160.59 274.837 158.691C274.805 158.139 274.852 157.585 274.975 157.047C274.93 157.592 274.916 158.139 274.936 158.686C275.028 160.176 275.515 161.615 276.347 162.854C276.967 163.764 277.766 164.538 278.696 165.128C279.625 165.718 280.666 166.112 281.753 166.285C283.017 166.557 284.337 166.382 285.486 165.79C285.773 165.628 286.021 165.404 286.211 165.134C286.401 164.864 286.529 164.556 286.585 164.231C286.615 163.892 286.577 163.551 286.474 163.226C286.371 162.902 286.205 162.602 285.985 162.342C285.766 162.082 285.497 161.868 285.195 161.712C284.893 161.556 284.563 161.461 284.224 161.433C283.552 161.388 282.882 161.541 282.298 161.874C281.748 162.203 281.275 162.646 280.912 163.174C280.549 163.702 280.304 164.302 280.194 164.934C280.06 165.521 280.008 166.124 280.04 166.726C280.054 167.293 280.135 167.857 280.283 168.404C280.544 169.394 281.04 170.306 281.728 171.063C282.295 171.684 282.965 172.202 283.709 172.593C284.279 172.884 284.881 173.112 285.501 173.271C286.541 173.504 287.135 173.514 287.13 173.548Z" fill="#FAFAFA"/>
<path d="M147.004 23.9316H58.5358C53.3649 23.9316 48.4058 25.9858 44.7495 29.6421C41.0931 33.2985 39.039 38.2576 39.039 43.4284V74.956H19.9531L39.039 94.0419V115.474C39.039 120.645 41.0931 125.604 44.7495 129.261C48.4058 132.917 53.3649 134.971 58.5358 134.971H147.004C152.175 134.971 157.134 132.917 160.79 129.261C164.447 125.604 166.501 120.645 166.501 115.474V43.4284C166.501 38.2576 164.447 33.2985 160.79 29.6421C157.134 25.9858 152.175 23.9316 147.004 23.9316Z" fill="#0C9CFF"/>
<path d="M110.863 27.2634C110.303 28.714 111.264 30.2934 112.348 31.4123C113.432 32.5312 114.729 33.5907 115.071 35.1057C115.353 36.378 114.883 37.7 114.997 38.9971C115.111 40.2942 115.829 41.5171 116.235 42.7846C116.972 45.0818 116.675 47.5919 116.017 49.9139C115.542 51.8434 114.634 53.6397 113.363 55.1669C112.723 55.9232 111.929 56.535 111.035 56.9618C110.14 57.3885 109.165 57.6205 108.174 57.6423C107.894 57.6599 107.613 57.6198 107.349 57.5244C107.085 57.429 106.844 57.2804 106.64 57.0878C106.362 56.6873 106.209 56.2136 106.199 55.7263C105.065 45.7576 105.065 35.6924 106.199 25.7236" fill="#263238"/>
<path d="M109.818 59.3905C114.125 59.2024 118.106 63.3265 117.764 67.6239C122.126 68.6884 125.19 73.4858 124.354 77.8922C124.072 79.3478 123.423 80.734 123.334 82.2094C123.235 83.8234 123.829 85.3928 124.121 86.9771C124.682 89.8646 124.382 92.8532 123.26 95.572C122.581 97.2107 121.314 98.904 119.541 98.9535C118.941 98.9282 118.356 98.7555 117.838 98.4507C117.32 98.146 116.885 97.7184 116.571 97.2058C115.954 96.168 115.547 95.0191 115.373 93.8243C114.605 89.9527 114.383 85.9771 113.313 82.1797C112.244 78.3823 110.164 74.6394 106.733 72.7135C104.837 71.6441 102.56 71.1391 101.05 69.5696C100.29 68.7131 99.7837 67.6621 99.5869 66.5343C99.3902 65.4064 99.511 64.2461 99.9357 63.1829C100.381 62.1293 101.043 61.1813 101.879 60.4008C102.715 59.6202 103.706 59.0246 104.788 58.6528" fill="#263238"/>
<path d="M80.0035 30.8136C79.954 28.9718 81.6522 27.5509 83.3652 26.8528C85.0782 26.1547 86.9843 25.922 88.5092 24.8724C89.8658 23.9615 90.7718 22.5406 91.9155 21.4068C93.3277 19.9747 95.0956 18.9442 97.0377 18.4211C98.9798 17.8981 101.026 17.9014 102.967 18.4306C104.907 18.9598 106.672 19.9959 108.079 21.4325C109.487 22.8691 110.487 24.6545 110.977 26.6053C111.635 29.2243 111.184 32.3236 109.12 34.0663C106.724 36.0863 103.179 35.6358 100.094 35.007C97.01 34.3782 93.5443 33.7594 90.9797 35.5665C89.435 36.6507 88.5439 38.4232 87.5982 40.0619C86.6526 41.7007 85.4693 43.3691 83.682 43.988C81.8947 44.6069 79.4638 43.5375 79.3945 41.6512" fill="#263238"/>
<path d="M87.2612 31.1899C86.4946 31.2728 85.787 31.6402 85.2783 32.2196C84.7695 32.7989 84.4966 33.548 84.5134 34.3189L86.3502 75.9068C86.4294 80.8181 93.6083 83.5758 98.8662 83.452C104.179 83.3282 104.347 80.724 104.416 76.0504C104.525 68.2477 104.515 65.3167 104.52 65.3613C104.525 65.4058 111.229 64.2325 112.6 55.4594C113.278 51.1075 113.046 43.9683 112.664 38.1311C112.323 32.8782 108.827 26.442 103.594 27.0064L87.2612 31.1899Z" fill="#FFBE9D"/>
<path d="M111.155 43.6465C111.158 43.9387 111.047 44.2205 110.845 44.4322C110.644 44.6438 110.368 44.7687 110.076 44.7802C109.934 44.7924 109.792 44.7764 109.657 44.733C109.522 44.6896 109.397 44.6199 109.289 44.5277C109.181 44.4356 109.093 44.3229 109.029 44.1962C108.965 44.0696 108.927 43.9315 108.917 43.7901C108.913 43.4975 109.024 43.2149 109.225 43.003C109.427 42.7911 109.704 42.6666 109.996 42.6563C110.138 42.6441 110.28 42.6602 110.415 42.7035C110.55 42.7469 110.675 42.8167 110.783 42.9088C110.891 43.001 110.979 43.1136 111.043 43.2403C111.107 43.3669 111.145 43.505 111.155 43.6465Z" fill="#263238"/>
<path d="M111.125 41.8637C110.986 42.0122 110.134 41.3686 108.926 41.3686C107.718 41.3686 106.832 41.9825 106.698 41.834C106.634 41.7696 106.778 41.5023 107.164 41.2201C107.685 40.8571 108.306 40.6651 108.941 40.6705C109.57 40.6668 110.184 40.8627 110.694 41.23C111.065 41.5221 111.194 41.7993 111.125 41.8637Z" fill="#263238"/>
<path d="M99.5446 43.6465C99.5474 43.9387 99.4363 44.2205 99.2348 44.4322C99.0333 44.6438 98.7573 44.7687 98.4653 44.7802C98.324 44.7924 98.1816 44.7764 98.0466 44.733C97.9116 44.6896 97.7865 44.6199 97.6787 44.5277C97.5709 44.4356 97.4825 44.3229 97.4186 44.1962C97.3548 44.0696 97.3167 43.9315 97.3067 43.7901C97.3027 43.4975 97.4134 43.2149 97.6151 43.003C97.8169 42.7911 98.0936 42.6666 98.3861 42.6563C98.5274 42.6441 98.6697 42.6602 98.8047 42.7035C98.9398 42.7469 99.0648 42.8167 99.1726 42.9088C99.2804 43.001 99.3689 43.1136 99.4327 43.2403C99.4966 43.3669 99.5346 43.505 99.5446 43.6465Z" fill="#263238"/>
<path d="M99.2723 42.1171C99.1336 42.2656 98.2821 41.622 97.074 41.622C95.866 41.622 94.9798 42.2359 94.8511 42.0874C94.7867 42.023 94.9253 41.7557 95.3115 41.4735C95.8326 41.1097 96.4534 40.916 97.0889 40.919C97.7181 40.9167 98.3318 41.1144 98.8415 41.4834C99.1881 41.7854 99.3168 42.0527 99.2723 42.1171Z" fill="#263238"/>
<path d="M103.653 51.0679C103.653 50.9986 104.396 50.8698 105.634 50.7114C105.941 50.6768 106.233 50.6124 106.287 50.4045C106.31 50.0853 106.237 49.7666 106.079 49.4885L105.158 47.1418C103.886 43.7999 102.96 41.0521 103.099 41.0026C103.237 40.9531 104.376 43.6217 105.648 46.9438L106.53 49.3054C106.722 49.6772 106.779 50.1039 106.693 50.5134C106.65 50.6214 106.583 50.7183 106.497 50.7971C106.411 50.8759 106.309 50.9346 106.198 50.9689C106.037 51.0133 105.87 51.0366 105.703 51.0382C104.416 51.1273 103.658 51.1372 103.653 51.0679Z" fill="#263238"/>
<path d="M104.521 65.3664C100.398 65.4376 96.3357 64.3629 92.7871 62.2622C92.7871 62.2622 95.6438 68.2726 104.407 67.431L104.521 65.3664Z" fill="#EB996E"/>
<path d="M103.149 53.9793C102.915 53.6864 102.611 53.4586 102.264 53.3181C101.917 53.1776 101.539 53.1291 101.168 53.1772C100.902 53.2012 100.643 53.2789 100.407 53.4056C100.171 53.5324 99.9636 53.7057 99.7967 53.9149C99.6357 54.1169 99.5408 54.3635 99.5249 54.6212C99.5089 54.879 99.5727 55.1354 99.7076 55.3557C99.9014 55.5731 100.156 55.7272 100.439 55.7978C100.721 55.8685 101.019 55.8524 101.292 55.7517C101.862 55.5491 102.385 55.2343 102.832 54.8259C102.969 54.7302 103.086 54.6092 103.178 54.4694C103.223 54.403 103.247 54.3245 103.247 54.2442C103.247 54.1639 103.223 54.0854 103.178 54.0189" fill="#EB996E"/>
<path d="M100.099 51.9189C100.297 51.9189 100.302 53.221 101.426 54.1469C102.55 55.0727 103.946 54.9291 103.956 55.1371C103.956 55.2212 103.644 55.3945 103.055 55.4094C102.286 55.4233 101.538 55.1656 100.941 54.6816C100.37 54.2142 100.002 53.5432 99.916 52.8101C99.8615 52.2309 100.01 51.9189 100.099 51.9189Z" fill="#263238"/>
<path d="M99.7674 39.9976C99.6485 40.3293 98.4405 40.1758 97.0245 40.3491C95.6086 40.5224 94.46 40.9135 94.2718 40.6165C94.1877 40.4779 94.3857 40.1659 94.8461 39.8491C95.4609 39.454 96.1575 39.204 96.8832 39.1182C97.609 39.0324 98.3447 39.1131 99.0346 39.354C99.5743 39.5867 99.8367 39.8441 99.7674 39.9976Z" fill="#263238"/>
<path d="M110.659 38.3682C110.446 38.6405 109.614 38.3682 108.609 38.3682C107.604 38.3682 106.763 38.5563 106.57 38.2692C106.48 38.1305 106.614 37.8582 106.985 37.5958C107.482 37.285 108.06 37.128 108.646 37.1448C109.232 37.1615 109.8 37.3512 110.278 37.6899C110.659 37.9523 110.763 38.2345 110.659 38.3682Z" fill="#263238"/>
<path d="M81.1467 59.9942C82.3539 60.2382 83.6018 60.1918 84.7875 59.8586C85.9732 59.5254 87.0626 58.9151 87.966 58.078C88.8694 57.2409 89.5608 56.201 89.9831 55.044C90.4055 53.8871 90.5467 52.6463 90.3951 51.4241C90.1228 49.2705 88.9642 47.0871 89.7118 45.0473C90.702 42.3589 94.4697 41.5321 95.4698 38.8438C96.049 37.2842 95.5292 35.4573 96.1877 33.9275C96.8065 32.4917 98.3215 31.6649 99.7969 31.1302C101.272 30.5955 102.847 30.2291 104.084 29.2687C105.322 28.3082 106.09 26.4961 105.292 25.1445C98.7537 25.9291 92.3316 27.4897 86.162 29.7935C84.7312 30.3282 83.2311 30.9718 82.3844 32.2392C81.4933 33.5859 81.5378 35.3187 81.6121 36.9327C81.9785 44.7948 80.7803 52.1568 81.1467 60.0189" fill="#263238"/>
<path d="M79.0622 57.5287C79.0124 57.5212 78.964 57.5062 78.9186 57.4841C78.7773 57.4349 78.6426 57.3684 78.5176 57.2861C78.0353 56.9741 77.6563 56.5261 77.4284 55.9988C77.0537 55.1654 76.9532 54.2345 77.1413 53.3402C77.4394 52.1784 77.9811 51.0933 78.7305 50.1567C79.4979 49.0873 80.4732 48.0031 81.1367 46.6218C81.4904 45.9199 81.688 45.1497 81.7159 44.3641C81.6873 43.5303 81.52 42.7071 81.2208 41.9283C80.8871 41.0863 80.7109 40.1901 80.701 39.2845C80.7489 38.3154 81.0334 37.3729 81.5297 36.5392C82.0259 35.7055 82.7188 35.006 83.5478 34.5019C84.4368 34.0168 85.4229 33.736 86.4342 33.68C87.4127 33.632 88.3819 33.4658 89.3206 33.1849C90.2018 32.8512 90.9261 32.1994 91.3504 31.358C91.7549 30.5303 92.0766 29.6646 92.3109 28.7736C92.5614 27.9188 92.893 27.0899 93.3011 26.2982C94.0455 24.7971 95.1791 23.5233 96.5836 22.6097C97.8237 21.83 99.2746 21.4531 100.737 21.5304C101.949 21.5931 103.103 22.0663 104.01 22.8721C104.686 23.4799 105.19 24.2552 105.471 25.1199C105.653 25.6611 105.722 26.2341 105.674 26.8032C105.663 27.0011 105.63 27.1972 105.574 27.3874C105.574 27.3874 105.609 27.1844 105.624 26.7982C105.648 26.2379 105.564 25.6782 105.376 25.1496C105.036 24.1766 104.41 23.3287 103.581 22.7159C102.752 22.1032 101.758 21.7539 100.728 21.7136C99.3052 21.6509 97.8981 22.0278 96.6975 22.7929C95.3307 23.691 94.2297 24.9391 93.5091 26.4071C93.1091 27.199 92.7874 28.0281 92.5486 28.8826C92.3068 29.7896 91.9751 30.6703 91.5584 31.5115C91.3288 31.9468 91.0295 32.3415 90.6722 32.6799C90.3028 33.022 89.8684 33.2863 89.3948 33.4572C88.4302 33.7545 87.4324 33.9308 86.4243 33.982C85.4496 34.0334 84.4989 34.3024 83.6418 34.7692C82.8494 35.25 82.1865 35.9173 81.7111 36.7129C81.2356 37.5085 80.9619 38.4084 80.9139 39.334C80.9227 40.2117 81.0904 41.0806 81.409 41.8986C81.724 42.7013 81.8998 43.5518 81.9288 44.4137C81.8954 45.231 81.686 46.0314 81.3149 46.7604C80.6218 48.1764 79.6365 49.2359 78.8642 50.3102C78.1187 51.2203 77.5753 52.2784 77.27 53.4145C77.0727 54.2789 77.1542 55.1836 77.5027 55.9988C77.7168 56.5183 78.0739 56.9664 78.5325 57.291C78.8642 57.4594 79.0672 57.5089 79.0622 57.5287Z" fill="#455A64"/>
<path d="M104.506 19.3516C104.626 19.3604 104.743 19.396 104.847 19.4555C105.145 19.5816 105.423 19.7482 105.674 19.9506C106.537 20.6199 107.108 21.5959 107.27 22.6757C107.431 23.7555 107.17 24.8559 106.541 25.7482C106.358 26.0141 106.142 26.2554 105.897 26.4661C105.719 26.6146 105.61 26.6789 105.6 26.6641C105.879 26.3477 106.142 26.0172 106.387 25.6739C106.945 24.8039 107.169 23.7612 107.017 22.7389C106.865 21.7165 106.347 20.784 105.56 20.114C105.224 19.8398 104.872 19.5852 104.506 19.3516Z" fill="#455A64"/>
<path d="M123.903 79.4414C124.007 79.137 124.092 78.8261 124.156 78.5106C124.272 77.6464 124.121 76.7673 123.725 75.9906C123.114 74.8505 122.142 73.9451 120.962 73.4161C120.272 73.0894 119.55 72.8324 118.809 72.6487C118.036 72.4507 117.219 72.2873 116.402 72.02C115.58 71.7959 114.822 71.3822 114.189 70.8119C113.622 70.2442 113.256 69.5074 113.145 68.7127C113.011 67.975 112.966 67.277 112.803 66.6531C112.657 66.076 112.384 65.5384 112.006 65.0787C111.452 64.4054 110.717 63.9053 109.887 63.638C109.298 63.4598 108.946 63.4598 108.946 63.4301C109.03 63.4217 109.115 63.4217 109.199 63.4301C109.441 63.4468 109.681 63.4849 109.917 63.544C110.785 63.7834 111.561 64.2785 112.145 64.9649C112.552 65.4395 112.848 65.9995 113.011 66.6036C113.189 67.2522 113.244 67.9602 113.382 68.6731C113.484 69.4246 113.832 70.1212 114.373 70.6535C114.98 71.1925 115.703 71.5839 116.487 71.7972C117.284 72.0546 118.101 72.2229 118.878 72.4259C119.629 72.6098 120.36 72.872 121.056 73.2082C122.276 73.7665 123.27 74.721 123.878 75.9163C124.275 76.7285 124.403 77.6456 124.245 78.5354C124.198 78.7727 124.123 79.0037 124.022 79.2236C123.99 79.3001 123.95 79.3731 123.903 79.4414Z" fill="#455A64"/>
<path d="M85.82 63.9351C81.3642 62.7468 77.552 58.4049 75.9974 54.0827C74.4428 49.7605 74.4428 45.0423 74.8438 40.4676C75.1309 37.1555 75.7152 33.6502 77.9134 31.1549C81.2305 27.3922 84.8447 25.4712 89.8352 25.6297" fill="#263238"/>
<path d="M111.713 73.5894L107.579 72.5497C108.03 72.2399 108.358 71.7827 108.508 71.2568C108.658 70.7309 108.62 70.1692 108.401 69.6683C108.139 69.0262 107.706 68.4683 107.149 68.0554C106.592 67.6424 105.933 67.3903 105.242 67.3265L86.3991 65.1976C86.0697 65.1537 85.735 65.2215 85.4487 65.3903C85.1624 65.559 84.9409 65.8189 84.8198 66.1284C83.9847 68.254 83.9566 70.0033 84.7356 71.3764H84.6465L81.0125 72.0992L74.8535 126.431L115.194 124.544L111.713 73.5894Z" fill="#F5F5F5"/>
<path d="M105.782 72.7579C105.535 72.8302 105.281 72.8799 105.025 72.9064C104.53 72.9857 103.822 73.0698 102.94 73.1589C98.3282 73.5874 93.6787 73.3557 89.1321 72.4708C88.2607 72.2975 87.5627 72.139 87.0824 72.0103C86.8301 71.9614 86.5831 71.8885 86.3447 71.7925C86.6004 71.8112 86.8539 71.8527 87.1022 71.9163C87.5973 72.0103 88.2954 72.144 89.1668 72.2925C93.7087 73.0741 98.3284 73.3035 102.925 72.9758C103.807 72.9163 104.52 72.852 105.015 72.8025C105.269 72.7675 105.526 72.7526 105.782 72.7579Z" fill="#263238"/>
<path d="M87.5488 81.3927C87.9457 80.5686 88.4181 79.7829 88.9598 79.0459C89.4328 78.2623 89.9781 77.5246 90.5887 76.8428C90.1912 77.6676 89.7171 78.4533 89.1727 79.1895C88.7024 79.9737 88.1587 80.7114 87.5488 81.3927Z" fill="#E0E0E0"/>
<path d="M100.549 82.3138C99.2911 81.0217 98.1588 79.6126 97.168 78.1055C97.8276 78.7227 98.4276 79.4007 98.9602 80.1304C99.5593 80.8051 100.092 81.5363 100.549 82.3138Z" fill="#E0E0E0"/>
<path d="M94.5093 89.22C94.2247 88.3393 94.0208 87.4345 93.9003 86.5168C93.6943 85.6145 93.5766 84.6942 93.5488 83.769C93.8342 84.6496 94.038 85.5544 94.1578 86.4723C94.3583 87.3756 94.4759 88.2953 94.5093 89.22Z" fill="#E0E0E0"/>
<path d="M104.436 89.6455C103.737 90.5148 102.972 91.3292 102.148 92.0814C101.383 92.8959 100.556 93.6491 99.6729 94.3341C100.372 93.4646 101.136 92.6503 101.96 91.8982C102.728 91.0869 103.556 90.334 104.436 89.6455Z" fill="#E0E0E0"/>
<path d="M91.1225 98.9037C89.2982 97.8135 87.8122 96.2384 86.8301 94.3538C86.8994 94.3092 87.6569 95.4974 88.8501 96.75C90.0432 98.0026 91.172 98.8393 91.1225 98.9037Z" fill="#E0E0E0"/>
<path d="M95.4003 106.053C95.4003 106.127 94.2715 106.488 92.9644 107.187C91.6574 107.885 90.7019 108.617 90.6523 108.553C91.2755 107.886 92.0198 107.343 92.8456 106.954C93.6309 106.491 94.4985 106.185 95.4003 106.053Z" fill="#E0E0E0"/>
<path d="M102.357 106.513C102.062 106.263 101.797 105.979 101.57 105.666C101.114 105.122 100.505 104.344 99.8715 103.458C99.2377 102.572 98.703 101.745 98.3317 101.131C98.1107 100.814 97.9279 100.472 97.7871 100.111C98.0505 100.394 98.2844 100.702 98.4852 101.032L100.084 103.31L101.713 105.557C101.961 105.852 102.177 106.173 102.357 106.513Z" fill="#E0E0E0"/>
<path d="M103.054 112.613C102.092 112.951 101.096 113.183 100.084 113.306C99.0826 113.515 98.0619 113.616 97.0391 113.608C98.028 113.36 99.0318 113.175 100.044 113.054C101.038 112.848 102.043 112.7 103.054 112.613Z" fill="#E0E0E0"/>
<path d="M91.791 71.9911C91.7563 71.9911 91.994 71.6941 92.197 71.1693C92.4483 70.4826 92.5232 69.7437 92.4148 69.0206C92.2919 68.2918 92.0773 67.5815 91.7761 66.9065C91.6302 66.6302 91.5172 66.3378 91.4395 66.0352C91.6462 66.2725 91.8134 66.5417 91.9345 66.8323C92.2947 67.5032 92.5406 68.2293 92.6623 68.981C92.7821 69.7485 92.6772 70.5343 92.3603 71.2435C92.2497 71.5441 92.0513 71.8046 91.791 71.9911Z" fill="#E0E0E0"/>
<path d="M99.3264 67.9209C99.6794 68.407 99.9318 68.9587 100.069 69.5436C100.206 70.1285 100.224 70.7349 100.124 71.3271C100.049 71.3271 100.039 70.5399 99.8166 69.6042C99.5938 68.6685 99.272 67.9605 99.3264 67.9209Z" fill="#E0E0E0"/>
<path d="M133.314 106.632L152.078 73.6738L154.341 67.9554C154.341 67.9554 160.193 55.3801 160.599 54.0928C161.069 52.6075 161.896 52.4887 162.431 52.6967C163.262 53.0284 163.53 54.2661 163.163 55.5484C163.035 55.989 160.762 62.9005 160.762 62.9005C161.373 62.3738 162.022 61.8923 162.703 61.4598C164.144 60.4696 166.782 60.5191 169.228 61.3905C171.674 62.2619 172.278 62.7223 171.986 63.6828C171.921 63.8631 171.817 64.0265 171.681 64.1611C171.545 64.2956 171.38 64.3978 171.199 64.4601C170.623 64.7006 169.977 64.7147 169.392 64.4997C165.461 63.1629 163.718 64.9354 163.718 64.9354L163.426 65.683C163.426 65.683 166.396 64.7373 168.06 66.0741C168.308 66.2703 168.517 66.5123 168.674 66.787C169.212 66.9629 169.695 67.2763 170.075 67.6961C170.455 68.116 170.719 68.6278 170.841 69.181C170.962 69.7341 170.937 70.3094 170.768 70.8499C170.599 71.3904 170.292 71.8774 169.877 72.2628C169.696 72.4684 169.458 72.6145 169.193 72.6817C168.927 72.7489 168.648 72.734 168.392 72.639C168.151 72.4756 167.959 72.2519 167.832 71.9905C167.751 71.8596 167.66 71.7354 167.56 71.6191L166.441 73.5995C166.441 73.5995 163.683 77.9068 162.693 79.9219L149.771 114.346C149.346 115.479 148.7 116.516 147.87 117.397C147.04 118.277 146.042 118.984 144.936 119.475C143.83 119.966 142.637 120.231 141.427 120.256C140.217 120.28 139.014 120.064 137.889 119.618C136.675 119.139 135.577 118.404 134.672 117.464C133.766 116.524 133.073 115.4 132.639 114.169C132.205 112.938 132.041 111.627 132.157 110.327C132.274 109.027 132.668 107.767 133.314 106.632Z" fill="#FFBE9D"/>
<path d="M153.371 73.56C154.035 73.9957 154.95 73.6987 155.545 73.1838C156.139 72.6689 156.535 71.9609 157.109 71.4014C158.778 69.733 161.565 69.5745 163.164 67.8269C163.387 67.5843 163.585 67.2129 163.392 66.9456C163.199 66.6782 162.842 66.7277 162.545 66.7872L154.866 68.3071" fill="#FFBE9D"/>
<path d="M154.866 68.3066C155.125 68.1894 155.398 68.1061 155.678 68.059C156.208 67.9253 156.98 67.7521 157.931 67.5639L161.278 66.8559L162.268 66.6529C162.649 66.5133 163.07 66.5275 163.441 66.6926C163.547 66.7711 163.627 66.8795 163.671 67.0038C163.716 67.1282 163.722 67.2629 163.689 67.3906C163.638 67.6003 163.536 67.7942 163.392 67.955C163.133 68.2414 162.842 68.4972 162.525 68.7175C161.248 69.6037 159.847 69.9651 158.728 70.5543C158.194 70.8065 157.703 71.1406 157.272 71.5445C156.876 71.9257 156.564 72.3614 156.238 72.7327C156.002 73.0603 155.698 73.3324 155.347 73.53C154.995 73.7276 154.605 73.8458 154.203 73.8764C153.614 73.8764 153.371 73.5843 153.391 73.5793C153.649 73.6677 153.92 73.7096 154.193 73.7031C154.558 73.6426 154.907 73.5072 155.217 73.3052C155.527 73.1032 155.792 72.8392 155.995 72.5297C156.312 72.097 156.651 71.6806 157.01 71.2821C157.459 70.8373 157.975 70.4663 158.54 70.183C159.693 69.5591 161.089 69.1928 162.268 68.3511C162.552 68.1495 162.814 67.9188 163.05 67.6629C163.268 67.4203 163.342 67.1282 163.189 67.0441C163.035 66.9599 162.694 66.9995 162.352 67.0688L161.362 67.252L157.995 67.8709C157.035 68.0392 156.257 68.1679 155.718 68.2471C155.439 68.3114 155.151 68.3315 154.866 68.3066Z" fill="#EB996E"/>
<path d="M163.322 65.6923C163.519 65.2327 163.821 64.8257 164.204 64.5041C164.632 64.1827 165.153 64.009 165.689 64.009C166.362 64.013 167.031 64.1233 167.669 64.3358C168.322 64.556 168.996 64.7086 169.679 64.7913C170.253 64.8572 170.835 64.7683 171.363 64.5338C171.544 64.45 171.704 64.3249 171.829 64.1684C171.953 64.012 172.04 63.8285 172.081 63.6327C172.118 63.495 172.118 63.3497 172.081 63.2119C172.051 63.2119 172.051 63.3604 171.977 63.608C171.922 63.7748 171.832 63.9278 171.712 64.0561C171.593 64.1843 171.446 64.2849 171.284 64.3506C170.779 64.5379 170.237 64.5991 169.704 64.5289C169.04 64.4244 168.387 64.2586 167.754 64.0338C167.092 63.8161 166.4 63.7091 165.704 63.7169C165.119 63.7305 164.556 63.9397 164.105 64.311C163.805 64.5603 163.575 64.8826 163.436 65.2467C163.313 65.5389 163.303 65.6874 163.322 65.6923Z" fill="#EB996E"/>
<path d="M163.298 55.0527C163.104 55.4957 162.948 55.9545 162.832 56.4241C162.54 57.3747 162.194 58.5035 161.808 59.7512C161.421 60.9988 161.04 62.1177 160.733 63.0633C160.554 63.5119 160.417 63.9759 160.322 64.4496C160.568 64.0326 160.771 63.5912 160.926 63.1327C161.253 62.3009 161.669 61.1523 162.085 59.8403C162.501 58.5283 162.822 57.3648 163.03 56.4786C163.169 56.014 163.259 55.5361 163.298 55.0527Z" fill="#EB996E"/>
<path d="M164.383 67.7623C164.534 67.7841 164.687 67.7841 164.838 67.7623C165.028 67.7299 165.223 67.7387 165.409 67.7883C165.595 67.8378 165.769 67.9269 165.918 68.0495C166.004 68.1404 166.065 68.2519 166.095 68.3733C166.126 68.4947 166.124 68.6219 166.091 68.7426C166.011 69.0467 165.893 69.3395 165.739 69.614C165.541 69.9583 165.476 70.3635 165.556 70.7527C165.624 70.9589 165.739 71.1464 165.892 71.3003C166.045 71.4542 166.232 71.5702 166.437 71.6389C166.641 71.7033 166.855 71.7255 167.067 71.7043C167.279 71.683 167.484 71.6186 167.67 71.5151C168.017 71.3381 168.302 71.0602 168.487 70.718C168.755 70.1538 168.939 69.5533 169.032 68.9357C169.104 68.5213 169.104 68.0975 169.032 67.6831C169.016 67.5274 168.956 67.3796 168.858 67.2573C168.834 67.2573 168.898 67.4158 168.923 67.698C168.944 68.1019 168.909 68.5068 168.819 68.901C168.701 69.4863 168.508 70.0538 168.245 70.5893C168.083 70.8908 167.827 71.1305 167.515 71.2711C167.204 71.4116 166.854 71.4452 166.522 71.3666C166.358 71.3139 166.21 71.2238 166.088 71.1034C165.966 70.9831 165.874 70.8358 165.819 70.6735C165.754 70.3501 165.808 70.0142 165.972 69.7278C166.126 69.4281 166.242 69.1105 166.319 68.7822C166.352 68.625 166.344 68.462 166.297 68.3086C166.249 68.1552 166.163 68.0166 166.046 67.9059C165.874 67.7697 165.673 67.6755 165.458 67.6308C165.243 67.5861 165.021 67.5922 164.809 67.6485C164.661 67.6631 164.518 67.7016 164.383 67.7623Z" fill="#EB996E"/>
<path d="M167.62 71.228C167.62 71.228 167.526 71.3567 167.536 71.634C167.55 71.8285 167.609 72.017 167.709 72.1847C167.808 72.3523 167.946 72.4943 168.11 72.5994C168.364 72.7453 168.652 72.8222 168.944 72.8222C169.237 72.8222 169.525 72.7453 169.779 72.5994C170.389 72.2473 170.84 71.6724 171.036 70.9953C171.252 70.3324 171.252 69.6183 171.036 68.9555C170.861 68.4197 170.544 67.941 170.12 67.5692C169.841 67.3192 169.517 67.1243 169.165 66.9949C169.04 66.9349 168.902 66.9044 168.764 66.9058C169.205 67.1195 169.615 67.3927 169.982 67.7178C170.397 68.123 170.69 68.6365 170.829 69.2001C170.967 69.7637 170.945 70.3547 170.764 70.9062C170.587 71.5145 170.19 72.0352 169.65 72.3667C169.434 72.4933 169.19 72.5633 168.94 72.5702C168.689 72.5771 168.442 72.5208 168.219 72.4063C168.072 72.3203 167.944 72.2038 167.845 72.0646C167.746 71.9255 167.678 71.7669 167.645 71.5993C167.595 71.3815 167.645 71.228 167.62 71.228Z" fill="#EB996E"/>
<path d="M161.372 74.3374C161.176 74.2049 160.945 74.1342 160.708 74.1344C160.104 74.0755 159.498 74.2201 158.985 74.5453L159.198 74.6889C159.265 74.362 159.311 74.0313 159.337 73.6987C159.51 71.7876 158.901 70.3122 158.842 70.3519C159.032 71.4483 159.104 72.5621 159.055 73.6739C159.031 73.9912 158.989 74.3068 158.931 74.6196L158.872 74.9414L159.144 74.7582C159.608 74.4554 160.149 74.2937 160.703 74.2928C161.114 74.3027 161.362 74.372 161.372 74.3374Z" fill="#EB996E"/>
<path d="M165.278 62.5941C165.199 62.5941 165.308 63.1882 165.833 63.6437C166.357 64.0992 166.947 64.1388 166.947 64.0547C166.947 63.9705 166.476 63.8269 166.026 63.4259C165.575 63.0249 165.357 62.5644 165.278 62.5941Z" fill="#EB996E"/>
<path d="M106.698 133.981L126.329 134.174L123.036 119.93L124.14 122.619C125.158 125.101 126.891 127.224 129.119 128.718C131.347 130.213 133.969 131.011 136.651 131.01C142.86 131.01 147.152 126.391 149.776 120.767C155.916 107.617 161.832 86.4421 161.832 86.4421L149.865 75.9263C141.201 92.314 133.062 106.543 133.062 106.543C133.062 106.543 130.71 99.3987 128.893 93.0219C127.076 86.6451 127.091 83.2983 124.304 80.1198C120.011 75.2283 113.907 74.0153 108.223 72.5498L108.01 99.0076L106.698 133.981Z" fill="#0C9CFF"/>
<path d="M84.2354 114.301L119.981 121.232L121.719 134.966H66.9121C65.4118 134.984 63.9242 134.69 62.5442 134.101C61.1641 133.512 59.922 132.642 58.8971 131.547C57.8722 130.451 57.087 129.153 56.5916 127.737C56.0962 126.321 55.9015 124.817 56.02 123.321C56.8072 113.31 57.6638 100.983 58.3173 95.7693C58.8124 91.7046 60.4462 87.5012 62.3622 83.887C65.1298 78.6786 74.3534 72.0048 82.4382 71.6582L83.9681 105.706" fill="#0C9CFF"/>
<g opacity="0.4">
<path opacity="0.4" d="M106.697 133.982L126.328 134.175L123.035 119.931L124.139 122.619C125.157 125.101 126.89 127.225 129.118 128.719C131.346 130.213 133.968 131.011 136.65 131.011C142.859 131.011 147.151 126.392 149.775 120.767C155.915 107.618 161.831 86.4426 161.831 86.4426L149.864 75.9268C141.2 92.3144 133.061 106.543 133.061 106.543C133.061 106.543 130.709 99.3992 128.892 93.0224C127.075 86.6456 127.09 83.2988 124.303 80.1203C120.01 75.2288 113.906 74.0158 108.222 72.5503L108.009 99.0081L106.697 133.982Z" fill="black"/>
<path opacity="0.4" d="M84.2354 114.301L116.476 120.213C117.133 120.334 117.739 120.648 118.218 121.114C118.696 121.58 119.026 122.178 119.164 122.832L121.719 134.996H66.9121C65.4118 135.015 63.9242 134.72 62.5442 134.131C61.1641 133.543 59.922 132.673 58.8971 131.577C57.8722 130.481 57.087 129.184 56.5916 127.767C56.0962 126.351 55.9015 124.847 56.02 123.352C56.8072 113.341 57.6638 101.013 58.3173 95.7995C58.8124 91.7348 60.4462 87.5315 62.3622 83.9173C65.1298 78.7089 74.3534 72.035 82.4382 71.6885L83.9681 105.736" fill="black"/>
</g>
<path d="M77.4287 113.281C77.4159 113.173 77.4159 113.063 77.4287 112.955C77.4287 112.712 77.4287 112.4 77.4287 112.019C77.4287 111.172 77.4287 110.004 77.4287 108.553C77.4287 105.647 77.3742 101.622 77.1514 97.2007C77.0376 94.9826 76.894 92.8736 76.7405 90.9625C76.6687 89.2661 76.4282 87.5811 76.0226 85.9323C75.7395 84.8318 75.2 83.8139 74.4482 82.9618C74.1571 82.6644 73.8497 82.3834 73.5273 82.1201C73.9053 82.3146 74.2483 82.5706 74.5423 82.8776C75.3438 83.7236 75.9208 84.7567 76.2207 85.8828C76.653 87.5448 76.9119 89.2471 76.993 90.9625C77.1613 92.8785 77.3099 94.9876 77.4237 97.2056C77.6515 101.661 77.6762 105.667 77.6267 108.593C77.597 110.048 77.5574 111.227 77.5228 112.058L77.4683 112.994C77.4664 113.091 77.4531 113.187 77.4287 113.281Z" fill="#263238"/>
<path d="M119.289 122.223C118.912 121.806 118.473 121.45 117.987 121.168C117.409 120.853 116.796 120.609 116.16 120.44C115.422 120.227 114.556 120.064 113.6 119.871C109.778 119.089 104.505 118.004 98.6633 116.9C92.8212 115.796 87.5039 114.92 83.657 114.306L79.0972 113.578L77.8594 113.37C77.7137 113.352 77.5696 113.323 77.4287 113.281C77.5748 113.282 77.7206 113.295 77.8644 113.321L79.112 113.479C80.1913 113.623 81.7558 113.841 83.6817 114.128C87.5385 114.702 92.8608 115.554 98.7078 116.648C104.555 117.742 109.828 118.851 113.635 119.673C114.59 119.881 115.457 120.059 116.2 120.287C116.842 120.469 117.46 120.732 118.036 121.069C118.407 121.278 118.741 121.546 119.026 121.861C119.103 121.94 119.172 122.024 119.234 122.114C119.269 122.173 119.294 122.223 119.289 122.223Z" fill="#263238"/>
<path d="M77.5381 113.281C77.5381 113.326 76.8796 113.479 75.8598 113.895C75.2643 114.141 74.6855 114.426 74.1269 114.747C73.4515 115.149 72.8077 115.603 72.201 116.103C71.6111 116.615 71.0615 117.171 70.5573 117.767C70.1424 118.258 69.7619 118.778 69.4186 119.321C68.8344 120.257 68.567 120.891 68.5225 120.871C68.5533 120.711 68.6049 120.557 68.6759 120.411C68.8446 120.004 69.0398 119.609 69.2602 119.227C69.5907 118.662 69.9631 118.123 70.3741 117.613C71.3904 116.367 72.6335 115.323 74.0378 114.539C74.6066 114.218 75.2011 113.944 75.8152 113.722C76.2282 113.568 76.6518 113.444 77.0826 113.351C77.2305 113.306 77.3838 113.283 77.5381 113.281Z" fill="#263238"/>
<path d="M123.695 121.837C123.661 121.725 123.636 121.611 123.62 121.495C123.581 121.247 123.526 120.921 123.462 120.505C123.323 119.648 123.14 118.411 122.932 116.876C122.516 113.811 122.011 109.563 121.586 104.86C121.16 100.156 120.907 95.8887 120.769 92.7944C120.699 91.2497 120.66 89.9971 120.64 89.1307C120.64 88.7181 120.64 88.3881 120.64 88.1405C120.629 88.0252 120.629 87.9092 120.64 87.7939C120.667 87.9075 120.68 88.0238 120.68 88.1405L120.744 89.1307C120.798 90.0219 120.868 91.2645 120.957 92.7845C121.14 95.8739 121.427 100.137 121.848 104.835C122.269 109.534 122.749 113.781 123.12 116.851C123.304 118.366 123.457 119.599 123.566 120.49C123.611 120.901 123.65 121.228 123.68 121.48C123.7 121.598 123.705 121.718 123.695 121.837Z" fill="#263238"/>
<path d="M135.548 116.514C135.548 116.514 135.434 116.406 135.26 116.188C135.02 115.872 134.801 115.541 134.602 115.197C133.273 112.93 132.661 110.314 132.844 107.692C132.869 107.297 132.922 106.905 133.003 106.518C133.02 106.374 133.057 106.233 133.112 106.098C133.156 106.098 133.062 106.712 133.028 107.702C132.945 110.286 133.542 112.847 134.76 115.128C135.226 115.985 135.587 116.485 135.548 116.514Z" fill="#263238"/>
<path d="M77.2848 94.8837C77.2848 94.8837 77.2205 94.9084 77.1016 94.9233C76.923 94.952 76.7428 94.9702 76.562 94.9778C75.8979 95.0057 75.2328 94.9525 74.5816 94.8193C73.6143 94.6249 72.6701 94.3295 71.7645 93.9381C70.7397 93.5123 69.6505 92.9479 68.5118 92.3983C67.4458 91.8629 66.3421 91.4062 65.2095 91.0319C64.2904 90.7232 63.3351 90.5351 62.3676 90.4724C61.4715 90.4432 60.5758 90.545 59.709 90.7744C59.7622 90.739 59.8207 90.7123 59.8823 90.6952C60.0427 90.625 60.2082 90.5671 60.3774 90.5219C61.0227 90.349 61.69 90.2723 62.3577 90.2942C63.3462 90.3251 64.3258 90.4917 65.2689 90.7893C66.4161 91.1584 67.532 91.6186 68.6058 92.1656C69.7495 92.73 70.8288 93.2845 71.8388 93.7153C72.7279 94.1103 73.6531 94.4187 74.6014 94.6361C75.4841 94.8166 76.384 94.8996 77.2848 94.8837Z" fill="#FAFAFA"/>
<path d="M83.4286 93.6802C82.4775 93.9697 81.5037 94.1784 80.5174 94.304C79.5404 94.5168 78.5462 94.641 77.5469 94.6753C78.498 94.3858 79.4718 94.1771 80.458 94.0515C81.435 93.8385 82.4292 93.7142 83.4286 93.6802Z" fill="#FAFAFA"/>
<path d="M77.0626 104.306C76.8347 104.434 76.5941 104.539 76.3447 104.618C75.8743 104.801 75.1862 105.048 74.3296 105.326C72.0899 106.044 69.8039 106.61 67.4875 107.019C66.1309 107.256 64.8288 107.43 63.6406 107.549C62.5867 107.685 61.5217 107.713 60.4621 107.633C59.7433 107.575 59.0432 107.374 58.4025 107.044C58.2283 106.953 58.0626 106.847 57.9074 106.727C57.8502 106.688 57.7986 106.641 57.7539 106.588C57.7539 106.588 57.9916 106.742 58.4421 106.954C59.0838 107.244 59.7738 107.412 60.4769 107.45C61.5236 107.504 62.5731 107.457 63.6109 107.311C64.7941 107.177 66.0863 106.999 67.4379 106.761C69.7435 106.352 72.0245 105.815 74.2702 105.152C75.1317 104.895 75.8248 104.657 76.3051 104.524C76.5518 104.432 76.805 104.359 77.0626 104.306Z" fill="#FAFAFA"/>
<path d="M83.2657 106.914C82.3736 107.056 81.4703 107.114 80.5674 107.088C79.6673 107.144 78.7639 107.116 77.8691 107.004C78.7612 106.862 79.6645 106.804 80.5674 106.83C81.4675 106.773 82.3709 106.802 83.2657 106.914Z" fill="#FAFAFA"/>
<path d="M57.7881 129.471C57.7938 129.38 57.8121 129.29 57.8425 129.203C57.8921 129.005 57.9614 128.763 58.0406 128.461L58.1891 127.926C58.2535 127.733 58.3376 127.53 58.4168 127.307C58.5949 126.801 58.7998 126.306 59.0308 125.822L59.4318 124.975C59.5754 124.678 59.7586 124.391 59.9269 124.084C60.3003 123.435 60.7068 122.805 61.1448 122.198C63.1674 119.401 65.8046 117.106 68.8534 115.489C69.5165 115.139 70.1973 114.823 70.8932 114.544C71.2249 114.42 71.5319 114.276 71.8438 114.177L72.7399 113.895C73.2533 113.732 73.7757 113.598 74.3044 113.494C74.5371 113.445 74.75 113.39 74.948 113.355L75.5025 113.281L76.265 113.187C76.3536 113.174 76.4437 113.174 76.5323 113.187C76.4479 113.219 76.3597 113.241 76.2699 113.251L75.5174 113.395L74.9728 113.489L74.3341 113.648C73.8786 113.771 73.3439 113.875 72.7944 114.083L71.9131 114.38C71.6062 114.484 71.2992 114.628 70.9774 114.757C70.2917 115.041 69.6208 115.36 68.9673 115.712C67.4785 116.536 66.0768 117.508 64.7838 118.613C63.5065 119.74 62.3455 120.993 61.3181 122.351C60.8725 122.995 60.4319 123.599 60.0952 124.208C59.9219 124.51 59.7387 124.792 59.6001 125.084L59.1842 125.916C58.902 126.441 58.7288 126.946 58.5406 127.401C58.4565 127.619 58.3673 127.822 58.298 128.01L58.1247 128.535L57.8821 129.263C57.8584 129.335 57.8269 129.405 57.7881 129.471Z" fill="#FAFAFA"/>
<path d="M82.6164 114.262C81.7883 114.981 81.1001 115.847 80.5865 116.816C80.0465 117.876 79.6629 119.008 79.4478 120.178C79.1917 121.617 79.0264 123.07 78.9527 124.53C78.891 126 78.7256 127.464 78.4576 128.912C78.2151 130.098 77.7962 131.241 77.2149 132.303C76.8267 133.015 76.325 133.659 75.7296 134.209C75.5674 134.36 75.3936 134.497 75.2098 134.62C75.086 134.704 75.0167 134.749 75.0117 134.739C75.8548 134.035 76.557 133.179 77.0812 132.214C77.6298 131.16 78.0233 130.033 78.2496 128.867C78.5132 127.429 78.6786 125.975 78.7447 124.515C78.809 123.043 78.9745 121.578 79.2398 120.129C79.4704 118.942 79.8776 117.798 80.4478 116.732C80.837 116.014 81.3384 115.362 81.9331 114.801C82.0889 114.652 82.2543 114.513 82.4282 114.385C82.4854 114.336 82.5486 114.295 82.6164 114.262Z" fill="#FAFAFA"/>
<path d="M91.0684 135.051C90.9991 135.051 91.0684 130.783 91.2516 125.525C91.4348 120.267 91.6229 116.004 91.6922 116.004C91.7615 116.004 91.6922 120.272 91.509 125.535C91.3258 130.798 91.1377 135.056 91.0684 135.051Z" fill="#FAFAFA"/>
<path d="M104.505 134.318C104.412 134.119 104.339 133.912 104.287 133.699C104.207 133.455 104.139 133.207 104.084 132.956C104.02 132.664 103.931 132.332 103.876 131.966C103.722 131.092 103.635 130.209 103.614 129.322C103.565 127.143 103.901 124.973 104.604 122.911C104.891 122.07 105.24 121.253 105.649 120.465C105.812 120.123 105.995 119.836 106.144 119.579C106.27 119.354 106.409 119.138 106.56 118.93C106.67 118.741 106.801 118.565 106.951 118.405C106.995 118.43 106.456 119.197 105.807 120.549C105.422 121.338 105.092 122.151 104.817 122.985C104.139 125.026 103.804 127.166 103.827 129.317C103.838 130.194 103.906 131.068 104.03 131.936C104.277 133.412 104.555 134.303 104.505 134.318Z" fill="#FAFAFA"/>
<path d="M81.6867 79.5997C81.6867 79.6393 80.9044 79.2977 79.6172 78.8819C76.2644 77.7995 72.7111 77.4848 69.2202 77.961C67.8835 78.1442 67.0665 78.3521 67.0566 78.3075C67.2342 78.2219 67.4223 78.1603 67.6161 78.1244C68.1341 77.9811 68.6597 77.8671 69.1905 77.7827C72.7079 77.1983 76.316 77.5169 79.6766 78.7086C80.1815 78.8867 80.6772 79.0899 81.1619 79.3175C81.3478 79.3896 81.524 79.4844 81.6867 79.5997Z" fill="#FAFAFA"/>
<path d="M120.799 100.439C120.187 100.471 119.573 100.461 118.963 100.409C117.829 100.365 116.264 100.305 114.536 100.266C112.808 100.226 111.244 100.201 110.11 100.192C109.497 100.211 108.884 100.19 108.273 100.127C108.436 100.089 108.602 100.069 108.769 100.068C109.085 100.068 109.546 100.023 110.115 100.008C111.249 99.9737 112.813 99.9638 114.546 100.008C116.279 100.053 117.844 100.142 119.002 100.236C119.567 100.281 120.022 100.32 120.339 100.36C120.495 100.37 120.649 100.396 120.799 100.439Z" fill="#FAFAFA"/>
<path d="M130.572 98.5625C130.572 98.6071 129.953 98.82 128.987 99.2952C126.462 100.538 124.322 102.444 122.799 104.811C122.214 105.717 121.932 106.321 121.893 106.296C121.92 106.14 121.974 105.989 122.051 105.85C122.224 105.457 122.423 105.075 122.645 104.707C123.371 103.482 124.283 102.378 125.348 101.434C126.41 100.487 127.611 99.7072 128.908 99.122C129.299 98.9458 129.701 98.7937 130.111 98.6665C130.259 98.6119 130.414 98.5769 130.572 98.5625Z" fill="#FAFAFA"/>
<path d="M125.75 82.6948C124.897 82.6656 124.046 82.7846 123.235 83.0464C122.358 83.3523 121.509 83.7298 120.695 84.1752C119.69 84.7323 118.64 85.2043 117.556 85.5862C115.552 86.2281 113.422 86.3658 111.352 85.9872C110.73 85.8743 110.119 85.7087 109.525 85.4921C109.303 85.4226 109.089 85.3296 108.887 85.2149C108.887 85.1654 109.817 85.5565 111.362 85.809C113.403 86.1276 115.489 85.9665 117.457 85.3386C118.528 84.9595 119.569 84.4994 120.571 83.9623C121.4 83.5224 122.266 83.1579 123.16 82.8731C123.768 82.68 124.404 82.588 125.042 82.6008C125.208 82.6056 125.373 82.6222 125.537 82.6503C125.69 82.6701 125.755 82.6849 125.75 82.6948Z" fill="#FAFAFA"/>
<path d="M123.279 115.875C123.099 115.989 122.907 116.081 122.705 116.147C122.517 116.227 122.284 116.321 122.007 116.41C121.729 116.499 121.417 116.618 121.066 116.707C120.237 116.938 119.393 117.113 118.541 117.232C117.497 117.367 116.444 117.422 115.392 117.395C114.34 117.356 113.293 117.238 112.258 117.044C111.419 116.874 110.591 116.647 109.783 116.365C109.431 116.256 109.129 116.123 108.862 116.014C108.594 115.905 108.367 115.801 108.179 115.712C107.982 115.63 107.794 115.527 107.619 115.405C107.619 115.36 108.456 115.756 109.842 116.192C110.654 116.447 111.481 116.652 112.318 116.806C114.365 117.185 116.459 117.248 118.526 116.994C119.37 116.89 120.206 116.735 121.031 116.529C122.427 116.172 123.264 115.831 123.279 115.875Z" fill="#FAFAFA"/>
<path d="M134.656 130.53C134.585 130.485 134.521 130.432 134.463 130.372C134.349 130.258 134.161 130.104 133.968 129.877C133.37 129.237 132.845 128.533 132.403 127.777C130.975 125.246 130.215 122.392 130.195 119.485C130.199 116.598 130.576 113.724 131.319 110.934C131.587 109.865 131.814 109.003 131.997 108.414C132.082 108.142 132.151 107.919 132.205 107.736C132.26 107.553 132.285 107.498 132.295 107.503C132.293 107.586 132.28 107.667 132.255 107.746C132.215 107.934 132.161 108.162 132.096 108.439C131.948 109.078 131.745 109.924 131.497 110.979C130.814 113.759 130.467 116.611 130.463 119.475C130.479 122.335 131.194 125.148 132.547 127.668C132.971 128.423 133.469 129.135 134.032 129.792C134.423 130.268 134.671 130.51 134.656 130.53Z" fill="#FAFAFA"/>
<path d="M152.673 113.717C151.882 113.089 150.998 112.588 150.054 112.232C149.02 111.874 147.961 111.598 146.885 111.405C145.548 111.179 144.226 110.877 142.924 110.499C140.574 109.734 138.428 108.444 136.651 106.726C136.115 106.208 135.619 105.65 135.166 105.058C135.003 104.85 134.894 104.676 134.815 104.563C134.735 104.449 134.701 104.384 134.711 104.379C134.902 104.572 135.081 104.777 135.245 104.993C135.72 105.559 136.231 106.093 136.775 106.592C138.56 108.249 140.683 109.497 142.999 110.251C144.287 110.627 145.594 110.934 146.915 111.172C148 111.38 149.066 111.677 150.103 112.058C150.804 112.323 151.461 112.69 152.054 113.148C152.216 113.269 152.368 113.403 152.509 113.549C152.633 113.657 152.683 113.712 152.673 113.717Z" fill="#FAFAFA"/>
<path d="M158.337 97.1955C158.146 97.0592 157.968 96.905 157.807 96.7351C157.643 96.5816 157.445 96.3935 157.198 96.1855C156.95 95.9776 156.703 95.7301 156.366 95.4924C155.635 94.9025 154.868 94.3585 154.069 93.8636C152.11 92.652 149.98 91.7408 147.751 91.1603C146.84 90.9259 145.916 90.7457 144.984 90.6207C144.588 90.5563 144.226 90.5316 143.91 90.5019C143.593 90.4722 143.315 90.4474 143.093 90.4375C142.858 90.4365 142.625 90.415 142.395 90.3731C142.625 90.3374 142.859 90.3258 143.093 90.3385C143.368 90.3247 143.644 90.3247 143.919 90.3385C144.236 90.3385 144.608 90.3632 145.009 90.4177C145.951 90.5208 146.885 90.6862 147.806 90.9128C148.934 91.2019 150.039 91.5725 151.113 92.0218C152.178 92.4862 153.208 93.029 154.193 93.6457C154.994 94.1567 155.759 94.7207 156.485 95.334C156.802 95.5865 157.059 95.8291 157.297 96.0667C157.5 96.2513 157.693 96.4463 157.876 96.6509C158.049 96.8154 158.203 96.998 158.337 97.1955Z" fill="#FAFAFA"/>
<path d="M115.016 74.4711C114.726 74.665 114.409 74.8167 114.076 74.9216C113.295 75.2279 112.492 75.4762 111.674 75.6643C110.86 75.8561 110.033 75.9885 109.199 76.0603C108.854 76.1126 108.504 76.1126 108.159 76.0603C108.159 75.9811 109.729 75.8524 111.625 75.4019C113.521 74.9513 114.987 74.3968 115.016 74.4711Z" fill="#FAFAFA"/>
<path d="M132.577 144.2C132.641 144.421 132.649 144.654 132.6 144.879C132.551 145.104 132.446 145.313 132.296 145.487C132.145 145.66 131.953 145.794 131.738 145.874C131.522 145.955 131.29 145.98 131.062 145.948C130.798 145.91 130.551 145.797 130.35 145.621C130.15 145.445 130.005 145.215 129.933 144.958L129.512 143.403H129.577C129.62 143.628 129.609 143.859 129.544 144.078C129.48 144.298 129.365 144.499 129.207 144.665C129.05 144.83 128.856 144.957 128.64 145.032C128.425 145.108 128.194 145.132 127.968 145.101C127.319 145.101 126.76 144.156 126.572 143.656C126.082 143.703 125.589 143.616 125.145 143.403C124.702 143.19 124.325 142.859 124.056 142.447L121.15 137.912L115.769 133.976L119.026 122.347L130.607 129.842C131.062 130.199 131.131 130.337 131.854 131.016L139.33 137.893C138.483 138.388 137.766 138.363 136.587 137.893C135.409 137.422 130.25 133.932 130.25 133.932L132.577 144.156" fill="#FFBE9D"/>
<path d="M122.671 134.635C122.671 134.635 122.804 134.694 123.012 134.838L123.398 135.105C123.582 135.22 123.749 135.36 123.893 135.521C124.065 135.718 124.199 135.944 124.29 136.189C124.379 136.452 124.473 136.719 124.572 137.001L125.205 138.863C125.646 140.19 126.032 141.388 126.3 142.264C126.469 142.729 126.596 143.208 126.681 143.695C126.456 143.253 126.271 142.793 126.126 142.319C125.814 141.457 125.399 140.269 124.958 138.947C124.745 138.289 124.537 137.66 124.344 137.081C124.255 136.793 124.171 136.521 124.087 136.264C124.012 136.037 123.9 135.824 123.755 135.635C123.63 135.48 123.487 135.341 123.329 135.219L122.973 134.917C122.76 134.749 122.661 134.65 122.671 134.635Z" fill="#EB996E"/>
<path d="M129.637 143.67C129.563 143.512 129.508 143.346 129.474 143.175L129.102 141.848C128.785 140.729 128.365 139.179 127.825 137.491C127.285 135.803 126.721 134.298 126.043 133.367C125.79 132.995 125.469 132.674 125.097 132.421C124.825 132.253 124.651 132.204 124.656 132.174C124.702 132.173 124.748 132.181 124.79 132.199C124.913 132.23 125.033 132.275 125.147 132.332C125.558 132.562 125.914 132.878 126.191 133.258C126.929 134.199 127.523 135.734 128.068 137.412C128.612 139.09 129.008 140.67 129.276 141.803C129.409 142.368 129.508 142.828 129.573 143.15C129.62 143.319 129.642 143.494 129.637 143.67Z" fill="#EB996E"/>
<path d="M132.627 144.374C132.537 144.21 132.469 144.035 132.424 143.854C132.3 143.458 132.146 142.977 131.963 142.408C131.587 141.185 131.087 139.492 130.547 137.62C130.008 135.749 129.557 134.105 129.186 132.818C129.058 132.341 128.78 131.918 128.394 131.61C128.237 131.509 128.071 131.423 127.898 131.353C127.947 131.341 127.998 131.341 128.047 131.353C128.186 131.384 128.318 131.439 128.438 131.516C128.87 131.813 129.19 132.247 129.344 132.749C129.75 133.972 130.23 135.665 130.78 137.536C131.329 139.408 131.795 141.116 132.127 142.349C132.275 142.923 132.404 143.413 132.503 143.834C132.563 144.009 132.604 144.19 132.627 144.374Z" fill="#EB996E"/>
<path d="M202.979 37.0121C202.979 37.3548 203.08 37.6899 203.271 37.9748C203.461 38.2598 203.732 38.4819 204.048 38.6131C204.365 38.7442 204.713 38.7785 205.049 38.7117C205.386 38.6448 205.694 38.4798 205.937 38.2374C206.179 37.9951 206.344 37.6863 206.411 37.3502C206.478 37.014 206.443 36.6656 206.312 36.349C206.181 36.0324 205.959 35.7617 205.674 35.5713C205.389 35.3809 205.054 35.2793 204.711 35.2793C204.252 35.2793 203.811 35.4619 203.486 35.7868C203.161 36.1118 202.979 36.5526 202.979 37.0121Z" fill="#455A64"/>
<path d="M197.775 38.745C198.732 38.745 199.508 37.9691 199.508 37.0121C199.508 36.0551 198.732 35.2793 197.775 35.2793C196.818 35.2793 196.042 36.0551 196.042 37.0121C196.042 37.9691 196.818 38.745 197.775 38.745Z" fill="#455A64"/>
<path d="M189.125 36.1454C188.954 36.4422 188.874 36.7832 188.896 37.1252C188.919 37.4672 189.042 37.795 189.25 38.067C189.459 38.339 189.743 38.543 190.068 38.6532C190.393 38.7635 190.743 38.775 191.074 38.6863C191.405 38.5977 191.702 38.4128 191.928 38.1551C192.154 37.8974 192.299 37.5785 192.343 37.2387C192.388 36.8989 192.331 36.5534 192.179 36.246C192.028 35.9386 191.788 35.6831 191.492 35.5117C191.295 35.3973 191.077 35.323 190.852 35.2929C190.626 35.2629 190.397 35.2777 190.177 35.3366C189.957 35.3955 189.751 35.4973 189.57 35.6361C189.39 35.7749 189.238 35.948 189.125 36.1454Z" fill="#455A64"/>
<path d="M197.666 16.7673C197.55 16.7586 197.434 16.7586 197.319 16.7673L196.289 16.797C196.061 16.797 195.794 16.797 195.527 16.8317L194.621 16.9604L193.561 17.1139L192.373 17.406C190.338 17.9113 188.399 18.7476 186.635 19.8815C184.026 21.5429 181.831 23.7787 180.217 26.4181C178.604 29.0575 177.616 32.0307 177.327 35.1105C177.249 36.0342 177.231 36.962 177.273 37.888C177.307 38.3534 177.297 38.8336 177.367 39.304C177.436 39.7743 177.51 40.2546 177.58 40.7348C177.942 42.7024 178.593 44.6059 179.51 46.3838C180.488 48.2467 181.73 49.9577 183.199 51.4635C184.764 53.0024 186.558 54.29 188.516 55.2807C190.543 56.3177 192.737 56.9881 194.997 57.261C195.569 57.3463 196.146 57.3943 196.725 57.4046C197.306 57.4484 197.89 57.46 198.473 57.4393C199.648 57.3907 200.817 57.2433 201.968 56.9986C204.452 56.4605 206.814 55.4649 208.934 54.0627L208.726 54.0875L215.821 56.9343L216.241 57.1026L216.123 56.6669L214.033 49.0821L213.999 49.2653C215.925 46.715 217.222 43.7467 217.786 40.6011C218.058 39.1324 218.151 37.6363 218.063 36.1453C218.047 35.4301 217.979 34.717 217.86 34.0114C217.808 33.6616 217.753 33.315 217.697 32.9717C217.638 32.6301 217.534 32.2984 217.45 31.9815C216.261 27.3171 213.453 23.2269 209.528 20.4409C208.079 19.4039 206.495 18.571 204.82 17.9654L203.755 17.5842L202.765 17.3268L201.844 17.099C201.547 17.0446 201.26 17.0149 200.993 16.9703C200.458 16.9059 200.002 16.8119 199.572 16.7921L198.532 16.7574H197.893C197.821 16.7521 197.748 16.7521 197.675 16.7574C197.746 16.7798 197.82 16.7899 197.893 16.7871L198.527 16.8416L199.562 16.9109C199.973 16.9406 200.438 17.0446 200.973 17.1238C204.824 17.7929 208.398 19.5657 211.262 22.2268C214.125 24.888 216.154 28.3231 217.103 32.1152C217.177 32.442 217.281 32.7687 217.341 33.1054C217.4 33.4421 217.44 33.7787 217.494 34.1253C217.607 34.8179 217.67 35.5178 217.682 36.2195C217.76 37.6764 217.664 39.1374 217.395 40.5714C216.82 43.648 215.533 46.5473 213.637 49.0375L213.573 49.1217L213.603 49.2257C214.263 51.6747 214.953 54.2047 215.672 56.8154L215.974 56.5481L208.879 53.6914L208.771 53.6469L208.667 53.7112C205.624 55.7272 202.085 56.8679 198.438 57.0085C197.868 57.0284 197.298 57.0185 196.73 56.9788C196.165 56.9685 195.601 56.9206 195.042 56.8353C192.832 56.5678 190.686 55.9125 188.704 54.8994C186.788 53.9299 185.032 52.6726 183.496 51.1714C182.056 49.7042 180.835 48.0366 179.872 46.2204C178.978 44.4754 178.344 42.6089 177.991 40.6803C177.916 40.1853 177.842 39.7446 177.773 39.2792C177.703 38.8138 177.713 38.3485 177.679 37.888C177.632 36.9805 177.645 36.0708 177.718 35.165C177.988 32.1335 178.944 29.2032 180.515 26.5963C182.086 23.9894 184.229 21.7743 186.783 20.1191C188.517 18.9723 190.425 18.113 192.432 17.5743L193.601 17.2624L194.65 17.0891L195.552 16.9406C195.829 16.9109 196.081 16.901 196.304 16.8861L197.329 16.8119C197.442 16.8089 197.555 16.7939 197.666 16.7673Z" fill="#455A64"/>
</svg>
