<svg width="291" height="217" viewBox="0 0 291 217" fill="none" xmlns="http://www.w3.org/2000/svg">
<path d="M291 190.547H0V190.692H291V190.547Z" fill="#EBEBEB"/>
<path d="M137.934 164.59H25.5557C24.6753 164.588 23.8315 164.237 23.2096 163.614C22.5876 162.991 22.2383 162.147 22.2383 161.266V3.29412C22.2459 2.41881 22.5987 1.58186 23.2198 0.965083C23.8409 0.348303 24.6803 0.00149946 25.5557 0H137.934C138.815 0 139.661 0.350124 140.284 0.973349C140.907 1.59657 141.257 2.44185 141.257 3.32322V161.266C141.257 162.148 140.907 162.993 140.284 163.616C139.661 164.239 138.815 164.59 137.934 164.59ZM25.5557 0.1164C24.7139 0.117942 23.9071 0.453416 23.3125 1.04919C22.7178 1.64496 22.3838 2.45234 22.3838 3.29412V161.266C22.3838 162.108 22.7178 162.916 23.3125 163.511C23.9071 164.107 24.7139 164.443 25.5557 164.444H137.934C138.776 164.443 139.584 164.107 140.179 163.512C140.775 162.916 141.11 162.109 141.112 161.266V3.29412C141.11 2.45181 140.775 1.64444 140.179 1.04883C139.584 0.453227 138.776 0.117939 137.934 0.1164H25.5557Z" fill="#EBEBEB"/>
<path d="M263.827 164.59H151.442C150.561 164.588 149.717 164.237 149.094 163.615C148.471 162.992 148.121 162.147 148.119 161.266V3.29412C148.128 2.41828 148.482 1.58134 149.104 0.964719C149.726 0.348099 150.566 0.0014831 151.442 0H263.827C264.701 0.00302902 265.539 0.350509 266.159 0.967126C266.779 1.58374 267.13 2.41981 267.138 3.29412V161.266C267.138 162.146 266.79 162.989 266.169 163.612C265.548 164.235 264.706 164.587 263.827 164.59ZM151.442 0.1164C150.6 0.117939 149.793 0.453227 149.197 1.04883C148.601 1.64444 148.266 2.45181 148.265 3.29412V161.266C148.266 162.109 148.601 162.916 149.197 163.512C149.793 164.107 150.6 164.443 151.442 164.444H263.827C264.669 164.443 265.476 164.107 266.072 163.512C266.667 162.916 267.003 162.109 267.004 161.266V3.29412C267.003 2.45181 266.667 1.64444 266.072 1.04883C265.476 0.453227 264.669 0.117939 263.827 0.1164H151.442Z" fill="#EBEBEB"/>
<path d="M261.842 196.088H243.468V196.233H261.842V196.088Z" fill="#EBEBEB"/>
<path d="M195.168 194.512H175.723V194.657H195.168V194.512Z" fill="#EBEBEB"/>
<path d="M267.15 201.494H230.815V201.64H267.15V201.494Z" fill="#EBEBEB"/>
<path d="M41.7236 200.516H30.5317V200.661H41.7236V200.516Z" fill="#EBEBEB"/>
<path d="M64.538 200.516H46.9092V200.661H64.538V200.516Z" fill="#EBEBEB"/>
<path d="M142.089 198.061H110.335V198.206H142.089V198.061Z" fill="#EBEBEB"/>
<path d="M158.455 36.7422L125.293 69.9104V180.368H241.687V36.7422H158.455Z" fill="white"/>
<path d="M241.687 180.682H125.287C125.204 180.682 125.124 180.649 125.065 180.59C125.006 180.531 124.973 180.451 124.973 180.368V69.9102C124.973 69.8689 124.981 69.8281 124.997 69.7901C125.013 69.7522 125.036 69.7178 125.066 69.689L158.24 36.515C158.299 36.4574 158.378 36.4242 158.461 36.4219H241.687C241.728 36.4219 241.769 36.43 241.807 36.4458C241.845 36.4616 241.88 36.4847 241.909 36.5139C241.938 36.5431 241.962 36.5778 241.977 36.6159C241.993 36.654 242.001 36.6949 242.001 36.7362V180.368C242.001 180.409 241.993 180.45 241.977 180.488C241.962 180.526 241.938 180.561 241.909 180.59C241.88 180.619 241.845 180.643 241.807 180.658C241.769 180.674 241.728 180.682 241.687 180.682ZM125.607 180.059H241.373V37.0563H158.589L125.607 70.0382V180.059Z" fill="#E0E0E0"/>
<path d="M125.293 69.9104L160.091 74.3976L158.455 36.7422L125.293 69.9104Z" fill="#E6E6E6"/>
<path d="M125.293 69.9104H158.455V36.7422L125.293 69.9104Z" fill="white"/>
<path d="M158.455 70.217H125.281C125.219 70.2173 125.159 70.1992 125.107 70.1651C125.055 70.1309 125.015 70.0821 124.99 70.025C124.966 69.9683 124.96 69.9056 124.973 69.8453C124.985 69.785 125.016 69.7299 125.06 69.6874L158.234 36.5134C158.279 36.4703 158.335 36.4408 158.396 36.4284C158.457 36.416 158.52 36.4213 158.578 36.4436C158.634 36.4683 158.683 36.509 158.717 36.5606C158.751 36.6123 158.769 36.6727 158.77 36.7346V69.9086C158.768 69.9909 158.734 70.0694 158.676 70.127C158.617 70.1847 158.538 70.217 158.455 70.217ZM126.05 69.5943H158.147V37.497L126.05 69.5943Z" fill="#E0E0E0"/>
<path d="M190.221 117.674L210.009 97.8862C210.451 97.444 210.802 96.9191 211.041 96.3414C211.28 95.7637 211.403 95.1446 211.403 94.5193C211.403 93.894 211.28 93.2748 211.041 92.6972C210.802 92.1195 210.451 91.5946 210.009 91.1524C209.567 90.7103 209.042 90.3595 208.464 90.1203C207.886 89.881 207.267 89.7578 206.642 89.7578C206.017 89.7578 205.398 89.881 204.82 90.1203C204.242 90.3595 203.717 90.7103 203.275 91.1524L183.487 110.94L163.699 91.1524C162.806 90.2595 161.595 89.7578 160.332 89.7578C159.069 89.7578 157.858 90.2595 156.965 91.1524C156.072 92.0454 155.571 93.2565 155.571 94.5193C155.571 95.7821 156.072 96.9932 156.965 97.8862L176.753 117.674L156.965 137.462C156.072 138.355 155.571 139.566 155.571 140.829C155.571 142.092 156.072 143.303 156.965 144.196C157.858 145.089 159.069 145.59 160.332 145.59C161.595 145.59 162.806 145.089 163.699 144.196L183.487 124.408L203.275 144.196C204.168 145.089 205.379 145.59 206.642 145.59C207.905 145.59 209.116 145.089 210.009 144.196C210.902 143.303 211.403 142.092 211.403 140.829C211.403 139.566 210.902 138.355 210.009 137.462L190.221 117.674Z" fill="#F0F0F0"/>
<path d="M129.786 101.269C128.67 102.384 127.156 103.011 125.578 103.011C124 103.011 122.487 102.384 121.37 101.269L102.275 82.1677L110.691 73.752L129.786 92.8765C130.894 93.9919 131.516 95.5004 131.516 97.0727C131.516 98.645 130.894 100.153 129.786 101.269Z" fill="#F0F0F0"/>
<path d="M102.272 82.2031L110.688 73.7872L111.466 74.565C112.272 75.3716 112.725 76.4656 112.725 77.6063C112.725 78.747 112.272 79.8409 111.466 80.6475L109.132 82.9809C108.326 83.7875 107.232 84.2407 106.091 84.2407C104.95 84.2407 103.856 83.7875 103.05 82.9809L102.272 82.2031Z" fill="#E0E0E0"/>
<path d="M49.3011 20.7837C43.5263 26.5644 39.5949 33.9273 38.0038 41.9419C36.4128 49.9564 37.2336 58.2627 40.3624 65.8109C43.4912 73.3591 48.7875 79.8102 55.582 84.3489C62.3765 88.8876 70.364 91.31 78.5349 91.31C86.7059 91.31 94.6934 88.8876 101.488 84.3489C108.282 79.8102 113.579 73.3591 116.707 65.8109C119.836 58.2627 120.657 49.9564 119.066 41.9419C117.475 33.9273 113.544 26.5644 107.769 20.7837C103.931 16.9422 99.374 13.8947 94.3578 11.8155C89.3417 9.73623 83.9649 8.66602 78.5349 8.66602C73.1049 8.66602 67.7281 9.73623 62.712 11.8155C57.6959 13.8947 53.1387 16.9422 49.3011 20.7837ZM105.383 76.8653C100.073 82.1745 93.3087 85.7902 85.9444 87.255C78.5802 88.7197 70.947 87.9679 64.01 85.0945C57.0731 82.2211 51.144 77.3551 46.9725 71.112C42.801 64.8689 40.5745 57.529 40.5745 50.0205C40.5745 42.512 42.801 35.1721 46.9725 28.929C51.144 22.6859 57.0731 17.82 64.01 14.9466C70.947 12.0731 78.5802 11.3213 85.9444 12.7861C93.3087 14.2509 100.073 17.8665 105.383 23.1758C108.908 26.701 111.704 30.8862 113.612 35.4922C115.52 40.0982 116.502 45.035 116.502 50.0205C116.502 55.0061 115.52 59.9428 113.612 64.5488C111.704 69.1548 108.908 73.34 105.383 76.8653Z" fill="#E0E0E0"/>
<path d="M100.255 73.1277C99.9818 73.1271 99.7147 73.0455 99.4875 72.8932C99.2603 72.741 99.0833 72.5249 98.9787 72.2722C98.8742 72.0195 98.8468 71.7415 98.8999 71.4733C98.9531 71.205 99.0845 70.9585 99.2775 70.7648C104.77 65.2575 107.854 57.7972 107.854 50.0194C107.854 42.2417 104.77 34.7814 99.2775 29.2741C99.1364 29.1487 99.0224 28.9957 98.9426 28.8247C98.8627 28.6537 98.8187 28.4681 98.8131 28.2794C98.8075 28.0907 98.8406 27.9029 98.9103 27.7275C98.9799 27.552 99.0847 27.3927 99.2182 27.2592C99.3517 27.1257 99.511 27.021 99.6865 26.9513C99.8619 26.8816 100.05 26.8486 100.238 26.8541C100.427 26.8597 100.613 26.9037 100.784 26.9836C100.955 27.0635 101.108 27.1774 101.233 27.3185C107.244 33.3434 110.619 41.5062 110.619 50.0165C110.619 58.5268 107.244 66.6897 101.233 72.7145C101.105 72.8443 100.953 72.9476 100.785 73.0185C100.618 73.0894 100.437 73.1265 100.255 73.1277Z" fill="#E0E0E0"/>
<path d="M48.6435 58.5087C48.3321 58.509 48.0297 58.404 47.7856 58.2106C47.5415 58.0172 47.37 57.7469 47.2991 57.4437C46.2924 53.1805 46.1654 48.7569 46.9259 44.443C47.6864 40.1291 49.3184 36.0156 51.7223 32.3537C51.9245 32.0449 52.241 31.8292 52.6023 31.7539C52.9636 31.6786 53.34 31.7499 53.6487 31.9521C53.9574 32.1543 54.1731 32.4708 54.2484 32.8321C54.3238 33.1934 54.2525 33.5698 54.0503 33.8785C51.8494 37.2236 50.3531 40.982 49.6526 44.9245C48.9522 48.867 49.0623 52.9108 49.9763 56.8093C50.0195 56.9859 50.0272 57.1693 49.999 57.3489C49.9707 57.5285 49.9071 57.7007 49.8119 57.8556C49.7166 58.0104 49.5915 58.1448 49.4439 58.2509C49.2963 58.357 49.1291 58.4328 48.9519 58.4738C48.8506 58.4958 48.7472 58.5075 48.6435 58.5087Z" fill="#E0E0E0"/>
<path d="M56.8147 73.1281C56.4477 73.1272 56.096 72.9807 55.8369 72.7207C53.3438 70.2371 51.2789 67.3581 49.7259 64.2002C49.6457 64.0374 49.5983 63.8604 49.5864 63.6793C49.5746 63.4982 49.5985 63.3165 49.6569 63.1447C49.7153 62.9728 49.8069 62.8141 49.9266 62.6777C50.0463 62.5413 50.1917 62.4297 50.3545 62.3495C50.5173 62.2692 50.6943 62.2218 50.8754 62.21C51.0565 62.1981 51.2382 62.2221 51.4101 62.2804C51.5819 62.3388 51.7406 62.4305 51.877 62.5501C52.0135 62.6698 52.125 62.8152 52.2053 62.978C53.6291 65.8619 55.5166 68.4926 57.7925 70.7652C58.0512 71.0248 58.1965 71.3764 58.1965 71.743C58.1965 72.1095 58.0512 72.4611 57.7925 72.7207C57.5323 72.9791 57.1813 73.1253 56.8147 73.1281Z" fill="#E0E0E0"/>
<path d="M122.821 154.465L128.262 159.906L115.627 172.54C114.981 173.186 114.105 173.549 113.191 173.549C112.277 173.549 111.401 173.186 110.755 172.54L110.183 171.968C109.537 171.322 109.174 170.445 109.174 169.531C109.174 168.618 109.537 167.741 110.183 167.095L122.817 154.461L122.821 154.465Z" fill="#F0F0F0"/>
<path d="M122.829 154.477L128.261 159.909L128.002 160.169C127.416 160.755 126.621 161.084 125.792 161.084C124.963 161.084 124.168 160.755 123.582 160.169L122.562 159.148C121.975 158.562 121.646 157.767 121.646 156.938C121.646 156.109 121.975 155.314 122.562 154.728L122.821 154.469L122.829 154.477Z" fill="#E0E0E0"/>
<path d="M165.491 124.955L152.746 137.695C151.331 139.211 150.561 141.218 150.597 143.291C150.633 145.364 151.474 147.342 152.941 148.808C154.408 150.273 156.387 151.112 158.46 151.146C160.534 151.18 162.539 150.408 164.054 148.992L169.21 143.841C170.296 137.303 168.975 130.593 165.491 124.955Z" fill="#F0F0F0"/>
<path d="M170.293 137.247C169.928 131.971 168.007 126.922 164.772 122.738C161.537 118.554 157.134 115.424 152.12 113.742C147.105 112.061 141.705 111.905 136.602 113.293C131.499 114.681 126.922 117.551 123.45 121.541C119.979 125.53 117.768 130.46 117.098 135.706C116.428 140.952 117.329 146.279 119.687 151.013C122.045 155.747 125.754 159.675 130.344 162.301C134.935 164.927 140.201 166.132 145.477 165.765C152.549 165.273 159.136 161.992 163.789 156.644C168.443 151.296 170.783 144.319 170.293 137.247ZM119.13 140.809C118.792 135.965 119.899 131.13 122.31 126.916C124.721 122.701 128.327 119.296 132.674 117.131C137.02 114.966 141.91 114.139 146.727 114.753C151.543 115.368 156.069 117.397 159.732 120.584C163.395 123.771 166.031 127.972 167.306 132.657C168.581 137.342 168.439 142.3 166.896 146.904C165.353 151.508 162.48 155.551 158.639 158.522C154.799 161.493 150.163 163.258 145.32 163.594C138.825 164.045 132.418 161.898 127.506 157.625C122.595 153.352 119.582 147.303 119.13 140.809Z" fill="#E0E0E0"/>
<path d="M130.007 154.759C127.948 152.973 126.261 150.799 125.043 148.36C123.826 145.921 123.102 143.266 122.913 140.546C122.899 140.426 122.91 140.305 122.945 140.189C122.98 140.073 123.038 139.965 123.116 139.873C123.193 139.78 123.289 139.704 123.396 139.649C123.504 139.594 123.622 139.561 123.742 139.553C123.863 139.545 123.984 139.561 124.098 139.601C124.212 139.64 124.317 139.703 124.407 139.784C124.496 139.866 124.568 139.964 124.619 140.074C124.669 140.184 124.696 140.303 124.699 140.424C125.056 145.436 127.384 150.103 131.173 153.402C134.963 156.702 139.905 158.366 144.918 158.03C145.154 158.014 145.387 158.092 145.566 158.247C145.744 158.403 145.854 158.623 145.87 158.859C145.886 159.095 145.808 159.328 145.652 159.507C145.497 159.685 145.277 159.794 145.04 159.811C142.325 159.999 139.6 159.65 137.02 158.783C134.441 157.916 132.057 156.549 130.007 154.759Z" fill="#E0E0E0"/>
<path d="M162.169 134.443C162.036 134.328 161.941 134.176 161.895 134.006C161.194 131.515 159.993 129.193 158.365 127.182C156.737 125.171 154.716 123.512 152.426 122.308C152.226 122.193 152.077 122.004 152.013 121.783C151.948 121.561 151.971 121.322 152.078 121.117C152.184 120.912 152.366 120.756 152.585 120.682C152.804 120.608 153.043 120.621 153.252 120.719C155.759 122.037 157.971 123.852 159.753 126.054C161.536 128.255 162.85 130.797 163.618 133.523C163.65 133.636 163.659 133.754 163.644 133.871C163.63 133.988 163.593 134.1 163.535 134.203C163.477 134.305 163.4 134.395 163.307 134.467C163.214 134.539 163.108 134.592 162.995 134.623C162.853 134.662 162.703 134.666 162.559 134.635C162.415 134.604 162.281 134.538 162.169 134.443Z" fill="#E0E0E0"/>
<path d="M141.653 119.967C141.475 119.809 141.366 119.588 141.35 119.35C141.334 119.115 141.412 118.882 141.567 118.703C141.722 118.524 141.941 118.414 142.177 118.396C144.447 118.238 146.727 118.452 148.928 119.03C149.042 119.061 149.15 119.113 149.244 119.185C149.339 119.257 149.418 119.346 149.478 119.449C149.538 119.551 149.577 119.664 149.592 119.782C149.608 119.899 149.601 120.019 149.571 120.133C149.541 120.248 149.488 120.355 149.417 120.45C149.345 120.544 149.255 120.623 149.153 120.683C149.05 120.743 148.937 120.782 148.82 120.798C148.702 120.814 148.583 120.807 148.468 120.776C146.46 120.245 144.377 120.048 142.305 120.194C142.066 120.206 141.832 120.125 141.653 119.967Z" fill="#E0E0E0"/>
<path d="M145.5 216.831C207.822 216.831 258.344 213.881 258.344 210.243C258.344 206.604 207.822 203.654 145.5 203.654C83.1777 203.654 32.6558 206.604 32.6558 210.243C32.6558 213.881 83.1777 216.831 145.5 216.831Z" fill="#F5F5F5"/>
<path d="M80.2112 52.8911C75.5203 57.6111 83.4937 64.9385 78.2266 68.3024C82.5275 70.4616 97.6013 73.2029 101.507 64.7115C98.6606 62.4999 100.639 57.064 98.0146 51.8435C94.0861 44.1029 75.5203 47.5308 80.2112 52.8911Z" fill="#263238"/>
<path d="M80.6361 52.7684C79.1753 52.524 74.2341 54.98 77.9123 61.5741C80.8747 66.9052 78.407 67.2835 78.407 67.2835C78.407 67.2835 81.317 67.365 79.571 63.4016C77.7203 59.1704 76.8531 54.7821 80.6361 52.7684Z" fill="#263238"/>
<path d="M115.236 94.638C115.056 94.3086 114.754 94.0631 114.395 93.9542C114.036 93.8454 113.648 93.8819 113.315 94.056L112.972 94.2364C112.861 94.2946 112.652 94.4343 112.483 94.5333C112.314 94.6322 112.117 94.7428 111.93 94.8359C111.563 95.0206 111.184 95.18 110.795 95.3131C110.076 95.5738 109.32 95.7172 108.555 95.738C107.852 95.7462 107.153 95.634 106.489 95.4063C106.066 95.2496 105.659 95.0548 105.272 94.8243C104.772 93.7185 104.294 92.601 103.887 91.4487C103.392 90.1043 102.956 88.7307 102.572 87.3398C102.188 85.9488 101.85 84.5403 101.571 83.1261C101.425 82.4218 101.297 81.7118 101.181 81.0076L101.024 79.9542C100.971 79.6166 100.925 79.2325 100.896 78.9648V78.8484C100.818 78.0766 100.438 77.3671 99.8375 76.8759C99.2372 76.3848 98.4663 76.1522 97.6946 76.2294C96.9228 76.3065 96.2133 76.6872 95.7221 77.2875C95.231 77.8878 94.9984 78.6586 95.0756 79.4304C95.1163 79.9251 95.1512 80.3034 95.2036 80.7166C95.256 81.1298 95.3142 81.5256 95.3724 81.9272C95.5004 82.7303 95.6459 83.5218 95.8089 84.3133C96.1324 85.8862 96.5404 87.4404 97.0311 88.9693C97.2581 89.7376 97.5374 90.4942 97.7993 91.2566C98.0612 92.019 98.3813 92.764 98.7131 93.5031C99.3482 94.9966 100.069 96.4521 100.872 97.8623L100.942 97.9903C101.151 98.3692 101.464 98.6802 101.844 98.8866C102.944 99.4862 104.133 99.9066 105.365 100.132C106.631 100.356 107.928 100.328 109.183 100.051C110.955 99.6398 112.582 98.7569 113.892 97.4956C114.107 97.2978 114.311 97.0941 114.474 96.8787C114.637 96.6634 114.834 96.4597 115.056 96.157C115.226 95.9468 115.334 95.6925 115.366 95.4237C115.398 95.1548 115.353 94.8824 115.236 94.638Z" fill="#FF8B7B"/>
<path d="M119.107 89.1903H118.938C118.381 89.1784 117.828 89.2951 117.324 89.5313C116.819 89.7675 116.376 90.1168 116.028 90.5522L113.217 94.0791V96.4886C115.475 97.3848 118.338 94.9695 118.338 94.9695L119.788 94.6029C120.275 94.4812 120.701 94.1829 120.981 93.7658C121.262 93.3487 121.378 92.8424 121.307 92.3447L121.097 90.9305C121.029 90.4501 120.79 90.0102 120.425 89.6908C120.06 89.3714 119.592 89.1938 119.107 89.1903Z" fill="#FF8B7B"/>
<path d="M100.82 75.5902C102.7 77.5225 102.816 83.2901 102.816 83.2901L95.2965 89.3429C95.2965 89.3429 92.2061 80.7875 93.9171 77.7669C95.3663 75.2061 98.4218 73.1284 100.82 75.5902Z" fill="#0C9CFF"/>
<g opacity="0.2">
<path opacity="0.2" d="M100.82 75.5902C102.7 77.5225 102.816 83.2901 102.816 83.2901L95.2965 89.3429C95.2965 89.3429 92.2061 80.7875 93.9171 77.7669C95.3663 75.2061 98.4218 73.1284 100.82 75.5902Z" fill="white"/>
</g>
<path d="M88.377 205.254L92.5324 205.708L93.1028 194.417L88.9473 193.957L88.377 205.254Z" fill="#FF8B7B"/>
<path d="M93.2131 202.994H88.3301C88.2317 202.991 88.1359 203.026 88.0631 203.093C87.9903 203.159 87.9462 203.251 87.9402 203.349L87.6143 207.965C87.6142 208.206 87.7085 208.438 87.877 208.611C88.0456 208.784 88.275 208.884 88.5164 208.89C90.5766 208.89 90.5999 208.89 93.1724 208.89H100.104C102.234 208.89 102.24 206.731 101.32 206.533C97.1823 205.66 95.5702 204.449 94.1094 203.297C93.8527 203.099 93.5372 202.993 93.2131 202.994Z" fill="#263238"/>
<path opacity="0.2" d="M93.1025 194.423L92.8057 200.243H88.627L88.9471 193.963L93.1025 194.423Z" fill="black"/>
<path d="M95.3437 104.333C95.3437 104.333 98.9405 134.44 98.9405 147.826C96.1061 166.45 93.7025 199.135 93.7025 199.135L87.9523 198.984C87.9523 198.984 85.3391 163.389 87.7602 148.018C84.6582 134.248 80.8286 102.471 80.8286 102.471L95.3437 104.333Z" fill="#263238"/>
<path opacity="0.2" d="M84.2561 112.715C83.5707 113.016 82.9058 113.362 82.2656 113.751C83.0571 119.693 84.0989 127.172 85.2047 134.074C87.0904 128.394 86.0719 115.904 84.2561 112.715Z" fill="black"/>
<path d="M43.3765 194.771L46.8044 197.163L52.7176 187.525L49.2896 185.133L43.3765 194.771Z" fill="#FF8B7B"/>
<path d="M47.6717 195.9L44.7617 191.983C44.7063 191.903 44.6216 191.848 44.5259 191.829C44.4301 191.811 44.3309 191.83 44.2496 191.884L40.3502 194.387C40.1556 194.53 40.0252 194.744 39.9871 194.982C39.949 195.221 40.0062 195.465 40.1465 195.661C41.3629 197.32 41.3861 197.332 42.9168 199.392C43.8654 200.655 45.7569 203.198 47.0606 204.95C48.3643 206.702 50.0696 205.375 49.6738 204.514C47.9278 200.678 47.9278 198.694 47.9627 196.808C47.9687 196.481 47.8663 196.162 47.6717 195.9Z" fill="#263238"/>
<path opacity="0.2" d="M52.7119 187.525L49.668 192.495L45.9956 190.493L49.2897 185.133L52.7119 187.525Z" fill="black"/>
<path d="M64.4043 198.81C61.4302 198.81 55.2377 198.81 55.133 194.433C55.0515 190.999 59.3001 189.574 62.9667 189.399C63.373 189.379 63.7791 189.44 64.1619 189.577C64.5447 189.715 64.8966 189.926 65.1977 190.2C65.4987 190.473 65.7429 190.803 65.9164 191.171C66.0898 191.539 66.189 191.938 66.2085 192.344V192.577C70.3639 192.379 73.0528 191.471 74.0363 189.923C76.2538 186.431 72.0052 177.416 67.9021 168.703C63.0715 158.454 57.6007 146.843 57.4959 135.721C57.4921 135.314 57.5684 134.911 57.7204 134.534C57.8725 134.157 58.0973 133.813 58.3822 133.523C58.667 133.233 59.0062 133.002 59.3804 132.842C59.7546 132.683 60.1564 132.6 60.563 132.596C61.3787 132.597 62.161 132.92 62.7405 133.494C63.32 134.068 63.6501 134.847 63.6593 135.663C63.7524 145.429 68.8973 156.388 73.4718 166.061C78.7098 177.223 83.2785 186.867 79.2336 193.24C76.8881 196.988 72.0285 198.81 64.4043 198.81Z" fill="#0C9CFF"/>
<path d="M90.7398 103.741C90.7398 103.741 80.8109 138.148 75.9629 150.626C66.5694 166.957 50.9834 191.948 50.9834 191.948L46.0073 189.038C46.0073 189.038 57.6473 160.171 65.4752 146.727C67.5762 132.759 75.5205 101.762 75.5205 101.762L90.7398 103.741Z" fill="#263238"/>
<path d="M48.568 198.711C48.7655 199.038 49.0697 199.286 49.4293 199.415C49.5346 199.44 49.6449 199.436 49.7477 199.402C49.8505 199.368 49.9418 199.306 50.0113 199.223C50.0597 199.178 50.0967 199.123 50.1189 199.061C50.1412 198.999 50.1483 198.933 50.1394 198.868C50.0695 198.169 48.2653 197.262 47.9045 197.087C47.8835 197.078 47.86 197.078 47.8386 197.085C47.8172 197.093 47.7992 197.108 47.7881 197.128C47.7741 197.149 47.7666 197.175 47.7666 197.2C47.7666 197.226 47.7741 197.252 47.7881 197.273C48.0018 197.776 48.2629 198.257 48.568 198.711ZM49.8076 198.711C49.8589 198.775 49.8929 198.851 49.9066 198.932C49.9094 198.955 49.9066 198.977 49.8985 198.999C49.8904 199.02 49.8772 199.039 49.86 199.054C49.8131 199.108 49.7528 199.148 49.6853 199.17C49.6178 199.193 49.5455 199.197 49.4759 199.182C49.0918 199.106 48.5854 198.484 48.0966 197.5C48.7304 197.796 49.3091 198.197 49.8076 198.687V198.711Z" fill="#0C9CFF"/>
<path d="M47.759 197.298L47.794 197.327C48.376 197.647 49.8892 197.909 50.2209 197.426C50.2766 197.337 50.3037 197.234 50.2985 197.13C50.2932 197.026 50.256 196.926 50.1918 196.844C49.6098 195.813 47.8638 197.024 47.7881 197.076C47.7708 197.09 47.757 197.108 47.7479 197.128C47.7388 197.149 47.7346 197.171 47.7358 197.193C47.7334 197.229 47.7415 197.266 47.759 197.298ZM49.9706 196.96C49.9876 196.98 50.0031 197.002 50.0172 197.024C50.0812 197.135 50.0929 197.216 50.0579 197.263C49.8659 197.542 48.7484 197.443 48.0966 197.187C48.5331 196.925 49.5516 196.396 49.9706 196.96Z" fill="#0C9CFF"/>
<path d="M96.0303 203.955C96.4118 203.99 96.7937 203.893 97.1129 203.681C97.1938 203.61 97.2535 203.519 97.2853 203.416C97.3172 203.313 97.3199 203.204 97.2933 203.099C97.2849 203.034 97.2618 202.971 97.2254 202.915C97.1891 202.86 97.1407 202.813 97.0837 202.779C96.5017 202.424 94.6801 203.326 94.3251 203.513C94.3051 203.524 94.2895 203.541 94.281 203.562C94.2725 203.584 94.2716 203.607 94.2785 203.629C94.2874 203.653 94.3021 203.675 94.3214 203.692C94.3407 203.71 94.3639 203.722 94.3891 203.728C94.927 203.859 95.4769 203.935 96.0303 203.955ZM96.752 202.948C96.8349 202.943 96.9176 202.961 96.9906 203C97.0197 203 97.0488 203.041 97.0605 203.111C97.0757 203.181 97.0718 203.253 97.0493 203.321C97.0268 203.388 96.9864 203.449 96.9324 203.495C96.6473 203.757 95.8441 203.792 94.7616 203.6C95.3732 203.272 96.0366 203.051 96.7229 202.948H96.752Z" fill="#0C9CFF"/>
<path d="M94.3887 203.757H94.4294C95.0114 203.489 96.1463 202.424 95.9601 201.871C95.9213 201.78 95.8564 201.702 95.7736 201.647C95.6909 201.592 95.5938 201.563 95.4945 201.563C94.3305 201.429 94.249 203.536 94.2432 203.623C94.2433 203.646 94.2493 203.669 94.2605 203.689C94.2716 203.71 94.2877 203.727 94.3072 203.739C94.3319 203.753 94.3604 203.76 94.3887 203.757ZM95.4363 201.778H95.5177C95.64 201.778 95.7156 201.83 95.7331 201.889C95.8437 202.209 95.0987 203.053 94.4992 203.419C94.5516 202.913 94.7379 201.778 95.4479 201.778H95.4363Z" fill="#0C9CFF"/>
<path d="M75.5205 101.792L95.3434 104.329C99.8132 89.2788 101.286 82.0096 101.681 78.5118C101.786 77.6326 101.581 76.7445 101.1 76.0007C100.62 75.2569 99.8952 74.7041 99.0508 74.4378C97.8868 74.0653 96.3852 73.623 94.8953 73.2738C94.389 73.1399 93.871 73.0177 93.3646 72.9013C90.397 72.2992 87.3901 71.9102 84.3669 71.7373C83.9188 71.6966 83.4765 71.6733 83.0283 71.65C82.1495 71.6034 81.2823 71.5918 80.4908 71.5918C79.8967 71.5911 79.309 71.7141 78.7651 71.9531C78.2212 72.192 77.733 72.5417 77.3317 72.9797C76.9304 73.4177 76.6247 73.9345 76.4341 74.4972C76.2435 75.0598 76.1722 75.6561 76.2247 76.2478C76.3819 77.9938 76.5041 79.6176 76.5972 81.1075C76.8184 84.5995 76.8882 87.3931 76.8358 89.8375C76.7169 93.851 76.277 97.8485 75.5205 101.792Z" fill="#0C9CFF"/>
<g opacity="0.3">
<path opacity="0.3" d="M75.5205 101.792L95.3434 104.329C99.8132 89.2788 101.286 82.0096 101.681 78.5118C101.786 77.6326 101.581 76.7445 101.1 76.0007C100.62 75.2569 99.8952 74.7041 99.0508 74.4378C97.8868 74.0653 96.3852 73.623 94.8953 73.2738C94.389 73.1399 93.871 73.0177 93.3646 72.9013C90.397 72.2992 87.3901 71.9102 84.3669 71.7373C83.9188 71.6966 83.4765 71.6733 83.0283 71.65C82.1495 71.6034 81.2823 71.5918 80.4908 71.5918C79.8967 71.5911 79.309 71.7141 78.7651 71.9531C78.2212 72.192 77.733 72.5417 77.3317 72.9797C76.9304 73.4177 76.6247 73.9345 76.4341 74.4972C76.2435 75.0598 76.1722 75.6561 76.2247 76.2478C76.3819 77.9938 76.5041 79.6176 76.5972 81.1075C76.8184 84.5995 76.8882 87.3931 76.8358 89.8375C76.7169 93.851 76.277 97.8485 75.5205 101.792Z" fill="white"/>
</g>
<path opacity="0.3" d="M76.8241 89.8134C79.4431 86.4261 80.3917 82.55 79.542 80.4141L76.5854 81.0775C76.8241 84.5579 76.8881 87.3631 76.8241 89.8134Z" fill="#0C9CFF"/>
<path d="M94.8949 73.2388C94.3828 73.105 93.8706 72.9827 93.3643 72.8663C90.3942 72.267 87.3856 71.878 84.3607 71.7023C83.9126 71.6674 83.4703 71.6441 83.028 71.6209L82.2539 71.5859L82.8359 72.6044C82.9174 72.7441 84.8962 75.98 89.8199 79.4604L90.8733 80.1937L91.886 79.4197C92.8612 78.7201 93.6581 77.8008 94.2122 76.7361C94.7662 75.6714 95.0619 74.4913 95.0754 73.2912L94.8949 73.2388Z" fill="white"/>
<path d="M86.5492 65.7176C86.3629 68.1678 85.7867 70.6646 84.3608 71.7122C84.3608 71.7122 86.1767 74.7328 90.8792 78.0327C93.8242 75.7804 93.3644 72.8646 93.3644 72.8646C90.2332 71.7006 90.4544 69.5297 91.7755 66.0668L89.3311 64.7515C89.1202 64.5191 88.8457 64.3538 88.5416 64.2762C88.2375 64.1987 87.9173 64.2122 87.6209 64.3151C87.3244 64.4181 87.0647 64.6059 86.8742 64.8553C86.6837 65.1046 86.5706 65.4045 86.5492 65.7176Z" fill="#FF8B7B"/>
<path opacity="0.2" d="M89.3315 64.753C89.1334 64.5342 88.8787 64.3744 88.5955 64.2913C88.3124 64.2082 88.0117 64.205 87.7268 64.2821C87.442 64.3592 87.1839 64.5136 86.9813 64.7281C86.7787 64.9427 86.6393 65.2091 86.5786 65.4979C87.5071 67.3701 89.0046 68.9001 90.8563 69.8688C90.9226 68.5562 91.2325 67.2675 91.7701 66.0683L89.3315 64.753Z" fill="black"/>
<path d="M82.743 58.036C83.9594 62.7677 84.3726 64.793 87.2651 66.766C91.6127 69.7575 97.1591 67.2316 97.3745 62.2381C97.5782 57.7392 95.5586 50.7552 90.5069 49.7542C89.3917 49.5262 88.2367 49.5877 87.152 49.9327C86.0673 50.2778 85.089 50.895 84.3105 51.7254C83.532 52.5559 82.9792 53.5719 82.7048 54.6766C82.4304 55.7813 82.4436 56.9378 82.743 58.036Z" fill="#FF8B7B"/>
<path d="M94.7849 50.7318C91.9351 53.265 88.5545 55.1284 84.8909 56.1851C84.8909 56.1851 88.5051 63.8733 81.7422 61.9353C79.7809 55.3878 81.7422 51.9889 83.4882 50.3884C88.8659 48.6424 92.6489 48.0604 94.7849 50.7318Z" fill="#263238"/>
<path d="M82.516 62.6979C82.9125 63.5552 83.6323 64.2206 84.518 64.5487C85.682 64.9677 86.3746 63.9667 86.1244 62.8027C85.8974 61.7609 85.0127 60.2826 83.7964 60.3583C83.5333 60.3807 83.2798 60.4679 83.0586 60.6121C82.8374 60.7563 82.6553 60.953 82.5285 61.1846C82.4018 61.4162 82.3343 61.6756 82.3321 61.9397C82.3299 62.2037 82.3931 62.4642 82.516 62.6979Z" fill="#FF8B7B"/>
<path d="M75.375 100.59L74.2517 102.249C74.1644 102.377 74.3099 102.54 74.5369 102.569L95.3259 105.235C95.5064 105.235 95.6635 105.188 95.6926 105.078L96.1 103.332C96.1 103.209 95.9836 103.087 95.7915 103.058L75.7125 100.486C75.652 100.472 75.5889 100.474 75.5295 100.492C75.4702 100.511 75.4168 100.545 75.375 100.59Z" fill="#0C9CFF"/>
<path d="M77.7785 103.181L77.2431 103.111C77.1383 103.111 77.0627 103.03 77.0801 102.966L77.6272 100.69C77.648 100.652 77.6813 100.622 77.7215 100.605C77.7617 100.588 77.8064 100.585 77.8484 100.597L78.3896 100.667C78.4944 100.667 78.5701 100.743 78.5526 100.812L78.0055 103.082C77.9881 103.152 77.8891 103.193 77.7785 103.181Z" fill="#263238"/>
<path d="M93.7893 105.23L93.2538 105.166C93.1491 105.166 93.0734 105.085 93.0909 105.015L93.638 102.745C93.638 102.681 93.7544 102.635 93.8591 102.646L94.4004 102.716C94.5051 102.716 94.5808 102.798 94.5633 102.862L94.0163 105.137C93.9988 105.201 93.8999 105.248 93.7893 105.23Z" fill="#263238"/>
<path d="M85.7868 104.205L85.2514 104.135C85.1408 104.135 85.0651 104.06 85.0826 103.99L85.6297 101.72C85.6297 101.65 85.7461 101.609 85.8566 101.621L86.3921 101.691C86.4968 101.691 86.5725 101.772 86.5609 101.836L86.008 104.112C85.9963 104.176 85.8916 104.217 85.7868 104.205Z" fill="#263238"/>
<path d="M90.8502 57.833C90.9201 58.2229 91.1878 58.5023 91.4322 58.4499C91.6767 58.3975 91.8338 58.0483 91.7581 57.6584C91.6825 57.2685 91.4148 56.9891 91.1761 57.0415C90.9375 57.0939 90.792 57.4431 90.8502 57.833Z" fill="#263238"/>
<path d="M95.2501 56.988C95.3257 57.378 95.5935 57.6515 95.8321 57.605C96.0707 57.5584 96.2337 57.1976 96.158 56.8076C96.0823 56.4177 95.8146 56.1441 95.576 56.1907C95.3374 56.2373 95.1802 56.5981 95.2501 56.988Z" fill="#263238"/>
<path d="M95.4482 56.2372L96.3329 55.7832C96.3329 55.7832 96.0302 56.6096 95.4482 56.2372Z" fill="#263238"/>
<path d="M94.0864 57.8613C94.6065 58.6812 95.2349 59.4271 95.9546 60.0787C95.7841 60.2599 95.5758 60.4013 95.3444 60.4929C95.1131 60.5844 94.8644 60.6238 94.616 60.6084L94.0864 57.8613Z" fill="#FF5652"/>
<path d="M91.3393 62.1803C91.3218 62.2006 91.3118 62.2264 91.3111 62.2533C91.3104 62.2801 91.319 62.3064 91.3354 62.3276C91.3518 62.3489 91.3751 62.3638 91.4013 62.3698C91.4275 62.3758 91.4549 62.3726 91.479 62.3607C91.9188 62.1364 92.4054 62.0195 92.8991 62.0195C93.3928 62.0195 93.8794 62.1364 94.3192 62.3607C94.3455 62.3757 94.3767 62.3799 94.406 62.3723C94.4354 62.3646 94.4606 62.3459 94.4763 62.32C94.4922 62.2934 94.4974 62.2619 94.4909 62.2316C94.4845 62.2014 94.4668 62.1747 94.4414 62.157C93.9668 61.9139 93.4411 61.7871 92.9078 61.7871C92.3745 61.7871 91.8489 61.9139 91.3743 62.157C91.3743 62.157 91.3743 62.1686 91.3393 62.1803Z" fill="#263238"/>
<path d="M89.3312 56.6338C89.3671 56.6116 89.3955 56.5792 89.4127 56.5406C89.534 56.2754 89.7164 56.0427 89.9451 55.8616C90.1737 55.6805 90.442 55.5562 90.728 55.4989C90.7587 55.4953 90.7883 55.4856 90.8152 55.4704C90.8421 55.4553 90.8658 55.4349 90.8847 55.4106C90.9037 55.3862 90.9176 55.3583 90.9257 55.3285C90.9337 55.2987 90.9358 55.2676 90.9317 55.237C90.9289 55.2065 90.9199 55.177 90.9053 55.1501C90.8908 55.1233 90.871 55.0996 90.847 55.0806C90.8231 55.0616 90.7956 55.0476 90.7662 55.0394C90.7367 55.0313 90.7059 55.0292 90.6756 55.0333C90.3118 55.1012 89.9695 55.2549 89.677 55.4817C89.3845 55.7084 89.1502 56.0016 88.9937 56.3369C88.9711 56.3828 88.9642 56.4349 88.9742 56.4851C88.9842 56.5353 89.0104 56.5808 89.0488 56.6146C89.0872 56.6484 89.1357 56.6686 89.1868 56.672C89.2378 56.6755 89.2886 56.662 89.3312 56.6338Z" fill="#263238"/>
<path d="M96.56 53.6834L96.5891 53.6543C96.6068 53.6291 96.6194 53.6007 96.6261 53.5706C96.6328 53.5406 96.6334 53.5095 96.628 53.4792C96.6226 53.4488 96.6112 53.4199 96.5945 53.394C96.5779 53.3681 96.5562 53.3458 96.5309 53.3284C96.23 53.1121 95.8819 52.9708 95.5155 52.9161C95.1491 52.8614 94.7749 52.895 94.424 53.0141C94.368 53.0385 94.3234 53.0835 94.2996 53.1398C94.2758 53.1961 94.2745 53.2595 94.296 53.3167C94.3192 53.3737 94.3641 53.4192 94.4209 53.4432C94.4776 53.4672 94.5415 53.4678 94.5986 53.4447C94.8773 53.3534 95.1738 53.3301 95.4634 53.3766C95.7529 53.4232 96.0271 53.5384 96.2632 53.7125C96.3078 53.7443 96.3625 53.7589 96.417 53.7535C96.4716 53.7482 96.5224 53.7232 96.56 53.6834Z" fill="#263238"/>
<path d="M91.0659 57.081L91.9506 56.6328C91.9506 56.6328 91.6072 57.4534 91.0659 57.081Z" fill="#263238"/>
<path d="M60.5921 138.788C59.776 138.788 58.9928 138.466 58.413 137.892C57.8332 137.317 57.5036 136.537 57.4959 135.721C57.4144 127.457 60.1673 120.478 65.4577 115.543C71.9702 109.467 82.1261 106.644 94.0688 107.587C102.444 108.251 107.816 106.214 114.031 103.845C115.056 103.461 116.086 103.065 117.145 102.681C117.917 102.4 118.769 102.437 119.513 102.784C120.257 103.131 120.833 103.76 121.114 104.532C121.395 105.303 121.358 106.155 121.011 106.9C120.664 107.644 120.035 108.22 119.264 108.501C118.233 108.873 117.232 109.258 116.237 109.636C109.899 112.045 103.352 114.53 93.5799 113.762C83.3949 112.953 74.9093 115.194 69.683 120.071C65.609 123.842 63.6244 129.086 63.6884 135.663C63.6922 136.069 63.6159 136.473 63.4639 136.85C63.3118 137.227 63.0869 137.571 62.8021 137.861C62.5173 138.151 62.1781 138.382 61.8039 138.541C61.4297 138.701 61.0278 138.784 60.6212 138.788H60.5921Z" fill="#0C9CFF"/>
<path d="M132.198 112.873L119.744 117.436C118.705 117.816 117.557 117.769 116.553 117.303C115.549 116.837 114.771 115.992 114.39 114.953L109.247 100.914C108.866 99.8744 108.914 98.7266 109.38 97.7225C109.845 96.7185 110.691 95.9406 111.73 95.5599L124.184 90.9973L132.192 112.857L132.198 112.873Z" fill="#0C9CFF"/>
<path opacity="0.7" d="M132.198 112.873L119.744 117.436C118.705 117.816 117.557 117.769 116.553 117.303C115.549 116.837 114.771 115.992 114.39 114.953L109.247 100.914C108.866 99.8744 108.914 98.7266 109.38 97.7225C109.845 96.7185 110.691 95.9406 111.73 95.5599L124.184 90.9973L132.192 112.857L132.198 112.873Z" fill="white"/>
<path opacity="0.2" d="M118.635 93.0253L124.193 90.9941L132.201 112.866L126.643 114.903C126.273 114.545 125.991 114.107 125.817 113.622L118.833 94.5385C118.65 94.0564 118.582 93.5382 118.635 93.0253Z" fill="#0C9CFF"/>
<path d="M136.674 96.4424L136.128 96.6426L137.461 100.282L138.008 100.082L136.674 96.4424Z" fill="#0C9CFF"/>
<path d="M135.286 94.3763L133.325 89.0102C132.988 88.1003 132.381 87.3153 131.585 86.7607C130.789 86.2061 129.843 85.9086 128.872 85.9082C128.32 85.9066 127.773 86.0032 127.254 86.1934L123.716 87.4912L123.512 86.9441L127.057 85.6463C127.638 85.4331 128.253 85.3247 128.872 85.3262C129.962 85.3288 131.026 85.6647 131.919 86.2889C132.813 86.9131 133.494 87.7956 133.872 88.8182L135.833 94.1842L135.286 94.3763Z" fill="#0C9CFF"/>
<path d="M132.295 114.441L137.492 112.561C139.19 111.947 140.069 110.073 139.455 108.375L132.4 88.8712C131.786 87.1732 129.912 86.2945 128.214 86.9087L123.016 88.7886C121.318 89.4028 120.44 91.2772 121.054 92.9753L128.108 112.479C128.723 114.177 130.597 115.055 132.295 114.441Z" fill="#0C9CFF"/>
<path d="M129.321 94.7889C129.44 95.1134 129.459 95.4658 129.378 95.8016C129.296 96.1373 129.116 96.4412 128.862 96.6749C128.607 96.9085 128.289 97.0614 127.948 97.1141C127.606 97.1669 127.257 97.1171 126.943 96.9711C126.63 96.8251 126.367 96.5895 126.188 96.294C126.009 95.9986 125.921 95.6566 125.937 95.3114C125.952 94.9662 126.069 94.6333 126.274 94.3549C126.479 94.0764 126.761 93.8649 127.086 93.7471C127.521 93.5896 128 93.6108 128.419 93.8061C128.838 94.0014 129.162 94.3548 129.321 94.7889Z" fill="#263238"/>
<path d="M133.668 106.656C133.786 106.98 133.806 107.332 133.724 107.668C133.642 108.003 133.463 108.307 133.208 108.54C132.954 108.774 132.636 108.926 132.295 108.979C131.954 109.032 131.605 108.983 131.292 108.837C130.979 108.692 130.716 108.456 130.536 108.162C130.357 107.867 130.269 107.525 130.283 107.18C130.298 106.835 130.414 106.502 130.618 106.224C130.822 105.945 131.103 105.733 131.428 105.614C131.643 105.535 131.872 105.5 132.101 105.509C132.331 105.519 132.556 105.574 132.764 105.671C132.972 105.767 133.159 105.904 133.314 106.073C133.469 106.242 133.59 106.44 133.668 106.656Z" fill="#263238"/>
<path d="M82.6439 105.254L82.5974 105.201C81.6894 104.293 80.7291 103.304 79.862 102.291C78.9948 101.279 78.1451 100.266 77.371 99.2183C76.6121 98.1962 75.9219 97.125 75.3049 96.0115C74.8634 95.2151 74.4878 94.3839 74.1816 93.5263C74.5308 92.3623 74.9033 91.1983 75.3457 90.0809C75.852 88.7365 76.4224 87.4153 77.0451 86.1116C77.6678 84.808 78.3313 83.5276 79.0472 82.2763C79.3964 81.6477 79.763 81.025 80.1413 80.4139L80.7233 79.5176C80.9037 79.2266 81.1191 78.9356 81.2704 78.6853L81.3344 78.5922C81.7481 77.9616 81.9009 77.195 81.7604 76.4539C81.6199 75.7129 81.1972 75.0554 80.5814 74.6199C79.9656 74.1845 79.2048 74.0052 78.4593 74.1197C77.7138 74.2343 77.042 74.6338 76.5853 75.2341C76.2943 75.6298 76.0731 75.9441 75.8403 76.2875C75.6075 76.6309 75.398 76.9742 75.1769 77.3176C74.752 78.0044 74.3388 78.697 73.943 79.4012C73.1557 80.8061 72.4427 82.2515 71.8071 83.7313C71.4812 84.4646 71.2251 85.2154 70.8933 85.9661C70.5616 86.7169 70.3404 87.4793 70.1076 88.2592C69.6136 89.8045 69.2075 91.3764 68.8913 92.9676V93.1015C68.8009 93.5261 68.8312 93.9676 68.9786 94.376C69.5425 95.8683 70.2914 97.2839 71.2076 98.5897C72.0705 99.8292 73.032 100.997 74.0827 102.082C75.1063 103.127 76.1928 104.108 77.3361 105.021C78.4789 105.932 79.6783 106.77 80.927 107.529C81.2302 107.707 81.5877 107.767 81.9325 107.7C82.2772 107.633 82.5856 107.442 82.7997 107.163C83.0139 106.885 83.1192 106.538 83.0959 106.187C83.0725 105.837 82.9222 105.507 82.673 105.259L82.6439 105.254Z" fill="#FF8B7B"/>
<path d="M89.407 108.146L89.3314 107.994C89.0898 107.49 88.7342 107.049 88.2929 106.705C87.8515 106.362 87.3363 106.126 86.788 106.015L82.3706 105.119L80.2114 106.196C80.4442 108.617 83.9013 110.066 83.9013 110.066L84.8849 111.189C85.2165 111.566 85.6755 111.807 86.1739 111.866C86.6722 111.925 87.1749 111.798 87.5854 111.51L88.7494 110.677C89.1406 110.401 89.4213 109.995 89.5417 109.532C89.6621 109.068 89.6144 108.577 89.407 108.146Z" fill="#FF8B7B"/>
<path d="M78.6806 71.9633C76.2304 73.0865 73.623 76.9743 73.623 76.9743L78.861 86.781C78.861 86.781 84.8149 79.9192 84.3144 76.4854C83.907 73.5696 81.8001 70.5316 78.6806 71.9633Z" fill="#0C9CFF"/>
<g opacity="0.3">
<path opacity="0.3" d="M78.6806 71.9633C76.2304 73.0865 73.623 76.9743 73.623 76.9743L78.861 86.781C78.861 86.781 84.8149 79.9192 84.3144 76.4854C83.907 73.5696 81.8001 70.5316 78.6806 71.9633Z" fill="white"/>
</g>
<path d="M246.355 200.457C241.227 200.457 236.187 199.403 233.743 196.214C222.173 181.082 222.277 150.643 222.376 121.188C222.434 105.329 223.686 90.3422 221.922 78.7022C220.886 71.8404 217.266 67.1321 213.611 64.6993C208.187 61.1142 200.737 63.0406 197.554 63.8612C197.157 63.972 196.743 64.0026 196.334 63.9512C195.926 63.8998 195.531 63.7674 195.175 63.5618C194.818 63.3562 194.506 63.0816 194.257 62.7539C194.007 62.4262 193.826 62.0521 193.723 61.6534C193.62 61.2547 193.598 60.8395 193.657 60.4321C193.716 60.0247 193.857 59.6332 194.069 59.2806C194.282 58.928 194.562 58.6213 194.895 58.3785C195.228 58.1357 195.605 57.9617 196.006 57.8666C199.981 56.8365 209.305 54.4328 217.022 59.5311C222.231 62.9708 226.735 69.1109 228.045 77.7768C229.878 89.8824 228.627 105.09 228.569 121.188C228.47 149.607 228.371 178.992 238.661 192.431C239.493 193.513 242.735 194.485 248.118 194.206C248.595 194.206 249.061 194.154 249.521 194.113C249.312 193.691 249.205 193.227 249.206 192.757C249.206 191.936 249.533 191.148 250.113 190.567C250.694 189.987 251.481 189.661 252.303 189.661C259.071 189.661 262.633 190.243 263.32 193.339C263.518 194.229 263.623 196.464 260.352 197.995C257.907 199.141 252.076 200.457 246.355 200.457Z" fill="#0C9CFF"/>
<path d="M178.598 203.128L172.284 200.643L175.613 189.695L181.933 192.175L178.598 203.128Z" fill="#FFC3BD"/>
<path d="M172.133 199.973L179.256 202.767C179.346 202.804 179.422 202.869 179.47 202.954C179.519 203.038 179.538 203.136 179.524 203.233L178.826 207.667C178.807 207.775 178.765 207.876 178.703 207.965C178.64 208.054 178.558 208.128 178.463 208.181C178.368 208.234 178.263 208.265 178.154 208.272C178.046 208.278 177.937 208.261 177.836 208.22C176.049 207.481 173.25 206.259 170.986 205.368C169.595 204.821 166.947 203.948 165.021 203.192C163.094 202.435 163.595 200.433 164.439 200.573C168.274 201.19 169.741 200.532 171.271 199.962C171.549 199.855 171.857 199.859 172.133 199.973Z" fill="#263238"/>
<path opacity="0.2" d="M181.933 192.18L175.613 189.695L173.896 195.341L180.217 197.826L181.933 192.18Z" fill="black"/>
<path d="M189.831 107.441C189.831 107.441 184.116 135.692 181.934 149.625C179.478 165.24 172.988 193.764 172.988 193.764L181.387 197.064C181.387 197.064 193.382 167.859 195.052 153.716C200.086 142.222 210.097 108.396 210.097 108.396L189.831 107.441Z" fill="#0C9CFF"/>
<path d="M172.581 193.811L181.799 197.437L183.377 194.643L173.069 190.371L172.581 193.811Z" fill="#263238"/>
<path d="M170.322 200.096C170.001 199.995 169.722 199.79 169.531 199.514C169.478 199.411 169.45 199.297 169.45 199.182C169.45 199.066 169.478 198.953 169.531 198.85C169.555 198.787 169.595 198.731 169.649 198.69C169.702 198.649 169.766 198.624 169.834 198.617C170.445 198.553 171.58 200.043 171.69 200.218C171.703 200.237 171.709 200.259 171.709 200.282C171.709 200.305 171.703 200.327 171.69 200.346C171.678 200.365 171.66 200.38 171.64 200.389C171.619 200.399 171.596 200.402 171.574 200.398C171.147 200.343 170.727 200.242 170.322 200.096ZM170.014 198.879C169.967 198.856 169.915 198.846 169.863 198.85C169.828 198.85 169.787 198.85 169.746 198.949C169.708 199.018 169.687 199.097 169.687 199.176C169.687 199.255 169.708 199.334 169.746 199.403C169.915 199.711 170.497 199.985 171.341 200.125C170.987 199.625 170.535 199.201 170.014 198.879Z" fill="#0C9CFF"/>
<path d="M171.562 200.392C171.543 200.386 171.527 200.374 171.516 200.358C171.143 199.915 170.619 198.548 170.934 198.076C170.982 198.003 171.054 197.949 171.138 197.922C171.222 197.896 171.312 197.899 171.393 197.931C171.48 197.953 171.561 197.992 171.631 198.048C171.701 198.103 171.759 198.172 171.801 198.251C172.162 198.897 171.754 200.259 171.737 200.317C171.73 200.337 171.718 200.356 171.701 200.37C171.685 200.385 171.665 200.394 171.644 200.398C171.631 200.405 171.617 200.407 171.602 200.406C171.588 200.405 171.574 200.401 171.562 200.392ZM171.364 198.169H171.318C171.167 198.134 171.132 198.169 171.114 198.222C170.94 198.501 171.225 199.49 171.556 200.032C171.722 199.493 171.722 198.917 171.556 198.379C171.52 198.288 171.451 198.214 171.364 198.169Z" fill="#0C9CFF"/>
<path opacity="0.2" d="M202.152 124.547C198.986 128.47 197.735 138.468 197.746 146.803C199.882 140.919 202.332 133.446 204.486 126.66L202.152 124.547Z" fill="black"/>
<path d="M216.603 204.181H209.817L208.915 192.773H215.701L216.603 204.181Z" fill="#FFC3BD"/>
<path d="M209.433 203.611H217.086C217.184 203.611 217.279 203.644 217.356 203.705C217.432 203.767 217.485 203.853 217.505 203.949L218.477 208.326C218.5 208.432 218.498 208.543 218.472 208.649C218.446 208.755 218.397 208.854 218.328 208.939C218.258 209.023 218.171 209.091 218.072 209.137C217.973 209.183 217.865 209.206 217.755 209.204C215.823 209.169 212.779 209.053 210.347 209.053C208.845 209.053 206.063 209.21 203.997 209.21C201.931 209.21 201.669 207.167 202.501 206.981C206.302 206.149 207.431 205.008 208.641 203.914C208.859 203.72 209.141 203.613 209.433 203.611Z" fill="#263238"/>
<path opacity="0.2" d="M215.701 192.773H208.909L209.381 198.657H216.173L215.701 192.773Z" fill="black"/>
<path d="M198.049 107.797C198.049 107.797 201.809 139.277 202.6 150.609C203.7 166.381 207.954 197.518 207.954 197.518H216.975C216.975 197.518 217.942 165.718 216.312 151.569C218.559 139.225 217.848 108.746 217.848 108.746L198.049 107.797Z" fill="#0C9CFF"/>
<path d="M207.594 197.711H217.499L217.947 194.54L206.791 194.33L207.594 197.711Z" fill="#263238"/>
<path d="M207.774 204.386C207.439 204.411 207.105 204.323 206.825 204.135C206.739 204.059 206.671 203.964 206.629 203.856C206.586 203.749 206.57 203.633 206.581 203.518C206.581 203.45 206.6 203.382 206.636 203.324C206.672 203.265 206.723 203.218 206.785 203.187C207.332 202.907 208.921 203.885 209.113 203.996C209.133 204.007 209.149 204.024 209.16 204.045C209.17 204.066 209.174 204.089 209.171 204.112C209.166 204.135 209.154 204.157 209.138 204.174C209.121 204.192 209.101 204.204 209.078 204.211C208.651 204.318 208.214 204.377 207.774 204.386ZM207.041 203.367C206.989 203.364 206.937 203.374 206.889 203.396C206.86 203.396 206.825 203.443 206.82 203.53C206.807 203.608 206.816 203.689 206.843 203.763C206.871 203.837 206.917 203.903 206.977 203.955C207.244 204.182 207.891 204.211 208.723 204.042C208.216 203.712 207.651 203.483 207.058 203.367H207.041Z" fill="#0C9CFF"/>
<path d="M209.055 204.21H208.996C208.49 203.931 207.501 202.854 207.605 202.301C207.623 202.215 207.67 202.138 207.737 202.083C207.805 202.028 207.89 201.998 207.978 201.998C208.066 201.986 208.156 201.992 208.241 202.017C208.326 202.043 208.405 202.086 208.473 202.144C209.055 202.615 209.165 204.035 209.171 204.094C209.172 204.115 209.168 204.136 209.159 204.156C209.15 204.175 209.136 204.192 209.119 204.204C209.098 204.211 209.076 204.213 209.055 204.21ZM208.059 202.214H208.007C207.856 202.214 207.844 202.307 207.838 202.336C207.774 202.656 208.42 203.5 208.909 203.861C208.874 203.298 208.671 202.759 208.327 202.313C208.251 202.251 208.157 202.216 208.059 202.214Z" fill="#0C9CFF"/>
<path d="M201.162 64.3856L195.727 64.3158C193.899 64.3158 192.083 64.2576 190.285 64.2285C189.738 64.2285 189.202 64.1935 188.661 64.1703C188.696 64.1703 188.719 64.1062 188.748 64.0771C189.133 63.6697 189.517 63.2507 189.912 62.8491C190.11 62.6396 190.304 62.4359 190.494 62.238C190.675 62.0401 190.908 61.819 191.03 61.656L191.525 61.0275C191.914 60.5301 192.138 59.9225 192.163 59.2909C192.188 58.6594 192.014 58.036 191.665 57.5091C191.316 56.9822 190.81 56.5786 190.218 56.3556C189.627 56.1326 188.98 56.1015 188.37 56.2667L187.293 56.5577C186.962 56.6566 186.63 56.7672 186.298 56.8778C185.646 57.1048 185.006 57.355 184.372 57.6286C183.093 58.193 181.858 58.8505 180.676 59.5957C179.452 60.3783 178.293 61.2601 177.213 62.2322C176.07 63.2717 175.034 64.4241 174.123 65.6718C173.893 65.9831 173.697 66.3188 173.541 66.6729C173 67.9116 172.974 69.3143 173.467 70.5727C173.96 71.831 174.933 72.8419 176.171 73.3833L176.701 73.6161C177.897 74.1307 179.135 74.5396 180.403 74.8383C181.508 75.1235 182.556 75.3097 183.586 75.4843C184.616 75.6589 185.623 75.7986 186.624 75.9208C187.625 76.0431 188.615 76.1362 189.604 76.2177C191.577 76.3923 193.532 76.4796 195.482 76.5378C197.432 76.596 199.341 76.596 201.366 76.5028C202.945 76.4354 204.436 75.754 205.52 74.6038C206.605 73.4536 207.197 71.9255 207.171 70.3449C207.145 68.7644 206.503 67.2564 205.382 66.1422C204.261 65.028 202.749 64.3956 201.168 64.3798L201.162 64.3856Z" fill="#FFC3BD"/>
<path d="M204.329 75.0072C199.632 80.3616 188.33 78.3595 188.33 78.3595L188.952 65.0201C192.827 64.1675 196.777 63.7092 200.744 63.6524C207.378 63.6407 208.088 70.712 204.329 75.0072Z" fill="#263238"/>
<path d="M191.792 70.904C191.513 73.0574 191.21 75.9557 191.03 79.8551C188.58 92.2517 187.666 101.034 189.831 107.442C191.542 109.555 213.839 109.147 217.849 108.74C220.177 102.978 220.421 86.4375 220.695 72.5336C220.729 70.6176 220.075 68.7528 218.853 67.2772C217.63 65.8016 215.92 64.8129 214.031 64.4903C209.013 63.6009 203.895 63.4285 198.829 63.9782C197.051 64.1804 195.392 64.9724 194.116 66.2277C192.841 67.4831 192.023 69.1294 191.792 70.904Z" fill="#263238"/>
<path opacity="0.2" d="M213.425 79.3652C213.501 83.6022 216.574 90.3709 220.031 93.8047C220.241 90.2254 220.374 86.3434 220.479 82.4266L213.425 79.3652Z" fill="black"/>
<path d="M232.853 87.6003L232.655 87.1347C231.841 85.1934 230.89 83.3126 229.809 81.5068C228.773 79.7608 227.655 78.1137 226.497 76.5248C225.339 74.936 224.111 73.417 222.854 71.9387C222.214 71.2054 221.579 70.472 220.91 69.762L219.903 68.7028L218.832 67.6202C217.71 66.5126 216.202 65.8853 214.625 65.8713C213.049 65.8573 211.529 66.4577 210.388 67.5452C209.246 68.6327 208.574 70.1219 208.512 71.6971C208.45 73.2723 209.003 74.8098 210.056 75.9836L210.23 76.1756L213.647 79.9761C214.811 81.2681 215.922 82.5835 217.028 83.893C217.563 84.5506 218.116 85.2083 218.617 85.8776C219.117 86.5469 219.647 87.1929 220.148 87.8564C220.869 88.8632 221.568 89.8643 222.19 90.8479C222.095 91.3445 221.975 91.8359 221.83 92.3203C221.411 93.7301 220.92 95.1172 220.357 96.4758C219.775 97.9133 219.158 99.3858 218.518 100.835C217.878 102.284 217.191 103.797 216.58 105.252L216.522 105.38C216.254 106.024 216.213 106.739 216.406 107.408C216.6 108.078 217.016 108.661 217.586 109.062C218.156 109.463 218.845 109.658 219.541 109.614C220.236 109.57 220.896 109.29 221.41 108.82C222.694 107.63 223.912 106.371 225.06 105.049C226.224 103.741 227.316 102.364 228.336 100.916C228.854 100.189 229.349 99.4324 229.838 98.6467C230.346 97.8478 230.81 97.0221 231.229 96.1732C231.7 95.2472 232.108 94.2906 232.451 93.3097C232.898 92.0537 233.149 90.7367 233.196 89.4045C233.211 88.7855 233.094 88.1705 232.853 87.6003Z" fill="#FFC3BD"/>
<path d="M214.426 64.5668C222.277 65.9112 227.393 76.5385 227.393 76.5385L217.93 86.7177C217.93 86.7177 212.477 81.1654 209.2 76.0205C205.667 70.4217 208.804 63.6123 214.426 64.5668Z" fill="#263238"/>
<path d="M200.086 47.8101C198.771 45.6043 198.34 42.5721 200.749 39.4817C200.28 39.5405 199.804 39.4619 199.378 39.2552C198.952 39.0486 198.596 38.7229 198.352 38.3177C200.99 36.1591 204.307 35.0045 207.716 35.0585C214.758 35.0585 215.282 37.7764 215.043 39.633C219.862 39.9414 223.378 52.4719 211.161 54.6893C204.172 47.327 200.086 47.8101 200.086 47.8101Z" fill="#263238"/>
<path d="M214.601 39.8587C214.601 39.8587 216.562 37.8567 214.124 35.4355C214.67 35.5855 215.169 35.8744 215.571 36.2742C215.972 36.674 216.264 37.1711 216.417 37.717C216.76 39.1254 215.811 40.2545 214.601 39.8587Z" fill="#263238"/>
<path d="M211.9 53.1582C211.714 57.0169 211.365 61.4051 212.011 64.4839C211.01 66.0611 208.449 67.877 203.863 68.2844C202.233 67.359 200.08 65.095 200.831 63.931C202.78 62.6797 203.607 58.8909 203.048 56.0566L211.9 53.1582Z" fill="#FFC3BD"/>
<path opacity="0.2" d="M209.666 53.8867L203.037 56.0576C203.262 57.2646 203.272 58.5021 203.066 59.7125C205.045 59.6485 207.786 58.1586 208.816 56.7618C209.151 56.3691 209.401 55.9101 209.547 55.4148C209.693 54.9194 209.734 54.3987 209.666 53.8867Z" fill="black"/>
<path d="M213.833 47.0468C212.605 51.7784 212.128 54.6128 209.229 56.5974C204.87 59.583 199.388 56.2365 199.172 51.2372C198.986 46.7325 201.023 39.7485 206.086 38.7533C207.201 38.5297 208.355 38.5948 209.438 38.9426C210.52 39.2903 211.496 39.9091 212.272 40.7401C213.048 41.5711 213.599 42.5867 213.872 43.6905C214.145 44.7943 214.132 45.9497 213.833 47.0468Z" fill="#FFC3BD"/>
<path d="M212.855 40.2734C210.777 41.7517 208.199 48.014 213.437 50.5283C218.14 46.3961 216.923 40.2734 212.855 40.2734Z" fill="#263238"/>
<path d="M214.054 41.0241C214.944 36.9035 204.544 34.7734 201.25 39.5865C200.132 42.4849 213.425 45.0457 214.054 41.0241Z" fill="#263238"/>
<path d="M206.296 52.0703C205.215 51.5817 204.057 51.2881 202.874 51.2031C202.857 51.2031 202.841 51.2065 202.826 51.213C202.81 51.2195 202.797 51.229 202.785 51.241C202.774 51.2529 202.765 51.2671 202.759 51.2826C202.753 51.2981 202.751 51.3146 202.752 51.3312C202.758 51.3688 202.777 51.4031 202.806 51.4285C202.834 51.4538 202.871 51.4688 202.909 51.4708C204.043 51.5528 205.154 51.8325 206.191 52.2973C206.224 52.3116 206.261 52.3129 206.294 52.301C206.328 52.2891 206.355 52.2649 206.372 52.2333C206.378 52.2177 206.381 52.2009 206.381 52.184C206.38 52.1671 206.377 52.1505 206.37 52.1352C206.362 52.1199 206.352 52.1062 206.34 52.0951C206.327 52.0839 206.312 52.0755 206.296 52.0703Z" fill="#263238"/>
<path d="M214.967 52.2209C214.124 53.1161 212.961 53.6413 211.732 53.6817C210.102 53.7167 209.689 52.1627 210.474 50.8358C211.184 49.6718 212.884 48.1818 214.362 48.7755C215.84 49.3691 215.992 51.1093 214.967 52.2209Z" fill="#FFC3BD"/>
<path d="M206.307 46.9663C206.232 47.3562 205.964 47.6356 205.725 47.5832C205.487 47.5308 205.33 47.1758 205.405 46.7859C205.481 46.3959 205.749 46.1224 205.987 46.2039C206.226 46.2853 206.383 46.5589 206.307 46.9663Z" fill="#263238"/>
<path d="M201.902 46.1103C201.826 46.5002 201.558 46.7738 201.32 46.7272C201.081 46.6807 200.918 46.3198 200.994 45.9299C201.069 45.5399 201.337 45.2606 201.576 45.313C201.814 45.3653 201.954 45.7204 201.902 46.1103Z" fill="#263238"/>
<path d="M203.264 46.5586C202.565 47.6601 201.72 48.6608 200.75 49.5326C201.332 50.3067 202.618 50.1553 202.618 50.1553L203.264 46.5586Z" fill="#ED847E"/>
<path d="M205.673 44.7011C205.715 44.692 205.758 44.6936 205.799 44.7059C205.839 44.7181 205.876 44.7405 205.906 44.7709C206.093 44.9968 206.331 45.1752 206.6 45.2915C206.869 45.4079 207.162 45.4588 207.454 45.4402C207.516 45.4318 207.578 45.4478 207.628 45.4848C207.678 45.5217 207.712 45.5768 207.722 45.6381C207.727 45.6684 207.725 45.6994 207.718 45.7292C207.711 45.7589 207.697 45.7869 207.679 45.8114C207.66 45.8359 207.637 45.8563 207.61 45.8716C207.584 45.8868 207.554 45.8965 207.524 45.9C207.154 45.9298 206.783 45.8708 206.441 45.7281C206.099 45.5853 205.796 45.363 205.557 45.0794C205.535 45.0583 205.518 45.0329 205.506 45.0049C205.494 44.9769 205.488 44.9468 205.488 44.9164C205.488 44.886 205.494 44.856 205.506 44.828C205.518 44.8 205.535 44.7746 205.557 44.7535C205.591 44.7278 205.631 44.7099 205.673 44.7011Z" fill="#263238"/>
<path d="M200.54 43.4094C200.492 43.3994 200.448 43.3726 200.418 43.3337C200.398 43.3095 200.384 43.2815 200.375 43.2515C200.367 43.2216 200.364 43.1902 200.368 43.1592C200.372 43.1283 200.382 43.0984 200.397 43.0714C200.413 43.0444 200.434 43.0208 200.459 43.002C200.744 42.7677 201.082 42.6049 201.443 42.5269C201.805 42.449 202.179 42.4582 202.536 42.5538C202.595 42.5738 202.644 42.616 202.672 42.6715C202.701 42.7269 202.706 42.7912 202.688 42.8507C202.664 42.9068 202.621 42.9526 202.567 42.9794C202.512 43.0062 202.449 43.0121 202.391 42.9962C202.106 42.9236 201.809 42.9196 201.522 42.9843C201.236 43.0491 200.969 43.1808 200.744 43.3686C200.717 43.3931 200.683 43.4098 200.647 43.4169C200.612 43.4241 200.574 43.4215 200.54 43.4094Z" fill="#263238"/>
<path d="M219.327 105.086L214.328 105.051L216.912 110.789C216.912 110.789 221.178 109.876 220.945 107.559L219.327 105.086Z" fill="#FFC3BD"/>
<path d="M211.784 108.991L212.605 110.609C212.825 111.04 213.199 111.373 213.652 111.543C214.105 111.713 214.605 111.708 215.055 111.528L216.912 110.789L214.328 105.051L212.343 106.564C211.98 106.838 211.724 107.232 211.622 107.676C211.52 108.12 211.577 108.585 211.784 108.991Z" fill="#FFC3BD"/>
<path d="M181.27 100.859C180.666 100.853 180.077 100.671 179.575 100.335C179.073 99.9984 178.681 99.5231 178.445 98.9669C178.21 98.4107 178.142 97.7978 178.25 97.2036C178.357 96.6093 178.636 96.0594 179.052 95.6215C181.276 93.3284 183.283 91.5475 185.053 89.9935C189.325 86.228 190.797 84.7555 190.657 81.9328C190.448 80.1912 190.078 78.4728 189.552 76.7996C188.277 72.1145 186.834 66.8125 189.307 62.558C190.634 60.2708 192.886 58.7052 196.006 57.902C196.795 57.7149 197.625 57.8444 198.32 58.263C199.014 58.6815 199.516 59.3555 199.719 60.1404C199.922 60.9252 199.808 61.7583 199.404 62.4606C198.999 63.1629 198.335 63.6785 197.554 63.8966C195.36 64.4786 194.83 65.3691 194.644 65.6717C193.48 67.6796 194.603 71.8351 195.511 75.17C196.169 77.2729 196.609 79.4376 196.827 81.6302C197.118 87.5957 193.597 90.7036 189.133 94.6379C187.451 96.1278 185.536 97.8156 183.476 99.9341C183.188 100.228 182.845 100.461 182.466 100.62C182.087 100.779 181.681 100.86 181.27 100.859Z" fill="#0C9CFF"/>
<path d="M188.062 56.394L192.904 55.1543L191.775 61.3468C191.775 61.3468 187.416 61.4806 187.09 59.1817L188.062 56.394Z" fill="#FFC3BD"/>
<path d="M196.303 58.4368L195.93 60.0547C195.816 60.549 195.521 60.9825 195.103 61.2701C194.685 61.5576 194.175 61.6784 193.672 61.6087L191.775 61.3468L192.904 55.1543L195.127 56.1146C195.564 56.3028 195.921 56.6383 196.136 57.0626C196.351 57.487 196.41 57.9733 196.303 58.4368Z" fill="#FFC3BD"/>
<path d="M179.539 90.6759L179.407 90.5442C178.818 89.9556 177.864 89.9558 177.275 90.5446L160.113 107.713C159.524 108.302 159.525 109.256 160.113 109.845L160.245 109.976C160.834 110.565 161.788 110.565 162.377 109.976L179.539 92.8076C180.128 92.2189 180.127 91.2644 179.539 90.6759Z" fill="#263238"/>
<path d="M188.483 99.6097L188.352 99.478C187.763 98.8893 186.808 98.8893 186.22 99.478L169.055 116.643C168.466 117.232 168.466 118.186 169.055 118.775L169.186 118.907C169.775 119.495 170.729 119.495 171.318 118.907L188.483 101.741C189.072 101.153 189.072 100.198 188.483 99.6097Z" fill="#263238"/>
<path d="M165.528 97.0664L177.623 84.9714C178.011 84.5839 178.471 84.2765 178.977 84.0668C179.483 83.8571 180.026 83.7491 180.574 83.7491C181.122 83.7491 181.665 83.8571 182.171 84.0668C182.677 84.2765 183.137 84.5839 183.525 84.9714L194.097 95.5437C194.485 95.9312 194.792 96.3912 195.002 96.8975C195.211 97.4038 195.319 97.9464 195.319 98.4944C195.319 99.0424 195.211 99.5851 195.002 100.091C194.792 100.598 194.485 101.058 194.097 101.445L182.002 113.54L165.528 97.0664Z" fill="#0C9CFF"/>
<path opacity="0.7" d="M165.528 97.0664L177.623 84.9714C178.011 84.5839 178.471 84.2765 178.977 84.0668C179.483 83.8571 180.026 83.7491 180.574 83.7491C181.122 83.7491 181.665 83.8571 182.171 84.0668C182.677 84.2765 183.137 84.5839 183.525 84.9714L194.097 95.5437C194.485 95.9312 194.792 96.3912 195.002 96.8975C195.211 97.4038 195.319 97.9464 195.319 98.4944C195.319 99.0424 195.211 99.5851 195.002 100.091C194.792 100.598 194.485 101.058 194.097 101.445L182.002 113.54L165.528 97.0664Z" fill="white"/>
<path opacity="0.2" d="M169.7 92.8613L165.509 97.0459L181.986 113.522L186.17 109.332C186.004 108.845 185.727 108.402 185.361 108.04L170.992 93.6994C170.632 93.3232 170.19 93.0362 169.7 92.8613Z" fill="#0C9CFF"/>
<path d="M164.803 94.9375L164.502 95.238C163.225 96.5153 163.225 98.5863 164.502 99.8636L179.174 114.535C180.451 115.812 182.522 115.812 183.799 114.535L184.1 114.234C185.377 112.957 185.377 110.886 184.1 109.609L169.428 94.9375C168.151 93.6602 166.08 93.6602 164.803 94.9375Z" fill="#0C9CFF"/>
</svg>
