<svg width="290" height="217" viewBox="0 0 290 217" fill="none" xmlns="http://www.w3.org/2000/svg">
<path d="M290 189.893H0V190.038H290V189.893Z" fill="#EBEBEB"/>
<path d="M260.942 199.225H241.732V199.37H260.942V199.225Z" fill="#EBEBEB"/>
<path d="M192.108 200.802H187.067V200.947H192.108V200.802Z" fill="#EBEBEB"/>
<path d="M241.152 193.842H230.022V193.987H241.152V193.842Z" fill="#EBEBEB"/>
<path d="M55.477 194.816H30.4268V194.961H55.477V194.816Z" fill="#EBEBEB"/>
<path d="M64.3159 194.816H60.6445V194.961H64.3159V194.816Z" fill="#EBEBEB"/>
<path d="M130.587 197.264H76.2524V197.409H130.587V197.264Z" fill="#EBEBEB"/>
<path d="M137.46 164.024H25.4676C24.5903 164.022 23.7494 163.673 23.1296 163.052C22.5097 162.431 22.1616 161.59 22.1616 160.712V3.2828C22.1693 2.41049 22.5208 1.57643 23.1398 0.961767C23.7588 0.347106 24.5953 0.0014943 25.4676 0H137.46C138.338 0 139.181 0.348921 139.802 0.970004C140.423 1.59109 140.772 2.43346 140.772 3.3118V160.712C140.772 161.591 140.423 162.433 139.802 163.054C139.181 163.675 138.338 164.024 137.46 164.024ZM25.4676 0.116C24.6287 0.117537 23.8247 0.451858 23.2321 1.04558C22.6395 1.63931 22.3066 2.44392 22.3066 3.2828V160.712C22.3066 161.551 22.6395 162.356 23.2321 162.949C23.8247 163.543 24.6287 163.877 25.4676 163.879H137.46C138.299 163.877 139.104 163.543 139.697 162.95C140.291 162.356 140.625 161.552 140.627 160.712V3.2828C140.625 2.44338 140.291 1.63879 139.697 1.04523C139.104 0.451669 138.299 0.117534 137.46 0.116H25.4676Z" fill="#EBEBEB"/>
<path d="M262.92 164.024H150.922C150.044 164.022 149.203 163.673 148.582 163.052C147.961 162.432 147.612 161.59 147.61 160.712V3.2828C147.62 2.40997 147.972 1.5759 148.592 0.961404C149.212 0.346903 150.049 0.00147801 150.922 0H262.92C263.791 0.00301861 264.627 0.349305 265.244 0.963802C265.862 1.5783 266.213 2.4115 266.22 3.2828V160.712C266.22 161.589 265.873 162.429 265.254 163.05C264.636 163.671 263.796 164.021 262.92 164.024ZM150.922 0.116C150.083 0.117534 149.278 0.451669 148.685 1.04523C148.091 1.63879 147.757 2.44338 147.755 3.2828V160.712C147.757 161.552 148.091 162.356 148.685 162.95C149.278 163.543 150.083 163.877 150.922 163.879H262.92C263.76 163.877 264.564 163.543 265.158 162.95C265.751 162.356 266.085 161.552 266.087 160.712V3.2828C266.085 2.44338 265.751 1.63879 265.158 1.04523C264.564 0.451669 263.76 0.117534 262.92 0.116H150.922Z" fill="#EBEBEB"/>
<path d="M238.658 169.83C238.658 169.83 234.204 161.13 239.296 152.512C244.389 143.893 245.862 141.886 242.614 140.123C239.366 138.36 237.881 147.002 237.881 147.002C237.881 147.002 235.144 141.057 237.406 134.822C239.668 128.587 241.083 118.466 237.986 117.381C234.888 116.296 237.406 130.019 234.714 134.7C234.714 134.7 232.47 129.48 232.099 124.492C231.727 119.504 232.307 111.517 229.871 109.47C227.435 107.422 225.869 108.843 228.265 119.869C229.703 126.439 230.499 133.132 230.643 139.856C230.643 139.856 225.353 125.391 221.804 124.973C218.254 124.556 218.26 129.236 221.299 133.296C224.338 137.356 230.196 144.641 231.159 148.376C231.159 148.376 225.359 137.495 220.139 140.836C214.919 144.177 224.686 150.748 229.042 153.121C233.398 155.493 236.414 170.393 236.414 170.393L238.658 169.83Z" fill="#E0E0E0"/>
<path d="M235.138 173.42C235.138 173.42 239.482 164.639 234.273 156.107C229.065 147.575 227.563 145.574 230.793 143.77C234.024 141.967 235.619 150.585 235.619 150.585C235.619 150.585 238.275 144.6 235.932 138.405C233.589 132.211 232.04 122.102 235.109 120.976C238.177 119.851 235.868 133.609 238.589 138.249C238.589 138.249 240.769 133.029 241.071 128.012C241.373 122.995 240.688 115.037 243.101 112.961C245.514 110.884 247.086 112.276 244.841 123.331C243.493 129.921 242.786 136.627 242.73 143.353C242.73 143.353 247.828 128.818 251.372 128.348C254.916 127.878 254.974 132.565 251.987 136.665C249 140.766 243.24 148.126 242.33 151.885C242.33 151.885 247.99 140.923 253.257 144.188C258.523 147.453 248.843 154.158 244.522 156.594C240.201 159.03 237.376 173.959 237.376 173.959L235.138 173.42Z" fill="#E6E6E6"/>
<path d="M255.159 167.15H219.304L222.204 190.165H252.259L255.159 167.15Z" fill="#F0F0F0"/>
<path d="M191.203 21.4951H125.883V93.7747H191.203V21.4951Z" fill="#E9E9E9"/>
<path d="M188.5 24.3594H128.76V91.0594H188.5V24.3594Z" fill="#F4F4F4"/>
<path d="M145.644 24.3594L128.76 87.591V53.3594L136.486 24.3594H145.644Z" fill="white"/>
<path d="M153.19 24.3594L135.384 91.0594H132.025L149.831 24.3594H153.19Z" fill="white"/>
<path d="M188.5 42.5488V76.7862L184.719 91.06H175.561L188.5 42.5488Z" fill="white"/>
<path d="M159.703 21.4951H157.383V93.7747H159.703V21.4951Z" fill="#E9E9E9"/>
<path d="M189.95 36.1631H127.02V38.4831H189.95V36.1631Z" fill="#E9E9E9"/>
<path d="M101.883 21.4951H36.5635V93.7747H101.883V21.4951Z" fill="#E9E9E9"/>
<path d="M99.1804 24.3594H39.4404V91.0594H99.1804V24.3594Z" fill="#F4F4F4"/>
<path d="M56.3242 24.3594L39.4404 87.591V53.3594L47.166 24.3594H56.3242Z" fill="white"/>
<path d="M63.8698 24.3594L46.0638 91.0594H42.7056L60.5116 24.3594H63.8698Z" fill="white"/>
<path d="M99.1795 42.5488V76.7862L95.3979 91.06H86.2397L99.1795 42.5488Z" fill="white"/>
<path d="M70.383 21.4951H68.063V93.7747H70.383V21.4951Z" fill="#E9E9E9"/>
<path d="M100.63 36.1631H37.6997V38.4831H100.63V36.1631Z" fill="#E9E9E9"/>
<path d="M145 216.084C207.108 216.084 257.456 213.145 257.456 209.519C257.456 205.893 207.108 202.953 145 202.953C82.8923 202.953 32.5439 205.893 32.5439 209.519C32.5439 213.145 82.8923 216.084 145 216.084Z" fill="#F5F5F5"/>
<path d="M221.363 190.164H132.339C131.806 190.172 131.277 190.068 130.787 189.858C130.298 189.647 129.858 189.336 129.497 188.944C129.136 188.552 128.862 188.088 128.693 187.582C128.524 187.077 128.464 186.542 128.516 186.011L139.739 42.0322C139.841 40.9101 140.354 39.8652 141.179 39.0986C142.005 38.3319 143.085 37.8977 144.211 37.8794H233.23C233.763 37.8711 234.291 37.9756 234.781 38.1858C235.271 38.396 235.711 38.7073 236.073 39.0993C236.434 39.4913 236.708 39.9552 236.878 40.4606C237.048 40.966 237.109 41.5015 237.058 42.0322L225.835 186.011C225.732 187.133 225.219 188.177 224.393 188.943C223.568 189.71 222.489 190.145 221.363 190.164Z" fill="#2E353A"/>
<path opacity="0.2" d="M221.363 190.164H132.339C131.806 190.172 131.277 190.068 130.787 189.858C130.298 189.647 129.858 189.336 129.497 188.944C129.136 188.552 128.862 188.088 128.693 187.582C128.524 187.077 128.464 186.542 128.516 186.011L139.739 42.0322C139.841 40.9101 140.354 39.8652 141.179 39.0986C142.005 38.3319 143.085 37.8977 144.211 37.8794H233.23C233.763 37.8711 234.291 37.9756 234.781 38.1858C235.271 38.396 235.711 38.7073 236.073 39.0993C236.434 39.4913 236.708 39.9552 236.878 40.4606C237.048 40.966 237.109 41.5015 237.058 42.0322L225.835 186.011C225.732 187.133 225.219 188.177 224.393 188.943C223.568 189.71 222.489 190.145 221.363 190.164Z" fill="white"/>
<path d="M209.305 47.2924H166.675C166.488 47.2958 166.303 47.2596 166.132 47.1864C165.96 47.1132 165.806 47.0046 165.68 46.8677C165.553 46.7308 165.457 46.5686 165.398 46.3919C165.338 46.2152 165.317 46.028 165.335 45.8424L165.99 37.4266C166.026 37.0336 166.205 36.6676 166.495 36.3989C166.784 36.1303 167.162 35.9778 167.556 35.9708H210.186C210.373 35.9682 210.558 36.0051 210.729 36.079C210.9 36.1529 211.054 36.2622 211.18 36.3997C211.306 36.5372 211.401 36.6997 211.46 36.8767C211.518 37.0537 211.539 37.2411 211.52 37.4266L210.865 45.8192C210.835 46.2149 210.658 46.585 210.369 46.8574C210.081 47.1298 209.701 47.2849 209.305 47.2924Z" fill="#0C9CFF"/>
<path opacity="0.2" d="M209.305 47.2924H166.675C166.488 47.2958 166.303 47.2596 166.132 47.1864C165.96 47.1132 165.806 47.0046 165.68 46.8677C165.553 46.7308 165.457 46.5686 165.398 46.3919C165.338 46.2152 165.317 46.028 165.335 45.8424L165.99 37.4266C166.026 37.0336 166.205 36.6676 166.495 36.3989C166.784 36.1303 167.162 35.9778 167.556 35.9708H210.186C210.373 35.9682 210.558 36.0051 210.729 36.079C210.9 36.1529 211.054 36.2622 211.18 36.3997C211.306 36.5372 211.401 36.6997 211.46 36.8767C211.518 37.0537 211.539 37.2411 211.52 37.4266L210.865 45.8192C210.835 46.2149 210.658 46.585 210.369 46.8574C210.081 47.1298 209.701 47.2849 209.305 47.2924Z" fill="black"/>
<path d="M191.98 38.5873H185.31L185.571 35.2465C185.653 34.3456 186.064 33.5066 186.727 32.891C187.39 32.2753 188.257 31.9265 189.161 31.9115C189.59 31.9047 190.015 31.9883 190.409 32.157C190.802 32.3256 191.156 32.5755 191.447 32.8903C191.738 33.2051 191.959 33.5776 192.095 33.9837C192.232 34.3897 192.282 34.82 192.241 35.2465L191.98 38.5873Z" fill="#0C9CFF"/>
<path opacity="0.4" d="M191.98 38.5873H185.31L185.571 35.2465C185.653 34.3456 186.064 33.5066 186.727 32.891C187.39 32.2753 188.257 31.9265 189.161 31.9115C189.59 31.9047 190.015 31.9883 190.409 32.157C190.802 32.3256 191.156 32.5755 191.447 32.8903C191.738 33.2051 191.959 33.5776 192.095 33.9837C192.232 34.3897 192.282 34.82 192.241 35.2465L191.98 38.5873Z" fill="white"/>
<path d="M220.162 184.149H134.473L145.412 43.8877H231.095L220.162 184.149Z" fill="white"/>
<path d="M201.376 51.2313H174C173.562 51.2375 173.126 51.1509 172.723 50.9774C172.32 50.8039 171.958 50.5473 171.661 50.2243C171.364 49.9014 171.138 49.5193 170.998 49.1032C170.859 48.6871 170.809 48.2462 170.851 47.8093L171.199 43.3549C171.283 42.4309 171.706 41.5705 172.386 40.9389C173.065 40.3074 173.954 39.9491 174.882 39.9329H202.264C202.703 39.9269 203.138 40.0134 203.542 40.1869C203.945 40.3603 204.308 40.6168 204.605 40.9397C204.903 41.2625 205.129 41.6445 205.269 42.0606C205.41 42.4767 205.461 42.9178 205.419 43.3549L205.071 47.8093C204.984 48.7343 204.559 49.5949 203.878 50.2262C203.196 50.8575 202.305 51.2154 201.376 51.2313ZM174.778 41.0987C174.166 41.109 173.579 41.3451 173.131 41.7615C172.682 42.1779 172.403 42.7454 172.347 43.3549L171.999 47.8093C171.971 48.0977 172.003 48.389 172.095 48.6639C172.187 48.9389 172.336 49.1913 172.532 49.4049C172.728 49.6184 172.966 49.7881 173.233 49.903C173.499 50.0178 173.786 50.0752 174.076 50.0713H201.463C202.077 50.061 202.665 49.8243 203.115 49.4068C203.564 48.9893 203.844 48.4204 203.899 47.8093L204.247 43.3549C204.274 43.0666 204.24 42.7759 204.147 42.5017C204.055 42.2274 203.905 41.9758 203.709 41.763C203.513 41.5502 203.274 41.3811 203.008 41.2667C202.742 41.1523 202.455 41.095 202.165 41.0987H174.778Z" fill="#0C9CFF"/>
<g opacity="0.4">
<path opacity="0.4" d="M201.376 51.2313H174C173.562 51.2375 173.126 51.1509 172.723 50.9774C172.32 50.8039 171.958 50.5473 171.661 50.2243C171.364 49.9014 171.138 49.5193 170.998 49.1032C170.859 48.6871 170.809 48.2462 170.851 47.8093L171.199 43.3549C171.283 42.4309 171.706 41.5705 172.386 40.9389C173.065 40.3074 173.954 39.9491 174.882 39.9329H202.264C202.703 39.9269 203.138 40.0134 203.542 40.1869C203.945 40.3603 204.308 40.6168 204.605 40.9397C204.903 41.2625 205.129 41.6445 205.269 42.0606C205.41 42.4767 205.461 42.9178 205.419 43.3549L205.071 47.8093C204.984 48.7343 204.559 49.5949 203.878 50.2262C203.196 50.8575 202.305 51.2154 201.376 51.2313ZM174.778 41.0987C174.166 41.109 173.579 41.3451 173.131 41.7615C172.682 42.1779 172.403 42.7454 172.347 43.3549L171.999 47.8093C171.971 48.0977 172.003 48.389 172.095 48.6639C172.187 48.9389 172.336 49.1913 172.532 49.4049C172.728 49.6184 172.966 49.7881 173.233 49.903C173.499 50.0178 173.786 50.0752 174.076 50.0713H201.463C202.077 50.061 202.665 49.8243 203.115 49.4068C203.564 48.9893 203.844 48.4204 203.899 47.8093L204.247 43.3549C204.274 43.0666 204.24 42.7759 204.147 42.5017C204.055 42.2274 203.905 41.9758 203.709 41.763C203.513 41.5502 203.274 41.3811 203.008 41.2667C202.742 41.1523 202.455 41.095 202.165 41.0987H174.778Z" fill="white"/>
</g>
<path d="M199.961 42.5031H176.761C176.659 42.5052 176.557 42.4857 176.463 42.4457C176.369 42.4057 176.284 42.3462 176.214 42.2712C176.145 42.1961 176.092 42.1071 176.059 42.0102C176.026 41.9132 176.015 41.8104 176.024 41.7085L176.204 39.3885C176.226 39.1731 176.325 38.973 176.485 38.8265C176.644 38.6799 176.852 38.5971 177.068 38.5939H200.268C200.37 38.5917 200.472 38.6113 200.566 38.6513C200.66 38.6913 200.744 38.7509 200.813 38.8261C200.882 38.9013 200.935 38.9903 200.967 39.0873C200.999 39.1843 201.01 39.287 200.999 39.3885L200.819 41.7085C200.799 41.9235 200.701 42.1235 200.542 42.2701C200.384 42.4168 200.177 42.4998 199.961 42.5031Z" fill="#0C9CFF"/>
<path d="M219.606 64.3806H154.646L155.196 57.293H220.156L219.606 64.3806Z" fill="#0C9CFF"/>
<path d="M193.314 74.2459H150.069L150.214 72.4189H193.459L193.314 74.2459Z" fill="#0C9CFF"/>
<path d="M192.908 79.5232H149.664L149.803 77.6904H193.048L192.908 79.5232Z" fill="#0C9CFF"/>
<path d="M192.496 84.8016H149.251L149.391 82.9688H192.635L192.496 84.8016Z" fill="#0C9CFF"/>
<path d="M192.085 90.0741H148.84L148.979 88.2471H192.224L192.085 90.0741Z" fill="#0C9CFF"/>
<path d="M220.458 90.0741H202.814L204.195 72.4189H221.838L220.458 90.0741Z" fill="#0C9CFF"/>
<path d="M215.574 78.9732C215.656 77.9408 214.855 77.2332 213.405 77.2332C212.842 77.2064 212.281 77.3072 211.763 77.5282C211.244 77.7492 210.783 78.0845 210.412 78.5092L209.299 77.6682C209.84 77.0647 210.508 76.5892 211.255 76.2762C212.003 75.9632 212.81 75.8205 213.62 75.8586C215.94 75.8586 217.367 76.9432 217.222 78.7586C217.013 81.4556 214.142 81.6586 213.979 83.7524H212.361C212.564 81.2004 215.429 80.8292 215.574 78.9732ZM211.932 86.3566C211.953 86.0673 212.086 85.7976 212.302 85.6048C212.519 85.412 212.802 85.3113 213.092 85.3242C213.225 85.319 213.358 85.3428 213.482 85.3941C213.605 85.4453 213.716 85.5226 213.806 85.6208C213.896 85.719 213.964 85.8356 214.005 85.9626C214.046 86.0897 214.059 86.2241 214.043 86.3566C214.021 86.6371 213.895 86.8991 213.688 87.0905C213.482 87.2818 213.211 87.3884 212.93 87.389C212.793 87.3991 212.656 87.3791 212.528 87.3303C212.4 87.2815 212.284 87.2051 212.189 87.1066C212.094 87.0081 212.021 86.8898 211.977 86.7602C211.933 86.6306 211.917 86.4928 211.932 86.3566Z" fill="white"/>
<path d="M191.232 100.966H147.987L148.132 99.1328H191.377L191.232 100.966Z" fill="#0C9CFF"/>
<path d="M190.82 106.239H147.575L147.72 104.412H190.965L190.82 106.239Z" fill="#0C9CFF"/>
<path d="M190.414 111.516H147.169L147.308 109.689H190.553L190.414 111.516Z" fill="#0C9CFF"/>
<path d="M190.002 116.795H146.757L146.897 114.962H190.141L190.002 116.795Z" fill="#0C9CFF"/>
<path d="M218.376 116.794H200.732L202.107 99.1328H219.751L218.376 116.794Z" fill="#0C9CFF"/>
<path d="M213.492 105.693C213.574 104.655 212.773 103.953 211.323 103.953C210.76 103.927 210.199 104.027 209.681 104.248C209.162 104.469 208.701 104.805 208.33 105.229L207.217 104.4C207.757 103.796 208.425 103.319 209.173 103.006C209.92 102.693 210.728 102.551 211.538 102.59C213.858 102.59 215.285 103.675 215.14 105.49C214.931 108.187 212.06 108.39 211.897 110.484H210.279C210.476 107.88 213.347 107.549 213.492 105.693ZM209.85 113.1C209.869 112.815 209.997 112.548 210.208 112.355C210.419 112.162 210.695 112.057 210.981 112.062C211.115 112.056 211.248 112.08 211.372 112.132C211.496 112.184 211.607 112.261 211.697 112.36C211.788 112.459 211.856 112.576 211.896 112.704C211.937 112.832 211.949 112.967 211.932 113.1C211.909 113.38 211.782 113.641 211.576 113.832C211.37 114.023 211.1 114.13 210.819 114.132C210.684 114.138 210.55 114.115 210.426 114.064C210.301 114.013 210.189 113.936 210.097 113.838C210.006 113.74 209.936 113.624 209.893 113.496C209.85 113.369 209.836 113.234 209.85 113.1Z" fill="white"/>
<path d="M189.15 127.682H145.905L146.05 125.854H189.295L189.15 127.682Z" fill="#0C9CFF"/>
<path d="M188.738 132.959H145.493L145.638 131.126H188.883L188.738 132.959Z" fill="#0C9CFF"/>
<path d="M188.326 138.237H145.087L145.226 136.404H188.471L188.326 138.237Z" fill="#0C9CFF"/>
<path d="M187.92 143.51H144.675L144.814 141.683H188.059L187.92 143.51Z" fill="#0C9CFF"/>
<path d="M216.294 143.51H198.65L200.025 125.854H217.669L216.294 143.51Z" fill="#0C9CFF"/>
<path d="M211.41 132.408C211.491 131.375 210.691 130.668 209.235 130.668C208.673 130.642 208.112 130.743 207.595 130.964C207.078 131.185 206.617 131.52 206.248 131.944L205.134 131.08C205.674 130.475 206.342 129.999 207.09 129.686C207.838 129.373 208.646 129.231 209.455 129.27C211.775 129.27 213.196 130.349 213.057 132.141C212.848 134.844 209.977 135.041 209.815 137.135H208.22C208.394 134.623 211.265 134.264 211.41 132.408ZM207.767 139.78C207.788 139.496 207.917 139.23 208.127 139.038C208.338 138.846 208.614 138.742 208.898 138.747C209.032 138.742 209.165 138.766 209.288 138.817C209.411 138.868 209.522 138.946 209.612 139.044C209.703 139.142 209.771 139.259 209.812 139.386C209.853 139.513 209.866 139.647 209.85 139.78C209.828 140.06 209.701 140.322 209.495 140.514C209.288 140.705 209.017 140.811 208.736 140.812C208.602 140.819 208.467 140.796 208.342 140.746C208.217 140.695 208.105 140.618 208.013 140.52C207.921 140.422 207.851 140.305 207.808 140.177C207.766 140.049 207.752 139.913 207.767 139.78Z" fill="white"/>
<path d="M187.068 154.401H143.823L143.968 152.568H187.213L187.068 154.401Z" fill="#0C9CFF"/>
<path d="M186.655 159.679H143.411L143.556 157.847H186.8L186.655 159.679Z" fill="#0C9CFF"/>
<path d="M186.243 164.952H142.999L143.144 163.125H186.388L186.243 164.952Z" fill="#0C9CFF"/>
<path d="M185.832 170.23H142.587L142.732 168.397H185.977L185.832 170.23Z" fill="#0C9CFF"/>
<path d="M214.211 170.229H196.568L197.942 152.568H215.586L214.211 170.229Z" fill="#0C9CFF"/>
<path d="M209.328 159.129C209.409 158.091 208.609 157.389 207.153 157.389C206.591 157.362 206.03 157.463 205.513 157.684C204.996 157.905 204.535 158.24 204.166 158.665L203.052 157.824C203.592 157.219 204.26 156.743 205.008 156.43C205.756 156.117 206.564 155.975 207.373 156.014C209.693 156.014 211.114 157.099 210.975 158.914C210.766 161.611 207.895 161.814 207.733 163.908H206.115C206.312 161.339 209.183 160.985 209.328 159.129ZM205.685 166.512C205.705 166.227 205.833 165.96 206.043 165.767C206.254 165.574 206.531 165.469 206.816 165.474C206.95 165.469 207.084 165.493 207.208 165.544C207.331 165.596 207.442 165.674 207.533 165.773C207.623 165.871 207.691 165.989 207.732 166.116C207.772 166.244 207.785 166.379 207.768 166.512C207.744 166.792 207.617 167.054 207.411 167.245C207.205 167.436 206.935 167.543 206.654 167.545C206.52 167.55 206.386 167.527 206.261 167.476C206.137 167.426 206.025 167.349 205.933 167.251C205.841 167.153 205.771 167.036 205.729 166.908C205.686 166.781 205.671 166.646 205.685 166.512Z" fill="white"/>
<path opacity="0.7" d="M219.606 64.3806H154.646L155.196 57.293H220.156L219.606 64.3806Z" fill="white"/>
<path opacity="0.7" d="M193.314 74.2459H150.069L150.214 72.4189H193.459L193.314 74.2459Z" fill="white"/>
<path opacity="0.7" d="M192.908 79.5232H149.664L149.803 77.6904H193.048L192.908 79.5232Z" fill="white"/>
<path opacity="0.7" d="M192.496 84.8016H149.251L149.391 82.9688H192.635L192.496 84.8016Z" fill="white"/>
<path opacity="0.7" d="M192.085 90.0741H148.84L148.979 88.2471H192.224L192.085 90.0741Z" fill="white"/>
<path opacity="0.7" d="M220.458 90.0741H202.814L204.195 72.4189H221.838L220.458 90.0741Z" fill="white"/>
<path opacity="0.7" d="M191.232 100.966H147.987L148.132 99.1328H191.377L191.232 100.966Z" fill="white"/>
<path opacity="0.7" d="M190.82 106.239H147.575L147.72 104.412H190.965L190.82 106.239Z" fill="white"/>
<path opacity="0.7" d="M190.414 111.516H147.169L147.308 109.689H190.553L190.414 111.516Z" fill="white"/>
<path opacity="0.7" d="M190.002 116.795H146.757L146.897 114.962H190.141L190.002 116.795Z" fill="white"/>
<path opacity="0.7" d="M218.376 116.794H200.732L202.107 99.1328H219.751L218.376 116.794Z" fill="white"/>
<path opacity="0.7" d="M189.15 127.682H145.905L146.05 125.854H189.295L189.15 127.682Z" fill="white"/>
<path opacity="0.7" d="M188.738 132.959H145.493L145.638 131.126H188.883L188.738 132.959Z" fill="white"/>
<path opacity="0.7" d="M188.326 138.237H145.087L145.226 136.404H188.471L188.326 138.237Z" fill="white"/>
<path opacity="0.7" d="M187.92 143.51H144.675L144.814 141.683H188.059L187.92 143.51Z" fill="white"/>
<path opacity="0.7" d="M216.294 143.51H198.65L200.025 125.854H217.669L216.294 143.51Z" fill="white"/>
<path opacity="0.7" d="M187.068 154.401H143.823L143.968 152.568H187.213L187.068 154.401Z" fill="white"/>
<path opacity="0.7" d="M186.655 159.679H143.411L143.556 157.847H186.8L186.655 159.679Z" fill="white"/>
<path opacity="0.7" d="M186.243 164.952H142.999L143.144 163.125H186.388L186.243 164.952Z" fill="white"/>
<path opacity="0.7" d="M185.832 170.23H142.587L142.732 168.397H185.977L185.832 170.23Z" fill="white"/>
<path opacity="0.7" d="M214.211 170.229H196.568L197.942 152.568H215.586L214.211 170.229Z" fill="white"/>
<path d="M116 117.16V133.133C116.004 136.283 114.788 139.312 112.607 141.584L97.7007 157.18H106.14L121.626 141.938C122.781 140.802 123.699 139.448 124.326 137.954C124.953 136.461 125.277 134.858 125.28 133.238V117.16H116Z" fill="#0C9CFF"/>
<path opacity="0.4" d="M125.28 117.16V133.22C125.282 134.12 125.181 135.017 124.978 135.894C124.47 138.191 123.306 140.291 121.626 141.938L106.14 157.18H97.7007L112.607 141.584C114.788 139.312 116.004 136.283 116 133.133V117.16H125.28Z" fill="white"/>
<path opacity="0.2" d="M125.28 117.16V133.22C125.282 134.12 125.181 135.017 124.978 135.894L116 132.269V117.16H125.28Z" fill="black"/>
<path d="M91.8373 158.92L79.3441 206.515C79.2322 206.948 78.9795 207.332 78.6256 207.606C78.2718 207.88 77.837 208.029 77.3895 208.029H55.0653C54.8814 208.028 54.7001 207.985 54.5352 207.904C54.3704 207.822 54.2263 207.704 54.1141 207.559C54.0014 207.414 53.9239 207.244 53.8877 207.064C53.8515 206.884 53.8575 206.698 53.9053 206.521L66.4043 158.92H64.0031L51.6607 205.929C51.5254 206.45 51.5111 206.995 51.6186 207.522C51.7262 208.05 51.9529 208.546 52.2814 208.972C52.6098 209.398 53.0314 209.744 53.5139 209.983C53.9964 210.221 54.527 210.346 55.0653 210.349H77.3895C78.3492 210.348 79.2818 210.029 80.0415 209.443C80.8011 208.856 81.3452 208.035 81.5887 207.106L94.2327 158.92H91.8373Z" fill="#0C9CFF"/>
<g opacity="0.4">
<path opacity="0.4" d="M91.8373 158.92L79.3441 206.515C79.2322 206.948 78.9795 207.332 78.6256 207.606C78.2718 207.88 77.837 208.029 77.3895 208.029H55.0653C54.8814 208.028 54.7001 207.985 54.5352 207.904C54.3704 207.822 54.2263 207.704 54.1141 207.559C54.0014 207.414 53.9239 207.244 53.8877 207.064C53.8515 206.884 53.8575 206.698 53.9053 206.521L66.4043 158.92H64.0031L51.6607 205.929C51.5254 206.45 51.5111 206.995 51.6186 207.522C51.7262 208.05 51.9529 208.546 52.2814 208.972C52.6098 209.398 53.0314 209.744 53.5139 209.983C53.9964 210.221 54.527 210.346 55.0653 210.349H77.3895C78.3492 210.348 79.2818 210.029 80.0415 209.443C80.8011 208.856 81.3452 208.035 81.5887 207.106L94.2327 158.92H91.8373Z" fill="white"/>
</g>
<path d="M96.9471 210.349L83.2881 158.265L81.0435 158.85L94.5459 210.349H96.9471Z" fill="#0C9CFF"/>
<path d="M124.787 210.349L111.128 158.265L108.883 158.85L122.386 210.349H124.787Z" fill="#0C9CFF"/>
<g opacity="0.5">
<path opacity="0.5" d="M96.9471 210.349L83.2881 158.265L81.0435 158.85L94.5459 210.349H96.9471Z" fill="white"/>
</g>
<g opacity="0.5">
<path opacity="0.5" d="M124.787 210.349L111.128 158.265L108.883 158.85L122.386 210.349H124.787Z" fill="white"/>
</g>
<path opacity="0.2" d="M64.003 158.92H66.4042L64.5192 166.095L62.2979 165.416L64.003 158.92Z" fill="black"/>
<path opacity="0.2" d="M83.2881 158.265L86.3911 170.102L83.7869 169.314L81.0435 158.85L83.2881 158.265Z" fill="black"/>
<path opacity="0.2" d="M91.8369 158.92H94.2324L90.3 173.942L88.0728 173.263L91.8369 158.92Z" fill="black"/>
<path opacity="0.2" d="M116.609 179.307L113.993 178.507L108.883 158.995L111.128 158.357L116.609 179.307Z" fill="black"/>
<path d="M61.8861 159.714L51.0401 101.001L50.8951 100.114C50.7879 99.5651 50.8025 98.9998 50.9378 98.4576C51.0731 97.9154 51.3258 97.4095 51.6781 96.9757C52.0183 96.5683 52.4455 96.2422 52.9283 96.0214C53.411 95.8006 53.9371 95.6907 54.4679 95.6997H77.9463C79.0606 95.7546 80.1249 96.1788 80.9714 96.9055C81.8178 97.6323 82.3982 98.6202 82.6211 99.7133L82.7951 100.705L93.6353 159.285L91.3501 159.703L80.4751 100.949L80.3359 100.125C80.2151 99.5648 79.9179 99.0579 79.4878 98.6789C79.0577 98.3 78.5174 98.0689 77.9463 98.0197H54.4447C54.2541 98.0123 54.0643 98.0482 53.8896 98.1245C53.7148 98.2008 53.5595 98.3157 53.4355 98.4605C53.3 98.6373 53.2049 98.8416 53.1568 99.059C53.1087 99.2764 53.1088 99.5017 53.1571 99.7191L53.3195 100.694L64.1713 159.274L61.8861 159.714Z" fill="#0C9CFF"/>
<g opacity="0.5">
<path opacity="0.5" d="M61.8861 159.714L51.0401 101.001L50.8951 100.114C50.7879 99.5651 50.8025 98.9998 50.9378 98.4576C51.0731 97.9154 51.3258 97.4095 51.6781 96.9757C52.0183 96.5683 52.4455 96.2422 52.9283 96.0214C53.411 95.8006 53.9371 95.6907 54.4679 95.6997H77.9463C79.0606 95.7546 80.1249 96.1788 80.9714 96.9055C81.8178 97.6323 82.3982 98.6202 82.6211 99.7133L82.7951 100.705L93.6353 159.285L91.3501 159.703L80.4751 100.949L80.3359 100.125C80.2151 99.5648 79.9179 99.0579 79.4878 98.6789C79.0577 98.3 78.5174 98.0689 77.9463 98.0197H54.4447C54.2541 98.0123 54.0643 98.0482 53.8896 98.1245C53.7148 98.2008 53.5595 98.3157 53.4355 98.4605C53.3 98.6373 53.2049 98.8416 53.1568 99.059C53.1087 99.2764 53.1088 99.5017 53.1571 99.7191L53.3195 100.694L64.1713 159.274L61.8861 159.714Z" fill="white"/>
</g>
<path d="M66.63 153.891H111.249C112.019 153.891 112.756 154.196 113.3 154.74C113.844 155.284 114.149 156.021 114.149 156.791V160.659H63.73V156.779C63.733 156.012 64.0399 155.277 64.5835 154.736C65.127 154.195 65.8629 153.891 66.63 153.891Z" fill="#0C9CFF"/>
<path d="M114.846 157.284H63.0345C62.3906 157.284 61.8687 157.806 61.8687 158.45V159.506C61.8687 160.149 62.3906 160.671 63.0345 160.671H114.846C115.49 160.671 116.012 160.149 116.012 159.506V158.45C116.012 157.806 115.49 157.284 114.846 157.284Z" fill="#0C9CFF"/>
<path opacity="0.6" d="M114.846 157.284H63.0345C62.3906 157.284 61.8687 157.806 61.8687 158.45V159.506C61.8687 160.149 62.3906 160.671 63.0345 160.671H114.846C115.49 160.671 116.012 160.149 116.012 159.506V158.45C116.012 157.806 115.49 157.284 114.846 157.284Z" fill="white"/>
<path d="M86.0316 124.7H56.5502L52.1538 100.92H81.6294L85.991 124.48L86.0316 124.7Z" fill="#0C9CFF"/>
<path d="M115.031 74.0259C115.031 74.0259 111.325 65.4186 111.006 64.4964C110.687 63.5742 111.064 58.9168 110.78 58.1164C110.496 57.316 106.192 56.7418 105.282 56.8462C104.371 56.9506 105.171 64.1542 105.548 64.7226C106.04 65.3074 106.594 65.8364 107.201 66.3002L110.478 76.1602L115.031 74.0259Z" fill="#B97964"/>
<path d="M96.2805 90.2722C98.8093 90.6724 109.162 92.1688 111.476 90.626C113.344 89.379 108.083 69.166 108.083 69.166L112.764 67.2578C112.764 67.2578 123.883 91.7454 117.943 97.3366C114.927 100.179 106.448 100.898 94.2505 100.898L96.2805 90.2722Z" fill="#0C9CFF"/>
<path opacity="0.8" d="M96.2805 90.2722C98.8093 90.6724 109.162 92.1688 111.476 90.626C113.344 89.379 108.083 69.166 108.083 69.166L112.764 67.2578C112.764 67.2578 123.883 91.7454 117.943 97.3366C114.927 100.179 106.448 100.898 94.2505 100.898L96.2805 90.2722Z" fill="white"/>
<path opacity="0.1" d="M100.566 100.839C98.7683 100.891 96.8485 100.914 94.8301 100.914L96.5701 94.25C98.4554 96.0591 99.8333 98.3309 100.566 100.839Z" fill="black"/>
<path d="M110.879 104.395L123.152 117.375" stroke="#2E353A" stroke-width="2" stroke-miterlimit="10"/>
<path d="M102.08 112.038C102.08 112.038 111.447 111.748 112.421 111.65C113.396 111.551 117.45 109.231 118.32 109.138C119.19 109.046 121.51 112.711 121.8 113.581C122.09 114.451 115.229 116.771 114.55 116.678C113.813 116.477 113.099 116.197 112.421 115.843L102.08 117.061V112.038Z" fill="#B97964"/>
<path d="M96.5698 205.803L101.192 205.171L101.83 194.186L97.2194 194.824L96.5698 205.803Z" fill="#B97964"/>
<path d="M101.54 204.614L96.3205 204.283C96.2333 204.277 96.1469 204.303 96.0789 204.358C96.011 204.413 95.9667 204.492 95.9551 204.579L95.4447 208.697C95.4303 208.913 95.5023 209.126 95.6447 209.289C95.7871 209.452 95.9884 209.552 96.2045 209.567C98.0257 209.654 98.9015 209.602 101.198 209.729C102.613 209.811 105.392 210.112 107.335 209.921C109.278 209.729 109.04 207.815 108.205 207.723C106.209 207.496 103.565 206.035 102.323 204.921C102.104 204.735 101.828 204.627 101.54 204.614Z" fill="#2E353A"/>
<path d="M103.142 205.506C102.724 205.468 102.312 205.387 101.912 205.262C101.892 205.257 101.873 205.246 101.859 205.23C101.844 205.215 101.835 205.196 101.831 205.175C101.83 205.154 101.834 205.133 101.843 205.113C101.852 205.094 101.866 205.077 101.883 205.065C102.04 204.972 103.414 204.154 103.971 204.409C104.033 204.44 104.087 204.486 104.126 204.542C104.166 204.599 104.19 204.665 104.197 204.734C104.225 204.837 104.224 204.946 104.195 205.048C104.165 205.15 104.108 205.242 104.029 205.314C103.767 205.487 103.451 205.555 103.142 205.506ZM103.878 204.63C103.582 204.491 102.782 204.833 102.219 205.14C103.043 205.355 103.652 205.366 103.89 205.169C103.937 205.119 103.972 205.058 103.989 204.991C104.006 204.924 104.006 204.853 103.988 204.786C103.986 204.753 103.974 204.72 103.955 204.693C103.936 204.665 103.909 204.643 103.878 204.63Z" fill="#0C9CFF"/>
<path d="M101.935 205.263C101.92 205.268 101.904 205.268 101.889 205.263C101.859 205.242 101.838 205.211 101.831 205.176C101.831 205.135 101.831 203.772 102.306 203.349C102.372 203.295 102.448 203.256 102.53 203.235C102.613 203.214 102.698 203.211 102.782 203.227C102.874 203.235 102.96 203.274 103.028 203.337C103.095 203.4 103.139 203.484 103.153 203.575C103.228 204.091 102.474 205.019 101.993 205.263C101.984 205.267 101.974 205.269 101.964 205.269C101.954 205.269 101.944 205.267 101.935 205.263ZM102.689 203.453C102.645 203.45 102.602 203.456 102.561 203.471C102.52 203.486 102.482 203.509 102.451 203.54C102.15 203.789 102.074 204.555 102.057 204.99C102.507 204.661 102.82 204.178 102.938 203.633C102.938 203.569 102.898 203.488 102.741 203.459L102.689 203.453Z" fill="#0C9CFF"/>
<path opacity="0.2" d="M97.2195 194.823L101.83 194.19L101.465 200.466L96.8599 200.872L97.2195 194.823Z" fill="black"/>
<path d="M96.7554 141.236L95.6302 134.172L69.7274 132.623C69.7274 132.623 66.9724 147.32 69.0894 151.235C72.8652 158.224 93.229 154.715 99.1856 155.382C95.6244 169.946 95.9724 198.407 95.9724 198.407L104.481 199.056C104.481 199.056 111.029 168.392 112.352 153.816C113.245 143.985 105.096 144.229 96.7554 141.236Z" fill="#2E353A"/>
<path d="M94.9752 198.807L105.201 199.48L106.076 195.101L94.8418 194.579L94.9752 198.807Z" fill="#0C9CFF"/>
<path d="M107.23 201.702L111.882 202.044L114.794 191.436L110.148 191.1L107.23 201.702Z" fill="#B97964"/>
<path d="M112.34 201.567L107.3 200.163C107.217 200.136 107.127 200.142 107.048 200.181C106.97 200.221 106.91 200.289 106.883 200.372L105.525 204.293C105.496 204.398 105.488 204.507 105.502 204.615C105.515 204.723 105.55 204.827 105.604 204.921C105.658 205.015 105.73 205.098 105.816 205.165C105.902 205.231 106 205.28 106.105 205.308C107.845 205.766 108.733 205.888 110.954 206.503C112.317 206.88 114.974 207.75 116.917 207.97C118.86 208.191 119.022 206.265 118.222 206.004C116.319 205.366 114.046 203.382 113.054 202.037C112.876 201.804 112.625 201.638 112.34 201.567Z" fill="#2E353A"/>
<path d="M113.721 202.779C113.316 202.658 112.927 202.49 112.561 202.28C112.541 202.272 112.525 202.259 112.515 202.241C112.504 202.223 112.5 202.202 112.503 202.181C112.504 202.16 112.511 202.14 112.524 202.122C112.536 202.105 112.553 202.091 112.572 202.083C112.741 202.025 114.26 201.503 114.747 201.88C114.804 201.922 114.848 201.977 114.877 202.041C114.905 202.105 114.917 202.176 114.91 202.245C114.917 202.355 114.893 202.464 114.841 202.561C114.789 202.657 114.71 202.737 114.614 202.79C114.325 202.898 114.007 202.894 113.721 202.779ZM114.62 202.071C114.359 201.874 113.506 202.071 112.88 202.228C113.64 202.611 114.237 202.75 114.504 202.605C114.562 202.567 114.609 202.514 114.641 202.452C114.672 202.39 114.687 202.321 114.684 202.251C114.69 202.217 114.686 202.182 114.672 202.15C114.659 202.118 114.637 202.091 114.608 202.071H114.62Z" fill="#0C9CFF"/>
<path d="M112.59 202.292H112.52C112.506 202.28 112.496 202.264 112.49 202.247C112.484 202.23 112.482 202.212 112.485 202.194C112.485 202.153 112.758 200.819 113.326 200.506C113.403 200.47 113.486 200.452 113.57 200.452C113.654 200.452 113.737 200.47 113.813 200.506C113.903 200.534 113.98 200.591 114.033 200.667C114.087 200.744 114.114 200.836 114.109 200.929C114.069 201.445 113.141 202.199 112.619 202.339C112.604 202.327 112.594 202.311 112.59 202.292ZM113.68 200.68C113.638 200.668 113.595 200.665 113.552 200.671C113.509 200.677 113.468 200.692 113.431 200.715C113.083 200.9 112.851 201.631 112.74 202.054C113.216 201.834 113.842 201.248 113.9 200.894C113.9 200.831 113.9 200.749 113.744 200.691L113.68 200.68Z" fill="#0C9CFF"/>
<path opacity="0.2" d="M110.148 191.1L114.793 191.442L113.129 197.503L108.535 196.94L110.148 191.1Z" fill="black"/>
<path d="M116.371 196.754L108.182 194.347C108.182 194.347 113.1 166.751 118.03 157.181C117.659 157.059 117.166 156.902 116.557 156.723C115.461 156.392 114.005 155.98 112.294 155.505C100.392 152.204 76.27 146.016 76.27 146.016L87.29 135.732C87.29 135.732 131.184 142.426 132.095 153.991C132.53 159.553 116.371 196.754 116.371 196.754Z" fill="#2E353A"/>
<path d="M107.126 194.526L116.986 197.316L118.755 193.215L107.874 190.361L107.126 194.526Z" fill="#0C9CFF"/>
<path opacity="0.2" d="M116.58 156.722C115.484 156.392 114.028 155.98 112.317 155.504C112.659 152.697 112.665 149.478 111.314 147.837C108.628 144.565 101.721 142.646 97.7883 141.95C94.4997 141.37 83.4507 140.21 83.4507 140.21C83.4507 140.21 97.7883 138.835 112.451 143.11C119.666 145.232 118.256 152.314 116.58 156.722Z" fill="black"/>
<path d="M96.2804 90.271C96.2804 90.271 100.039 104.191 95.6482 134.171C87.4644 133.997 73.7126 133.678 69.728 133.591C69.6294 129.415 72.7092 108.953 69.1074 89.2154C71.7011 88.768 74.3237 88.5083 76.9548 88.4382C80.8057 88.3008 84.6613 88.3841 88.5026 88.6876C91.1321 89.0145 93.7324 89.5439 96.2804 90.271Z" fill="#0C9CFF"/>
<path opacity="0.7" d="M96.2804 90.271C96.2804 90.271 100.039 104.191 95.6482 134.171C87.4644 133.997 73.7126 133.678 69.728 133.591C69.6294 129.415 72.7092 108.953 69.1074 89.2154C71.7011 88.768 74.3237 88.5083 76.9548 88.4382C80.8057 88.3008 84.6613 88.3841 88.5026 88.6876C91.1321 89.0145 93.7324 89.5439 96.2804 90.271Z" fill="white"/>
<path opacity="0.1" d="M78.2015 114.649C75.8815 114.139 73.1149 111.906 70.8355 109.702C70.8355 105.781 70.6441 101.611 70.2207 97.3594C73.4455 102.133 82.1803 115.525 78.2015 114.649Z" fill="black"/>
<path d="M69.0897 89.2158C60.2215 92.4116 75.7887 116.424 80.6201 118.9C85.4515 121.377 110.009 116.192 110.009 116.192L109.04 111.227C109.04 111.227 87.3132 111.778 85.3123 111.273C83.3112 110.769 78.5553 100.532 75.8177 95.7002C74.2958 92.8978 71.9463 90.6333 69.0897 89.2158Z" fill="#0C9CFF"/>
<path opacity="0.8" d="M69.0897 89.2158C60.2215 92.4116 75.7887 116.424 80.6201 118.9C85.4515 121.377 110.009 116.192 110.009 116.192L109.04 111.227C109.04 111.227 87.3132 111.778 85.3123 111.273C83.3112 110.769 78.5553 100.532 75.8177 95.7002C74.2958 92.8978 71.9463 90.6333 69.0897 89.2158Z" fill="white"/>
<path d="M107.3 110.78L108.558 117.375L110.878 116.58L110.008 110.78H107.3Z" fill="#0C9CFF"/>
<path opacity="0.7" d="M107.3 110.78L108.558 117.375L110.878 116.58L110.008 110.78H107.3Z" fill="white"/>
<path d="M107.926 70.6326L114.167 68.1618L112.955 66.0332L107.416 67.9704L107.926 70.6326Z" fill="#0C9CFF"/>
<path opacity="0.7" d="M107.926 70.6326L114.167 68.1618L112.955 66.0332L107.416 67.9704L107.926 70.6326Z" fill="white"/>
<path opacity="0.1" d="M75.5396 88.4969C75.5396 88.4969 75.7077 91.2055 81.0263 93.8155L84.7035 91.1533C84.7035 91.1533 85.7533 97.9509 86.4435 103.026C86.4435 103.026 86.3971 94.9059 85.7011 91.7855L88.5141 92.7831C88.5141 92.7831 86.1187 88.6709 82.0413 87.7255C77.9639 86.7801 75.5396 88.4969 75.5396 88.4969Z" fill="black"/>
<path d="M78.358 75.4932C79.0076 79.2226 79.5876 86.0434 76.937 88.4678L84.68 90.6254L88.4616 88.7172C84.3378 87.6384 84.5118 84.5644 85.2948 81.6934L78.358 75.4932Z" fill="#B97964"/>
<path opacity="0.2" d="M81.1999 78.0225L85.3179 81.6939C85.1273 82.3619 84.9934 83.0449 84.9177 83.7355C83.3401 83.4745 81.2057 81.6881 81.0723 80.0293C80.9899 79.3582 81.0332 78.6777 81.1999 78.0225Z" fill="black"/>
<path d="M83.8511 65.1288C82.1633 66.9616 83.6191 69.0554 89.0073 71.6016C90.2891 68.777 89.5061 64.0616 87.7661 63.238C86.0261 62.4144 85.3243 63.5396 83.8511 65.1288Z" fill="#2E353A"/>
<path d="M76.0961 70.894C77.4649 75.7486 78.0217 78.6544 81.0493 80.6438C85.6081 83.6308 91.1935 80.0638 91.3037 74.896C91.3965 70.256 89.1461 63.093 83.9087 62.1824C82.756 61.9765 81.5699 62.0682 80.4625 62.4489C79.3552 62.8297 78.3634 63.4868 77.5811 64.358C76.7987 65.2292 76.2517 66.2857 75.9918 67.4275C75.732 68.5692 75.7679 69.7584 76.0961 70.8824V70.894Z" fill="#B97964"/>
<path d="M83.7344 70.6501C83.8214 71.0503 84.1056 71.3287 84.3666 71.2707C84.6276 71.2127 84.7668 70.8473 84.6798 70.4471C84.5928 70.0469 84.3144 69.7685 84.0534 69.8207C83.7924 69.8729 83.6764 70.2499 83.7344 70.6501Z" fill="#2E353A"/>
<path d="M88.2875 69.6702C88.3745 70.0704 88.6587 70.3488 88.9197 70.2908C89.1807 70.2328 89.3257 69.8674 89.2387 69.4614C89.1517 69.0554 88.8675 68.7828 88.6065 68.8408C88.3455 68.8988 88.2005 69.27 88.2875 69.6702Z" fill="#2E353A"/>
<path d="M86.8433 70.1807C87.5843 71.3028 88.4784 72.316 89.4997 73.1909C89.2678 73.4455 88.9831 73.6464 88.6656 73.7797C88.348 73.9129 88.0052 73.9752 87.6611 73.9623L86.8433 70.1807Z" fill="#A24E3F"/>
<path d="M82.1804 69.4849C82.1373 69.501 82.0903 69.5036 82.0457 69.4923C82.0011 69.481 81.961 69.4564 81.9308 69.4218C81.9005 69.3871 81.8816 69.3441 81.8764 69.2983C81.8713 69.2526 81.8802 69.2064 81.902 69.1659C82.0537 68.8148 82.288 68.5054 82.5848 68.264C82.8817 68.0227 83.2324 67.8566 83.6072 67.7797C83.6678 67.7694 83.73 67.783 83.7809 67.8176C83.8317 67.8522 83.8671 67.9052 83.8798 67.9653C83.8867 68.028 83.8696 68.091 83.8319 68.1416C83.7942 68.1921 83.7388 68.2266 83.6768 68.2379C83.3824 68.3032 83.1078 68.4378 82.8758 68.6305C82.6438 68.8231 82.461 69.0683 82.3428 69.3457C82.3289 69.3803 82.3068 69.4109 82.2786 69.4352C82.2503 69.4594 82.2166 69.4765 82.1804 69.4849Z" fill="#2E353A"/>
<path d="M90.0277 67.6861C89.983 67.6974 89.936 67.6952 89.8926 67.6797C89.8492 67.6642 89.8114 67.6361 89.7841 67.5991C89.604 67.3567 89.3695 67.1601 89.0995 67.0251C88.8295 66.8901 88.5315 66.8205 88.2297 66.8219C88.1659 66.8267 88.1029 66.8063 88.054 66.7651C88.0052 66.7238 87.9746 66.6651 87.9687 66.6015C87.9651 66.539 87.9853 66.4774 88.025 66.4291C88.0648 66.3807 88.1213 66.3491 88.1833 66.3405C88.5658 66.3318 88.9449 66.4146 89.2889 66.5821C89.6329 66.7495 89.9319 66.9968 90.1611 67.3033C90.1807 67.3279 90.1953 67.3562 90.2039 67.3866C90.2125 67.4169 90.215 67.4487 90.2112 67.48C90.2074 67.5113 90.1974 67.5415 90.1819 67.5689C90.1663 67.5963 90.1454 67.6204 90.1205 67.6397C90.0941 67.6629 90.0621 67.6789 90.0277 67.6861Z" fill="#2E353A"/>
<path d="M77.1402 66.1199C79.611 66.4099 79.8662 68.9503 77.4302 74.3849C74.6172 73.0741 72.1406 68.9793 72.9352 67.2277C73.7298 65.4761 74.9536 65.8589 77.1402 66.1199Z" fill="#2E353A"/>
<path d="M74.6053 75.337C74.9024 75.8911 75.3059 76.3811 75.7925 76.7792C76.2792 77.1773 76.8395 77.4756 77.4415 77.657C79.0539 78.1268 79.8775 76.6884 79.4483 75.1572C79.0597 73.7768 77.7489 71.8686 76.1249 72.0716C74.5009 72.2746 73.8745 73.9624 74.6053 75.337Z" fill="#B97964"/>
<path d="M73.1266 66.8104C73.1266 66.8104 71.9028 65.2328 74.2866 62.0776C76.6704 58.9224 82.4936 57.9538 86.9596 58.8238C91.4256 59.6938 88.7692 64.6238 87.1742 65.4416L87.3714 64.6702C85.6642 65.5608 83.7845 66.0713 81.8614 66.1666L82.743 65.3488C82.743 65.3488 75.7366 67.1642 73.1266 66.8104Z" fill="#2E353A"/>
<path d="M87.3654 75.2963C87.2642 75.8925 87.2079 76.4955 87.1972 77.1001L86.884 77.1465C85.4456 77.3379 84.7206 76.9493 84.3494 76.4679C84.1731 76.2257 84.0559 75.9457 84.0072 75.6501C83.9833 75.4828 83.9833 75.3129 84.0072 75.1455C84.9475 75.4233 85.9367 75.4945 86.9072 75.3543C87.174 75.3311 87.3654 75.2963 87.3654 75.2963Z" fill="#2E353A"/>
<path d="M86.8724 75.3543L86.8086 75.8879C85.463 76.0619 84.4886 76.0039 84.0072 75.6501C83.9833 75.4828 83.9833 75.3129 84.0072 75.1455C84.9365 75.4183 85.9133 75.4894 86.8724 75.3543Z" fill="white"/>
<path d="M86.8842 77.1398C85.4458 77.3312 84.7208 76.9426 84.3496 76.4612C84.8948 76.3994 85.4466 76.4347 85.9794 76.5656C86.3339 76.657 86.6505 76.858 86.8842 77.1398Z" fill="#A24E3F"/>
<path d="M78.2996 86.1768C78.2996 86.1768 82.4872 89.3204 84.6796 90.0454C84.6796 90.0454 85.712 88.1082 85.2886 86.5074L88.4612 88.7172C88.8179 90.047 88.8179 91.4473 88.4612 92.7772L84.6796 90.6254L81.1068 93.2354C81.1068 93.2354 75.823 91.7042 75.5156 88.4968L78.2996 86.1768Z" fill="#0C9CFF"/>
<path opacity="0.8" d="M78.2996 86.1768C78.2996 86.1768 82.4872 89.3204 84.6796 90.0454C84.6796 90.0454 85.712 88.1082 85.2886 86.5074L88.4612 88.7172C88.8179 90.047 88.8179 91.4473 88.4612 92.7772L84.6796 90.6254L81.1068 93.2354C81.1068 93.2354 75.823 91.7042 75.5156 88.4968L78.2996 86.1768Z" fill="white"/>
<path d="M147.419 115.925H89.6102C89.2355 115.925 88.9316 116.229 88.9316 116.603V118.303C88.9316 118.678 89.2355 118.981 89.6102 118.981H147.419C147.794 118.981 148.097 118.678 148.097 118.303V116.603C148.097 116.229 147.794 115.925 147.419 115.925Z" fill="#0C9CFF"/>
<path opacity="0.5" d="M147.9 116.522V118.221C147.9 118.598 147.796 118.9 147.425 118.9H89.6102C89.2332 118.9 88.7402 118.598 88.7402 118.221V116.522C88.7402 116.151 89.2332 116 89.6102 116H147.425C147.796 116 147.9 116.151 147.9 116.522Z" fill="white"/>
<path opacity="0.2" d="M113.1 116.522V118.221C113.1 118.598 112.973 118.9 112.601 118.9H89.6102C89.2332 118.9 88.7402 118.598 88.7402 118.221V116.522C88.7402 116.151 89.2332 116 89.6102 116H112.601C112.973 116 113.1 116.151 113.1 116.522Z" fill="black"/>
<path d="M99.9693 31.3951C99.4696 29.5841 98.5182 27.9297 97.2044 26.5868C95.8905 25.244 94.2572 24.2567 92.4576 23.7176C90.6579 23.1785 88.7508 23.1052 86.9151 23.5045C85.0794 23.9039 83.3751 24.7628 81.962 26.0008C80.5489 27.2388 79.4734 28.8154 78.8361 30.5827C78.1988 32.3499 78.0207 34.2501 78.3185 36.105C78.6163 37.96 79.3802 39.7089 80.5386 41.1879C81.697 42.6669 83.212 43.8276 84.9415 44.5611C85.6849 44.866 86.2842 45.4426 86.6177 46.1735L86.9947 47.0261L97.6725 44.1261L97.5623 43.1981C97.4856 42.3936 97.7109 41.5894 98.1945 40.9419C99.1897 39.5868 99.8662 38.0244 100.174 36.3714C100.481 34.7184 100.411 33.0174 99.9693 31.3951Z" fill="#0C9CFF"/>
<path d="M90.4804 47.0502C90.4804 47.0502 88.8738 42.01 86.0376 39.777L87.6094 39.3478L87.7312 36.9292L90.3006 40.647L90.0918 36.123L92.6264 40.2468L92.8816 37.9268L95.1262 37.3468C93.8983 40.105 93.6786 43.207 94.5056 46.1106" stroke="white" stroke-linecap="round" stroke-linejoin="round"/>
<path d="M92.4987 46.2025C90.6079 46.7187 89.5523 48.8937 90.1439 51.0571C90.7355 53.2205 92.7423 54.5371 94.6331 54.0383C96.5239 53.5395 97.5737 51.3529 96.9879 49.1895C96.4021 47.0261 94.3895 45.6921 92.4987 46.2025Z" fill="#2E353A"/>
<path d="M96.1411 52.0486L92.3363 53.0868C91.4274 53.3341 90.4586 53.2289 89.624 52.7923C88.7894 52.3556 88.1506 51.6197 87.8355 50.732L86.5885 47.2114C86.5635 47.1419 86.5533 47.0679 86.5584 46.9942C86.5635 46.9204 86.5839 46.8486 86.6183 46.7831C86.6526 46.7177 86.7002 46.6601 86.758 46.614C86.8157 46.568 86.8825 46.5344 86.9539 46.5154L97.4403 43.656C97.5116 43.6363 97.5863 43.6316 97.6595 43.6423C97.7327 43.653 97.803 43.6788 97.8657 43.718C97.9284 43.7573 97.9823 43.8092 98.0239 43.8704C98.0655 43.9316 98.0939 44.0008 98.1073 44.0736L98.8207 47.7334C99.0004 48.658 98.8242 49.6164 98.3273 50.4166C97.8304 51.2168 97.0495 51.7997 96.1411 52.0486Z" fill="#0C9CFF"/>
<path opacity="0.4" d="M96.1411 52.0486L92.3363 53.0868C91.4274 53.3341 90.4586 53.2289 89.624 52.7923C88.7894 52.3556 88.1506 51.6197 87.8355 50.732L86.5885 47.2114C86.5635 47.1419 86.5533 47.0679 86.5584 46.9942C86.5635 46.9204 86.5839 46.8486 86.6183 46.7831C86.6526 46.7177 86.7002 46.6601 86.758 46.614C86.8157 46.568 86.8825 46.5344 86.9539 46.5154L97.4403 43.656C97.5116 43.6363 97.5863 43.6316 97.6595 43.6423C97.7327 43.653 97.803 43.6788 97.8657 43.718C97.9284 43.7573 97.9823 43.8092 98.0239 43.8704C98.0655 43.9316 98.0939 44.0008 98.1073 44.0736L98.8207 47.7334C99.0004 48.658 98.8242 49.6164 98.3273 50.4166C97.8304 51.2168 97.0495 51.7997 96.1411 52.0486Z" fill="white"/>
<path d="M74.4602 42.4853C73.4211 42.2944 72.3672 42.1954 71.3108 42.1895C70.7855 42.1863 70.2606 42.2154 69.739 42.2765C69.478 42.3171 69.217 42.3461 68.9676 42.4099C68.84 42.4447 68.7124 42.4621 68.5906 42.5085L68.2252 42.6245L67.8076 42.7579L68.057 42.3925C68.7604 41.351 69.3203 40.2195 69.7216 39.0285C69.921 38.4377 70.0666 37.8301 70.1566 37.2131C70.2009 36.9075 70.228 36.5996 70.2378 36.2909C70.2552 35.9837 70.2552 35.6759 70.2378 35.3687C70.2156 35.0646 70.173 34.7623 70.1102 34.4639L70 34.0231L69.855 33.5881C69.752 33.3037 69.6259 33.0283 69.478 32.7645C69.3354 32.4985 69.1745 32.2427 68.9966 31.9989C68.8172 31.7556 68.6235 31.5232 68.4166 31.3029L68.0976 30.9781L67.7496 30.6765C67.5234 30.4677 67.2566 30.3053 67.0188 30.0965C66.781 29.8877 66.4968 29.7717 66.2358 29.6035L65.6558 29.2207L66.2996 28.9133C66.607 28.7625 66.9318 28.5827 67.2392 28.3971C67.5466 28.2115 67.854 28.0201 68.1556 27.8171C68.7534 27.4096 69.3213 26.9599 69.855 26.4715C70.116 26.2279 70.3712 25.9785 70.6206 25.7175C70.87 25.4565 71.0962 25.1781 71.3108 24.8997C71.5254 24.6213 71.7342 24.3197 71.8908 24.0239C72.0781 23.7274 72.2466 23.4194 72.3954 23.1017C72.5486 22.7862 72.6804 22.4606 72.7898 22.1273L72.9406 21.6285L73.0508 21.1123C73.1155 20.7716 73.1542 20.4265 73.1668 20.0799C73.1975 19.3807 73.1351 18.6805 72.9812 17.9977L72.8652 17.4815L72.7028 16.9769C72.6042 16.6347 72.4476 16.3157 72.32 15.9851C72.1924 15.6545 72.0068 15.3471 71.8502 15.0223L71.0208 13.2823L72.61 14.3031C72.8884 14.4887 73.19 14.6685 73.5206 14.8367C73.8512 15.0049 74.1586 15.1673 74.4834 15.3123C75.1302 15.6144 75.7968 15.8721 76.4786 16.0837C76.8208 16.1823 77.163 16.2751 77.5052 16.3505C77.8476 16.4287 78.1942 16.4868 78.5434 16.5245C78.8876 16.5687 79.2345 16.59 79.5816 16.5883C79.9249 16.5857 80.2677 16.5625 80.6082 16.5187L81.107 16.4317L81.6 16.2983C81.9183 16.1938 82.2285 16.0658 82.528 15.9155C82.6773 15.8437 82.8208 15.7603 82.9572 15.6661C83.1026 15.5816 83.2404 15.4845 83.369 15.3761C83.6351 15.169 83.887 14.9442 84.123 14.7033C84.3549 14.453 84.57 14.1875 84.7668 13.9087C84.9713 13.6284 85.1555 13.3338 85.3178 13.0271C85.4976 12.7313 85.6194 12.3949 85.776 12.0817C85.9326 11.7685 86.0254 11.4205 86.153 11.0899L86.878 9.1875L87.2376 11.1711C87.2983 11.4955 87.3816 11.8153 87.487 12.1281C87.7928 13.0981 88.2594 14.0098 88.8674 14.8251C89.2682 15.3575 89.7428 15.8301 90.2768 16.2287C90.54 16.4293 90.8193 16.6078 91.112 16.7623C91.4044 16.9212 91.7089 17.0569 92.0226 17.1683C92.3373 17.2782 92.6589 17.3674 92.9854 17.4351C93.3167 17.5018 93.6518 17.5483 93.9888 17.5743C94.3269 17.5917 94.6657 17.5917 95.0038 17.5743C95.346 17.5743 95.6882 17.5279 96.0304 17.4989C96.3726 17.4699 96.7148 17.3887 97.0512 17.3365L98.0662 17.0929L99.0696 16.7913L100.061 16.4375L101.436 15.9445L100.647 17.1683C100.502 17.3829 100.357 17.6439 100.224 17.8933C100.09 18.1427 99.9686 18.3979 99.8526 18.6647C99.6244 19.1848 99.4439 19.7244 99.3132 20.2771C99.1834 20.8224 99.1192 21.3812 99.1218 21.9417C99.128 22.4911 99.224 23.0357 99.406 23.5541L99.5626 23.9369L99.7598 24.3603C99.9016 24.5955 100.063 24.8186 100.241 25.0273C100.42 25.2344 100.614 25.4283 100.821 25.6073C101.036 25.794 101.263 25.9664 101.5 26.1235C101.735 26.284 101.979 26.4311 102.231 26.5643C102.48 26.7035 102.747 26.8079 103.008 26.9355L103.82 27.2429L104.655 27.5039L105.235 27.6895L104.748 28.0665C104.42 28.3212 104.111 28.6004 103.826 28.9017C103.537 29.2037 103.269 29.5254 103.025 29.8645C102.892 30.0327 102.787 30.2125 102.671 30.3865C102.56 30.5618 102.459 30.7439 102.37 30.9317C102.268 31.1172 102.182 31.3113 102.115 31.5117C102.034 31.6991 101.97 31.8932 101.923 32.0917C101.883 32.2947 101.813 32.4919 101.79 32.6717L101.732 33.2923C101.732 33.5011 101.732 33.7099 101.767 33.9187C101.778 34.1269 101.813 34.3331 101.871 34.5335C101.909 34.731 101.963 34.925 102.033 35.1135L102.271 35.6935C102.351 35.8958 102.45 36.09 102.567 36.2735L102.892 36.8535L103.014 37.0565H102.787C101.93 37.0588 101.076 37.1718 100.247 37.3929C99.8319 37.5029 99.431 37.6605 99.0522 37.8627C98.958 37.9132 98.867 37.9694 98.7796 38.0309C98.6853 38.0842 98.5977 38.1484 98.5186 38.2223C98.4322 38.2856 98.3507 38.3554 98.275 38.4311L98.0488 38.6689L98.2634 38.4195C98.3335 38.3371 98.4112 38.2613 98.4954 38.1933C98.5739 38.1161 98.6593 38.0462 98.7506 37.9845C98.8376 37.9265 98.9246 37.8569 99.0174 37.8047C99.3925 37.5799 99.7912 37.397 100.206 37.2595C101.041 36.9882 101.91 36.834 102.787 36.8013L102.689 37.0043L102.329 36.4243C102.199 36.2423 102.086 36.048 101.993 35.8443L101.72 35.2643C101.634 35.0586 101.568 34.8449 101.523 34.6263C101.451 34.4142 101.404 34.1941 101.384 33.9709C101.384 33.7505 101.332 33.5243 101.326 33.3039V32.6253C101.326 32.4049 101.407 32.1845 101.442 31.9641C101.486 31.7429 101.548 31.5256 101.627 31.3145C101.691 31.0984 101.774 30.8887 101.877 30.6881C101.964 30.4881 102.065 30.2944 102.178 30.1081C102.284 29.9087 102.4 29.7151 102.526 29.5281C102.777 29.1582 103.054 28.8073 103.356 28.4783C103.658 28.1424 103.986 27.8303 104.336 27.5445L104.446 28.1245L103.57 27.8751L102.706 27.5677C102.422 27.4459 102.126 27.3357 101.859 27.1907C101.581 27.055 101.312 26.902 101.053 26.7325C100.788 26.566 100.534 26.3819 100.293 26.1815C100.055 25.9799 99.8338 25.7587 99.6322 25.5203C99.4159 25.2813 99.2217 25.0231 99.0522 24.7489L98.8144 24.3313L98.623 23.8847C98.3997 23.2942 98.2743 22.6712 98.2518 22.0403C98.2289 21.4074 98.2854 20.7741 98.42 20.1553C98.5487 19.5468 98.7312 18.951 98.9652 18.3747C99.0812 18.0847 99.2088 17.7947 99.348 17.5279C99.4872 17.2611 99.6322 16.9827 99.812 16.6985L100.392 17.4293L99.3596 17.8063L98.3098 18.1311C97.9502 18.2297 97.5906 18.3109 97.231 18.3979C96.8714 18.4849 96.506 18.5371 96.1348 18.5777C95.7636 18.629 95.3899 18.66 95.0154 18.6705C94.629 18.6918 94.2417 18.6918 93.8554 18.6705C93.4776 18.6431 93.1018 18.5927 92.7302 18.5197C92.3551 18.4443 91.9851 18.3455 91.6224 18.2239C91.2606 18.0951 90.9079 17.942 90.5668 17.7657C90.2239 17.5877 89.8961 17.3821 89.5866 17.1509C88.9681 16.6954 88.4174 16.1545 87.951 15.5443C87.4879 14.9434 87.0984 14.2891 86.791 13.5955C86.6342 13.2516 86.4967 12.8991 86.3792 12.5399C86.254 12.1739 86.1532 11.7999 86.0776 11.4205L87.1622 11.5017C87.0288 11.8613 86.907 12.2267 86.762 12.5805C86.6133 12.9386 86.4469 13.2889 86.2632 13.6303C86.094 13.9782 85.9001 14.3135 85.6832 14.6337C85.4558 14.9586 85.2078 15.2685 84.9408 15.5617C84.6639 15.8509 84.3653 16.1185 84.0476 16.3621C83.891 16.488 83.7242 16.6006 83.5488 16.6985C83.3814 16.8101 83.2071 16.9109 83.0268 17.0001C82.6659 17.1796 82.2916 17.3309 81.9074 17.4525L81.3274 17.5975L80.7474 17.7019C80.3627 17.7508 79.9751 17.7722 79.5874 17.7657C79.1994 17.7665 78.8119 17.7413 78.4274 17.6903C78.0373 17.644 77.65 17.5762 77.2674 17.4873C76.8904 17.4061 76.5192 17.3017 76.1538 17.1857C75.4272 16.9582 74.7178 16.6791 74.031 16.3505C73.683 16.1939 73.3466 16.0199 73.016 15.8401C72.6854 15.6603 72.3606 15.4689 72.0184 15.2601L72.7782 14.5699C72.9464 14.9179 73.1262 15.2543 73.277 15.6139C73.4322 15.9683 73.5697 16.3303 73.6888 16.6985L73.8628 17.2785L73.9904 17.8585C74.0684 18.2419 74.1265 18.6291 74.1644 19.0185C74.1869 19.4048 74.1869 19.7922 74.1644 20.1785C74.1467 20.5681 74.1002 20.9558 74.0252 21.3385L73.8976 21.9185L73.7236 22.4985C73.5968 22.8715 73.4457 23.2357 73.2712 23.5889C73.1019 23.9404 72.9081 24.2796 72.6912 24.6039C72.4789 24.9209 72.2505 25.2268 72.0068 25.5203C71.7574 25.8219 71.5022 26.1003 71.2354 26.3845C70.9686 26.6687 70.6844 26.9181 70.4002 27.1733C69.8218 27.6709 69.2115 28.1301 68.5732 28.5479C68.2522 28.7567 67.9274 28.95 67.5988 29.1279C67.2624 29.3135 66.9318 29.4875 66.5664 29.6499L66.607 28.9597C66.8796 29.1453 67.187 29.3135 67.4306 29.5049C67.6742 29.6963 67.9642 29.8935 68.202 30.1255L68.5732 30.4619L68.9154 30.8215C69.1385 31.0687 69.3476 31.3282 69.5418 31.5987C69.7337 31.8744 69.9062 32.1632 70.058 32.4629C70.212 32.7582 70.3438 33.0645 70.4524 33.3793L70.5974 33.8607L70.7018 34.3479C70.7633 34.6754 70.802 35.0068 70.8178 35.3397C70.8589 36.654 70.6299 37.9628 70.145 39.1851C69.6829 40.3956 69.0606 41.5387 68.2948 42.5839L68.1266 42.3519L68.5152 42.2417C68.6486 42.2011 68.782 42.1837 68.9154 42.1547C69.1764 42.0967 69.4432 42.0793 69.71 42.0445C70.2431 42.0127 70.7776 42.0127 71.3108 42.0445C72.3713 42.1007 73.425 42.2482 74.4602 42.4853Z" fill="#0C9CFF"/>
<path opacity="0.7" d="M74.4602 42.4853C73.4211 42.2944 72.3672 42.1954 71.3108 42.1895C70.7855 42.1863 70.2606 42.2154 69.739 42.2765C69.478 42.3171 69.217 42.3461 68.9676 42.4099C68.84 42.4447 68.7124 42.4621 68.5906 42.5085L68.2252 42.6245L67.8076 42.7579L68.057 42.3925C68.7604 41.351 69.3203 40.2195 69.7216 39.0285C69.921 38.4377 70.0666 37.8301 70.1566 37.2131C70.2009 36.9075 70.228 36.5996 70.2378 36.2909C70.2552 35.9837 70.2552 35.6759 70.2378 35.3687C70.2156 35.0646 70.173 34.7623 70.1102 34.4639L70 34.0231L69.855 33.5881C69.752 33.3037 69.6259 33.0283 69.478 32.7645C69.3354 32.4985 69.1745 32.2427 68.9966 31.9989C68.8172 31.7556 68.6235 31.5232 68.4166 31.3029L68.0976 30.9781L67.7496 30.6765C67.5234 30.4677 67.2566 30.3053 67.0188 30.0965C66.781 29.8877 66.4968 29.7717 66.2358 29.6035L65.6558 29.2207L66.2996 28.9133C66.607 28.7625 66.9318 28.5827 67.2392 28.3971C67.5466 28.2115 67.854 28.0201 68.1556 27.8171C68.7534 27.4096 69.3213 26.9599 69.855 26.4715C70.116 26.2279 70.3712 25.9785 70.6206 25.7175C70.87 25.4565 71.0962 25.1781 71.3108 24.8997C71.5254 24.6213 71.7342 24.3197 71.8908 24.0239C72.0781 23.7274 72.2466 23.4194 72.3954 23.1017C72.5486 22.7862 72.6804 22.4606 72.7898 22.1273L72.9406 21.6285L73.0508 21.1123C73.1155 20.7716 73.1542 20.4265 73.1668 20.0799C73.1975 19.3807 73.1351 18.6805 72.9812 17.9977L72.8652 17.4815L72.7028 16.9769C72.6042 16.6347 72.4476 16.3157 72.32 15.9851C72.1924 15.6545 72.0068 15.3471 71.8502 15.0223L71.0208 13.2823L72.61 14.3031C72.8884 14.4887 73.19 14.6685 73.5206 14.8367C73.8512 15.0049 74.1586 15.1673 74.4834 15.3123C75.1302 15.6144 75.7968 15.8721 76.4786 16.0837C76.8208 16.1823 77.163 16.2751 77.5052 16.3505C77.8476 16.4287 78.1942 16.4868 78.5434 16.5245C78.8876 16.5687 79.2345 16.59 79.5816 16.5883C79.9249 16.5857 80.2677 16.5625 80.6082 16.5187L81.107 16.4317L81.6 16.2983C81.9183 16.1938 82.2285 16.0658 82.528 15.9155C82.6773 15.8437 82.8208 15.7603 82.9572 15.6661C83.1026 15.5816 83.2404 15.4845 83.369 15.3761C83.6351 15.169 83.887 14.9442 84.123 14.7033C84.3549 14.453 84.57 14.1875 84.7668 13.9087C84.9713 13.6284 85.1555 13.3338 85.3178 13.0271C85.4976 12.7313 85.6194 12.3949 85.776 12.0817C85.9326 11.7685 86.0254 11.4205 86.153 11.0899L86.878 9.1875L87.2376 11.1711C87.2983 11.4955 87.3816 11.8153 87.487 12.1281C87.7928 13.0981 88.2594 14.0098 88.8674 14.8251C89.2682 15.3575 89.7428 15.8301 90.2768 16.2287C90.54 16.4293 90.8193 16.6078 91.112 16.7623C91.4044 16.9212 91.7089 17.0569 92.0226 17.1683C92.3373 17.2782 92.6589 17.3674 92.9854 17.4351C93.3167 17.5018 93.6518 17.5483 93.9888 17.5743C94.3269 17.5917 94.6657 17.5917 95.0038 17.5743C95.346 17.5743 95.6882 17.5279 96.0304 17.4989C96.3726 17.4699 96.7148 17.3887 97.0512 17.3365L98.0662 17.0929L99.0696 16.7913L100.061 16.4375L101.436 15.9445L100.647 17.1683C100.502 17.3829 100.357 17.6439 100.224 17.8933C100.09 18.1427 99.9686 18.3979 99.8526 18.6647C99.6244 19.1848 99.4439 19.7244 99.3132 20.2771C99.1834 20.8224 99.1192 21.3812 99.1218 21.9417C99.128 22.4911 99.224 23.0357 99.406 23.5541L99.5626 23.9369L99.7598 24.3603C99.9016 24.5955 100.063 24.8186 100.241 25.0273C100.42 25.2344 100.614 25.4283 100.821 25.6073C101.036 25.794 101.263 25.9664 101.5 26.1235C101.735 26.284 101.979 26.4311 102.231 26.5643C102.48 26.7035 102.747 26.8079 103.008 26.9355L103.82 27.2429L104.655 27.5039L105.235 27.6895L104.748 28.0665C104.42 28.3212 104.111 28.6004 103.826 28.9017C103.537 29.2037 103.269 29.5254 103.025 29.8645C102.892 30.0327 102.787 30.2125 102.671 30.3865C102.56 30.5618 102.459 30.7439 102.37 30.9317C102.268 31.1172 102.182 31.3113 102.115 31.5117C102.034 31.6991 101.97 31.8932 101.923 32.0917C101.883 32.2947 101.813 32.4919 101.79 32.6717L101.732 33.2923C101.732 33.5011 101.732 33.7099 101.767 33.9187C101.778 34.1269 101.813 34.3331 101.871 34.5335C101.909 34.731 101.963 34.925 102.033 35.1135L102.271 35.6935C102.351 35.8958 102.45 36.09 102.567 36.2735L102.892 36.8535L103.014 37.0565H102.787C101.93 37.0588 101.076 37.1718 100.247 37.3929C99.8319 37.5029 99.431 37.6605 99.0522 37.8627C98.958 37.9132 98.867 37.9694 98.7796 38.0309C98.6853 38.0842 98.5977 38.1484 98.5186 38.2223C98.4322 38.2856 98.3507 38.3554 98.275 38.4311L98.0488 38.6689L98.2634 38.4195C98.3335 38.3371 98.4112 38.2613 98.4954 38.1933C98.5739 38.1161 98.6593 38.0462 98.7506 37.9845C98.8376 37.9265 98.9246 37.8569 99.0174 37.8047C99.3925 37.5799 99.7912 37.397 100.206 37.2595C101.041 36.9882 101.91 36.834 102.787 36.8013L102.689 37.0043L102.329 36.4243C102.199 36.2423 102.086 36.048 101.993 35.8443L101.72 35.2643C101.634 35.0586 101.568 34.8449 101.523 34.6263C101.451 34.4142 101.404 34.1941 101.384 33.9709C101.384 33.7505 101.332 33.5243 101.326 33.3039V32.6253C101.326 32.4049 101.407 32.1845 101.442 31.9641C101.486 31.7429 101.548 31.5256 101.627 31.3145C101.691 31.0984 101.774 30.8887 101.877 30.6881C101.964 30.4881 102.065 30.2944 102.178 30.1081C102.284 29.9087 102.4 29.7151 102.526 29.5281C102.777 29.1582 103.054 28.8073 103.356 28.4783C103.658 28.1424 103.986 27.8303 104.336 27.5445L104.446 28.1245L103.57 27.8751L102.706 27.5677C102.422 27.4459 102.126 27.3357 101.859 27.1907C101.581 27.055 101.312 26.902 101.053 26.7325C100.788 26.566 100.534 26.3819 100.293 26.1815C100.055 25.9799 99.8338 25.7587 99.6322 25.5203C99.4159 25.2813 99.2217 25.0231 99.0522 24.7489L98.8144 24.3313L98.623 23.8847C98.3997 23.2942 98.2743 22.6712 98.2518 22.0403C98.2289 21.4074 98.2854 20.7741 98.42 20.1553C98.5487 19.5468 98.7312 18.951 98.9652 18.3747C99.0812 18.0847 99.2088 17.7947 99.348 17.5279C99.4872 17.2611 99.6322 16.9827 99.812 16.6985L100.392 17.4293L99.3596 17.8063L98.3098 18.1311C97.9502 18.2297 97.5906 18.3109 97.231 18.3979C96.8714 18.4849 96.506 18.5371 96.1348 18.5777C95.7636 18.629 95.3899 18.66 95.0154 18.6705C94.629 18.6918 94.2417 18.6918 93.8554 18.6705C93.4776 18.6431 93.1018 18.5927 92.7302 18.5197C92.3551 18.4443 91.9851 18.3455 91.6224 18.2239C91.2606 18.0951 90.9079 17.942 90.5668 17.7657C90.2239 17.5877 89.8961 17.3821 89.5866 17.1509C88.9681 16.6954 88.4174 16.1545 87.951 15.5443C87.4879 14.9434 87.0984 14.2891 86.791 13.5955C86.6342 13.2516 86.4967 12.8991 86.3792 12.5399C86.254 12.1739 86.1532 11.7999 86.0776 11.4205L87.1622 11.5017C87.0288 11.8613 86.907 12.2267 86.762 12.5805C86.6133 12.9386 86.4469 13.2889 86.2632 13.6303C86.094 13.9782 85.9001 14.3135 85.6832 14.6337C85.4558 14.9586 85.2078 15.2685 84.9408 15.5617C84.6639 15.8509 84.3653 16.1185 84.0476 16.3621C83.891 16.488 83.7242 16.6006 83.5488 16.6985C83.3814 16.8101 83.2071 16.9109 83.0268 17.0001C82.6659 17.1796 82.2916 17.3309 81.9074 17.4525L81.3274 17.5975L80.7474 17.7019C80.3627 17.7508 79.9751 17.7722 79.5874 17.7657C79.1994 17.7665 78.8119 17.7413 78.4274 17.6903C78.0373 17.644 77.65 17.5762 77.2674 17.4873C76.8904 17.4061 76.5192 17.3017 76.1538 17.1857C75.4272 16.9582 74.7178 16.6791 74.031 16.3505C73.683 16.1939 73.3466 16.0199 73.016 15.8401C72.6854 15.6603 72.3606 15.4689 72.0184 15.2601L72.7782 14.5699C72.9464 14.9179 73.1262 15.2543 73.277 15.6139C73.4322 15.9683 73.5697 16.3303 73.6888 16.6985L73.8628 17.2785L73.9904 17.8585C74.0684 18.2419 74.1265 18.6291 74.1644 19.0185C74.1869 19.4048 74.1869 19.7922 74.1644 20.1785C74.1467 20.5681 74.1002 20.9558 74.0252 21.3385L73.8976 21.9185L73.7236 22.4985C73.5968 22.8715 73.4457 23.2357 73.2712 23.5889C73.1019 23.9404 72.9081 24.2796 72.6912 24.6039C72.4789 24.9209 72.2505 25.2268 72.0068 25.5203C71.7574 25.8219 71.5022 26.1003 71.2354 26.3845C70.9686 26.6687 70.6844 26.9181 70.4002 27.1733C69.8218 27.6709 69.2115 28.1301 68.5732 28.5479C68.2522 28.7567 67.9274 28.95 67.5988 29.1279C67.2624 29.3135 66.9318 29.4875 66.5664 29.6499L66.607 28.9597C66.8796 29.1453 67.187 29.3135 67.4306 29.5049C67.6742 29.6963 67.9642 29.8935 68.202 30.1255L68.5732 30.4619L68.9154 30.8215C69.1385 31.0687 69.3476 31.3282 69.5418 31.5987C69.7337 31.8744 69.9062 32.1632 70.058 32.4629C70.212 32.7582 70.3438 33.0645 70.4524 33.3793L70.5974 33.8607L70.7018 34.3479C70.7633 34.6754 70.802 35.0068 70.8178 35.3397C70.8589 36.654 70.6299 37.9628 70.145 39.1851C69.6829 40.3956 69.0606 41.5387 68.2948 42.5839L68.1266 42.3519L68.5152 42.2417C68.6486 42.2011 68.782 42.1837 68.9154 42.1547C69.1764 42.0967 69.4432 42.0793 69.71 42.0445C70.2431 42.0127 70.7776 42.0127 71.3108 42.0445C72.3713 42.1007 73.425 42.2482 74.4602 42.4853Z" fill="white"/>
</svg>
