<svg width="20" height="14" viewBox="0 0 20 14" fill="none" xmlns="http://www.w3.org/2000/svg">
<path d="M9.986 1C6.85461 1 3.64247 2.81238 1.11374 6.43714C1.04156 6.54174 1.00201 6.66539 1.00007 6.79246C0.998143 6.91954 1.03392 7.04433 1.10289 7.15108C3.04584 10.1925 6.215 12.5709 9.986 12.5709C13.716 12.5709 16.9503 10.1852 18.8968 7.13702C18.9642 7.03236 19 6.91053 19 6.78607C19 6.66161 18.9642 6.53978 18.8968 6.43513C16.9458 3.42186 13.6879 1 9.986 1Z" stroke="white" stroke-linecap="round" stroke-linejoin="round"/>
<path d="M9.99931 10.0006C11.7744 10.0006 13.2135 8.56154 13.2135 6.78642C13.2135 5.01129 11.7744 3.57227 9.99931 3.57227C8.22418 3.57227 6.78516 5.01129 6.78516 6.78642C6.78516 8.56154 8.22418 10.0006 9.99931 10.0006Z" stroke="white" stroke-miterlimit="10"/>
</svg>
