<svg width="20" height="20" viewBox="0 0 20 20" fill="none" xmlns="http://www.w3.org/2000/svg">
<g clip-path="url(#clip0)">
<path d="M8.63156 0.585389L6.79049 0.105365C6.39727 0.000598043 5.98726 -0.0256406 5.58389 0.0281492C5.18053 0.0819391 4.79172 0.214703 4.43969 0.41885C4.08767 0.622997 3.77933 0.894524 3.53231 1.21791C3.28529 1.54129 3.10443 1.91019 3.00006 2.30352L2.54053 4.03922C4.05594 2.15309 6.23497 0.91751 8.63156 0.585389Z" fill="#0C9CFF"/>
<path d="M0.555888 11.5117L0.105134 13.2123C-0.10557 14.006 0.00764101 14.851 0.419867 15.5613C0.832093 16.2715 1.50957 16.789 2.30329 16.9998L4.05947 17.4681C2.18426 15.9938 0.933326 13.8671 0.555888 11.5117Z" fill="#0C9CFF"/>
<path d="M17.6964 3.00025L15.7266 2.47632C16.7219 3.24198 17.5553 4.19771 18.1784 5.28804C18.8014 6.37836 19.2017 7.58158 19.356 8.82785L19.8975 6.77897C20.1055 5.98605 19.9905 5.14302 19.5779 4.43469C19.1653 3.72636 18.4887 3.21052 17.6964 3.00025Z" fill="#0C9CFF"/>
<path d="M11.3242 19.394L13.2121 19.9033C14.0059 20.114 14.8508 20.0008 15.5611 19.5886C16.2714 19.1764 16.7888 18.4989 16.9996 17.7052L17.5323 15.7031C16.0304 17.7036 13.7992 19.0301 11.3242 19.394Z" fill="#0C9CFF"/>
<path d="M10.0012 1.32886C8.28583 1.32828 6.60878 1.83643 5.18219 2.78903C3.7556 3.74164 2.64355 5.09592 1.98669 6.68058C1.32983 8.26524 1.15767 10.0091 1.49197 11.6916C1.82628 13.3741 2.65203 14.9197 3.8648 16.1329C5.07757 17.3461 6.62288 18.1724 8.30528 18.5072C9.98769 18.8421 11.7316 18.6705 13.3165 18.0142C14.9014 17.3579 16.256 16.2463 17.2091 14.82C18.1622 13.3938 18.6709 11.7169 18.6709 10.0015C18.6709 7.70186 17.7576 5.49639 16.1318 3.87004C14.506 2.2437 12.3008 1.32963 10.0012 1.32886ZM5.08977 5.65492C5.18251 5.1741 5.41572 4.73157 5.75993 4.38327C6.10413 4.03497 6.54388 3.79655 7.02358 3.69814C7.50327 3.59974 8.00137 3.64577 8.45491 3.83042C8.90845 4.01507 9.29705 4.33004 9.5716 4.73552C9.84615 5.141 9.99431 5.61878 9.99736 6.10846C10.0004 6.59813 9.85819 7.07772 9.5887 7.48658C9.31922 7.89544 8.93456 8.21522 8.48335 8.40549C8.03214 8.59577 7.53465 8.64799 7.05377 8.55555C6.73431 8.49415 6.43008 8.37039 6.15846 8.19137C5.88684 8.01234 5.65316 7.78155 5.47077 7.51217C5.28838 7.2428 5.16085 6.94013 5.09548 6.62146C5.03011 6.30278 5.02817 5.97435 5.08977 5.65492ZM8.69288 13.148C8.59949 13.6286 8.3657 14.0708 8.02106 14.4186C7.67642 14.7664 7.23641 15.0042 6.75664 15.102C6.27686 15.1998 5.77887 15.1532 5.3256 14.968C4.87233 14.7828 4.48414 14.4674 4.21009 14.0616C3.93604 13.6559 3.78843 13.178 3.78593 12.6883C3.78343 12.1987 3.92614 11.7193 4.19603 11.3108C4.46592 10.9022 4.85086 10.5829 5.30222 10.3931C5.75357 10.2033 6.25106 10.1515 6.7318 10.2444C7.0513 10.3061 7.3555 10.4302 7.62701 10.6096C7.89852 10.789 8.13201 11.0201 8.31414 11.2897C8.49627 11.5594 8.62347 11.8623 8.68845 12.1812C8.75344 12.5 8.75494 12.8285 8.69288 13.148ZM9.74366 11.143C9.53024 11.1017 9.33382 10.9981 9.17919 10.8454C9.02455 10.6926 8.91863 10.4974 8.87477 10.2845C8.83092 10.0716 8.8511 9.85047 8.93277 9.64902C9.01444 9.44756 9.15394 9.2748 9.33367 9.15253C9.51341 9.03027 9.72532 8.96396 9.9427 8.96199C10.1601 8.96002 10.3732 9.02246 10.5551 9.14145C10.737 9.26043 10.8796 9.43063 10.9649 9.63057C11.0502 9.83051 11.0744 10.0512 11.0345 10.2649C11.0078 10.4075 10.9531 10.5435 10.8737 10.6649C10.7943 10.7863 10.6917 10.8908 10.5717 10.9724C10.4517 11.054 10.3168 11.1111 10.1747 11.1404C10.0326 11.1697 9.88611 11.1706 9.74366 11.143ZM14.9098 14.3422C14.817 14.823 14.5838 15.2655 14.2396 15.6138C13.8954 15.9621 13.4557 16.2006 12.976 16.299C12.4963 16.3974 11.9982 16.3513 11.5446 16.1667C11.0911 15.982 10.7025 15.6671 10.4279 15.2616C10.1534 14.8561 10.0052 14.3783 10.0022 13.8886C9.99914 13.399 10.1413 12.9194 10.4108 12.5105C10.6803 12.1017 11.065 11.7819 11.5162 11.5916C11.9674 11.4013 12.4649 11.3491 12.9458 11.4415C13.2652 11.503 13.5695 11.6267 13.8411 11.8057C14.1127 11.9848 14.3464 12.2156 14.5288 12.4849C14.7112 12.7543 14.8387 13.057 14.9041 13.3756C14.9694 13.6943 14.9714 14.0228 14.9098 14.3422ZM13.2707 9.75268C12.7898 9.65995 12.3473 9.42674 11.999 9.08253C11.6507 8.73832 11.4123 8.29857 11.3139 7.81888C11.2155 7.33918 11.2615 6.84108 11.4462 6.38755C11.6308 5.93401 11.9458 5.5454 12.3513 5.27085C12.7567 4.99631 13.2345 4.84814 13.7242 4.8451C14.2139 4.84206 14.6935 4.98427 15.1023 5.25375C15.5112 5.52324 15.831 5.9079 16.0212 6.35911C16.2115 6.81031 16.2637 7.3078 16.1713 7.78869C16.1102 8.10841 15.9867 8.41296 15.8078 8.68491C15.6289 8.95685 15.3982 9.19087 15.1288 9.37355C14.8594 9.55624 14.5566 9.68401 14.2378 9.74957C13.9189 9.81513 13.5903 9.81718 13.2707 9.75561V9.75268Z" fill="#0C9CFF"/>
</g>
<defs>
<clipPath id="clip0">
<rect width="20" height="20" fill="white"/>
</clipPath>
</defs>
</svg>
