<svg width="1439" height="207" viewBox="0 0 1439 207" fill="none" xmlns="http://www.w3.org/2000/svg">
<g clip-path="url(#clip0)">
<path d="M1439 0H0V207H1439V0Z" fill="white"/>
<path d="M725.086 -241.292L1219.35 -257.759C1423.24 -264.552 1596.01 -173.618 1599.26 -57.8035L1600.3 -20.7529C1603.46 91.8678 1420.26 176.589 1226.37 152.17C1160.83 143.916 1092.33 148.019 1031.27 163.858L926.066 191.149C866.568 206.583 797.569 204.703 740.956 186.103C671.378 163.245 632.367 119.143 641.655 73.8463L655.213 7.73129C661.273 -21.8234 643.898 -51.3797 607.778 -72.9592C504.726 -134.528 575.658 -236.313 725.086 -241.292Z" fill="white" stroke="#E4EBEF"/>
<path d="M-0.201797 -399.419L1259.27 -428.593C1538.32 -435.057 1772.46 -310.468 1778.85 -152.122C1785.96 24.0775 1510.58 161.119 1203.45 134.224L1022.66 118.394C922.938 109.661 821.001 114.142 724.84 131.486L432.602 184.195C351.955 198.741 264.89 196.889 186.391 178.959L148.988 170.415C12.4571 139.228 -67.4721 58.3961 -43.1902 -23.935L-33.3483 -57.305C-19.7732 -103.333 -53.0923 -149.772 -119.478 -177.347C-284.985 -246.097 -205.185 -394.671 -0.201797 -399.419Z" fill="white" stroke="#E4EBEF"/>
</g>
<defs>
<clipPath id="clip0">
<rect width="1439" height="207" fill="white"/>
</clipPath>
</defs>
</svg>
