<svg width="2414" height="1158" viewBox="0 0 2414 1158" fill="none" xmlns="http://www.w3.org/2000/svg">
<path d="M1346.09 351.534L1840.35 322.498C2044.24 310.52 2217.01 470.862 2220.26 675.076L2221.3 740.407C2224.46 938.989 2041.26 1088.38 1847.37 1045.32C1781.83 1030.76 1713.33 1038 1652.27 1065.93L1547.07 1114.05C1487.57 1141.27 1418.57 1137.95 1361.96 1105.15C1292.38 1064.85 1253.37 987.083 1262.66 907.212L1276.21 790.632C1282.27 738.519 1264.9 686.403 1228.78 648.352C1125.73 539.789 1196.66 360.312 1346.09 351.534Z" stroke="#E4EBEF"/>
<path d="M620.798 72.71L1880.27 21.2675C2159.32 9.8699 2393.46 229.557 2399.85 508.765C2406.96 819.456 2131.58 1061.1 1824.45 1013.68L1643.66 985.762C1543.94 970.364 1442 978.265 1345.84 1008.85L1053.6 1101.79C972.955 1127.44 885.89 1124.17 807.391 1092.55L769.988 1077.49C633.457 1022.5 553.528 879.969 577.81 734.796L587.652 675.955C601.227 594.794 567.908 512.91 501.522 464.286C336.015 343.06 415.815 81.0825 620.798 72.71Z" stroke="#E4EBEF"/>
</svg>
