<svg width="12" height="16" viewBox="0 0 12 16" fill="none" xmlns="http://www.w3.org/2000/svg">
<path d="M8.51704 6.48098V3.50559C8.51704 2.84107 8.25306 2.20376 7.78317 1.73387C7.31328 1.26398 6.67598 1 6.01145 1C5.34693 1 4.70962 1.26398 4.23973 1.73387C3.76984 2.20376 3.50586 2.84107 3.50586 3.50559V6.48098" stroke="#CF6357" stroke-linecap="round" stroke-linejoin="round"/>
<path d="M9.51902 6.48047H2.50336C1.67308 6.48047 1 7.15354 1 7.98382V13.4961C1 14.3264 1.67308 14.9995 2.50336 14.9995H9.51902C10.3493 14.9995 11.0224 14.3264 11.0224 13.4961V7.98382C11.0224 7.15354 10.3493 6.48047 9.51902 6.48047Z" stroke="#CF6357" stroke-linecap="round" stroke-linejoin="round"/>
</svg>
