<svg width="1439" height="365" viewBox="0 0 1439 365" fill="none" xmlns="http://www.w3.org/2000/svg">
<rect width="1439" height="365" fill="white"/>
<path d="M725.086 -425.466L1219.35 -454.502C1423.24 -466.48 1596.01 -306.138 1599.26 -101.924L1600.3 -36.5933C1603.46 161.989 1420.26 311.377 1226.37 268.319C1160.83 253.764 1092.33 260.999 1031.27 288.928L926.066 337.05C866.568 364.265 797.569 360.949 740.956 328.153C671.378 287.847 632.367 210.083 641.655 130.212L655.213 13.6324C661.273 -38.481 643.898 -90.5972 607.778 -128.648C504.726 -237.211 575.658 -416.688 725.086 -425.466Z" fill="white" stroke="#E4EBEF"/>
<path d="M-0.201782 -704.29L1259.27 -755.732C1538.32 -767.13 1772.46 -547.443 1778.85 -268.235C1785.96 42.4555 1510.58 284.099 1203.45 236.676L1022.66 208.762C922.938 193.364 821.001 201.265 724.84 231.848L432.602 324.789C351.955 350.437 264.89 347.172 186.391 315.555L148.988 300.49C12.4571 245.499 -67.4721 102.969 -43.1902 -42.2042L-33.3483 -101.045C-19.7732 -182.206 -53.0923 -264.09 -119.478 -312.714C-284.985 -433.94 -205.185 -695.918 -0.201782 -704.29Z" fill="white" stroke="#E4EBEF"/>
</svg>
