<svg width="1440" height="840" viewBox="0 0 1440 840" fill="none" xmlns="http://www.w3.org/2000/svg">
<path d="M613.778 330.352C510.726 221.789 581.658 42.3119 731.086 33.5336L1225.35 4.4977C1429.24 -7.47988 1602.01 152.862 1605.26 357.076L1606.3 422.407C1609.46 620.989 1426.26 770.377 1232.37 727.319C1166.83 712.763 1098.33 719.999 1037.27 747.928L932.066 796.05C872.568 823.265 803.569 819.949 746.956 787.153C677.378 746.847 638.367 669.083 647.655 589.212L661.213 472.632C667.273 420.519 649.898 368.403 613.778 330.352Z" fill="white" stroke="#E4EBEF"/>
<path d="M-113.478 146.286C-278.985 25.0603 -199.185 -236.918 5.79822 -245.29L1265.27 -296.732C1544.32 -308.13 1778.46 -88.4434 1784.85 190.765C1791.96 501.455 1516.58 743.099 1209.45 695.676L1028.66 667.762C928.938 652.364 827.001 660.265 730.84 690.848L438.602 783.789C357.955 809.437 270.89 806.172 192.391 774.555L154.988 759.49C18.4571 704.499 -61.4721 561.969 -37.1902 416.796L-27.3483 357.955C-13.7732 276.794 -47.0923 194.91 -113.478 146.286Z" fill="white" stroke="#E4EBEF"/>
</svg>
