<svg width="24" height="24" viewBox="0 0 24 24" fill="none" xmlns="http://www.w3.org/2000/svg">
<path d="M12 24.0009C5.38328 24.0009 0 18.6084 0 11.9807C0 8.37783 1.57212 4.99994 4.31308 2.71821C4.44106 2.61102 4.58893 2.53014 4.74821 2.48019C4.9075 2.43024 5.07507 2.41219 5.24134 2.4271C5.40761 2.442 5.5693 2.48956 5.71716 2.56705C5.86502 2.64453 5.99615 2.75043 6.10302 2.87866C6.2099 3.0069 6.29043 3.15496 6.34 3.31436C6.38957 3.47377 6.40721 3.64138 6.3919 3.80761C6.3766 3.97385 6.32866 4.13542 6.25082 4.2831C6.17298 4.43077 6.06677 4.56164 5.93828 4.66821C3.7777 6.46821 2.53847 9.1336 2.53847 11.9807C2.53847 17.2088 6.7829 21.4625 12 21.4625C17.2171 21.4625 21.4616 17.2088 21.4616 11.9807C21.4614 10.5835 21.1518 9.20365 20.555 7.94031C19.9582 6.67696 19.089 5.56147 18.0098 4.67398C17.8762 4.56962 17.7648 4.43953 17.6822 4.2914C17.5997 4.14326 17.5476 3.98009 17.5292 3.81151C17.5107 3.64293 17.5263 3.47236 17.5749 3.30989C17.6235 3.14741 17.7041 2.99632 17.8121 2.86554C17.92 2.73475 18.0531 2.62693 18.2034 2.54844C18.3538 2.46994 18.5183 2.42237 18.6873 2.40853C18.8563 2.39469 19.0264 2.41486 19.1875 2.46785C19.3486 2.52084 19.4974 2.60558 19.6252 2.71705C20.9933 3.84226 22.0951 5.25653 22.8515 6.85826C23.608 8.45998 24.0002 10.2094 24 11.9807C24 18.6084 18.6168 24.0009 12 24.0009Z" fill="#343434"/>
<path d="M11.9997 12.9231C11.6631 12.9231 11.3402 12.7894 11.1022 12.5513C10.8642 12.3133 10.7305 11.9905 10.7305 11.6539V1.26923C10.7305 0.932611 10.8642 0.609777 11.1022 0.37175C11.3402 0.133722 11.6631 0 11.9997 0C12.3363 0 12.6592 0.133722 12.8972 0.37175C13.1352 0.609777 13.2689 0.932611 13.2689 1.26923V11.6539C13.2689 11.9905 13.1352 12.3133 12.8972 12.5513C12.6592 12.7894 12.3363 12.9231 11.9997 12.9231Z" fill="#343434"/>
</svg>
