<svg width="422" height="314" viewBox="0 0 422 314" fill="none" xmlns="http://www.w3.org/2000/svg">
<path d="M421.409 275.939H0V276.15H421.409V275.939Z" fill="#F0F0F0"/>
<path d="M299.2 286.559H290.368V286.769H299.2V286.559Z" fill="#F0F0F0"/>
<path d="M63.2619 281.029H54.7241V281.24H63.2619V281.029Z" fill="#F0F0F0"/>
<path d="M155.171 286.457H129.331V286.668H155.171V286.457Z" fill="#F0F0F0"/>
<path d="M197.219 281.645H180.632V281.855H197.219V281.645Z" fill="#F0F0F0"/>
<path d="M362.091 282.984H317.894V283.195H362.091V282.984Z" fill="#F0F0F0"/>
<path d="M103.633 281.029H67.333V281.24H103.633V281.029Z" fill="#F0F0F0"/>
<path d="M380.886 283.086H367.005V283.297H380.886V283.086Z" fill="#F0F0F0"/>
<path d="M199.748 238.349H37.0082C35.7333 238.347 34.5114 237.839 33.6107 236.936C32.71 236.034 32.2041 234.811 32.2041 233.536V4.77035C32.2152 3.50277 32.726 2.29076 33.6255 1.39758C34.525 0.504391 35.7405 0.00217142 37.0082 0H199.748C201.024 0 202.248 0.507029 203.151 1.40955C204.053 2.31206 204.56 3.53614 204.56 4.81249V233.536C204.56 234.813 204.053 236.037 203.151 236.939C202.248 237.842 201.024 238.349 199.748 238.349ZM37.0082 0.168564C35.7892 0.170797 34.6208 0.65661 33.7597 1.51937C32.8985 2.38213 32.4148 3.55134 32.4148 4.77035V233.536C32.4148 234.755 32.8985 235.925 33.7597 236.787C34.6208 237.65 35.7892 238.136 37.0082 238.138H199.748C200.968 238.136 202.137 237.65 202.999 236.788C203.862 235.925 204.347 234.756 204.35 233.536V4.77035C204.347 3.55056 203.862 2.38137 202.999 1.51886C202.137 0.656336 200.968 0.170792 199.748 0.168564H37.0082Z" fill="#F0F0F0"/>
<path d="M382.058 238.349H219.31C218.034 238.347 216.811 237.839 215.909 236.937C215.007 236.035 214.499 234.812 214.497 233.536V4.77035C214.51 3.502 215.023 2.29 215.924 1.39705C216.825 0.504096 218.041 0.00214774 219.31 0H382.058C383.324 0.00438644 384.537 0.507586 385.435 1.40053C386.333 2.29348 386.842 3.50423 386.853 4.77035V233.536C386.853 234.81 386.349 236.031 385.45 236.933C384.551 237.835 383.331 238.344 382.058 238.349ZM219.31 0.168564C218.09 0.170792 216.921 0.656336 216.058 1.51886C215.196 2.38137 214.71 3.55056 214.708 4.77035V233.536C214.71 234.756 215.196 235.925 216.058 236.788C216.921 237.65 218.09 238.136 219.31 238.138H382.058C383.277 238.136 384.447 237.65 385.309 236.788C386.172 235.925 386.657 234.756 386.659 233.536V4.77035C386.657 3.55056 386.172 2.38137 385.309 1.51886C384.447 0.656336 383.277 0.170792 382.058 0.168564H219.31Z" fill="#F0F0F0"/>
<path d="M367.35 225.344H344.173V275.938H367.35V225.344Z" fill="#E6E6E6"/>
<path d="M362.951 275.938H367.351V263.414H358.333L362.951 275.938Z" fill="#F5F5F5"/>
<path d="M235.095 225.344H211.918V275.938H235.095V225.344Z" fill="#EBEBEB"/>
<path d="M367.35 225.344H231.252V268.252H367.35V225.344Z" fill="#F5F5F5"/>
<path d="M235.778 229.44V252.592H276.124V229.44H235.778Z" fill="#E6E6E6"/>
<path d="M259.942 232.946H252.002C250.286 232.946 248.588 232.596 247.012 231.918C245.435 231.239 244.013 230.247 242.833 229.002H269.112C267.931 230.247 266.509 231.239 264.932 231.918C263.356 232.596 261.658 232.946 259.942 232.946Z" fill="#F0F0F0"/>
<path d="M279.125 229.44V252.592H319.47V229.44H279.125Z" fill="#E6E6E6"/>
<path d="M303.701 232.946H295.72C294.005 232.945 292.308 232.594 290.733 231.916C289.158 231.238 287.738 230.246 286.558 229.002H312.871C311.69 230.247 310.268 231.239 308.692 231.918C307.115 232.596 305.417 232.946 303.701 232.946Z" fill="#F0F0F0"/>
<path d="M322.479 229.449V252.602H362.825V229.449H322.479Z" fill="#E6E6E6"/>
<path d="M347.056 232.946H339.074C337.358 232.946 335.66 232.596 334.083 231.918C332.507 231.239 331.085 230.247 329.904 229.002H356.217C355.037 230.246 353.617 231.238 352.042 231.916C350.467 232.594 348.77 232.945 347.056 232.946Z" fill="#F0F0F0"/>
<path d="M235.651 275.938H231.252V263.414H240.27L235.651 275.938Z" fill="#F5F5F5"/>
<path d="M259.933 16.0059H52.9878V127.645H259.933V16.0059Z" fill="#E6E6E6"/>
<path d="M264.207 16.0059H54.9858V127.645H264.207V16.0059Z" fill="#EBEBEB"/>
<path d="M259.933 127.645H52.9878V135.601H259.933V127.645Z" fill="#E6E6E6"/>
<path d="M271.337 127.645H62.1157V135.601H271.337V127.645Z" fill="#E6E6E6"/>
<path d="M258.214 121.653V21.998L60.9777 21.998V121.653L258.214 121.653Z" fill="#FAFAFA"/>
<path d="M72.4404 121.653L107.62 21.998H124.223L89.0439 121.653H72.4404Z" fill="white"/>
<path d="M63.751 87.8721C63.6303 87.8721 63.5146 87.8241 63.4292 87.7388C63.3439 87.6534 63.2959 87.5377 63.2959 87.417V25.8913C63.2959 25.7698 63.3436 25.6531 63.4287 25.5665C63.5138 25.4798 63.6295 25.4299 63.751 25.4277C63.874 25.4277 63.9919 25.4766 64.0788 25.5635C64.1657 25.6504 64.2146 25.7683 64.2146 25.8913V87.417C64.2124 87.5384 64.1625 87.6542 64.0759 87.7393C63.9892 87.8244 63.8725 87.8721 63.751 87.8721Z" fill="#E6E6E6"/>
<path d="M92.6172 121.653L127.788 21.998H134.261L99.09 121.653H92.6172Z" fill="white"/>
<path d="M258.214 121.653V21.998H257.455V121.653H258.214Z" fill="#E6E6E6"/>
<path d="M265.623 29.6657H58.6857L58.1294 24.3223H265.075L265.623 29.6657Z" fill="#EBEBEB"/>
<path d="M265.623 33.5694H58.6857L58.1294 28.2344H265.075L265.623 33.5694Z" fill="#EBEBEB"/>
<path d="M265.623 38.2653H58.6857L58.1294 32.9219H265.075L265.623 38.2653Z" fill="#EBEBEB"/>
<path d="M265.623 43.4802H58.6857L58.1294 38.1367H265.075L265.623 43.4802Z" fill="#EBEBEB"/>
<path d="M265.623 49.7257H58.6857L58.1294 44.3906H265.075L265.623 49.7257Z" fill="#E6E6E6"/>
<path d="M265.623 56.7628H58.6857L58.1294 51.4277H265.075L265.623 56.7628Z" fill="#E6E6E6"/>
<path d="M317.313 63.2109H288.446V96.4685H317.313V63.2109Z" fill="#EBEBEB"/>
<path d="M323.153 63.2109H291.868V96.4685H323.153V63.2109Z" fill="#F5F5F5"/>
<path d="M320.532 93.8473V65.832H294.489V93.8473H320.532Z" fill="white"/>
<path d="M314.219 84.7616V74.9259C314.219 73.6552 313.189 72.625 311.918 72.625H303.102C301.832 72.625 300.802 73.6552 300.802 74.9259V84.7616C300.802 86.0323 301.832 87.0625 303.102 87.0625H311.918C313.189 87.0625 314.219 86.0323 314.219 84.7616Z" fill="#FAFAFA"/>
<path d="M360.878 48.5879H332.011V81.8455H360.878V48.5879Z" fill="#EBEBEB"/>
<path d="M366.718 48.5879H335.433V81.8455H366.718V48.5879Z" fill="#F5F5F5"/>
<path d="M364.089 79.2243V51.209H338.046V79.2243H364.089Z" fill="white"/>
<path d="M357.776 70.1321V60.3048C357.776 59.0341 356.746 58.0039 355.475 58.0039H346.659C345.388 58.0039 344.358 59.0341 344.358 60.3048V70.1321C344.358 71.4028 345.388 72.4329 346.659 72.4329H355.475C356.746 72.4329 357.776 71.4028 357.776 70.1321Z" fill="#FAFAFA"/>
<path d="M219.411 177.557H172.584V275.939H219.411V177.557Z" fill="#E6E6E6"/>
<path d="M214.708 275.938H219.41V262.537H209.76L214.708 275.938Z" fill="#E6E6E6"/>
<path d="M104.223 177.557H57.396V275.939H104.223V177.557Z" fill="#E6E6E6"/>
<path d="M219.411 177.557H100.11V267.721H219.411V177.557Z" fill="#F5F5F5"/>
<path d="M214.767 181.551H102.773V206.279H214.767V181.551Z" fill="#E6E6E6"/>
<path d="M165.049 189.237H154.472C149.878 189.237 145.487 186.186 142.327 180.809H177.202C174.042 186.186 169.651 189.237 165.049 189.237Z" fill="#F5F5F5"/>
<path d="M104.821 275.938H100.11V262.537H109.76L104.821 275.938Z" fill="#E6E6E6"/>
<path d="M214.767 210.275H102.773V235.004H214.767V210.275Z" fill="#E6E6E6"/>
<path d="M165.049 217.952H154.472C149.878 217.952 145.487 214.901 142.327 209.523H177.202C174.042 214.917 169.651 217.952 165.049 217.952Z" fill="#F5F5F5"/>
<path d="M214.767 238.998H102.773V263.726H214.767V238.998Z" fill="#E6E6E6"/>
<path d="M165.049 246.676H154.472C149.878 246.676 145.487 243.625 142.327 238.248H177.202C174.042 243.625 169.651 246.676 165.049 246.676Z" fill="#F5F5F5"/>
<path d="M322.403 216.267H323.802C323.802 213.393 323.802 206.086 323.954 189.347C324.198 159.006 324.687 157.16 324.687 157.16L321.358 171.168C319.242 186.676 321.956 202.276 322.403 216.267Z" fill="#E6E6E6"/>
<path d="M316.208 165.976C308.884 158.736 294.582 157.767 279.967 157.16C274.236 156.924 295.981 167.94 306.878 176.191C315.306 182.596 320.507 184.105 323.313 191.016C323.642 182.048 322.521 172.213 316.208 165.976Z" fill="#E6E6E6"/>
<path d="M324.257 150.232C329.221 140.801 341.712 131.918 355.728 128.555C361.223 127.232 342.976 145.967 336.04 158.053C330.654 167.442 323.507 178.466 322.403 186.389C320.726 170.687 319.293 159.663 324.257 150.232Z" fill="#E6E6E6"/>
<path d="M323.642 225.343C321.292 225.341 319.033 224.441 317.325 222.827C315.617 221.213 314.591 219.008 314.455 216.662L313.612 208.344H333.612L332.77 216.662C332.633 218.997 331.614 221.193 329.919 222.805C328.224 224.416 325.981 225.324 323.642 225.343Z" fill="#F0F0F0"/>
<path d="M334.919 211.546H312.323L311.674 202.275H335.568L334.919 211.546Z" fill="#F5F5F5"/>
<path d="M210.704 313.999C300.955 313.999 374.118 309.728 374.118 304.459C374.118 299.189 300.955 294.918 210.704 294.918C120.453 294.918 47.2905 299.189 47.2905 304.459C47.2905 309.728 120.453 313.999 210.704 313.999Z" fill="#F5F5F5"/>
<path d="M206.878 74.0078C208.024 88.3357 224.577 106.945 229.87 112.575C230.078 112.798 230.33 112.976 230.61 113.098C230.889 113.219 231.191 113.282 231.496 113.282C231.802 113.282 232.103 113.219 232.383 113.098C232.663 112.976 232.915 112.798 233.123 112.575C238.433 106.945 254.969 88.3273 256.115 74.0078C256.154 73.5682 256.064 73.1266 255.856 72.7374C255.648 72.3481 255.331 72.0281 254.944 71.8165L232.558 59.7389C232.233 59.5604 231.868 59.4668 231.496 59.4668C231.125 59.4668 230.76 59.5604 230.434 59.7389L208.049 71.8165C207.663 72.0297 207.347 72.3501 207.139 72.7389C206.932 73.1278 206.841 73.5685 206.878 74.0078Z" fill="#0C9CFF"/>
<path opacity="0.3" d="M229.836 107.147C223.094 99.5614 213.317 86.8096 210.982 76.662C210.876 76.1904 210.924 75.6972 211.118 75.2545C211.312 74.8117 211.643 74.4426 212.061 74.201L230.384 63.6658C230.724 63.4714 231.109 63.3691 231.501 63.3691C231.893 63.3691 232.278 63.4714 232.618 63.6658L250.94 74.1673C251.37 74.4139 251.707 74.795 251.899 75.2519C252.091 75.7088 252.127 76.2162 252.002 76.6957C249.676 86.8601 239.933 99.5614 233.157 107.18C232.947 107.414 232.689 107.599 232.402 107.725C232.114 107.851 231.803 107.915 231.489 107.912C231.175 107.909 230.865 107.839 230.58 107.707C230.296 107.575 230.042 107.384 229.836 107.147Z" fill="#0C9CFF"/>
<path opacity="0.3" d="M229.836 107.147C223.094 99.5614 213.317 86.8096 210.982 76.662C210.876 76.1904 210.924 75.6972 211.118 75.2545C211.312 74.8117 211.643 74.4426 212.061 74.201L230.384 63.6658C230.724 63.4714 231.109 63.3691 231.501 63.3691C231.893 63.3691 232.278 63.4714 232.618 63.6658L250.94 74.1673C251.37 74.4139 251.707 74.795 251.899 75.2519C252.091 75.7088 252.127 76.2162 252.002 76.6957C249.676 86.8601 239.933 99.5614 233.157 107.18C232.947 107.414 232.689 107.599 232.402 107.725C232.114 107.851 231.803 107.915 231.489 107.912C231.175 107.909 230.865 107.839 230.58 107.707C230.296 107.575 230.042 107.384 229.836 107.147Z" fill="white"/>
<path d="M229.002 91.764C228.836 91.7643 228.671 91.7317 228.518 91.6681C228.365 91.6044 228.226 91.511 228.109 91.3932L221.863 85.1226C221.64 84.883 221.518 84.566 221.524 84.2385C221.53 83.9109 221.663 83.5984 221.894 83.3668C222.126 83.1352 222.438 83.0025 222.766 82.9967C223.093 82.9909 223.41 83.1125 223.65 83.3358L229.002 88.6793L241.644 76.0792C241.882 75.8445 242.203 75.7129 242.538 75.7129C242.872 75.7129 243.193 75.8445 243.431 76.0792C243.549 76.196 243.643 76.3351 243.707 76.4884C243.771 76.6418 243.804 76.8064 243.804 76.9726C243.804 77.1388 243.771 77.3033 243.707 77.4567C243.643 77.61 243.549 77.7491 243.431 77.8659L229.946 91.351C229.825 91.4811 229.679 91.5848 229.517 91.6559C229.355 91.727 229.179 91.7638 229.002 91.764Z" fill="white"/>
<path d="M282.066 125.857H165.192C159.607 125.857 155.079 130.386 155.079 135.971V289.28C155.079 294.865 159.607 299.394 165.192 299.394H282.066C287.652 299.394 292.18 294.865 292.18 289.28V135.971C292.18 130.386 287.652 125.857 282.066 125.857Z" fill="#263238"/>
<path d="M289.938 125.857H173.064C167.478 125.857 162.95 130.386 162.95 135.971V289.28C162.95 294.865 167.478 299.394 173.064 299.394H289.938C295.523 299.394 300.051 294.865 300.051 289.28V135.971C300.051 130.386 295.523 125.857 289.938 125.857Z" fill="#0C9CFF"/>
<path d="M186.903 299.402H175.525C175.176 299.402 174.893 299.685 174.893 300.034V301.863C174.893 302.212 175.176 302.495 175.525 302.495H186.903C187.252 302.495 187.535 302.212 187.535 301.863V300.034C187.535 299.685 187.252 299.402 186.903 299.402Z" fill="#263238"/>
<path d="M287.468 299.402H276.09C275.741 299.402 275.458 299.685 275.458 300.034V301.863C275.458 302.212 275.741 302.495 276.09 302.495H287.468C287.817 302.495 288.1 302.212 288.1 301.863V300.034C288.1 299.685 287.817 299.402 287.468 299.402Z" fill="#263238"/>
<path opacity="0.2" d="M289.938 125.857H173.064C167.478 125.857 162.95 130.386 162.95 135.971V289.28C162.95 294.865 167.478 299.394 173.064 299.394H289.938C295.523 299.394 300.051 294.865 300.051 289.28V135.971C300.051 130.386 295.523 125.857 289.938 125.857Z" fill="black"/>
<g style="mix-blend-mode:color-dodge" opacity="0.4">
<path d="M276.166 279.386H186.827C185.804 279.383 184.824 278.976 184.1 278.253C183.377 277.529 182.97 276.549 182.967 275.526V149.744C182.967 148.719 183.374 147.736 184.097 147.011C184.821 146.286 185.803 145.877 186.827 145.875H276.166C277.191 145.877 278.172 146.286 278.896 147.011C279.62 147.736 280.026 148.719 280.026 149.744V275.526C280.024 276.549 279.617 277.529 278.893 278.253C278.17 278.976 277.189 279.383 276.166 279.386ZM186.827 146.296C185.915 146.299 185.04 146.663 184.395 147.309C183.751 147.955 183.389 148.831 183.389 149.744V275.526C183.389 275.977 183.478 276.424 183.65 276.842C183.823 277.259 184.077 277.638 184.396 277.957C184.715 278.276 185.094 278.53 185.511 278.703C185.929 278.875 186.376 278.964 186.827 278.964H276.166C277.078 278.964 277.953 278.602 278.598 277.957C279.242 277.312 279.605 276.438 279.605 275.526V149.744C279.605 148.831 279.243 147.955 278.598 147.309C277.953 146.663 277.079 146.299 276.166 146.296H186.827Z" fill="#E6E6E6"/>
</g>
<path d="M278.138 275.526V149.735C278.138 148.651 277.259 147.771 276.174 147.771H186.827C185.743 147.771 184.864 148.651 184.864 149.735V275.526C184.864 276.61 185.743 277.49 186.827 277.49H276.174C277.259 277.49 278.138 276.61 278.138 275.526Z" fill="#0C9CFF"/>
<path opacity="0.1" d="M278.138 275.526V149.735C278.138 148.651 277.259 147.771 276.174 147.771H186.827C185.743 147.771 184.864 148.651 184.864 149.735V275.526C184.864 276.61 185.743 277.49 186.827 277.49H276.174C277.259 277.49 278.138 276.61 278.138 275.526Z" fill="white"/>
<path d="M302.993 161.635H302.15V168.748H302.993V161.635Z" fill="#0C9CFF"/>
<path d="M302.993 135.973H302.15V154.144H302.993V135.973Z" fill="#0C9CFF"/>
<path opacity="0.1" d="M231.496 243.826C247.369 243.826 260.236 230.958 260.236 215.086C260.236 199.213 247.369 186.346 231.496 186.346C215.624 186.346 202.756 199.213 202.756 215.086C202.756 230.958 215.624 243.826 231.496 243.826Z" fill="black"/>
<path d="M231.497 172.407C235.374 172.407 238.517 169.263 238.517 165.386C238.517 161.508 235.374 158.365 231.497 158.365C227.619 158.365 224.476 161.508 224.476 165.386C224.476 169.263 227.619 172.407 231.497 172.407Z" fill="#0C9CFF"/>
<path opacity="0.6" d="M231.455 172.391C235.332 172.391 238.475 169.248 238.475 165.37C238.475 161.493 235.332 158.35 231.455 158.35C227.577 158.35 224.434 161.493 224.434 165.37C224.434 169.248 227.577 172.391 231.455 172.391Z" fill="white"/>
<path d="M231.496 170.931C230.4 170.931 229.327 170.606 228.415 169.997C227.503 169.387 226.793 168.521 226.373 167.508C225.953 166.495 225.843 165.379 226.057 164.304C226.271 163.228 226.799 162.24 227.575 161.464C228.351 160.689 229.339 160.16 230.414 159.946C231.49 159.732 232.605 159.842 233.619 160.262C234.632 160.682 235.498 161.393 236.108 162.305C236.717 163.217 237.042 164.289 237.042 165.386C237.04 166.856 236.455 168.265 235.415 169.305C234.376 170.344 232.967 170.929 231.496 170.931ZM231.496 160.261C230.483 160.261 229.492 160.562 228.65 161.125C227.807 161.688 227.15 162.488 226.762 163.425C226.374 164.361 226.273 165.391 226.471 166.385C226.668 167.379 227.156 168.292 227.873 169.009C228.59 169.726 229.503 170.214 230.497 170.411C231.491 170.609 232.521 170.508 233.457 170.12C234.394 169.732 235.194 169.075 235.757 168.233C236.32 167.39 236.621 166.399 236.621 165.386C236.619 164.027 236.078 162.725 235.117 161.765C234.157 160.804 232.855 160.263 231.496 160.261Z" fill="#0C9CFF"/>
<path d="M184.745 164.291H181.618C180.93 164.291 180.371 164.849 180.371 165.538V182.648C180.371 183.336 180.93 183.895 181.618 183.895H184.745C185.434 183.895 185.993 183.336 185.993 182.648V165.538C185.993 164.849 185.434 164.291 184.745 164.291Z" fill="#0C9CFF"/>
<path opacity="0.6" d="M184.745 164.291H181.618C180.93 164.291 180.371 164.849 180.371 165.538V182.648C180.371 183.336 180.93 183.895 181.618 183.895H184.745C185.434 183.895 185.993 183.336 185.993 182.648V165.538C185.993 164.849 185.434 164.291 184.745 164.291Z" fill="white"/>
<path d="M184.745 241.367H181.618C180.93 241.367 180.371 241.926 180.371 242.615V259.724C180.371 260.413 180.93 260.971 181.618 260.971H184.745C185.434 260.971 185.993 260.413 185.993 259.724V242.615C185.993 241.926 185.434 241.367 184.745 241.367Z" fill="#0C9CFF"/>
<path opacity="0.6" d="M184.745 241.367H181.618C180.93 241.367 180.371 241.926 180.371 242.615V259.724C180.371 260.413 180.93 260.971 181.618 260.971H184.745C185.434 260.971 185.993 260.413 185.993 259.724V242.615C185.993 241.926 185.434 241.367 184.745 241.367Z" fill="white"/>
<path d="M231.496 241.375C247.369 241.375 260.236 228.507 260.236 212.635C260.236 196.762 247.369 183.895 231.496 183.895C215.624 183.895 202.756 196.762 202.756 212.635C202.756 228.507 215.624 241.375 231.496 241.375Z" fill="#0C9CFF"/>
<path opacity="0.6" d="M231.496 241.375C247.369 241.375 260.236 228.507 260.236 212.635C260.236 196.762 247.369 183.895 231.496 183.895C215.624 183.895 202.756 196.762 202.756 212.635C202.756 228.507 215.624 241.375 231.496 241.375Z" fill="white"/>
<path d="M217.278 197.214L216.086 198.406L245.729 228.049L246.921 226.857L217.278 197.214Z" fill="#0C9CFF"/>
<path d="M245.729 197.212L216.085 226.855L217.277 228.047L246.921 198.404L245.729 197.212Z" fill="#0C9CFF"/>
<path opacity="0.2" d="M245.631 197.117L215.988 226.76L217.18 227.952L246.823 198.309L245.631 197.117Z" fill="black"/>
<path opacity="0.2" d="M217.186 197.124L215.994 198.316L245.637 227.96L246.829 226.768L217.186 197.124Z" fill="black"/>
<path d="M231.412 234.354C227.096 234.356 222.877 233.077 219.287 230.681C215.698 228.284 212.9 224.877 211.247 220.89C209.594 216.903 209.161 212.515 210.002 208.282C210.843 204.048 212.92 200.159 215.972 197.107C219.023 194.054 222.911 191.975 227.144 191.133C231.377 190.29 235.765 190.722 239.752 192.373C243.74 194.024 247.149 196.821 249.547 200.41C251.945 203.998 253.225 208.217 253.225 212.533C253.22 218.318 250.921 223.864 246.832 227.955C242.742 232.046 237.197 234.347 231.412 234.354ZM231.412 192.399C227.43 192.397 223.536 193.576 220.224 195.788C216.912 197.999 214.33 201.143 212.804 204.822C211.279 208.501 210.879 212.55 211.655 216.456C212.431 220.363 214.348 223.951 217.164 226.768C219.979 229.585 223.567 231.503 227.473 232.281C231.379 233.058 235.428 232.66 239.107 231.136C242.787 229.613 245.932 227.032 248.145 223.721C250.358 220.409 251.539 216.516 251.539 212.533C251.535 207.196 249.413 202.079 245.64 198.304C241.866 194.529 236.75 192.405 231.412 192.399Z" fill="#0C9CFF"/>
<path d="M237.86 218.989C241.425 215.425 241.425 209.645 237.86 206.081C234.296 202.516 228.516 202.516 224.952 206.081C221.387 209.645 221.387 215.425 224.952 218.989C228.516 222.554 234.296 222.554 237.86 218.989Z" fill="#0C9CFF"/>
<path opacity="0.2" d="M231.412 234.354C227.096 234.356 222.877 233.077 219.287 230.681C215.698 228.284 212.9 224.877 211.247 220.89C209.594 216.903 209.161 212.515 210.002 208.282C210.843 204.048 212.92 200.159 215.972 197.107C219.023 194.054 222.911 191.975 227.144 191.133C231.377 190.29 235.765 190.722 239.752 192.373C243.74 194.024 247.149 196.821 249.547 200.41C251.945 203.998 253.225 208.217 253.225 212.533C253.22 218.318 250.921 223.864 246.832 227.955C242.742 232.046 237.197 234.347 231.412 234.354ZM231.412 192.399C227.43 192.397 223.536 193.576 220.224 195.788C216.912 197.999 214.33 201.143 212.804 204.822C211.279 208.501 210.879 212.55 211.655 216.456C212.431 220.363 214.348 223.951 217.164 226.768C219.979 229.585 223.567 231.503 227.473 232.281C231.379 233.058 235.428 232.66 239.107 231.136C242.787 229.613 245.932 227.032 248.145 223.721C250.358 220.409 251.539 216.516 251.539 212.533C251.535 207.196 249.413 202.079 245.64 198.304C241.866 194.529 236.75 192.405 231.412 192.399Z" fill="black"/>
<path opacity="0.2" d="M237.86 218.989C241.425 215.425 241.425 209.645 237.86 206.081C234.296 202.516 228.516 202.516 224.952 206.081C221.387 209.645 221.387 215.425 224.952 218.989C228.516 222.554 234.296 222.554 237.86 218.989Z" fill="black"/>
<path d="M160.978 90.8223C163.01 95.5336 165.108 100.304 167.232 104.998C169.356 109.693 171.53 114.379 173.857 118.854C174.455 119.95 175.028 121.088 175.652 122.125L176.107 122.917L176.343 123.313C176.319 123.281 176.291 123.252 176.259 123.229C176.157 123.17 176.259 123.288 176.461 123.431C177.234 123.847 178.072 124.132 178.939 124.274C180.054 124.481 181.179 124.628 182.31 124.712C184.695 124.872 187.215 124.872 189.744 124.796L193.57 124.636L197.38 124.383L198.366 128.968C193.16 130.707 187.758 131.788 182.285 132.188C180.808 132.283 179.326 132.269 177.852 132.146C176.111 132.028 174.403 131.624 172.795 130.949C171.681 130.462 170.679 129.75 169.853 128.859C169.606 128.594 169.378 128.313 169.171 128.016L168.876 127.578L168.302 126.735C167.502 125.572 166.827 124.409 166.103 123.237C163.372 118.559 160.928 113.823 158.635 109.044C156.343 104.265 154.21 99.4443 152.205 94.497L160.978 90.8223Z" fill="#7F3E3B"/>
<path d="M149.786 90.1815C147.873 95.7778 159.116 112.238 159.116 112.238L169.887 106.271C168.058 101.136 165.899 96.1248 163.423 91.2687C159.622 84.1469 151.885 84.0373 149.786 90.1815Z" fill="#0C9CFF"/>
<path opacity="0.5" d="M149.786 90.1815C147.873 95.7778 159.116 112.238 159.116 112.238L169.887 106.271C168.058 101.136 165.899 96.1248 163.423 91.2687C159.622 84.1469 151.885 84.0373 149.786 90.1815Z" fill="white"/>
<path d="M149.626 90.8814C152.036 89.7268 154.818 90.696 157.734 95.3146C160.65 99.9333 163.145 107.645 163.423 109.845L159.116 112.23C159.116 112.23 148.732 97.0256 149.626 90.8814Z" fill="#0C9CFF"/>
<path opacity="0.4" d="M149.626 90.8814C152.036 89.7268 154.818 90.696 157.734 95.3146C160.65 99.9333 163.145 107.645 163.423 109.845L159.116 112.23C159.116 112.23 148.732 97.0256 149.626 90.8814Z" fill="white"/>
<path d="M157.059 85.8995C157.059 85.8995 165.083 104.77 159.293 139.907H125.883C125.47 134.775 127.83 109.751 122.04 85.5793C125.713 84.8638 129.43 84.3908 133.165 84.1633C137.895 83.8935 142.637 83.8935 147.367 84.1633C150.637 84.494 153.877 85.0744 157.059 85.8995Z" fill="#0C9CFF"/>
<path opacity="0.5" d="M157.059 85.8995C157.059 85.8995 165.083 104.77 159.293 139.907H125.883C125.47 134.775 127.83 109.751 122.04 85.5793C125.713 84.8638 129.43 84.3908 133.165 84.1633C137.895 83.8935 142.637 83.8935 147.367 84.1633C150.637 84.494 153.877 85.0744 157.059 85.8995Z" fill="white"/>
<path d="M129.507 91.5469C130.199 95.525 129.28 105.032 125.866 116.039C125.599 106.609 124.502 97.2198 122.588 87.9817V87.9312C124.779 87.712 128.842 87.8132 129.507 91.5469Z" fill="#0C9CFF"/>
<path opacity="0.4" d="M129.507 91.5469C130.199 95.525 129.28 105.032 125.866 116.039C125.599 106.609 124.502 97.2198 122.588 87.9817V87.9312C124.779 87.712 128.842 87.8132 129.507 91.5469Z" fill="white"/>
<path d="M114.042 289.618L118.998 294.051L128.429 284.232L123.473 279.799L114.042 289.618Z" fill="#7F3E3B"/>
<path d="M120.363 292.274L114.345 288.245C114.247 288.167 114.125 288.125 114 288.125C113.874 288.125 113.752 288.167 113.654 288.245L109.052 292.889C108.963 292.991 108.896 293.112 108.858 293.242C108.82 293.373 108.811 293.51 108.832 293.644C108.853 293.779 108.903 293.907 108.979 294.019C109.055 294.132 109.155 294.227 109.272 294.297C113.115 297.255 115.888 299.489 118.079 301.95C120.607 304.824 121.973 305.237 127.873 305.237C130.603 305.237 132.146 302.936 131.033 302.582C121.206 299.472 123.835 298.115 121.442 293.555C121.199 293.042 120.827 292.6 120.363 292.274Z" fill="#263238"/>
<path d="M128.42 284.232L123.566 289.297L118.61 284.856L123.465 279.799L128.42 284.232Z" fill="#5E2B2B"/>
<path d="M131.826 284.377H138.071L137.65 291.836H131.404L131.826 284.377Z" fill="#5E2B2B"/>
<path d="M159.293 139.908C159.293 139.908 165.875 185.471 168.117 210.267C169.921 230.165 126.895 289.491 126.895 289.491L118.576 281.662C118.576 281.662 149.996 228.471 147.578 206.322C145.243 184.872 137.295 139.883 137.295 139.883L159.293 139.908Z" fill="#0C9CFF"/>
<path opacity="0.5" d="M159.293 139.908C159.293 139.908 165.875 185.471 168.117 210.267C169.921 230.165 126.895 289.491 126.895 289.491L118.576 281.662C118.576 281.662 149.996 228.471 147.578 206.322C145.243 184.872 137.295 139.883 137.295 139.883L159.293 139.908Z" fill="black"/>
<path d="M131.008 298.84H137.262L138.071 284.377H131.825L131.008 298.84Z" fill="#7F3E3B"/>
<path d="M137.59 298.121H130.569C130.452 298.117 130.338 298.158 130.251 298.237C130.165 298.316 130.112 298.426 130.106 298.543L129.76 304.097C129.759 304.242 129.787 304.386 129.841 304.52C129.896 304.655 129.976 304.777 130.078 304.88C130.179 304.984 130.301 305.066 130.434 305.122C130.568 305.179 130.711 305.208 130.856 305.21C133.3 305.167 134.472 305.024 137.598 305.024C139.495 305.024 147.569 305.226 150.199 305.226C152.828 305.226 152.727 302.631 151.631 302.395C146.65 301.341 140.472 299.866 138.703 298.501C138.386 298.251 137.993 298.117 137.59 298.121Z" fill="#263238"/>
<path d="M196.065 124.67L201.804 122.395L203.204 128.294C203.204 128.294 196.655 130.25 195.618 128.362L196.065 124.67Z" fill="#7F3E3B"/>
<path d="M206.668 123.583L208.353 126.811L203.204 128.277L201.805 122.395L206.668 123.583Z" fill="#7F3E3B"/>
<path d="M148.749 84.2832L147.384 84.1399C142.654 83.87 137.912 83.87 133.182 84.1399L132.339 84.1905L132.415 84.418C132.483 84.595 134.05 88.767 143.043 88.767C146.962 88.767 149.01 88.118 149.482 86.7105C149.579 86.277 149.562 85.826 149.433 85.4009C149.305 84.9758 149.069 84.5908 148.749 84.2832Z" fill="#E6E6E6"/>
<path d="M134.008 68.168C135.062 72.736 136.25 81.1136 133.166 84.1815C133.166 84.1815 134.497 87.9657 142.993 87.9657C152.331 87.9657 147.367 84.1815 147.367 84.1815C142.226 82.9678 142.234 79.1836 142.993 75.6353L134.008 68.168Z" fill="#7F3E3B"/>
<path d="M137.691 71.2109L143.009 75.6104C142.818 76.4413 142.7 77.2874 142.655 78.1389C140.7 77.8608 137.953 75.72 137.674 73.6804C137.526 72.8634 137.531 72.0258 137.691 71.2109Z" fill="#5E2B2B"/>
<path d="M147.358 54.5726C150.199 56.41 150.603 65.2427 146.448 66.5069C142.293 67.7711 141.981 51.1002 147.358 54.5726Z" fill="#263238"/>
<path d="M132.036 63.3796C133.941 69.2793 134.75 72.8444 138.593 75.2633C139.833 76.0602 141.267 76.5028 142.741 76.5435C144.214 76.5841 145.67 76.2212 146.952 75.4939C148.234 74.7666 149.292 73.7027 150.013 72.4172C150.734 71.1317 151.09 69.6735 151.042 68.2005C150.966 62.5283 147.864 53.7967 141.332 52.7011C139.925 52.4293 138.47 52.5322 137.115 52.9994C135.759 53.4665 134.55 54.2816 133.609 55.363C132.668 56.4444 132.027 57.7541 131.751 59.161C131.475 60.5679 131.573 62.0227 132.036 63.3796Z" fill="#7F3E3B"/>
<path d="M125.226 57.8262C127.266 61.5262 132.39 69.9544 134.851 69.1115C137.312 68.2687 137.32 61.5262 134.16 57.2531C134.16 57.2531 159.2 59.7816 159.706 45.5548C160.22 30.9993 148.159 45.0828 137.548 49.1536C126.001 53.6206 120.43 49.1199 125.226 57.8262Z" fill="#263238"/>
<path d="M126.297 52.6684C126.249 52.6587 126.206 52.6329 126.175 52.5952C126.145 52.5576 126.128 52.5105 126.128 52.4619C126.128 52.4133 126.145 52.3662 126.175 52.3285C126.206 52.2909 126.249 52.2651 126.297 52.2554C126.676 52.1711 127.089 52.0953 127.536 52.011C130.893 51.4629 134.168 50.4886 137.279 49.1117C140.439 47.6958 143.751 45.2684 146.684 43.1277C148.548 41.7052 150.489 40.3883 152.5 39.1833C152.549 39.1585 152.607 39.1534 152.66 39.1691C152.713 39.1847 152.758 39.2199 152.786 39.2676C152.8 39.2919 152.808 39.3187 152.811 39.3462C152.814 39.3738 152.812 39.4018 152.804 39.4284C152.796 39.455 152.783 39.4798 152.766 39.5014C152.748 39.523 152.727 39.5409 152.702 39.5541C150.706 40.7509 148.778 42.0594 146.929 43.4732C143.987 45.6224 140.65 48.0582 137.447 49.4994C134.309 50.8892 131.007 51.872 127.62 52.424C127.173 52.5082 126.777 52.5841 126.381 52.6684H126.297Z" fill="#263238"/>
<path d="M130.991 70.5862C132.121 71.6847 133.629 72.309 135.205 72.3309C137.295 72.3309 137.734 70.3587 136.613 68.7067C135.618 67.2234 133.343 65.4366 131.505 66.2373C129.668 67.038 129.609 69.2293 130.991 70.5862Z" fill="#7F3E3B"/>
<path opacity="0.2" d="M147.586 206.347C146.381 195.298 143.684 177.987 141.366 163.81C142.58 161.434 145.985 156.621 145.985 156.621C149.036 167.165 155.669 206.912 146.204 260.591C136.343 276.487 126.903 289.517 126.903 289.517L125.58 269.019C134.725 251.876 149.263 221.661 147.586 206.347Z" fill="black"/>
<path d="M141.636 63.0516C141.762 63.5404 142.125 63.8944 142.479 63.8101C142.833 63.7258 142.959 63.2791 142.833 62.7903C142.706 62.3015 142.344 61.9475 141.99 62.0402C141.636 62.1329 141.509 62.5627 141.636 63.0516Z" fill="#263238"/>
<path d="M147.198 61.8285C147.325 62.3173 147.687 62.6713 148.041 62.587C148.395 62.5028 148.522 62.0645 148.395 61.5757C148.269 61.0868 147.915 60.7328 147.552 60.8171C147.19 60.9014 147.072 61.3397 147.198 61.8285Z" fill="#263238"/>
<path d="M145.496 62.4609C146.467 63.8281 147.615 65.0609 148.909 66.1272C148.627 66.44 148.281 66.6873 147.894 66.8518C147.506 67.0164 147.088 67.0941 146.667 67.0796L145.496 62.4609Z" fill="#630F0F"/>
<path d="M144.543 68.8585C143.517 68.8687 142.521 68.5098 141.737 67.8471C141.723 67.8338 141.712 67.8179 141.704 67.8004C141.696 67.7828 141.692 67.7639 141.692 67.7447C141.692 67.7256 141.695 67.7065 141.702 67.6886C141.709 67.6708 141.719 67.6545 141.733 67.6406C141.746 67.6268 141.762 67.6157 141.779 67.608C141.797 67.6003 141.816 67.5961 141.835 67.5957C141.854 67.5953 141.873 67.5987 141.891 67.6057C141.909 67.6127 141.925 67.6231 141.939 67.6364C142.433 68.0374 143.01 68.3215 143.629 68.4674C144.248 68.6134 144.892 68.6174 145.513 68.4792C145.531 68.4748 145.551 68.4741 145.57 68.4772C145.589 68.4803 145.607 68.4872 145.624 68.4973C145.64 68.5075 145.655 68.5208 145.666 68.5365C145.677 68.5522 145.685 68.57 145.69 68.5888C145.694 68.6076 145.695 68.6271 145.692 68.6462C145.688 68.6653 145.682 68.6835 145.671 68.7C145.661 68.7164 145.648 68.7307 145.632 68.742C145.617 68.7533 145.599 68.7613 145.58 68.7658C145.239 68.8353 144.891 68.8664 144.543 68.8585Z" fill="#263238"/>
<path d="M139.428 61.6452C139.389 61.6531 139.349 61.6531 139.31 61.6452C139.274 61.6305 139.241 61.6087 139.214 61.581C139.186 61.5533 139.165 61.5202 139.151 61.484C139.136 61.4477 139.13 61.4089 139.131 61.3699C139.132 61.331 139.142 61.2927 139.158 61.2575C139.338 60.8304 139.619 60.4537 139.978 60.16C140.336 59.8662 140.761 59.6644 141.215 59.5718C141.292 59.5642 141.37 59.5859 141.432 59.6327C141.495 59.6795 141.537 59.748 141.552 59.8247C141.558 59.8635 141.556 59.903 141.546 59.9411C141.537 59.9792 141.52 60.015 141.496 60.0464C141.473 60.0778 141.443 60.1041 141.409 60.124C141.375 60.1438 141.338 60.1566 141.299 60.1618C140.942 60.2422 140.611 60.4075 140.332 60.6438C140.053 60.8801 139.835 61.1802 139.698 61.5187C139.669 61.5625 139.628 61.5974 139.58 61.6197C139.533 61.642 139.48 61.6508 139.428 61.6452Z" fill="#263238"/>
<path d="M149.078 59.4117C149.034 59.412 148.991 59.4023 148.951 59.3834C148.912 59.3644 148.877 59.3366 148.85 59.3021C148.613 59.0072 148.313 58.7693 147.971 58.606C147.63 58.4426 147.256 58.3579 146.878 58.3582C146.8 58.363 146.723 58.3377 146.664 58.2874C146.604 58.2372 146.566 58.166 146.558 58.0885C146.553 58.0107 146.578 57.934 146.628 57.8744C146.679 57.8147 146.75 57.7767 146.827 57.7682C147.301 57.7586 147.771 57.8577 148.2 58.0578C148.63 58.258 149.008 58.5539 149.305 58.9229C149.355 58.9848 149.378 59.0634 149.37 59.1421C149.362 59.2209 149.324 59.2934 149.263 59.3443C149.211 59.3874 149.145 59.4112 149.078 59.4117Z" fill="#263238"/>
<path d="M126.372 119.412C124.694 118.846 123.083 118.097 121.568 117.178C121.239 116.968 120.933 116.722 120.658 116.445C121.046 114.633 121.552 112.812 122.099 110.983C122.647 109.154 123.321 107.283 124.021 105.438C124.721 103.592 125.462 101.755 126.238 99.9341C126.625 99.0238 127.021 98.1136 127.426 97.2118L128.64 94.5906L120.211 90.2754C119.655 91.3289 119.2 92.256 118.745 93.259C118.29 94.2619 117.902 95.2312 117.447 96.2257C116.615 98.226 115.857 100.252 115.171 102.302C113.743 106.489 112.74 110.809 112.179 115.197V115.425V115.863C112.158 116.166 112.158 116.471 112.179 116.774C112.213 117.385 112.321 117.991 112.5 118.577C112.832 119.611 113.371 120.565 114.084 121.384C115.133 122.526 116.392 123.456 117.793 124.123C119.95 125.14 122.231 125.871 124.577 126.297C128.851 127.109 133.201 127.449 137.548 127.309L137.936 122.631C134.023 121.782 130.162 120.707 126.372 119.412Z" fill="#7F3E3B"/>
<path d="M139.807 299.201C139.239 299.188 138.674 299.114 138.121 298.981C138.096 298.973 138.073 298.958 138.054 298.939C138.035 298.92 138.021 298.897 138.012 298.872C138.008 298.845 138.011 298.817 138.022 298.792C138.032 298.767 138.049 298.745 138.071 298.729C138.273 298.585 140.043 297.38 140.802 297.684C140.888 297.717 140.964 297.771 141.023 297.842C141.082 297.913 141.122 297.997 141.139 298.088C141.176 298.224 141.178 298.367 141.146 298.504C141.113 298.64 141.047 298.767 140.953 298.872C140.624 299.117 140.216 299.234 139.807 299.201ZM138.526 298.779C139.647 298.998 140.481 298.965 140.776 298.678C140.837 298.605 140.878 298.519 140.896 298.426C140.913 298.333 140.907 298.237 140.877 298.147C140.87 298.103 140.851 298.061 140.823 298.026C140.795 297.99 140.759 297.962 140.717 297.945C140.271 297.768 139.158 298.358 138.526 298.779Z" fill="#0C9CFF"/>
<path d="M138.172 298.982C138.15 298.99 138.126 298.99 138.104 298.982C138.083 298.972 138.065 298.956 138.052 298.937C138.039 298.918 138.031 298.896 138.029 298.872C138.029 298.796 137.885 297.001 138.517 296.394C138.596 296.317 138.692 296.258 138.797 296.223C138.903 296.188 139.014 296.177 139.124 296.192C139.248 296.197 139.366 296.242 139.461 296.322C139.555 296.401 139.621 296.51 139.647 296.63C139.79 297.313 138.863 298.611 138.239 298.982H138.172ZM139.015 296.453C138.957 296.452 138.899 296.463 138.846 296.485C138.792 296.507 138.744 296.539 138.703 296.58C138.356 297.185 138.211 297.885 138.29 298.577C138.804 298.139 139.47 297.145 139.369 296.673C139.369 296.58 139.301 296.479 139.082 296.453H139.015Z" fill="#0C9CFF"/>
<path d="M124.417 295.653C123.302 295.482 122.238 295.071 121.299 294.448C121.271 294.435 121.249 294.412 121.236 294.384C121.224 294.357 121.222 294.325 121.231 294.296C121.239 294.267 121.255 294.242 121.278 294.222C121.3 294.203 121.328 294.19 121.358 294.186C121.695 294.186 124.653 293.967 125.209 294.641C125.259 294.696 125.294 294.763 125.31 294.836C125.326 294.908 125.323 294.983 125.302 295.054C125.276 295.17 125.223 295.278 125.146 295.369C125.07 295.46 124.973 295.531 124.864 295.577C124.721 295.629 124.569 295.655 124.417 295.653ZM121.846 294.439C123.203 295.189 124.274 295.518 124.754 295.282C124.824 295.254 124.885 295.209 124.934 295.152C124.982 295.095 125.016 295.027 125.032 294.953C125.047 294.928 125.055 294.899 125.055 294.869C125.055 294.839 125.047 294.81 125.032 294.785C124.687 294.448 123.052 294.389 121.846 294.439Z" fill="#0C9CFF"/>
<path d="M121.366 294.472C121.343 294.471 121.319 294.465 121.299 294.453C121.278 294.441 121.261 294.425 121.248 294.405C121.238 294.384 121.232 294.361 121.232 294.337C121.232 294.314 121.238 294.291 121.248 294.27C121.299 294.169 122.42 291.885 123.861 292.584C124.257 292.778 124.291 293.006 124.257 293.166C124.114 293.848 122.243 294.464 121.383 294.489L121.366 294.472ZM123.313 292.727C122.538 292.727 121.872 293.713 121.627 294.169C122.529 294.059 123.912 293.494 123.996 293.09C123.996 293.006 123.928 292.913 123.743 292.82C123.609 292.755 123.462 292.723 123.313 292.727Z" fill="#0C9CFF"/>
<path d="M136.967 122.564L142.099 121.156L142.799 127.638C142.799 127.638 137.742 129.155 136.486 126.5L136.967 122.564Z" fill="#7F3E3B"/>
<path d="M136.866 122.698C137.94 121.532 138.57 120.025 138.644 118.441L139.959 119.158C139.959 119.158 140.22 122.066 139.706 122.9C139.192 123.734 136.866 122.698 136.866 122.698Z" fill="#7F3E3B"/>
<path d="M144.501 121.797L144.189 127.638H142.799L142.091 121.156L144.501 121.797Z" fill="#7F3E3B"/>
<path d="M118.079 281.215L127.409 289.997L130.418 286.769L119.739 277.043L118.079 281.215Z" fill="#0C9CFF"/>
<path opacity="0.1" d="M118.079 281.215L127.409 289.997L130.418 286.769L119.739 277.043L118.079 281.215Z" fill="black"/>
<path d="M147.417 139.909C147.417 139.909 148.007 187.654 146.996 205.547C145.892 225.135 140.329 290.04 140.329 290.04H128.884C128.884 290.04 129.229 226.719 128.538 207.326C127.788 186.255 125.85 139.9 125.85 139.9L147.417 139.909Z" fill="#0C9CFF"/>
<path opacity="0.5" d="M147.417 139.909C147.417 139.909 148.007 187.654 146.996 205.547C145.892 225.135 140.329 290.04 140.329 290.04H128.884C128.884 290.04 129.229 226.719 128.538 207.326C127.788 186.255 125.85 139.9 125.85 139.9L147.417 139.909Z" fill="black"/>
<path d="M128.429 290.038H140.793L141.476 285.689L127.831 286.372L128.429 290.038Z" fill="#0C9CFF"/>
<path opacity="0.1" d="M128.429 290.038H140.793L141.476 285.689L127.831 286.372L128.429 290.038Z" fill="black"/>
<path d="M122.04 85.5804C116.141 86.4232 110.098 108.092 110.098 108.092L124.316 113.503C124.316 113.503 127.89 104.232 130.334 96.9585C132.896 89.3815 128.353 84.6533 122.04 85.5804Z" fill="#0C9CFF"/>
<path opacity="0.5" d="M122.04 85.5804C116.141 86.4232 110.098 108.092 110.098 108.092L124.316 113.503C124.316 113.503 127.89 104.232 130.334 96.9585C132.896 89.3815 128.353 84.6533 122.04 85.5804Z" fill="white"/>
</svg>
