<svg width="74" height="74" viewBox="0 0 74 74" fill="none" xmlns="http://www.w3.org/2000/svg">
<path d="M57.0411 57.2398V63.2054C57.0411 63.5103 56.9506 63.8084 56.7812 64.0619C56.6118 64.3154 56.3711 64.513 56.0894 64.6297C55.8077 64.7464 55.4977 64.7769 55.1987 64.7174C54.8996 64.6579 54.6249 64.5111 54.4093 64.2955L47.3535 57.2397" stroke="#424242" stroke-width="3" stroke-linecap="round" stroke-linejoin="round"/>
<path d="M55.5 29.2917H57.0526C59.0941 29.2917 61.0519 30.1027 62.4955 31.5463C63.939 32.9898 64.75 34.9477 64.75 36.9892V49.5423C64.75 51.5838 63.939 53.5417 62.4955 54.9852C61.0519 56.4288 59.0941 57.2397 57.0526 57.2397" stroke="#424242" stroke-width="3" stroke-linecap="round" stroke-linejoin="round"/>
<path d="M47.3647 57.2397H38.5304C36.4889 57.2397 34.5311 56.4287 33.0875 54.9851C31.644 53.5416 30.833 51.5837 30.833 49.5422V46.25" stroke="#424242" stroke-width="3" stroke-linecap="round" stroke-linejoin="round"/>
<path d="M26.8437 37L19.5901 44.2538C19.3745 44.4694 19.0998 44.6162 18.8007 44.6757C18.5017 44.7352 18.1917 44.7046 17.91 44.5879C17.6283 44.4712 17.3875 44.2736 17.2181 44.0201C17.0487 43.7666 16.9583 43.4685 16.9583 43.1636V37H16.9474C15.9366 37 14.9356 36.8009 14.0017 36.4141C13.0678 36.0272 12.2193 35.4602 11.5045 34.7455C10.7897 34.0307 10.2227 33.1821 9.83591 32.2482C9.44909 31.3143 9.24999 30.3134 9.25 29.3025V16.9474C9.25 14.9059 10.061 12.9481 11.5045 11.5045C12.9481 10.061 14.9059 9.25 16.9474 9.25H38.5526C40.5941 9.25 42.5519 10.061 43.9955 11.5045C45.439 12.9481 46.25 14.9059 46.25 16.9474V29.3025C46.25 30.3134 46.0509 31.3143 45.6641 32.2482C45.2773 33.1821 44.7103 34.0307 43.9955 34.7455C43.2807 35.4602 42.4322 36.0272 41.4983 36.4141C40.5644 36.8009 39.5634 37 38.5526 37H26.8437Z" stroke="#424242" stroke-width="3" stroke-linecap="round" stroke-linejoin="round"/>
<path d="M21.584 18.5H30.834" stroke="#424242" stroke-width="3" stroke-linecap="round" stroke-linejoin="round"/>
<path d="M21.584 27.75H24.6673" stroke="#424242" stroke-width="3" stroke-linecap="round" stroke-linejoin="round"/>
<path d="M46.25 46.25H52.4167" stroke="#424242" stroke-width="3" stroke-linecap="round" stroke-linejoin="round"/>
</svg>
