<svg width="28" height="28" viewBox="0 0 28 28" fill="none" xmlns="http://www.w3.org/2000/svg">
<g clip-path="url(#clip0)">
<path d="M14.0008 0C11.2962 0 9.0957 2.20046 9.0957 4.90509V14.5453C9.0957 17.2496 11.2962 19.4501 14.0008 19.4501C16.7054 19.4501 18.9059 17.265 18.9059 14.579V4.90509C18.9059 2.20046 16.7054 0 14.0008 0ZM16.8618 14.5788C16.8618 16.1375 15.5783 17.406 14.0008 17.406C12.4233 17.406 11.1395 16.1228 11.1395 14.545V4.90509C11.1395 3.3273 12.423 2.04378 14.0008 2.04378C15.5786 2.04378 16.8621 3.3273 16.8618 4.90509V14.5788Z" fill="#0C9CFF"/>
<path d="M15.0223 22.3789H12.9785V26.9775H15.0223V22.3789Z" fill="#0C9CFF"/>
<path d="M16.691 25.957H11.309C10.7446 25.957 10.2871 26.4145 10.2871 26.9789C10.2871 27.5434 10.7446 28.0008 11.309 28.0008H16.691C17.2554 28.0008 17.7129 27.5434 17.7129 26.9789C17.7129 26.4145 17.2554 25.957 16.691 25.957Z" fill="#0C9CFF"/>
<path d="M21.7327 12.8418C21.1683 12.8418 20.7108 13.2993 20.7108 13.8637V14.6812C20.7108 18.3811 17.7004 21.3917 14.0004 21.3917C10.3001 21.3917 7.28988 18.3812 7.28988 14.6812V13.8637C7.28988 13.2993 6.83241 12.8418 6.26798 12.8418C5.70355 12.8418 5.24609 13.2993 5.24609 13.8637V14.6812C5.24609 19.5083 9.17326 23.4355 14.0004 23.4355C18.8275 23.4355 22.7546 19.5083 22.7546 14.6812V13.8637C22.7546 13.2993 22.2972 12.8418 21.7327 12.8418Z" fill="#0C9CFF"/>
</g>
<defs>
<clipPath id="clip0">
<rect width="28" height="28" fill="white"/>
</clipPath>
</defs>
</svg>
