<svg width="24" height="24" viewBox="0 0 24 24" fill="none" xmlns="http://www.w3.org/2000/svg">
<path d="M18.861 21H5.139C3.958 21 3 20.042 3 18.861V8.139C3 6.958 3.958 6 5.139 6H18.861C20.042 6 21 6.958 21 8.139V18.861C21 20.042 20.042 21 18.861 21Z" stroke="white" stroke-width="1.4852" stroke-linecap="round" stroke-linejoin="round"/>
<path d="M6.6001 3H17.4001" stroke="white" stroke-width="1.5" stroke-linecap="round" stroke-linejoin="round"/>
<path d="M12.4142 14.5858C13.1953 15.3668 13.1953 16.6332 12.4142 17.4142C11.6332 18.1953 10.3668 18.1953 9.58579 17.4142C8.80474 16.6332 8.80474 15.3668 9.58579 14.5858C10.3668 13.8047 11.6332 13.8047 12.4142 14.5858" stroke="white" stroke-width="1.5" stroke-linecap="round" stroke-linejoin="round"/>
<path d="M16 10L13 9V16" stroke="white" stroke-width="1.5" stroke-linecap="round" stroke-linejoin="round"/>
</svg>
