<svg width="20" height="20" viewBox="0 0 20 20" fill="none" xmlns="http://www.w3.org/2000/svg">
<path d="M16.965 14.6098L15.792 13.4368C15.206 12.8508 14.256 12.8508 13.671 13.4368L12.749 14.3588C12.543 14.5648 12.231 14.6338 11.965 14.5168C10.629 13.9318 9.30902 13.0448 8.13202 11.8678C6.96002 10.6958 6.07602 9.38185 5.49002 8.05085C5.36802 7.77585 5.43902 7.45285 5.65202 7.23985L6.47802 6.41385C7.14902 5.74285 7.14902 4.79385 6.56302 4.20785L5.39002 3.03485C4.60902 2.25385 3.34302 2.25385 2.56202 3.03485L1.91002 3.68585C1.16902 4.42685 0.860025 5.49585 1.06002 6.55585C1.55402 9.16885 3.07202 12.0298 5.52102 14.4788C7.97002 16.9278 10.831 18.4458 13.444 18.9398C14.504 19.1398 15.573 18.8308 16.314 18.0898L16.965 17.4388C17.746 16.6578 17.746 15.3918 16.965 14.6098V14.6098Z" stroke="#424242" stroke-width="1.5" stroke-linecap="round" stroke-linejoin="round"/>
<path d="M11 4.99085C12.031 4.97685 13.067 5.35885 13.854 6.14585" stroke="#424242" stroke-width="1.5" stroke-linecap="round" stroke-linejoin="round"/>
<path d="M16.682 3.31787C15.113 1.74887 13.056 0.963867 11 0.963867" stroke="#424242" stroke-width="1.5" stroke-linecap="round" stroke-linejoin="round"/>
<path d="M15.009 8.99987C15.023 7.96887 14.641 6.93287 13.854 6.14587" stroke="#424242" stroke-width="1.5" stroke-linecap="round" stroke-linejoin="round"/>
<path d="M16.6821 3.31787C18.2511 4.88687 19.0361 6.94387 19.0361 8.99987" stroke="#424242" stroke-width="1.5" stroke-linecap="round" stroke-linejoin="round"/>
</svg>
