<svg width="24" height="24" viewBox="0 0 24 24" fill="none" xmlns="http://www.w3.org/2000/svg">
<path d="M21 16.0003L16.707 11.7073C16.316 11.3163 15.683 11.3163 15.293 11.7073L11 16.0003" stroke="white" stroke-width="1.5" stroke-linecap="round" stroke-linejoin="round"/>
<path d="M18 21H6C4.343 21 3 19.657 3 18V6C3 4.343 4.343 3 6 3H18C19.657 3 21 4.343 21 6V18C21 19.657 19.657 21 18 21Z" stroke="white" stroke-width="1.5" stroke-linecap="round" stroke-linejoin="round"/>
<path d="M15.9993 21.0003L9.70631 14.7073C9.31531 14.3163 8.68231 14.3163 8.29231 14.7073L3.44531 19.5543" stroke="white" stroke-width="1.5" stroke-linecap="round" stroke-linejoin="round"/>
<path d="M9.26516 8.73484C9.41161 8.88128 9.41161 9.11872 9.26516 9.26516C9.11872 9.41161 8.88128 9.41161 8.73484 9.26516C8.58839 9.11872 8.58839 8.88128 8.73484 8.73484C8.88128 8.58839 9.11872 8.58839 9.26516 8.73484Z" stroke="white" stroke-width="1.5" stroke-linecap="round" stroke-linejoin="round"/>
</svg>
