<svg width="17" height="20" viewBox="0 0 17 20" fill="none" xmlns="http://www.w3.org/2000/svg">
<path d="M2.12561 19.1747C1.81501 19.1742 1.5099 19.0927 1.24031 18.9385C0.633249 18.5945 0.255859 17.9267 0.255859 17.2018V2.53114C0.255859 1.80419 0.633249 1.13844 1.24031 0.794443C1.51632 0.635816 1.82988 0.554242 2.1482 0.558246C2.46652 0.562251 2.77793 0.651687 3.04986 0.817208L15.5882 8.32251C15.8495 8.48636 16.0649 8.71389 16.2143 8.98377C16.3636 9.25365 16.4419 9.55703 16.4419 9.86546C16.4419 10.1739 16.3636 10.4773 16.2143 10.7471C16.0649 11.017 15.8495 11.2446 15.5882 11.4084L3.04784 18.9157C2.76955 19.084 2.4508 19.1735 2.12561 19.1747Z" fill="white"/>
</svg>
