<svg width="14" height="16" viewBox="0 0 14 16" fill="none" xmlns="http://www.w3.org/2000/svg">
<path d="M1.60695 16C1.34 15.9995 1.07778 15.9295 0.846083 15.797C0.324346 15.5013 0 14.9274 0 14.3044V1.69572C0 1.07094 0.324346 0.49877 0.846083 0.203119C1.0833 0.0667878 1.35278 -0.00332087 1.62636 0.000120885C1.89995 0.00356264 2.16758 0.0804287 2.40129 0.222685L13.1773 6.67309C13.4019 6.81391 13.587 7.00946 13.7154 7.24141C13.8437 7.47335 13.911 7.73409 13.911 7.99917C13.911 8.26425 13.8437 8.52499 13.7154 8.75693C13.587 8.98888 13.4019 9.18443 13.1773 9.32525L2.39955 15.7774C2.16038 15.922 1.88643 15.9989 1.60695 16Z" fill="white"/>
</svg>
