<svg width="364" height="332" viewBox="0 0 364 332" fill="none" xmlns="http://www.w3.org/2000/svg">
<path d="M170.694 245.16H5.48559C4.19057 245.157 2.94924 244.642 2.03352 243.726C1.11781 242.81 0.60236 241.569 0.600098 240.274V8.03802C0.613603 6.75044 1.13401 5.52005 2.04852 4.61355C2.96302 3.70706 4.19794 3.19749 5.48559 3.19531H170.694C171.988 3.19758 173.228 3.7133 174.143 4.62926C175.057 5.54522 175.571 6.78657 175.571 8.0808V240.274C175.571 241.568 175.057 242.81 174.143 243.726C173.228 244.642 171.988 245.157 170.694 245.16ZM5.48559 3.36643C4.2473 3.3687 3.06038 3.8616 2.18477 4.73721C1.30917 5.61281 0.81626 6.79973 0.813998 8.03802V240.274C0.81626 241.512 1.30917 242.699 2.18477 243.575C3.06038 244.451 4.2473 244.943 5.48559 244.946H170.694C171.931 244.943 173.117 244.45 173.992 243.574C174.866 242.699 175.357 241.512 175.357 240.274V8.03802C175.357 6.80052 174.866 5.61358 173.992 4.73773C173.117 3.86189 171.931 3.3687 170.694 3.36643H5.48559Z" fill="#E6E6E6"/>
<path d="M355.76 245.16H190.543C189.249 245.157 188.009 244.642 187.094 243.726C186.18 242.81 185.667 241.568 185.667 240.274V8.03802C185.678 6.75122 186.196 5.52082 187.109 4.61409C188.023 3.70736 189.257 3.19752 190.543 3.19531H355.76C357.047 3.19752 358.281 3.70736 359.194 4.61409C360.107 5.52082 360.626 6.75122 360.637 8.03802V240.274C360.637 241.568 360.124 242.81 359.209 243.726C358.295 244.642 357.054 245.157 355.76 245.16ZM190.543 3.36643C189.306 3.3687 188.12 3.86189 187.246 4.73773C186.371 5.61358 185.88 6.80052 185.88 8.03802V240.274C185.88 241.512 186.371 242.699 187.246 243.574C188.12 244.45 189.306 244.943 190.543 244.946H355.76C356.999 244.943 358.187 244.451 359.064 243.575C359.941 242.7 360.436 241.513 360.44 240.274V8.03802C360.436 6.79895 359.941 5.61204 359.064 4.73668C358.187 3.86132 356.999 3.36869 355.76 3.36643H190.543Z" fill="#E6E6E6"/>
<path d="M144.47 121.894L143.298 222.461C139.157 255.924 79.8379 282.49 79.8379 282.49C79.8379 282.49 20.5104 255.949 16.3436 222.461L15.1372 121.894L78.5373 101.025L144.47 121.894Z" fill="#F5F5F5"/>
<path d="M136.196 128.259L135.178 218.559C131.567 247.744 79.8288 270.914 79.8288 270.914C79.8288 270.914 28.0906 247.744 24.4885 218.559L23.4019 128.259L78.6994 110.061L136.196 128.259Z" fill="#E0E0E0"/>
<path d="M132.568 133.957L131.61 216.857C128.188 244.236 79.7178 265.934 79.7178 265.934C79.7178 265.934 31.2137 244.21 27.8341 216.857L26.8159 133.957L78.6569 116.896L132.568 133.957Z" stroke="white" stroke-width="3" stroke-linecap="round" stroke-linejoin="round"/>
<path d="M343.457 87.9531H229.336V288.198H343.457V87.9531Z" fill="#F5F5F5"/>
<path d="M335.184 95.8223H237.773V288.196H335.184V95.8223Z" fill="#E0E0E0"/>
<path d="M240.511 289.052C240.34 289.052 240.171 289.017 240.015 288.949C239.86 288.887 239.72 288.794 239.604 288.675C239.48 288.558 239.383 288.415 239.322 288.256C239.26 288.101 239.228 287.935 239.228 287.768C239.228 287.579 239.27 287.392 239.351 287.221C239.432 287.049 239.55 286.898 239.696 286.778C239.843 286.658 240.014 286.571 240.198 286.525C240.381 286.479 240.573 286.474 240.759 286.511L240.999 286.579L241.221 286.699C241.29 286.748 241.356 286.803 241.418 286.861C241.479 286.919 241.53 286.985 241.572 287.058C241.622 287.126 241.662 287.201 241.692 287.281C241.726 287.357 241.752 287.438 241.769 287.52C241.778 287.603 241.778 287.686 241.769 287.768C241.769 287.936 241.734 288.102 241.666 288.256C241.605 288.413 241.511 288.556 241.392 288.675C241.157 288.908 240.842 289.043 240.511 289.052Z" fill="white"/>
<path d="M239.21 256.248C239.212 256.079 239.246 255.912 239.312 255.756C239.378 255.6 239.475 255.459 239.595 255.34C239.716 255.222 239.859 255.128 240.017 255.065C240.174 255.002 240.342 254.971 240.511 254.973C240.851 254.973 241.178 255.109 241.418 255.349C241.659 255.59 241.794 255.916 241.794 256.257C241.794 256.597 241.659 256.924 241.418 257.164C241.178 257.405 240.851 257.54 240.511 257.54C240.34 257.542 240.171 257.511 240.013 257.447C239.854 257.383 239.71 257.288 239.589 257.167C239.468 257.047 239.372 256.904 239.307 256.746C239.242 256.588 239.209 256.419 239.21 256.248ZM239.21 224.736C239.21 224.396 239.346 224.07 239.586 223.829C239.827 223.588 240.154 223.453 240.494 223.453C240.834 223.453 241.161 223.588 241.401 223.829C241.642 224.07 241.777 224.396 241.777 224.736C241.777 225.077 241.642 225.403 241.401 225.644C241.161 225.885 240.834 226.02 240.494 226.02C240.154 226.02 239.827 225.885 239.586 225.644C239.346 225.403 239.21 225.077 239.21 224.736ZM239.21 193.216C239.21 192.876 239.346 192.549 239.586 192.309C239.827 192.068 240.154 191.933 240.494 191.933C240.834 191.933 241.161 192.068 241.401 192.309C241.642 192.549 241.777 192.876 241.777 193.216C241.777 193.556 241.642 193.883 241.401 194.123C241.161 194.364 240.834 194.499 240.494 194.499C240.325 194.499 240.158 194.466 240.003 194.402C239.847 194.337 239.706 194.243 239.586 194.123C239.467 194.004 239.373 193.863 239.308 193.707C239.244 193.551 239.21 193.385 239.21 193.216ZM239.21 161.696C239.21 161.355 239.346 161.029 239.586 160.788C239.827 160.547 240.154 160.412 240.494 160.412C240.834 160.412 241.161 160.547 241.401 160.788C241.642 161.029 241.777 161.355 241.777 161.696C241.777 162.036 241.642 162.362 241.401 162.603C241.161 162.844 240.834 162.979 240.494 162.979C240.156 162.979 239.833 162.846 239.592 162.609C239.352 162.372 239.215 162.05 239.21 161.713V161.696ZM239.21 130.184C239.21 129.843 239.346 129.517 239.586 129.276C239.827 129.036 240.154 128.9 240.494 128.9C240.834 128.9 241.161 129.036 241.401 129.276C241.642 129.517 241.777 129.843 241.777 130.184C241.777 130.524 241.642 130.851 241.401 131.091C241.161 131.332 240.834 131.467 240.494 131.467C240.325 131.467 240.158 131.434 240.003 131.37C239.847 131.305 239.706 131.21 239.586 131.091C239.467 130.972 239.373 130.831 239.308 130.675C239.244 130.519 239.21 130.352 239.21 130.184Z" fill="white"/>
<path d="M240.511 99.9476C240.342 99.9484 240.175 99.9155 240.019 99.8508C239.864 99.7862 239.723 99.6911 239.604 99.5711C239.541 99.5135 239.486 99.4473 239.441 99.3743C239.396 99.306 239.356 99.2345 239.322 99.1604C239.286 99.0816 239.263 98.998 239.253 98.9123C239.244 98.8298 239.244 98.7467 239.253 98.6642C239.255 98.3243 239.39 97.9987 239.63 97.7572C239.686 97.6965 239.75 97.642 239.818 97.5947C239.888 97.5491 239.962 97.5118 240.04 97.4834C240.118 97.4501 240.198 97.4243 240.28 97.4064C240.446 97.3723 240.618 97.3723 240.785 97.4064C240.867 97.4243 240.947 97.4501 241.024 97.4834C241.103 97.5118 241.177 97.5491 241.247 97.5947C241.316 97.6442 241.382 97.6985 241.444 97.7572C241.683 97.9987 241.818 98.3243 241.82 98.6642C241.829 98.7467 241.829 98.8298 241.82 98.9123C241.802 98.9973 241.776 99.0803 241.743 99.1604C241.712 99.2362 241.671 99.3079 241.623 99.3743C241.582 99.4471 241.53 99.5134 241.469 99.5711C241.344 99.6958 241.194 99.7935 241.029 99.8582C240.864 99.923 240.688 99.9534 240.511 99.9476Z" fill="white"/>
<path d="M300.3 98.6643C300.3 98.3239 300.436 97.9974 300.676 97.7568C300.917 97.5161 301.243 97.3809 301.584 97.3809C301.924 97.3809 302.251 97.5161 302.491 97.7568C302.732 97.9974 302.867 98.3239 302.867 98.6643C302.867 99.0046 302.732 99.3311 302.491 99.5718C302.251 99.8125 301.924 99.9477 301.584 99.9477C301.243 99.9477 300.917 99.8125 300.676 99.5718C300.436 99.3311 300.3 99.0046 300.3 98.6643ZM269.755 98.6643C269.755 98.3239 269.891 97.9974 270.131 97.7568C270.372 97.5161 270.698 97.3809 271.039 97.3809C271.379 97.3809 271.706 97.5161 271.946 97.7568C272.187 97.9974 272.322 98.3239 272.322 98.6643C272.322 99.0046 272.187 99.3311 271.946 99.5718C271.706 99.8125 271.379 99.9477 271.039 99.9477C270.698 99.9477 270.372 99.8125 270.131 99.5718C269.891 99.3311 269.755 99.0046 269.755 98.6643Z" fill="white"/>
<path d="M332.129 99.9493C332.046 99.9577 331.963 99.9577 331.881 99.9493L331.641 99.8808L331.418 99.761C331.349 99.7116 331.283 99.6572 331.222 99.5985C330.981 99.358 330.846 99.0318 330.845 98.6915C330.847 98.3516 330.982 98.0261 331.222 97.7846C331.281 97.726 331.347 97.6744 331.418 97.6306C331.486 97.5792 331.561 97.5388 331.641 97.5108C331.718 97.4762 331.798 97.4504 331.881 97.4338C332.047 97.3997 332.219 97.3997 332.385 97.4338L332.625 97.5108C332.702 97.5389 332.774 97.5794 332.839 97.6306C332.912 97.672 332.978 97.7239 333.036 97.7846C333.275 98.0261 333.41 98.3516 333.412 98.6915C333.412 99.0318 333.276 99.358 333.036 99.5985C332.976 99.6593 332.91 99.7138 332.839 99.761C332.77 99.806 332.699 99.846 332.625 99.8808L332.385 99.9493C332.3 99.9577 332.214 99.9577 332.129 99.9493Z" fill="white"/>
<path d="M330.845 256.248C330.845 255.908 330.98 255.581 331.221 255.341C331.462 255.1 331.788 254.965 332.129 254.965C332.469 254.965 332.795 255.1 333.036 255.341C333.277 255.581 333.412 255.908 333.412 256.248C333.412 256.589 333.277 256.915 333.036 257.156C332.795 257.396 332.469 257.532 332.129 257.532C331.788 257.532 331.462 257.396 331.221 257.156C330.98 256.915 330.845 256.589 330.845 256.248ZM330.845 224.736C330.845 224.396 330.98 224.07 331.221 223.829C331.462 223.588 331.788 223.453 332.129 223.453C332.469 223.453 332.795 223.588 333.036 223.829C333.277 224.07 333.412 224.396 333.412 224.736C333.412 225.077 333.277 225.403 333.036 225.644C332.795 225.885 332.469 226.02 332.129 226.02C331.788 226.02 331.462 225.885 331.221 225.644C330.98 225.403 330.845 225.077 330.845 224.736ZM330.845 193.216C330.845 192.876 330.98 192.549 331.221 192.309C331.462 192.068 331.788 191.933 332.129 191.933C332.469 191.933 332.795 192.068 333.036 192.309C333.277 192.549 333.412 192.876 333.412 193.216C333.412 193.556 333.277 193.883 333.036 194.123C332.795 194.364 332.469 194.499 332.129 194.499C331.96 194.499 331.793 194.466 331.637 194.402C331.482 194.337 331.34 194.243 331.221 194.123C331.102 194.004 331.007 193.863 330.943 193.707C330.878 193.551 330.845 193.385 330.845 193.216ZM330.845 161.696C330.845 161.355 330.98 161.029 331.221 160.788C331.462 160.547 331.788 160.412 332.129 160.412C332.469 160.412 332.795 160.547 333.036 160.788C333.277 161.029 333.412 161.355 333.412 161.696C333.412 162.036 333.277 162.362 333.036 162.603C332.795 162.844 332.469 162.979 332.129 162.979C331.791 162.979 331.467 162.846 331.227 162.609C330.987 162.372 330.85 162.05 330.845 161.713V161.696ZM330.845 130.184C330.845 129.843 330.98 129.517 331.221 129.276C331.462 129.036 331.788 128.9 332.129 128.9C332.469 128.9 332.795 129.036 333.036 129.276C333.277 129.517 333.412 129.843 333.412 130.184C333.412 130.524 333.277 130.851 333.036 131.091C332.795 131.332 332.469 131.467 332.129 131.467C331.96 131.467 331.793 131.434 331.637 131.37C331.482 131.305 331.34 131.21 331.221 131.091C331.102 130.972 331.007 130.831 330.943 130.675C330.878 130.519 330.845 130.352 330.845 130.184Z" fill="white"/>
<path d="M332.129 289.053C331.875 289.053 331.627 288.977 331.417 288.836C331.206 288.695 331.041 288.495 330.944 288.261C330.847 288.026 330.822 287.768 330.871 287.52C330.921 287.271 331.043 287.042 331.222 286.863C331.284 286.804 331.349 286.75 331.419 286.7L331.641 286.58L331.881 286.512C332.047 286.478 332.219 286.478 332.386 286.512L332.625 286.58C332.699 286.615 332.771 286.655 332.839 286.7C332.91 286.747 332.976 286.802 333.036 286.863C333.277 287.103 333.412 287.429 333.412 287.77C333.414 287.938 333.382 288.106 333.317 288.262C333.252 288.418 333.157 288.559 333.036 288.677C332.795 288.917 332.469 289.053 332.129 289.053Z" fill="white"/>
<path d="M48.0006 288.521H12.7412V288.735H48.0006V288.521Z" fill="#E0E0E0"/>
<path d="M119.871 286.811H84.5088V287.024H119.871V286.811Z" fill="#E0E0E0"/>
<path d="M165.886 286.811H157.33V287.024H165.886V286.811Z" fill="#E0E0E0"/>
<path d="M80.368 294.119H40.7964V294.333H80.368V294.119Z" fill="#E0E0E0"/>
<path d="M217.239 288.41H198.758V288.624H217.239V288.41Z" fill="#E0E0E0"/>
<path d="M248.75 288.41H224.854V288.624H248.75V288.41Z" fill="#E0E0E0"/>
<path d="M364 292.029H310.576V292.243H364V292.029Z" fill="#E0E0E0"/>
<path d="M166.424 27.9413H127.006L129.162 3.37695H168.572L166.424 27.9413Z" fill="#EBEBEB"/>
<path d="M167.22 0.0390625L166.142 12.8645L165.064 28.2825H127.161L129.317 0.0390625H167.22Z" fill="#FAFAFA"/>
<path d="M163.601 3.37544L165.748 27.9398H126.339L124.183 3.37544H127.537L128.701 1.52734H139.319L140.842 3.37544H163.601Z" fill="#E0E0E0"/>
<path d="M227.514 33.4238H185.573V75.3655H227.514V33.4238Z" fill="#EBEBEB"/>
<path d="M228.584 33.4238H227.514V75.3655H228.584V33.4238Z" fill="#E0E0E0"/>
<path d="M223.63 37.3086H189.44V71.4985H223.63V37.3086Z" fill="#F5F5F5"/>
<path d="M189.765 37.3086H189.449V71.4985H189.765V37.3086Z" fill="#E0E0E0"/>
<path d="M206.86 59.3423C210.541 59.3423 213.525 55.5423 213.525 50.8548C213.525 46.1672 210.541 42.3672 206.86 42.3672C203.179 42.3672 200.195 46.1672 200.195 50.8548C200.195 55.5423 203.179 59.3423 206.86 59.3423Z" fill="#E0E0E0"/>
<path d="M203.378 63.6367H210.402V56.6122H203.378V63.6367Z" fill="#E0E0E0"/>
<path d="M219.523 71.498H193.787V69.1024C193.787 66.9149 194.656 64.8169 196.203 63.2701C197.749 61.7233 199.847 60.8544 202.035 60.8544H211.31C213.497 60.8544 215.595 61.7233 217.142 63.2701C218.689 64.8169 219.558 66.9149 219.558 69.1024V71.498H219.523Z" fill="#E0E0E0"/>
<path d="M193.145 57.2279C193.145 58.6226 195.712 59.7947 195.712 59.7947C195.712 59.7947 198.278 58.6568 198.278 57.2279C198.278 56.5606 197.354 56.1841 196.747 56.3723C196.514 56.4535 196.3 56.5799 196.116 56.7444C195.933 56.9089 195.783 57.1081 195.677 57.3306C195.35 56.8893 194.918 56.5364 194.42 56.3039C194.274 56.2527 194.117 56.2377 193.964 56.2601C193.811 56.2825 193.666 56.3416 193.54 56.4324C193.415 56.5232 193.314 56.643 193.245 56.7815C193.176 56.9201 193.142 57.0732 193.145 57.2279Z" fill="#E0E0E0"/>
<path d="M215.921 50.989C215.921 52.8285 219.249 54.3173 219.249 54.3173C219.249 54.3173 222.578 52.8285 222.578 50.989C222.578 50.1334 221.345 49.6286 220.567 49.8511C219.98 50.0856 219.507 50.5399 219.249 51.1173C218.815 50.5408 218.249 50.0772 217.598 49.7655C217.405 49.6972 217.199 49.677 216.996 49.7066C216.794 49.7361 216.602 49.8145 216.437 49.935C216.272 50.0556 216.138 50.2145 216.048 50.3982C215.959 50.5818 215.915 50.7846 215.921 50.989Z" fill="#E0E0E0"/>
<path d="M142.724 260.38C143.117 262.853 144.906 264.984 145.043 267.482C145.154 269.441 144.238 271.281 143.785 273.189C143.331 275.097 143.554 277.467 145.222 278.476C145.829 278.785 146.508 278.926 147.187 278.885C147.867 278.845 148.524 278.624 149.09 278.245C150.207 277.472 151.13 276.45 151.785 275.259C154.409 271.017 155.843 266.146 155.934 261.159C155.934 259.063 155.72 256.838 154.488 255.17C150.672 249.839 141.748 254.22 142.724 260.38Z" fill="#F5F5F5"/>
<path d="M139.55 253.837C139.918 254.239 140.398 254.522 140.927 254.65C141.248 254.754 141.59 254.775 141.921 254.711C142.251 254.646 142.56 254.499 142.818 254.282C143.015 254.029 143.155 253.737 143.229 253.426C143.302 253.115 143.308 252.791 143.246 252.477C143.194 251.689 142.924 250.931 142.468 250.286C142.238 249.969 141.934 249.713 141.581 249.541C141.229 249.369 140.84 249.288 140.448 249.303C140.057 249.335 139.69 249.5 139.406 249.771C139.123 250.042 138.941 250.402 138.891 250.791C138.796 251.85 139.026 252.913 139.55 253.837Z" fill="#F5F5F5"/>
<path d="M146.66 248.695C146.485 248.424 146.235 248.211 145.939 248.081C145.644 247.952 145.318 247.912 145 247.967C144.686 248.038 144.401 248.201 144.181 248.436C143.961 248.671 143.817 248.967 143.768 249.285C143.754 249.493 143.754 249.702 143.768 249.91C143.771 250.246 143.809 250.582 143.879 250.911C143.951 251.228 144.101 251.522 144.316 251.766C144.609 252.052 144.982 252.243 145.385 252.314C145.635 252.374 145.895 252.372 146.144 252.309C146.393 252.247 146.622 252.125 146.814 251.955C146.984 251.747 147.111 251.508 147.188 251.251C147.264 250.994 147.288 250.724 147.259 250.457C147.239 249.823 147.031 249.209 146.66 248.695Z" fill="#F5F5F5"/>
<path d="M150.621 248.482C150.481 248.223 150.252 248.024 149.978 247.921C149.703 247.817 149.4 247.816 149.124 247.917C148.855 248.029 148.617 248.205 148.432 248.431C148.247 248.656 148.12 248.923 148.063 249.209C148.063 249.397 148.012 249.585 148.003 249.774C147.998 250.085 148.032 250.395 148.106 250.698C148.167 250.995 148.323 251.266 148.551 251.468C148.793 251.671 149.091 251.796 149.406 251.827C149.611 251.852 149.819 251.832 150.016 251.769C150.212 251.705 150.393 251.599 150.544 251.459C150.877 251.081 151.059 250.594 151.057 250.09C151.095 249.52 150.941 248.954 150.621 248.482Z" fill="#F5F5F5"/>
<path d="M154.155 249.302C153.736 248.678 153.299 248.635 152.82 248.9C152.394 249.212 152.091 249.663 151.965 250.175C151.916 250.34 151.882 250.509 151.862 250.68C151.816 250.963 151.816 251.252 151.862 251.535C151.918 251.81 152.077 252.052 152.307 252.211C152.519 252.344 152.768 252.404 153.017 252.382C153.341 252.354 153.644 252.211 153.873 251.98C154.187 251.643 154.388 251.215 154.446 250.757C154.533 250.253 154.429 249.734 154.155 249.302Z" fill="#F5F5F5"/>
<path d="M154.848 252.767C154.801 252.97 154.801 253.181 154.848 253.383C154.865 253.487 154.908 253.585 154.972 253.669C155.036 253.752 155.12 253.819 155.216 253.862C155.391 253.902 155.574 253.889 155.741 253.825C155.909 253.761 156.053 253.649 156.157 253.503C156.41 253.244 156.595 252.927 156.696 252.579C156.746 252.405 156.76 252.223 156.738 252.044C156.716 251.865 156.658 251.692 156.568 251.535C155.806 250.295 154.951 252.151 154.848 252.767Z" fill="#F5F5F5"/>
<path d="M155.541 317.528C156.114 315.508 156.448 313.292 155.686 311.333C153.334 305.233 143.614 307.175 142.972 313.386L155.541 317.528Z" fill="#F5F5F5"/>
<path d="M141.621 306.251C141.875 306.735 142.268 307.131 142.75 307.389C143.032 307.572 143.356 307.679 143.692 307.702C144.027 307.724 144.363 307.661 144.667 307.517C144.917 307.321 145.122 307.074 145.27 306.792C145.417 306.51 145.503 306.2 145.522 305.883C145.673 305.11 145.608 304.311 145.334 303.573C145.192 303.205 144.962 302.877 144.664 302.619C144.365 302.361 144.008 302.18 143.623 302.093C143.238 302.024 142.842 302.09 142.499 302.278C142.157 302.467 141.889 302.766 141.741 303.128C141.386 304.133 141.345 305.222 141.621 306.251Z" fill="#F5F5F5"/>
<path d="M149.817 303.093C149.715 302.787 149.527 302.518 149.275 302.317C149.023 302.117 148.718 301.994 148.397 301.964C148.075 301.953 147.757 302.038 147.485 302.209C147.212 302.38 146.996 302.628 146.865 302.922C146.79 303.118 146.727 303.318 146.677 303.521C146.59 303.845 146.539 304.178 146.523 304.513C146.501 304.848 146.569 305.181 146.72 305.48C146.923 305.822 147.22 306.098 147.575 306.276C147.801 306.396 148.052 306.459 148.307 306.459C148.562 306.459 148.813 306.396 149.038 306.276C149.263 306.124 149.454 305.928 149.601 305.7C149.748 305.472 149.848 305.217 149.894 304.95C150.048 304.336 150.021 303.692 149.817 303.093Z" fill="#F5F5F5"/>
<path d="M153.667 303.906C153.597 303.625 153.43 303.377 153.195 303.206C152.961 303.035 152.673 302.953 152.384 302.974C152.094 303.015 151.819 303.127 151.582 303.298C151.345 303.469 151.153 303.696 151.023 303.958C150.946 304.128 150.877 304.302 150.818 304.48C150.722 304.77 150.664 305.072 150.647 305.378C150.63 305.679 150.708 305.979 150.869 306.234C151.059 306.501 151.328 306.702 151.639 306.807C151.832 306.885 152.039 306.919 152.246 306.907C152.453 306.895 152.655 306.838 152.837 306.738C153.257 306.463 153.562 306.043 153.693 305.558C153.866 305.019 153.857 304.439 153.667 303.906Z" fill="#F5F5F5"/>
<path d="M156.867 305.608C156.628 304.89 156.174 304.753 155.686 304.872C155.188 305.058 154.77 305.412 154.506 305.874C154.42 306.023 154.343 306.177 154.275 306.336C154.17 306.592 154.106 306.863 154.086 307.14C154.07 307.416 154.159 307.688 154.335 307.901C154.504 308.086 154.73 308.209 154.976 308.252C155.297 308.314 155.629 308.257 155.909 308.09C156.295 307.842 156.594 307.48 156.764 307.054C156.973 306.601 157.01 306.087 156.867 305.608Z" fill="#F5F5F5"/>
<path d="M156.662 309.135C156.557 309.315 156.496 309.518 156.482 309.726C156.474 309.83 156.49 309.935 156.53 310.032C156.571 310.128 156.633 310.214 156.713 310.282C156.872 310.365 157.051 310.4 157.229 310.382C157.407 310.364 157.576 310.293 157.714 310.179C158.024 309.992 158.285 309.734 158.476 309.426C158.568 309.271 158.629 309.098 158.654 308.919C158.679 308.74 158.668 308.557 158.621 308.382C158.176 306.988 156.936 308.579 156.662 309.135Z" fill="#F5F5F5"/>
<path d="M121.813 281.207C122.13 283.697 120.958 286.238 121.557 288.677C121.993 290.585 123.388 292.099 124.346 293.81C125.304 295.522 125.758 297.849 124.423 299.286C123.927 299.752 123.316 300.077 122.653 300.228C121.989 300.378 121.298 300.348 120.65 300.142C119.362 299.7 118.192 298.972 117.227 298.011C113.532 294.662 110.807 290.38 109.339 285.614C108.723 283.603 108.346 281.404 109.065 279.428C111.315 273.276 121.052 275.021 121.813 281.207Z" fill="#F5F5F5"/>
<path d="M123.019 274.054C122.779 274.54 122.397 274.943 121.924 275.209C121.646 275.4 121.324 275.516 120.988 275.546C120.653 275.576 120.315 275.519 120.008 275.38C119.747 275.193 119.53 274.951 119.372 274.672C119.214 274.393 119.119 274.083 119.092 273.763C118.927 272.992 118.974 272.19 119.229 271.444C119.367 271.071 119.596 270.738 119.895 270.476C120.194 270.213 120.553 270.028 120.94 269.938C121.324 269.861 121.722 269.917 122.07 270.097C122.417 270.278 122.692 270.572 122.848 270.931C123.088 271.727 123.387 273.275 123.019 274.054Z" fill="#F5F5F5"/>
<path d="M114.797 271.068C114.891 270.76 115.074 270.485 115.321 270.279C115.569 270.072 115.871 269.942 116.192 269.904C116.513 269.888 116.833 269.968 117.109 270.134C117.385 270.3 117.605 270.545 117.74 270.837C117.823 271.029 117.892 271.226 117.946 271.427C118.038 271.748 118.095 272.078 118.117 272.411C118.148 272.747 118.086 273.084 117.937 273.387C117.747 273.753 117.448 274.052 117.082 274.242C116.861 274.372 116.613 274.445 116.358 274.455C116.102 274.465 115.849 274.413 115.619 274.302C115.395 274.151 115.204 273.956 115.057 273.73C114.91 273.504 114.81 273.25 114.763 272.985C114.577 272.357 114.589 271.688 114.797 271.068Z" fill="#F5F5F5"/>
<path d="M110.93 271.958C110.993 271.67 111.157 271.415 111.393 271.239C111.629 271.063 111.92 270.978 112.213 270.999C112.503 271.035 112.779 271.14 113.019 271.305C113.259 271.47 113.455 271.691 113.591 271.949C113.673 272.118 113.745 272.293 113.805 272.471C113.909 272.76 113.976 273.062 114.002 273.369C114.019 273.67 113.944 273.968 113.788 274.225C113.605 274.496 113.342 274.703 113.035 274.815C112.844 274.898 112.638 274.937 112.431 274.929C112.224 274.922 112.021 274.868 111.837 274.772C111.419 274.503 111.114 274.089 110.981 273.609C110.783 273.079 110.765 272.499 110.93 271.958Z" fill="#F5F5F5"/>
<path d="M107.764 273.729C107.995 273.011 108.44 272.874 108.937 272.968C109.439 273.145 109.863 273.494 110.134 273.952C110.224 274.097 110.304 274.249 110.374 274.405C110.489 274.656 110.559 274.926 110.579 275.201C110.606 275.478 110.523 275.754 110.348 275.971C110.183 276.157 109.96 276.284 109.715 276.33C109.395 276.401 109.061 276.352 108.774 276.193C108.377 275.955 108.063 275.599 107.876 275.175C107.665 274.723 107.625 274.209 107.764 273.729Z" fill="#F5F5F5"/>
<path d="M108.055 277.22C108.161 277.401 108.228 277.602 108.252 277.811C108.262 277.916 108.246 278.021 108.208 278.119C108.169 278.217 108.108 278.305 108.03 278.375C107.871 278.46 107.691 278.497 107.512 278.482C107.333 278.466 107.162 278.4 107.02 278.29C106.707 278.112 106.442 277.859 106.25 277.554C106.153 277.4 106.088 277.229 106.06 277.049C106.032 276.869 106.042 276.686 106.087 276.51C106.49 275.133 107.764 276.698 108.055 277.22Z" fill="#F5F5F5"/>
<path d="M100.817 75.8017C98.8476 76.0785 96.8407 75.7652 95.0497 74.9014C93.2588 74.0376 91.7641 72.6621 90.7549 70.9489C89.7457 69.2356 89.2672 67.2615 89.3799 65.2763C89.4927 63.2911 90.1916 61.3839 91.3883 59.7959C92.5849 58.2079 94.2256 57.0105 96.1029 56.355C97.9802 55.6995 100.01 55.6154 101.935 56.1133C103.86 56.6113 105.594 57.6689 106.918 59.1524C108.242 60.636 109.096 62.4788 109.373 64.4479C109.739 67.0873 109.044 69.7643 107.44 71.8924C105.837 74.0205 103.455 75.4263 100.817 75.8017ZM98.7803 61.1709C97.8564 61.2983 96.9911 61.6968 96.2937 62.3161C95.5964 62.9354 95.0984 63.7476 94.8627 64.6499C94.6271 65.5523 94.6644 66.5043 94.9699 67.3855C95.2754 68.2667 95.8354 69.0374 96.5791 69.6002C97.3227 70.1631 98.2166 70.4927 99.1476 70.5474C100.079 70.6021 101.005 70.3794 101.809 69.9075C102.614 69.4356 103.26 68.7358 103.667 67.8964C104.073 67.0571 104.222 66.116 104.094 65.1923C103.92 63.9557 103.263 62.8384 102.267 62.0848C101.271 61.3312 100.018 61.0026 98.7803 61.1709Z" fill="#E0E0E0"/>
<path d="M97.0479 35.857L93.2686 36.3848L96.6637 60.6961L100.443 60.1683L97.0479 35.857Z" fill="#E0E0E0"/>
<path d="M100.245 32.474L93.1553 33.4766L93.6895 37.2544L100.779 36.2518L100.245 32.474Z" fill="#E0E0E0"/>
<path d="M100.828 37.6128L94.1587 38.543L94.6858 42.3224L101.355 41.3922L100.828 37.6128Z" fill="#E0E0E0"/>
<path d="M101.8 44.4654L95.978 45.2773L96.5052 49.0567L102.327 48.2448L101.8 44.4654Z" fill="#E0E0E0"/>
<path d="M180.619 331.629C272.239 331.629 346.512 327.292 346.512 321.943C346.512 316.594 272.239 312.258 180.619 312.258C88.9988 312.258 14.7261 316.594 14.7261 321.943C14.7261 327.292 88.9988 331.629 180.619 331.629Z" fill="#F5F5F5"/>
<path d="M92.8941 161.094C100.782 152.854 99.8882 139.197 90.8972 130.59C81.9062 121.983 68.223 121.686 60.3349 129.926C52.4468 138.166 53.3409 151.823 62.3318 160.43C71.3228 169.037 85.006 169.334 92.8941 161.094Z" fill="#0C9CFF"/>
<g opacity="0.8">
<path opacity="0.8" d="M92.8941 161.094C100.782 152.854 99.8882 139.197 90.8972 130.59C81.9062 121.983 68.223 121.686 60.3349 129.926C52.4468 138.166 53.3409 151.823 62.3318 160.43C71.3228 169.037 85.006 169.334 92.8941 161.094Z" fill="white"/>
</g>
<path d="M66.5582 131.975C66.3787 131.975 66.2036 131.918 66.058 131.813C65.9123 131.708 65.8033 131.56 65.7465 131.39C65.6898 131.219 65.688 131.036 65.7416 130.864C65.7951 130.693 65.9012 130.543 66.0449 130.435C68.9259 128.367 72.3985 127.286 75.9442 127.355C76.1711 127.355 76.3887 127.445 76.5492 127.605C76.7097 127.766 76.7998 127.983 76.7998 128.21C76.7998 128.437 76.7097 128.655 76.5492 128.815C76.3887 128.976 76.1711 129.066 75.9442 129.066C72.7685 128.996 69.6556 129.956 67.0716 131.804C66.9235 131.915 66.7434 131.975 66.5582 131.975Z" fill="#0C9CFF"/>
<path d="M70.6051 161.408C70.4647 161.407 70.3266 161.372 70.203 161.305C67.5809 159.903 65.3056 157.932 63.5439 155.537C61.7822 153.142 60.5786 150.382 60.0213 147.462C59.4777 144.935 59.5027 142.319 60.0946 139.804C60.6866 137.288 61.8305 134.936 63.4437 132.917C63.5889 132.742 63.7976 132.632 64.0239 132.611C64.2501 132.59 64.4754 132.66 64.6501 132.805C64.8248 132.951 64.9347 133.159 64.9556 133.385C64.9764 133.612 64.9066 133.837 64.7613 134.012C63.3041 135.839 62.2723 137.968 61.741 140.245C61.2096 142.521 61.1921 144.887 61.6897 147.171C62.2023 149.841 63.3039 152.363 64.9142 154.554C66.5246 156.744 68.6032 158.548 70.9987 159.834C71.166 159.924 71.2984 160.067 71.3751 160.241C71.4518 160.415 71.4685 160.61 71.4224 160.794C71.3763 160.979 71.2701 161.142 71.1205 161.26C70.971 161.377 70.7866 161.441 70.5965 161.442L70.6051 161.408Z" fill="#0C9CFF"/>
<path d="M79.1697 163.639C77.2546 163.63 75.3525 163.324 73.5313 162.732C73.424 162.697 73.3246 162.641 73.2388 162.568C73.153 162.495 73.0825 162.405 73.0312 162.305C72.98 162.204 72.9491 162.095 72.9402 161.982C72.9313 161.87 72.9446 161.757 72.9795 161.649C73.0143 161.542 73.0699 161.443 73.1432 161.357C73.2164 161.271 73.3058 161.2 73.4063 161.149C73.5068 161.098 73.6165 161.067 73.7289 161.058C73.8414 161.049 73.9545 161.063 74.0618 161.097C79.3238 162.809 84.5772 161.85 88.4702 158.531C90.4451 156.787 91.9377 154.565 92.8039 152.077C93.6701 149.589 93.8807 146.92 93.4155 144.328C93.3792 144.101 93.4345 143.869 93.5693 143.682C93.7041 143.496 93.9073 143.371 94.1342 143.335C94.3612 143.299 94.5932 143.354 94.7793 143.489C94.9655 143.624 95.0904 143.827 95.1267 144.054C95.6454 146.935 95.4098 149.901 94.4428 152.665C93.4757 155.428 91.8102 157.894 89.6081 159.823C86.7067 162.319 82.9969 163.675 79.1697 163.639Z" fill="#0C9CFF"/>
<path d="M93.5615 142.138C93.38 142.138 93.2034 142.079 93.0573 141.972C92.9112 141.864 92.8031 141.713 92.7487 141.539C91.9617 139.11 90.6731 136.872 88.9663 134.973C87.2595 133.073 85.1726 131.553 82.8408 130.511C82.632 130.42 82.4679 130.25 82.3844 130.038C82.301 129.826 82.3051 129.59 82.3959 129.381C82.4867 129.173 82.6566 129.008 82.8684 128.925C83.0802 128.842 83.3165 128.846 83.5253 128.936C86.0789 130.078 88.3642 131.743 90.2331 133.825C92.102 135.906 93.5129 138.356 94.3743 141.018C94.4445 141.233 94.4263 141.468 94.3236 141.67C94.2209 141.872 94.0422 142.025 93.8267 142.096C93.7406 142.122 93.6514 142.136 93.5615 142.138Z" fill="#0C9CFF"/>
<path d="M80.0768 129.544C80.0115 129.552 79.9453 129.552 79.88 129.544C78.5924 129.244 77.2748 129.092 75.9528 129.09C75.7259 129.09 75.5082 129 75.3478 128.84C75.1873 128.679 75.0972 128.461 75.0972 128.235C75.0972 128.008 75.1873 127.79 75.3478 127.63C75.5082 127.469 75.7259 127.379 75.9528 127.379C77.3934 127.383 78.8287 127.553 80.2308 127.884C80.4577 127.91 80.665 128.025 80.807 128.204C80.949 128.383 81.0141 128.611 80.988 128.838C80.9619 129.065 80.8467 129.272 80.6678 129.414C80.4889 129.556 80.2609 129.621 80.034 129.595L80.0768 129.544Z" fill="#0C9CFF"/>
<path d="M64.9838 149.984C64.809 149.985 64.6382 149.932 64.4944 149.832C64.3506 149.733 64.2407 149.592 64.1795 149.428C63.3775 147.358 63.0954 145.122 63.358 142.918C63.6205 140.713 64.4196 138.606 65.6854 136.782C66.8818 135.054 68.4844 133.646 70.3522 132.683C72.22 131.719 74.2959 131.229 76.3975 131.255C76.6244 131.255 76.8421 131.345 77.0025 131.506C77.163 131.666 77.2531 131.884 77.2531 132.111C77.2531 132.337 77.163 132.555 77.0025 132.716C76.8421 132.876 76.6244 132.966 76.3975 132.966C74.5715 132.945 72.7679 133.37 71.1439 134.205C69.5199 135.04 68.1248 136.26 67.08 137.757C65.9701 139.364 65.2717 141.218 65.0465 143.158C64.8212 145.097 65.0758 147.062 65.788 148.88C65.8655 149.093 65.856 149.327 65.7614 149.532C65.6668 149.737 65.4949 149.897 65.2832 149.975C65.1846 149.995 65.0834 149.998 64.9838 149.984Z" fill="#0C9CFF"/>
<path d="M78.554 159.755C75.9894 159.669 73.4835 158.965 71.2491 157.704C69.0147 156.442 67.1179 154.66 65.72 152.508C65.6161 152.319 65.5875 152.097 65.6398 151.888C65.6922 151.679 65.8216 151.497 66.0022 151.379C66.1828 151.261 66.4013 151.216 66.6139 151.252C66.8265 151.289 67.0176 151.404 67.1488 151.575C68.3913 153.489 70.0763 155.077 72.0614 156.202C74.0465 157.328 76.2734 157.96 78.554 158.044C78.7809 158.044 78.9986 158.134 79.159 158.294C79.3195 158.455 79.4096 158.672 79.4096 158.899C79.4096 159.126 79.3195 159.344 79.159 159.504C78.9986 159.665 78.7809 159.755 78.554 159.755Z" fill="#0C9CFF"/>
<path d="M81.7539 159.386C81.5585 159.392 81.367 159.33 81.2113 159.212C81.0556 159.094 80.9452 158.926 80.8983 158.736C80.8441 158.516 80.8793 158.283 80.9964 158.089C81.1136 157.895 81.3029 157.755 81.5229 157.701C88.4619 155.989 90.2586 149.906 89.6854 145.234C88.941 139.143 84.1325 132.974 76.3722 132.965C76.1453 132.965 75.9277 132.875 75.7672 132.715C75.6067 132.554 75.5166 132.336 75.5166 132.11C75.5166 131.883 75.6067 131.665 75.7672 131.505C75.9277 131.344 76.1453 131.254 76.3722 131.254C85.125 131.254 90.5495 138.184 91.388 145.029C92.2436 152.088 88.5389 157.718 81.9336 159.36C81.8748 159.375 81.8146 159.384 81.7539 159.386Z" fill="#0C9CFF"/>
<path d="M72.8985 137.69C72.7363 137.688 72.5778 137.641 72.4415 137.553C72.3051 137.465 72.1966 137.341 72.1284 137.193C72.032 136.988 72.0212 136.753 72.0982 136.539C72.1752 136.326 72.3338 136.152 72.5391 136.055C73.8508 135.475 75.2718 135.184 76.7059 135.2C76.9328 135.2 77.1505 135.29 77.3109 135.45C77.4714 135.611 77.5615 135.829 77.5615 136.055C77.5615 136.282 77.4714 136.5 77.3109 136.66C77.1505 136.821 76.9328 136.911 76.7059 136.911C75.525 136.912 74.358 137.166 73.2835 137.655C73.1595 137.696 73.0278 137.708 72.8985 137.69Z" fill="#0C9CFF"/>
<path d="M78.4001 155.768C76.2332 155.733 74.1216 155.078 72.3155 153.88C70.5095 152.682 69.0847 150.992 68.2099 149.009C66.4388 145.15 66.9607 141.12 69.6045 138.211C69.7579 138.045 69.971 137.946 70.1971 137.936C70.4232 137.927 70.6439 138.007 70.8109 138.16C70.9773 138.313 71.0761 138.526 71.0857 138.752C71.0953 138.978 71.015 139.199 70.8623 139.366C69.7991 140.569 69.1254 142.065 68.9299 143.658C68.7344 145.251 69.0263 146.866 69.7671 148.29C70.5233 150.018 71.7706 151.486 73.3541 152.512C74.9376 153.537 76.7875 154.074 78.6739 154.057C80.1009 154.047 81.4945 153.623 82.6863 152.838C83.8781 152.053 84.8173 150.94 85.3904 149.633C86.0348 148.092 86.229 146.399 85.9503 144.751C85.6717 143.103 84.9316 141.569 83.8161 140.324C83.743 140.239 83.6875 140.14 83.6527 140.033C83.6179 139.926 83.6045 139.814 83.6133 139.702C83.622 139.59 83.6527 139.481 83.7037 139.38C83.7546 139.28 83.8248 139.191 83.9102 139.118C83.9956 139.045 84.0945 138.99 84.2014 138.955C84.3082 138.92 84.4209 138.907 84.5329 138.915C84.6449 138.924 84.7541 138.955 84.8543 139.006C84.9544 139.057 85.0436 139.127 85.1166 139.212C86.4447 140.702 87.3227 142.538 87.6483 144.507C87.9739 146.476 87.7339 148.497 86.9561 150.335C86.2541 151.938 85.1038 153.305 83.6436 154.27C82.1835 155.236 80.4756 155.759 78.7252 155.777L78.4001 155.768Z" fill="#0C9CFF"/>
<path d="M82.0024 138.442C81.8409 138.443 81.6829 138.395 81.5489 138.305C80.1042 137.375 78.4243 136.876 76.7062 136.867C76.4793 136.867 76.2616 136.777 76.1012 136.617C75.9407 136.456 75.8506 136.239 75.8506 136.012C75.8506 135.785 75.9407 135.567 76.1012 135.407C76.2616 135.246 76.4793 135.156 76.7062 135.156C78.7498 135.164 80.7483 135.758 82.4644 136.867C82.6194 136.968 82.7378 137.115 82.8021 137.288C82.8664 137.461 82.8731 137.65 82.8211 137.827C82.7692 138.004 82.6614 138.16 82.5138 138.27C82.3663 138.381 82.1869 138.441 82.0024 138.442Z" fill="#0C9CFF"/>
<path d="M77.9465 151.909C76.9468 151.902 75.9607 151.676 75.0575 151.248C74.1544 150.819 73.3561 150.198 72.7188 149.428C71.8964 148.486 71.3624 147.328 71.1803 146.092C70.9982 144.855 71.1759 143.593 71.6921 142.454C72.1528 141.421 72.9068 140.546 73.8605 139.938C74.8142 139.329 75.9256 139.014 77.0567 139.032C77.2836 139.032 77.5012 139.122 77.6617 139.283C77.8222 139.443 77.9123 139.661 77.9123 139.888C77.9123 140.114 77.8222 140.332 77.6617 140.493C77.5012 140.653 77.2836 140.743 77.0567 140.743C76.2566 140.728 75.4698 140.948 74.7932 141.376C74.1166 141.803 73.5799 142.419 73.2493 143.147C72.8731 143.988 72.7464 144.918 72.8845 145.829C73.0225 146.739 73.4194 147.59 74.0279 148.281C74.6336 149.023 75.4377 149.578 76.3465 149.881C77.2554 150.184 78.2316 150.223 79.1615 149.992C79.918 149.822 80.6098 149.438 81.1543 148.886C81.6989 148.334 82.0733 147.637 82.2331 146.878C82.2822 146.657 82.4169 146.464 82.6078 146.342C82.7986 146.22 83.03 146.179 83.2512 146.228C83.3615 146.251 83.466 146.296 83.5588 146.36C83.6517 146.424 83.731 146.505 83.7922 146.6C83.8534 146.694 83.8953 146.8 83.9156 146.911C83.9358 147.022 83.9339 147.136 83.9101 147.246C83.6835 148.316 83.1556 149.3 82.3885 150.081C81.6215 150.861 80.6473 151.407 79.5807 151.652C79.0482 151.802 78.4995 151.889 77.9465 151.909Z" fill="#0C9CFF"/>
<path d="M82.926 145.133C82.7373 145.142 82.551 145.088 82.3962 144.98C82.2414 144.871 82.1269 144.715 82.0704 144.534C81.7289 143.462 81.0616 142.524 80.1613 141.849C79.2611 141.174 78.1727 140.797 77.048 140.77C76.8211 140.77 76.6034 140.68 76.443 140.519C76.2825 140.359 76.1924 140.141 76.1924 139.914C76.1924 139.687 76.2825 139.47 76.443 139.309C76.6034 139.149 76.8211 139.059 77.048 139.059C78.5356 139.092 79.9759 139.587 81.1688 140.477C82.3618 141.366 83.2481 142.605 83.7046 144.021C83.7391 144.128 83.7522 144.241 83.7429 144.354C83.7336 144.466 83.7023 144.576 83.6506 144.676C83.5989 144.776 83.5279 144.865 83.4417 144.938C83.3556 145.01 83.2559 145.065 83.1484 145.099C83.0761 145.12 83.0013 145.132 82.926 145.133Z" fill="#0C9CFF"/>
<path d="M78.1777 148.35C77.9507 148.35 77.7331 148.26 77.5727 148.099C77.4122 147.939 77.3221 147.721 77.3221 147.494C77.3221 147.267 77.4122 147.05 77.5727 146.889C77.7331 146.729 77.9507 146.639 78.1777 146.639C78.2945 146.639 78.4101 146.615 78.5174 146.569C78.6247 146.523 78.7214 146.455 78.8015 146.37C78.8817 146.285 78.9436 146.185 78.9835 146.075C79.0233 145.965 79.0403 145.848 79.0333 145.732C79.0378 145.565 79.0092 145.399 78.9491 145.244C78.889 145.088 78.7986 144.946 78.6832 144.826C78.5677 144.706 78.4296 144.61 78.2767 144.544C78.1238 144.477 77.9593 144.442 77.7926 144.44C77.6671 144.443 77.5435 144.471 77.429 144.523C77.3144 144.574 77.2112 144.648 77.1253 144.739C77.0376 144.843 76.9713 144.962 76.9302 145.092C76.889 145.221 76.8739 145.357 76.8857 145.492C76.8924 145.604 76.877 145.717 76.8402 145.823C76.8034 145.93 76.7461 146.028 76.6714 146.112C76.5967 146.196 76.5062 146.265 76.4049 146.314C76.3037 146.364 76.1938 146.392 76.0814 146.399C75.9691 146.406 75.8565 146.39 75.7501 146.354C75.6437 146.317 75.5456 146.259 75.4614 146.185C75.3772 146.11 75.3085 146.02 75.2593 145.918C75.21 145.817 75.1812 145.707 75.1745 145.595C75.1441 145.236 75.1873 144.874 75.3017 144.533C75.416 144.191 75.599 143.876 75.8393 143.608C76.0797 143.339 76.3724 143.123 76.6995 142.972C77.0266 142.82 77.3811 142.738 77.7413 142.729C78.133 142.73 78.5205 142.808 78.8815 142.96C79.2425 143.112 79.5698 143.334 79.8443 143.614C80.1189 143.893 80.3353 144.224 80.481 144.588C80.6267 144.951 80.6988 145.34 80.6931 145.732C80.7 146.073 80.6386 146.412 80.5127 146.73C80.3867 147.047 80.1987 147.336 79.9597 147.58C79.7207 147.824 79.4354 148.017 79.1206 148.15C78.8058 148.282 78.4678 148.35 78.1263 148.35H78.1777Z" fill="#0C9CFF"/>
<path d="M100.192 145.501C101.236 157.42 92.4148 167.079 80.5134 167.079H79.5894C90.9346 166.498 99.1741 157.069 98.1645 145.527C97.5814 139.877 95.0192 134.616 90.9309 130.673C86.8426 126.73 81.4918 124.36 75.8247 123.983C76.1242 123.983 76.4322 123.983 76.7402 123.983C88.6759 123.931 99.1826 133.591 100.192 145.501Z" fill="#0C9CFF"/>
<g opacity="0.4">
<path opacity="0.4" d="M100.192 145.501C101.236 157.42 92.4148 167.079 80.5134 167.079H79.5894C90.9346 166.498 99.1741 157.069 98.1645 145.527C97.5814 139.877 95.0192 134.616 90.9309 130.673C86.8426 126.73 81.4918 124.36 75.8247 123.983C76.1242 123.983 76.4322 123.983 76.7402 123.983C88.6759 123.931 99.1826 133.591 100.192 145.501Z" fill="white"/>
</g>
<path d="M117.663 40.3393C117.685 40.5948 117.719 40.8489 117.766 41.1008C118.089 42.7493 118.935 44.2497 120.179 45.3788C121.588 46.6984 123.442 47.4405 125.372 47.4579H197.662C198.506 47.475 199.345 47.324 200.13 47.0139C200.915 46.7038 201.63 46.2406 202.235 45.6514C202.839 45.0623 203.32 44.3588 203.65 43.582C203.98 42.8051 204.152 41.9705 204.156 41.1265C204.169 40.8728 204.169 40.6187 204.156 40.365C203.955 38.4493 203.061 36.6729 201.644 35.3687C200.226 34.0645 198.382 33.3221 196.456 33.2806H124.149C123.243 33.2623 122.343 33.437 121.509 33.7932C120.675 34.1494 119.927 34.6788 119.313 35.3464C118.7 36.014 118.236 36.8045 117.951 37.6653C117.667 38.5262 117.569 39.4377 117.663 40.3393Z" fill="#0C9CFF"/>
<path opacity="0.8" d="M117.663 40.3393C117.685 40.5948 117.719 40.8489 117.766 41.1008C118.089 42.7493 118.935 44.2497 120.179 45.3788C121.588 46.6984 123.442 47.4405 125.372 47.4579H197.662C198.506 47.475 199.345 47.324 200.13 47.0139C200.915 46.7038 201.63 46.2406 202.235 45.6514C202.839 45.0623 203.32 44.3588 203.65 43.582C203.98 42.8051 204.152 41.9705 204.156 41.1265C204.169 40.8728 204.169 40.6187 204.156 40.365C203.955 38.4493 203.061 36.6729 201.644 35.3687C200.226 34.0645 198.382 33.3221 196.456 33.2806H124.149C123.243 33.2623 122.343 33.437 121.509 33.7932C120.675 34.1494 119.927 34.6788 119.313 35.3464C118.7 36.014 118.236 36.8045 117.951 37.6653C117.667 38.5262 117.569 39.4377 117.663 40.3393Z" fill="white"/>
<path d="M204.156 41.0748C204.157 41.3039 204.139 41.5327 204.105 41.7593C203.85 39.8869 202.933 38.1677 201.521 36.9123C200.109 35.6569 198.294 34.9482 196.405 34.9144L119.546 35.0856C120.155 34.4929 120.875 34.0261 121.665 33.7119C122.455 33.3978 123.299 33.2423 124.149 33.2546H196.439C198.365 33.2961 200.209 34.0385 201.627 35.3427C203.044 36.6469 203.938 38.4233 204.139 40.339C204.157 40.5838 204.163 40.8294 204.156 41.0748Z" fill="#0C9CFF"/>
<path opacity="0.5" d="M204.156 41.0748C204.157 41.3039 204.139 41.5327 204.105 41.7593C203.85 39.8869 202.933 38.1677 201.521 36.9123C200.109 35.6569 198.294 34.9482 196.405 34.9144L119.546 35.0856C120.155 34.4929 120.875 34.0261 121.665 33.7119C122.455 33.3978 123.299 33.2423 124.149 33.2546H196.439C198.365 33.2961 200.209 34.0385 201.627 35.3427C203.044 36.6469 203.938 38.4233 204.139 40.339C204.157 40.5838 204.163 40.8294 204.156 41.0748Z" fill="white"/>
<path d="M191.742 36.6756L192.05 40.098L195.267 38.9002L196.028 40.6114L192.743 41.7065L195.104 44.607L193.624 45.6936L191.322 42.6819L189.611 45.6936L187.994 44.607L189.816 41.7065L186.394 40.6114L186.856 38.9002L190.321 40.0552L190.013 36.6328L191.742 36.6756Z" fill="#0C9CFF"/>
<path d="M171.934 36.6773L172.242 40.0997L175.459 38.9018L176.229 40.613L172.918 41.7339L175.28 44.6344L173.808 45.721L171.506 42.7093L169.795 45.721L168.17 44.6344L170.001 41.7339L166.578 40.6387L167.04 38.9275L170.505 40.0826L170.206 36.6602L171.934 36.6773Z" fill="#0C9CFF"/>
<path d="M152.17 36.6773L152.469 40.0997L155.686 38.9018L156.457 40.613L153.162 41.7082L155.524 44.6087L154.095 45.721L151.793 42.7093L150.082 45.721L148.465 44.6344L150.288 41.7339L146.865 40.6387L147.336 38.9275L150.758 40.0826L150.459 36.6602L152.17 36.6773Z" fill="#0C9CFF"/>
<path d="M132.397 36.6756L132.697 40.098L135.922 38.9002L136.684 40.6114L133.39 41.7065L135.76 44.607L134.28 45.6936L131.978 42.6819L130.267 45.6936L128.65 44.607L130.472 41.7065L127.05 40.6114L127.512 38.9002L130.934 40.0552L130.635 36.6328L132.397 36.6756Z" fill="#0C9CFF"/>
<path d="M180.319 29.9004H176.948V30.756H180.319V29.9004Z" fill="#0C9CFF"/>
<path d="M194.805 29.9004H183.81V30.756H194.805V29.9004Z" fill="#0C9CFF"/>
<path opacity="0.8" d="M307.069 61.8136L303.569 101.822C303.434 103.098 302.839 104.282 301.894 105.152C300.949 106.021 299.719 106.516 298.436 106.544H270.654C270.053 106.548 269.458 106.424 268.907 106.182C268.357 105.94 267.864 105.584 267.46 105.139C267.057 104.693 266.752 104.167 266.565 103.596C266.378 103.024 266.314 102.42 266.376 101.822L269.876 61.805C270.005 60.526 270.599 59.3389 271.545 58.4685C272.491 57.5981 273.724 57.1049 275.009 57.0821H302.791C303.393 57.0787 303.989 57.2024 304.54 57.4452C305.091 57.688 305.584 58.0443 305.988 58.4909C306.392 58.9375 306.697 59.4643 306.883 60.0369C307.069 60.6095 307.133 61.2149 307.069 61.8136Z" fill="#0C9CFF"/>
<path opacity="0.8" d="M307.069 61.8136L303.569 101.822C303.434 103.098 302.839 104.282 301.894 105.152C300.949 106.021 299.719 106.516 298.436 106.544H270.654C270.053 106.548 269.458 106.424 268.907 106.182C268.357 105.94 267.864 105.584 267.46 105.139C267.057 104.693 266.752 104.167 266.565 103.596C266.378 103.024 266.314 102.42 266.376 101.822L269.876 61.805C270.005 60.526 270.599 59.3389 271.545 58.4685C272.491 57.5981 273.724 57.1049 275.009 57.0821H302.791C303.393 57.0787 303.989 57.2024 304.54 57.4452C305.091 57.688 305.584 58.0443 305.988 58.4909C306.392 58.9375 306.697 59.4643 306.883 60.0369C307.069 60.6095 307.133 61.2149 307.069 61.8136Z" fill="white"/>
<path d="M272.408 68.265H272.331C272.105 68.2454 271.897 68.1372 271.751 67.9639C271.605 67.7907 271.533 67.5667 271.552 67.341L271.877 63.679C271.897 63.4657 271.995 63.2673 272.154 63.1232C272.312 62.979 272.519 62.8995 272.733 62.9004H276.6C276.827 62.9004 277.045 62.9905 277.205 63.151C277.366 63.3115 277.456 63.5291 277.456 63.756C277.456 63.9829 277.366 64.2005 277.205 64.361C277.045 64.5215 276.827 64.6116 276.6 64.6116H273.52L273.264 67.4864C273.244 67.6997 273.146 67.8981 272.987 68.0422C272.829 68.1864 272.622 68.2659 272.408 68.265Z" fill="#0C9CFF"/>
<path d="M303.517 68.265H303.44C303.215 68.2454 303.006 68.1372 302.86 67.9639C302.714 67.7907 302.643 67.5667 302.662 67.341L302.901 64.6116H299.975C299.748 64.6116 299.531 64.5215 299.37 64.361C299.21 64.2005 299.12 63.9829 299.12 63.756C299.12 63.5291 299.21 63.3115 299.37 63.151C299.531 62.9905 299.748 62.9004 299.975 62.9004H303.825C303.945 62.8999 304.063 62.9243 304.172 62.9721C304.281 63.0198 304.379 63.0898 304.459 63.1776C304.54 63.2654 304.601 63.369 304.639 63.4819C304.678 63.5948 304.692 63.7144 304.681 63.833L304.356 67.4864C304.337 67.6968 304.241 67.8928 304.086 68.0365C303.931 68.1803 303.729 68.2617 303.517 68.265Z" fill="#0C9CFF"/>
<path d="M273.879 95.874H270.012C269.895 95.8736 269.779 95.8491 269.671 95.802C269.564 95.7549 269.467 95.6862 269.388 95.6002C269.308 95.513 269.246 95.4103 269.208 95.2984C269.17 95.1864 269.155 95.0678 269.165 94.9499L269.482 91.2879C269.501 91.061 269.61 90.851 269.784 90.7042C269.958 90.5574 270.183 90.4858 270.41 90.505C270.637 90.5243 270.847 90.633 270.994 90.8071C271.141 90.9812 271.212 91.2065 271.193 91.4334L270.953 94.1627H273.879C274.106 94.1627 274.324 94.2529 274.484 94.4133C274.645 94.5738 274.735 94.7914 274.735 95.0184C274.735 95.2453 274.645 95.4629 274.484 95.6234C274.324 95.7838 274.106 95.874 273.879 95.874Z" fill="#0C9CFF"/>
<path d="M301.096 95.8754H297.237C297.011 95.8754 296.793 95.7853 296.632 95.6248C296.472 95.4644 296.382 95.2468 296.382 95.0198C296.382 94.7929 296.472 94.5753 296.632 94.4148C296.793 94.2544 297.011 94.1642 297.237 94.1642H300.318L300.566 91.2894C300.585 91.0638 300.694 90.8551 300.867 90.7091C301.04 90.5632 301.264 90.4919 301.49 90.5108C301.715 90.5304 301.924 90.6387 302.07 90.8119C302.216 90.9851 302.287 91.2092 302.268 91.4349L301.952 95.0968C301.933 95.3102 301.834 95.5085 301.676 95.6527C301.517 95.7968 301.31 95.8763 301.096 95.8754Z" fill="#0C9CFF"/>
<path d="M298.151 82.0802C300.083 74.5898 296.767 67.2589 290.746 65.7061C284.724 64.1533 278.277 68.9666 276.345 76.457C274.413 83.9474 277.729 91.2783 283.751 92.8311C289.772 94.3839 296.22 89.5706 298.151 82.0802Z" fill="white"/>
<path d="M290.606 100.562H279.526L280.493 89.4824H291.573L290.606 100.562Z" fill="white"/>
<path d="M303.569 101.822C303.434 103.099 302.838 104.282 301.893 105.152C300.948 106.021 299.719 106.516 298.435 106.545H270.654C270.052 106.548 269.457 106.424 268.907 106.182C268.357 105.94 267.864 105.584 267.46 105.139C267.056 104.693 266.751 104.167 266.564 103.596C266.377 103.024 266.313 102.42 266.376 101.822C266.376 101.822 279.141 97.7832 280.716 97.7832H290.581L303.569 101.822Z" fill="white"/>
<path d="M308.682 73.5052L307.387 89.2207L308.239 89.291L309.534 73.5755L308.682 73.5052Z" fill="#0C9CFF"/>
<path d="M309.581 66.3136L309.327 69.4004L310.18 69.4706L310.434 66.3838L309.581 66.3136Z" fill="#0C9CFF"/>
<path d="M279.767 161.773H276.396V162.629H279.767V161.773Z" fill="#0C9CFF"/>
<path d="M294.251 161.773H283.257V162.629H294.251V161.773Z" fill="#0C9CFF"/>
<path d="M314.376 147.168L312.245 171.553C312.134 172.631 311.633 173.63 310.835 174.364C310.038 175.097 308.999 175.512 307.916 175.532C307.406 175.541 306.9 175.441 306.432 175.24C305.964 175.038 305.544 174.739 305.2 174.363C304.856 173.987 304.596 173.541 304.437 173.057C304.279 172.573 304.225 172.06 304.279 171.553L306.393 147.168C306.59 145.35 306.397 143.51 305.829 141.771C305.26 140.032 304.329 138.434 303.096 137.083C301.863 135.732 300.356 134.658 298.677 133.934C296.997 133.209 295.182 132.85 293.353 132.88H284.66C280.773 132.953 277.046 134.447 274.184 137.079C271.321 139.711 269.521 143.3 269.123 147.168L268.267 157.128H260.31L261.166 147.168C262.235 134.899 273.093 124.923 285.354 124.923H294.081C296.928 124.876 299.753 125.435 302.368 126.563C304.983 127.691 307.327 129.363 309.247 131.467C311.166 133.571 312.616 136.059 313.5 138.766C314.385 141.473 314.683 144.337 314.376 147.168Z" fill="#0C9CFF"/>
<g opacity="0.5">
<path opacity="0.5" d="M314.376 147.168L312.245 171.553C312.134 172.631 311.633 173.63 310.835 174.364C310.038 175.097 308.999 175.512 307.916 175.532C307.406 175.541 306.9 175.441 306.432 175.24C305.964 175.038 305.544 174.739 305.2 174.363C304.856 173.987 304.596 173.541 304.437 173.057C304.279 172.573 304.225 172.06 304.279 171.553L306.393 147.168C306.59 145.35 306.397 143.51 305.829 141.771C305.26 140.032 304.329 138.434 303.096 137.083C301.863 135.732 300.356 134.658 298.677 133.934C296.997 133.209 295.182 132.85 293.353 132.88H284.66C280.773 132.953 277.046 134.447 274.184 137.079C271.321 139.711 269.521 143.3 269.123 147.168L268.267 157.128H260.31L261.166 147.168C262.235 134.899 273.093 124.923 285.354 124.923H294.081C296.928 124.876 299.753 125.435 302.368 126.563C304.983 127.691 307.327 129.363 309.247 131.467C311.166 133.571 312.616 136.059 313.5 138.766C314.385 141.473 314.683 144.337 314.376 147.168Z" fill="white"/>
</g>
<path d="M314.949 170.663L310.799 218.183C310.648 219.656 309.962 221.023 308.871 222.025C307.78 223.026 306.359 223.592 304.878 223.616H257.358C256.662 223.629 255.971 223.493 255.332 223.218C254.692 222.943 254.119 222.534 253.649 222.02C253.18 221.506 252.825 220.898 252.609 220.237C252.393 219.575 252.32 218.875 252.396 218.183L256.554 170.663C256.649 169.715 256.967 168.804 257.482 168.002C257.996 167.201 258.693 166.532 259.514 166.051C260.406 165.505 261.429 165.209 262.475 165.195H309.986C310.957 165.19 311.909 165.46 312.733 165.974C313.501 166.472 314.116 167.175 314.507 168.003C314.899 168.831 315.052 169.752 314.949 170.663Z" fill="#0C9CFF"/>
<path d="M265.538 191.42L277.884 210.423L318.602 169.705C318.665 169.629 318.699 169.534 318.697 169.436C318.696 169.337 318.659 169.243 318.594 169.169C318.529 169.096 318.439 169.048 318.342 169.035C318.244 169.022 318.145 169.044 318.063 169.097L279.261 199.514L271.929 187.698L265.538 191.42Z" fill="white"/>
<path d="M71.1019 99.5219H40.1463C38.7139 99.4959 37.3407 98.9462 36.2861 97.9767C35.2315 97.0072 34.5684 95.685 34.4223 94.26L31.7442 63.3214C31.6699 62.6514 31.7393 61.9733 31.9478 61.3323C32.1563 60.6913 32.4992 60.1022 32.9534 59.6042C33.4077 59.1062 33.963 58.7108 34.5822 58.4444C35.2013 58.1781 35.8702 58.0468 36.5442 58.0594H67.4656C68.8926 58.0918 70.2584 58.6446 71.3063 59.6137C72.3542 60.5827 73.0118 61.9013 73.1554 63.3214L75.8591 94.2428C75.9355 94.9105 75.8692 95.5868 75.6643 96.2268C75.4595 96.8668 75.121 97.456 74.6711 97.9552C74.2212 98.4545 73.6704 98.8523 73.055 99.1224C72.4397 99.3925 71.7739 99.5287 71.1019 99.5219Z" fill="#0C9CFF"/>
<path opacity="0.8" d="M71.1019 99.5219H40.1463C38.7139 99.4959 37.3407 98.9462 36.2861 97.9767C35.2315 97.0072 34.5684 95.685 34.4223 94.26L31.7442 63.3214C31.6699 62.6514 31.7393 61.9733 31.9478 61.3323C32.1563 60.6913 32.4992 60.1022 32.9534 59.6042C33.4077 59.1062 33.963 58.7108 34.5822 58.4444C35.2013 58.1781 35.8702 58.0468 36.5442 58.0594H67.4656C68.8926 58.0918 70.2584 58.6446 71.3063 59.6137C72.3542 60.5827 73.0118 61.9013 73.1554 63.3214L75.8591 94.2428C75.9355 94.9105 75.8692 95.5868 75.6643 96.2268C75.4595 96.8668 75.121 97.456 74.6711 97.9552C74.2212 98.4545 73.6704 98.8523 73.055 99.1224C72.4397 99.3925 71.7739 99.5287 71.1019 99.5219Z" fill="white"/>
<path d="M34.439 81.9147C34.439 81.9147 45.4335 66.608 53.5274 67.0016C61.6214 67.3952 75.0715 81.5468 75.0715 81.5468C75.0715 81.5468 55.2472 91.9595 34.439 81.9147Z" fill="white"/>
<path d="M34.7902 82.1445L34.0972 81.6482C34.5421 81.0237 45.0232 66.5469 53.2199 66.5469H53.5536C61.7331 66.9405 74.8238 80.6472 75.38 81.229L74.7639 81.8194C74.627 81.6825 61.3481 67.7789 53.5108 67.4025H53.2199C45.4339 67.4196 34.8929 82.0162 34.7902 82.1445Z" fill="#263238"/>
<path d="M33.3011 82.4525C31.6413 82.4525 29.4851 81.8364 28.7237 79.4921C28.6886 79.3843 28.6977 79.267 28.749 79.1659C28.8004 79.0648 28.8897 78.9883 28.9974 78.953C29.0508 78.9345 29.1073 78.9268 29.1636 78.9306C29.2199 78.9344 29.2749 78.9496 29.3253 78.9751C29.3756 79.0007 29.4203 79.0362 29.4566 79.0794C29.4928 79.1227 29.52 79.1728 29.5365 79.2268C30.5204 82.2557 34.1995 81.5284 34.3535 81.4942C34.4645 81.4737 34.579 81.4971 34.6732 81.5593C34.7673 81.6215 34.8336 81.7178 34.8583 81.8279C34.8696 81.8829 34.8699 81.9396 34.8592 81.9948C34.8485 82.05 34.827 82.1025 34.7961 82.1494C34.7651 82.1963 34.7251 82.2366 34.6786 82.268C34.632 82.2995 34.5797 82.3214 34.5246 82.3327C34.1217 82.4124 33.7119 82.4525 33.3011 82.4525Z" fill="#263238"/>
<path d="M39.8294 75.8819C39.734 75.8838 39.6406 75.8537 39.5642 75.7964C39.4359 75.6937 36.3985 73.3493 35.6284 70.9622C35.5933 70.8544 35.6025 70.7371 35.6538 70.6361C35.7051 70.535 35.7945 70.4584 35.9022 70.4232C36.01 70.3904 36.1264 70.4006 36.2268 70.4516C36.3273 70.5026 36.4042 70.5906 36.4413 70.697C37.1343 72.8274 40.0519 75.0948 40.0861 75.1119C40.1756 75.1812 40.2339 75.2832 40.2483 75.3954C40.2628 75.5077 40.2321 75.6211 40.1631 75.7108C40.1242 75.7628 40.0739 75.8052 40.016 75.8349C39.9582 75.8645 39.8944 75.8806 39.8294 75.8819Z" fill="#263238"/>
<path d="M46.1096 70.0542C45.9976 70.0478 45.8922 69.9992 45.8144 69.9183C45.7367 69.8374 45.6924 69.7301 45.6904 69.6179C45.1908 67.7543 44.5706 65.9252 43.8337 64.142C43.6198 63.5773 43.4658 63.1666 43.4316 63.0639C43.4146 63.0095 43.4086 62.9521 43.4141 62.8953C43.4195 62.8385 43.4363 62.7834 43.4634 62.7331C43.4905 62.6829 43.5274 62.6386 43.5719 62.6028C43.6164 62.5671 43.6676 62.5406 43.7225 62.5249C43.7764 62.5092 43.8329 62.5042 43.8888 62.5103C43.9446 62.5165 43.9987 62.5335 44.048 62.5605C44.0972 62.5875 44.1407 62.624 44.1759 62.6678C44.211 62.7116 44.2372 62.7619 44.253 62.8158C44.253 62.9185 44.4327 63.295 44.6294 63.834C45.8273 66.9741 46.5631 69.0361 46.546 69.635C46.546 69.6915 46.5347 69.7475 46.5125 69.7995C46.4904 69.8515 46.458 69.8985 46.4172 69.9376C46.3764 69.9768 46.3282 70.0073 46.2753 70.0274C46.2225 70.0474 46.1661 70.0565 46.1096 70.0542Z" fill="#263238"/>
<path d="M53.5275 67.4271C53.4208 67.4237 53.3189 67.3821 53.2404 67.3099C53.1619 67.2376 53.1119 67.1396 53.0997 67.0336L52.5008 60.1887C52.4905 60.0753 52.5258 59.9624 52.5988 59.875C52.6718 59.7875 52.7766 59.7326 52.89 59.7224C53.0035 59.7122 53.1164 59.7475 53.2038 59.8205C53.2913 59.8935 53.3461 59.9983 53.3564 60.1117L53.9553 67.0079C53.9626 67.1196 53.9267 67.2298 53.8551 67.3158C53.7834 67.4018 53.6814 67.457 53.5703 67.4699L53.5275 67.4271Z" fill="#263238"/>
<path d="M76.3552 81.9807C75.9366 81.9827 75.5186 81.9484 75.106 81.878C75.051 81.8668 74.9986 81.8448 74.9521 81.8134C74.9055 81.7819 74.8656 81.7416 74.8346 81.6947C74.8036 81.6478 74.7822 81.5953 74.7715 81.5401C74.7608 81.485 74.7611 81.4282 74.7723 81.3732C74.7814 81.3179 74.8018 81.2651 74.832 81.218C74.8623 81.1709 74.9019 81.1304 74.9484 81.0992C74.9949 81.0679 75.0472 81.0465 75.1023 81.0362C75.1574 81.026 75.214 81.0271 75.2686 81.0395C75.2686 81.0395 77.3648 81.4416 78.6482 80.5347C78.9228 80.3349 79.1517 80.079 79.3199 79.784C79.488 79.489 79.5916 79.1616 79.6236 78.8235C79.632 78.7673 79.6514 78.7133 79.6807 78.6647C79.71 78.616 79.7486 78.5735 79.7943 78.5398C79.84 78.506 79.8918 78.4816 79.947 78.4679C80.0021 78.4542 80.0594 78.4514 80.1156 78.4599C80.1717 78.4683 80.2257 78.4877 80.2744 78.517C80.3231 78.5463 80.3655 78.5849 80.3993 78.6305C80.433 78.6762 80.4575 78.7281 80.4712 78.7832C80.4849 78.8384 80.4876 78.8957 80.4792 78.9518C80.4275 79.402 80.282 79.8364 80.0521 80.227C79.8222 80.6175 79.513 80.9555 79.1445 81.2192C78.313 81.7491 77.3405 82.0146 76.3552 81.9807Z" fill="#263238"/>
<path d="M68.6716 75.4269C68.6114 75.4274 68.5519 75.4146 68.4972 75.3894C68.4425 75.3643 68.3939 75.3274 68.3551 75.2815C68.315 75.2417 68.2831 75.1944 68.2614 75.1423C68.2397 75.0901 68.2285 75.0342 68.2285 74.9777C68.2285 74.9213 68.2397 74.8653 68.2614 74.8132C68.2831 74.7611 68.315 74.7138 68.3551 74.674C68.3551 74.674 70.9219 72.4152 71.1957 70.3104C71.2146 70.199 71.276 70.0994 71.367 70.0323C71.4579 69.9653 71.5714 69.9362 71.6834 69.9511C71.739 69.9594 71.7925 69.9787 71.8407 70.0077C71.8888 70.0368 71.9308 70.0751 71.9642 70.1204C71.9976 70.1657 72.0217 70.2171 72.0352 70.2717C72.0487 70.3264 72.0512 70.3831 72.0427 70.4388C71.6834 72.8516 69.031 75.213 68.9198 75.3157C68.8529 75.3811 68.7649 75.4205 68.6716 75.4269Z" fill="#263238"/>
<path d="M61.4418 70.4551H61.3648C61.2533 70.4342 61.1543 70.3707 61.0888 70.2781C61.0233 70.1855 60.9965 70.071 61.014 69.9589C61.014 69.9075 61.9552 64.406 62.1263 63.2766C62.1347 63.2204 62.1541 63.1665 62.1834 63.1178C62.2127 63.0691 62.2513 63.0267 62.297 62.9929C62.3427 62.9591 62.3945 62.9347 62.4497 62.921C62.5048 62.9073 62.5621 62.9046 62.6183 62.913C62.6745 62.9214 62.7284 62.9408 62.7771 62.9701C62.8258 62.9994 62.8682 63.038 62.902 63.0837C62.9357 63.1293 62.9602 63.1812 62.9739 63.2364C62.9876 63.2915 62.9903 63.3488 62.9819 63.405C62.8108 64.5429 61.8782 70.053 61.8696 70.1043C61.8514 70.204 61.7984 70.2939 61.7201 70.3582C61.6417 70.4224 61.5431 70.4568 61.4418 70.4551Z" fill="#263238"/>
<path d="M61.6932 83.7053C65.2353 80.0052 64.8305 73.8692 60.789 70.0003C56.7475 66.1314 50.5998 65.9946 47.0576 69.6948C43.5155 73.395 43.9203 79.5309 47.9618 83.3998C52.0033 87.2687 58.1511 87.4055 61.6932 83.7053Z" fill="#0C9CFF"/>
<path opacity="0.3" d="M58.3873 76.6934C58.4001 76.4768 58.4001 76.2597 58.3873 76.0431C58.2724 74.9276 57.7528 73.8929 56.9266 73.1346C56.1005 72.3763 55.0252 71.9469 53.9039 71.9277C53.377 71.9185 52.8541 72.0216 52.37 72.2302C51.886 72.4387 51.4518 72.7479 51.0965 73.1372C50.7412 73.5265 50.4729 73.987 50.3093 74.488C50.1457 74.9891 50.0907 75.5192 50.1478 76.0431C50.162 76.2639 50.2022 76.4821 50.2676 76.6934H44.6891C44.5527 75.4597 44.6809 74.211 45.065 73.0307C45.449 71.8503 46.0803 70.7654 46.9166 69.8481C47.7528 68.9309 48.775 68.2024 49.9149 67.7112C51.0549 67.22 52.2864 66.9773 53.5275 66.9994C56.1664 67.0482 58.6962 68.061 60.6397 69.8468C62.5832 71.6327 63.8058 74.068 64.0771 76.6934H58.3873Z" fill="black"/>
<path opacity="0.7" d="M58.3788 76.0437C58.3916 76.2603 58.3916 76.4774 58.3788 76.694C58.3173 77.6464 57.8906 78.5383 57.1877 79.1839C56.4847 79.8294 55.5598 80.1788 54.6056 80.1592C53.5998 80.1404 52.6282 79.7908 51.841 79.1645C51.0538 78.5381 50.4948 77.6699 50.2506 76.694C50.1852 76.4827 50.145 76.2645 50.1308 76.0437C50.0736 75.5198 50.1287 74.9897 50.2922 74.4886C50.4558 73.9876 50.7242 73.5271 51.0795 73.1378C51.4348 72.7485 51.8689 72.4393 52.3529 72.2308C52.837 72.0222 53.3599 71.9191 53.8869 71.9283C55.0096 71.9454 56.087 72.3739 56.9149 73.1324C57.7428 73.8909 58.2637 74.9268 58.3788 76.0437Z" fill="black"/>
<path opacity="0.7" d="M60.6122 72.005C60.6584 72.4321 60.6132 72.8641 60.4796 73.2724C60.346 73.6807 60.1271 74.0559 59.8374 74.3731C59.5477 74.6903 59.1939 74.9422 58.7994 75.1122C58.4048 75.2822 57.9787 75.3663 57.5492 75.3589C56.637 75.3408 55.763 74.9898 55.0917 74.3721C54.4204 73.7543 53.9981 72.9124 53.9043 72.005C53.8567 71.5776 53.9009 71.145 54.034 70.7361C54.167 70.3272 54.3859 69.9514 54.6758 69.6339C54.9658 69.3164 55.3202 69.0645 55.7154 68.895C56.1106 68.7254 56.5374 68.6423 56.9674 68.651C57.88 68.6673 58.7551 69.0177 59.4268 69.6358C60.0985 70.2539 60.5202 71.0968 60.6122 72.005Z" fill="white"/>
<path d="M47.3672 54.2344H43.9961V55.09H47.3672V54.2344Z" fill="#0C9CFF"/>
<path d="M61.8524 54.2344H50.8579V55.09H61.8524V54.2344Z" fill="#0C9CFF"/>
<path d="M202.865 116.924L203.156 117.275L203.549 117.729C203.832 118.028 204.105 118.345 204.405 118.636C204.995 119.252 205.637 119.851 206.287 120.458C207.587 121.656 208.949 122.785 210.368 123.838C211.814 124.916 213.337 125.9 214.86 126.875C215.716 127.337 216.418 127.825 217.222 128.27L219.078 129.296C219.348 129.415 219.652 129.434 219.934 129.348C220.533 129.168 223.972 125.763 225.068 124.497C227.498 121.716 231.177 118.054 233.162 114.939L235.378 117.994C233.977 121.81 232.118 125.441 229.842 128.809C228.618 130.629 227.15 132.273 225.478 133.694C224.475 134.539 223.343 135.218 222.124 135.705C220.58 136.321 218.884 136.45 217.265 136.073C216.846 135.971 216.437 135.833 216.041 135.662L215.271 135.328L213.885 134.695C212.952 134.285 212.054 133.788 211.147 133.335C209.334 132.367 207.574 131.302 205.876 130.144C204.165 128.967 202.522 127.692 200.957 126.328C200.144 125.617 199.417 124.899 198.672 124.12C198.304 123.735 197.928 123.333 197.569 122.914L197.038 122.263C196.841 122.024 196.696 121.844 196.431 121.476L202.865 116.924Z" fill="#FFB573"/>
<path d="M232.811 115.409L236.781 106.922L240.571 113.715C240.571 113.715 238.081 117.993 235.377 117.993L232.811 115.409Z" fill="#FFB573"/>
<path d="M241.281 103.396L245.285 108.547L240.605 113.706L236.815 106.922L241.281 103.396Z" fill="#FFB573"/>
<path d="M239.887 116.051H246.193C246.37 116.05 246.541 115.983 246.673 115.863C246.804 115.743 246.886 115.578 246.903 115.401L248.212 100.283C248.221 100.184 248.21 100.084 248.179 99.9897C248.147 99.8955 248.097 99.8089 248.03 99.7355C247.963 99.6621 247.881 99.6036 247.79 99.5637C247.699 99.5238 247.601 99.5035 247.502 99.5039H241.204C241.025 99.5054 240.853 99.5738 240.722 99.6957C240.59 99.8176 240.509 99.9842 240.494 100.163L239.168 115.273C239.16 115.372 239.172 115.472 239.205 115.566C239.237 115.66 239.289 115.747 239.356 115.82C239.424 115.893 239.506 115.952 239.597 115.991C239.688 116.031 239.787 116.052 239.887 116.051Z" fill="#0C9CFF"/>
<path opacity="0.3" d="M239.955 114.537H246.269L247.45 101.027H241.136L239.955 114.537Z" fill="white"/>
<path d="M239.545 112.621L240.666 112.048C241.236 111.758 241.763 111.389 242.231 110.953L242.437 110.209C242.317 110.01 242.137 109.856 241.923 109.768C241.708 109.68 241.472 109.664 241.247 109.721L240.315 109.978L235.686 110.328L235.575 112.279L236.927 114.367H237.389C237.898 114.385 238.397 114.218 238.793 113.897C239.189 113.577 239.456 113.123 239.545 112.621Z" fill="#FFB573"/>
<path d="M194.788 108.667C197.997 108.085 220.628 127.704 220.628 127.704L213.92 137.544C213.92 137.544 189.176 120.312 189.963 116.154C190.724 111.781 190.117 109.523 194.788 108.667Z" fill="#263238"/>
<path opacity="0.2" d="M197.646 114.939L197.397 125.207C199.964 127.2 209.239 134.31 209.239 134.31L197.646 114.939Z" fill="black"/>
<path d="M179.704 312.567L187.293 313.311L189.706 295.711L182.108 294.967L179.704 312.567Z" fill="#FFB573"/>
<path d="M104.984 209.295L103.042 216.687L119.461 223.763L122.866 216.26L104.984 209.295Z" fill="#FFB573"/>
<path d="M192.726 314.868C193.379 314.948 194.04 314.803 194.6 314.457C194.721 314.352 194.815 314.219 194.874 314.07C194.934 313.922 194.957 313.761 194.942 313.601C194.942 313.501 194.915 313.403 194.864 313.318C194.812 313.232 194.739 313.161 194.651 313.114C193.736 312.566 190.638 314.038 190.288 314.2C190.254 314.216 190.226 314.242 190.208 314.274C190.189 314.306 190.181 314.343 190.185 314.38C190.19 314.418 190.206 314.453 190.233 314.481C190.259 314.508 190.293 314.527 190.33 314.534C191.117 314.718 191.919 314.83 192.726 314.868ZM194.104 313.336C194.223 313.327 194.342 313.354 194.446 313.413C194.482 313.432 194.512 313.46 194.533 313.495C194.554 313.53 194.565 313.569 194.566 313.61C194.575 313.717 194.559 313.825 194.518 313.924C194.478 314.024 194.415 314.112 194.335 314.183C193.864 314.585 192.623 314.62 190.912 314.294C191.921 313.79 193.009 313.463 194.129 313.328L194.104 313.336Z" fill="#0C9CFF"/>
<path d="M190.365 314.5H190.433C191.357 314.115 193.214 312.524 193.094 311.651C193.06 311.5 192.976 311.364 192.854 311.268C192.733 311.171 192.582 311.119 192.426 311.121C192.248 311.088 192.065 311.093 191.889 311.138C191.714 311.182 191.55 311.264 191.408 311.377C190.424 312.139 190.193 314.201 190.176 314.278C190.168 314.309 190.168 314.342 190.175 314.373C190.183 314.404 190.198 314.433 190.219 314.458C190.239 314.474 190.262 314.487 190.287 314.494C190.312 314.502 190.339 314.504 190.365 314.5ZM192.255 311.446H192.358C192.692 311.497 192.709 311.626 192.709 311.668C192.786 312.19 191.52 313.457 190.57 313.961C190.661 313.094 191.027 312.279 191.614 311.634C191.804 311.497 192.04 311.438 192.272 311.472L192.255 311.446Z" fill="#0C9CFF"/>
<path d="M186.916 310.247L180.072 310.537C179.924 310.539 179.782 310.595 179.673 310.694C179.564 310.794 179.496 310.93 179.481 311.077L177.838 320.634C177.829 320.796 177.852 320.959 177.906 321.112C177.96 321.266 178.044 321.407 178.153 321.528C178.262 321.649 178.394 321.747 178.541 321.817C178.688 321.887 178.848 321.926 179.011 321.934H179.147C182.134 321.78 183.571 321.558 187.353 321.429C189.671 321.352 196.764 322.191 199.93 321.472C203.096 320.753 202.497 317.613 201.136 317.639C196.739 317.725 191.665 314.858 189.158 311.504C188.722 311.222 187.395 310.221 186.916 310.247Z" fill="#263238"/>
<path d="M106.533 217.654L110.023 211.725C110.103 211.6 110.131 211.449 110.104 211.303C110.078 211.157 109.997 211.027 109.878 210.938L102.759 204.375C102.495 204.189 102.168 204.113 101.848 204.164C101.528 204.215 101.241 204.389 101.048 204.649L100.971 204.769C99.4824 207.336 98.892 208.688 96.9498 211.93C95.752 213.924 91.1831 219.46 90.105 222.48C89.027 225.5 91.9531 226.758 92.6718 225.577C94.9905 221.83 100.15 219.126 104.342 218.801C104.744 218.647 106.293 218.074 106.533 217.654Z" fill="#263238"/>
<path opacity="0.2" d="M189.706 295.71L188.465 304.788L180.867 304.044L182.099 294.975L189.706 295.71Z" fill="black"/>
<path opacity="0.2" d="M127.914 218.09L124.406 226.004L113.831 221.333L116.526 213.795L127.914 218.09Z" fill="black"/>
<path d="M199.64 117.694C203.977 125.069 198.673 131.29 194.241 153.33L165.646 153.407C166.108 141.531 166.057 131.931 160.992 108.565C160.86 107.989 160.861 107.391 160.993 106.815C161.125 106.24 161.385 105.702 161.755 105.241C162.124 104.78 162.593 104.409 163.126 104.155C163.659 103.901 164.243 103.77 164.834 103.773C167.195 103.773 170.164 103.85 173.184 104.159C177.948 104.548 182.679 105.266 187.345 106.306C189.875 106.916 192.361 107.694 194.788 108.633C196.26 109.13 198.031 113.134 199.64 117.694Z" fill="#263238"/>
<path d="M195.301 154.819C195.301 154.819 211.361 201.252 210.976 223.583C210.753 236.375 209.786 260.212 205.928 276.973C202.779 290.663 189.945 299.39 189.945 299.39L179.678 298.782C179.678 298.782 174.116 277.906 175.083 269.598C177.008 253.059 182.715 240.635 182.022 225.449C180.927 200.585 173.569 154.434 173.569 154.434L195.301 154.819Z" fill="#0C9CFF"/>
<path d="M177.616 301.46L192.118 302.315L193.436 297.96L177.231 296.463L177.616 301.46Z" fill="#263238"/>
<path opacity="0.2" d="M179.447 248.626C179.447 248.626 179.447 248.541 179.533 248.549C188.645 249.405 194.934 236.288 193.436 218.329L188.602 172.555L179.447 248.626Z" fill="black"/>
<path d="M188.097 154.433C188.097 154.433 200.863 236.084 174.322 245.273C160.316 250.577 148.534 244.828 134.579 238.65C126.511 235.082 116.432 225.423 116.432 225.423L120.308 214.873C127.279 212.988 134.573 212.62 141.698 213.795C155.302 215.9 155.875 219.784 160.71 216.85C170.874 191.729 153.386 171.871 165.27 154.391L188.097 154.433Z" fill="#0C9CFF"/>
<path d="M121.069 212.871L115.884 226.552L119.7 229.47L125.861 213.188L121.069 212.871Z" fill="#263238"/>
<path d="M118.93 139.093C117.638 141.001 111.084 139.71 111.084 139.71L109.689 131.59L117.741 134.815L118.93 139.093Z" fill="#FFB573"/>
<path d="M111.315 131.17L112.564 139.606L107.73 140.325C107.468 140.349 107.207 140.274 106.996 140.116C106.786 139.958 106.642 139.728 106.592 139.469L104.735 133.48C104.704 133.341 104.727 133.195 104.8 133.072C104.874 132.949 104.991 132.859 105.129 132.821L111.315 131.17Z" fill="#FFB573"/>
<path d="M109.15 134.995L111.905 135.483L114.515 133.523L113.505 132.805C112.821 132.317 112.34 131.596 112.154 130.777C111.96 129.919 111.842 129.046 111.803 128.167V127.876C111.77 127.618 111.653 127.378 111.471 127.193C111.289 127.007 111.051 126.887 110.793 126.85L110.109 127.354C109.681 128.287 109.989 129.374 109.938 130.101L109.826 131.513L108.723 131.992L109.15 134.995Z" fill="#FFB573"/>
<path d="M162.369 106.957L146.181 129.203L116.449 135.072V139.949C116.449 139.949 144.393 142.02 150.673 138.366C156.953 134.713 167.485 112.553 167.485 112.553L162.369 106.957Z" fill="#FFB573"/>
<path d="M162.181 64.1761C155.387 61.9002 147.507 66.1183 144.401 72.5696C141.296 79.0208 142.382 86.9351 145.882 93.181C146.934 95.0719 148.192 96.8516 149.056 98.828C150.016 100.787 150.226 103.03 149.646 105.134C148.945 107.179 148.226 108.488 145.693 108.163C145.693 108.163 145.693 106.759 146.66 106.931C146.66 106.931 144.607 108.069 143.803 107.324C144.735 108.762 147.225 108.24 148.021 106.717C149.21 104.449 147.02 101.378 144.453 101.403C141.886 101.429 139.798 104.03 139.884 106.588C139.991 107.868 140.446 109.094 141.2 110.133C141.954 111.172 142.979 111.985 144.162 112.483C143.468 112.598 142.757 112.479 142.137 112.146C141.518 111.814 141.027 111.285 140.739 110.644C141.903 113.69 145.702 115.033 148.91 114.434C152.119 113.835 154.831 111.782 157.347 109.703C160.769 106.896 164.269 103.346 164.192 98.9563C164.115 95.6794 162.01 92.8645 160.239 90.1009C158.468 87.3373 156.919 83.9662 158.048 80.8946C158.998 78.285 161.582 76.7107 163.858 75.1193C165.501 73.9813 168.837 71.4402 168.444 69.0359C168.042 66.7429 164.106 64.8178 162.181 64.1761Z" fill="#263238"/>
<path d="M146.874 140.325L142.391 128.458L143.418 128.543C144.248 128.613 145.082 128.442 145.818 128.05C146.553 127.659 147.161 127.063 147.567 126.336C150.99 120.244 159.828 104.783 162.318 104.013C165.869 102.961 169.522 105.801 170.874 110.002C171.892 113.091 161.462 126.336 156.654 133.865C152.385 140.53 146.874 140.325 146.874 140.325Z" fill="#263238"/>
<path d="M103.144 221.555V221.649C103.207 221.814 103.311 221.96 103.446 222.074C103.58 222.187 103.741 222.265 103.914 222.3C104.018 222.332 104.128 222.338 104.235 222.315C104.341 222.293 104.44 222.243 104.522 222.171C105.24 221.513 104.778 218.749 104.736 218.475C104.731 218.44 104.715 218.406 104.691 218.38C104.666 218.354 104.634 218.337 104.599 218.33C104.565 218.326 104.532 218.33 104.5 218.342C104.469 218.353 104.441 218.373 104.419 218.398C103.837 219.219 102.913 220.683 103.144 221.555ZM104.462 218.988C104.616 220.084 104.684 221.555 104.282 221.915C104.24 221.938 104.193 221.95 104.145 221.95C104.097 221.95 104.05 221.938 104.008 221.915C103.893 221.893 103.786 221.843 103.696 221.768C103.606 221.693 103.537 221.596 103.495 221.487C103.341 221.025 103.666 220.084 104.462 218.971V218.988Z" fill="#0C9CFF"/>
<path d="M104.47 218.834C104.693 219.758 105.566 221.332 106.336 221.52C106.476 221.549 106.622 221.528 106.749 221.463C106.877 221.398 106.978 221.291 107.037 221.161C107.104 221.039 107.144 220.904 107.152 220.765C107.161 220.626 107.14 220.486 107.089 220.357C106.738 219.296 104.719 218.423 104.633 218.38C104.605 218.365 104.575 218.357 104.543 218.357C104.512 218.357 104.481 218.365 104.453 218.38C104.428 218.401 104.409 218.427 104.397 218.457C104.385 218.487 104.381 218.519 104.385 218.551C104.406 218.648 104.435 218.742 104.47 218.834ZM106.798 220.545C106.815 220.62 106.817 220.699 106.804 220.775C106.791 220.852 106.763 220.925 106.721 220.99C106.609 221.195 106.498 221.195 106.413 221.178C105.891 221.075 105.095 219.783 104.838 218.885C105.497 219.219 106.55 219.843 106.772 220.494C106.766 220.51 106.766 220.528 106.772 220.545H106.798Z" fill="#0C9CFF"/>
<path d="M165.543 151.962L164.747 154.743C164.645 154.957 164.893 155.179 165.252 155.17H194.771C195.053 155.17 195.284 155.025 195.301 154.854L195.575 152.073C195.575 151.885 195.352 151.714 195.044 151.722H166.039C165.943 151.715 165.846 151.733 165.759 151.775C165.672 151.817 165.597 151.882 165.543 151.962Z" fill="#0C9CFF"/>
<path opacity="0.5" d="M165.543 151.962L164.747 154.743C164.645 154.957 164.893 155.179 165.252 155.17H194.771C195.053 155.17 195.284 155.025 195.301 154.854L195.575 152.073C195.575 151.885 195.352 151.714 195.044 151.722H166.039C165.943 151.715 165.846 151.733 165.759 151.775C165.672 151.817 165.597 151.882 165.543 151.962Z" fill="white"/>
<path d="M171.207 155.427H170.352C170.189 155.427 170.052 155.342 170.069 155.239L170.454 151.62C170.454 151.517 170.617 151.432 170.788 151.432H171.644C171.806 151.432 171.935 151.517 171.926 151.628L171.541 155.239C171.49 155.342 171.336 155.436 171.207 155.427Z" fill="#0C9CFF"/>
<path d="M192.486 155.427H191.631C191.477 155.427 191.34 155.342 191.357 155.239L191.742 151.628C191.742 151.517 191.896 151.432 192.059 151.432H192.914C193.077 151.432 193.214 151.517 193.196 151.62L192.811 155.231C192.794 155.342 192.657 155.427 192.486 155.427Z" fill="#0C9CFF"/>
<path d="M182.724 155.41H181.868C181.706 155.41 181.569 155.324 181.586 155.221L181.971 151.611C181.971 151.5 182.134 151.414 182.296 151.414H183.152C183.314 151.414 183.443 151.5 183.434 151.602L183.04 155.213C183.04 155.324 182.895 155.41 182.724 155.41Z" fill="#0C9CFF"/>
<path d="M174.518 88.5859C175.425 93.249 176.315 101.668 173.149 104.201C173.149 104.201 174.416 108.983 182.878 110.258C192.221 111.662 187.318 106.34 187.318 106.34C182.227 104.329 182.356 100.65 183.228 97.2617L174.518 88.5859Z" fill="#FFB573"/>
<path d="M173.184 104.158C177.699 104.444 182.186 105.068 186.608 106.023L193.008 107.931C194.146 110.224 192.281 114.939 186.925 115.837C186.925 115.837 173.432 117.694 169.454 103.799L173.184 104.158Z" fill="#FFB573"/>
<path opacity="0.2" d="M178.053 92.1367L183.186 97.2703C182.97 98.0652 182.829 98.8788 182.767 99.7003C180.816 99.127 177.685 96.9794 177.471 94.926C177.473 93.9664 177.671 93.0173 178.053 92.1367Z" fill="black"/>
<path d="M168.803 82.699C171.096 89.9374 171.901 93.0518 176.598 95.9009C183.597 100.179 191.999 95.7983 191.913 88.0294C191.845 81.0306 188.123 70.3698 180.174 69.2062C178.427 68.9443 176.642 69.1339 174.989 69.7569C173.336 70.38 171.869 71.4157 170.73 72.7656C169.59 74.1155 168.815 75.7346 168.477 77.4688C168.14 79.2031 168.252 80.9947 168.803 82.6733V82.699Z" fill="#FFB573"/>
<path d="M186.078 81.5703C186.887 82.8408 187.869 83.9926 188.996 84.9927C188.732 85.278 188.41 85.5023 188.051 85.6501C187.692 85.7979 187.305 85.8655 186.917 85.8483L186.078 81.5703Z" fill="#ED893E"/>
<path d="M185.265 89.7158C185.555 89.684 185.841 89.6267 186.121 89.5447C186.143 89.5397 186.163 89.5304 186.182 89.5173C186.2 89.5043 186.216 89.4877 186.227 89.4687C186.239 89.4496 186.247 89.4284 186.251 89.4062C186.255 89.384 186.254 89.3613 186.249 89.3394C186.237 89.2945 186.208 89.256 186.168 89.232C186.128 89.2081 186.08 89.2006 186.035 89.211C185.305 89.4124 184.537 89.4398 183.795 89.2913C183.052 89.1427 182.354 88.8222 181.757 88.3554C181.722 88.3204 181.674 88.3008 181.625 88.3008C181.575 88.3008 181.527 88.3204 181.492 88.3554C181.475 88.3722 181.461 88.3921 181.452 88.4142C181.443 88.4362 181.438 88.4599 181.438 88.4838C181.438 88.5077 181.443 88.5313 181.452 88.5534C181.461 88.5754 181.475 88.5954 181.492 88.6121C182.017 89.035 182.621 89.3501 183.269 89.5395C183.916 89.7289 184.595 89.7888 185.265 89.7158Z" fill="#263238"/>
<path d="M166.314 68.25C165.371 68.8599 164.588 69.6872 164.031 70.6624C163.474 71.6376 163.16 72.7322 163.114 73.8542C163.075 74.2833 163.142 74.7153 163.311 75.112C163.395 75.3082 163.529 75.4788 163.701 75.6065C163.872 75.7342 164.074 75.8145 164.286 75.8392C164.936 75.8392 165.415 75.2574 165.775 74.7098L167.435 72.143C168.118 71.3092 168.693 70.3921 169.146 69.4137C169.702 67.7281 167.332 67.5998 166.314 68.25Z" fill="#0C9CFF"/>
<path d="M167.126 69.9517C162.583 75.2051 160.547 89.7418 173.86 93.7973C176.085 92.0348 172.491 88.8263 170.968 84.7707C169.967 82.1184 175.041 77.1644 177.017 75.1281C178.994 73.0918 180.816 70.157 183.605 70.6276C184.313 70.8643 185.076 70.8852 185.796 70.6875C188.012 69.6865 186.934 68.3603 185.796 67.4362C184.05 66.1445 181.972 65.3786 179.806 65.2288C177.47 64.9535 175.101 65.2383 172.896 66.0595C170.691 66.8808 168.714 68.2149 167.126 69.9517Z" fill="#263238"/>
<path d="M181.902 68.1896C187.25 72.6473 180.191 72.7585 176.452 75.582C172.867 78.2943 175.383 82.7348 169.317 84.7968C164.363 86.2428 163.216 85.3701 161.847 84.4118C163.544 84.1182 165.095 83.2718 166.261 82.0043C167.426 80.7369 168.139 79.1196 168.29 77.4044C168.709 74.1531 175.793 63.0218 181.902 68.1896Z" fill="#263238"/>
<path d="M167.999 88.7845C168.837 89.9913 170.115 90.8209 171.558 91.0947C173.475 91.4284 174.21 89.6744 173.552 87.9632C172.927 86.4231 171.19 84.3953 169.334 84.8317C168.695 84.9968 168.148 85.4085 167.813 85.9763C167.478 86.5441 167.382 87.2218 167.545 87.8605C167.633 88.196 167.787 88.5103 167.999 88.7845Z" fill="#FFB573"/>
<path d="M180.987 68.6421C182.023 71.2774 185.009 70.9266 187.216 73.6816C188.576 75.3928 191.246 70.1137 187.61 68.0346C183.973 65.9555 179.362 64.5181 180.987 68.6421Z" fill="#263238"/>
<path d="M177.839 79.7659C177.915 79.7741 177.992 79.7577 178.058 79.7192C178.124 79.6808 178.176 79.6222 178.207 79.552C178.908 77.9948 181.013 77.6012 181.03 77.6012C181.124 77.5806 181.207 77.5248 181.261 77.4452C181.315 77.3656 181.336 77.2684 181.321 77.1734C181.302 77.0806 181.248 76.9989 181.169 76.9461C181.091 76.8932 180.995 76.8734 180.902 76.8911C180.791 76.8911 178.395 77.3959 177.539 79.2782C177.501 79.3657 177.499 79.4647 177.532 79.5541C177.566 79.6435 177.633 79.7164 177.719 79.7573H177.839V79.7659Z" fill="#263238"/>
<path d="M188.961 76.6168C189.024 76.6213 189.087 76.6086 189.143 76.5799C189.198 76.5512 189.245 76.5078 189.278 76.4542C189.305 76.4158 189.324 76.3722 189.335 76.3261C189.345 76.28 189.345 76.2324 189.336 76.1861C189.328 76.1398 189.31 76.0957 189.283 76.0565C189.257 76.0173 189.223 75.9838 189.184 75.958C188.71 75.6297 188.164 75.4202 187.592 75.3473C187.02 75.2743 186.439 75.34 185.898 75.5387C185.853 75.5563 185.812 75.583 185.778 75.6172C185.744 75.6513 185.717 75.6922 185.7 75.7372C185.682 75.7822 185.674 75.8303 185.676 75.8786C185.677 75.9269 185.689 75.9743 185.71 76.0179C185.748 76.1051 185.818 76.1738 185.907 76.2091C185.995 76.2444 186.093 76.2433 186.181 76.2061C186.606 76.0574 187.061 76.0124 187.508 76.0749C187.954 76.1374 188.379 76.3056 188.748 76.5655C188.814 76.5978 188.887 76.6153 188.961 76.6168Z" fill="#263238"/>
<path d="M224.135 123.451L219.121 126.3L213.911 137.509C213.911 137.509 218.942 140.709 222.912 138.116C226.882 135.524 224.135 123.451 224.135 123.451Z" fill="#0C9CFF"/>
<path opacity="0.5" d="M224.135 123.451L219.121 126.3L213.911 137.509C213.911 137.509 218.942 140.709 222.912 138.116C226.882 135.524 224.135 123.451 224.135 123.451Z" fill="white"/>
<path d="M136.461 126.918L142.391 128.629L148.012 140.257C148.012 140.257 143.495 144.441 138.6 140.445C134.939 137.416 136.461 126.918 136.461 126.918Z" fill="#0C9CFF"/>
<g opacity="0.5">
<path opacity="0.5" d="M136.461 126.918L142.391 128.629L148.012 140.257C148.012 140.257 143.495 144.441 138.6 140.445C134.939 137.416 136.461 126.918 136.461 126.918Z" fill="white"/>
</g>
<path d="M188.619 79.5162C189.03 79.4392 189.475 79.9012 189.569 80.5344C189.663 81.1675 189.432 81.7493 189.021 81.8178C188.611 81.8862 188.166 81.4328 188.072 80.7996C187.978 80.1665 188.209 79.5761 188.619 79.5162Z" fill="#263238"/>
<path d="M189.885 78.8926L188.439 79.6027C189.312 80.2188 189.885 78.8926 189.885 78.8926Z" fill="#263238"/>
<path d="M181.475 80.9889C181.885 80.9119 182.33 81.3739 182.424 82.007C182.519 82.6402 182.288 83.222 181.877 83.2904C181.466 83.3589 181.021 82.9054 180.927 82.2723C180.833 81.6391 181.047 81.0659 181.475 80.9889Z" fill="#263238"/>
<path d="M182.724 80.3633L181.278 81.0734C182.151 81.6895 182.724 80.3633 182.724 80.3633Z" fill="#263238"/>
<path d="M145.248 113.725C144.443 113.73 143.644 113.579 142.896 113.28C140.243 112.194 139.011 109.439 139.473 105.708C139.488 105.596 139.547 105.494 139.637 105.425C139.726 105.356 139.84 105.326 139.952 105.34C140.008 105.347 140.063 105.364 140.112 105.392C140.161 105.42 140.204 105.457 140.238 105.502C140.273 105.546 140.297 105.598 140.312 105.652C140.326 105.707 140.329 105.764 140.32 105.819C139.875 109.131 140.919 111.561 143.186 112.485C144.502 112.935 145.927 112.957 147.257 112.549C148.586 112.14 149.752 111.321 150.587 110.209C152.735 107.351 152.033 103.295 148.688 99.0858C139.927 88.0914 140.508 82.2476 141.749 77.6273C143.546 70.9194 148.808 63.2361 163.695 64.7163C163.809 64.7277 163.913 64.7836 163.985 64.8719C164.057 64.9601 164.092 65.0734 164.08 65.1869C164.069 65.3003 164.013 65.4046 163.925 65.4769C163.836 65.5491 163.723 65.5833 163.61 65.5719C149.33 64.1516 144.282 71.4756 142.57 77.8584C141.338 82.4786 140.859 87.8775 149.355 98.5639C154.489 105.007 152.41 109.225 151.272 110.731C150.56 111.653 149.648 112.402 148.604 112.92C147.561 113.439 146.414 113.714 145.248 113.725Z" fill="#263238"/>
</svg>
