<svg width="378" height="281" viewBox="0 0 378 281" fill="none" xmlns="http://www.w3.org/2000/svg">
<path d="M377.121 246.939H0V247.128H377.121V246.939Z" fill="#EBEBEB"/>
<path d="M339.333 259.074H314.353V259.263H339.333V259.074Z" fill="#EBEBEB"/>
<path d="M249.819 261.127H243.265V261.316H249.819V261.127Z" fill="#EBEBEB"/>
<path d="M313.598 252.076H299.125V252.265H313.598V252.076Z" fill="#EBEBEB"/>
<path d="M72.1431 253.342H39.5674V253.53H72.1431V253.342Z" fill="#EBEBEB"/>
<path d="M83.6376 253.342H78.8633V253.53H83.6376V253.342Z" fill="#EBEBEB"/>
<path d="M169.817 256.525H99.1602V256.714H169.817V256.525Z" fill="#EBEBEB"/>
<path d="M178.755 213.299H33.1185C31.9776 213.297 30.8841 212.843 30.0781 212.035C29.272 211.228 28.8193 210.134 28.8193 208.993V4.269C28.8293 3.13464 29.2864 2.05001 30.0913 1.2507C30.8963 0.451382 31.9841 0.00194322 33.1185 0H178.755C179.897 0 180.993 0.453742 181.8 1.26141C182.608 2.06907 183.062 3.1645 183.062 4.30672V208.993C183.062 210.135 182.608 211.23 181.8 212.038C180.993 212.846 179.897 213.299 178.755 213.299ZM33.1185 0.150849C32.0276 0.152847 30.9821 0.587603 30.2114 1.35969C29.4407 2.13178 29.0079 3.17811 29.0079 4.269V208.993C29.0079 210.084 29.4407 211.13 30.2114 211.902C30.9821 212.674 32.0276 213.109 33.1185 213.111H178.755C179.847 213.109 180.893 212.674 181.665 211.902C182.437 211.131 182.871 210.084 182.873 208.993V4.269C182.871 3.17741 182.437 2.1311 181.665 1.35923C180.893 0.587358 179.847 0.152843 178.755 0.150849H33.1185Z" fill="#EBEBEB"/>
<path d="M341.905 213.299H196.261C195.12 213.297 194.025 212.843 193.218 212.036C192.411 211.229 191.957 210.134 191.955 208.993V4.269C191.966 3.13396 192.425 2.04933 193.231 1.25022C194.038 0.451118 195.126 0.00192202 196.261 0H341.905C343.038 0.00392545 344.124 0.454241 344.928 1.25334C345.731 2.05245 346.187 3.13595 346.197 4.269V208.993C346.197 210.132 345.745 211.225 344.941 212.033C344.136 212.84 343.045 213.295 341.905 213.299ZM196.261 0.150849C195.17 0.152843 194.123 0.587358 193.352 1.35923C192.58 2.1311 192.145 3.17741 192.143 4.269V208.993C192.145 210.084 192.58 211.131 193.352 211.902C194.123 212.674 195.17 213.109 196.261 213.111H341.905C342.997 213.109 344.043 212.674 344.815 211.902C345.587 211.131 346.021 210.084 346.023 208.993V4.269C346.021 3.17741 345.587 2.1311 344.815 1.35923C344.043 0.587358 342.997 0.152843 341.905 0.150849H196.261Z" fill="#EBEBEB"/>
<path d="M268.088 12.8301H61.75V133.199H268.088V12.8301Z" fill="#EBEBEB"/>
<path d="M262.431 19.1953H67.3989V126.833H262.431V19.1953Z" fill="#FAFAFA"/>
<path d="M100.51 126.833H84.3618L99.5673 19.1953H115.716L100.51 126.833Z" fill="white"/>
<path d="M140.41 126.833H124.261L139.467 19.1953H155.615L140.41 126.833Z" fill="white"/>
<path d="M233.023 126.833H224.953L240.151 19.1953H248.229L233.023 126.833Z" fill="white"/>
<path d="M154.612 126.833H146.534L161.739 19.1953H169.817L154.612 126.833Z" fill="white"/>
<path d="M118.982 19.1953H111.372V126.833H118.982V19.1953Z" fill="#EBEBEB"/>
<path d="M118.974 126.834H120.671L120.671 19.1962H118.974L118.974 126.834Z" fill="#E0E0E0"/>
<path d="M268.095 133.199H269.31V12.8299H268.095V133.199Z" fill="#E0E0E0"/>
<path d="M309.54 176.879C307.534 154.644 306.131 118.568 307.217 106.5C307.236 106.296 307.295 106.098 307.392 105.918C307.49 105.738 307.622 105.579 307.783 105.452C307.998 105.292 308.256 105.198 308.523 105.181C308.791 105.164 309.058 105.225 309.292 105.356C309.526 105.488 309.717 105.685 309.841 105.923C309.966 106.16 310.018 106.429 309.993 106.697C309.804 112.678 309.586 127.619 310.747 153.407C311.335 166.229 312.195 175.023 311.607 176.879H309.54Z" fill="#F0F0F0"/>
<path d="M303.348 130.846C298.544 124.813 288.731 120.544 278.73 120.559C274.8 120.559 290.677 127.566 297.277 135.289C302.406 141.285 308.183 151.377 310.152 156.981C308.877 145.192 308.153 136.865 303.348 130.846Z" fill="#F0F0F0"/>
<path d="M313.395 130.785C318.154 124.163 329.128 119.064 341.007 118.491C345.669 118.265 327.929 126.576 321.307 135.084C316.163 141.706 310.891 152.666 309.442 158.677C309.095 146.209 308.643 137.407 313.395 130.785Z" fill="#F0F0F0"/>
<path d="M303.348 140.515C298.544 134.481 288.731 130.212 278.73 130.234C274.8 130.234 290.677 137.241 297.277 144.957C302.406 150.991 308.183 161.053 310.152 166.649C308.877 154.868 308.153 146.541 303.348 140.515Z" fill="#F0F0F0"/>
<path d="M313.395 140.998C318.154 134.376 329.128 129.277 341.007 128.704C345.669 128.477 327.929 136.789 321.307 145.297C316.163 151.919 310.891 162.878 309.442 168.89C309.095 156.422 308.643 147.62 313.395 140.998Z" fill="#F0F0F0"/>
<path d="M304.215 108.089C301.07 103.616 294.327 100.124 287.298 99.6491C284.53 99.4605 295.429 105.163 299.773 110.917C303.144 115.39 306.825 122.774 307.994 126.809C307.549 118.46 307.361 112.562 304.215 108.089Z" fill="#F0F0F0"/>
<path d="M310.476 109.984C313.824 105.316 321.563 101.725 329.935 101.326C333.223 101.16 320.718 107.02 316.049 113.024C312.429 117.685 308.711 125.416 307.685 129.617C307.443 120.861 307.127 114.646 310.476 109.984Z" fill="#F0F0F0"/>
<path d="M303.137 113.89C299.064 108.791 290.753 105.163 282.29 105.186C278.964 105.186 292.404 111.114 297.993 117.653C302.33 122.729 307.233 131.275 308.892 136.019C307.814 126.048 307.203 118.996 303.137 113.89Z" fill="#F0F0F0"/>
<path d="M311.404 116.614C315.431 111.002 324.723 106.688 334.785 106.205C338.73 106.009 323.705 113.054 318.101 120.264C313.749 125.868 309.277 135.145 308.055 140.237C307.73 129.677 307.376 122.188 311.404 116.614Z" fill="#F0F0F0"/>
<path d="M302.866 120.972C298.476 115.466 289.508 111.559 280.374 111.574C276.784 111.574 291.288 117.978 297.314 125.03C301.998 130.513 307.278 139.73 309.081 144.844C307.919 134.081 307.255 126.471 302.866 120.972Z" fill="#F0F0F0"/>
<path d="M312.037 123.983C316.502 117.761 326.828 112.971 337.998 112.428C342.38 112.217 325.696 120.031 319.474 128.041C314.639 134.263 309.669 144.566 308.311 150.215C307.987 138.495 307.564 130.213 312.037 123.983Z" fill="#F0F0F0"/>
<path d="M323.049 173.121L322.295 179.366C322.256 180.039 321.961 180.673 321.47 181.136C320.979 181.598 320.33 181.856 319.655 181.855H301.025C300.351 181.854 299.703 181.596 299.212 181.134C298.721 180.671 298.426 180.039 298.385 179.366L297.631 173.121C297.611 172.761 297.664 172.401 297.787 172.063C297.91 171.725 298.102 171.415 298.349 171.153C298.596 170.891 298.894 170.682 299.224 170.54C299.555 170.397 299.911 170.323 300.271 170.322H320.394C320.756 170.32 321.114 170.391 321.447 170.533C321.78 170.674 322.08 170.883 322.329 171.145C322.578 171.408 322.77 171.718 322.894 172.058C323.018 172.398 323.071 172.76 323.049 173.121Z" fill="#E6E6E6"/>
<path d="M324.165 174.441H296.53C296.341 174.432 296.161 174.355 296.023 174.225C295.884 174.095 295.797 173.921 295.776 173.732L295.12 167.789C295.107 167.68 295.117 167.571 295.149 167.467C295.18 167.362 295.233 167.266 295.304 167.183C295.375 167.1 295.462 167.033 295.56 166.985C295.658 166.938 295.765 166.911 295.874 166.906H324.822C324.93 166.911 325.037 166.938 325.135 166.985C325.233 167.033 325.32 167.1 325.391 167.183C325.462 167.266 325.515 167.362 325.547 167.467C325.578 167.571 325.588 167.68 325.576 167.789L324.92 173.732C324.9 173.921 324.813 174.097 324.674 174.227C324.536 174.357 324.355 174.433 324.165 174.441Z" fill="#F5F5F5"/>
<path d="M178.529 246.939H190.529V181.856H178.529V246.939Z" fill="#E6E6E6"/>
<path d="M182.127 246.939H178.529V234.486H185.898L182.127 246.939Z" fill="#F0F0F0"/>
<path d="M328.05 246.939H340.05V181.856H328.05V246.939Z" fill="#E6E6E6"/>
<path d="M178.529 239.297L331.188 239.297V181.861L178.529 181.861V239.297Z" fill="#F0F0F0"/>
<path d="M327.59 246.939H331.187V234.486H323.818L327.59 246.939Z" fill="#F0F0F0"/>
<path d="M181.319 208.879L328.396 208.879V185.897L181.319 185.897V208.879Z" fill="#E6E6E6"/>
<path d="M202.891 193.039H304.427C307.934 193.039 311.29 190.203 313.704 185.195H193.599C196.012 190.203 199.369 193.039 202.891 193.039Z" fill="#F0F0F0"/>
<path d="M181.319 235.58L328.396 235.58V212.598L181.319 212.598V235.58Z" fill="#E6E6E6"/>
<path d="M202.891 219.741H304.427C307.934 219.741 311.29 216.905 313.704 211.896H193.599C196.012 216.905 199.369 219.741 202.891 219.741Z" fill="#F0F0F0"/>
<path d="M214.702 166.605C214.702 166.605 215.358 181.856 240.512 181.856C265.666 181.856 266.33 166.605 266.33 166.605H214.702Z" fill="#F5F5F5"/>
<path d="M214.702 158.686C214.702 158.686 215.358 173.936 240.512 173.936C265.666 173.936 266.33 158.686 266.33 158.686H214.702Z" fill="#F5F5F5"/>
<path d="M144.354 197.445H119.253V201.744H144.354V197.445Z" fill="#E6E6E6"/>
<path d="M71.9022 246.939H76.5332L76.5332 148.081H71.9022L71.9022 246.939Z" fill="#E6E6E6"/>
<path d="M55.859 201.744H119.253V197.445H55.859V201.744Z" fill="#F5F5F5"/>
<path d="M144.354 220.955H119.253V225.254H144.354V220.955Z" fill="#E6E6E6"/>
<path d="M55.859 225.246H119.253V220.947H55.859V225.246Z" fill="#F5F5F5"/>
<path d="M144.354 150.434H119.253V154.733H144.354V150.434Z" fill="#E6E6E6"/>
<path d="M55.859 154.725H119.253V150.425H55.859V154.725Z" fill="#F5F5F5"/>
<path d="M144.354 173.936H119.253V178.235H144.354V173.936Z" fill="#E6E6E6"/>
<path d="M55.859 178.234H119.253V173.935H55.859V178.234Z" fill="#F5F5F5"/>
<path d="M135.303 246.939H139.934V148.081H135.303V246.939Z" fill="#E6E6E6"/>
<path d="M114.622 246.939H119.253L119.253 148.081H114.622L114.622 246.939Z" fill="#F5F5F5"/>
<path d="M55.8592 246.939H60.4902L60.4902 148.081H55.8592L55.8592 246.939Z" fill="#F5F5F5"/>
<path d="M188.56 281C269.326 281 334.8 277.177 334.8 272.462C334.8 267.746 269.326 263.924 188.56 263.924C107.794 263.924 42.3203 267.746 42.3203 272.462C42.3203 277.177 107.794 281 188.56 281Z" fill="#F5F5F5"/>
<path d="M157.191 64.4061C157.983 61.9473 165.103 55.7625 173.898 58.8851C182.692 62.0076 180.686 74.3093 179.735 77.4318C178.785 80.5544 173.151 89.9673 166.604 87.9912C160.057 86.0151 146.7 71.7298 157.191 64.4061Z" fill="#263238"/>
<path d="M176.432 74.0007C177.013 72.1829 182.262 67.6273 188.741 69.9278C195.22 72.2282 193.742 81.2942 193.04 83.5946C192.339 85.8951 188.19 92.8265 183.363 91.3784C178.536 89.9302 168.701 79.3935 176.432 74.0007Z" fill="#263238"/>
<path d="M184.261 66.7598L179.788 72.8314C179.788 72.8314 177.578 67.8308 184.261 66.7598Z" fill="#263238"/>
<path d="M172.11 84.2348C170.888 83.0582 164.839 81.6855 160.713 86.226C156.588 90.7665 161.566 97.2983 163.089 98.8067C164.613 100.315 170.79 104.026 173.98 100.858C177.171 97.6905 180.459 85.2304 172.11 84.2348Z" fill="#263238"/>
<path d="M170.254 106.349L170.088 106.779L169.938 107.149C169.832 107.39 169.734 107.631 169.628 107.858C169.417 108.325 169.191 108.763 168.965 109.208C168.504 110.09 168.029 110.95 167.524 111.795C166.504 113.466 165.375 115.069 164.145 116.592C163.549 117.346 162.893 118.1 162.259 118.855C161.626 119.609 160.932 120.28 160.215 120.944C158.817 122.297 157.33 123.557 155.765 124.715C155.547 124.873 155.471 124.964 154.943 125.311C154.417 125.642 153.834 125.872 153.224 125.99C152.535 126.118 151.826 126.089 151.149 125.907C150.594 125.746 150.071 125.491 149.603 125.152C148.964 124.694 148.408 124.131 147.959 123.486C147.611 123.008 147.301 122.503 147.031 121.977C146.151 120.164 145.466 118.263 144.987 116.305C144.076 112.662 143.473 108.948 143.185 105.203L146.616 104.592C147.657 107.993 148.774 111.44 150.048 114.661C150.625 116.187 151.337 117.659 152.175 119.058C152.345 119.323 152.534 119.575 152.741 119.812C152.907 119.993 153.073 120.107 153.035 120.046C152.945 119.967 152.836 119.913 152.718 119.888C152.475 119.809 152.215 119.793 151.964 119.843C151.802 119.87 151.644 119.921 151.496 119.993C151.345 120.091 151.617 119.873 151.753 119.745C154.296 117.52 156.601 115.038 158.631 112.338C159.64 110.992 160.574 109.592 161.43 108.144C161.857 107.43 162.264 106.706 162.652 105.972L163.195 104.878L163.451 104.343L163.655 103.883L170.254 106.349Z" fill="#FFB573"/>
<path d="M169.878 95.9032C163.972 98.5958 161.687 106.093 161.483 106.508L168.807 119.82C168.807 119.82 175.934 114.774 176.492 110.121C177.02 106.191 173.762 94.1307 169.878 95.9032Z" fill="#0C9CFF"/>
<path d="M146.835 105.376L148.691 99.7793L141.661 101.288C141.661 101.288 141.503 106.145 143.758 107.902L144.957 107.405C145.399 107.223 145.795 106.948 146.12 106.597C146.444 106.247 146.688 105.83 146.835 105.376Z" fill="#FFB573"/>
<path d="M146.956 93.791L141.94 95.8803L141.661 101.273L148.691 99.7721L146.956 93.791Z" fill="#FFB573"/>
<path d="M200.462 49.2159L195.582 43.627L193.319 50.4151C193.319 50.4151 197.136 53.7036 200.243 50.8375L200.462 49.2159Z" fill="#FFB573"/>
<path d="M192.799 40.9941L189.344 45.6704L193.296 50.4448L195.582 43.6264L192.799 40.9941Z" fill="#FFB573"/>
<path d="M260.756 250.951L255.793 255.492L241.825 246.214L246.788 241.674L260.756 250.951Z" fill="#FFB573"/>
<path d="M310.408 190.086L310.106 196.957L294.101 198.466L294.403 191.594L310.408 190.086Z" fill="#FFB573"/>
<path d="M308.432 197.258L306.569 189.761C306.534 189.633 306.548 189.496 306.607 189.378C306.667 189.26 306.769 189.168 306.893 189.12L312.618 186.789C312.762 186.736 312.916 186.713 313.069 186.723C313.223 186.732 313.373 186.774 313.509 186.845C313.646 186.916 313.766 187.015 313.862 187.135C313.957 187.256 314.027 187.395 314.066 187.544C314.669 190.168 314.82 191.466 315.65 194.762C316.155 196.791 317.566 201.203 318.267 204.001C318.969 206.799 316.231 207.644 315.688 206.535C313.266 201.588 311.041 199.642 309.126 198.239C308.792 197.998 308.548 197.653 308.432 197.258Z" fill="#263238"/>
<path d="M253.515 254.935L256.871 247.498C256.933 247.365 257.036 247.256 257.166 247.186C257.295 247.117 257.443 247.091 257.588 247.113L264.202 248.146C264.358 248.172 264.505 248.233 264.633 248.326C264.761 248.418 264.866 248.539 264.939 248.679C265.012 248.818 265.051 248.973 265.055 249.131C265.058 249.288 265.024 249.444 264.957 249.587C263.735 252.166 263.011 253.358 261.54 256.639C260.627 258.645 257.882 265.298 256.63 268.073C255.378 270.849 252.406 270.117 252.663 268.888C253.817 263.337 254.171 258.389 253.417 256.171C253.294 255.761 253.329 255.32 253.515 254.935Z" fill="#263238"/>
<path opacity="0.2" d="M241.832 246.214L249.224 251.132L254.021 246.478L246.795 241.674L241.832 246.214Z" fill="black"/>
<path opacity="0.2" d="M294.403 191.585L294.101 198.464L302.352 197.687L302.654 190.809L294.403 191.585Z" fill="black"/>
<path d="M165.744 99.5614C165.744 99.5614 168.829 114.797 184.246 128.223C186.192 129.912 185.807 134.256 188.485 133.894C197.86 127.981 207.461 122.158 212.017 119.277C212.13 114.088 208.577 114.925 207.74 112.135C205.734 105.49 200.236 98.0001 194.549 81.6406C190.811 83.0419 187.18 84.7158 183.688 86.6488C179.969 88.676 176.386 90.9435 172.962 93.437C170.45 95.3505 168.041 97.3948 165.744 99.5614Z" fill="#0C9CFF"/>
<path d="M174.984 75.2363C176.492 79.1131 179.804 85.856 183.673 86.6329C183.673 86.6329 186.011 97.8108 181.41 103.98C174.177 102.781 172.955 93.3683 172.955 93.3683C176.221 90.0194 174.32 87.2288 171.959 84.9736L174.984 75.2363Z" fill="#FFB573"/>
<path d="M176.96 104.592C176.553 104.577 176.154 104.48 175.786 104.306C175.417 104.132 175.088 103.886 174.818 103.582C173.415 102.141 173.898 99.9462 174.411 97.6156C174.923 95.285 175.436 92.9469 174.411 90.8652C174.386 90.8142 174.382 90.7553 174.4 90.7016C174.419 90.6478 174.458 90.6036 174.509 90.5786C174.56 90.5536 174.618 90.5498 174.672 90.5682C174.726 90.5866 174.77 90.6256 174.795 90.6766C175.904 92.8865 175.346 95.451 174.848 97.7061C174.35 99.9613 173.905 102.013 175.15 103.28C175.358 103.533 175.615 103.74 175.906 103.891C176.196 104.041 176.515 104.131 176.841 104.155C177.167 104.179 177.495 104.137 177.805 104.03C178.114 103.924 178.399 103.756 178.642 103.536C181.116 101.704 182.692 96.5371 180.905 93.3542C179.268 90.3372 180.905 87.7275 181.659 86.4604C181.799 86.2582 181.92 86.0436 182.021 85.8193C182.014 85.7925 182.013 85.7647 182.017 85.7375C182.022 85.7102 182.032 85.6842 182.047 85.6609C182.061 85.6376 182.081 85.6176 182.104 85.602C182.126 85.5865 182.152 85.5757 182.179 85.5704C182.207 85.5649 182.236 85.5651 182.265 85.5708C182.293 85.5766 182.32 85.5878 182.343 85.604C182.367 85.6201 182.388 85.6407 182.403 85.6647C182.419 85.6887 182.43 85.7156 182.436 85.7439C182.481 85.9475 182.33 86.1964 182.028 86.6867C181.221 87.9764 179.72 90.39 181.274 93.1505C183.122 96.5069 181.463 101.945 178.861 103.883C178.32 104.318 177.653 104.566 176.96 104.592Z" fill="#263238"/>
<path opacity="0.2" d="M173.762 79.1953L171.967 85.003C172.517 85.525 173.021 86.0927 173.475 86.7C174.81 85.5611 176.191 82.8458 175.376 81.2016C174.959 80.4439 174.413 79.7649 173.762 79.1953Z" fill="black"/>
<path d="M174.659 67.4303C176.749 73.9318 177.774 76.632 175.844 81.1424C172.94 87.9306 164.53 89.0695 160.51 83.3297C156.92 78.1631 154.106 68.4033 159.333 63.4554C160.479 62.3588 161.887 61.5733 163.422 61.1735C164.957 60.7737 166.569 60.7729 168.104 61.1711C169.64 61.5693 171.048 62.3534 172.195 63.4489C173.342 64.5443 174.191 65.9148 174.659 67.4303Z" fill="#FFB573"/>
<path d="M161.189 65.8396C161.634 69.3921 169.274 73.4725 176.356 71.8057C181.304 70.6366 177.458 61.9477 171.575 60.4242C165.691 58.9006 160.457 60.0244 161.189 65.8396Z" fill="#263238"/>
<path d="M164.462 65.8163L149.513 67.6792C149.513 67.6792 153.729 57.595 164.462 65.8163Z" fill="#263238"/>
<path d="M163.512 65.6195L151.346 70.8992C151.346 70.8992 152.447 61.3203 163.512 65.6195Z" fill="#263238"/>
<path d="M162.259 65.6191L158.865 70.4312C158.865 70.4312 157.055 66.5695 162.259 65.6191Z" fill="#263238"/>
<path d="M164.115 65.6211L151.602 62.7097C151.602 62.7097 157.975 55.8989 164.115 65.6211Z" fill="#263238"/>
<path d="M162.833 65.9074L156.972 58.6365C156.972 58.6365 163.67 57.5655 162.833 65.9074Z" fill="#263238"/>
<path d="M177.887 72.7713C178.227 74.0438 178.051 75.399 177.397 76.5425C176.522 78.051 174.863 77.5607 174.094 76.0975C173.4 74.7776 173.023 72.3942 174.395 71.3835C174.701 71.1733 175.055 71.0418 175.424 71.0004C175.793 70.959 176.166 71.0091 176.511 71.1463C176.857 71.2834 177.163 71.5034 177.403 71.7868C177.643 72.0702 177.809 72.4083 177.887 72.7713Z" fill="#FFB573"/>
<path d="M189.02 134.437C189.02 134.437 192.037 195.712 203.592 213.195C215.66 231.388 245.301 250.839 245.301 250.839L253.598 243.81C253.598 243.81 225.691 217.411 219.522 202.063C210.984 180.884 209.392 121.562 209.392 121.562L189.02 134.437Z" fill="#263238"/>
<path d="M254.36 243.223L245.083 251.745L240.392 249.196L250.212 239.293L254.36 243.223Z" fill="#0C9CFF"/>
<path opacity="0.2" d="M202.792 135.682C202.694 142.915 206.827 152.66 212.1 158.89C211.526 153.142 211.059 147.576 210.682 142.575C208.034 139.634 205.296 137.062 202.792 135.682Z" fill="black"/>
<path d="M195.25 130.485C195.25 130.485 223.828 168.257 241.538 188.561C255.868 204.936 300.142 199.438 300.142 199.438V189.964C300.142 189.964 268.359 190.718 258.538 179.676C227.132 144.227 226.86 125.296 212.643 119.533L195.25 130.485Z" fill="#263238"/>
<path d="M300.346 188.396L300.368 201.46L294.199 203.18L294.485 188.457L300.346 188.396Z" fill="#0C9CFF"/>
<path d="M212.108 117.92L214.506 119.36C214.695 119.466 214.604 119.76 214.333 119.934L189.571 135.569C189.36 135.705 189.111 135.712 189.013 135.569L187.504 133.585C187.399 133.45 187.504 133.208 187.738 133.065L211.648 117.98C211.714 117.935 211.791 117.905 211.87 117.895C211.95 117.884 212.032 117.893 212.108 117.92Z" fill="#0C9CFF"/>
<path opacity="0.4" d="M212.108 117.92L214.506 119.36C214.695 119.466 214.604 119.76 214.333 119.934L189.571 135.569C189.36 135.705 189.111 135.712 189.013 135.569L187.504 133.585C187.399 133.45 187.504 133.208 187.738 133.065L211.648 117.98C211.714 117.935 211.791 117.905 211.87 117.895C211.95 117.884 212.032 117.893 212.108 117.92Z" fill="black"/>
<path d="M210.584 122.617L211.225 122.21C211.353 122.135 211.406 122.006 211.346 121.931L209.317 119.374C209.256 119.299 209.098 119.306 208.977 119.374L208.336 119.781C208.208 119.864 208.148 119.993 208.208 120.06L210.245 122.617C210.293 122.656 210.353 122.677 210.414 122.677C210.476 122.677 210.536 122.656 210.584 122.617Z" fill="#263238"/>
<path d="M191.516 134.664L192.15 134.257C192.278 134.181 192.339 134.053 192.278 133.978L190.242 131.421C190.181 131.346 190.031 131.353 189.902 131.421L189.261 131.828C189.133 131.911 189.08 132.039 189.141 132.115L191.17 134.664C191.219 134.703 191.28 134.725 191.343 134.725C191.406 134.725 191.467 134.703 191.516 134.664Z" fill="#263238"/>
<path d="M201.05 128.644L201.691 128.236C201.82 128.153 201.872 128.025 201.812 127.95L199.776 125.4C199.723 125.325 199.564 125.325 199.436 125.4L198.795 125.808C198.667 125.883 198.614 126.011 198.674 126.087L200.711 128.644C200.771 128.727 200.922 128.719 201.05 128.644Z" fill="#263238"/>
<path d="M165.729 72.967C165.933 73.4799 165.82 74.0079 165.488 74.1436C165.156 74.2794 164.734 73.9626 164.507 73.4422C164.281 72.9217 164.417 72.4013 164.756 72.2731C165.096 72.1449 165.526 72.4541 165.729 72.967Z" fill="#263238"/>
<path d="M159.899 75.2524C160.102 75.7653 159.989 76.2933 159.65 76.4215C159.311 76.5497 158.896 76.2405 158.677 75.7276C158.458 75.2147 158.586 74.6867 158.926 74.551C159.265 74.4152 159.688 74.732 159.899 75.2524Z" fill="#263238"/>
<path d="M159.077 74.5195L157.696 74.6478C157.696 74.6478 158.707 75.3718 159.077 74.5195Z" fill="#263238"/>
<path d="M161.785 75.5312C161.785 76.8906 161.598 78.2436 161.227 79.5514C161.563 79.6369 161.915 79.6474 162.257 79.5823C162.598 79.5171 162.921 79.3778 163.203 79.1742L161.785 75.5312Z" fill="#ED893E"/>
<path d="M165.797 80.509C165.759 80.5173 165.719 80.5121 165.685 80.4941C165.65 80.4762 165.623 80.4468 165.608 80.411C165.6 80.3912 165.595 80.37 165.595 80.3485C165.595 80.327 165.6 80.3057 165.608 80.2859C165.616 80.2662 165.629 80.2483 165.644 80.2335C165.66 80.2187 165.678 80.2072 165.699 80.1998C166.347 79.9597 166.93 79.5714 167.401 79.0659C167.873 78.5604 168.219 77.9517 168.414 77.2884C168.423 77.2474 168.448 77.2117 168.483 77.1891C168.519 77.1664 168.561 77.1587 168.602 77.1677C168.623 77.1713 168.643 77.1791 168.661 77.1906C168.679 77.2022 168.695 77.2172 168.707 77.2348C168.719 77.2524 168.727 77.2722 168.731 77.2931C168.735 77.314 168.735 77.3355 168.731 77.3563C168.534 78.0758 168.166 78.7372 167.659 79.2846C167.153 79.8321 166.521 80.2495 165.819 80.5015L165.797 80.509Z" fill="#263238"/>
<path d="M165.993 70.8993C165.92 70.9252 165.84 70.9252 165.767 70.8993C165.405 70.7086 165.004 70.6058 164.595 70.5992C164.186 70.5927 163.781 70.6826 163.414 70.8616C163.377 70.8831 163.336 70.8971 163.293 70.9027C163.251 70.9083 163.208 70.9053 163.166 70.8941C163.125 70.8829 163.086 70.8636 163.052 70.8373C163.018 70.811 162.99 70.7782 162.969 70.7409C162.927 70.6665 162.915 70.5786 162.936 70.4957C162.957 70.4128 163.009 70.3412 163.082 70.2959C163.541 70.0591 164.051 69.9355 164.568 69.9355C165.085 69.9355 165.594 70.0591 166.054 70.2959C166.131 70.3349 166.19 70.4023 166.218 70.484C166.246 70.5657 166.241 70.6552 166.205 70.7334C166.183 70.7745 166.153 70.8106 166.117 70.8393C166.08 70.8679 166.038 70.8884 165.993 70.8993Z" fill="#263238"/>
<path d="M156.128 73.6068C156.078 73.6181 156.026 73.6181 155.977 73.6068C155.893 73.5887 155.819 73.5381 155.773 73.466C155.726 73.3938 155.71 73.3062 155.728 73.2222C155.832 72.7087 156.061 72.2286 156.393 71.8237C156.726 71.4188 157.153 71.1014 157.636 70.8991C157.676 70.8835 157.718 70.876 157.76 70.8771C157.803 70.8781 157.845 70.8878 157.883 70.9054C157.922 70.923 157.957 70.9482 157.986 70.9795C158.014 71.0108 158.037 71.0476 158.051 71.0877C158.068 71.1271 158.076 71.1696 158.075 71.2124C158.075 71.2552 158.066 71.2975 158.048 71.3365C158.03 71.3755 158.004 71.4104 157.972 71.439C157.941 71.4676 157.903 71.4892 157.862 71.5025C157.493 71.6778 157.171 71.938 156.922 72.2618C156.673 72.5856 156.504 72.9638 156.429 73.3655C156.409 73.4316 156.37 73.4901 156.316 73.5333C156.262 73.5764 156.196 73.602 156.128 73.6068Z" fill="#263238"/>
<path d="M197.558 80.7061L197.966 80.51L198.509 80.2385C198.878 80.0499 199.263 79.8463 199.625 79.6275C200.379 79.1825 201.133 78.6998 201.827 78.1794C203.303 77.1213 204.692 75.9486 205.983 74.6722C207.294 73.386 208.532 72.0288 209.694 70.6068L210.546 69.5056L210.969 68.955L211.022 68.8871C211.022 68.8871 211.022 68.8419 211.067 68.8193C211.225 68.5177 211.265 68.1683 211.18 67.8387C211.051 67.1544 210.819 66.4934 210.494 65.8777C210.099 65.1181 209.656 64.385 209.166 63.6829C208.088 62.1666 206.909 60.7252 205.636 59.3686C202.98 56.5427 200.168 53.8684 197.211 51.3586L199.203 48.5C202.734 50.6024 206.074 53.0128 209.181 55.703C210.794 57.0912 212.294 58.6044 213.669 60.2285C214.423 61.09 215.106 62.0106 215.713 62.9814C216.396 64.0861 216.905 65.2894 217.221 66.549C217.407 67.3087 217.486 68.0906 217.455 68.872C217.413 69.7509 217.211 70.6148 216.859 71.4214C216.774 71.6282 216.675 71.8297 216.565 72.0248L216.399 72.3114L216.256 72.5301L215.826 73.2014L214.959 74.5364C213.723 76.2975 212.368 77.9709 210.901 79.5446C209.386 81.1171 207.749 82.5672 206.006 83.8815C205.112 84.5425 204.183 85.1544 203.223 85.7143C202.732 86.0009 202.235 86.2724 201.714 86.5364L200.907 86.9135C200.606 87.0417 200.387 87.1398 199.942 87.2982L197.558 80.7061Z" fill="#FFB573"/>
<path d="M187.323 84.7333C190.642 81.0903 201.329 77.666 201.329 77.666L204.761 95.1342C204.761 95.1342 201.058 98.8225 196.57 97.5553C192.753 96.4768 182.594 89.9224 187.323 84.7333Z" fill="#0C9CFF"/>
<path d="M309.993 200.832C309.822 200.98 309.607 201.068 309.382 201.081C309.285 201.096 309.186 201.085 309.094 201.049C309.003 201.014 308.922 200.954 308.861 200.878C308.318 200.191 309.125 197.861 309.216 197.574C309.225 197.543 309.244 197.515 309.269 197.495C309.295 197.475 309.326 197.463 309.359 197.461C309.391 197.461 309.423 197.469 309.45 197.485C309.478 197.501 309.501 197.524 309.517 197.551C309.932 198.366 310.573 199.814 310.159 200.614C310.114 200.694 310.058 200.768 309.993 200.832ZM309.397 198.057C309.103 199.007 308.831 200.32 309.118 200.674C309.145 200.708 309.181 200.734 309.223 200.749C309.264 200.764 309.309 200.766 309.352 200.757C309.457 200.758 309.562 200.731 309.653 200.678C309.745 200.625 309.82 200.548 309.872 200.455C310.076 200.04 309.895 199.158 309.374 198.057H309.397Z" fill="#0C9CFF"/>
<path d="M308.288 199.491C308.049 199.758 307.728 199.938 307.375 200.004C307.246 200.01 307.118 199.971 307.014 199.894C306.91 199.817 306.835 199.707 306.802 199.581C306.749 199.461 306.725 199.33 306.733 199.199C306.741 199.067 306.78 198.94 306.847 198.827C307.307 197.945 309.223 197.462 309.306 197.439C309.334 197.432 309.364 197.432 309.392 197.44C309.42 197.448 309.445 197.463 309.465 197.485C309.484 197.505 309.498 197.531 309.504 197.559C309.511 197.587 309.51 197.616 309.502 197.643C309.244 198.343 308.828 198.976 308.288 199.491ZM307.353 198.737C307.264 198.813 307.19 198.905 307.134 199.008C307.099 199.08 307.08 199.158 307.08 199.238C307.08 199.318 307.099 199.397 307.134 199.468C307.209 199.664 307.307 199.679 307.39 199.679C307.866 199.679 308.763 198.631 309.11 197.869C308.471 198.036 307.873 198.331 307.353 198.737Z" fill="#0C9CFF"/>
<path d="M253.259 258.774C253.069 259.301 252.718 259.754 252.256 260.071C252.123 260.147 251.974 260.192 251.822 260.203C251.669 260.213 251.515 260.189 251.373 260.131C251.292 260.104 251.219 260.055 251.162 259.99C251.105 259.925 251.066 259.846 251.049 259.762C250.898 258.879 253.191 256.865 253.651 256.473C253.679 256.455 253.712 256.445 253.746 256.445C253.779 256.445 253.812 256.455 253.84 256.473C253.869 256.49 253.893 256.516 253.906 256.547C253.92 256.579 253.923 256.613 253.915 256.647C253.772 257.377 253.552 258.09 253.259 258.774ZM251.441 259.385C251.387 259.481 251.363 259.591 251.373 259.701C251.373 259.747 251.373 259.792 251.487 259.822C251.584 259.865 251.69 259.883 251.797 259.877C251.903 259.87 252.006 259.839 252.097 259.784C252.625 259.498 253.131 258.495 253.485 257.046C252.69 257.718 252.001 258.507 251.441 259.385Z" fill="#0C9CFF"/>
<path d="M253.907 256.661L253.87 256.714C253.115 257.393 251.026 258.479 250.37 258.064C250.227 257.974 250.083 257.785 250.204 257.378C250.694 255.832 253.666 256.405 253.794 256.435C253.823 256.44 253.85 256.454 253.871 256.474C253.893 256.494 253.908 256.52 253.915 256.548C253.923 256.586 253.921 256.625 253.907 256.661ZM250.558 257.378C250.541 257.409 250.529 257.442 250.521 257.476C250.465 257.642 250.465 257.748 250.521 257.793C250.898 258.027 252.504 257.34 253.357 256.699C252.67 256.601 250.958 256.488 250.558 257.378Z" fill="#0C9CFF"/>
<path d="M164.914 72.2422L163.534 72.3704C163.534 72.3704 164.552 73.0869 164.914 72.2422Z" fill="#263238"/>
<path d="M222.425 26.875H138.938C127.337 26.875 117.933 36.2795 117.933 47.8806V251.458C117.933 263.059 127.337 272.463 138.938 272.463H222.425C234.026 272.463 243.431 263.059 243.431 251.458V47.8806C243.431 36.2795 234.026 26.875 222.425 26.875Z" fill="#0C9CFF"/>
<path opacity="0.2" d="M222.425 26.875H138.938C127.337 26.875 117.933 36.2795 117.933 47.8806V251.458C117.933 263.059 127.337 272.463 138.938 272.463H222.425C234.026 272.463 243.431 263.059 243.431 251.458V47.8806C243.431 36.2795 234.026 26.875 222.425 26.875Z" fill="black"/>
<path d="M239.275 66.4727H224.288C221.081 66.4727 218.48 69.0728 218.48 72.2803V93.3991C218.48 96.6065 221.081 99.2067 224.288 99.2067H239.275C242.482 99.2067 245.083 96.6065 245.083 93.3991V72.2803C245.083 69.0728 242.482 66.4727 239.275 66.4727Z" fill="#0C9CFF"/>
<path opacity="0.2" d="M239.275 66.4727H224.288C221.081 66.4727 218.48 69.0728 218.48 72.2803V93.3991C218.48 96.6065 221.081 99.2067 224.288 99.2067H239.275C242.482 99.2067 245.083 96.6065 245.083 93.3991V72.2803C245.083 69.0728 242.482 66.4727 239.275 66.4727Z" fill="black"/>
<path d="M136.223 66.4727H121.236C118.029 66.4727 115.429 69.0728 115.429 72.2803V103.883C115.429 107.09 118.029 109.691 121.236 109.691H136.223C139.431 109.691 142.031 107.09 142.031 103.883V72.2803C142.031 69.0728 139.431 66.4727 136.223 66.4727Z" fill="#0C9CFF"/>
<path opacity="0.2" d="M136.223 66.4727H121.236C118.029 66.4727 115.429 69.0728 115.429 72.2803V103.883C115.429 107.09 118.029 109.691 121.236 109.691H136.223C139.431 109.691 142.031 107.09 142.031 103.883V72.2803C142.031 69.0728 139.431 66.4727 136.223 66.4727Z" fill="black"/>
<path d="M239.275 101.566H224.288C221.081 101.566 218.48 104.167 218.48 107.374V128.493C218.48 131.7 221.081 134.3 224.288 134.3H239.275C242.482 134.3 245.083 131.7 245.083 128.493V107.374C245.083 104.167 242.482 101.566 239.275 101.566Z" fill="#0C9CFF"/>
<path opacity="0.2" d="M239.275 101.566H224.288C221.081 101.566 218.48 104.167 218.48 107.374V128.493C218.48 131.7 221.081 134.3 224.288 134.3H239.275C242.482 134.3 245.083 131.7 245.083 128.493V107.374C245.083 104.167 242.482 101.566 239.275 101.566Z" fill="black"/>
<path d="M221.241 26.875H137.754C126.153 26.875 116.749 36.2795 116.749 47.8806V251.458C116.749 263.059 126.153 272.463 137.754 272.463H221.241C232.842 272.463 242.247 263.059 242.247 251.458V47.8806C242.247 36.2795 232.842 26.875 221.241 26.875Z" fill="#0C9CFF"/>
<path d="M239.743 251.45V47.8804C239.743 37.6623 231.459 29.3789 221.241 29.3789L137.754 29.3789C127.536 29.3789 119.253 37.6623 119.253 47.8804L119.253 251.45C119.253 261.668 127.536 269.952 137.754 269.952H221.241C231.459 269.952 239.743 261.668 239.743 251.45Z" fill="white"/>
<path d="M228.739 35.9336H220.299C219.595 35.9336 219.024 36.5043 219.024 37.2083V40.889C219.024 41.5929 219.595 42.1636 220.299 42.1636H228.739C229.443 42.1636 230.013 41.5929 230.013 40.889V37.2083C230.013 36.5043 229.443 35.9336 228.739 35.9336Z" fill="#0C9CFF"/>
<path opacity="0.2" d="M141.465 35.9336H130.167C129.371 35.9336 128.726 36.5786 128.726 37.3742V40.723C128.726 41.5186 129.371 42.1636 130.167 42.1636H141.465C142.261 42.1636 142.906 41.5186 142.906 40.723V37.3742C142.906 36.5786 142.261 35.9336 141.465 35.9336Z" fill="#0C9CFF"/>
<path d="M219.469 36.9961H218.141C217.883 36.9961 217.674 37.2055 217.674 37.4637V40.6315C217.674 40.8898 217.883 41.0992 218.141 41.0992H219.469C219.727 41.0992 219.937 40.8898 219.937 40.6315V37.4637C219.937 37.2055 219.727 36.9961 219.469 36.9961Z" fill="#0C9CFF"/>
<path d="M228.489 36.9961H227.162C226.904 36.9961 226.694 37.2055 226.694 37.4637V40.6315C226.694 40.8898 226.904 41.0992 227.162 41.0992H228.489C228.748 41.0992 228.957 40.8898 228.957 40.6315V37.4637C228.957 37.2055 228.748 36.9961 228.489 36.9961Z" fill="white"/>
<path d="M225.631 36.9961H224.304C224.045 36.9961 223.836 37.2055 223.836 37.4637V40.6315C223.836 40.8898 224.045 41.0992 224.304 41.0992H225.631C225.889 41.0992 226.099 40.8898 226.099 40.6315V37.4637C226.099 37.2055 225.889 36.9961 225.631 36.9961Z" fill="white"/>
<path opacity="0.2" d="M132.271 48.793H226.724C227.596 48.793 228.433 49.1394 229.05 49.7561C229.666 50.3729 230.013 51.2093 230.013 52.0815V167.299C230.013 168.171 229.666 169.008 229.05 169.625C228.433 170.241 227.596 170.588 226.724 170.588H132.271C131.396 170.588 130.558 170.241 129.94 169.622C129.322 169.004 128.975 168.166 128.975 167.292V52.089C128.975 51.2168 129.321 50.3804 129.938 49.7637C130.554 49.147 131.391 48.8005 132.263 48.8005L132.271 48.793Z" fill="#0C9CFF"/>
<path opacity="0.6" d="M204.399 61.9849C207.024 58.621 210.433 56.2225 212.998 56.2225C213.697 56.1853 214.382 56.4248 214.906 56.8892C215.43 57.3536 215.749 58.0056 215.796 58.704C216.74 57.905 217.906 57.4153 219.137 57.3011C220.872 57.3011 221.49 58.9227 220.879 61.2081C221.778 60.7228 222.766 60.4252 223.783 60.3331C225.548 60.2351 226.544 61.1628 226.642 62.6788C227.017 62.4377 227.443 62.2879 227.886 62.2414C228.912 62.181 229.176 63.1238 228.497 64.3382L228.362 64.5644H200.319C200.726 63.3577 203.155 62.0377 204.399 61.9849Z" fill="white"/>
<path opacity="0.6" d="M151.007 125.551C157.599 117.111 166.22 111.1 172.6 111.1C176.605 111.1 178.981 113.468 179.615 117.315C182.556 115.12 185.528 113.807 188.002 113.807C192.354 113.807 193.923 117.873 192.369 123.612C194.629 122.402 197.109 121.658 199.663 121.425C204.113 121.169 206.609 123.507 206.851 127.308C207.792 126.703 208.861 126.326 209.973 126.207C212.538 126.064 213.216 128.425 211.482 131.487C211.376 131.683 211.263 131.864 211.15 132.052H140.704C141.737 129.035 147.831 125.702 151.007 125.551Z" fill="white"/>
<path opacity="0.6" d="M195.899 95.4958C196.131 95.4643 196.365 95.4467 196.6 95.443C200.032 92.1168 203.501 89.9898 205.96 89.9898C207.74 89.9898 208.706 91.0985 208.887 93.0068C215.298 86.5429 221.912 82.3418 226.521 82.3418C230.239 82.3418 231.974 85.0721 231.763 89.5297C234.938 86.9955 237.963 85.4794 240.263 85.4794C244.313 85.4794 244.939 90.1708 242.322 96.7931C244.516 95.4354 246.979 94.5707 249.54 94.2588C253.719 93.9571 255.574 96.6573 255.009 101.047C255.929 100.373 257.002 99.9377 258.131 99.7798C260.394 99.6215 260.673 102.043 258.825 105.293H181.847C185.407 100.353 191.577 96.0539 195.899 95.4958Z" fill="white"/>
<path opacity="0.6" d="M126.961 75.4251C127.087 75.4146 127.213 75.4146 127.338 75.4251C129.163 73.6527 131.011 72.5213 132.324 72.5213C133.274 72.5213 133.787 73.1096 133.885 74.1128C137.302 70.6659 140.824 68.4258 143.283 68.4258C145.267 68.4258 146.187 69.8815 146.074 72.2573C147.771 70.9072 149.377 70.1002 150.599 70.1002C152.756 70.1002 153.088 72.5967 151.693 76.1341C152.862 75.4098 154.174 74.9467 155.539 74.7765C157.764 74.6181 158.745 76.0587 158.451 78.4044C158.943 78.0469 159.515 77.814 160.118 77.7256C161.339 77.6426 161.475 78.9324 160.487 80.6671H119.479C121.372 78.0197 124.638 75.7268 126.961 75.4251Z" fill="white"/>
<path d="M157.191 64.4061C157.983 61.9473 165.103 55.7625 173.898 58.8851C182.692 62.0076 180.686 74.3093 179.735 77.4318C178.785 80.5544 173.151 89.9673 166.604 87.9912C160.057 86.0151 146.7 71.7298 157.191 64.4061Z" fill="#263238"/>
<path d="M176.432 73.9987C177.013 72.181 182.262 67.6254 188.741 69.9258C195.22 72.2263 193.742 81.2922 193.04 83.5927C192.339 85.8931 188.19 92.8246 183.363 91.3764C178.536 89.9283 168.701 79.3915 176.432 73.9987Z" fill="#263238"/>
<path d="M184.261 66.7598L179.788 72.8314C179.788 72.8314 177.578 67.8308 184.261 66.7598Z" fill="#263238"/>
<path d="M172.11 84.2348C170.888 83.0582 164.839 81.6855 160.713 86.226C156.588 90.7665 161.566 97.2983 163.089 98.8067C164.613 100.315 170.79 104.026 173.98 100.858C177.171 97.6905 180.459 85.2304 172.11 84.2348Z" fill="#263238"/>
<path d="M170.255 106.349L170.089 106.779L169.938 107.149C169.832 107.39 169.734 107.631 169.629 107.858C169.418 108.325 169.191 108.763 168.965 109.208C168.505 110.09 168.03 110.95 167.524 111.795C166.505 113.466 165.376 115.069 164.145 116.592C163.55 117.346 162.893 118.1 162.26 118.855C161.626 119.609 160.932 120.28 160.216 120.944C158.817 122.297 157.33 123.557 155.766 124.715C155.547 124.873 155.472 124.964 154.944 125.311C154.418 125.642 153.834 125.872 153.224 125.99C152.535 126.118 151.826 126.089 151.15 125.907C150.595 125.746 150.072 125.491 149.604 125.152C148.965 124.694 148.409 124.131 147.959 123.486C147.611 123.008 147.301 122.503 147.032 121.977C146.152 120.164 145.467 118.263 144.988 116.305C144.076 112.662 143.473 108.948 143.185 105.203L146.617 104.592C147.658 107.993 148.774 111.44 150.049 114.661C150.626 116.187 151.337 117.659 152.176 119.058C152.346 119.323 152.535 119.575 152.741 119.812C152.907 119.993 153.073 120.107 153.035 120.046C152.945 119.967 152.836 119.913 152.719 119.888C152.475 119.809 152.216 119.793 151.964 119.843C151.802 119.87 151.645 119.921 151.497 119.993C151.346 120.091 151.617 119.873 151.753 119.745C154.296 117.52 156.602 115.038 158.632 112.338C159.641 110.992 160.575 109.592 161.43 108.144C161.858 107.43 162.265 106.706 162.652 105.972L163.195 104.878L163.452 104.343L163.655 103.883L170.255 106.349Z" fill="#FFB573"/>
<path d="M169.877 95.9032C163.971 98.5958 161.686 106.093 161.482 106.508L168.806 119.82C168.806 119.82 175.934 114.774 176.492 110.121C177.02 106.191 173.761 94.1307 169.877 95.9032Z" fill="#0C9CFF"/>
<path d="M146.835 105.376L148.691 99.7793L141.661 101.288C141.661 101.288 141.503 106.145 143.758 107.902L144.957 107.405C145.399 107.223 145.795 106.948 146.12 106.597C146.444 106.247 146.688 105.83 146.835 105.376Z" fill="#FFB573"/>
<path d="M146.956 93.791L141.94 95.8803L141.661 101.273L148.691 99.7721L146.956 93.791Z" fill="#FFB573"/>
<path d="M200.462 49.2159L195.582 43.627L193.319 50.4151C193.319 50.4151 197.136 53.7036 200.243 50.8375L200.462 49.2159Z" fill="#FFB573"/>
<path d="M192.799 40.9941L189.344 45.6704L193.296 50.4448L195.582 43.6264L192.799 40.9941Z" fill="#FFB573"/>
<path d="M260.756 250.953L255.793 255.493L241.824 246.216L246.787 241.676L260.756 250.953Z" fill="#FFB573"/>
<path d="M310.408 190.086L310.106 196.957L294.101 198.466L294.403 191.594L310.408 190.086Z" fill="#FFB573"/>
<path d="M308.431 197.258L306.568 189.761C306.533 189.633 306.547 189.496 306.607 189.378C306.667 189.26 306.769 189.168 306.893 189.12L312.617 186.789C312.762 186.736 312.915 186.713 313.069 186.723C313.222 186.732 313.372 186.774 313.509 186.845C313.645 186.916 313.765 187.015 313.861 187.135C313.957 187.256 314.027 187.395 314.065 187.544C314.669 190.168 314.82 191.466 315.649 194.762C316.155 196.791 317.565 201.203 318.267 204.001C318.968 206.799 316.23 207.644 315.687 206.535C313.266 201.588 311.041 199.642 309.125 198.239C308.792 197.998 308.547 197.653 308.431 197.258Z" fill="#263238"/>
<path d="M253.515 254.935L256.871 247.498C256.933 247.365 257.036 247.256 257.166 247.186C257.295 247.117 257.443 247.091 257.588 247.113L264.202 248.146C264.358 248.172 264.505 248.233 264.633 248.326C264.761 248.418 264.866 248.539 264.939 248.679C265.012 248.818 265.051 248.973 265.055 249.131C265.058 249.288 265.024 249.444 264.957 249.587C263.735 252.166 263.011 253.358 261.54 256.639C260.627 258.645 257.882 265.298 256.63 268.073C255.378 270.849 252.406 270.117 252.663 268.888C253.817 263.337 254.171 258.389 253.417 256.171C253.294 255.761 253.329 255.32 253.515 254.935Z" fill="#263238"/>
<path opacity="0.2" d="M241.832 246.216L249.224 251.134L254.021 246.48L246.795 241.676L241.832 246.216Z" fill="black"/>
<path opacity="0.2" d="M294.403 191.587L294.101 198.466L302.352 197.689L302.654 190.811L294.403 191.587Z" fill="black"/>
<path d="M165.744 99.5614C165.744 99.5614 168.829 114.797 184.246 128.223C186.192 129.912 185.807 134.256 188.485 133.894C197.86 127.981 207.461 122.158 212.017 119.277C212.13 114.088 208.577 114.925 207.74 112.135C205.734 105.49 200.236 98.0001 194.549 81.6406C190.811 83.0419 187.18 84.7158 183.688 86.6488C179.969 88.676 176.386 90.9435 172.962 93.437C170.45 95.3505 168.041 97.3948 165.744 99.5614Z" fill="#0C9CFF"/>
<path d="M174.983 75.2363C176.492 79.1131 179.803 85.856 183.672 86.6329C183.672 86.6329 186.01 97.8108 181.41 103.98C174.176 102.781 172.955 93.3683 172.955 93.3683C176.22 90.0194 174.32 87.2288 171.959 84.9736L174.983 75.2363Z" fill="#FFB573"/>
<path d="M176.959 104.59C176.553 104.575 176.153 104.478 175.785 104.304C175.417 104.13 175.088 103.884 174.817 103.58C173.414 102.139 173.897 99.9443 174.41 97.6137C174.923 95.2831 175.436 92.9449 174.41 90.8632C174.385 90.8122 174.381 90.7534 174.4 90.6996C174.418 90.6459 174.457 90.6016 174.508 90.5766C174.559 90.5516 174.618 90.5479 174.672 90.5663C174.725 90.5847 174.77 90.6237 174.795 90.6747C175.903 92.8846 175.345 95.449 174.848 97.7042C174.35 99.9594 173.905 102.011 175.149 103.278C175.357 103.531 175.615 103.738 175.905 103.889C176.196 104.039 176.514 104.129 176.84 104.153C177.167 104.177 177.495 104.135 177.804 104.028C178.114 103.922 178.399 103.754 178.641 103.534C181.115 101.702 182.692 96.5351 180.904 93.3522C179.267 90.3353 180.904 87.7256 181.658 86.4585C181.798 86.2562 181.919 86.0416 182.02 85.8174C182.014 85.7906 182.013 85.7627 182.017 85.7355C182.021 85.7083 182.031 85.6822 182.046 85.6589C182.061 85.6357 182.08 85.6156 182.103 85.6001C182.126 85.5845 182.152 85.5738 182.179 85.5684C182.207 85.563 182.236 85.5631 182.264 85.5689C182.292 85.5746 182.319 85.5859 182.343 85.602C182.367 85.6181 182.387 85.6388 182.403 85.6628C182.419 85.6868 182.43 85.7137 182.435 85.7419C182.48 85.9456 182.33 86.1945 182.028 86.6847C181.221 87.9745 179.72 90.3881 181.274 93.1486C183.122 96.5049 181.462 101.943 178.86 103.881C178.319 104.316 177.653 104.564 176.959 104.59Z" fill="#263238"/>
<path opacity="0.2" d="M173.761 79.1973L171.966 85.0049C172.516 85.527 173.021 86.0947 173.475 86.702C174.81 85.5631 176.19 82.8478 175.375 81.2035C174.958 80.4459 174.412 79.7669 173.761 79.1973Z" fill="black"/>
<path d="M174.659 67.4303C176.748 73.9318 177.774 76.632 175.843 81.1424C172.939 87.9306 164.529 89.0695 160.509 83.3297C156.919 78.1631 154.106 68.4033 159.333 63.4554C160.479 62.3588 161.886 61.5733 163.421 61.1735C164.956 60.7737 166.568 60.7729 168.104 61.1711C169.639 61.5693 171.047 62.3534 172.195 63.4489C173.342 64.5443 174.19 65.9148 174.659 67.4303Z" fill="#FFB573"/>
<path d="M161.188 65.8377C161.633 69.3901 169.274 73.4706 176.356 71.8037C181.304 70.6346 177.457 61.9458 171.574 60.4222C165.691 58.8987 160.457 60.0225 161.188 65.8377Z" fill="#263238"/>
<path d="M164.462 65.8163L149.513 67.6792C149.513 67.6792 153.729 57.595 164.462 65.8163Z" fill="#263238"/>
<path d="M163.512 65.6195L151.346 70.8992C151.346 70.8992 152.447 61.3203 163.512 65.6195Z" fill="#263238"/>
<path d="M162.259 65.6211L158.865 70.4332C158.865 70.4332 157.055 66.5714 162.259 65.6211Z" fill="#263238"/>
<path d="M164.115 65.6191L151.602 62.7077C151.602 62.7077 157.975 55.8969 164.115 65.6191Z" fill="#263238"/>
<path d="M162.833 65.9054L156.972 58.6346C156.972 58.6346 163.67 57.5635 162.833 65.9054Z" fill="#263238"/>
<path d="M177.887 72.7713C178.227 74.0438 178.051 75.399 177.397 76.5425C176.522 78.051 174.863 77.5607 174.094 76.0975C173.4 74.7776 173.023 72.3942 174.395 71.3835C174.701 71.1733 175.055 71.0418 175.424 71.0004C175.793 70.959 176.166 71.0091 176.511 71.1463C176.857 71.2834 177.163 71.5034 177.403 71.7868C177.643 72.0702 177.809 72.4083 177.887 72.7713Z" fill="#FFB573"/>
<path d="M189.02 134.437C189.02 134.437 192.037 195.712 203.592 213.195C215.66 231.388 245.301 250.839 245.301 250.839L253.598 243.81C253.598 243.81 225.691 217.411 219.522 202.063C210.984 180.884 209.392 121.562 209.392 121.562L189.02 134.437Z" fill="#263238"/>
<path d="M254.36 243.221L245.083 251.744L240.392 249.194L250.212 239.291L254.36 243.221Z" fill="#0C9CFF"/>
<path opacity="0.2" d="M202.792 135.682C202.694 142.915 206.827 152.66 212.1 158.89C211.526 153.142 211.059 147.576 210.682 142.575C208.034 139.634 205.296 137.062 202.792 135.682Z" fill="black"/>
<path d="M195.25 130.485C195.25 130.485 223.828 168.257 241.538 188.561C255.868 204.936 300.142 199.438 300.142 199.438V189.964C300.142 189.964 268.359 190.718 258.538 179.676C227.132 144.227 226.86 125.296 212.643 119.533L195.25 130.485Z" fill="#263238"/>
<path d="M300.346 188.395L300.368 201.458L294.199 203.178L294.485 188.455L300.346 188.395Z" fill="#0C9CFF"/>
<path d="M212.107 117.92L214.506 119.36C214.694 119.466 214.604 119.76 214.332 119.934L189.571 135.569C189.359 135.705 189.11 135.712 189.012 135.569L187.504 133.585C187.398 133.45 187.504 133.208 187.738 133.065L211.647 117.98C211.714 117.935 211.79 117.905 211.87 117.895C211.95 117.884 212.031 117.893 212.107 117.92Z" fill="#0C9CFF"/>
<path opacity="0.4" d="M212.107 117.92L214.506 119.36C214.694 119.466 214.604 119.76 214.332 119.934L189.571 135.569C189.359 135.705 189.11 135.712 189.012 135.569L187.504 133.585C187.398 133.45 187.504 133.208 187.738 133.065L211.647 117.98C211.714 117.935 211.79 117.905 211.87 117.895C211.95 117.884 212.031 117.893 212.107 117.92Z" fill="black"/>
<path d="M210.584 122.619L211.225 122.212C211.353 122.137 211.406 122.008 211.346 121.933L209.317 119.376C209.256 119.301 209.098 119.308 208.977 119.376L208.336 119.783C208.208 119.866 208.148 119.995 208.208 120.062L210.245 122.619C210.293 122.658 210.353 122.679 210.414 122.679C210.476 122.679 210.536 122.658 210.584 122.619Z" fill="#263238"/>
<path d="M191.516 134.662L192.15 134.255C192.278 134.18 192.339 134.051 192.278 133.976L190.242 131.419C190.181 131.344 190.031 131.351 189.902 131.419L189.261 131.826C189.133 131.909 189.08 132.037 189.141 132.113L191.17 134.662C191.219 134.701 191.28 134.723 191.343 134.723C191.406 134.723 191.467 134.701 191.516 134.662Z" fill="#263238"/>
<path d="M201.05 128.646L201.691 128.238C201.82 128.155 201.872 128.027 201.812 127.952L199.776 125.402C199.723 125.327 199.564 125.327 199.436 125.402L198.795 125.81C198.667 125.885 198.614 126.013 198.674 126.089L200.711 128.646C200.771 128.728 200.922 128.721 201.05 128.646Z" fill="#263238"/>
<path d="M165.729 72.967C165.932 73.4799 165.819 74.0079 165.487 74.1436C165.156 74.2794 164.733 73.9626 164.507 73.4422C164.281 72.9217 164.416 72.4013 164.756 72.2731C165.095 72.1449 165.525 72.4541 165.729 72.967Z" fill="#263238"/>
<path d="M159.899 75.2524C160.102 75.7653 159.989 76.2933 159.65 76.4215C159.311 76.5497 158.896 76.2405 158.677 75.7276C158.458 75.2147 158.586 74.6867 158.926 74.551C159.265 74.4152 159.688 74.732 159.899 75.2524Z" fill="#263238"/>
<path d="M159.077 74.5195L157.696 74.6478C157.696 74.6478 158.707 75.3718 159.077 74.5195Z" fill="#263238"/>
<path d="M161.784 75.5293C161.785 76.8887 161.597 78.2416 161.226 79.5494C161.563 79.6349 161.915 79.6455 162.256 79.5803C162.597 79.5152 162.92 79.3759 163.202 79.1723L161.784 75.5293Z" fill="#ED893E"/>
<path d="M165.797 80.509C165.759 80.5173 165.72 80.5121 165.685 80.4941C165.651 80.4762 165.624 80.4468 165.609 80.411C165.6 80.3912 165.596 80.37 165.596 80.3485C165.596 80.327 165.6 80.3057 165.609 80.2859C165.617 80.2662 165.629 80.2483 165.645 80.2335C165.661 80.2187 165.679 80.2072 165.699 80.1998C166.347 79.9597 166.93 79.5714 167.402 79.0659C167.873 78.5604 168.22 77.9517 168.414 77.2884C168.423 77.2474 168.448 77.2117 168.484 77.1891C168.519 77.1664 168.562 77.1587 168.603 77.1677C168.624 77.1713 168.644 77.1791 168.662 77.1906C168.68 77.2022 168.695 77.2172 168.707 77.2348C168.719 77.2524 168.727 77.2722 168.732 77.2931C168.736 77.314 168.736 77.3355 168.731 77.3563C168.534 78.0758 168.167 78.7372 167.66 79.2846C167.153 79.8321 166.522 80.2495 165.82 80.5015L165.797 80.509Z" fill="#263238"/>
<path d="M165.993 70.9013C165.92 70.9272 165.84 70.9272 165.767 70.9013C165.405 70.7105 165.004 70.6077 164.595 70.6012C164.186 70.5946 163.781 70.6845 163.414 70.8636C163.377 70.8851 163.336 70.8991 163.293 70.9046C163.251 70.9102 163.208 70.9073 163.166 70.8961C163.125 70.8849 163.086 70.8655 163.052 70.8392C163.018 70.813 162.99 70.7802 162.969 70.7429C162.927 70.6684 162.915 70.5806 162.936 70.4977C162.957 70.4148 163.009 70.3432 163.082 70.2979C163.541 70.0611 164.051 69.9375 164.568 69.9375C165.085 69.9375 165.594 70.0611 166.054 70.2979C166.131 70.3368 166.19 70.4043 166.218 70.486C166.246 70.5677 166.241 70.6571 166.205 70.7353C166.183 70.7765 166.153 70.8126 166.117 70.8412C166.08 70.8698 166.038 70.8903 165.993 70.9013Z" fill="#263238"/>
<path d="M156.128 73.6088C156.078 73.6201 156.026 73.6201 155.977 73.6088C155.893 73.5907 155.819 73.54 155.773 73.4679C155.726 73.3958 155.71 73.3081 155.728 73.2241C155.832 72.7106 156.061 72.2305 156.393 71.8256C156.726 71.4207 157.153 71.1033 157.636 70.901C157.676 70.8854 157.718 70.8779 157.76 70.879C157.803 70.8801 157.845 70.8897 157.883 70.9073C157.922 70.9249 157.957 70.9501 157.986 70.9814C158.014 71.0127 158.037 71.0495 158.051 71.0896C158.068 71.129 158.076 71.1715 158.075 71.2144C158.075 71.2572 158.066 71.2995 158.048 71.3385C158.03 71.3775 158.004 71.4124 157.972 71.4409C157.941 71.4695 157.903 71.4911 157.862 71.5044C157.493 71.6798 157.171 71.94 156.922 72.2638C156.673 72.5876 156.504 72.9658 156.429 73.3674C156.409 73.4336 156.37 73.4921 156.316 73.5352C156.262 73.5783 156.196 73.604 156.128 73.6088Z" fill="#263238"/>
<path d="M197.083 80.8939L197.581 80.5846L198.139 80.2301C198.524 79.9888 198.893 79.7399 199.285 79.4759C200.04 78.963 200.794 78.4049 201.548 77.8543C203.047 76.744 204.482 75.5505 205.847 74.2792C207.22 73.0196 208.54 71.6997 209.792 70.3118L211.248 68.645C211.323 68.5545 211.414 68.3206 211.338 67.7625C211.199 67.08 210.96 66.4217 210.629 65.809C210.228 65.0508 209.777 64.3201 209.279 63.6217C208.184 62.1133 206.992 60.6772 205.712 59.3225C203.04 56.5113 200.22 53.8451 197.264 51.3351L199.255 48.4766C202.782 50.5755 206.121 52.9753 209.234 55.6494C210.857 57.0251 212.37 58.5256 213.759 60.1371C214.498 60.9991 215.169 61.917 215.766 62.8826C216.459 63.9791 216.983 65.1743 217.319 66.4275C217.518 67.1928 217.602 67.9833 217.568 68.7732C217.527 69.675 217.315 70.5606 216.942 71.3829C216.748 71.7935 216.516 72.1849 216.248 72.5519L215.766 73.2081L214.823 74.4903C213.516 76.155 212.116 77.744 210.629 79.2496C209.123 80.7397 207.536 82.1472 205.877 83.4658C205.04 84.1145 204.18 84.7405 203.29 85.3363C202.845 85.638 202.393 85.9322 201.933 86.2263L201.224 86.6487C200.975 86.792 200.764 86.9127 200.432 87.0862L197.083 80.8939Z" fill="#FFB573"/>
<path d="M187.323 84.7313C190.642 81.0883 201.329 77.6641 201.329 77.6641L204.761 95.1323C204.761 95.1323 201.058 98.8205 196.57 97.5534C192.753 96.4748 182.594 89.9205 187.323 84.7313Z" fill="#0C9CFF"/>
<path d="M309.993 200.832C309.822 200.98 309.607 201.068 309.382 201.081C309.285 201.096 309.186 201.085 309.094 201.049C309.003 201.014 308.922 200.954 308.861 200.878C308.318 200.191 309.125 197.861 309.216 197.574C309.225 197.543 309.244 197.515 309.269 197.495C309.295 197.475 309.326 197.463 309.359 197.461C309.391 197.461 309.423 197.469 309.45 197.485C309.478 197.501 309.501 197.524 309.517 197.551C309.932 198.366 310.573 199.814 310.159 200.614C310.114 200.694 310.058 200.768 309.993 200.832ZM309.397 198.057C309.103 199.007 308.831 200.32 309.118 200.674C309.145 200.708 309.181 200.734 309.223 200.749C309.264 200.764 309.309 200.766 309.352 200.757C309.457 200.758 309.562 200.731 309.653 200.678C309.745 200.625 309.82 200.548 309.872 200.455C310.076 200.04 309.895 199.158 309.374 198.057H309.397Z" fill="#0C9CFF"/>
<path d="M308.288 199.491C308.049 199.758 307.728 199.938 307.376 200.004C307.246 200.01 307.119 199.971 307.014 199.894C306.91 199.817 306.835 199.707 306.803 199.581C306.749 199.461 306.726 199.33 306.733 199.199C306.741 199.067 306.781 198.94 306.848 198.827C307.308 197.945 309.224 197.462 309.307 197.439C309.335 197.432 309.364 197.432 309.392 197.44C309.42 197.448 309.445 197.463 309.465 197.485C309.484 197.505 309.498 197.531 309.505 197.559C309.511 197.587 309.511 197.616 309.503 197.643C309.244 198.343 308.829 198.976 308.288 199.491ZM307.353 198.737C307.265 198.813 307.191 198.905 307.134 199.008C307.099 199.08 307.081 199.158 307.081 199.238C307.081 199.318 307.099 199.397 307.134 199.468C307.21 199.664 307.308 199.679 307.391 199.679C307.866 199.679 308.764 198.631 309.111 197.869C308.472 198.036 307.874 198.331 307.353 198.737Z" fill="#0C9CFF"/>
<path d="M253.259 258.774C253.069 259.301 252.718 259.754 252.256 260.071C252.123 260.147 251.974 260.192 251.822 260.203C251.669 260.213 251.515 260.189 251.373 260.131C251.292 260.104 251.219 260.055 251.162 259.99C251.105 259.925 251.066 259.846 251.049 259.762C250.898 258.879 253.191 256.865 253.651 256.473C253.679 256.455 253.712 256.445 253.746 256.445C253.779 256.445 253.812 256.455 253.84 256.473C253.869 256.49 253.893 256.516 253.906 256.547C253.92 256.579 253.923 256.613 253.915 256.647C253.772 257.377 253.552 258.09 253.259 258.774ZM251.441 259.385C251.387 259.481 251.363 259.591 251.373 259.701C251.373 259.747 251.373 259.792 251.487 259.822C251.584 259.865 251.69 259.883 251.797 259.877C251.903 259.87 252.006 259.839 252.097 259.784C252.625 259.498 253.131 258.495 253.485 257.046C252.69 257.718 252.001 258.507 251.441 259.385Z" fill="#0C9CFF"/>
<path d="M253.908 256.661L253.87 256.714C253.116 257.393 251.027 258.479 250.37 258.064C250.227 257.974 250.084 257.785 250.204 257.378C250.695 255.832 253.666 256.405 253.795 256.435C253.824 256.44 253.85 256.454 253.872 256.474C253.893 256.494 253.908 256.52 253.915 256.548C253.924 256.586 253.921 256.625 253.908 256.661ZM250.559 257.378C250.542 257.409 250.529 257.442 250.521 257.476C250.466 257.642 250.466 257.748 250.521 257.793C250.898 258.027 252.505 257.34 253.357 256.699C252.671 256.601 250.959 256.488 250.559 257.378Z" fill="#0C9CFF"/>
<path d="M164.914 72.2422L163.534 72.3704C163.534 72.3704 164.552 73.0869 164.914 72.2422Z" fill="#263238"/>
<path d="M195.106 178.832H128.975V185.356H195.106V178.832Z" fill="#0C9CFF"/>
<path d="M172.819 191.285H128.975V197.809H172.819V191.285Z" fill="#0C9CFF"/>
<path d="M155.185 243.484H130.936V246.313H155.185V243.484Z" fill="#E0E0E0"/>
<path d="M151.097 248.871H135.017V251.699H151.097V248.871Z" fill="#E0E0E0"/>
<path d="M191.064 243.484H166.815V246.313H191.064V243.484Z" fill="#E0E0E0"/>
<path d="M186.983 248.871H170.903V251.699H186.983V248.871Z" fill="#E0E0E0"/>
<path d="M228.06 243.484H203.811V246.313H228.06V243.484Z" fill="#E0E0E0"/>
<path d="M223.979 248.871H207.899V251.699H223.979V248.871Z" fill="#E0E0E0"/>
<path d="M154.974 28.7832C154.98 30.3537 155.606 31.8581 156.717 32.9686C157.827 34.0791 159.332 34.7056 160.902 34.7115H198.094C199.664 34.7056 201.168 34.0791 202.279 32.9686C203.389 31.8581 204.016 30.3537 204.022 28.7832H154.974Z" fill="#0C9CFF"/>
<path d="M156.758 226.7C158.545 219.131 153.857 211.546 146.288 209.76C138.719 207.974 131.134 212.661 129.348 220.23C127.562 227.8 132.249 235.384 139.818 237.17C147.388 238.957 154.972 234.269 156.758 226.7Z" fill="#0C9CFF"/>
<path d="M145.025 221.424C141.609 220.383 139.482 216.657 139.482 216.657C139.482 216.657 138.403 216.597 138.35 217.577C138.332 218.235 138.448 218.889 138.692 219.5C138.936 220.111 139.302 220.666 139.768 221.13L138.124 221.032C137.537 221 136.948 221.064 136.382 221.22L135.839 221.371C135.385 221.493 134.998 221.789 134.759 222.193C134.521 222.598 134.451 223.08 134.564 223.536L135.318 226.734C135.55 227.699 136.134 228.543 136.956 229.101C137.777 229.659 138.777 229.891 139.761 229.751C141.435 229.502 144.037 229.125 144.49 229.042L145.681 228.944L146.089 221.771L145.025 221.424Z" fill="white"/>
<path d="M150.38 220.438H145.772C145.413 220.438 145.123 220.728 145.123 221.086V229.239C145.123 229.598 145.413 229.888 145.772 229.888H150.38C150.738 229.888 151.029 229.598 151.029 229.239V221.086C151.029 220.728 150.738 220.438 150.38 220.438Z" fill="#263238"/>
<path d="M229.63 226.696C231.417 219.127 226.729 211.543 219.16 209.756C211.591 207.97 204.007 212.657 202.22 220.227C200.434 227.796 205.121 235.38 212.69 237.166C220.26 238.953 227.844 234.265 229.63 226.696Z" fill="#0C9CFF"/>
<path d="M215.939 216.129C214.241 216.134 212.603 216.763 211.337 217.894C210.071 219.026 209.264 220.583 209.068 222.27C208.873 223.957 209.304 225.658 210.278 227.049C211.252 228.44 212.703 229.425 214.355 229.818L215.939 231.832L217.523 229.818C219.175 229.425 220.626 228.44 221.6 227.049C222.574 225.658 223.005 223.957 222.809 222.27C222.614 220.583 221.807 219.026 220.541 217.894C219.275 216.763 217.637 216.134 215.939 216.129ZM215.939 225.934C215.368 225.934 214.809 225.765 214.334 225.447C213.859 225.13 213.489 224.679 213.27 224.151C213.051 223.623 212.994 223.042 213.106 222.482C213.217 221.921 213.492 221.407 213.896 221.003C214.3 220.599 214.815 220.324 215.375 220.212C215.936 220.101 216.517 220.158 217.044 220.376C217.572 220.595 218.023 220.965 218.341 221.44C218.658 221.915 218.828 222.474 218.828 223.045C218.831 223.427 218.758 223.805 218.614 224.158C218.47 224.511 218.258 224.832 217.99 225.103C217.721 225.373 217.402 225.588 217.05 225.735C216.698 225.881 216.32 225.957 215.939 225.957V225.934Z" fill="white"/>
<path d="M189.448 233.434C194.948 227.935 194.948 219.019 189.448 213.519C183.949 208.02 175.033 208.02 169.534 213.519C164.035 219.019 164.035 227.935 169.534 233.434C175.033 238.933 183.949 238.933 189.448 233.434Z" fill="#0C9CFF"/>
<path d="M182.76 220.24C182.772 220.168 182.759 220.095 182.725 220.031C182.691 219.967 182.637 219.916 182.571 219.885C181.856 219.58 181.086 219.426 180.309 219.433C178.965 219.435 177.677 219.969 176.727 220.919C175.777 221.87 175.242 223.158 175.24 224.501C175.24 226.372 176.492 227.352 177.729 227.352C178.242 227.362 178.75 227.251 179.213 227.028C179.675 226.805 180.079 226.477 180.392 226.07C180.469 226.351 180.611 226.609 180.806 226.824C180.977 226.996 181.18 227.131 181.405 227.222C181.629 227.313 181.869 227.357 182.111 227.352C184.042 227.352 186.003 225.602 186.003 222.261C186.038 221.446 185.902 220.632 185.604 219.872C185.306 219.112 184.854 218.423 184.274 217.848C183.695 217.273 183.002 216.825 182.24 216.533C181.478 216.241 180.664 216.111 179.849 216.152C175.504 216.152 172.223 219.599 172.223 224.162C172.223 227.971 174.908 230.731 178.612 230.731C179.9 230.774 181.177 230.486 182.322 229.894C182.392 229.857 182.445 229.796 182.473 229.723C182.501 229.649 182.501 229.568 182.473 229.494L182.156 228.634C182.141 228.59 182.115 228.55 182.081 228.517C182.047 228.484 182.006 228.46 181.96 228.446C181.919 228.425 181.874 228.415 181.828 228.415C181.783 228.415 181.737 228.425 181.696 228.446C180.812 228.904 179.826 229.132 178.83 229.11C175.949 229.11 174.011 227.066 174.011 224.026C174.011 220.368 176.402 217.706 179.69 217.706C182.481 217.706 184.216 219.493 184.216 222.367C184.283 223.432 183.937 224.483 183.25 225.301C183.025 225.54 182.718 225.686 182.39 225.708C182.342 225.71 182.294 225.7 182.249 225.681C182.205 225.661 182.165 225.632 182.134 225.595C182.021 225.452 181.862 225.037 182.134 223.845L182.76 220.24ZM180.052 221.145C180.262 221.145 180.472 221.165 180.678 221.205L180.316 223.166C180.113 224.305 179.147 225.618 178.197 225.618C177.246 225.618 177.201 224.863 177.201 224.426C177.201 222.623 178.506 221.122 180.052 221.122V221.145Z" fill="white"/>
</svg>
