<svg width="384" height="293" viewBox="0 0 384 293" fill="none" xmlns="http://www.w3.org/2000/svg">
<path d="M384 257.932H0V258.124H384V257.932Z" fill="#E0E0E0"/>
<path d="M291.325 265.012H264.906V265.204H291.325V265.012Z" fill="#E0E0E0"/>
<path d="M322.407 264.467H307.538V264.659H322.407V264.467Z" fill="#E0E0E0"/>
<path d="M189.957 264.92H170.235V265.112H189.957V264.92Z" fill="#E0E0E0"/>
<path d="M204.204 267.646H190.733V267.838H204.204V267.646Z" fill="#E0E0E0"/>
<path d="M111.106 262.979H70.4102V263.171H111.106V262.979Z" fill="#E0E0E0"/>
<path d="M182.016 223.679H33.7228C32.5611 223.677 31.4477 223.214 30.6269 222.392C29.8062 221.569 29.3452 220.455 29.3452 219.293V10.8352C29.3553 9.68011 29.8208 8.57569 30.6404 7.76179C31.4601 6.9479 32.5677 6.49026 33.7228 6.48828H182.016C183.179 6.48828 184.294 6.9503 185.117 7.7727C185.939 8.5951 186.401 9.71051 186.401 10.8736V219.293C186.401 220.456 185.939 221.572 185.117 222.394C184.294 223.217 183.179 223.679 182.016 223.679ZM33.7228 6.64188C32.612 6.64392 31.5474 7.0866 30.7627 7.87278C29.978 8.65895 29.5372 9.72436 29.5372 10.8352V219.293C29.5372 220.404 29.978 221.47 30.7627 222.256C31.5474 223.042 32.612 223.485 33.7228 223.487H182.016C183.127 223.485 184.193 223.042 184.979 222.256C185.765 221.47 186.207 220.405 186.209 219.293V10.8352C186.207 9.72366 185.765 8.65826 184.979 7.87231C184.193 7.08635 183.127 6.64391 182.016 6.64188H33.7228Z" fill="#E0E0E0"/>
<path d="M348.142 223.679H199.841C198.679 223.677 197.565 223.214 196.743 222.392C195.921 221.57 195.458 220.456 195.456 219.293V10.8352C195.468 9.67941 195.935 8.575 196.756 7.76131C197.577 6.94763 198.686 6.49024 199.841 6.48828H348.142C349.296 6.49228 350.402 6.95081 351.22 7.76449C352.038 8.57817 352.502 9.68143 352.512 10.8352V219.293C352.512 220.454 352.052 221.567 351.233 222.389C350.414 223.211 349.303 223.675 348.142 223.679ZM199.841 6.64188C198.73 6.64391 197.664 7.08635 196.878 7.87231C196.093 8.65826 195.65 9.72366 195.648 10.8352V219.293C195.65 220.405 196.093 221.47 196.878 222.256C197.664 223.042 198.73 223.485 199.841 223.487H348.142C349.254 223.485 350.319 223.042 351.105 222.256C351.891 221.47 352.333 220.405 352.335 219.293V10.8352C352.333 9.72366 351.891 8.65826 351.105 7.87231C350.319 7.08635 349.254 6.64391 348.142 6.64188H199.841Z" fill="#E0E0E0"/>
<path d="M333.335 25.127H217.598V124.629H333.335V25.127Z" fill="#E0E0E0"/>
<path d="M335.908 25.127H220.17V124.629H335.908V25.127Z" fill="#F0F0F0"/>
<path d="M331.292 119.96V29.7969L224.786 29.7969V119.96H331.292Z" fill="#FAFAFA"/>
<path d="M297.254 119.96V29.7969H290.296V119.96H297.254Z" fill="#E0E0E0"/>
<path d="M260.651 119.96V29.7969H253.693V119.96H260.651Z" fill="#E0E0E0"/>
<path d="M299.705 122.917V26.3184H292.747V122.917H299.705Z" fill="#F0F0F0"/>
<path d="M263.094 122.925V26.3262H256.136V122.925H263.094Z" fill="#F0F0F0"/>
<path d="M331.292 119.952V29.7891H329.349V119.952H331.292Z" fill="#E0E0E0"/>
<path d="M136.197 103.711C136.197 103.711 122.112 79.4494 141.658 60.1035C141.658 60.1035 146.757 63.429 146.681 67.8987C146.604 72.3685 141.212 73.4974 142.372 77.2299C143.532 80.9624 148.608 84.6104 145.275 87.6978C141.942 90.7851 145.813 93.5192 145.59 97.2978C145.367 101.076 136.197 103.711 136.197 103.711Z" fill="#E0E0E0"/>
<path d="M138.409 107.679C138.409 107.679 144.123 80.2 119.485 68.0195C119.485 68.0195 115.691 72.7811 117.181 76.9975C118.671 81.2138 124.132 80.584 124.208 84.4931C124.285 88.4023 120.622 93.4711 124.754 95.345C128.886 97.2189 126.082 101.044 127.488 104.561C128.893 108.078 138.409 107.679 138.409 107.679Z" fill="#E6E6E6"/>
<path d="M125.868 100.699C125.868 100.699 126.113 124.423 135.598 124.423C145.083 124.423 145.321 100.699 145.321 100.699H125.868Z" fill="#F0F0F0"/>
<path d="M68.8818 115.498C68.8818 115.498 69.4118 124.422 89.6639 124.422C109.916 124.422 110.454 115.498 110.454 115.498H68.8818Z" fill="#E6E6E6"/>
<path d="M282.394 169.305H271.703C270.371 169.305 269.292 170.384 269.292 171.716V189.396C269.292 190.727 270.371 191.807 271.703 191.807H282.394C283.725 191.807 284.805 190.727 284.805 189.396V171.716C284.805 170.384 283.725 169.305 282.394 169.305Z" fill="#F0F0F0"/>
<path d="M310.748 176.662H303.552C302.657 176.662 301.932 177.388 301.932 178.283V190.187C301.932 191.082 302.657 191.807 303.552 191.807H310.748C311.643 191.807 312.369 191.082 312.369 190.187V178.283C312.369 177.388 311.643 176.662 310.748 176.662Z" fill="#E6E6E6"/>
<path d="M311.823 175.195H302.477C302.176 175.195 301.932 175.439 301.932 175.741V176.355C301.932 176.656 302.176 176.9 302.477 176.9H311.823C312.125 176.9 312.369 176.656 312.369 176.355V175.741C312.369 175.439 312.125 175.195 311.823 175.195Z" fill="#F0F0F0"/>
<path d="M244.546 179.289C244.546 179.289 244.93 191.807 259.592 191.807C274.253 191.807 274.644 179.289 274.644 179.289H244.546Z" fill="#E6E6E6"/>
<path d="M208.082 162.754H230.27V158.376H208.082V162.754Z" fill="#E0E0E0"/>
<path d="M340.577 158.383H230.27V162.76H340.577V158.383Z" fill="#F0F0F0"/>
<path d="M208.082 196.184H230.27V191.806H208.082V196.184Z" fill="#E0E0E0"/>
<path d="M340.577 191.807H230.27V196.184H340.577V191.807Z" fill="#F0F0F0"/>
<path d="M216.077 162.754H211.983V257.924H216.077V162.754Z" fill="#E0E0E0"/>
<path d="M234.363 162.754H230.27V257.924H234.363V162.754Z" fill="#F0F0F0"/>
<path d="M326.384 162.754H322.291V257.924H326.384V162.754Z" fill="#E0E0E0"/>
<path d="M340.577 162.754H336.484V257.924H340.577V162.754Z" fill="#F0F0F0"/>
<path d="M68.8822 129.99H47.9004V252.171H68.8822V129.99Z" fill="#E6E6E6"/>
<path d="M155.397 252.164H51.9321V257.932H155.397V252.164Z" fill="#E6E6E6"/>
<path d="M68.8819 252.164H159.421L159.421 129.983H68.8819L68.8819 252.164Z" fill="#F0F0F0"/>
<path d="M77.13 205.998H151.173V176.154H77.13V205.998Z" fill="#E6E6E6"/>
<path d="M77.13 241.281H151.173V211.437H77.13V241.281Z" fill="#E6E6E6"/>
<path d="M122.465 179.425H105.838C105.297 179.423 104.778 179.208 104.396 178.825C104.013 178.442 103.797 177.924 103.795 177.383C103.795 176.84 104.01 176.32 104.393 175.935C104.776 175.551 105.295 175.334 105.838 175.332H122.465C123.008 175.334 123.527 175.551 123.91 175.935C124.293 176.32 124.508 176.84 124.508 177.383C124.506 177.924 124.29 178.442 123.907 178.825C123.525 179.208 123.006 179.423 122.465 179.425Z" fill="#F0F0F0"/>
<path d="M77.13 170.709H151.173V140.865H77.13V170.709Z" fill="#E6E6E6"/>
<path d="M122.465 144.144H105.838C105.295 144.142 104.776 143.925 104.393 143.541C104.01 143.157 103.795 142.636 103.795 142.094C103.797 141.552 104.013 141.034 104.396 140.651C104.778 140.269 105.297 140.053 105.838 140.051H122.465C123.006 140.053 123.525 140.269 123.907 140.651C124.29 141.034 124.506 141.552 124.508 142.094C124.508 142.636 124.293 143.157 123.91 143.541C123.527 143.925 123.008 144.142 122.465 144.144Z" fill="#F0F0F0"/>
<path d="M122.465 214.709H105.838C105.297 214.707 104.778 214.491 104.396 214.108C104.013 213.725 103.797 213.207 103.795 212.666C103.795 212.123 104.01 211.603 104.393 211.219C104.776 210.834 105.295 210.617 105.838 210.615H122.465C123.008 210.617 123.527 210.834 123.91 211.219C124.293 211.603 124.508 212.123 124.508 212.666C124.506 213.207 124.29 213.725 123.907 214.108C123.525 214.491 123.006 214.707 122.465 214.709Z" fill="#F0F0F0"/>
<path d="M162.217 124.422H68.8818V129.99H162.217V124.422Z" fill="#E6E6E6"/>
<path d="M44.9663 129.982H68.8818V124.414H44.9663V129.982Z" fill="#E0E0E0"/>
<path d="M92.2674 29.7969H58.3218V67.0756H92.2674V29.7969Z" fill="#E6E6E6"/>
<path d="M95.9463 29.7969H60.8794V67.0756H95.9463V29.7969Z" fill="#F0F0F0"/>
<path d="M93.0049 64.134V32.7305H63.8132V64.134H93.0049Z" fill="#FAFAFA"/>
<path d="M85.9316 56.5236V40.3418H70.8942V56.5236H85.9316Z" fill="#F0F0F0"/>
<path d="M128.056 18.791H102.313V46.4467H128.056V18.791Z" fill="#E6E6E6"/>
<path d="M130.79 18.791H104.778V46.4467H130.79V18.791Z" fill="#F0F0F0"/>
<path d="M128.609 44.2661V20.9727H106.959V44.2661H128.609Z" fill="#FAFAFA"/>
<path d="M117.78 26.7246L111.859 36.9851H123.701L117.78 26.7246Z" fill="#F0F0F0"/>
<path d="M192 292.614C274.239 292.614 340.907 288.722 340.907 283.92C340.907 279.119 274.239 275.227 192 275.227C109.76 275.227 43.0923 279.119 43.0923 283.92C43.0923 288.722 109.76 292.614 192 292.614Z" fill="#F5F5F5"/>
<path d="M322.407 76.2383H247.066C243.091 76.2383 239.87 79.4601 239.87 83.4344V103.925C239.87 107.899 243.091 111.121 247.066 111.121H322.407C326.381 111.121 329.603 107.899 329.603 103.925V83.4344C329.603 79.4601 326.381 76.2383 322.407 76.2383Z" fill="#0C9CFF"/>
<path d="M307.461 82.1211H248.609C247.914 82.1211 247.35 82.685 247.35 83.3806V84.763C247.35 85.4586 247.914 86.0225 248.609 86.0225H307.461C308.157 86.0225 308.72 85.4586 308.72 84.763V83.3806C308.72 82.685 308.157 82.1211 307.461 82.1211Z" fill="#0C9CFF"/>
<path d="M288.822 91.5234H248.609C247.914 91.5234 247.35 92.0873 247.35 92.783V94.1654C247.35 94.861 247.914 95.4249 248.609 95.4249H288.822C289.517 95.4249 290.081 94.861 290.081 94.1654V92.783C290.081 92.0873 289.517 91.5234 288.822 91.5234Z" fill="#0C9CFF"/>
<path d="M278.039 100.924H248.609C247.914 100.924 247.35 101.488 247.35 102.183V103.566C247.35 104.261 247.914 104.825 248.609 104.825H278.039C278.734 104.825 279.298 104.261 279.298 103.566V102.183C279.298 101.488 278.734 100.924 278.039 100.924Z" fill="#0C9CFF"/>
<path d="M314.512 100.924H285.082C284.386 100.924 283.822 101.488 283.822 102.183V103.566C283.822 104.261 284.386 104.825 285.082 104.825H314.512C315.207 104.825 315.771 104.261 315.771 103.566V102.183C315.771 101.488 315.207 100.924 314.512 100.924Z" fill="#0C9CFF"/>
<g opacity="0.5">
<path opacity="0.5" d="M307.461 82.1211H248.61C247.914 82.1211 247.35 82.685 247.35 83.3806V84.763C247.35 85.4586 247.914 86.0225 248.61 86.0225H307.461C308.157 86.0225 308.721 85.4586 308.721 84.763V83.3806C308.721 82.685 308.157 82.1211 307.461 82.1211Z" fill="white"/>
<path opacity="0.5" d="M288.822 91.5234H248.609C247.914 91.5234 247.35 92.0873 247.35 92.783V94.1654C247.35 94.861 247.914 95.4249 248.609 95.4249H288.822C289.517 95.4249 290.081 94.861 290.081 94.1654V92.783C290.081 92.0873 289.517 91.5234 288.822 91.5234Z" fill="white"/>
<path opacity="0.5" d="M278.039 100.924H248.609C247.914 100.924 247.35 101.488 247.35 102.183V103.566C247.35 104.261 247.914 104.825 248.609 104.825H278.039C278.734 104.825 279.298 104.261 279.298 103.566V102.183C279.298 101.488 278.734 100.924 278.039 100.924Z" fill="white"/>
<path opacity="0.5" d="M314.511 100.924H285.081C284.386 100.924 283.822 101.488 283.822 102.183V103.566C283.822 104.261 284.386 104.825 285.081 104.825H314.511C315.207 104.825 315.771 104.261 315.771 103.566V102.183C315.771 101.488 315.207 100.924 314.511 100.924Z" fill="white"/>
</g>
<path d="M262.057 68.1055H176.54C170.712 68.1055 165.988 72.8299 165.988 78.6578V108.702C165.988 114.53 170.712 119.254 176.54 119.254H262.057C267.885 119.254 272.609 114.53 272.609 108.702V78.6578C272.609 72.8299 267.885 68.1055 262.057 68.1055Z" fill="#0C9CFF"/>
<path d="M265.083 76.7305H178.806C177.784 76.7305 176.955 77.5591 176.955 78.5813V80.6012C176.955 81.6234 177.784 82.4521 178.806 82.4521H265.083C266.105 82.4521 266.934 81.6234 266.934 80.6012V78.5813C266.934 77.5591 266.105 76.7305 265.083 76.7305Z" fill="#0C9CFF"/>
<path d="M237.75 90.5156H178.806C177.784 90.5156 176.955 91.3443 176.955 92.3665V94.3863C176.955 95.4086 177.784 96.2372 178.806 96.2372H237.75C238.772 96.2372 239.601 95.4086 239.601 94.3863V92.3665C239.601 91.3443 238.772 90.5156 237.75 90.5156Z" fill="#0C9CFF"/>
<path d="M221.945 104.303H178.806C177.784 104.303 176.955 105.131 176.955 106.154V108.173C176.955 109.196 177.784 110.024 178.806 110.024H221.945C222.967 110.024 223.795 109.196 223.795 108.173V106.154C223.795 105.131 222.967 104.303 221.945 104.303Z" fill="#0C9CFF"/>
<path d="M268.224 104.303H232.282C231.26 104.303 230.431 105.131 230.431 106.154V108.173C230.431 109.196 231.26 110.024 232.282 110.024H268.224C269.247 110.024 270.075 109.196 270.075 108.173V106.154C270.075 105.131 269.247 104.303 268.224 104.303Z" fill="#0C9CFF"/>
<g opacity="0.5">
<path opacity="0.5" d="M265.083 76.7305H178.806C177.784 76.7305 176.955 77.5591 176.955 78.5813V80.6012C176.955 81.6234 177.784 82.4521 178.806 82.4521H265.083C266.105 82.4521 266.934 81.6234 266.934 80.6012V78.5813C266.934 77.5591 266.105 76.7305 265.083 76.7305Z" fill="white"/>
<path opacity="0.5" d="M237.75 90.5156H178.806C177.784 90.5156 176.955 91.3443 176.955 92.3665V94.3863C176.955 95.4086 177.784 96.2372 178.806 96.2372H237.75C238.772 96.2372 239.601 95.4086 239.601 94.3863V92.3665C239.601 91.3443 238.772 90.5156 237.75 90.5156Z" fill="white"/>
<path opacity="0.5" d="M221.945 104.303H178.806C177.784 104.303 176.955 105.131 176.955 106.154V108.173C176.955 109.196 177.784 110.024 178.806 110.024H221.945C222.967 110.024 223.795 109.196 223.795 108.173V106.154C223.795 105.131 222.967 104.303 221.945 104.303Z" fill="white"/>
<path opacity="0.5" d="M268.224 104.303H232.282C231.259 104.303 230.431 105.131 230.431 106.154V108.173C230.431 109.196 231.259 110.024 232.282 110.024H268.224C269.246 110.024 270.075 109.196 270.075 108.173V106.154C270.075 105.131 269.246 104.303 268.224 104.303Z" fill="white"/>
</g>
<path d="M208.888 128.525H167.701C164.978 128.525 162.77 130.733 162.77 133.456V195.157C162.77 197.88 164.978 200.088 167.701 200.088H208.888C211.611 200.088 213.819 197.88 213.819 195.157V133.456C213.819 130.733 211.611 128.525 208.888 128.525Z" fill="#0C9CFF"/>
<path opacity="0.4" d="M208.888 128.525H167.701C164.978 128.525 162.77 130.733 162.77 133.456V195.157C162.77 197.88 164.978 200.088 167.701 200.088H208.888C211.611 200.088 213.819 197.88 213.819 195.157V133.456C213.819 130.733 211.611 128.525 208.888 128.525Z" fill="black"/>
<path d="M206.999 135.99H169.582C169.082 135.99 168.676 136.396 168.676 136.896V138.256C168.676 138.756 169.082 139.162 169.582 139.162H206.999C207.499 139.162 207.905 138.756 207.905 138.256V136.896C207.905 136.396 207.499 135.99 206.999 135.99Z" fill="#FAFAFA"/>
<path d="M195.087 143.623H169.582C169.082 143.623 168.676 144.029 168.676 144.529V145.889C168.676 146.389 169.082 146.795 169.582 146.795H195.087C195.588 146.795 195.994 146.389 195.994 145.889V144.529C195.994 144.029 195.588 143.623 195.087 143.623Z" fill="#FAFAFA"/>
<path d="M206.999 151.266H169.582C169.082 151.266 168.676 151.671 168.676 152.172V153.531C168.676 154.032 169.082 154.437 169.582 154.437H206.999C207.499 154.437 207.905 154.032 207.905 153.531V152.172C207.905 151.671 207.499 151.266 206.999 151.266Z" fill="#FAFAFA"/>
<path d="M183.49 158.9H169.582C169.082 158.9 168.676 159.306 168.676 159.807V161.166C168.676 161.666 169.082 162.072 169.582 162.072H183.49C183.991 162.072 184.397 161.666 184.397 161.166V159.807C184.397 159.306 183.991 158.9 183.49 158.9Z" fill="#FAFAFA"/>
<path d="M202.952 158.9H189.043C188.543 158.9 188.137 159.306 188.137 159.807V161.166C188.137 161.666 188.543 162.072 189.043 162.072H202.952C203.452 162.072 203.858 161.666 203.858 161.166V159.807C203.858 159.306 203.452 158.9 202.952 158.9Z" fill="#FAFAFA"/>
<path d="M206.999 166.541H169.582C169.082 166.541 168.676 166.947 168.676 167.447V168.807C168.676 169.307 169.082 169.713 169.582 169.713H206.999C207.499 169.713 207.905 169.307 207.905 168.807V167.447C207.905 166.947 207.499 166.541 206.999 166.541Z" fill="#FAFAFA"/>
<path d="M206.999 174.174H169.582C169.082 174.174 168.676 174.58 168.676 175.08V176.439C168.676 176.94 169.082 177.346 169.582 177.346H206.999C207.499 177.346 207.905 176.94 207.905 176.439V175.08C207.905 174.58 207.499 174.174 206.999 174.174Z" fill="#FAFAFA"/>
<path d="M200.363 181.816H169.582C169.082 181.816 168.676 182.222 168.676 182.723V184.082C168.676 184.582 169.082 184.988 169.582 184.988H200.363C200.864 184.988 201.27 184.582 201.27 184.082V182.723C201.27 182.222 200.864 181.816 200.363 181.816Z" fill="#FAFAFA"/>
<path d="M183.944 189.449H169.582C169.082 189.449 168.676 189.855 168.676 190.355V191.715C168.676 192.215 169.082 192.621 169.582 192.621H183.944C184.444 192.621 184.85 192.215 184.85 191.715V190.355C184.85 189.855 184.444 189.449 183.944 189.449Z" fill="#FAFAFA"/>
<path d="M220.032 128.086H162.9L188.16 148.184L226.89 162.776V134.929C226.886 133.113 226.162 131.372 224.876 130.089C223.59 128.806 221.848 128.086 220.032 128.086Z" fill="#0C9CFF"/>
<path opacity="0.4" d="M220.032 128.086H162.9L188.16 148.184L226.89 162.776V134.929C226.886 133.113 226.162 131.372 224.876 130.089C223.59 128.806 221.848 128.086 220.032 128.086Z" fill="black"/>
<path d="M217.536 138.439H175.734C175.106 138.439 174.597 138.948 174.597 139.576V141.696C174.597 142.324 175.106 142.832 175.734 142.832H217.536C218.164 142.832 218.673 142.324 218.673 141.696V139.576C218.673 138.948 218.164 138.439 217.536 138.439Z" fill="#FAFAFA"/>
<path d="M318.835 182.492V142.31C318.835 139.231 316.339 136.734 313.26 136.734H243.487C240.408 136.734 237.911 139.231 237.911 142.31V182.492C237.911 185.571 240.408 188.067 243.487 188.067H313.26C316.339 188.067 318.835 185.571 318.835 182.492Z" fill="#0C9CFF"/>
<path d="M331.576 169.759V129.578C331.576 126.498 329.08 124.002 326 124.002H256.228C253.148 124.002 250.652 126.498 250.652 129.578V169.759C250.652 172.839 253.148 175.335 256.228 175.335H326C329.08 175.335 331.576 172.839 331.576 169.759Z" fill="#0C9CFF"/>
<path opacity="0.5" d="M331.576 169.759V129.578C331.576 126.498 329.08 124.002 326 124.002H256.228C253.148 124.002 250.652 126.498 250.652 129.578V169.759C250.652 172.839 253.148 175.335 256.228 175.335H326C329.08 175.335 331.576 172.839 331.576 169.759Z" fill="white"/>
<path d="M324.496 155.987V131.25C324.496 129.88 323.385 128.77 322.015 128.77H299.213C297.843 128.77 296.732 129.88 296.732 131.25V155.987C296.732 157.357 297.843 158.468 299.213 158.468H322.015C323.385 158.468 324.496 157.357 324.496 155.987Z" fill="#0C9CFF"/>
<path opacity="0.7" d="M324.496 155.987V131.25C324.496 129.88 323.385 128.77 322.015 128.77H299.213C297.843 128.77 296.732 129.88 296.732 131.25V155.987C296.732 157.357 297.843 158.468 299.213 158.468H322.015C323.385 158.468 324.496 157.357 324.496 155.987Z" fill="white"/>
<path d="M292.385 167.953V148.998C292.385 147.946 291.533 147.094 290.481 147.094H273.009C271.957 147.094 271.104 147.946 271.104 148.998V167.953C271.104 169.005 271.957 169.857 273.009 169.857H290.481C291.533 169.857 292.385 169.005 292.385 167.953Z" fill="#0C9CFF"/>
<path opacity="0.3" d="M292.385 167.953V148.998C292.385 147.946 291.533 147.094 290.481 147.094H273.009C271.957 147.094 271.104 147.946 271.104 148.998V167.953C271.104 169.005 271.957 169.857 273.009 169.857H290.481C291.533 169.857 292.385 169.005 292.385 167.953Z" fill="white"/>
<path d="M281.741 47.7764V37.5389C281.741 34.4087 279.204 31.8711 276.073 31.8711L88.5815 31.8711C85.4513 31.8711 82.9137 34.4087 82.9137 37.5389V47.7764C82.9137 50.9066 85.4513 53.4442 88.5815 53.4442L276.073 53.4442C279.204 53.4442 281.741 50.9066 281.741 47.7764Z" fill="#0C9CFF"/>
<path opacity="0.5" d="M281.741 47.7764V37.5389C281.741 34.4087 279.204 31.8711 276.073 31.8711L88.5815 31.8711C85.4513 31.8711 82.9137 34.4087 82.9137 37.5389V47.7764C82.9137 50.9066 85.4513 53.4442 88.5815 53.4442L276.073 53.4442C279.204 53.4442 281.741 50.9066 281.741 47.7764Z" fill="white"/>
<path d="M246.267 57.0535V49.627H192.315V57.0535H246.267Z" fill="#0C9CFF"/>
<path opacity="0.5" d="M246.267 57.0535V49.627H192.315V57.0535H246.267Z" fill="white"/>
<path d="M301.087 15.9053V5.66784C301.087 2.53758 298.549 0 295.419 0L107.927 0C104.797 0 102.259 2.53758 102.259 5.66784V15.9053C102.259 19.0355 104.797 21.5731 107.927 21.5731L295.419 21.5731C298.549 21.5731 301.087 19.0355 301.087 15.9053Z" fill="#0C9CFF"/>
<path d="M100.117 113.44C99.4408 114.976 98.6958 116.635 98.043 118.256C97.3902 119.876 96.7144 121.543 96.123 123.202C94.9096 126.436 93.9368 129.755 93.2123 133.132L92.9896 134.361L92.9128 134.822C92.9128 134.952 92.9128 135.121 92.8667 135.275C92.8375 136.022 92.8529 136.771 92.9128 137.517C93.0587 139.138 93.3198 140.873 93.6808 142.609C94.3259 146.088 95.1477 149.675 95.9848 153.207L92.0449 154.743C90.2084 151.396 88.6443 147.905 87.3678 144.306C86.6953 142.433 86.1513 140.516 85.7396 138.569C85.509 137.492 85.3652 136.398 85.3096 135.298C85.3096 134.99 85.3096 134.699 85.3096 134.368C85.3096 134.038 85.3096 133.67 85.3633 133.454L85.5169 131.918C85.7464 129.94 86.0978 127.978 86.5691 126.043C86.9992 124.123 87.5521 122.257 88.1051 120.414C88.658 118.571 89.3492 116.758 90.0788 114.976C90.4398 114.086 90.8468 113.202 91.2001 112.319C91.5534 111.436 91.9681 110.591 92.4596 109.646L100.117 113.44Z" fill="#E4897B"/>
<path d="M95.7771 152.17L98.7723 155.096L92.2366 158.168C92.2366 158.168 90.6545 155.396 91.7527 152.892L95.7771 152.17Z" fill="#E4897B"/>
<path d="M101.192 159.45L95.6699 161.708L92.2446 158.137L98.7726 155.096L101.192 159.45Z" fill="#E4897B"/>
<path opacity="0.4" d="M213.051 156.301C202.184 155.081 191.924 150.667 183.566 143.616C175.208 136.565 169.128 127.195 166.095 116.689C163.062 106.183 163.211 95.0144 166.525 84.5938C169.839 74.1732 176.167 64.969 184.711 58.1448C193.255 51.3206 203.631 47.1827 214.526 46.2544C225.421 45.326 236.347 47.6488 245.923 52.9291C255.498 58.2094 263.293 66.2101 268.322 75.9198C273.351 85.6295 275.388 96.6123 274.176 107.48C273.371 114.7 271.151 121.691 267.642 128.053C264.134 134.414 259.407 140.023 253.73 144.557C248.054 149.091 241.539 152.462 234.559 154.477C227.579 156.492 220.271 157.112 213.051 156.301Z" fill="#FAFAFA"/>
<path opacity="0.4" d="M253.279 57.7824L169.183 124.975C168.83 124.207 168.484 123.439 168.161 122.671C166.053 117.656 164.705 112.355 164.16 106.942L236.798 48.9043C242.761 50.8936 248.337 53.897 253.279 57.7824Z" fill="#FAFAFA"/>
<path opacity="0.4" d="M272.686 87.2193L193.621 150.387C186.109 146.472 179.6 140.88 174.597 134.044L260.928 65.0625C266.493 71.4499 270.516 79.0305 272.686 87.2193Z" fill="#FAFAFA"/>
<path d="M156.972 80.2163L156.242 79.9705C157.506 76.2419 159.094 72.6313 160.988 69.1801L161.657 69.5488C159.787 72.9613 158.22 76.5307 156.972 80.2163ZM166.295 62.2912L165.673 61.838C171.985 53.3039 180.245 46.4023 189.765 41.7088L190.111 42.4C180.699 47.0451 172.533 53.8729 166.295 62.3142V62.2912ZM250.46 43.4521C247.951 42.106 245.354 40.9284 242.688 39.927L242.965 39.2051C245.657 40.2299 248.279 41.4306 250.814 42.7993L250.46 43.4521Z" fill="#0C9CFF"/>
<path opacity="0.3" d="M156.972 80.2163L156.242 79.9705C157.506 76.2419 159.094 72.6313 160.988 69.1801L161.657 69.5488C159.787 72.9613 158.22 76.5307 156.972 80.2163ZM166.295 62.2912L165.673 61.838C171.985 53.3039 180.245 46.4023 189.765 41.7088L190.111 42.4C180.699 47.0451 172.533 53.8729 166.295 62.3142V62.2912ZM250.46 43.4521C247.951 42.106 245.354 40.9284 242.688 39.927L242.965 39.2051C245.657 40.2299 248.279 41.4306 250.814 42.7993L250.46 43.4521Z" fill="black"/>
<path d="M276.38 73.1043C269.269 58.3551 256.754 46.9081 241.431 41.1363C226.108 35.3646 209.151 35.7108 194.077 42.1031C179.002 48.4955 166.965 60.4437 160.462 75.4709C153.958 90.498 153.487 107.452 159.145 122.817C154.015 124.614 148.946 126.542 143.908 128.531C136.643 131.413 129.444 134.424 122.312 137.563C115.185 140.719 108.088 143.937 101.061 147.301C97.536 148.952 94.0569 150.695 90.5472 152.385C88.7213 153.169 87.0671 154.305 85.6781 155.726C84.9264 156.513 84.2644 157.381 83.7043 158.314C83.0208 159.418 82.5033 160.616 82.1683 161.87C81.5904 164.13 81.8403 166.522 82.8728 168.614C83.9053 170.706 85.6523 172.359 87.7977 173.275C88.9891 173.774 90.2461 174.1 91.5302 174.242C92.6147 174.365 93.7097 174.365 94.7942 174.242C96.7651 174.003 98.6699 173.379 100.401 172.407C103.88 170.648 107.382 168.951 110.838 167.146C117.75 163.621 124.662 159.942 131.489 156.21C138.317 152.477 145.152 148.568 151.818 144.559C156.426 141.771 161.08 138.922 165.642 135.942C174.402 149.771 188.147 159.7 204.028 163.671C219.909 167.642 236.709 165.351 250.948 157.273C265.186 149.195 275.77 135.949 280.508 120.279C285.245 104.609 283.773 87.7178 276.396 73.1043H276.38ZM241.467 146.471C232.542 150.877 222.511 152.537 212.642 151.242C202.773 149.946 193.51 145.754 186.024 139.194C178.538 132.635 173.165 124.003 170.585 114.39C168.005 104.777 168.332 94.615 171.527 85.1884C174.722 75.7619 180.64 67.4943 188.534 61.4311C196.427 55.3679 205.941 51.7814 215.873 51.125C225.804 50.4686 235.707 52.7719 244.33 57.7436C252.952 62.7153 259.907 70.1321 264.315 79.0563C267.242 84.9829 268.973 91.4281 269.409 98.0237C269.845 104.619 268.977 111.236 266.855 117.497C264.734 123.757 261.399 129.538 257.043 134.509C252.687 139.481 247.394 143.546 241.467 146.471Z" fill="#0C9CFF"/>
<path opacity="0.3" d="M276.38 73.1043C269.269 58.3551 256.754 46.9081 241.431 41.1363C226.108 35.3646 209.151 35.7108 194.077 42.1031C179.002 48.4955 166.965 60.4437 160.462 75.4709C153.958 90.498 153.487 107.452 159.145 122.817C154.015 124.614 148.946 126.542 143.908 128.531C136.643 131.413 129.444 134.424 122.312 137.563C115.185 140.719 108.088 143.937 101.061 147.301C97.536 148.952 94.0569 150.695 90.5472 152.385C88.7213 153.169 87.0671 154.305 85.6781 155.726C84.9264 156.513 84.2644 157.381 83.7043 158.314C83.0208 159.418 82.5033 160.616 82.1683 161.87C81.5904 164.13 81.8403 166.522 82.8728 168.614C83.9053 170.706 85.6523 172.359 87.7977 173.275C88.9891 173.774 90.2461 174.1 91.5302 174.242C92.6147 174.365 93.7097 174.365 94.7942 174.242C96.7651 174.003 98.6699 173.379 100.401 172.407C103.88 170.648 107.382 168.951 110.838 167.146C117.75 163.621 124.662 159.942 131.489 156.21C138.317 152.477 145.152 148.568 151.818 144.559C156.426 141.771 161.08 138.922 165.642 135.942C174.402 149.771 188.147 159.7 204.028 163.671C219.909 167.642 236.709 165.351 250.948 157.273C265.186 149.195 275.77 135.949 280.508 120.279C285.245 104.609 283.773 87.7178 276.396 73.1043H276.38ZM241.467 146.471C232.542 150.877 222.511 152.537 212.642 151.242C202.773 149.946 193.51 145.754 186.024 139.194C178.538 132.635 173.165 124.003 170.585 114.39C168.005 104.777 168.332 94.615 171.527 85.1884C174.722 75.7619 180.64 67.4943 188.534 61.4311C196.427 55.3679 205.941 51.7814 215.873 51.125C225.804 50.4686 235.707 52.7719 244.33 57.7436C252.952 62.7153 259.907 70.1321 264.315 79.0563C267.242 84.9829 268.973 91.4281 269.409 98.0237C269.845 104.619 268.977 111.236 266.855 117.497C264.734 123.757 261.399 129.538 257.043 134.509C252.687 139.481 247.394 143.546 241.467 146.471Z" fill="black"/>
<path d="M121.344 86.0132C121.344 86.4663 121.582 86.8349 121.882 86.8349C122.181 86.8349 122.419 86.4663 122.419 86.0132C122.419 85.5601 122.181 85.1914 121.882 85.1914C121.582 85.1914 121.344 85.5908 121.344 86.0132Z" fill="#263238"/>
<path d="M121.559 86.8359C122.103 88.2269 122.834 89.5369 123.733 90.7297C123.422 90.952 123.066 91.1035 122.691 91.1739C122.315 91.2442 121.929 91.2315 121.559 91.1367V86.8359Z" fill="#DE5753"/>
<path d="M119.754 83.4879C119.711 83.4879 119.669 83.4783 119.631 83.4597C119.592 83.441 119.558 83.4139 119.532 83.3804C119.492 83.3218 119.476 83.25 119.487 83.18C119.498 83.1099 119.536 83.0469 119.593 83.0041C119.931 82.7476 120.326 82.5766 120.745 82.5057C121.164 82.4348 121.593 82.4662 121.997 82.597C122.033 82.6069 122.067 82.6243 122.096 82.648C122.125 82.6718 122.149 82.7014 122.166 82.7349C122.183 82.7685 122.193 82.8052 122.195 82.8427C122.197 82.8803 122.191 82.9178 122.177 82.9529C122.164 82.988 122.143 83.0198 122.116 83.0464C122.09 83.073 122.058 83.0937 122.023 83.1072C121.988 83.1207 121.95 83.1267 121.913 83.1248C121.875 83.123 121.838 83.1132 121.805 83.0962C121.484 82.9979 121.144 82.9779 120.814 83.038C120.484 83.0982 120.173 83.2367 119.908 83.4418C119.862 83.472 119.809 83.4881 119.754 83.4879Z" fill="#263238"/>
<path d="M105.831 89.4316C106.599 93.5558 107.443 101.121 104.556 103.878C104.556 103.878 105.685 108.063 113.357 108.063C121.805 108.063 117.381 103.878 117.381 103.878C112.773 102.772 112.904 99.3619 113.703 96.1516L105.831 89.4316Z" fill="#E4897B"/>
<path d="M101.107 106.051C102.021 104.63 100.485 101.182 100.485 101.182C100.485 101.182 114.064 97.7644 119.616 103.01C120.768 104.093 119.493 105.69 119.493 105.69L101.107 106.051Z" fill="#0C9CFF"/>
<path opacity="0.1" d="M101.107 106.051C102.021 104.63 100.485 101.182 100.485 101.182C100.485 101.182 114.064 97.7644 119.616 103.01C120.768 104.093 119.493 105.69 119.493 105.69L101.107 106.051Z" fill="black"/>
<path d="M78.6431 262.747C77.9288 262.747 76.7845 261.557 76.4466 261.112C76.4321 261.09 76.4243 261.065 76.4243 261.039C76.4243 261.013 76.4321 260.987 76.4466 260.966C76.459 260.944 76.477 260.926 76.4986 260.914C76.5202 260.902 76.5447 260.896 76.5695 260.897C76.654 260.897 78.5356 261.065 79.0501 261.734C79.1061 261.804 79.146 261.886 79.1673 261.974C79.1885 262.061 79.1904 262.152 79.173 262.241C79.1663 262.355 79.1243 262.464 79.0528 262.554C78.9812 262.643 78.8837 262.708 78.7736 262.74L78.6431 262.747ZM76.8613 261.211C77.422 261.857 78.3205 262.586 78.7045 262.494C78.7045 262.494 78.8581 262.456 78.9042 262.21C78.9143 262.159 78.9126 262.106 78.8993 262.055C78.886 262.004 78.8614 261.958 78.8274 261.918C78.2585 261.487 77.5739 261.236 76.8613 261.196V261.211Z" fill="#0C9CFF"/>
<path d="M76.9459 261.196C76.808 261.21 76.6691 261.21 76.5312 261.196C76.5069 261.194 76.4837 261.185 76.4646 261.17C76.4454 261.155 76.4312 261.135 76.4237 261.112C76.4129 261.09 76.4072 261.066 76.4072 261.042C76.4072 261.018 76.4129 260.995 76.4237 260.973C76.4774 260.927 77.6064 259.752 78.4589 259.752C78.5609 259.75 78.6622 259.769 78.7562 259.809C78.8502 259.849 78.9347 259.908 79.0041 259.983C79.0806 260.047 79.1329 260.135 79.1525 260.232C79.172 260.33 79.1576 260.432 79.1117 260.52C78.8889 260.95 77.7139 261.196 76.9459 261.196ZM76.8461 260.927C77.6141 260.927 78.7277 260.689 78.912 260.351C78.912 260.351 78.9657 260.251 78.8429 260.128C78.7982 260.08 78.7434 260.042 78.6824 260.016C78.6213 259.991 78.5555 259.98 78.4896 259.983C77.86 260.127 77.2878 260.456 76.8461 260.927Z" fill="#0C9CFF"/>
<path d="M129.324 280.18C128.742 280.176 128.161 280.122 127.588 280.019C127.559 280.013 127.534 279.998 127.516 279.976C127.497 279.953 127.488 279.925 127.488 279.896C127.484 279.869 127.487 279.842 127.498 279.818C127.509 279.793 127.527 279.772 127.55 279.758C127.634 279.712 129.6 278.583 130.545 278.844C130.632 278.864 130.715 278.901 130.788 278.954C130.86 279.007 130.921 279.074 130.967 279.151C131.027 279.236 131.06 279.338 131.06 279.443C131.06 279.547 131.027 279.649 130.967 279.735C130.744 280.08 130.046 280.18 129.324 280.18ZM128.026 279.819C129.07 279.973 130.499 279.965 130.76 279.596C130.798 279.55 130.829 279.466 130.76 279.305C130.701 279.209 130.607 279.14 130.499 279.113C129.9 278.959 128.709 279.466 128.026 279.819Z" fill="#0C9CFF"/>
<path d="M127.619 280.025C127.594 280.033 127.567 280.033 127.542 280.025C127.521 280.012 127.504 279.992 127.495 279.969C127.485 279.945 127.483 279.919 127.488 279.895C127.54 279.095 127.847 278.334 128.364 277.721C128.468 277.631 128.591 277.565 128.724 277.526C128.856 277.488 128.995 277.478 129.132 277.499C129.501 277.499 129.608 277.721 129.631 277.867C129.731 278.505 128.387 279.726 127.703 280.033L127.619 280.025ZM128.994 277.721C128.825 277.72 128.661 277.78 128.533 277.89C128.099 278.375 127.83 278.986 127.765 279.634C128.456 279.211 129.378 278.259 129.301 277.875C129.301 277.875 129.301 277.744 129.04 277.721H128.994Z" fill="#0C9CFF"/>
<path d="M121.413 279.888H127.058L127.619 266.824H121.974L121.413 279.888Z" fill="#E4897B"/>
<path d="M71.1475 257.463L75.863 260.551L86.2771 251.757L81.5539 248.662L71.1475 257.463Z" fill="#E4897B"/>
<path d="M76.6388 260.259L71.7389 256.243C71.6524 256.172 71.5438 256.133 71.4317 256.133C71.3197 256.133 71.2111 256.172 71.1245 256.243L67.0849 259.415C66.9873 259.492 66.9085 259.591 66.8543 259.703C66.8001 259.816 66.772 259.939 66.772 260.064C66.772 260.188 66.8001 260.312 66.8543 260.424C66.9085 260.536 66.9873 260.635 67.0849 260.713C68.8205 262.087 69.7345 262.671 71.8925 264.437C73.2212 265.52 76.5005 268.838 78.3514 270.336C80.2023 271.833 81.8996 270.22 81.2852 269.445C78.5281 265.95 77.4452 262.963 77.1303 261.112C77.0759 260.777 76.9011 260.474 76.6388 260.259Z" fill="#263238"/>
<path d="M127.02 279.234H120.876C120.764 279.235 120.655 279.273 120.567 279.343C120.48 279.412 120.418 279.509 120.392 279.618L119.278 284.633C119.25 284.755 119.25 284.881 119.278 285.003C119.306 285.124 119.362 285.238 119.44 285.335C119.519 285.432 119.618 285.51 119.731 285.562C119.844 285.615 119.968 285.642 120.092 285.639C122.312 285.601 125.522 285.471 128.318 285.471C131.582 285.471 134.408 285.647 138.233 285.647C140.537 285.647 141.197 283.305 140.222 283.097C135.813 282.13 132.204 282.03 128.394 279.672C127.986 279.401 127.51 279.25 127.02 279.234Z" fill="#263238"/>
<path d="M93.4349 105.56C88.5427 107.864 85.7549 123.301 85.7549 123.301L97.7126 128.07C99.463 123.796 100.878 119.393 101.944 114.899C103.588 107.787 98.4422 103.179 93.4349 105.56Z" fill="#263238"/>
<path d="M99.7787 114.262C96.8219 117.258 95.4703 123.125 94.8789 126.942L97.7435 128.086C99.4441 123.934 100.83 119.659 101.891 115.299C101.637 113.671 101.008 113.018 99.7787 114.262Z" fill="#203048"/>
<path d="M126.06 105.452C126.06 105.452 132.066 112.242 126.398 154.22H96.2229C96.0156 149.612 98.9263 126.995 94.4565 105.168C97.7912 104.522 101.165 104.096 104.556 103.893C108.827 103.64 113.11 103.64 117.381 103.893C120.31 104.188 123.212 104.709 126.06 105.452Z" fill="#263238"/>
<path d="M128.817 121.749L123.733 112.986C122.751 117.075 122.35 121.281 122.542 125.482C122.68 128.492 125.438 139.644 127.918 141.272C128.576 134.786 128.876 128.268 128.817 121.749Z" fill="#203048"/>
<path d="M129.523 111.451C130.291 115.184 131.059 119.008 131.881 122.756C132.703 126.504 133.555 130.267 134.546 133.9C134.799 134.798 135.038 135.72 135.314 136.58L135.521 137.241L135.621 137.571V137.532C135.567 137.463 135.506 137.456 135.552 137.532C135.868 137.877 136.271 138.129 136.719 138.262C137.445 138.532 138.193 138.74 138.954 138.884C142.585 139.46 146.262 139.699 149.937 139.598L150.666 143.776C149.637 144.107 148.677 144.345 147.663 144.583C146.65 144.821 145.651 145.02 144.63 145.174C142.517 145.526 140.374 145.67 138.232 145.604C137.042 145.572 135.858 145.418 134.7 145.143C133.226 144.821 131.842 144.179 130.645 143.262C129.863 142.63 129.217 141.846 128.748 140.958C128.625 140.727 128.517 140.466 128.417 140.243L128.279 139.883L127.995 139.115C127.603 138.139 127.281 137.179 126.927 136.219C125.63 132.379 124.547 128.501 123.594 124.63C122.642 120.759 121.82 116.896 121.137 112.926L129.523 111.451Z" fill="#E4897B"/>
<path d="M118.526 109.568C116.936 114.721 123.379 130.089 123.379 130.089L136.213 126.863C136.213 126.863 135.721 118.876 132.795 112.54C128.387 102.986 120.43 103.386 118.526 109.568Z" fill="#263238"/>
<path d="M149.829 139.597L156.219 139.436L153.147 146.086C153.147 146.086 150.543 146.432 148.408 142.922L146.158 140.234L148.746 139.72C149.103 139.645 149.465 139.604 149.829 139.597Z" fill="#E4897B"/>
<path d="M160.251 140.672L156.595 146.186L153.147 146.086L156.219 139.436L160.251 140.672Z" fill="#E4897B"/>
<path d="M127.619 266.824L127.327 273.56H121.682L121.974 266.824H127.619Z" fill="#CE6F64"/>
<path d="M81.5539 248.662L86.2771 251.757L80.9011 256.288L76.1855 253.201L81.5539 248.662Z" fill="#CE6F64"/>
<path d="M106.184 85.0377C106.522 90.6211 106.437 93.9158 109.256 96.7805C113.495 101.104 120.399 98.5469 121.736 92.9405C122.941 87.9178 122.189 79.6233 116.721 77.3961C115.514 76.9091 114.204 76.7367 112.912 76.8949C111.621 77.0531 110.391 77.5369 109.337 78.3007C108.284 79.0646 107.442 80.0835 106.89 81.262C106.339 82.4404 106.096 83.7396 106.184 85.0377Z" fill="#E4897B"/>
<path d="M99.6097 84.0575C101 89.1493 104.271 95.0169 108.503 95.3932C113.756 95.854 116.129 90.4242 116.821 84.8178C119.969 82.6597 118.318 80.2866 121.475 79.9871C125.53 79.6031 124.232 72.1842 118.894 70.9938C118.894 70.9938 120.684 74.3346 116.928 72.645C113.357 70.9476 109.389 70.2598 105.454 70.6559C105.454 70.6559 110.246 73.0521 105.562 74.1196C100.877 75.1871 99.4791 78.0748 101.637 79.8181C101.637 79.8258 98.6957 80.709 99.6097 84.0575Z" fill="#263238"/>
<path d="M113.618 85.9695C113.721 87.3574 114.28 88.6723 115.208 89.7097C116.437 91.069 117.719 90.2242 117.934 88.573C118.134 87.0908 117.727 84.5948 116.222 83.8422C114.716 83.0895 113.518 84.2953 113.618 85.9695Z" fill="#E4897B"/>
<path d="M115.692 154.221C115.692 154.221 121.191 194.041 116.859 210C109.993 235.268 83.7429 256.595 83.7429 256.595L74.8418 250.758C74.8418 250.758 97.1983 232.749 99.9324 211.59C102.39 192.598 96.2229 169.627 96.2229 154.213L115.692 154.221Z" fill="#0C9CFF"/>
<path opacity="0.1" d="M115.692 154.221C115.692 154.221 121.191 194.041 116.859 210C109.993 235.268 83.7429 256.595 83.7429 256.595L74.8418 250.758C74.8418 250.758 97.1983 232.749 99.9324 211.59C102.39 192.598 96.2229 169.627 96.2229 154.213L115.692 154.221Z" fill="black"/>
<path d="M117.965 176.985C116.501 175.308 114.889 173.766 113.149 172.377C114.086 185.302 114.854 204.449 114.002 218.05C115.148 215.442 116.103 212.755 116.859 210.009C118.971 202.214 118.748 188.751 117.965 176.985Z" fill="#0C9CFF"/>
<path opacity="0.3" d="M117.965 176.985C116.501 175.308 114.889 173.766 113.149 172.377C114.086 185.302 114.854 204.449 114.002 218.05C115.148 215.442 116.103 212.755 116.859 210.009C118.971 202.214 118.748 188.751 117.965 176.985Z" fill="black"/>
<path d="M87.3294 254.605C87.3678 254.605 83.8811 256.909 83.8811 256.909L74.1582 250.534L77.2302 247.992L87.3294 254.605Z" fill="#0C9CFF"/>
<path opacity="0.3" d="M87.3294 254.605C87.3678 254.605 83.8811 256.909 83.8811 256.909L74.1582 250.534L77.2302 247.992L87.3294 254.605Z" fill="black"/>
<path d="M126.398 154.221C126.398 154.221 134.892 190.24 135.491 207.451C136.166 226.743 129.431 272.255 129.431 272.255H119.87C119.87 272.255 118.694 226.39 118.272 208.818C117.804 189.656 106.56 154.221 106.56 154.221H126.398Z" fill="#0C9CFF"/>
<path opacity="0.1" d="M126.398 154.221C126.398 154.221 134.892 190.24 135.491 207.451C136.166 226.743 129.431 272.255 129.431 272.255H119.87C119.87 272.255 118.694 226.39 118.272 208.818C117.804 189.656 106.56 154.221 106.56 154.221H126.398Z" fill="black"/>
<path d="M131.267 268.453C131.313 268.453 130.729 272.416 130.729 272.416H119.102L118.787 268.876L131.267 268.453Z" fill="#0C9CFF"/>
<path opacity="0.3" d="M131.267 268.453C131.313 268.453 130.729 272.416 130.729 272.416H119.102L118.787 268.876L131.267 268.453Z" fill="black"/>
<path d="M273.408 119.607C274.06 120.222 274.575 120.744 275.113 121.328C275.65 121.911 276.157 122.48 276.649 123.071C277.647 124.246 278.584 125.483 279.49 126.727C281.3 129.223 282.91 131.857 284.306 134.606L284.59 135.167C284.728 135.438 284.844 135.721 284.935 136.012C285.121 136.574 285.234 137.157 285.273 137.748C285.323 138.789 285.18 139.83 284.851 140.82C284.29 142.463 283.456 144 282.386 145.366C280.456 147.845 278.18 150.033 275.627 151.863L273.715 149.667C274.613 148.615 275.55 147.486 276.387 146.357C277.239 145.263 278.009 144.108 278.691 142.901C279.329 141.848 279.8 140.703 280.089 139.506C280.189 139.078 280.207 138.635 280.143 138.201C280.116 138.054 280.069 137.912 280.005 137.778C279.976 137.719 279.943 137.663 279.905 137.609L279.659 137.195C278.178 134.78 276.571 132.444 274.844 130.198C273.991 129.069 273.077 127.986 272.156 126.919C271.703 126.381 271.234 125.859 270.766 125.337C270.297 124.814 269.79 124.292 269.383 123.885L273.408 119.607Z" fill="#E4897B"/>
<path d="M274.453 149.021L268.716 148.084L271.719 153.107C271.719 153.107 275.413 152.976 276.465 150.803L274.453 149.021Z" fill="#E4897B"/>
<path d="M264.476 150.403L267.21 154.481L271.718 153.107L268.715 148.084L264.476 150.403Z" fill="#E4897B"/>
<path d="M274.176 280.11C273.786 280.144 273.397 280.038 273.078 279.811C272.982 279.72 272.911 279.606 272.872 279.479C272.833 279.353 272.827 279.218 272.855 279.089C272.861 279.007 272.889 278.927 272.936 278.859C272.983 278.792 273.048 278.738 273.124 278.705C273.792 278.405 275.543 279.527 275.743 279.657C275.766 279.671 275.783 279.692 275.793 279.717C275.803 279.742 275.804 279.77 275.797 279.795C275.794 279.822 275.782 279.846 275.764 279.866C275.746 279.885 275.723 279.898 275.697 279.903C275.199 280.029 274.689 280.099 274.176 280.11ZM273.408 278.92C273.352 278.911 273.295 278.911 273.239 278.92C273.205 278.936 273.177 278.961 273.156 278.992C273.136 279.023 273.125 279.059 273.124 279.097C273.104 279.182 273.106 279.272 273.13 279.357C273.154 279.441 273.2 279.518 273.262 279.58C273.554 279.842 274.307 279.88 275.313 279.68C274.736 279.3 274.088 279.041 273.408 278.92Z" fill="#0C9CFF"/>
<path d="M275.712 279.896H275.643C275.097 279.581 274.045 278.36 274.176 277.692C274.2 277.587 274.259 277.492 274.342 277.423C274.425 277.354 274.528 277.313 274.636 277.308C274.74 277.293 274.846 277.302 274.946 277.334C275.045 277.366 275.137 277.42 275.212 277.492C275.842 278.045 275.85 279.704 275.85 279.796C275.848 279.819 275.841 279.842 275.829 279.862C275.817 279.882 275.801 279.899 275.781 279.911L275.712 279.896ZM274.729 277.592H274.667C274.498 277.592 274.46 277.684 274.444 277.753C274.368 278.145 275.02 279.082 275.566 279.52C275.579 278.875 275.394 278.243 275.036 277.707C274.99 277.664 274.935 277.632 274.876 277.612C274.816 277.592 274.753 277.585 274.69 277.592H274.729Z" fill="#0C9CFF"/>
<path d="M248.003 280.112C247.513 280.159 247.021 280.034 246.613 279.759C246.521 279.677 246.45 279.574 246.405 279.459C246.361 279.344 246.346 279.22 246.359 279.098C246.364 279.023 246.388 278.951 246.428 278.888C246.469 278.825 246.524 278.773 246.59 278.737C247.304 278.338 249.593 279.505 249.854 279.651C249.878 279.667 249.897 279.688 249.909 279.714C249.921 279.74 249.926 279.769 249.923 279.797C249.918 279.824 249.906 279.849 249.886 279.868C249.867 279.887 249.842 279.9 249.815 279.904C249.219 280.031 248.612 280.101 248.003 280.112ZM246.981 278.921C246.894 278.916 246.806 278.934 246.728 278.975C246.7 278.988 246.677 279.009 246.661 279.035C246.644 279.061 246.636 279.091 246.636 279.121C246.624 279.201 246.632 279.283 246.659 279.359C246.685 279.435 246.73 279.504 246.789 279.559C247.143 279.874 248.087 279.928 249.362 279.712C248.619 279.316 247.814 279.049 246.981 278.921Z" fill="#0C9CFF"/>
<path d="M249.792 279.897H249.73C249.047 279.59 247.688 278.361 247.795 277.693C247.795 277.539 247.933 277.347 248.31 277.309C248.447 277.294 248.586 277.307 248.718 277.348C248.85 277.389 248.973 277.457 249.078 277.547C249.8 278.146 249.938 279.697 249.938 279.766C249.941 279.79 249.937 279.813 249.928 279.835C249.918 279.857 249.903 279.875 249.884 279.889C249.855 279.902 249.823 279.904 249.792 279.897ZM248.417 277.593H248.333C248.087 277.593 248.072 277.716 248.064 277.746C248.002 278.138 248.924 279.113 249.6 279.536C249.533 278.879 249.265 278.26 248.832 277.762C248.715 277.662 248.57 277.603 248.417 277.593Z" fill="#0C9CFF"/>
<path d="M258.87 101.949C258.647 105.421 258.048 112.471 260.713 114.422C260.713 114.422 260.229 117.977 253.939 118.807C247.027 119.705 250.184 115.804 250.184 115.804C253.847 114.406 253.378 111.618 252.38 109.069L258.87 101.949Z" fill="#E4897B"/>
<path d="M244.562 95.8136C244.524 95.8137 244.487 95.8055 244.452 95.7895C244.418 95.7736 244.387 95.7504 244.362 95.7214C244.143 95.4609 243.865 95.2557 243.552 95.1223C243.238 94.9889 242.898 94.931 242.558 94.9534C242.522 94.96 242.485 94.9591 242.449 94.951C242.414 94.9428 242.38 94.9275 242.351 94.9059C242.321 94.8844 242.296 94.857 242.278 94.8256C242.259 94.7941 242.247 94.7592 242.243 94.723C242.234 94.6508 242.254 94.578 242.299 94.5205C242.343 94.463 242.409 94.4254 242.481 94.4158C242.914 94.3792 243.35 94.448 243.752 94.6166C244.153 94.7851 244.507 95.0482 244.785 95.3835C244.818 95.4236 244.839 95.4722 244.846 95.5238C244.853 95.5754 244.845 95.6279 244.824 95.6752C244.802 95.7226 244.767 95.7629 244.724 95.7914C244.68 95.8199 244.629 95.8356 244.577 95.8366L244.562 95.8136Z" fill="#263238"/>
<path d="M243.364 99.2168C243.091 100.318 242.67 101.378 242.112 102.366C242.368 102.504 242.652 102.583 242.942 102.599C243.233 102.615 243.524 102.567 243.794 102.458L243.364 99.2168Z" fill="#DE5753"/>
<path d="M243.671 98.371C243.732 98.8318 243.54 99.2311 243.241 99.2772C242.941 99.3233 242.642 98.97 242.588 98.5092C242.534 98.0484 242.718 97.6491 243.018 97.6107C243.318 97.5723 243.617 97.8795 243.671 98.371Z" fill="#263238"/>
<path d="M243.157 97.62L242.012 97.4434C242.012 97.4434 242.688 98.2344 243.157 97.62Z" fill="#263238"/>
<path d="M256.121 279.774H250.361L249.977 266.449H255.737L256.121 279.774Z" fill="#E4897B"/>
<path d="M282.271 279.774H276.511L274.66 266.449H280.42L282.271 279.774Z" fill="#E4897B"/>
<path d="M276.157 279.129H282.624C282.734 279.128 282.841 279.167 282.924 279.239C283.008 279.311 283.062 279.411 283.077 279.521L283.845 284.643C283.859 284.772 283.846 284.903 283.806 285.027C283.766 285.15 283.7 285.264 283.613 285.36C283.526 285.457 283.42 285.534 283.301 285.586C283.182 285.639 283.053 285.665 282.923 285.665C280.673 285.626 279.583 285.496 276.741 285.496C274.99 285.496 272.433 285.672 270.021 285.672C267.61 285.672 267.479 283.284 268.485 283.069C272.993 282.101 273.707 280.765 275.22 279.482C275.485 279.263 275.814 279.139 276.157 279.129Z" fill="#263238"/>
<path d="M250.168 279.129H256.627C256.738 279.128 256.846 279.167 256.931 279.239C257.015 279.311 257.071 279.411 257.088 279.521L257.856 284.643C257.87 284.772 257.857 284.903 257.817 285.027C257.777 285.15 257.711 285.264 257.624 285.36C257.537 285.457 257.431 285.534 257.312 285.586C257.193 285.639 257.064 285.665 256.934 285.665C254.684 285.626 253.594 285.496 250.752 285.496C249.001 285.496 245.376 285.672 242.964 285.672C240.553 285.672 240.422 283.284 241.428 283.069C245.937 282.101 247.711 280.765 249.231 279.482C249.495 279.263 249.825 279.139 250.168 279.129Z" fill="#263238"/>
<path d="M249.977 266.449L250.176 273.323H255.936L255.737 266.449H249.977Z" fill="#CE6F64"/>
<path d="M280.42 266.449H274.66L275.62 273.323H281.372L280.42 266.449Z" fill="#CE6F64"/>
<path d="M258.946 94.7629C259.338 100.461 259.622 102.865 257.149 106.145C253.424 111.068 246.343 110.307 244.254 104.839C242.373 99.9162 242.05 91.4298 247.288 88.4499C248.44 87.7896 249.742 87.4345 251.07 87.4185C252.398 87.4025 253.708 87.7261 254.876 88.3584C256.044 88.9908 257.031 89.9111 257.743 91.0319C258.455 92.1528 258.87 93.4371 258.946 94.7629Z" fill="#E4897B"/>
<path d="M262.264 100.054C265.459 101.836 267.832 97.4427 267.832 97.4427C267.832 97.4427 262.103 98.0648 262.617 94.6548C263.293 90.1313 260.052 84.6324 251.927 85.339C251.474 85.3774 251.044 85.4312 250.621 85.5003C249.771 85.0971 248.809 84.993 247.892 85.2049C246.974 85.4167 246.155 85.9322 245.568 86.6676C243.264 86.8596 240.153 89.6091 242.265 93.2417C242.414 92.8243 242.643 92.4406 242.941 92.1128C243.118 94.2401 244.977 97.6193 247.296 97.842C247.795 100.753 245.86 104.124 246.528 107.166C247.519 111.551 254.914 112.542 254.914 112.542C254.659 111.994 254.564 111.385 254.641 110.786C254.717 110.187 254.961 109.621 255.345 109.155C260.367 111.459 263.677 109.208 263.677 109.208C260.252 107.934 261.289 105.66 261.289 105.66C262.472 106.185 263.812 106.232 265.028 105.789C266.244 105.346 267.241 104.45 267.809 103.287C266.671 103.341 265.542 103.065 264.558 102.491C263.574 101.917 262.778 101.071 262.264 100.054Z" fill="#263238"/>
<path d="M249.3 98.7174C249.314 99.2643 249.219 99.8085 249.021 100.319C248.824 100.829 248.527 101.295 248.148 101.69C247.135 102.742 245.89 102.004 245.552 100.66C245.253 99.447 245.422 97.4426 246.743 96.8896C247.034 96.7754 247.348 96.7356 247.658 96.7739C247.968 96.8123 248.264 96.9275 248.518 97.1091C248.772 97.2908 248.977 97.533 249.113 97.8139C249.25 98.0948 249.314 98.4054 249.3 98.7174Z" fill="#E4897B"/>
<path d="M254.085 151.809C254.085 151.809 255.544 189.718 259.016 211.974C261.811 229.961 274.23 271.986 274.23 271.986H282.079C282.079 271.986 275.604 231.397 274.184 213.618C270.589 168.621 279.92 158.959 271.112 149.59L254.085 151.809Z" fill="#263238"/>
<path d="M260.644 163.798C260.644 163.798 257.096 163.183 255.022 169.942C255.79 182.744 257.103 199.732 259.016 211.974C259.438 214.701 260.083 217.988 260.874 221.59C259.377 199.963 260.644 163.798 260.644 163.798Z" fill="#161F33"/>
<path d="M247.964 152.608C247.964 152.608 241.497 194.549 241.874 212.098C242.265 230.353 248.955 272.002 248.955 272.002H256.735C256.735 272.002 255.506 231.436 256.189 213.511C256.957 193.965 264.937 150.404 264.937 150.404L247.964 152.608Z" fill="#263238"/>
<path d="M283.216 272.354H272.778L271.964 268.852L283.139 268.928L283.216 272.354Z" fill="#0C9CFF"/>
<path opacity="0.2" d="M283.216 272.354H272.778L271.964 268.852L283.139 268.928L283.216 272.354Z" fill="black"/>
<path d="M270.72 114.432C273.723 114.724 278.285 123.257 278.285 123.257L270.705 129.07C270.705 129.07 264.43 123.564 265.175 120.469C265.951 117.251 267.84 114.164 270.72 114.432Z" fill="#0C9CFF"/>
<path opacity="0.1" d="M270.72 114.432C273.723 114.724 278.285 123.257 278.285 123.257L270.705 129.07C270.705 129.07 264.43 123.564 265.175 120.469C265.951 117.251 267.84 114.164 270.72 114.432Z" fill="black"/>
<path d="M268.454 118.102C267.689 117.896 266.896 117.808 266.104 117.841C265.701 118.68 265.389 119.561 265.175 120.467C264.407 123.539 270.704 129.069 270.704 129.069L271.265 128.639L268.454 118.102Z" fill="#0C9CFF"/>
<path opacity="0.3" d="M268.454 118.102C267.689 117.896 266.896 117.808 266.104 117.841C265.701 118.68 265.389 119.561 265.175 120.467C264.407 123.539 270.704 129.069 270.704 129.069L271.265 128.639L268.454 118.102Z" fill="black"/>
<path d="M245.391 126.296C243.203 131.833 240.899 137.463 239.063 143.016C238.94 143.369 238.84 143.707 238.733 144.052L238.472 144.905C238.4 145.156 238.4 145.422 238.472 145.673C238.905 146.633 239.593 147.456 240.461 148.054C242.757 149.701 245.259 151.041 247.903 152.04L247.211 154.866C243.959 154.437 240.814 153.411 237.934 151.84C236.162 150.893 234.718 149.431 233.795 147.647C233.264 146.506 233.08 145.235 233.265 143.991C233.282 143.839 233.308 143.687 233.341 143.538L233.418 143.215L233.549 142.632C233.641 142.24 233.733 141.864 233.833 141.48C234.601 138.408 235.584 135.489 236.621 132.594C237.658 129.698 238.74 126.841 239.962 123.992L245.391 126.296Z" fill="#E4897B"/>
<path d="M240.729 118.524C240.729 118.524 238.134 119.837 247.964 152.608L271.142 149.582C269.514 140.197 268.746 134.383 270.72 114.43C267.396 114.192 264.06 114.192 260.736 114.43C257.197 114.636 253.678 115.098 250.207 115.813C245.76 116.804 240.729 118.524 240.729 118.524Z" fill="#0C9CFF"/>
<path opacity="0.1" d="M240.729 118.524C240.729 118.524 238.134 119.837 247.964 152.608L271.142 149.582C269.514 140.197 268.746 134.383 270.72 114.43C267.396 114.192 264.06 114.192 260.736 114.43C257.197 114.636 253.678 115.098 250.207 115.813C245.76 116.804 240.729 118.524 240.729 118.524Z" fill="black"/>
<path d="M271.311 148.177L272.64 150.104C272.74 150.258 272.571 150.442 272.31 150.481L248.003 153.66C247.795 153.66 247.603 153.607 247.572 153.476L247.096 151.425C247.058 151.287 247.227 151.141 247.457 151.111L270.927 148.039C270.998 148.027 271.07 148.034 271.137 148.058C271.204 148.082 271.264 148.123 271.311 148.177Z" fill="#0C9CFF"/>
<path opacity="0.2" d="M271.311 148.177L272.64 150.104C272.74 150.258 272.571 150.442 272.31 150.481L248.003 153.66C247.795 153.66 247.603 153.607 247.572 153.476L247.096 151.425C247.058 151.287 247.227 151.141 247.457 151.111L270.927 148.039C270.998 148.027 271.07 148.034 271.137 148.058C271.204 148.082 271.264 148.123 271.311 148.177Z" fill="black"/>
<path d="M268.501 151.212L269.131 151.127C269.253 151.127 269.338 151.035 269.323 150.958L268.677 148.301C268.653 148.255 268.614 148.22 268.566 148.2C268.519 148.181 268.466 148.178 268.416 148.193L267.787 148.27C267.656 148.27 267.572 148.362 267.595 148.447L268.24 151.096C268.255 151.181 268.378 151.227 268.501 151.212Z" fill="#263238"/>
<path d="M253.263 153.177L253.893 153.092C254.016 153.092 254.108 153 254.085 152.923L253.44 150.266C253.415 150.221 253.376 150.186 253.329 150.165C253.281 150.144 253.229 150.139 253.179 150.151L252.549 150.235C252.426 150.235 252.334 150.327 252.357 150.404L253.002 153.061C253.018 153.177 253.14 153.223 253.263 153.177Z" fill="#263238"/>
<path d="M241.812 129.644C242.45 132.609 243.349 136.364 244.662 141.118L244.946 129.068L241.812 129.644Z" fill="#0C9CFF"/>
<path opacity="0.3" d="M241.812 129.644C242.45 132.609 243.349 136.364 244.662 141.118L244.946 129.068L241.812 129.644Z" fill="black"/>
<path d="M240.73 118.525C237.85 119.684 235.354 129.538 235.354 129.538L245.261 134.361C245.261 134.361 250.045 122.311 247.903 119.961C245.76 117.611 244.047 117.196 240.73 118.525Z" fill="#0C9CFF"/>
<path opacity="0.1" d="M240.73 118.525C237.85 119.684 235.354 129.538 235.354 129.538L245.261 134.361C245.261 134.361 250.045 122.311 247.903 119.961C245.76 117.611 244.047 117.196 240.73 118.525Z" fill="black"/>
<path d="M258.063 272.354H247.626L246.812 268.852L258.432 268.928L258.063 272.354Z" fill="#0C9CFF"/>
<path opacity="0.2" d="M258.063 272.354H247.626L246.812 268.852L258.432 268.928L258.063 272.354Z" fill="black"/>
<path d="M248.064 151.087L247.227 150.741C247.021 150.658 246.797 150.63 246.577 150.661C246.357 150.692 246.149 150.78 245.975 150.918C245.8 151.055 245.665 151.236 245.582 151.442C245.5 151.649 245.474 151.873 245.507 152.093L246.114 156.094C246.143 156.294 246.216 156.486 246.328 156.654C246.44 156.823 246.588 156.964 246.762 157.069C246.935 157.173 247.129 157.238 247.331 157.258C247.532 157.278 247.735 157.253 247.926 157.185C248.231 157.074 248.516 156.916 248.771 156.716C249.049 156.486 249.268 156.194 249.412 155.863C249.556 155.532 249.621 155.172 249.6 154.812L249.516 153.153C249.501 152.704 249.356 152.27 249.098 151.903C248.84 151.536 248.481 151.253 248.064 151.087Z" fill="#E4897B"/>
</svg>
