<svg width="24" height="24" viewBox="0 0 24 24" fill="none" xmlns="http://www.w3.org/2000/svg">
<path d="M5.83004 16C4.93661 15.3795 4.21072 14.5474 3.71717 13.578C3.22363 12.6086 2.97778 11.532 3.00158 10.4445C3.02537 9.35696 3.31808 8.29223 3.85355 7.34535C4.38903 6.39847 5.15063 5.5989 6.07035 5.01802C6.99008 4.43714 8.03932 4.09302 9.12442 4.01638C10.2095 3.93973 11.2967 4.13295 12.289 4.57878C13.2812 5.02461 14.1476 5.70919 14.8109 6.5714C15.4742 7.43361 15.9136 8.44663 16.09 9.52003C16.23 9.51008 16.36 9.50003 16.5 9.50003C17.5614 9.49966 18.5888 9.87461 19.4004 10.5586C20.2121 11.2425 20.7557 12.1915 20.9352 13.2376C21.1148 14.2837 20.9186 15.3596 20.3815 16.275C19.8444 17.1904 19.0008 17.8865 18 18.24" stroke="#323232" stroke-width="1.5" stroke-linecap="round" stroke-linejoin="round"/>
<path d="M15 15L12 12L9 15" stroke="#323232" stroke-width="1.5" stroke-linecap="round" stroke-linejoin="round"/>
<path d="M12 12V19.9998" stroke="#323232" stroke-width="1.5" stroke-linecap="round" stroke-linejoin="round"/>
</svg>
