<svg width="30" height="30" viewBox="0 0 30 30" fill="none" xmlns="http://www.w3.org/2000/svg">
<path d="M15.0199 10.8334C14.1609 10.7485 13.2966 10.9313 12.5454 11.3566C11.7942 11.7819 11.1929 12.4291 10.8237 13.2094C10.4545 13.9897 10.3356 14.865 10.4831 15.7155C10.6306 16.5661 11.0374 17.3502 11.6478 17.9606C12.2582 18.571 13.0423 18.9778 13.8929 19.1253C14.7434 19.2729 15.6187 19.1539 16.399 18.7847C17.1793 18.4155 17.8265 17.8142 18.2518 17.063C18.6771 16.3118 18.8599 15.4476 18.775 14.5885C18.6783 13.6255 18.2516 12.7255 17.5672 12.0412C16.8829 11.3568 15.9829 10.9301 15.0199 10.8334V10.8334ZM25.1012 15C25.0985 15.4551 25.0651 15.9095 25.0011 16.3601L27.9588 18.6799C28.0876 18.7867 28.1743 18.9356 28.2037 19.1003C28.233 19.265 28.2031 19.4348 28.1191 19.5794L25.321 24.4206C25.2361 24.5638 25.1032 24.6725 24.946 24.7275C24.7887 24.7824 24.6171 24.78 24.4614 24.7208L21.524 23.538C21.362 23.4735 21.1866 23.4502 21.0134 23.4702C20.8402 23.4902 20.6746 23.5528 20.5316 23.6525C20.0833 23.9612 19.6122 24.2355 19.1224 24.4729C18.9684 24.5477 18.8353 24.6593 18.7346 24.7979C18.634 24.9364 18.569 25.0975 18.5454 25.2671L18.1051 28.4001C18.0762 28.5656 17.9907 28.7158 17.8633 28.8253C17.7359 28.9347 17.5744 28.9964 17.4064 29H11.8104C11.6452 28.9971 11.4859 28.9381 11.3588 28.8326C11.2317 28.7272 11.1443 28.5815 11.111 28.4197L10.6714 25.2913C10.6467 25.1199 10.58 24.9572 10.4773 24.8177C10.3746 24.6782 10.239 24.5663 10.0826 24.4919C9.59341 24.2557 9.12393 23.9807 8.67869 23.6695C8.53613 23.5703 8.37114 23.5082 8.19857 23.4887C8.02601 23.4691 7.8513 23.4928 7.69018 23.5577L4.75345 24.7398C4.59782 24.7991 4.42627 24.8015 4.26902 24.7467C4.11177 24.6919 3.9789 24.5833 3.89383 24.4402L1.09579 19.5991C1.01167 19.4544 0.981606 19.2846 1.01096 19.1199C1.04031 18.9552 1.12717 18.8062 1.25607 18.6995L3.75579 16.7369C3.89274 16.6282 4.00037 16.487 4.06892 16.3262C4.13746 16.1653 4.16476 15.9899 4.14831 15.8158C4.12476 15.543 4.11037 15.2708 4.11037 14.998C4.11037 14.7252 4.12411 14.457 4.14831 14.1901C4.16296 14.0171 4.13433 13.8431 4.06501 13.6839C3.99569 13.5247 3.88785 13.3853 3.75121 13.2781L1.2528 11.3155C1.12599 11.2083 1.04096 11.0598 1.01261 10.8962C0.984263 10.7326 1.0144 10.5642 1.09775 10.4206L3.89579 5.57944C3.98076 5.43616 4.11358 5.32748 4.27085 5.27254C4.42811 5.21761 4.59971 5.21995 4.75542 5.27916L7.6928 6.46196C7.85478 6.52646 8.03024 6.54976 8.20344 6.52978C8.37664 6.5098 8.54219 6.44716 8.68523 6.34748C9.13352 6.03877 9.6046 5.76453 10.0944 5.5271C10.2484 5.45226 10.3816 5.34066 10.4822 5.20214C10.5828 5.06363 10.6478 4.90247 10.6714 4.7329L11.1117 1.59991C11.1406 1.43445 11.2261 1.28416 11.3535 1.17474C11.481 1.06532 11.6424 1.00356 11.8104 1H17.4064C17.5716 1.00286 17.7309 1.06189 17.858 1.16737C17.9851 1.27285 18.0725 1.41848 18.1058 1.58028L18.5454 4.70869C18.5701 4.88014 18.6368 5.04283 18.7395 5.1823C18.8422 5.32177 18.9778 5.43369 19.1342 5.50813C19.6234 5.74427 20.0929 6.01926 20.5381 6.33047C20.6807 6.42965 20.8457 6.49181 21.0182 6.51134C21.1908 6.53087 21.3655 6.50716 21.5266 6.44234L24.4634 5.26019C24.619 5.20092 24.7905 5.19848 24.9478 5.25329C25.105 5.3081 25.2379 5.41665 25.323 5.55981L28.121 10.4009C28.2051 10.5456 28.2352 10.7154 28.2059 10.8801C28.1765 11.0448 28.0896 11.1938 27.9607 11.3005L25.461 13.2631C25.3235 13.3714 25.2152 13.5125 25.1461 13.6734C25.077 13.8342 25.0492 14.0098 25.0652 14.1842C25.0868 14.455 25.1012 14.7272 25.1012 15Z" stroke="#0C9CFF" stroke-width="2" stroke-linecap="round" stroke-linejoin="round"/>
</svg>
