<svg width="413" height="308" viewBox="0 0 413 308" fill="none" xmlns="http://www.w3.org/2000/svg">
<path d="M413 270.434H0V270.64H413V270.434Z" fill="#EBEBEB"/>
<path d="M371.618 283.723H344.261V283.929H371.618V283.723Z" fill="#EBEBEB"/>
<path d="M273.588 285.971H266.41V286.177H273.588V285.971Z" fill="#EBEBEB"/>
<path d="M343.434 276.059H327.583V276.265H343.434V276.059Z" fill="#EBEBEB"/>
<path d="M79.007 277.445H43.332V277.652H79.007V277.445Z" fill="#EBEBEB"/>
<path d="M91.5948 277.445H86.3662V277.652H91.5948V277.445Z" fill="#EBEBEB"/>
<path d="M185.973 280.93H108.594V281.136H185.973V280.93Z" fill="#EBEBEB"/>
<path d="M195.762 233.593H36.2697C35.0203 233.591 33.8227 233.093 32.94 232.208C32.0573 231.324 31.5615 230.126 31.5615 228.876V4.67516C31.5724 3.43288 32.073 2.24505 32.9545 1.36969C33.8361 0.494326 35.0274 0.0021281 36.2697 0H195.762C197.013 0 198.213 0.496911 199.097 1.38142C199.982 2.26593 200.479 3.46558 200.479 4.71646V228.876C200.479 230.127 199.982 231.327 199.097 232.211C198.213 233.096 197.013 233.593 195.762 233.593ZM36.2697 0.165201C35.075 0.167389 33.93 0.643508 33.086 1.48905C32.242 2.3346 31.768 3.48047 31.768 4.67516V228.876C31.768 230.071 32.242 231.217 33.086 232.062C33.93 232.908 35.075 233.384 36.2697 233.386H195.762C196.958 233.384 198.103 232.908 198.949 232.063C199.794 231.218 200.27 230.072 200.272 228.876V4.67516C200.27 3.47971 199.794 2.33386 198.949 1.48855C198.103 0.643239 196.958 0.167384 195.762 0.165201H36.2697Z" fill="#EBEBEB"/>
<path d="M374.434 233.593H214.933C213.683 233.591 212.485 233.093 211.601 232.209C210.717 231.325 210.219 230.127 210.217 228.876V4.67516C210.23 3.43212 210.732 2.24431 211.615 1.36917C212.498 0.494038 213.69 0.00210489 214.933 0H374.434C375.675 0.00429891 376.864 0.497458 377.744 1.37259C378.624 2.24772 379.123 3.4343 379.134 4.67516V228.876C379.134 230.124 378.639 231.322 377.758 232.206C376.877 233.09 375.682 233.588 374.434 233.593ZM214.933 0.165201C213.738 0.167384 212.592 0.643239 211.747 1.48855C210.901 2.33386 210.425 3.47971 210.423 4.67516V228.876C210.425 230.072 210.901 231.218 211.747 232.063C212.592 232.908 213.738 233.384 214.933 233.386H374.434C375.629 233.384 376.775 232.908 377.62 232.063C378.466 231.218 378.942 230.072 378.944 228.876V4.67516C378.942 3.47971 378.466 2.33386 377.62 1.48855C376.775 0.643239 375.629 0.167384 374.434 0.165201H214.933Z" fill="#EBEBEB"/>
<path d="M180.44 190.697H76.0166V198.065H180.44V190.697Z" fill="#EBEBEB"/>
<path d="M180.44 190.697H135.035V198.065H180.44V190.697Z" fill="#E0E0E0"/>
<path d="M91.4463 198.066H76.0166V270.432H91.4463V198.066Z" fill="#EBEBEB"/>
<path d="M91.4463 205.533L76.0166 200.28V198.066H91.4463V205.533Z" fill="#E0E0E0"/>
<path d="M180.439 198.066H165.01V270.432H180.439V198.066Z" fill="#E0E0E0"/>
<path d="M150.465 198.066H135.035V270.432H150.465V198.066Z" fill="#EBEBEB"/>
<path d="M150.457 205.533L135.035 200.28V198.066H150.457V205.533Z" fill="#E0E0E0"/>
<path d="M121.422 198.066H105.992V270.432H121.422V198.066Z" fill="#E0E0E0"/>
<path d="M190.253 26.5723H58.6465V138.636H190.253V26.5723Z" fill="#EBEBEB"/>
<path d="M190.252 138.627H191.723V26.5635H190.252V138.627Z" fill="#E0E0E0"/>
<path d="M185.305 133.671V31.5195L63.6101 31.5195V133.671H185.305Z" fill="#F5F5F5"/>
<path d="M122.982 118.167C130.416 93.3866 132.481 56.8361 148.291 61.8747C164.101 66.9133 143.393 120.959 143.393 120.959L122.982 118.167Z" fill="white"/>
<path d="M135.753 119.398C128.187 83.4837 130.095 35.807 106.587 36.8973C83.0787 37.9876 106.587 120.959 106.587 120.959L135.753 119.398Z" fill="white"/>
<path d="M152.364 115.367H100.896C99.8458 115.334 98.8243 115.714 98.0518 116.426C97.2792 117.138 96.8175 118.126 96.766 119.175C95.717 142.881 99.5992 167.083 106.827 190.699H146.235C153.463 167.042 157.345 142.881 156.296 119.175C156.256 118.157 155.825 117.193 155.092 116.484C154.36 115.775 153.383 115.375 152.364 115.367Z" fill="#EBEBEB"/>
<path d="M269.441 39.0703H266.542V270.433H269.441V39.0703Z" fill="#E0E0E0"/>
<path d="M337.578 39.0703H334.679V270.433H337.578V39.0703Z" fill="#E0E0E0"/>
<path d="M248.882 39.0703H245.982V270.433H248.882V39.0703Z" fill="#EBEBEB"/>
<path d="M317.018 39.0703H314.119V270.433H317.018V39.0703Z" fill="#EBEBEB"/>
<path d="M337.578 37.4844H245.982V40.648H337.578V37.4844Z" fill="#EBEBEB"/>
<path d="M337.578 94.1406H245.982V97.3042H337.578V94.1406Z" fill="#EBEBEB"/>
<path d="M337.578 150.795H245.982V153.959H337.578V150.795Z" fill="#EBEBEB"/>
<path d="M337.578 207.451H245.982V210.615H337.578V207.451Z" fill="#EBEBEB"/>
<path d="M337.578 264.105H245.982V267.269H337.578V264.105Z" fill="#EBEBEB"/>
<path d="M337.578 37.4844H317.019V40.648H337.578V37.4844Z" fill="#E0E0E0"/>
<path d="M337.578 94.1406H317.019V97.3042H337.578V94.1406Z" fill="#E0E0E0"/>
<path d="M337.578 150.795H317.019V153.959H337.578V150.795Z" fill="#E0E0E0"/>
<path d="M337.578 207.451H317.019V210.615H337.578V207.451Z" fill="#E0E0E0"/>
<path d="M337.578 264.105H317.019V267.269H337.578V264.105Z" fill="#E0E0E0"/>
<path d="M282.93 56.7553V52.2949H271.919V56.7553C271.919 58.1537 271.364 59.495 270.376 60.4846C269.388 61.4742 268.048 62.0313 266.649 62.0335C265.251 62.0335 263.91 62.5884 262.92 63.5765C261.93 64.5645 261.373 65.9049 261.371 67.3033V94.1649H293.486V67.3033C293.484 65.9049 292.927 64.5645 291.937 63.5765C290.948 62.5884 289.606 62.0335 288.208 62.0335C286.808 62.0335 285.465 61.4774 284.476 60.4875C283.486 59.4977 282.93 58.1552 282.93 56.7553Z" fill="#F0F0F0"/>
<path d="M305.72 132.375H257.465V150.803H305.72V132.375Z" fill="#F0F0F0"/>
<path d="M305.719 150.795H314.119V132.367H305.719V150.795Z" fill="#E6E6E6"/>
<path d="M305.719 142.602H314.119V140.57H305.719V142.602Z" fill="#EBEBEB"/>
<path d="M305.72 140.568H257.465V142.6H305.72V140.568Z" fill="#F5F5F5"/>
<path d="M292.792 231.529H255.102V264.107H292.792V231.529Z" fill="#F0F0F0"/>
<path d="M292.792 264.113H299.351V231.536H292.792V264.113Z" fill="#E6E6E6"/>
<path d="M292.792 249.617H299.351V246.024H292.792V249.617Z" fill="#EBEBEB"/>
<path d="M292.792 246.023H255.102V249.617H292.792V246.023Z" fill="#F5F5F5"/>
<path d="M292.792 243.506H299.351V242.226H292.792V243.506Z" fill="#EBEBEB"/>
<path d="M292.792 242.225H255.102V243.505H292.792V242.225Z" fill="#F5F5F5"/>
<path d="M264.288 174.328H257.465V207.451H264.288V174.328Z" fill="#F0F0F0"/>
<path d="M264.288 186.131H257.465V195.646H264.288V186.131Z" fill="#FAFAFA"/>
<path d="M264.286 207.459H287.497V174.336H264.286V207.459Z" fill="#E6E6E6"/>
<path d="M274.827 170.049H267.12V207.45H274.827V170.049Z" fill="#EBEBEB"/>
<path d="M274.827 181.934H267.12V187.691H274.827V181.934Z" fill="#FAFAFA"/>
<path d="M274.827 191.549H267.12V197.306H274.827V191.549Z" fill="#FAFAFA"/>
<path d="M274.835 207.451H301.044V170.05H274.835V207.451Z" fill="#E0E0E0"/>
<path d="M283.409 174.328H279.254V207.451H283.409V174.328Z" fill="#F0F0F0"/>
<path d="M282.691 178.523H279.965V203.254H282.691V178.523Z" fill="#FAFAFA"/>
<path d="M283.401 207.459H297.518V174.336H283.401V207.459Z" fill="#E6E6E6"/>
<path d="M294.502 172.584H289.811V207.449H294.502V172.584Z" fill="#EBEBEB"/>
<path d="M294.502 183.66H289.811V189.029H294.502V183.66Z" fill="#FAFAFA"/>
<path d="M294.502 192.633H289.811V198.002H294.502V192.633Z" fill="#FAFAFA"/>
<path d="M294.502 207.451H310.443V172.586H294.502V207.451Z" fill="#E0E0E0"/>
<path d="M292.368 129.365C296.381 125.353 296.381 118.847 292.368 114.834C288.355 110.821 281.849 110.821 277.836 114.834C273.823 118.847 273.823 125.353 277.836 129.365C281.849 133.378 288.355 133.378 292.368 129.365Z" fill="#F5F5F5"/>
<path d="M297.617 132.259C301.499 131.629 304.135 127.972 303.505 124.09C302.875 120.209 299.217 117.573 295.336 118.203C291.454 118.833 288.818 122.49 289.448 126.372C290.079 130.253 293.736 132.889 297.617 132.259Z" fill="#EBEBEB"/>
<path d="M206.5 307.734C294.95 307.734 366.653 303.548 366.653 298.384C366.653 293.219 294.95 289.033 206.5 289.033C118.05 289.033 46.3467 293.219 46.3467 298.384C46.3467 303.548 118.05 307.734 206.5 307.734Z" fill="#F5F5F5"/>
<path d="M104.166 234.328H210.257V289.1C210.257 289.802 210.119 290.497 209.851 291.145C209.582 291.794 209.188 292.383 208.692 292.879C208.196 293.375 207.607 293.769 206.958 294.038C206.31 294.306 205.615 294.444 204.913 294.444H109.51C108.808 294.444 108.113 294.306 107.465 294.038C106.817 293.769 106.228 293.375 105.731 292.879C105.235 292.383 104.841 291.794 104.573 291.145C104.304 290.497 104.166 289.802 104.166 289.1V234.328Z" fill="#0C9CFF"/>
<path d="M104.167 234.328H179.242L170.008 222.508C168.992 221.211 166.481 220.162 164.391 220.162H96.8735C94.792 220.162 93.9164 221.211 94.9324 222.508L104.167 234.328Z" fill="#0C9CFF"/>
<path opacity="0.2" d="M104.167 234.328H179.242L170.008 222.508C168.992 221.211 166.481 220.162 164.391 220.162H96.8735C94.792 220.162 93.9164 221.211 94.9324 222.508L104.167 234.328Z" fill="black"/>
<path d="M210.258 234.328H135.191L144.426 226.622C145.442 225.796 147.953 225.094 150.043 225.094H217.552C219.642 225.094 220.509 225.779 219.493 226.622L210.258 234.328Z" fill="#0C9CFF"/>
<path opacity="0.2" d="M135.191 234.328H210.258V289.1C210.258 289.802 210.12 290.497 209.851 291.145C209.583 291.794 209.189 292.383 208.693 292.879C208.197 293.375 207.608 293.769 206.959 294.038C206.311 294.306 205.616 294.444 204.914 294.444H140.536C139.834 294.444 139.139 294.306 138.49 294.038C137.842 293.769 137.253 293.375 136.757 292.879C136.26 292.383 135.867 291.794 135.598 291.145C135.33 290.497 135.191 289.802 135.191 289.1V234.328Z" fill="white"/>
<path opacity="0.5" d="M113.483 234.328V271.895L116.077 269.846L117.903 271.895L119.488 269.615L121.116 271.895L123.379 270.185L125.873 271.895V234.328H113.483Z" fill="white"/>
<path d="M130.277 152.38L116.938 141.18" stroke="#0C9CFF" stroke-miterlimit="10"/>
<path d="M137.191 158.189L133.127 154.77" stroke="#0C9CFF" stroke-miterlimit="10"/>
<path d="M177.153 181.63L221.162 126.626L162.566 77.4297L123.744 121.976L117.962 133.119C117.675 133.435 117.456 133.807 117.32 134.212C117.183 134.616 117.131 135.045 117.168 135.471C117.204 135.896 117.328 136.31 117.531 136.685C117.735 137.061 118.014 137.39 118.35 137.653L171.214 182.043C172.074 182.735 173.163 183.078 174.265 183.001C175.366 182.924 176.398 182.435 177.153 181.63Z" fill="#0C9CFF"/>
<path opacity="0.5" d="M146.97 141.064L140.635 151.266L143.187 151.819L144.054 154.181L145.748 154.28L146.532 156.304L148.606 156.907L150.2 159.443L156.535 149.242L146.97 141.064Z" fill="white"/>
<path opacity="0.1" d="M219.246 125.016L179.779 169.041L123.719 121.976L162.566 77.4297L219.246 125.016Z" fill="black"/>
<path d="M219.246 125.016L179.779 169.041L196.118 170.247L234.973 125.701L219.246 125.016Z" fill="#0C9CFF"/>
<path opacity="0.3" d="M219.246 125.016L179.779 169.041L196.118 170.247L234.973 125.701L219.246 125.016Z" fill="black"/>
<path d="M146.847 76.7363L107.372 120.77L123.719 121.976L162.565 77.4302L146.847 76.7363Z" fill="#0C9CFF"/>
<path opacity="0.4" d="M146.847 76.7363L107.372 120.77L123.719 121.976L162.565 77.4302L146.847 76.7363Z" fill="black"/>
<path opacity="0.1" d="M207.095 138.57L219.246 125.016L162.566 77.4297L155.313 94.9078L207.095 138.57Z" fill="black"/>
<path opacity="0.2" d="M123.719 121.976L162.566 77.4297L155.313 94.9078L127.956 125.536L123.719 121.976Z" fill="black"/>
<path d="M232.932 42.1258C233.089 42.6545 232.932 43.1748 232.585 43.274C232.238 43.3731 231.833 43.0261 231.676 42.4975C231.519 41.9689 231.676 41.4485 232.023 41.3411C232.37 41.2337 232.783 41.5972 232.932 42.1258Z" fill="#263238"/>
<path d="M232.99 43.166C232.834 44.9835 232.429 46.7707 231.784 48.4772C232.226 48.6304 232.696 48.6853 233.161 48.6383C233.626 48.5912 234.075 48.4432 234.477 48.2046L232.99 43.166Z" fill="#ED847E"/>
<path d="M234.031 38.5993C234.102 38.559 234.155 38.4943 234.18 38.4176C234.196 38.3776 234.203 38.3348 234.201 38.2919C234.2 38.249 234.189 38.2069 234.171 38.1681C234.152 38.1294 234.126 38.0949 234.093 38.0668C234.061 38.0387 234.023 38.0175 233.982 38.0046C233.498 37.8191 232.977 37.753 232.462 37.8119C231.947 37.8709 231.454 38.0532 231.025 38.3433C230.969 38.3999 230.935 38.4748 230.93 38.5542C230.925 38.6336 230.949 38.7122 230.997 38.7755C231.046 38.8388 231.115 38.8825 231.193 38.8987C231.271 38.9149 231.352 38.9025 231.421 38.8636C231.764 38.6386 232.156 38.4987 232.564 38.4556C232.972 38.4125 233.385 38.4674 233.767 38.6158C233.81 38.6315 233.856 38.6381 233.901 38.6352C233.947 38.6324 233.991 38.6202 234.031 38.5993Z" fill="#263238"/>
<path d="M251.302 45.6605C251.666 50.0383 252.748 58.0505 255.333 59.9007C255.333 59.9007 254.722 65.1623 245.421 66.5087C235.228 68.012 239.805 62.1639 239.805 62.1639C245.165 60.0163 244.414 55.9111 242.877 52.1776L246.809 47.6676C248.321 45.9991 251.104 43.422 251.302 45.6605Z" fill="#FFC3BD"/>
<path d="M258.662 62.0405C259.488 61.2888 257.836 58.2822 256.82 57.8609C254.161 56.7458 243.282 57.8609 239.194 61.3714C238.854 61.9523 238.649 62.6016 238.594 63.2719C238.538 63.9422 238.633 64.6165 238.871 65.2454L258.662 62.0405Z" fill="white"/>
<path d="M293.305 282.83C293.037 282.952 292.746 283.02 292.451 283.028C292.156 283.037 291.862 282.986 291.587 282.88C291.478 282.793 291.399 282.676 291.359 282.543C291.319 282.41 291.321 282.268 291.364 282.136C291.386 282.028 291.432 281.926 291.497 281.838C291.563 281.749 291.647 281.676 291.744 281.624C292.636 281.104 294.842 281.789 294.932 281.822C294.963 281.83 294.99 281.847 295.011 281.871C295.031 281.894 295.044 281.923 295.048 281.954C295.052 281.987 295.047 282.02 295.032 282.05C295.017 282.079 294.994 282.103 294.966 282.12C294.438 282.412 293.881 282.65 293.305 282.83ZM292.099 281.822L291.909 281.905C291.853 281.936 291.804 281.978 291.765 282.029C291.727 282.081 291.7 282.14 291.686 282.202C291.628 282.5 291.744 282.59 291.777 282.615C292.174 282.896 293.52 282.491 294.453 282.021C293.693 281.782 292.889 281.714 292.099 281.822Z" fill="#0C9CFF"/>
<path d="M294.932 282.129C294.905 282.137 294.876 282.137 294.849 282.129C294.023 281.964 292.297 280.931 292.206 280.155C292.193 280.032 292.223 279.91 292.291 279.807C292.359 279.704 292.46 279.629 292.578 279.593C292.692 279.542 292.816 279.516 292.941 279.516C293.066 279.516 293.19 279.542 293.305 279.593C294.263 279.989 295.006 281.84 295.031 281.914C295.047 281.939 295.056 281.967 295.056 281.997C295.056 282.026 295.047 282.055 295.031 282.079C295.019 282.095 295.004 282.107 294.987 282.116C294.97 282.124 294.951 282.129 294.932 282.129ZM292.784 279.874C292.76 279.867 292.734 279.867 292.71 279.874C292.52 279.956 292.528 280.056 292.536 280.097C292.586 280.559 293.759 281.394 294.593 281.699C294.345 281.162 293.767 280.122 293.181 279.874C293.053 279.825 292.912 279.825 292.784 279.874Z" fill="#0C9CFF"/>
<path d="M244.893 291.702C244.01 291.702 243.159 291.578 242.87 291.182C242.796 291.078 242.756 290.954 242.756 290.827C242.756 290.699 242.796 290.575 242.87 290.472C242.925 290.376 242.998 290.292 243.086 290.226C243.174 290.159 243.275 290.111 243.382 290.083C244.53 289.778 246.942 291.149 247.041 291.207C247.072 291.221 247.097 291.246 247.112 291.276C247.128 291.306 247.133 291.341 247.128 291.374C247.122 291.408 247.106 291.438 247.081 291.462C247.057 291.485 247.025 291.5 246.991 291.504C246.299 291.633 245.597 291.7 244.893 291.702ZM243.803 290.364C243.697 290.36 243.591 290.374 243.489 290.406C243.357 290.435 243.241 290.515 243.167 290.629C243.051 290.835 243.093 290.934 243.167 290.992C243.489 291.438 245.232 291.446 246.471 291.265C245.648 290.795 244.742 290.489 243.803 290.364Z" fill="#0C9CFF"/>
<path d="M246.975 291.513H246.909C246.083 291.141 244.431 289.646 244.554 288.87C244.554 288.688 244.72 288.457 245.166 288.415C245.327 288.397 245.49 288.413 245.645 288.461C245.8 288.51 245.944 288.59 246.066 288.696C246.95 289.415 247.132 291.273 247.14 291.348C247.144 291.376 247.141 291.406 247.129 291.432C247.117 291.458 247.098 291.481 247.074 291.496C247.043 291.513 247.009 291.518 246.975 291.513ZM245.323 288.721H245.224C244.926 288.721 244.91 288.87 244.901 288.903C244.827 289.374 245.95 290.555 246.793 291.059C246.721 290.271 246.403 289.525 245.884 288.928C245.729 288.791 245.529 288.717 245.323 288.721Z" fill="#0C9CFF"/>
<path d="M254.557 291.347H247.66L246.975 275.389H253.872L254.557 291.347Z" fill="#FFC3BD"/>
<path d="M303.002 280.452L296.65 282.641L290.059 267.599L296.411 265.41L303.002 280.452Z" fill="#FFC3BD"/>
<path d="M295.138 281.064L302.572 278.792C302.704 278.752 302.845 278.758 302.973 278.809C303.1 278.86 303.207 278.953 303.274 279.073L306.372 284.525C306.446 284.658 306.489 284.806 306.499 284.959C306.508 285.111 306.482 285.264 306.424 285.405C306.366 285.546 306.277 285.673 306.164 285.775C306.05 285.877 305.915 285.952 305.769 285.995C303.167 286.746 301.87 286.978 298.616 287.977C296.608 288.588 291.553 290.505 288.704 291.075C285.854 291.645 284.937 288.919 286.044 288.431C291 286.243 293.032 283.756 294.213 281.823C294.419 281.466 294.748 281.196 295.138 281.064Z" fill="#263238"/>
<path d="M247.709 290.545H255.234C255.37 290.547 255.502 290.594 255.608 290.679C255.714 290.765 255.789 290.883 255.82 291.016L257.183 297.145C257.217 297.292 257.217 297.446 257.183 297.594C257.148 297.742 257.081 297.88 256.985 297.997C256.89 298.115 256.769 298.21 256.631 298.274C256.494 298.338 256.344 298.37 256.192 298.367C253.474 298.326 249.584 298.161 246.14 298.161C242.15 298.161 240.473 298.384 235.79 298.384C232.965 298.384 232.18 295.526 233.361 295.261C238.755 294.08 241.39 293.956 246.049 291.082C246.543 290.755 247.117 290.569 247.709 290.545Z" fill="#263238"/>
<path d="M267.74 64.2949C269.747 66.1369 271.482 67.9789 273.283 69.9035C275.083 71.828 276.752 73.8187 278.371 75.9415C280.062 78.0981 281.596 80.3726 282.963 82.7478C283.71 84.0569 284.357 85.421 284.896 86.8282C285.037 87.2164 285.177 87.5881 285.293 88.0094C285.428 88.4355 285.541 88.8683 285.631 89.3062L285.772 89.9918L285.871 90.7517C285.963 91.448 285.963 92.1535 285.871 92.8497C285.681 94.1641 285.196 95.4181 284.45 96.5172C283.906 97.3198 283.269 98.0546 282.55 98.7061C281.396 99.7536 280.133 100.676 278.784 101.457C276.407 102.816 273.92 103.974 271.35 104.918C266.474 106.728 261.449 108.11 256.333 109.048L254.888 104.092C259.373 102.151 263.916 100.052 268.104 97.814C270.142 96.7446 272.105 95.5358 273.977 94.1961C274.756 93.6421 275.474 93.0051 276.116 92.2963C276.311 92.0868 276.475 91.8503 276.603 91.5942C276.669 91.4538 276.603 91.4703 276.521 91.7677C276.463 92.3211 276.471 91.8916 276.339 91.5942C276.298 91.4538 276.223 91.2638 276.149 91.0821C276.075 90.9004 275.984 90.6939 275.893 90.4956C275.445 89.5948 274.946 88.7205 274.398 87.8772C273.122 85.9831 271.743 84.1604 270.268 82.4174C268.748 80.6167 267.146 78.8243 265.502 77.0649C263.858 75.3055 262.132 73.5296 260.546 71.8941L267.74 64.2949Z" fill="#FFC3BD"/>
<path d="M256.779 103.309L250.278 105.274L254.458 112.147C254.458 112.147 258.299 110.561 259.15 107.298L256.779 103.309Z" fill="#FFC3BD"/>
<path d="M247.651 107.712L250.212 113.378L254.416 112.156L250.237 105.275L247.651 107.712Z" fill="#FFC3BD"/>
<path d="M252.508 66.164C251.889 72.772 265.865 82.9979 265.865 82.9979L279.32 73.788C276.984 69.4787 273.568 65.8498 269.408 63.2565C261.693 58.317 253.285 57.9536 252.508 66.164Z" fill="#0C9CFF"/>
<g opacity="0.3">
<path opacity="0.3" d="M252.508 66.164C251.889 72.772 265.865 82.9979 265.865 82.9979L279.32 73.788C276.984 69.4787 273.568 65.8498 269.408 63.2565C261.693 58.317 253.285 57.9536 252.508 66.164Z" fill="white"/>
</g>
<path d="M229.628 65.634C229.628 65.634 223.59 74.9017 237.929 124.61L274.389 119.225C273.877 114.186 267.781 92.2064 267.575 68.178C267.566 67.0177 267.323 65.871 266.859 64.8074C266.395 63.7437 265.721 62.785 264.876 61.9891C264.032 61.1933 263.035 60.5768 261.945 60.1768C260.856 59.7768 259.697 59.6017 258.538 59.662C257.481 59.7198 256.391 59.7941 255.308 59.9015C250.104 60.3656 244.93 61.1295 239.813 62.1895C236.334 63.0745 232.93 64.2261 229.628 65.634Z" fill="#0C9CFF"/>
<g opacity="0.3">
<path opacity="0.3" d="M229.628 65.634C229.628 65.634 223.59 74.9017 237.929 124.61L274.389 119.225C273.877 114.186 267.781 92.2064 267.575 68.178C267.566 67.0177 267.323 65.871 266.859 64.8074C266.395 63.7437 265.721 62.785 264.876 61.9891C264.032 61.1933 263.035 60.5768 261.945 60.1768C260.856 59.7768 259.697 59.6017 258.538 59.662C257.481 59.7198 256.391 59.7941 255.308 59.9015C250.104 60.3656 244.93 61.1295 239.813 62.1895C236.334 63.0745 232.93 64.2261 229.628 65.634Z" fill="white"/>
</g>
<path opacity="0.2" d="M228.736 81.6092L228.86 81.4688L237.434 82.2287C238.739 87.7629 233.965 95.3125 231.446 98.8148C230.233 93.1326 229.328 87.389 228.736 81.6092Z" fill="black"/>
<path opacity="0.2" d="M246.975 275.396L247.33 283.623H254.227L253.872 275.396H246.975Z" fill="black"/>
<path opacity="0.2" d="M296.411 265.41L290.059 267.599L293.462 275.355L299.814 273.166L296.411 265.41Z" fill="black"/>
<path d="M250.402 35.7826C251.921 42.4484 253.144 46.2728 250.823 50.6506C247.337 57.1677 238.367 56.54 234.889 50.4606C231.759 44.9842 229.793 35.0061 235.443 30.5127C236.681 29.5186 238.152 28.8568 239.717 28.5898C241.283 28.3229 242.89 28.4598 244.388 28.9874C245.885 29.515 247.224 30.4159 248.276 31.605C249.328 32.794 250.06 34.2319 250.402 35.7826Z" fill="#FFC3BD"/>
<path d="M237.013 42.3151L234.477 43.868L234.717 35.195C233.082 35.2652 231.469 34.7981 230.124 33.8651C231.041 32.9896 245.314 27.9923 249.766 28.8596C250.229 28.6696 250.791 27.8105 250.791 27.8105C250.791 27.8105 250.964 28.8926 250.212 29.3056C250.758 29.1982 252.12 29.4625 252.5 30.2638C251.875 30.093 251.211 30.1307 250.609 30.3711C250.609 30.3711 255.565 31.1228 253.805 37.9951C251.831 45.5695 252.484 49.9226 252.484 49.9226C252.484 49.9226 248.8 52.7723 245.595 52.2436C242.175 48.4771 237.236 43.9506 237.013 42.3151Z" fill="#263238"/>
<path d="M232.156 33.1818C228.133 33.1818 226.688 31.2159 225.655 29.5639C228.546 29.2583 234.568 27.3998 239.036 27.0859C243.505 26.772 248.403 27.6063 246.925 29.5639C245.446 31.5215 232.156 33.1818 232.156 33.1818Z" fill="#263238"/>
<path d="M233.04 31.3885C229.736 30.926 226.515 27.8119 228.993 24.8301C229.91 27.019 236.097 26.7629 240.491 25.8461C246.273 24.6401 250.279 26.5895 248.23 30.5295C247.107 32.6853 233.04 31.3885 233.04 31.3885Z" fill="#263238"/>
<path d="M240.581 40.3419C241.054 41.9729 240.979 43.714 240.367 45.2979C239.541 47.3712 237.707 46.9499 236.749 45.1575C235.923 43.5055 235.295 40.5071 236.699 39.012C238.103 37.517 239.987 38.3843 240.581 40.3419Z" fill="#FFC3BD"/>
<path d="M250.864 122.702C250.864 122.702 256.778 173.047 261.074 192.772C265.774 214.38 288.959 273.29 288.959 273.29L300.523 269.292C300.523 269.292 285.655 224.936 281.707 194.729C278.676 171.535 274.356 119.225 274.356 119.225L250.864 122.702Z" fill="#263238"/>
<path d="M286.003 269.592C285.945 269.592 288.374 274.548 288.374 274.548L301.879 270.162L300.293 266.131L286.003 269.592Z" fill="#0C9CFF"/>
<path opacity="0.3" d="M254.127 148.531C255.977 162.524 258.348 179.093 260.429 189.674C263.494 173.46 264.212 152.983 254.127 148.531Z" fill="black"/>
<path d="M237.929 124.61C237.929 124.61 233.023 171.907 233.799 192.92C234.576 214.776 244.785 282.029 244.785 282.029H256.456C256.456 282.029 254.309 216.048 254.804 194.589C255.374 171.188 264.146 120.736 264.146 120.736L237.929 124.61Z" fill="#263238"/>
<path d="M242.514 277.379C242.465 277.379 243.175 282.219 243.175 282.219H257.374L257.762 277.899L242.514 277.379Z" fill="#0C9CFF"/>
<path d="M235.666 77.2486C234.378 79.297 233.072 81.139 231.718 83.0306C230.363 84.9221 228.942 86.7476 227.497 88.5648C224.55 92.2512 221.357 95.7338 217.94 98.9889C217.015 99.8149 216.164 100.641 215.165 101.393L214.438 101.979L214.074 102.268C213.942 102.375 213.884 102.433 213.612 102.632C212.794 103.215 211.895 103.677 210.944 104.003C209.471 104.506 207.932 104.784 206.376 104.829C205.06 104.873 203.743 104.815 202.436 104.655C197.659 104.029 192.998 102.71 188.601 100.74L190.03 95.784C194.256 96.2854 198.512 96.4896 202.766 96.3952C203.708 96.346 204.645 96.2439 205.575 96.0896C206.275 95.9872 206.956 95.7754 207.59 95.4619C207.789 95.3545 207.896 95.2471 207.871 95.2223C207.846 95.1975 207.979 95.1149 208.053 95.0406L208.334 94.7845L208.887 94.2642C209.631 93.6034 210.333 92.8021 211.06 92.0753C212.489 90.5389 213.909 88.9612 215.256 87.2845C216.602 85.6077 217.965 83.9226 219.286 82.188C220.608 80.4534 221.888 78.6941 223.177 76.9347C224.466 75.1753 225.721 73.3251 226.91 71.6152L235.666 77.2486Z" fill="#FFC3BD"/>
<path d="M240.465 75.0602C243.24 84.1462 227.125 94.2152 227.125 94.2152L216.651 80.8753C219.012 76.4767 221.927 72.3988 225.324 68.7413C232.453 60.9852 238.35 68.1466 240.465 75.0602Z" fill="#0C9CFF"/>
<g opacity="0.3">
<path opacity="0.3" d="M240.465 75.0602C243.24 84.1462 227.125 94.2152 227.125 94.2152L216.651 80.8753C219.012 76.4767 221.927 72.3988 225.324 68.7413C232.453 60.9852 238.35 68.1466 240.465 75.0602Z" fill="white"/>
</g>
<path d="M192.459 96.09L183.976 94.5371L184.868 101.872C184.868 101.872 189.279 104.35 192.475 100.476L192.459 96.09Z" fill="#FFC3BD"/>
<path d="M180.704 96.1891L182.538 101.484L184.851 101.872L183.959 94.5371L180.704 96.1891Z" fill="#FFC3BD"/>
</svg>
