<svg width="24" height="24" viewBox="0 0 24 24" fill="none" xmlns="http://www.w3.org/2000/svg">
<path d="M7.40902 14.246L5.87402 7H18.5C19.151 7 19.628 7.611 19.47 8.243L18.122 13.635C17.917 14.454 17.221 15.056 16.381 15.14L9.56502 15.822C8.54902 15.923 7.62002 15.244 7.40902 14.246V14.246Z" stroke="white" stroke-width="1.5" stroke-linecap="round" stroke-linejoin="round"/>
<path d="M5.874 7L5.224 4H3.5" stroke="white" stroke-width="1.5" stroke-linecap="round" stroke-linejoin="round"/>
<path d="M17.1091 19.2666C16.9071 19.2666 16.7431 19.4306 16.7451 19.6326C16.7451 19.8346 16.9091 19.9986 17.1111 19.9986C17.3131 19.9986 17.4771 19.8346 17.4771 19.6326C17.4761 19.4306 17.3121 19.2666 17.1091 19.2666Z" stroke="white" stroke-width="1.5" stroke-linecap="round" stroke-linejoin="round"/>
<path d="M8.69703 19.2666C8.49503 19.2666 8.33103 19.4306 8.33303 19.6326C8.33103 19.8356 8.49603 19.9996 8.69803 19.9996C8.90003 19.9996 9.06403 19.8356 9.06403 19.6336C9.06403 19.4306 8.90003 19.2666 8.69703 19.2666Z" stroke="white" stroke-width="1.5" stroke-linecap="round" stroke-linejoin="round"/>
</svg>
