<svg width="265" height="240" viewBox="0 0 265 240" fill="none" xmlns="http://www.w3.org/2000/svg">
<path d="M132.5 85.666H132.5C137.328 85.666 142.109 86.6156 146.569 88.4604C151.03 90.3053 155.082 93.0094 158.496 96.4183C161.91 99.8272 164.618 103.874 166.466 108.328C168.313 112.782 169.264 117.556 169.264 122.377V210.333H95.7363V122.377C95.7363 117.556 96.6873 112.782 98.5348 108.328C100.382 103.874 103.09 99.8272 106.504 96.4183C109.918 93.0094 113.971 90.3053 118.431 88.4604C122.892 86.6156 127.672 85.666 132.5 85.666Z" fill="#E6E6E6"/>
<path d="M119.745 129.801H113.143V151.677H119.745V129.801Z" fill="white"/>
<path d="M143.454 153.477H121.546V173.255H143.454V153.477Z" fill="white"/>
<path d="M143.454 129.801H121.546V151.677H143.454V129.801Z" fill="white"/>
<path d="M145.255 128.004H151.857V127.555C151.86 124.802 151.272 122.081 150.133 119.574C148.994 117.067 147.331 114.833 145.255 113.021V128.004Z" fill="white"/>
<path d="M121.546 128.004H143.454V111.619C140.233 109.403 136.412 108.219 132.5 108.225C128.588 108.219 124.767 109.403 121.546 111.619V128.004Z" fill="white"/>
<path d="M119.745 153.477H113.143V168.46C113.143 169.732 113.648 170.952 114.549 171.851C115.45 172.75 116.671 173.255 117.944 173.255H119.745V153.477Z" fill="white"/>
<path d="M145.255 153.477V173.255H147.056C148.329 173.255 149.55 172.75 150.451 171.851C151.351 170.952 151.857 169.732 151.857 168.46V153.477H145.255Z" fill="white"/>
<path d="M119.745 128.005V113.021C117.669 114.833 116.006 117.067 114.867 119.574C113.728 122.081 113.14 124.802 113.143 127.555V128.005H119.745Z" fill="white"/>
<path d="M151.857 129.801H145.255V151.677H151.857V129.801Z" fill="white"/>
<path d="M164.012 158.87C166.167 158.87 167.913 157.126 167.913 154.974C167.913 152.822 166.167 151.078 164.012 151.078C161.857 151.078 160.11 152.822 160.11 154.974C160.11 157.126 161.857 158.87 164.012 158.87Z" fill="#3F3D56"/>
<path d="M41.0127 117.584H35.8306V134.754H41.0127V117.584Z" fill="#F2F2F2"/>
<path d="M59.6211 117.584H42.4258V134.754H59.6211V117.584Z" fill="#F2F2F2"/>
<path d="M66.2168 117.584H61.0347V134.754H66.2168V117.584Z" fill="#F2F2F2"/>
<path d="M61.0347 116.172H66.2168V115.819C66.2187 113.658 65.7572 111.523 64.8633 109.555C63.9694 107.587 62.6639 105.834 61.0347 104.412V116.172Z" fill="#F2F2F2"/>
<path d="M59.6211 136.166H42.4258V151.69H59.6211V136.166Z" fill="#F2F2F2"/>
<path d="M41.0127 136.166H35.8306V147.926C35.8306 148.925 36.2277 149.882 36.9344 150.588C37.6412 151.293 38.5998 151.69 39.5994 151.69H41.0127L41.0127 136.166Z" fill="#F2F2F2"/>
<path d="M61.0347 136.166V151.69H62.448C62.9429 151.69 63.433 151.592 63.8903 151.403C64.3475 151.214 64.763 150.937 65.113 150.588C65.4629 150.238 65.7405 149.823 65.9299 149.367C66.1193 148.91 66.2168 148.421 66.2168 147.926V136.166H61.0347Z" fill="#F2F2F2"/>
<path d="M41.0127 116.172V104.412C39.3835 105.834 38.078 107.587 37.1841 109.555C36.2902 111.523 35.8287 113.658 35.8306 115.819V116.172H41.0127Z" fill="#F2F2F2"/>
<path d="M42.4258 116.174H59.6211V103.315C57.0926 101.575 54.0937 100.646 51.0234 100.65C47.9531 100.646 44.9543 101.575 42.4258 103.315V116.174Z" fill="#F2F2F2"/>
<path d="M72.9845 153.566H29.1718C28.8908 153.566 28.6213 153.454 28.4226 153.256C28.2239 153.058 28.1121 152.789 28.1118 152.508V149.685C28.1121 149.405 28.2239 149.136 28.4226 148.937C28.6213 148.739 28.8908 148.627 29.1718 148.627H72.9845C73.2655 148.627 73.5349 148.739 73.7336 148.937C73.9324 149.136 74.0441 149.405 74.0444 149.685V152.508C74.0441 152.789 73.9324 153.058 73.7336 153.256C73.5349 153.454 73.2655 153.566 72.9845 153.566Z" fill="#E6E6E6"/>
<path d="M203.974 117.584H198.792V134.754H203.974V117.584Z" fill="#F2F2F2"/>
<path d="M222.583 117.584H205.388V134.754H222.583V117.584Z" fill="#F2F2F2"/>
<path d="M229.178 117.584H223.996V134.754H229.178V117.584Z" fill="#F2F2F2"/>
<path d="M223.996 116.172H229.178V115.819C229.18 113.658 228.718 111.523 227.824 109.555C226.93 107.587 225.625 105.834 223.996 104.412V116.172Z" fill="#F2F2F2"/>
<path d="M222.583 136.166H205.388V151.69H222.583V136.166Z" fill="#F2F2F2"/>
<path d="M203.974 136.166H198.792V147.926C198.792 148.925 199.189 149.882 199.896 150.588C200.603 151.293 201.561 151.69 202.561 151.69H203.974L203.974 136.166Z" fill="#F2F2F2"/>
<path d="M223.996 136.166V151.69H225.409C225.904 151.69 226.394 151.592 226.851 151.403C227.308 151.214 227.724 150.937 228.074 150.588C228.424 150.238 228.701 149.823 228.891 149.367C229.08 148.91 229.178 148.421 229.178 147.926V136.166H223.996Z" fill="#F2F2F2"/>
<path d="M203.974 116.172V104.412C202.345 105.834 201.039 107.587 200.146 109.555C199.252 111.523 198.79 113.658 198.792 115.819V116.172H203.974Z" fill="#F2F2F2"/>
<path d="M205.388 116.174H222.583V103.315C220.054 101.575 217.056 100.646 213.985 100.65C210.915 100.646 207.916 101.575 205.388 103.315V116.174Z" fill="#F2F2F2"/>
<path d="M235.946 153.566H192.133C191.852 153.566 191.583 153.454 191.384 153.256C191.185 153.058 191.074 152.789 191.073 152.508V149.685C191.074 149.405 191.185 149.136 191.384 148.937C191.583 148.739 191.852 148.627 192.133 148.627H235.946C236.227 148.627 236.496 148.739 236.695 148.937C236.894 149.136 237.006 149.405 237.006 149.685V152.508C237.006 152.789 236.894 153.058 236.695 153.256C236.496 153.454 236.227 153.566 235.946 153.566Z" fill="#E6E6E6"/>
<path d="M248.944 210.633H16.0561C13.4304 210.63 10.913 209.587 9.05636 207.733C7.19969 205.879 6.15531 203.365 6.15234 200.743V50.0047C6.15531 47.3827 7.19969 44.869 9.05636 43.015C10.913 41.1611 13.4304 40.1182 16.0561 40.1152H248.944C251.57 40.1182 254.087 41.1611 255.944 43.015C257.8 44.869 258.845 47.3827 258.848 50.0047V200.743C258.845 203.365 257.8 205.879 255.944 207.733C254.087 209.587 251.57 210.63 248.944 210.633ZM16.0561 40.7146C13.5895 40.7174 11.2247 41.6971 9.48059 43.4387C7.73645 45.1803 6.75537 47.5416 6.75257 50.0047V200.743C6.75537 203.206 7.73645 205.568 9.48059 207.309C11.2247 209.051 13.5895 210.031 16.0561 210.033H248.944C251.411 210.031 253.775 209.051 255.519 207.309C257.264 205.568 258.245 203.206 258.247 200.743V50.0047C258.245 47.5416 257.264 45.1803 255.519 43.4387C253.775 41.6971 251.411 40.7174 248.944 40.7146H16.0561Z" fill="#CCCCCC"/>
<path d="M9.91825 59.8237C7.4251 59.8218 5.02398 58.8831 3.19227 57.1942C1.36055 55.5053 0.232396 53.1899 0.0321021 50.7085C-0.168192 48.227 0.574043 45.7611 2.11124 43.8011C3.64843 41.841 5.868 40.5305 8.32866 40.1299L130.041 0.19729C131.622 -0.0637845 133.236 -0.0657617 134.818 0.191437L256.692 40.1364C259.288 40.564 261.607 42.0028 263.14 44.1368C264.673 46.2707 265.296 48.9253 264.87 51.5171C264.444 54.1089 263.006 56.426 260.87 57.9593C258.735 59.4926 256.077 60.1166 253.481 59.6942C252.168 59.5069 133.579 42.5986 132.498 42.5541C131.42 42.5986 12.7158 59.5234 11.5169 59.6945C10.9884 59.7804 10.4538 59.8237 9.91825 59.8237Z" fill="#CCCCCC"/>
<path d="M184.7 186.822C184.951 186.497 185.128 186.121 185.217 185.72C185.307 185.319 185.307 184.903 185.219 184.502C185.13 184.101 184.954 183.724 184.704 183.398C184.454 183.072 184.135 182.804 183.77 182.615L184.326 176.217L180.515 174.932L179.857 183.977C179.578 184.61 179.542 185.324 179.755 185.982C179.968 186.64 180.416 187.197 181.013 187.548C181.61 187.899 182.315 188.019 182.995 187.885C183.674 187.751 184.281 187.373 184.7 186.822Z" fill="#FFB8B8"/>
<path d="M203.718 236.561L200.287 236.56L198.655 223.346L203.719 223.346L203.718 236.561Z" fill="#FFB8B8"/>
<path d="M197.836 235.58H204.453V239.74H193.67C193.67 239.194 193.778 238.653 193.987 238.148C194.196 237.643 194.503 237.185 194.89 236.799C195.277 236.412 195.736 236.106 196.242 235.897C196.747 235.688 197.289 235.58 197.836 235.58Z" fill="#2F2E41"/>
<path d="M195.93 227.792L192.598 228.609L187.854 216.165L192.772 214.959L195.93 227.792Z" fill="#FFB8B8"/>
<path d="M189.984 228.244L196.41 226.667L197.404 230.707L186.933 233.276C186.802 232.746 186.777 232.195 186.86 231.655C186.943 231.115 187.131 230.596 187.415 230.129C187.698 229.662 188.071 229.255 188.512 228.931C188.953 228.608 189.453 228.374 189.984 228.244Z" fill="#2F2E41"/>
<path d="M199.702 232.347C199.389 232.348 199.087 232.232 198.854 232.023C198.622 231.814 198.475 231.526 198.443 231.215L194.495 194.488L191.059 205.719L195.925 223.26C196.009 223.561 195.979 223.882 195.84 224.161C195.701 224.441 195.464 224.66 195.173 224.775L191.305 226.32C191.146 226.384 190.975 226.415 190.804 226.411C190.632 226.407 190.463 226.368 190.307 226.297C190.151 226.226 190.011 226.124 189.896 225.998C189.78 225.871 189.691 225.722 189.635 225.561L183.671 208.476C183.019 206.611 182.73 204.638 182.821 202.664L183.653 184.227L205.574 185.153L205.232 230.769C205.228 231.086 205.105 231.391 204.888 231.623C204.671 231.855 204.375 231.998 204.058 232.024L199.801 232.344C199.768 232.346 199.735 232.347 199.702 232.347Z" fill="#2F2E41"/>
<path d="M196.072 143.424C200.143 143.424 203.443 140.129 203.443 136.064C203.443 131.999 200.143 128.703 196.072 128.703C192.001 128.703 188.701 131.999 188.701 136.064C188.701 140.129 192.001 143.424 196.072 143.424Z" fill="#FFB8B8"/>
<path d="M201.492 186.353C199.551 186.353 197.139 186.194 194.645 186.03C191.235 185.806 187.71 185.575 185.078 185.727C184.723 185.762 184.365 185.706 184.037 185.564C183.71 185.421 183.424 185.197 183.208 184.914C180.495 181.445 184.68 167.92 184.859 167.346L188.264 152.221L188.411 152.254L188.264 152.221C189.013 148.895 191.407 146.441 194.511 145.818C197.416 145.235 200.226 146.396 202.028 148.927C202.123 149.061 202.219 149.199 202.315 149.34C208.182 158.018 204.863 179.577 204.641 180.968C204.951 181.339 206.627 183.435 206.166 184.891C205.979 185.483 205.47 185.887 204.653 186.091C203.613 186.297 202.552 186.385 201.492 186.353Z" fill="#CCCCCC"/>
<path d="M185.197 186.36C184.53 186.36 183.629 186.114 182.415 185.609C181.893 185.393 180.305 184.733 182.233 167.907C183.18 159.642 184.537 151.434 184.55 151.352L184.563 151.273L184.636 151.24C184.671 151.224 188.136 149.638 188.739 147.6C188.76 147.53 188.783 147.461 188.809 147.395C188.975 146.942 189.309 146.57 189.743 146.358C190.176 146.145 190.676 146.108 191.136 146.254C191.622 146.37 192.046 146.666 192.322 147.083C192.597 147.5 192.704 148.006 192.619 148.498C192.409 149.827 192.006 151.119 191.422 152.331C189.791 155.691 188.687 164.596 188.676 164.686C188.613 165.447 187.133 183.467 186.848 184.835C186.749 185.313 186.566 185.897 186.028 186.181C185.77 186.308 185.485 186.369 185.197 186.36Z" fill="#2F2E41"/>
<path d="M193.25 185.669C193.115 185.669 192.985 185.624 192.878 185.542C190.71 183.896 194.219 163.949 196.301 157.067C196.718 155.689 197.089 154.509 197.404 153.559C197.979 151.855 198.38 150.097 198.601 148.313C198.716 147.346 198.965 146.794 199.363 146.625C199.639 146.507 199.964 146.587 200.329 146.863C202.251 146.768 204.12 147.552 205.852 148.415L207.41 149.192L209.158 180.103C209.109 182.076 205.215 183.469 203.515 183.558C200.788 183.701 195.89 184.144 193.731 185.508C193.59 185.607 193.423 185.663 193.25 185.669Z" fill="#2F2E41"/>
<path d="M183.509 179.87C183.483 179.87 183.458 179.87 183.432 179.868L179.9 179.651C179.724 179.64 179.553 179.593 179.396 179.512C179.239 179.432 179.101 179.32 178.991 179.183C178.88 179.046 178.799 178.888 178.753 178.718C178.707 178.548 178.696 178.371 178.723 178.197L180.321 167.624L183.329 152.791C183.403 152.426 183.554 152.08 183.77 151.776C183.987 151.472 184.265 151.217 184.586 151.028C184.908 150.838 185.265 150.718 185.636 150.676C186.007 150.633 186.383 150.669 186.739 150.78C187.348 150.974 187.868 151.379 188.204 151.922C188.54 152.465 188.67 153.11 188.572 153.741L186.182 168.604L184.767 178.777C184.724 179.08 184.573 179.357 184.342 179.557C184.111 179.758 183.815 179.869 183.509 179.87Z" fill="#2F2E41"/>
<path d="M197.418 143.244C198.528 143.268 199.63 143.057 200.652 142.626C201.674 142.194 202.593 141.551 203.348 140.74C204.104 139.928 204.679 138.966 205.035 137.917C205.392 136.868 205.522 135.755 205.418 134.652C205.313 133.549 204.976 132.48 204.428 131.517C203.88 130.553 203.135 129.716 202.24 129.061C201.345 128.405 200.322 127.946 199.237 127.714C198.152 127.482 197.03 127.481 195.945 127.713C194.324 126.73 192.439 126.069 190.55 126.237C188.661 126.405 186.793 127.525 186.087 129.282C185.381 131.04 186.14 133.356 187.896 134.071C189.022 134.528 190.293 134.306 191.495 134.122C192.697 133.937 194.007 133.817 195.053 134.436C196.099 135.055 196.569 136.715 195.633 137.489C195.136 137.915 194.781 138.483 194.616 139.116C194.451 139.749 194.482 140.417 194.707 141.031C195.178 142.247 196.462 143.223 197.418 143.244Z" fill="#2F2E41"/>
<path d="M181.079 143.898C179.158 143.9 177.316 144.663 175.958 146.019C174.6 147.376 173.837 149.216 173.837 151.134C173.837 153.053 174.6 154.892 175.958 156.249C177.316 157.606 179.158 158.369 181.079 158.37H181.079C183 158.369 184.842 157.606 186.2 156.249C187.558 154.892 188.321 153.053 188.321 151.134C188.321 149.216 187.558 147.376 186.2 146.019C184.842 144.663 183 143.9 181.079 143.898Z" fill="#6C63FF"/>
<path d="M180.392 154.141C180.201 154.141 180.015 154.08 179.863 153.965L179.853 153.958L177.86 152.436C177.768 152.365 177.691 152.277 177.633 152.177C177.574 152.076 177.537 151.965 177.521 151.85C177.506 151.735 177.514 151.618 177.544 151.506C177.574 151.393 177.626 151.288 177.696 151.196C177.767 151.104 177.855 151.027 177.956 150.969C178.057 150.91 178.168 150.873 178.283 150.857C178.399 150.842 178.516 150.85 178.628 150.88C178.74 150.91 178.846 150.962 178.938 151.032L180.229 152.021L183.279 148.047C183.35 147.955 183.438 147.878 183.539 147.82C183.639 147.762 183.75 147.724 183.866 147.709C183.981 147.694 184.098 147.701 184.21 147.731C184.322 147.761 184.428 147.813 184.52 147.884L184.52 147.884L184.501 147.91L184.521 147.884C184.707 148.027 184.829 148.237 184.859 148.47C184.89 148.702 184.827 148.937 184.685 149.123L181.097 153.795C181.014 153.903 180.907 153.99 180.785 154.049C180.663 154.109 180.529 154.14 180.393 154.14L180.392 154.141Z" fill="white"/>
<path d="M196.344 163.965H170.911C170.573 163.965 170.238 164.031 169.926 164.16C169.613 164.29 169.329 164.479 169.09 164.718C168.851 164.957 168.661 165.24 168.532 165.552C168.402 165.864 168.336 166.199 168.336 166.537V191.933C168.336 192.271 168.402 192.605 168.532 192.917C168.661 193.229 168.851 193.513 169.09 193.752C169.329 193.99 169.613 194.18 169.926 194.309C170.238 194.438 170.573 194.505 170.911 194.505H196.344C196.683 194.505 197.018 194.438 197.33 194.309C197.643 194.18 197.927 193.99 198.166 193.752C198.405 193.513 198.595 193.229 198.724 192.917C198.853 192.605 198.92 192.271 198.92 191.933V166.537C198.92 166.199 198.853 165.864 198.724 165.552C198.595 165.24 198.405 164.957 198.166 164.718C197.927 164.479 197.643 164.29 197.33 164.16C197.018 164.031 196.683 163.965 196.344 163.965Z" fill="#6C63FF"/>
<path d="M190.616 182.954L178.608 185.289C177.896 185.427 177.158 185.277 176.557 184.872C175.955 184.467 175.539 183.84 175.399 183.129L174.476 178.396C174.338 177.685 174.489 176.948 174.894 176.347C175.3 175.746 175.927 175.331 176.639 175.192L188.647 172.857C189.359 172.719 190.097 172.869 190.699 173.274C191.301 173.679 191.717 174.305 191.856 175.016L192.779 179.749C192.917 180.461 192.767 181.198 192.361 181.798C191.956 182.399 191.328 182.815 190.616 182.954Z" fill="white"/>
<path d="M188.214 177.364L179.05 179.146C178.882 179.179 178.708 179.143 178.567 179.048C178.425 178.953 178.327 178.805 178.295 178.638C178.262 178.47 178.297 178.297 178.393 178.156C178.488 178.014 178.636 177.916 178.804 177.884L187.968 176.102C188.051 176.086 188.136 176.086 188.219 176.103C188.302 176.119 188.381 176.152 188.451 176.199C188.521 176.247 188.581 176.307 188.628 176.378C188.675 176.448 188.707 176.527 188.723 176.61C188.739 176.693 188.739 176.778 188.722 176.861C188.705 176.944 188.672 177.022 188.625 177.092C188.578 177.162 188.517 177.222 188.446 177.269C188.376 177.316 188.297 177.348 188.214 177.364Z" fill="#6C63FF"/>
<path d="M186.433 180.003L181.693 180.924C181.61 180.94 181.524 180.94 181.441 180.923C181.359 180.906 181.28 180.873 181.21 180.826C181.14 180.779 181.08 180.719 181.033 180.648C180.986 180.578 180.954 180.499 180.938 180.416C180.921 180.333 180.922 180.248 180.939 180.165C180.955 180.082 180.988 180.004 181.036 179.934C181.083 179.864 181.144 179.804 181.214 179.757C181.285 179.711 181.364 179.678 181.447 179.662L186.187 178.74C186.354 178.708 186.528 178.743 186.67 178.838C186.811 178.934 186.909 179.081 186.942 179.249C186.974 179.416 186.939 179.589 186.844 179.731C186.748 179.872 186.6 179.97 186.433 180.003H186.433Z" fill="#6C63FF"/>
<path d="M198.92 166.537V169.912H168.336V166.537C168.336 166.199 168.402 165.864 168.532 165.552C168.661 165.24 168.851 164.957 169.09 164.718C169.329 164.479 169.613 164.29 169.926 164.16C170.238 164.031 170.573 163.965 170.911 163.965H196.344C196.683 163.965 197.018 164.031 197.33 164.16C197.643 164.29 197.927 164.479 198.166 164.718C198.405 164.957 198.595 165.24 198.724 165.552C198.853 165.864 198.92 166.199 198.92 166.537Z" fill="#3F3D56"/>
<path d="M195.574 168.297C195.79 167.947 196.079 167.649 196.423 167.422C196.766 167.196 197.155 167.048 197.562 166.988C197.969 166.929 198.385 166.959 198.779 167.076C199.173 167.194 199.536 167.397 199.844 167.67L205.634 164.877L208.192 167.977L199.959 171.806C199.465 172.291 198.811 172.579 198.119 172.614C197.427 172.649 196.746 172.429 196.206 171.997C195.665 171.564 195.303 170.949 195.186 170.267C195.07 169.585 195.208 168.884 195.574 168.297Z" fill="#FFB8B8"/>
<path d="M203.618 171.297C203.333 171.297 203.056 171.201 202.832 171.025C202.608 170.849 202.45 170.603 202.384 170.326L201.542 166.835C201.478 166.572 201.5 166.296 201.605 166.047C201.71 165.797 201.892 165.588 202.125 165.45L207.197 162.419L204.604 152.939C204.421 152.265 204.461 151.55 204.718 150.901H204.718C204.963 150.285 205.391 149.76 205.946 149.396C206.5 149.033 207.154 148.848 207.817 148.869C208.48 148.889 209.12 149.113 209.651 149.51C210.182 149.907 210.578 150.457 210.784 151.087L213.647 159.815C213.999 160.879 214.002 162.027 213.655 163.093C213.309 164.158 212.631 165.086 211.72 165.741L204.362 171.056C204.146 171.213 203.885 171.297 203.618 171.297Z" fill="#2F2E41"/>
<path d="M212.001 240H181.389C181.309 240 181.233 239.968 181.177 239.912C181.12 239.856 181.089 239.78 181.089 239.7C181.089 239.621 181.12 239.544 181.177 239.488C181.233 239.432 181.309 239.4 181.389 239.4H212.001C212.08 239.4 212.156 239.432 212.213 239.488C212.269 239.544 212.301 239.621 212.301 239.7C212.301 239.78 212.269 239.856 212.213 239.912C212.156 239.968 212.08 240 212.001 240Z" fill="#CCCCCC"/>
</svg>
