<svg width="34" height="34" viewBox="0 0 34 34" fill="none" xmlns="http://www.w3.org/2000/svg">
<path d="M10.0408 30.9018C8.99526 30.9018 8.00501 30.6708 7.11534 30.2586L2.83984 31.1667L3.73376 26.8827C3.31868 25.9902 3.08634 24.9957 3.08634 23.9473C3.08634 20.111 6.19593 17 10.0337 17C13.8714 17 16.981 20.111 16.981 23.9473C16.981 27.7837 13.87 30.8947 10.0337 30.8947" stroke="#0C9CFF" stroke-width="1.5" stroke-linecap="round" stroke-linejoin="round"/>
<path d="M9.367 17.0334C8.81025 15.8222 8.5 14.4948 8.5 13.0965C8.5 7.40576 13.5972 2.83984 19.8333 2.83984C26.0695 2.83984 31.1667 7.40576 31.1667 13.0965C31.1667 16.4597 29.3788 19.4205 26.6347 21.2877C26.6362 22.3587 26.6333 23.8023 26.6333 25.3181L22.1864 23.1279C21.4257 23.2738 20.6394 23.3532 19.8333 23.3532C18.8261 23.3532 17.8528 23.2228 16.9207 22.999" stroke="#0C9CFF" stroke-width="1.5" stroke-linecap="round" stroke-linejoin="round"/>
<path d="M6.78498 24.0403C6.81264 24.0679 6.81264 24.1128 6.78498 24.1405C6.75732 24.1681 6.71247 24.1681 6.68481 24.1405C6.65715 24.1128 6.65715 24.0679 6.68481 24.0403C6.71247 24.0126 6.75732 24.0126 6.78498 24.0403Z" stroke="#0C9CFF" stroke-width="1.5" stroke-linecap="round" stroke-linejoin="round"/>
<path d="M9.97248 24.0403C10.0001 24.0679 10.0001 24.1128 9.97248 24.1405C9.94482 24.1681 9.89997 24.1681 9.87231 24.1405C9.84465 24.1128 9.84465 24.0679 9.87231 24.0403C9.89997 24.0126 9.94482 24.0126 9.97248 24.0403Z" stroke="#0C9CFF" stroke-width="1.5" stroke-linecap="round" stroke-linejoin="round"/>
<path d="M13.16 24.0403C13.1876 24.0679 13.1876 24.1128 13.16 24.1405C13.1323 24.1681 13.0875 24.1681 13.0598 24.1405C13.0321 24.1128 13.0321 24.0679 13.0598 24.0403C13.0875 24.0126 13.1323 24.0126 13.16 24.0403Z" stroke="#0C9CFF" stroke-width="1.5" stroke-linecap="round" stroke-linejoin="round"/>
<path d="M19.8263 14.2373C19.8263 13.3065 20.4015 12.8022 20.978 12.414C21.5419 12.0344 22.1057 11.5399 22.1057 10.629C22.1057 9.36961 21.0857 8.34961 19.8263 8.34961C18.5669 8.34961 17.5469 9.36961 17.5469 10.629" stroke="#0C9CFF" stroke-width="1.5" stroke-linecap="round" stroke-linejoin="round"/>
<path d="M19.8428 17.6523C19.7649 17.6523 19.7012 17.7161 19.7012 17.794C19.7012 17.8719 19.7649 17.9357 19.8428 17.9357C19.9208 17.9357 19.9845 17.8719 19.9845 17.794C19.9845 17.7161 19.9208 17.6523 19.8428 17.6523Z" stroke="#0C9CFF" stroke-width="1.5" stroke-linecap="round" stroke-linejoin="round"/>
</svg>
