<svg width="24" height="24" viewBox="0 0 24 24" fill="none" xmlns="http://www.w3.org/2000/svg">
<path d="M18.99 21H5.01C3.9 21 3 20.105 3 19V11C3 9.895 3.9 9 5.01 9H18.99C20.1 9 21 9.895 21 11V19C21 20.105 20.099 21 18.99 21V21Z" stroke="white" stroke-width="1.5" stroke-linecap="round" stroke-linejoin="round"/>
<path d="M11.285 13.14L13.905 14.69C14.236 14.886 14.236 15.366 13.905 15.561L11.285 17.111C10.948 17.311 10.521 17.067 10.521 16.675V13.576C10.521 13.184 10.948 12.94 11.285 13.14Z" stroke="white" stroke-width="1.5" stroke-linecap="round" stroke-linejoin="round"/>
<path d="M4.78223 9V8C4.78223 6.895 5.67723 6 6.78223 6H17.2172C18.3222 6 19.2172 6.895 19.2172 8V9" stroke="white" stroke-width="1.5" stroke-linecap="round" stroke-linejoin="round"/>
<path d="M6.51611 6V5C6.51611 3.895 7.41111 3 8.51611 3H15.4851C16.5901 3 17.4851 3.895 17.4851 5V6" stroke="white" stroke-width="1.5" stroke-linecap="round" stroke-linejoin="round"/>
</svg>
