<svg width="70" height="103" viewBox="0 0 70 103" fill="none" xmlns="http://www.w3.org/2000/svg">
<path d="M35 80V100M19 100H51H19ZM67 40V48C67 65.6 52.6 80 35 80C17.4 80 3 65.6 3 48V40H67Z" stroke="white" stroke-width="6" stroke-linecap="round" stroke-linejoin="round"/>
<path d="M35.0002 68.0002C32.3602 67.994 29.7485 67.4575 27.3199 66.4225C24.8914 65.3875 22.6955 63.8751 20.8627 61.9752C17.1106 58.1911 15.0038 53.079 15.0002 47.7502V20.0002C14.9899 17.3708 15.5002 14.7655 16.5017 12.3344C17.5032 9.90324 18.9759 7.69438 20.8352 5.83517C22.6944 3.97595 24.9032 2.50315 27.3344 1.50169C29.7655 0.500223 32.3708 -0.0100969 35.0002 0.000151344C46.2152 0.000151344 55.0002 8.78515 55.0002 20.0002V47.7502C55.0002 58.9152 46.0277 68.0002 35.0002 68.0002Z" fill="white"/>
</svg>
